{"asset":{"generator":"Khronos glTF Blender I/O v4.4.55","version":"2.0"},"extensionsUsed":["EXT_texture_webp"],"extensionsRequired":["EXT_texture_webp"],"scene":0,"scenes":[{"name":"Scene","nodes":[0]}],"nodes":[{"mesh":0,"name":"SM_Env_Rock_Pebbles_01","rotation":[0.7071068286895752,0,0,0.7071068286895752],"scale":[0.009999999776482582,0.009999999776482582,0.009999999776482582]}],"materials":[{"doubleSided":true,"name":"PolygonNatureBiomesS2_Alpine_Texture_01","pbrMetallicRoughness":{"baseColorTexture":{"index":0},"metallicFactor":0},"alphaMode":"MASK","alphaCutoff":0.5}],"meshes":[{"name":"Mesh","primitives":[{"attributes":{"POSITION":0,"NORMAL":1,"TEXCOORD_0":2},"indices":3,"material":0}]}],"textures":[{"extensions":{"EXT_texture_webp":{"source":0}},"sampler":0}],"images":[{"mimeType":"image/webp","name":"PolygonNatureBiomesS2_Alpine_Texture_01","uri":"PolygonNatureBiomesS2_Alpine_Texture_01.webp"}],"accessors":[{"bufferView":0,"componentType":5126,"count":318,"max":[12.535979270935059,17.655447006225586,1.9161455631256104],"min":[-34.2503547668457,-17.043975830078125,-2.796319007873535],"type":"VEC3"},{"bufferView":1,"componentType":5126,"count":318,"type":"VEC3"},{"bufferView":2,"componentType":5126,"count":318,"type":"VEC2"},{"bufferView":3,"componentType":5123,"count":342,"type":"SCALAR"}],"bufferViews":[{"buffer":0,"byteLength":3816,"byteOffset":0,"target":34962},{"buffer":0,"byteLength":3816,"byteOffset":3816,"target":34962},{"buffer":0,"byteLength":2544,"byteOffset":7632,"target":34962},{"buffer":0,"byteLength":684,"byteOffset":10176,"target":34963}],"samplers":[{"magFilter":9729,"minFilter":9987}],"buffers":[{"byteLength":10860,"uri":"alpine_SM_Env_Rock_Pebbles_01.bin"}]}