{"asset":{"generator":"Khronos glTF Blender I/O v4.4.55","version":"2.0"},"extensionsUsed":["EXT_texture_webp"],"extensionsRequired":["EXT_texture_webp"],"scene":0,"scenes":[{"name":"Scene","nodes":[0]}],"nodes":[{"mesh":0,"name":"SM_Prop_Jetty_01","rotation":[0.7071068286895752,0,0,0.7071068286895752],"scale":[0.009999999776482582,0.009999999776482582,0.009999999776482582]}],"materials":[{"doubleSided":true,"name":"lambert3","pbrMetallicRoughness":{"baseColorTexture":{"index":1},"metallicFactor":0}}],"meshes":[{"name":"Mesh","primitives":[{"attributes":{"POSITION":0,"NORMAL":1,"TEXCOORD_0":2},"indices":3,"material":0}]}],"textures":[{"extensions":{},"sampler":0},{"extensions":{"EXT_texture_webp":{"source":0}},"sampler":0}],"images":[{"mimeType":"image/webp","name":"PolygonNatureBiomesS2_Alpine_Texture_01","uri":"PolygonNatureBiomesS2_Alpine_Texture_01.webp"}],"accessors":[{"bufferView":0,"componentType":5126,"count":6588,"max":[172.3098602294922,253.72828674316406,0],"min":[-172.3098602294922,-253.72828674316406,-442.8906555175781],"type":"VEC3"},{"bufferView":1,"componentType":5126,"count":6588,"type":"VEC3"},{"bufferView":2,"componentType":5126,"count":6588,"type":"VEC2"},{"bufferView":3,"componentType":5123,"count":9552,"type":"SCALAR"}],"bufferViews":[{"buffer":0,"byteLength":79056,"byteOffset":0,"target":34962},{"buffer":0,"byteLength":79056,"byteOffset":79056,"target":34962},{"buffer":0,"byteLength":52704,"byteOffset":158112,"target":34962},{"buffer":0,"byteLength":19104,"byteOffset":210816,"target":34963}],"samplers":[{"magFilter":9729,"minFilter":9987}],"buffers":[{"byteLength":229920,"uri":"alpine_SM_Prop_Jetty_01.bin"}]}