{"asset":{"generator":"Khronos glTF Blender I/O v4.4.55","version":"2.0"},"extensionsUsed":["EXT_texture_webp"],"extensionsRequired":["EXT_texture_webp"],"scene":0,"scenes":[{"name":"Scene","nodes":[0]}],"nodes":[{"mesh":0,"name":"SM_Env_Stalactite_07","rotation":[0.7071068286895752,0,0,0.7071068286895752],"scale":[0.009999999776482582,0.009999999776482582,0.009999999776482582]}],"materials":[{"doubleSided":true,"name":"lambert3","pbrMetallicRoughness":{"baseColorTexture":{"index":1},"metallicFactor":0},"alphaMode":"MASK","alphaCutoff":0.5}],"meshes":[{"name":"Mesh","primitives":[{"attributes":{"POSITION":0,"NORMAL":1,"TEXCOORD_0":2},"indices":3,"material":0}]}],"textures":[{"extensions":{},"sampler":0},{"extensions":{"EXT_texture_webp":{"source":0}},"sampler":0}],"images":[{"mimeType":"image/webp","name":"PolygonNatureBiomesS2_Alpine_Texture_01","uri":"PolygonNatureBiomesS2_Alpine_Texture_01.webp"}],"accessors":[{"bufferView":0,"componentType":5126,"count":1386,"max":[134.72296142578125,55.03260040283203,226.66722106933594],"min":[-134.72296142578125,-55.03260040283203,-19.383209228515625],"type":"VEC3"},{"bufferView":1,"componentType":5126,"count":1386,"type":"VEC3"},{"bufferView":2,"componentType":5126,"count":1386,"type":"VEC2"},{"bufferView":3,"componentType":5123,"count":1914,"type":"SCALAR"}],"bufferViews":[{"buffer":0,"byteLength":16632,"byteOffset":0,"target":34962},{"buffer":0,"byteLength":16632,"byteOffset":16632,"target":34962},{"buffer":0,"byteLength":11088,"byteOffset":33264,"target":34962},{"buffer":0,"byteLength":3828,"byteOffset":44352,"target":34963}],"samplers":[{"magFilter":9729,"minFilter":9987}],"buffers":[{"byteLength":48180,"uri":"alpine_SM_Env_Stalactite_07.bin"}]}