{
	"asset":{
		"generator":"Khronos glTF Blender I/O v4.4.55",
		"version":"2.0"
	},
	"scene":0,
	"scenes":[
		{
			"name":"Scene",
			"nodes":[
				0
			]
		}
	],
	"nodes":[
		{
			"mesh":0,
			"name":"SM_Env_Rock_01",
			"rotation":[
				0.7071068286895752,
				0,
				0,
				0.7071068286895752
			],
			"scale":[
				0.009999999776482582,
				0.009999999776482582,
				0.009999999776482582
			],
			"translation":[
				1.1557520627975464,
				0,
				-9.125452995300293
			]
		}
	],
	"materials":[
		{
			"doubleSided":true,
			"name":"PolygonNatureBiomesS2_Alpine_Texture_01",
			"pbrMetallicRoughness":{
				"metallicFactor":0
			}
		}
	],
	"meshes":[
		{
			"name":"Mesh",
			"primitives":[
				{
					"attributes":{
						"POSITION":0,
						"NORMAL":1,
						"TEXCOORD_0":2
					},
					"indices":3,
					"material":0
				}
			]
		}
	],
	"accessors":[
		{
			"bufferView":0,
			"componentType":5126,
			"count":2358,
			"max":[
				194.7649383544922,
				1054.0679931640625,
				41.54005432128906
			],
			"min":[
				-425.91534423828125,
				771.0226440429688,
				-191.39654541015625
			],
			"type":"VEC3"
		},
		{
			"bufferView":1,
			"componentType":5126,
			"count":2358,
			"type":"VEC3"
		},
		{
			"bufferView":2,
			"componentType":5126,
			"count":2358,
			"type":"VEC2"
		},
		{
			"bufferView":3,
			"componentType":5123,
			"count":2358,
			"type":"SCALAR"
		}
	],
	"bufferViews":[
		{
			"buffer":0,
			"byteLength":28296,
			"byteOffset":0,
			"target":34962
		},
		{
			"buffer":0,
			"byteLength":28296,
			"byteOffset":28296,
			"target":34962
		},
		{
			"buffer":0,
			"byteLength":18864,
			"byteOffset":56592,
			"target":34962
		},
		{
			"buffer":0,
			"byteLength":4716,
			"byteOffset":75456,
			"target":34963
		}
	],
	"buffers":[
		{
			"byteLength":80172,
			"uri":"alpine_SM_Env_Rock_01.bin"
		}
	]
}
