{
	"asset":{
		"generator":"Khronos glTF Blender I/O v4.4.55",
		"version":"2.0"
	},
	"scene":0,
	"scenes":[
		{
			"name":"Scene",
			"nodes":[
				0
			]
		}
	],
	"nodes":[
		{
			"mesh":0,
			"name":"SM_Prop_Sleeping_Bag_01",
			"rotation":[
				0.7071068286895752,
				0,
				0,
				0.7071068286895752
			],
			"scale":[
				0.009999999776482582,
				0.009999999776482582,
				0.009999999776482582
			]
		}
	],
	"materials":[
		{
			"doubleSided":true,
			"emissiveFactor":[
				0.5,
				0.5,
				0.5
			],
			"name":"MAT_01A",
			"pbrMetallicRoughness":{
				"metallicFactor":0
			}
		}
	],
	"meshes":[
		{
			"name":"Mesh",
			"primitives":[
				{
					"attributes":{
						"POSITION":0,
						"NORMAL":1,
						"TEXCOORD_0":2
					},
					"indices":3,
					"material":0
				}
			]
		}
	],
	"accessors":[
		{
			"bufferView":0,
			"componentType":5126,
			"count":1405,
			"max":[
				46.5963249206543,
				102.86894226074219,
				0.8872332572937012
			],
			"min":[
				-46.576744079589844,
				-106.50643157958984,
				-27.589799880981445
			],
			"type":"VEC3"
		},
		{
			"bufferView":1,
			"componentType":5126,
			"count":1405,
			"type":"VEC3"
		},
		{
			"bufferView":2,
			"componentType":5126,
			"count":1405,
			"type":"VEC2"
		},
		{
			"bufferView":3,
			"componentType":5123,
			"count":2334,
			"type":"SCALAR"
		}
	],
	"bufferViews":[
		{
			"buffer":0,
			"byteLength":16860,
			"byteOffset":0,
			"target":34962
		},
		{
			"buffer":0,
			"byteLength":16860,
			"byteOffset":16860,
			"target":34962
		},
		{
			"buffer":0,
			"byteLength":11240,
			"byteOffset":33720,
			"target":34962
		},
		{
			"buffer":0,
			"byteLength":4668,
			"byteOffset":44960,
			"target":34963
		}
	],
	"buffers":[
		{
			"byteLength":49628,
			"uri":"alpine_SM_Prop_Sleeping_Bag_01.bin"
		}
	]
}
