{
	"asset":{
		"generator":"Khronos glTF Blender I/O v4.4.55",
		"version":"2.0"
	},
	"extensionsUsed":[
		"EXT_texture_webp"
	],
	"extensionsRequired":[
		"EXT_texture_webp"
	],
	"scene":0,
	"scenes":[
		{
			"name":"Scene",
			"nodes":[
				0
			]
		}
	],
	"nodes":[
		{
			"mesh":0,
			"name":"SM_Env_Rock_Cliff_Arch_01",
			"rotation":[
				0.7071068286895752,
				0,
				0,
				0.7071068286895752
			],
			"scale":[
				0.009999999776482582,
				0.009999999776482582,
				0.009999999776482582
			]
		}
	],
	"materials":[
		{
			"doubleSided":true,
			"name":"lambert1652",
			"pbrMetallicRoughness":{
				"baseColorTexture":{
					"index":0
				},
				"metallicFactor":0
			}
		}
	],
	"meshes":[
		{
			"name":"Mesh",
			"primitives":[
				{
					"attributes":{
						"POSITION":0,
						"NORMAL":1,
						"TEXCOORD_0":2,
						"TEXCOORD_1":3
					},
					"indices":4,
					"material":0
				}
			]
		}
	],
	"textures":[
		{
			"extensions":{
				"EXT_texture_webp":{
					"source":0
				}
			},
			"sampler":0
		}
	],
	"images":[
		{
			"mimeType":"image/webp",
			"name":"PolygonNatureBiomesS2_Alpine_Texture_01",
			"uri":"PolygonNatureBiomesS2_Alpine_Texture_01.webp"
		}
	],
	"accessors":[
		{
			"bufferView":0,
			"componentType":5126,
			"count":3672,
			"max":[
				655.1351928710938,
				469.85003662109375,
				17.8955078125
			],
			"min":[
				-655.1351928710938,
				-469.85003662109375,
				-894.3870239257812
			],
			"type":"VEC3"
		},
		{
			"bufferView":1,
			"componentType":5126,
			"count":3672,
			"type":"VEC3"
		},
		{
			"bufferView":2,
			"componentType":5126,
			"count":3672,
			"type":"VEC2"
		},
		{
			"bufferView":3,
			"componentType":5126,
			"count":3672,
			"type":"VEC2"
		},
		{
			"bufferView":4,
			"componentType":5123,
			"count":3678,
			"type":"SCALAR"
		}
	],
	"bufferViews":[
		{
			"buffer":0,
			"byteLength":44064,
			"byteOffset":0,
			"target":34962
		},
		{
			"buffer":0,
			"byteLength":44064,
			"byteOffset":44064,
			"target":34962
		},
		{
			"buffer":0,
			"byteLength":29376,
			"byteOffset":88128,
			"target":34962
		},
		{
			"buffer":0,
			"byteLength":29376,
			"byteOffset":117504,
			"target":34962
		},
		{
			"buffer":0,
			"byteLength":7356,
			"byteOffset":146880,
			"target":34963
		}
	],
	"samplers":[
		{
			"magFilter":9729,
			"minFilter":9987
		}
	],
	"buffers":[
		{
			"byteLength":154236,
			"uri":"alpine_SM_Env_Rock_Cliff_Arch_01.bin"
		}
	]
}
