{"asset":{"generator":"Khronos glTF Blender I/O v4.4.55","version":"2.0"},"extensionsUsed":["EXT_texture_webp"],"extensionsRequired":["EXT_texture_webp"],"scene":0,"scenes":[{"name":"Scene","nodes":[3]}],"nodes":[{"mesh":0,"name":"SM_Env_Bush_Flower_01_Alt_LOD0"},{"mesh":1,"name":"SM_Env_Bush_Flower_01_Alt_LOD1"},{"mesh":2,"name":"SM_Env_Bush_Flower_01_Alt_LOD2"},{"children":[0,1,2],"name":"SM_Env_Bush_Flower_01_Alt","rotation":[0.7071068286895752,0,0,0.7071068286895752],"scale":[0.009999999776482582,0.009999999776482582,0.009999999776482582]}],"materials":[{"alphaMode":"MASK","doubleSided":true,"name":"lambert4","pbrMetallicRoughness":{"baseColorTexture":{"index":0},"metallicFactor":0},"alphaCutoff":0.5}],"meshes":[{"name":"Mesh","primitives":[{"attributes":{"POSITION":0,"NORMAL":1,"TEXCOORD_0":2,"COLOR_0":3,"COLOR_1":4},"indices":5,"material":0}]},{"name":"Mesh.001","primitives":[{"attributes":{"POSITION":6,"NORMAL":7,"TEXCOORD_0":8,"COLOR_0":9,"COLOR_1":10},"indices":11,"material":0}]},{"name":"Mesh.002","primitives":[{"attributes":{"POSITION":12,"NORMAL":13,"TEXCOORD_0":14,"COLOR_0":15,"COLOR_1":16},"indices":17,"material":0}]}],"textures":[{"extensions":{"EXT_texture_webp":{"source":0}},"sampler":0}],"images":[{"mimeType":"image/webp","name":"Alpine_Bush_Flowers_01","uri":"Alpine_Bush_Flowers_01.webp"}],"accessors":[{"bufferView":0,"componentType":5126,"count":2992,"max":[179.55435180664062,173.71287536621094,10.000316619873047],"min":[-169.67552185058594,-191.89309692382812,-168.74920654296875],"type":"VEC3"},{"bufferView":1,"componentType":5126,"count":2992,"type":"VEC3"},{"bufferView":2,"componentType":5126,"count":2992,"type":"VEC2"},{"bufferView":3,"componentType":5121,"count":2992,"normalized":true,"type":"VEC4"},{"bufferView":4,"componentType":5123,"count":2992,"normalized":true,"type":"VEC4"},{"bufferView":5,"componentType":5123,"count":5040,"type":"SCALAR"},{"bufferView":6,"componentType":5126,"count":1104,"max":[179.5543670654297,173.52735900878906,10.000316619873047],"min":[-169.67552185058594,-191.70758056640625,-168.74920654296875],"type":"VEC3"},{"bufferView":7,"componentType":5126,"count":1104,"type":"VEC3"},{"bufferView":8,"componentType":5126,"count":1104,"type":"VEC2"},{"bufferView":9,"componentType":5121,"count":1104,"normalized":true,"type":"VEC4"},{"bufferView":10,"componentType":5123,"count":1104,"normalized":true,"type":"VEC4"},{"bufferView":11,"componentType":5123,"count":2208,"type":"SCALAR"},{"bufferView":12,"componentType":5126,"count":552,"max":[176.0646209716797,172.33255004882812,10.000320434570312],"min":[-166.185791015625,-190.51275634765625,-168.74920654296875],"type":"VEC3"},{"bufferView":13,"componentType":5126,"count":552,"type":"VEC3"},{"bufferView":14,"componentType":5126,"count":552,"type":"VEC2"},{"bufferView":15,"componentType":5121,"count":552,"normalized":true,"type":"VEC4"},{"bufferView":16,"componentType":5123,"count":552,"normalized":true,"type":"VEC4"},{"bufferView":17,"componentType":5123,"count":1104,"type":"SCALAR"}],"bufferViews":[{"buffer":0,"byteLength":35904,"byteOffset":0,"target":34962},{"buffer":0,"byteLength":35904,"byteOffset":35904,"target":34962},{"buffer":0,"byteLength":23936,"byteOffset":71808,"target":34962},{"buffer":0,"byteLength":11968,"byteOffset":95744,"target":34962},{"buffer":0,"byteLength":23936,"byteOffset":107712,"target":34962},{"buffer":0,"byteLength":10080,"byteOffset":131648,"target":34963},{"buffer":0,"byteLength":13248,"byteOffset":141728,"target":34962},{"buffer":0,"byteLength":13248,"byteOffset":154976,"target":34962},{"buffer":0,"byteLength":8832,"byteOffset":168224,"target":34962},{"buffer":0,"byteLength":4416,"byteOffset":177056,"target":34962},{"buffer":0,"byteLength":8832,"byteOffset":181472,"target":34962},{"buffer":0,"byteLength":4416,"byteOffset":190304,"target":34963},{"buffer":0,"byteLength":6624,"byteOffset":194720,"target":34962},{"buffer":0,"byteLength":6624,"byteOffset":201344,"target":34962},{"buffer":0,"byteLength":4416,"byteOffset":207968,"target":34962},{"buffer":0,"byteLength":2208,"byteOffset":212384,"target":34962},{"buffer":0,"byteLength":4416,"byteOffset":214592,"target":34962},{"buffer":0,"byteLength":2208,"byteOffset":219008,"target":34963}],"samplers":[{"magFilter":9729,"minFilter":9987}],"buffers":[{"byteLength":221216,"uri":"alpine_SM_Env_Bush_Flower_01_Alt.bin"}]}