{
	"asset":{
		"generator":"Khronos glTF Blender I/O v4.4.55",
		"version":"2.0"
	},
	"scene":0,
	"scenes":[
		{
			"name":"Scene",
			"nodes":[
				0
			]
		}
	],
	"nodes":[
		{
			"mesh":0,
			"name":"SM_Prop_Canoe_01",
			"rotation":[
				0.7071068286895752,
				0,
				0,
				0.7071068286895752
			],
			"scale":[
				0.009999999776482582,
				0.009999999776482582,
				0.009999999776482582
			]
		}
	],
	"materials":[
		{
			"doubleSided":true,
			"emissiveFactor":[
				0.5,
				0.5,
				0.5
			],
			"name":"MAT_01A",
			"pbrMetallicRoughness":{
				"metallicFactor":0
			}
		}
	],
	"meshes":[
		{
			"name":"Mesh",
			"primitives":[
				{
					"attributes":{
						"POSITION":0,
						"NORMAL":1,
						"TEXCOORD_0":2
					},
					"indices":3,
					"material":0
				}
			]
		}
	],
	"accessors":[
		{
			"bufferView":0,
			"componentType":5126,
			"count":3887,
			"max":[
				82.97603607177734,
				241.42491149902344,
				-0.1551523208618164
			],
			"min":[
				-86.04893493652344,
				-207.10379028320312,
				-118.16236877441406
			],
			"type":"VEC3"
		},
		{
			"bufferView":1,
			"componentType":5126,
			"count":3887,
			"type":"VEC3"
		},
		{
			"bufferView":2,
			"componentType":5126,
			"count":3887,
			"type":"VEC2"
		},
		{
			"bufferView":3,
			"componentType":5123,
			"count":5931,
			"type":"SCALAR"
		}
	],
	"bufferViews":[
		{
			"buffer":0,
			"byteLength":46644,
			"byteOffset":0,
			"target":34962
		},
		{
			"buffer":0,
			"byteLength":46644,
			"byteOffset":46644,
			"target":34962
		},
		{
			"buffer":0,
			"byteLength":31096,
			"byteOffset":93288,
			"target":34962
		},
		{
			"buffer":0,
			"byteLength":11862,
			"byteOffset":124384,
			"target":34963
		}
	],
	"buffers":[
		{
			"byteLength":136248,
			"uri":"alpine_SM_Prop_Canoe_01.bin"
		}
	]
}
