{"asset":{"generator":"Khronos glTF Blender I/O v4.4.55","version":"2.0"},"extensionsUsed":["EXT_texture_webp"],"extensionsRequired":["EXT_texture_webp"],"scene":0,"scenes":[{"name":"Scene","nodes":[0]}],"nodes":[{"mesh":0,"name":"SM_Env_Snow_Mound_02","rotation":[0.7071068286895752,0,0,0.7071068286895752],"scale":[0.009999999776482582,0.009999999776482582,0.009999999776482582]}],"materials":[{"doubleSided":true,"name":"PolygonNatureBiomesS2_Alpine_Texture_01","pbrMetallicRoughness":{"baseColorTexture":{"index":0},"metallicFactor":0},"alphaMode":"MASK","alphaCutoff":0.5}],"meshes":[{"name":"Mesh","primitives":[{"attributes":{"POSITION":0,"NORMAL":1,"TEXCOORD_0":2},"indices":3,"material":0}]}],"textures":[{"extensions":{"EXT_texture_webp":{"source":0}},"sampler":0}],"images":[{"mimeType":"image/webp","name":"PolygonNatureBiomesS2_Alpine_Texture_01","uri":"PolygonNatureBiomesS2_Alpine_Texture_01.webp"}],"accessors":[{"bufferView":0,"componentType":5126,"count":582,"max":[98.04061126708984,53.1854248046875,18.842426300048828],"min":[-98.04061126708984,-53.1854248046875,-86.6442642211914],"type":"VEC3"},{"bufferView":1,"componentType":5126,"count":582,"type":"VEC3"},{"bufferView":2,"componentType":5126,"count":582,"type":"VEC2"},{"bufferView":3,"componentType":5123,"count":636,"type":"SCALAR"}],"bufferViews":[{"buffer":0,"byteLength":6984,"byteOffset":0,"target":34962},{"buffer":0,"byteLength":6984,"byteOffset":6984,"target":34962},{"buffer":0,"byteLength":4656,"byteOffset":13968,"target":34962},{"buffer":0,"byteLength":1272,"byteOffset":18624,"target":34963}],"samplers":[{"magFilter":9729,"minFilter":9987}],"buffers":[{"byteLength":19896,"uri":"alpine_SM_Env_Snow_Mound_02.bin"}]}