{"asset":{"generator":"Khronos glTF Blender I/O v4.4.55","version":"2.0"},"extensionsUsed":["EXT_texture_webp"],"extensionsRequired":["EXT_texture_webp"],"scene":0,"scenes":[{"name":"Scene","nodes":[0]}],"nodes":[{"mesh":0,"name":"SM_Env_Rock_Small_03","rotation":[0.7071068286895752,0,0,0.7071068286895752],"scale":[0.009999999776482582,0.009999999776482582,0.009999999776482582]}],"materials":[{"doubleSided":true,"name":"PolygonNatureBiomesS2_Alpine_Texture_01","pbrMetallicRoughness":{"baseColorTexture":{"index":0},"metallicFactor":0},"alphaMode":"MASK","alphaCutoff":0.5}],"meshes":[{"name":"Mesh","primitives":[{"attributes":{"POSITION":0,"NORMAL":1,"TEXCOORD_0":2},"indices":3,"material":0}]}],"textures":[{"extensions":{"EXT_texture_webp":{"source":0}},"sampler":0}],"images":[{"mimeType":"image/webp","name":"PolygonNatureBiomesS2_Alpine_Texture_01","uri":"PolygonNatureBiomesS2_Alpine_Texture_01.webp"}],"accessors":[{"bufferView":0,"componentType":5126,"count":138,"max":[44.20574951171875,38.244384765625,3.24334716796875],"min":[-44.2056884765625,-38.244415283203125,-57.224151611328125],"type":"VEC3"},{"bufferView":1,"componentType":5126,"count":138,"type":"VEC3"},{"bufferView":2,"componentType":5126,"count":138,"type":"VEC2"},{"bufferView":3,"componentType":5123,"count":138,"type":"SCALAR"}],"bufferViews":[{"buffer":0,"byteLength":1656,"byteOffset":0,"target":34962},{"buffer":0,"byteLength":1656,"byteOffset":1656,"target":34962},{"buffer":0,"byteLength":1104,"byteOffset":3312,"target":34962},{"buffer":0,"byteLength":276,"byteOffset":4416,"target":34963}],"samplers":[{"magFilter":9729,"minFilter":9987}],"buffers":[{"byteLength":4692,"uri":"alpine_SM_Env_Rock_Small_03.bin"}]}