{"asset":{"generator":"Khronos glTF Blender I/O v4.4.55","version":"2.0"},"extensionsUsed":["EXT_texture_webp"],"extensionsRequired":["EXT_texture_webp"],"scene":0,"scenes":[{"name":"Scene","nodes":[0]}],"nodes":[{"mesh":0,"name":"SM_Env_Ice_Sheet_03","rotation":[0.7071068286895752,0,0,0.7071068286895752],"scale":[0.009999999776482582,0.009999999776482582,0.009999999776482582]}],"materials":[{"doubleSided":true,"name":"lambert1","pbrMetallicRoughness":{"baseColorTexture":{"index":0},"metallicFactor":0},"alphaMode":"MASK","alphaCutoff":0.5}],"meshes":[{"name":"Mesh","primitives":[{"attributes":{"POSITION":0,"NORMAL":1,"TEXCOORD_0":2},"indices":3,"material":0}]}],"textures":[{"extensions":{"EXT_texture_webp":{"source":0}},"sampler":0}],"images":[{"mimeType":"image/webp","name":"PolygonNatureBiomesS2_Alpine_Texture_01","uri":"PolygonNatureBiomesS2_Alpine_Texture_01.webp"}],"accessors":[{"bufferView":0,"componentType":5126,"count":652,"max":[163.98184204101562,160.2574462890625,22.50562858581543],"min":[-153.44024658203125,-174.00115966796875,-32.6022834777832],"type":"VEC3"},{"bufferView":1,"componentType":5126,"count":652,"type":"VEC3"},{"bufferView":2,"componentType":5126,"count":652,"type":"VEC2"},{"bufferView":3,"componentType":5123,"count":672,"type":"SCALAR"}],"bufferViews":[{"buffer":0,"byteLength":7824,"byteOffset":0,"target":34962},{"buffer":0,"byteLength":7824,"byteOffset":7824,"target":34962},{"buffer":0,"byteLength":5216,"byteOffset":15648,"target":34962},{"buffer":0,"byteLength":1344,"byteOffset":20864,"target":34963}],"samplers":[{"magFilter":9729,"minFilter":9987}],"buffers":[{"byteLength":22208,"uri":"alpine_SM_Env_Ice_Sheet_03.bin"}]}