{"asset":{"generator":"Khronos glTF Blender I/O v4.4.55","version":"2.0"},"extensionsUsed":["EXT_texture_webp"],"extensionsRequired":["EXT_texture_webp"],"scene":0,"scenes":[{"name":"Scene","nodes":[0]}],"nodes":[{"mesh":0,"name":"SM_Prop_Bench_01","rotation":[0.7071068286895752,0,0,0.7071068286895752],"scale":[0.009999999776482582,0.009999999776482582,0.009999999776482582]}],"materials":[{"doubleSided":true,"name":"Nature_Base_Mat4","pbrMetallicRoughness":{"baseColorTexture":{"index":0},"metallicFactor":0},"alphaMode":"MASK","alphaCutoff":0.5}],"meshes":[{"name":"Mesh","primitives":[{"attributes":{"POSITION":0,"NORMAL":1,"TEXCOORD_0":2},"indices":3,"material":0}]}],"textures":[{"extensions":{"EXT_texture_webp":{"source":0}},"sampler":0}],"images":[{"mimeType":"image/webp","name":"PolygonNatureBiomesS2_Alpine_Texture_01","uri":"PolygonNatureBiomesS2_Alpine_Texture_01.webp"}],"accessors":[{"bufferView":0,"componentType":5126,"count":1971,"max":[89.95321655273438,29.33896255493164,0],"min":[-89.95321655273438,-29.33896255493164,-102.1100082397461],"type":"VEC3"},{"bufferView":1,"componentType":5126,"count":1971,"type":"VEC3"},{"bufferView":2,"componentType":5126,"count":1971,"type":"VEC2"},{"bufferView":3,"componentType":5123,"count":3078,"type":"SCALAR"}],"bufferViews":[{"buffer":0,"byteLength":23652,"byteOffset":0,"target":34962},{"buffer":0,"byteLength":23652,"byteOffset":23652,"target":34962},{"buffer":0,"byteLength":15768,"byteOffset":47304,"target":34962},{"buffer":0,"byteLength":6156,"byteOffset":63072,"target":34963}],"samplers":[{"magFilter":9729,"minFilter":9987}],"buffers":[{"byteLength":69228,"uri":"alpine_SM_Prop_Bench_01.bin"}]}