{
	"asset":{
		"generator":"Khronos glTF Blender I/O v4.4.55",
		"version":"2.0"
	},
	"scene":0,
	"scenes":[
		{
			"name":"Scene",
			"nodes":[
				0
			]
		}
	],
	"nodes":[
		{
			"mesh":0,
			"name":"SM_Env_Rock_Rough_02",
			"rotation":[
				0.7071068286895752,
				0,
				0,
				0.7071068286895752
			],
			"scale":[
				0.009999999776482582,
				0.009999999776482582,
				0.009999999776482582
			]
		}
	],
	"materials":[
		{
			"doubleSided":true,
			"name":"PolygonNatureBiomesS2_Alpine_Texture_02",
			"pbrMetallicRoughness":{
				"metallicFactor":0
			}
		}
	],
	"meshes":[
		{
			"name":"Mesh",
			"primitives":[
				{
					"attributes":{
						"POSITION":0,
						"NORMAL":1,
						"TEXCOORD_0":2
					},
					"indices":3,
					"material":0
				}
			]
		}
	],
	"accessors":[
		{
			"bufferView":0,
			"componentType":5126,
			"count":1260,
			"max":[
				300.0968933105469,
				151.3352813720703,
				55.18210983276367
			],
			"min":[
				-318.6326904296875,
				-171.45916748046875,
				-140.46437072753906
			],
			"type":"VEC3"
		},
		{
			"bufferView":1,
			"componentType":5126,
			"count":1260,
			"type":"VEC3"
		},
		{
			"bufferView":2,
			"componentType":5126,
			"count":1260,
			"type":"VEC2"
		},
		{
			"bufferView":3,
			"componentType":5123,
			"count":1440,
			"type":"SCALAR"
		}
	],
	"bufferViews":[
		{
			"buffer":0,
			"byteLength":15120,
			"byteOffset":0,
			"target":34962
		},
		{
			"buffer":0,
			"byteLength":15120,
			"byteOffset":15120,
			"target":34962
		},
		{
			"buffer":0,
			"byteLength":10080,
			"byteOffset":30240,
			"target":34962
		},
		{
			"buffer":0,
			"byteLength":2880,
			"byteOffset":40320,
			"target":34963
		}
	],
	"buffers":[
		{
			"byteLength":43200,
			"uri":"alpine_SM_Env_Rock_Rough_02.bin"
		}
	]
}
