{
	"asset":{
		"generator":"Khronos glTF Blender I/O v4.4.55",
		"version":"2.0"
	},
	"scene":0,
	"scenes":[
		{
			"name":"Scene",
			"nodes":[
				2
			]
		}
	],
	"nodes":[
		{
			"mesh":0,
			"name":"SM_Env_GroundCover_03_LOD0"
		},
		{
			"mesh":1,
			"name":"SM_Env_GroundCover_03_LOD1"
		},
		{
			"children":[
				0,
				1
			],
			"name":"SM_Env_GroundCover_03",
			"rotation":[
				0.7071068286895752,
				0,
				0,
				0.7071068286895752
			],
			"scale":[
				0.009999999776482582,
				0.009999999776482582,
				0.009999999776482582
			]
		}
	],
	"materials":[
		{
			"doubleSided":true,
			"name":"lambert1",
			"pbrMetallicRoughness":{
				"baseColorFactor":[
					0.5,
					0.5,
					0.5,
					1
				],
				"metallicFactor":0
			}
		}
	],
	"meshes":[
		{
			"name":"Mesh",
			"primitives":[
				{
					"attributes":{
						"POSITION":0,
						"NORMAL":1,
						"TEXCOORD_0":2,
						"COLOR_0":3,
						"COLOR_1":4
					},
					"indices":5,
					"material":0
				}
			]
		},
		{
			"name":"Mesh.001",
			"primitives":[
				{
					"attributes":{
						"POSITION":6,
						"NORMAL":7,
						"TEXCOORD_0":8,
						"COLOR_0":9,
						"COLOR_1":10
					},
					"indices":11,
					"material":0
				}
			]
		}
	],
	"accessors":[
		{
			"bufferView":0,
			"componentType":5126,
			"count":480,
			"max":[
				184.07986450195312,
				152.34828186035156,
				11.716056823730469
			],
			"min":[
				-180.58749389648438,
				-156.54312133789062,
				-101.18830108642578
			],
			"type":"VEC3"
		},
		{
			"bufferView":1,
			"componentType":5126,
			"count":480,
			"type":"VEC3"
		},
		{
			"bufferView":2,
			"componentType":5126,
			"count":480,
			"type":"VEC2"
		},
		{
			"bufferView":3,
			"componentType":5121,
			"count":480,
			"normalized":true,
			"type":"VEC4"
		},
		{
			"bufferView":4,
			"componentType":5123,
			"count":480,
			"normalized":true,
			"type":"VEC4"
		},
		{
			"bufferView":5,
			"componentType":5123,
			"count":882,
			"type":"SCALAR"
		},
		{
			"bufferView":6,
			"componentType":5126,
			"count":384,
			"max":[
				184.07986450195312,
				152.34828186035156,
				11.716056823730469
			],
			"min":[
				-180.58749389648438,
				-156.54312133789062,
				-101.18830108642578
			],
			"type":"VEC3"
		},
		{
			"bufferView":7,
			"componentType":5126,
			"count":384,
			"type":"VEC3"
		},
		{
			"bufferView":8,
			"componentType":5126,
			"count":384,
			"type":"VEC2"
		},
		{
			"bufferView":9,
			"componentType":5121,
			"count":384,
			"normalized":true,
			"type":"VEC4"
		},
		{
			"bufferView":10,
			"componentType":5123,
			"count":384,
			"normalized":true,
			"type":"VEC4"
		},
		{
			"bufferView":11,
			"componentType":5123,
			"count":576,
			"type":"SCALAR"
		}
	],
	"bufferViews":[
		{
			"buffer":0,
			"byteLength":5760,
			"byteOffset":0,
			"target":34962
		},
		{
			"buffer":0,
			"byteLength":5760,
			"byteOffset":5760,
			"target":34962
		},
		{
			"buffer":0,
			"byteLength":3840,
			"byteOffset":11520,
			"target":34962
		},
		{
			"buffer":0,
			"byteLength":1920,
			"byteOffset":15360,
			"target":34962
		},
		{
			"buffer":0,
			"byteLength":3840,
			"byteOffset":17280,
			"target":34962
		},
		{
			"buffer":0,
			"byteLength":1764,
			"byteOffset":21120,
			"target":34963
		},
		{
			"buffer":0,
			"byteLength":4608,
			"byteOffset":22884,
			"target":34962
		},
		{
			"buffer":0,
			"byteLength":4608,
			"byteOffset":27492,
			"target":34962
		},
		{
			"buffer":0,
			"byteLength":3072,
			"byteOffset":32100,
			"target":34962
		},
		{
			"buffer":0,
			"byteLength":1536,
			"byteOffset":35172,
			"target":34962
		},
		{
			"buffer":0,
			"byteLength":3072,
			"byteOffset":36708,
			"target":34962
		},
		{
			"buffer":0,
			"byteLength":1152,
			"byteOffset":39780,
			"target":34963
		}
	],
	"buffers":[
		{
			"byteLength":40932,
			"uri":"alpine_SM_Env_GroundCover_03.bin"
		}
	]
}
