{"asset":{"generator":"Khronos glTF Blender I/O v4.4.55","version":"2.0"},"extensionsUsed":["EXT_texture_webp"],"extensionsRequired":["EXT_texture_webp"],"scene":0,"scenes":[{"name":"Scene","nodes":[0]}],"nodes":[{"mesh":0,"name":"SM_Env_Ice_Sheet_01","rotation":[0.7071068286895752,0,0,0.7071068286895752],"scale":[0.009999999776482582,0.009999999776482582,0.009999999776482582]}],"materials":[{"doubleSided":true,"name":"lambert1","pbrMetallicRoughness":{"baseColorTexture":{"index":0},"metallicFactor":0},"alphaMode":"MASK","alphaCutoff":0.5}],"meshes":[{"name":"Mesh","primitives":[{"attributes":{"POSITION":0,"NORMAL":1,"TEXCOORD_0":2},"indices":3,"material":0}]}],"textures":[{"extensions":{"EXT_texture_webp":{"source":0}},"sampler":0}],"images":[{"mimeType":"image/webp","name":"PolygonNatureBiomesS2_Alpine_Texture_01","uri":"PolygonNatureBiomesS2_Alpine_Texture_01.webp"}],"accessors":[{"bufferView":0,"componentType":5126,"count":596,"max":[325.4552307128906,256.976806640625,29.261329650878906],"min":[-265.2862548828125,-280.341064453125,-45.485206604003906],"type":"VEC3"},{"bufferView":1,"componentType":5126,"count":596,"type":"VEC3"},{"bufferView":2,"componentType":5126,"count":596,"type":"VEC2"},{"bufferView":3,"componentType":5123,"count":600,"type":"SCALAR"}],"bufferViews":[{"buffer":0,"byteLength":7152,"byteOffset":0,"target":34962},{"buffer":0,"byteLength":7152,"byteOffset":7152,"target":34962},{"buffer":0,"byteLength":4768,"byteOffset":14304,"target":34962},{"buffer":0,"byteLength":1200,"byteOffset":19072,"target":34963}],"samplers":[{"magFilter":9729,"minFilter":9987}],"buffers":[{"byteLength":20272,"uri":"alpine_SM_Env_Ice_Sheet_01.bin"}]}