{
	"asset":{
		"generator":"Khronos glTF Blender I/O v4.4.55",
		"version":"2.0"
	},
	"scene":0,
	"scenes":[
		{
			"name":"Scene",
			"nodes":[
				0
			]
		}
	],
	"nodes":[
		{
			"mesh":0,
			"name":"SM_Prop_Ice_Fishing_Hut_01_Collision",
			"rotation":[
				0.7071068286895752,
				0,
				0,
				0.7071068286895752
			],
			"scale":[
				0.009999999776482582,
				0.009999999776482582,
				0.009999999776482582
			]
		}
	],
	"materials":[
		{
			"doubleSided":true,
			"name":"lambert1",
			"pbrMetallicRoughness":{
				"baseColorFactor":[
					0.5,
					0.5,
					0.5,
					1
				],
				"metallicFactor":0
			}
		}
	],
	"meshes":[
		{
			"name":"Mesh",
			"primitives":[
				{
					"attributes":{
						"POSITION":0,
						"NORMAL":1,
						"TEXCOORD_0":2
					},
					"indices":3,
					"material":0
				}
			]
		}
	],
	"accessors":[
		{
			"bufferView":0,
			"componentType":5126,
			"count":446,
			"max":[
				167.80337524414062,
				182.87374877929688,
				4.902215003967285
			],
			"min":[
				-168.3046417236328,
				-182.281982421875,
				-345.2237854003906
			],
			"type":"VEC3"
		},
		{
			"bufferView":1,
			"componentType":5126,
			"count":446,
			"type":"VEC3"
		},
		{
			"bufferView":2,
			"componentType":5126,
			"count":446,
			"type":"VEC2"
		},
		{
			"bufferView":3,
			"componentType":5123,
			"count":690,
			"type":"SCALAR"
		}
	],
	"bufferViews":[
		{
			"buffer":0,
			"byteLength":5352,
			"byteOffset":0,
			"target":34962
		},
		{
			"buffer":0,
			"byteLength":5352,
			"byteOffset":5352,
			"target":34962
		},
		{
			"buffer":0,
			"byteLength":3568,
			"byteOffset":10704,
			"target":34962
		},
		{
			"buffer":0,
			"byteLength":1380,
			"byteOffset":14272,
			"target":34963
		}
	],
	"buffers":[
		{
			"byteLength":15652,
			"uri":"alpine_SM_Prop_Ice_Fishing_Hut_01_Collision.bin"
		}
	]
}
