{
	"asset":{
		"generator":"Khronos glTF Blender I/O v4.4.55",
		"version":"2.0"
	},
	"scene":0,
	"scenes":[
		{
			"name":"Scene",
			"nodes":[
				0
			]
		}
	],
	"nodes":[
		{
			"mesh":0,
			"name":"SM_Env_Branch_03",
			"rotation":[
				0.7071068286895752,
				0,
				0,
				0.7071068286895752
			],
			"scale":[
				0.009999999776482582,
				0.009999999776482582,
				0.009999999776482582
			]
		}
	],
	"materials":[
		{
			"doubleSided":true,
			"emissiveFactor":[
				0.5,
				0.5,
				0.5
			],
			"name":"MAT_01A1",
			"pbrMetallicRoughness":{
				"metallicFactor":0
			}
		}
	],
	"meshes":[
		{
			"name":"Mesh",
			"primitives":[
				{
					"attributes":{
						"POSITION":0,
						"NORMAL":1,
						"TEXCOORD_0":2
					},
					"indices":3,
					"material":0
				}
			]
		}
	],
	"accessors":[
		{
			"bufferView":0,
			"componentType":5126,
			"count":212,
			"max":[
				25.281627655029297,
				47.52622604370117,
				4.32961368560791
			],
			"min":[
				-43.13465118408203,
				-54.25270462036133,
				-12.199350357055664
			],
			"type":"VEC3"
		},
		{
			"bufferView":1,
			"componentType":5126,
			"count":212,
			"type":"VEC3"
		},
		{
			"bufferView":2,
			"componentType":5126,
			"count":212,
			"type":"VEC2"
		},
		{
			"bufferView":3,
			"componentType":5123,
			"count":246,
			"type":"SCALAR"
		}
	],
	"bufferViews":[
		{
			"buffer":0,
			"byteLength":2544,
			"byteOffset":0,
			"target":34962
		},
		{
			"buffer":0,
			"byteLength":2544,
			"byteOffset":2544,
			"target":34962
		},
		{
			"buffer":0,
			"byteLength":1696,
			"byteOffset":5088,
			"target":34962
		},
		{
			"buffer":0,
			"byteLength":492,
			"byteOffset":6784,
			"target":34963
		}
	],
	"buffers":[
		{
			"byteLength":7276,
			"uri":"alpine_SM_Env_Branch_03.bin"
		}
	]
}
