{"asset":{"generator":"Khronos glTF Blender I/O v4.4.55","version":"2.0"},"extensionsUsed":["EXT_texture_webp"],"extensionsRequired":["EXT_texture_webp"],"scene":0,"scenes":[{"name":"Scene","nodes":[0]}],"nodes":[{"mesh":0,"name":"SM_Prop_Wood_Pile_02","rotation":[0.7071068286895752,0,0,0.7071068286895752],"scale":[0.009999999776482582,0.009999999776482582,0.009999999776482582]}],"materials":[{"doubleSided":true,"name":"MAT_01A","pbrMetallicRoughness":{"baseColorTexture":{"index":2},"metallicFactor":0}}],"meshes":[{"name":"Mesh","primitives":[{"attributes":{"POSITION":0,"NORMAL":1,"TEXCOORD_0":2},"indices":3,"material":0}]}],"textures":[{"extensions":{},"sampler":0},{"extensions":{},"sampler":0},{"extensions":{"EXT_texture_webp":{"source":0}},"sampler":0}],"images":[{"mimeType":"image/webp","name":"PolygonNatureBiomesS2_Alpine_Texture_01","uri":"PolygonNatureBiomesS2_Alpine_Texture_01.webp"}],"accessors":[{"bufferView":0,"componentType":5126,"count":2546,"max":[76.41976165771484,36.52344512939453,0],"min":[-76.41976165771484,-31.703001022338867,-49.63025665283203],"type":"VEC3"},{"bufferView":1,"componentType":5126,"count":2546,"type":"VEC3"},{"bufferView":2,"componentType":5126,"count":2546,"type":"VEC2"},{"bufferView":3,"componentType":5123,"count":4248,"type":"SCALAR"}],"bufferViews":[{"buffer":0,"byteLength":30552,"byteOffset":0,"target":34962},{"buffer":0,"byteLength":30552,"byteOffset":30552,"target":34962},{"buffer":0,"byteLength":20368,"byteOffset":61104,"target":34962},{"buffer":0,"byteLength":8496,"byteOffset":81472,"target":34963}],"samplers":[{"magFilter":9729,"minFilter":9987}],"buffers":[{"byteLength":89968,"uri":"alpine_SM_Prop_Wood_Pile_02.bin"}]}