{
	"asset":{
		"generator":"Khronos glTF Blender I/O v4.4.55",
		"version":"2.0"
	},
	"extensionsUsed":[
		"EXT_texture_webp"
	],
	"extensionsRequired":[
		"EXT_texture_webp"
	],
	"scene":0,
	"scenes":[
		{
			"name":"Scene",
			"nodes":[
				0
			]
		}
	],
	"nodes":[
		{
			"mesh":0,
			"name":"SM_Prop_Sign_Shop_01",
			"rotation":[
				0.7071068286895752,
				0,
				0,
				0.7071068286895752
			],
			"scale":[
				0.009999999776482582,
				0.009999999776482582,
				0.009999999776482582
			]
		}
	],
	"materials":[
		{
			"doubleSided":true,
			"name":"PolygonApocalypse_Mat_01_A",
			"pbrMetallicRoughness":{
				"baseColorTexture":{
					"index":0
				},
				"metallicFactor":0,
				"roughnessFactor":0.5527864098548889
			}
		}
	],
	"meshes":[
		{
			"name":"Mesh",
			"primitives":[
				{
					"attributes":{
						"POSITION":0,
						"NORMAL":1,
						"TEXCOORD_0":2,
						"TEXCOORD_1":3
					},
					"indices":4,
					"material":0
				}
			]
		}
	],
	"textures":[
		{
			"extensions":{
				"EXT_texture_webp":{
					"source":0
				}
			},
			"sampler":0
		}
	],
	"images":[
		{
			"mimeType":"image/webp",
			"name":"PolygonApocalypse_Texture_01_A",
			"uri":"PolygonApocalypse_Texture_01_A.webp"
		}
	],
	"accessors":[
		{
			"bufferView":0,
			"componentType":5126,
			"count":948,
			"max":[
				9.7509765625,
				127.03124237060547,
				47.45744323730469
			],
			"min":[
				-9.7509765625,
				-127.03125762939453,
				-47.45744323730469
			],
			"type":"VEC3"
		},
		{
			"bufferView":1,
			"componentType":5126,
			"count":948,
			"type":"VEC3"
		},
		{
			"bufferView":2,
			"componentType":5126,
			"count":948,
			"type":"VEC2"
		},
		{
			"bufferView":3,
			"componentType":5126,
			"count":948,
			"type":"VEC2"
		},
		{
			"bufferView":4,
			"componentType":5123,
			"count":990,
			"type":"SCALAR"
		}
	],
	"bufferViews":[
		{
			"buffer":0,
			"byteLength":11376,
			"byteOffset":0,
			"target":34962
		},
		{
			"buffer":0,
			"byteLength":11376,
			"byteOffset":11376,
			"target":34962
		},
		{
			"buffer":0,
			"byteLength":7584,
			"byteOffset":22752,
			"target":34962
		},
		{
			"buffer":0,
			"byteLength":7584,
			"byteOffset":30336,
			"target":34962
		},
		{
			"buffer":0,
			"byteLength":1980,
			"byteOffset":37920,
			"target":34963
		}
	],
	"samplers":[
		{
			"magFilter":9729,
			"minFilter":9987
		}
	],
	"buffers":[
		{
			"byteLength":39900,
			"uri":"apoc_SM_Prop_Sign_Shop_01.bin"
		}
	]
}
