{
	"asset":{
		"generator":"Khronos glTF Blender I/O v4.4.55",
		"version":"2.0"
	},
	"extensionsUsed":[
		"EXT_texture_webp"
	],
	"extensionsRequired":[
		"EXT_texture_webp"
	],
	"scene":0,
	"scenes":[
		{
			"name":"Scene",
			"nodes":[
				0
			]
		}
	],
	"nodes":[
		{
			"mesh":0,
			"name":"SM_Bld_Apartment_Glass_01",
			"rotation":[
				0.7071068286895752,
				0,
				0,
				0.7071068286895752
			],
			"scale":[
				0.009999999776482582,
				0.009999999776482582,
				0.009999999776482582
			]
		}
	],
	"materials":[
		{
			"alphaMode":"BLEND",
			"doubleSided":true,
			"name":"PolygonApocalypse_Glass_01",
			"pbrMetallicRoughness":{
				"baseColorFactor":[
					1,
					1,
					1,
					0.6144578456878662
				],
				"baseColorTexture":{
					"index":0
				},
				"metallicFactor":0,
				"roughnessFactor":0.5527864098548889
			}
		}
	],
	"meshes":[
		{
			"name":"Mesh",
			"primitives":[
				{
					"attributes":{
						"POSITION":0,
						"NORMAL":1,
						"TEXCOORD_0":2,
						"TEXCOORD_1":3
					},
					"indices":4,
					"material":0
				}
			]
		}
	],
	"textures":[
		{
			"extensions":{
				"EXT_texture_webp":{
					"source":0
				}
			},
			"sampler":0
		}
	],
	"images":[
		{
			"mimeType":"image/webp",
			"name":"PolygonApocalypse_Texture_01_A",
			"uri":"PolygonApocalypse_Texture_01_A.webp"
		}
	],
	"accessors":[
		{
			"bufferView":0,
			"componentType":5126,
			"count":462,
			"max":[
				361.01251220703125,
				391.8762512207031,
				-63.38105010986328
			],
			"min":[
				357.7391662597656,
				-391.87628173828125,
				-1276.604736328125
			],
			"type":"VEC3"
		},
		{
			"bufferView":1,
			"componentType":5126,
			"count":462,
			"type":"VEC3"
		},
		{
			"bufferView":2,
			"componentType":5126,
			"count":462,
			"type":"VEC2"
		},
		{
			"bufferView":3,
			"componentType":5126,
			"count":462,
			"type":"VEC2"
		},
		{
			"bufferView":4,
			"componentType":5123,
			"count":780,
			"type":"SCALAR"
		}
	],
	"bufferViews":[
		{
			"buffer":0,
			"byteLength":5544,
			"byteOffset":0,
			"target":34962
		},
		{
			"buffer":0,
			"byteLength":5544,
			"byteOffset":5544,
			"target":34962
		},
		{
			"buffer":0,
			"byteLength":3696,
			"byteOffset":11088,
			"target":34962
		},
		{
			"buffer":0,
			"byteLength":3696,
			"byteOffset":14784,
			"target":34962
		},
		{
			"buffer":0,
			"byteLength":1560,
			"byteOffset":18480,
			"target":34963
		}
	],
	"samplers":[
		{
			"magFilter":9729,
			"minFilter":9987
		}
	],
	"buffers":[
		{
			"byteLength":20040,
			"uri":"apoc_SM_Bld_Apartment_Glass_01.bin"
		}
	]
}
