{
	"asset":{
		"generator":"Khronos glTF Blender I/O v4.4.55",
		"version":"2.0"
	},
	"extensionsUsed":[
		"EXT_texture_webp"
	],
	"extensionsRequired":[
		"EXT_texture_webp"
	],
	"scene":0,
	"scenes":[
		{
			"name":"Scene",
			"nodes":[
				0
			]
		}
	],
	"nodes":[
		{
			"mesh":0,
			"name":"SM_Wep_Revolver_02",
			"rotation":[
				0.7071068286895752,
				0,
				0,
				0.7071068286895752
			],
			"scale":[
				0.009999999776482582,
				0.009999999776482582,
				0.009999999776482582
			]
		}
	],
	"materials":[
		{
			"doubleSided":true,
			"name":"PolygonApocalypse_Mat_01_A",
			"pbrMetallicRoughness":{
				"baseColorTexture":{
					"index":0
				},
				"metallicFactor":0,
				"roughnessFactor":0.5527864098548889
			}
		}
	],
	"meshes":[
		{
			"name":"Mesh",
			"primitives":[
				{
					"attributes":{
						"POSITION":0,
						"NORMAL":1,
						"TEXCOORD_0":2,
						"TEXCOORD_1":3
					},
					"indices":4,
					"material":0
				}
			]
		}
	],
	"textures":[
		{
			"extensions":{
				"EXT_texture_webp":{
					"source":0
				}
			},
			"sampler":0
		}
	],
	"images":[
		{
			"mimeType":"image/webp",
			"name":"PolygonApocalypse_Texture_01_A",
			"uri":"PolygonApocalypse_Texture_01_A.webp"
		}
	],
	"accessors":[
		{
			"bufferView":0,
			"componentType":5126,
			"count":3521,
			"max":[
				79.59115600585938,
				2.7255725860595703,
				13.046356201171875
			],
			"min":[
				-30.95879364013672,
				-3.860576629638672,
				-10.364128112792969
			],
			"type":"VEC3"
		},
		{
			"bufferView":1,
			"componentType":5126,
			"count":3521,
			"type":"VEC3"
		},
		{
			"bufferView":2,
			"componentType":5126,
			"count":3521,
			"type":"VEC2"
		},
		{
			"bufferView":3,
			"componentType":5126,
			"count":3521,
			"type":"VEC2"
		},
		{
			"bufferView":4,
			"componentType":5123,
			"count":6138,
			"type":"SCALAR"
		}
	],
	"bufferViews":[
		{
			"buffer":0,
			"byteLength":42252,
			"byteOffset":0,
			"target":34962
		},
		{
			"buffer":0,
			"byteLength":42252,
			"byteOffset":42252,
			"target":34962
		},
		{
			"buffer":0,
			"byteLength":28168,
			"byteOffset":84504,
			"target":34962
		},
		{
			"buffer":0,
			"byteLength":28168,
			"byteOffset":112672,
			"target":34962
		},
		{
			"buffer":0,
			"byteLength":12276,
			"byteOffset":140840,
			"target":34963
		}
	],
	"samplers":[
		{
			"magFilter":9729,
			"minFilter":9987
		}
	],
	"buffers":[
		{
			"byteLength":153116,
			"uri":"apoc_SM_Wep_Revolver_02.bin"
		}
	]
}
