{"asset":{"generator":"Khronos glTF Blender I/O v4.4.55","version":"2.0"},"extensionsUsed":["EXT_texture_webp"],"extensionsRequired":["EXT_texture_webp"],"scene":0,"scenes":[{"name":"Scene","nodes":[25]}],"nodes":[{"mesh":0,"name":"SM_Bld_Shop_Small_Glass_02"},{"mesh":1,"name":"UCX_SM_Bld_Shop_Small_02_1"},{"mesh":2,"name":"UCX_SM_Bld_Shop_Small_02_10"},{"mesh":3,"name":"UCX_SM_Bld_Shop_Small_02_11"},{"mesh":4,"name":"UCX_SM_Bld_Shop_Small_02_12"},{"mesh":5,"name":"UCX_SM_Bld_Shop_Small_02_13"},{"mesh":6,"name":"UCX_SM_Bld_Shop_Small_02_14"},{"mesh":7,"name":"UCX_SM_Bld_Shop_Small_02_15"},{"mesh":8,"name":"UCX_SM_Bld_Shop_Small_02_16"},{"mesh":9,"name":"UCX_SM_Bld_Shop_Small_02_17"},{"mesh":10,"name":"UCX_SM_Bld_Shop_Small_02_18"},{"mesh":11,"name":"UCX_SM_Bld_Shop_Small_02_19"},{"mesh":12,"name":"UCX_SM_Bld_Shop_Small_02_2"},{"mesh":13,"name":"UCX_SM_Bld_Shop_Small_02_20"},{"mesh":14,"name":"UCX_SM_Bld_Shop_Small_02_21"},{"mesh":15,"name":"UCX_SM_Bld_Shop_Small_02_22"},{"mesh":16,"name":"UCX_SM_Bld_Shop_Small_02_23"},{"mesh":17,"name":"UCX_SM_Bld_Shop_Small_02_24"},{"mesh":18,"name":"UCX_SM_Bld_Shop_Small_02_3"},{"mesh":19,"name":"UCX_SM_Bld_Shop_Small_02_4"},{"mesh":20,"name":"UCX_SM_Bld_Shop_Small_02_5"},{"mesh":21,"name":"UCX_SM_Bld_Shop_Small_02_6"},{"mesh":22,"name":"UCX_SM_Bld_Shop_Small_02_7"},{"mesh":23,"name":"UCX_SM_Bld_Shop_Small_02_8"},{"mesh":24,"name":"UCX_SM_Bld_Shop_Small_02_9"},{"children":[0,1,2,3,4,5,6,7,8,9,10,11,12,13,14,15,16,17,18,19,20,21,22,23,24],"mesh":25,"name":"SM_Bld_Shop_Small_02","rotation":[0.7071068286895752,0,0,0.7071068286895752],"scale":[0.009999999776482582,0.009999999776482582,0.009999999776482582]}],"materials":[{"doubleSided":true,"name":"lambert88","pbrMetallicRoughness":{"baseColorTexture":{"index":0},"metallicFactor":0,"roughnessFactor":0.5527864098548889}},{"alphaMode":"MASK","doubleSided":true,"name":"lambert3","pbrMetallicRoughness":{"baseColorFactor":[1,1,1,0.29323261976242065],"baseColorTexture":{"index":1},"metallicFactor":0,"roughnessFactor":0.5527864098548889},"alphaCutoff":0.5}],"meshes":[{"name":"Mesh.001","primitives":[{"attributes":{"POSITION":0,"NORMAL":1,"TEXCOORD_0":2},"indices":3,"material":0}]},{"name":"Mesh.002","primitives":[{"attributes":{"POSITION":4,"NORMAL":5,"TEXCOORD_0":6},"indices":7,"material":1}]},{"name":"Mesh.011","primitives":[{"attributes":{"POSITION":8,"NORMAL":9,"TEXCOORD_0":10},"indices":11,"material":1}]},{"name":"Mesh.012","primitives":[{"attributes":{"POSITION":12,"NORMAL":13,"TEXCOORD_0":14},"indices":11,"material":1}]},{"name":"Mesh.013","primitives":[{"attributes":{"POSITION":15,"NORMAL":16,"TEXCOORD_0":17},"indices":18,"material":1}]},{"name":"Mesh.014","primitives":[{"attributes":{"POSITION":19,"NORMAL":20,"TEXCOORD_0":21},"indices":7,"material":1}]},{"name":"Mesh.015","primitives":[{"attributes":{"POSITION":22,"NORMAL":23,"TEXCOORD_0":24},"indices":11,"material":1}]},{"name":"Mesh.016","primitives":[{"attributes":{"POSITION":25,"NORMAL":26,"TEXCOORD_0":27},"indices":7,"material":1}]},{"name":"Mesh.017","primitives":[{"attributes":{"POSITION":28,"NORMAL":29,"TEXCOORD_0":30},"indices":7,"material":1}]},{"name":"Mesh.018","primitives":[{"attributes":{"POSITION":31,"NORMAL":32,"TEXCOORD_0":33},"indices":7,"material":1}]},{"name":"Mesh.019","primitives":[{"attributes":{"POSITION":34,"NORMAL":35,"TEXCOORD_0":36},"indices":11,"material":1}]},{"name":"Mesh.020","primitives":[{"attributes":{"POSITION":37,"NORMAL":38,"TEXCOORD_0":39},"indices":40,"material":1}]},{"name":"Mesh.003","primitives":[{"attributes":{"POSITION":41,"NORMAL":42,"TEXCOORD_0":43},"indices":7,"material":1}]},{"name":"Mesh.021","primitives":[{"attributes":{"POSITION":44,"NORMAL":45,"TEXCOORD_0":46},"indices":7,"material":1}]},{"name":"Mesh.022","primitives":[{"attributes":{"POSITION":47,"NORMAL":48,"TEXCOORD_0":49},"indices":11,"material":1}]},{"name":"Mesh.023","primitives":[{"attributes":{"POSITION":50,"NORMAL":51,"TEXCOORD_0":52},"indices":7,"material":1}]},{"name":"Mesh.024","primitives":[{"attributes":{"POSITION":53,"NORMAL":54,"TEXCOORD_0":55},"indices":7,"material":1}]},{"name":"Mesh.025","primitives":[{"attributes":{"POSITION":56,"NORMAL":57,"TEXCOORD_0":58},"indices":11,"material":1}]},{"name":"Mesh.004","primitives":[{"attributes":{"POSITION":59,"NORMAL":60,"TEXCOORD_0":61},"indices":7,"material":1}]},{"name":"Mesh.005","primitives":[{"attributes":{"POSITION":62,"NORMAL":63,"TEXCOORD_0":64},"indices":7,"material":1}]},{"name":"Mesh.006","primitives":[{"attributes":{"POSITION":65,"NORMAL":66,"TEXCOORD_0":67},"indices":7,"material":1}]},{"name":"Mesh.007","primitives":[{"attributes":{"POSITION":68,"NORMAL":69,"TEXCOORD_0":70},"indices":71,"material":1}]},{"name":"Mesh.008","primitives":[{"attributes":{"POSITION":72,"NORMAL":73,"TEXCOORD_0":74},"indices":75,"material":1}]},{"name":"Mesh.009","primitives":[{"attributes":{"POSITION":76,"NORMAL":77,"TEXCOORD_0":78},"indices":7,"material":1}]},{"name":"Mesh.010","primitives":[{"attributes":{"POSITION":79,"NORMAL":80,"TEXCOORD_0":81},"indices":7,"material":1}]},{"name":"Mesh","primitives":[{"attributes":{"POSITION":82,"NORMAL":83,"TEXCOORD_0":84},"indices":85,"material":0}]}],"textures":[{"extensions":{"EXT_texture_webp":{"source":0}},"sampler":0},{"extensions":{"EXT_texture_webp":{"source":1}},"sampler":0}],"images":[{"mimeType":"image/webp","name":"PolygonApocalypse_Texture_01_C","uri":"PolygonApocalypse_Texture_01_C.webp"},{"mimeType":"image/webp","name":"PolygonApocalypse_Texture_01_A","uri":"PolygonApocalypse_Texture_01_A.webp"}],"accessors":[{"bufferView":0,"componentType":5126,"count":229,"max":[357.296142578125,312.80352783203125,-102.0147705078125],"min":[279.8935546875,-317.7034912109375,-227.8692169189453],"type":"VEC3"},{"bufferView":1,"componentType":5126,"count":229,"type":"VEC3"},{"bufferView":2,"componentType":5126,"count":229,"type":"VEC2"},{"bufferView":3,"componentType":5123,"count":390,"type":"SCALAR"},{"bufferView":4,"componentType":5126,"count":24,"max":[379.25445556640625,-331.37664794921875,9.639976501464844],"min":[349.462890625,-369.5067138671875,-371.7673034667969],"type":"VEC3"},{"bufferView":5,"componentType":5126,"count":24,"type":"VEC3"},{"bufferView":6,"componentType":5126,"count":24,"type":"VEC2"},{"bufferView":7,"componentType":5123,"count":36,"type":"SCALAR"},{"bufferView":8,"componentType":5126,"count":24,"max":[273.9447021484375,338.9693908691406,9.639976501464844],"min":[-450.8485107421875,-346.26910400390625,-7.2125244140625],"type":"VEC3"},{"bufferView":9,"componentType":5126,"count":24,"type":"VEC3"},{"bufferView":10,"componentType":5126,"count":24,"type":"VEC2"},{"bufferView":11,"componentType":5123,"count":36,"type":"SCALAR"},{"bufferView":12,"componentType":5126,"count":24,"max":[361.0453186035156,-89.38983154296875,9.639976501464844],"min":[271.9947509765625,-346.2690734863281,-7.2125244140625],"type":"VEC3"},{"bufferView":13,"componentType":5126,"count":24,"type":"VEC3"},{"bufferView":14,"componentType":5126,"count":24,"type":"VEC2"},{"bufferView":15,"componentType":5126,"count":24,"max":[361.0453186035156,337.8717041015625,9.639976501464844],"min":[271.9947509765625,80.99246215820312,-7.2125244140625],"type":"VEC3"},{"bufferView":16,"componentType":5126,"count":24,"type":"VEC3"},{"bufferView":17,"componentType":5126,"count":24,"type":"VEC2"},{"bufferView":18,"componentType":5123,"count":36,"type":"SCALAR"},{"bufferView":19,"componentType":5126,"count":24,"max":[365.7298583984375,155.14431762695312,-242.1412353515625],"min":[348.26751708984375,-155.38931274414062,-367.0153503417969],"type":"VEC3"},{"bufferView":20,"componentType":5126,"count":24,"type":"VEC3"},{"bufferView":21,"componentType":5126,"count":24,"type":"VEC2"},{"bufferView":22,"componentType":5126,"count":24,"max":[374.9189453125,-335.489990234375,9.639976501464844],"min":[-450.8485107421875,-355.8392333984375,-450.2764587402344],"type":"VEC3"},{"bufferView":23,"componentType":5126,"count":24,"type":"VEC3"},{"bufferView":24,"componentType":5126,"count":24,"type":"VEC2"},{"bufferView":25,"componentType":5126,"count":24,"max":[-420.4034118652344,350.93927001953125,9.639976501464844],"min":[-450.8485107421875,-166.3189697265625,-450.2764587402344],"type":"VEC3"},{"bufferView":26,"componentType":5126,"count":24,"type":"VEC3"},{"bufferView":27,"componentType":5126,"count":24,"type":"VEC2"},{"bufferView":28,"componentType":5126,"count":24,"max":[-420.4034423828125,-275.3873291015625,9.639976501464844],"min":[-450.8485107421875,-355.8392333984375,-450.2764587402344],"type":"VEC3"},{"bufferView":29,"componentType":5126,"count":24,"type":"VEC3"},{"bufferView":30,"componentType":5126,"count":24,"type":"VEC2"},{"bufferView":31,"componentType":5126,"count":24,"max":[-420.4034118652344,-166.31893920898438,-241.44711303710938],"min":[-450.8485412597656,-275.3873291015625,-450.27667236328125],"type":"VEC3"},{"bufferView":32,"componentType":5126,"count":24,"type":"VEC3"},{"bufferView":33,"componentType":5126,"count":24,"type":"VEC2"},{"bufferView":34,"componentType":5126,"count":24,"max":[374.9189758300781,350.93927001953125,9.639976501464844],"min":[-450.8485107421875,330.9342956542969,-450.2764587402344],"type":"VEC3"},{"bufferView":35,"componentType":5126,"count":24,"type":"VEC3"},{"bufferView":36,"componentType":5126,"count":24,"type":"VEC2"},{"bufferView":37,"componentType":5126,"count":24,"max":[391.7244567871094,351.25079345703125,-405.2613525390625],"min":[359.0340881347656,-355.80670166015625,-449.4338073730469],"type":"VEC3"},{"bufferView":38,"componentType":5126,"count":24,"type":"VEC3"},{"bufferView":39,"componentType":5126,"count":24,"type":"VEC2"},{"bufferView":40,"componentType":5123,"count":36,"type":"SCALAR"},{"bufferView":41,"componentType":5126,"count":24,"max":[360.9250183105469,335.2687683105469,-342.7729797363281],"min":[-429.7363586425781,-336.4853820800781,-459.7059631347656],"type":"VEC3"},{"bufferView":42,"componentType":5126,"count":24,"type":"VEC3"},{"bufferView":43,"componentType":5126,"count":24,"type":"VEC2"},{"bufferView":44,"componentType":5126,"count":24,"max":[360.48736572265625,331.5853271484375,-408.0300598144531],"min":[-420.61187744140625,-336.4853515625,-447.7692565917969],"type":"VEC3"},{"bufferView":45,"componentType":5126,"count":24,"type":"VEC3"},{"bufferView":46,"componentType":5126,"count":24,"type":"VEC2"},{"bufferView":47,"componentType":5126,"count":24,"max":[-416.29913330078125,350.93927001953125,-447.3387756347656],"min":[-450.8485107421875,-355.8392333984375,-483.4122009277344],"type":"VEC3"},{"bufferView":48,"componentType":5126,"count":24,"type":"VEC3"},{"bufferView":49,"componentType":5126,"count":24,"type":"VEC2"},{"bufferView":50,"componentType":5126,"count":24,"max":[372.25848388671875,-331.9742431640625,-447.3387756347656],"min":[-450.8485107421875,-352.3043212890625,-483.4122009277344],"type":"VEC3"},{"bufferView":51,"componentType":5126,"count":24,"type":"VEC3"},{"bufferView":52,"componentType":5126,"count":24,"type":"VEC2"},{"bufferView":53,"componentType":5126,"count":24,"max":[372.25848388671875,347.40423583984375,-447.3387756347656],"min":[-450.8485107421875,327.07415771484375,-483.4122009277344],"type":"VEC3"},{"bufferView":54,"componentType":5126,"count":24,"type":"VEC3"},{"bufferView":55,"componentType":5126,"count":24,"type":"VEC2"},{"bufferView":56,"componentType":5126,"count":24,"max":[390.34588623046875,350.93927001953125,-447.3387756347656],"min":[361.0552673339844,-355.8392639160156,-483.4122009277344],"type":"VEC3"},{"bufferView":57,"componentType":5126,"count":24,"type":"VEC3"},{"bufferView":58,"componentType":5126,"count":24,"type":"VEC2"},{"bufferView":59,"componentType":5126,"count":24,"max":[379.25445556640625,369.50665283203125,9.639976501464844],"min":[349.462890625,331.3765869140625,-371.7673034667969],"type":"VEC3"},{"bufferView":60,"componentType":5126,"count":24,"type":"VEC3"},{"bufferView":61,"componentType":5126,"count":24,"type":"VEC2"},{"bufferView":62,"componentType":5126,"count":24,"max":[365.7298583984375,-153.88861083984375,9.639976501464844],"min":[348.26751708984375,-344.1546630859375,-367.3868408203125],"type":"VEC3"},{"bufferView":63,"componentType":5126,"count":24,"type":"VEC3"},{"bufferView":64,"componentType":5126,"count":24,"type":"VEC2"},{"bufferView":65,"componentType":5126,"count":24,"max":[365.7298583984375,338.70587158203125,9.639976501464844],"min":[348.26751708984375,150.3515625,-367.3868408203125],"type":"VEC3"},{"bufferView":66,"componentType":5126,"count":24,"type":"VEC3"},{"bufferView":67,"componentType":5126,"count":24,"type":"VEC2"},{"bufferView":68,"componentType":5126,"count":24,"max":[365.8339538574219,160.52886962890625,9.639976501464844],"min":[260.77813720703125,74.7489013671875,-367.3868408203125],"type":"VEC3"},{"bufferView":69,"componentType":5126,"count":24,"type":"VEC3"},{"bufferView":70,"componentType":5126,"count":24,"type":"VEC2"},{"bufferView":71,"componentType":5123,"count":36,"type":"SCALAR"},{"bufferView":72,"componentType":5126,"count":24,"max":[365.8339538574219,-79.44088745117188,9.639976501464844],"min":[260.77813720703125,-165.22085571289062,-367.3868408203125],"type":"VEC3"},{"bufferView":73,"componentType":5126,"count":24,"type":"VEC3"},{"bufferView":74,"componentType":5126,"count":24,"type":"VEC2"},{"bufferView":75,"componentType":5123,"count":36,"type":"SCALAR"},{"bufferView":76,"componentType":5126,"count":24,"max":[274.2152099609375,-59.397857666015625,9.639976501464844],"min":[260.6321716308594,-90.78578186035156,-367.3868408203125],"type":"VEC3"},{"bufferView":77,"componentType":5126,"count":24,"type":"VEC3"},{"bufferView":78,"componentType":5126,"count":24,"type":"VEC2"},{"bufferView":79,"componentType":5126,"count":24,"max":[274.2152099609375,86.24427795410156,9.639976501464844],"min":[260.6321716308594,54.85636901855469,-367.3868408203125],"type":"VEC3"},{"bufferView":80,"componentType":5126,"count":24,"type":"VEC3"},{"bufferView":81,"componentType":5126,"count":24,"type":"VEC2"},{"bufferView":82,"componentType":5126,"count":2772,"max":[389.79180908203125,374.1275634765625,9.642826080322266],"min":[-474.3201904296875,-374.1275634765625,-490.076171875],"type":"VEC3"},{"bufferView":83,"componentType":5126,"count":2772,"type":"VEC3"},{"bufferView":84,"componentType":5126,"count":2772,"type":"VEC2"},{"bufferView":85,"componentType":5123,"count":4824,"type":"SCALAR"}],"bufferViews":[{"buffer":0,"byteLength":2748,"byteOffset":0,"target":34962},{"buffer":0,"byteLength":2748,"byteOffset":2748,"target":34962},{"buffer":0,"byteLength":1832,"byteOffset":5496,"target":34962},{"buffer":0,"byteLength":780,"byteOffset":7328,"target":34963},{"buffer":0,"byteLength":288,"byteOffset":8108,"target":34962},{"buffer":0,"byteLength":288,"byteOffset":8396,"target":34962},{"buffer":0,"byteLength":192,"byteOffset":8684,"target":34962},{"buffer":0,"byteLength":72,"byteOffset":8876,"target":34963},{"buffer":0,"byteLength":288,"byteOffset":8948,"target":34962},{"buffer":0,"byteLength":288,"byteOffset":9236,"target":34962},{"buffer":0,"byteLength":192,"byteOffset":9524,"target":34962},{"buffer":0,"byteLength":72,"byteOffset":9716,"target":34963},{"buffer":0,"byteLength":288,"byteOffset":9788,"target":34962},{"buffer":0,"byteLength":288,"byteOffset":10076,"target":34962},{"buffer":0,"byteLength":192,"byteOffset":10364,"target":34962},{"buffer":0,"byteLength":288,"byteOffset":10556,"target":34962},{"buffer":0,"byteLength":288,"byteOffset":10844,"target":34962},{"buffer":0,"byteLength":192,"byteOffset":11132,"target":34962},{"buffer":0,"byteLength":72,"byteOffset":11324,"target":34963},{"buffer":0,"byteLength":288,"byteOffset":11396,"target":34962},{"buffer":0,"byteLength":288,"byteOffset":11684,"target":34962},{"buffer":0,"byteLength":192,"byteOffset":11972,"target":34962},{"buffer":0,"byteLength":288,"byteOffset":12164,"target":34962},{"buffer":0,"byteLength":288,"byteOffset":12452,"target":34962},{"buffer":0,"byteLength":192,"byteOffset":12740,"target":34962},{"buffer":0,"byteLength":288,"byteOffset":12932,"target":34962},{"buffer":0,"byteLength":288,"byteOffset":13220,"target":34962},{"buffer":0,"byteLength":192,"byteOffset":13508,"target":34962},{"buffer":0,"byteLength":288,"byteOffset":13700,"target":34962},{"buffer":0,"byteLength":288,"byteOffset":13988,"target":34962},{"buffer":0,"byteLength":192,"byteOffset":14276,"target":34962},{"buffer":0,"byteLength":288,"byteOffset":14468,"target":34962},{"buffer":0,"byteLength":288,"byteOffset":14756,"target":34962},{"buffer":0,"byteLength":192,"byteOffset":15044,"target":34962},{"buffer":0,"byteLength":288,"byteOffset":15236,"target":34962},{"buffer":0,"byteLength":288,"byteOffset":15524,"target":34962},{"buffer":0,"byteLength":192,"byteOffset":15812,"target":34962},{"buffer":0,"byteLength":288,"byteOffset":16004,"target":34962},{"buffer":0,"byteLength":288,"byteOffset":16292,"target":34962},{"buffer":0,"byteLength":192,"byteOffset":16580,"target":34962},{"buffer":0,"byteLength":72,"byteOffset":16772,"target":34963},{"buffer":0,"byteLength":288,"byteOffset":16844,"target":34962},{"buffer":0,"byteLength":288,"byteOffset":17132,"target":34962},{"buffer":0,"byteLength":192,"byteOffset":17420,"target":34962},{"buffer":0,"byteLength":288,"byteOffset":17612,"target":34962},{"buffer":0,"byteLength":288,"byteOffset":17900,"target":34962},{"buffer":0,"byteLength":192,"byteOffset":18188,"target":34962},{"buffer":0,"byteLength":288,"byteOffset":18380,"target":34962},{"buffer":0,"byteLength":288,"byteOffset":18668,"target":34962},{"buffer":0,"byteLength":192,"byteOffset":18956,"target":34962},{"buffer":0,"byteLength":288,"byteOffset":19148,"target":34962},{"buffer":0,"byteLength":288,"byteOffset":19436,"target":34962},{"buffer":0,"byteLength":192,"byteOffset":19724,"target":34962},{"buffer":0,"byteLength":288,"byteOffset":19916,"target":34962},{"buffer":0,"byteLength":288,"byteOffset":20204,"target":34962},{"buffer":0,"byteLength":192,"byteOffset":20492,"target":34962},{"buffer":0,"byteLength":288,"byteOffset":20684,"target":34962},{"buffer":0,"byteLength":288,"byteOffset":20972,"target":34962},{"buffer":0,"byteLength":192,"byteOffset":21260,"target":34962},{"buffer":0,"byteLength":288,"byteOffset":21452,"target":34962},{"buffer":0,"byteLength":288,"byteOffset":21740,"target":34962},{"buffer":0,"byteLength":192,"byteOffset":22028,"target":34962},{"buffer":0,"byteLength":288,"byteOffset":22220,"target":34962},{"buffer":0,"byteLength":288,"byteOffset":22508,"target":34962},{"buffer":0,"byteLength":192,"byteOffset":22796,"target":34962},{"buffer":0,"byteLength":288,"byteOffset":22988,"target":34962},{"buffer":0,"byteLength":288,"byteOffset":23276,"target":34962},{"buffer":0,"byteLength":192,"byteOffset":23564,"target":34962},{"buffer":0,"byteLength":288,"byteOffset":23756,"target":34962},{"buffer":0,"byteLength":288,"byteOffset":24044,"target":34962},{"buffer":0,"byteLength":192,"byteOffset":24332,"target":34962},{"buffer":0,"byteLength":72,"byteOffset":24524,"target":34963},{"buffer":0,"byteLength":288,"byteOffset":24596,"target":34962},{"buffer":0,"byteLength":288,"byteOffset":24884,"target":34962},{"buffer":0,"byteLength":192,"byteOffset":25172,"target":34962},{"buffer":0,"byteLength":72,"byteOffset":25364,"target":34963},{"buffer":0,"byteLength":288,"byteOffset":25436,"target":34962},{"buffer":0,"byteLength":288,"byteOffset":25724,"target":34962},{"buffer":0,"byteLength":192,"byteOffset":26012,"target":34962},{"buffer":0,"byteLength":288,"byteOffset":26204,"target":34962},{"buffer":0,"byteLength":288,"byteOffset":26492,"target":34962},{"buffer":0,"byteLength":192,"byteOffset":26780,"target":34962},{"buffer":0,"byteLength":33264,"byteOffset":26972,"target":34962},{"buffer":0,"byteLength":33264,"byteOffset":60236,"target":34962},{"buffer":0,"byteLength":22176,"byteOffset":93500,"target":34962},{"buffer":0,"byteLength":9648,"byteOffset":115676,"target":34963}],"samplers":[{"magFilter":9729,"minFilter":9987}],"buffers":[{"byteLength":125324,"uri":"apoc_SM_Bld_Shop_Small_02.bin"}]}