{
	"asset":{
		"generator":"Khronos glTF Blender I/O v4.4.55",
		"version":"2.0"
	},
	"extensionsUsed":[
		"EXT_texture_webp"
	],
	"extensionsRequired":[
		"EXT_texture_webp"
	],
	"scene":0,
	"scenes":[
		{
			"name":"Scene",
			"nodes":[
				0
			]
		}
	],
	"nodes":[
		{
			"mesh":0,
			"name":"SM_Prop_Wire_04",
			"rotation":[
				0.7071068286895752,
				0,
				0,
				0.7071068286895752
			],
			"scale":[
				0.009999999776482582,
				0.009999999776482582,
				0.009999999776482582
			]
		}
	],
	"materials":[
		{
			"doubleSided":true,
			"name":"PolygonApocalypse_Mat_01_A",
			"pbrMetallicRoughness":{
				"baseColorTexture":{
					"index":0
				},
				"metallicFactor":0,
				"roughnessFactor":0.5527864098548889
			}
		}
	],
	"meshes":[
		{
			"name":"Mesh",
			"primitives":[
				{
					"attributes":{
						"POSITION":0,
						"NORMAL":1,
						"TEXCOORD_0":2,
						"TEXCOORD_1":3
					},
					"indices":4,
					"material":0
				}
			]
		}
	],
	"textures":[
		{
			"extensions":{
				"EXT_texture_webp":{
					"source":0
				}
			},
			"sampler":0
		}
	],
	"images":[
		{
			"mimeType":"image/webp",
			"name":"PolygonApocalypse_Texture_01_A",
			"uri":"PolygonApocalypse_Texture_01_A.webp"
		}
	],
	"accessors":[
		{
			"bufferView":0,
			"componentType":5126,
			"count":1218,
			"max":[
				153.2257080078125,
				209.69863891601562,
				42.44520568847656
			],
			"min":[
				-49.729766845703125,
				-159.3333740234375,
				-42.37980651855469
			],
			"type":"VEC3"
		},
		{
			"bufferView":1,
			"componentType":5126,
			"count":1218,
			"type":"VEC3"
		},
		{
			"bufferView":2,
			"componentType":5126,
			"count":1218,
			"type":"VEC2"
		},
		{
			"bufferView":3,
			"componentType":5126,
			"count":1218,
			"type":"VEC2"
		},
		{
			"bufferView":4,
			"componentType":5123,
			"count":1824,
			"type":"SCALAR"
		}
	],
	"bufferViews":[
		{
			"buffer":0,
			"byteLength":14616,
			"byteOffset":0,
			"target":34962
		},
		{
			"buffer":0,
			"byteLength":14616,
			"byteOffset":14616,
			"target":34962
		},
		{
			"buffer":0,
			"byteLength":9744,
			"byteOffset":29232,
			"target":34962
		},
		{
			"buffer":0,
			"byteLength":9744,
			"byteOffset":38976,
			"target":34962
		},
		{
			"buffer":0,
			"byteLength":3648,
			"byteOffset":48720,
			"target":34963
		}
	],
	"samplers":[
		{
			"magFilter":9729,
			"minFilter":9987
		}
	],
	"buffers":[
		{
			"byteLength":52368,
			"uri":"apoc_SM_Prop_Wire_04.bin"
		}
	]
}
