{
	"asset":{
		"generator":"Khronos glTF Blender I/O v4.4.55",
		"version":"2.0"
	},
	"extensionsUsed":[
		"EXT_texture_webp"
	],
	"extensionsRequired":[
		"EXT_texture_webp"
	],
	"scene":0,
	"scenes":[
		{
			"name":"Scene",
			"nodes":[
				0
			]
		}
	],
	"nodes":[
		{
			"mesh":0,
			"name":"SM_Bld_Trailer_Interior_01",
			"rotation":[
				0.7071068286895752,
				0,
				0,
				0.7071068286895752
			],
			"scale":[
				0.009999999776482582,
				0.009999999776482582,
				0.009999999776482582
			]
		}
	],
	"materials":[
		{
			"doubleSided":true,
			"name":"PolygonApocalypse_Mat_01_A",
			"pbrMetallicRoughness":{
				"baseColorTexture":{
					"index":0
				},
				"metallicFactor":0,
				"roughnessFactor":0.5527864098548889
			}
		}
	],
	"meshes":[
		{
			"name":"Mesh",
			"primitives":[
				{
					"attributes":{
						"POSITION":0,
						"NORMAL":1,
						"TEXCOORD_0":2,
						"TEXCOORD_1":3
					},
					"indices":4,
					"material":0
				}
			]
		}
	],
	"textures":[
		{
			"extensions":{
				"EXT_texture_webp":{
					"source":0
				}
			},
			"sampler":0
		}
	],
	"images":[
		{
			"mimeType":"image/webp",
			"name":"PolygonApocalypse_Texture_01_A",
			"uri":"PolygonApocalypse_Texture_01_A.webp"
		}
	],
	"accessors":[
		{
			"bufferView":0,
			"componentType":5126,
			"count":2071,
			"max":[
				444.565673828125,
				152.96572875976562,
				-57.93751525878906
			],
			"min":[
				-451.245849609375,
				-152.64706420898438,
				-334.39453125
			],
			"type":"VEC3"
		},
		{
			"bufferView":1,
			"componentType":5126,
			"count":2071,
			"type":"VEC3"
		},
		{
			"bufferView":2,
			"componentType":5126,
			"count":2071,
			"type":"VEC2"
		},
		{
			"bufferView":3,
			"componentType":5126,
			"count":2071,
			"type":"VEC2"
		},
		{
			"bufferView":4,
			"componentType":5123,
			"count":3492,
			"type":"SCALAR"
		}
	],
	"bufferViews":[
		{
			"buffer":0,
			"byteLength":24852,
			"byteOffset":0,
			"target":34962
		},
		{
			"buffer":0,
			"byteLength":24852,
			"byteOffset":24852,
			"target":34962
		},
		{
			"buffer":0,
			"byteLength":16568,
			"byteOffset":49704,
			"target":34962
		},
		{
			"buffer":0,
			"byteLength":16568,
			"byteOffset":66272,
			"target":34962
		},
		{
			"buffer":0,
			"byteLength":6984,
			"byteOffset":82840,
			"target":34963
		}
	],
	"samplers":[
		{
			"magFilter":9729,
			"minFilter":9987
		}
	],
	"buffers":[
		{
			"byteLength":89824,
			"uri":"apoc_SM_Bld_Trailer_Interior_01.bin"
		}
	]
}
