{
	"asset":{
		"generator":"Khronos glTF Blender I/O v4.4.55",
		"version":"2.0"
	},
	"extensionsUsed":[
		"EXT_texture_webp"
	],
	"extensionsRequired":[
		"EXT_texture_webp"
	],
	"scene":0,
	"scenes":[
		{
			"name":"Scene",
			"nodes":[
				0
			]
		}
	],
	"nodes":[
		{
			"mesh":0,
			"name":"SM_Wep_Mod_Body_24",
			"rotation":[
				0.7071068286895752,
				0,
				0,
				0.7071068286895752
			],
			"scale":[
				0.009999999776482582,
				0.009999999776482582,
				0.009999999776482582
			]
		}
	],
	"materials":[
		{
			"doubleSided":true,
			"name":"PolygonApocalypse_Mat_01_A",
			"pbrMetallicRoughness":{
				"baseColorTexture":{
					"index":0
				},
				"metallicFactor":0,
				"roughnessFactor":0.5527864098548889
			}
		}
	],
	"meshes":[
		{
			"name":"Mesh",
			"primitives":[
				{
					"attributes":{
						"POSITION":0,
						"NORMAL":1,
						"TEXCOORD_0":2,
						"TEXCOORD_1":3
					},
					"indices":4,
					"material":0
				}
			]
		}
	],
	"textures":[
		{
			"extensions":{
				"EXT_texture_webp":{
					"source":0
				}
			},
			"sampler":0
		}
	],
	"images":[
		{
			"mimeType":"image/webp",
			"name":"PolygonApocalypse_Texture_01_C",
			"uri":"PolygonApocalypse_Texture_01_C.webp"
		}
	],
	"accessors":[
		{
			"bufferView":0,
			"componentType":5126,
			"count":1558,
			"max":[
				25.414016723632812,
				4.037314414978027,
				3.3798828125
			],
			"min":[
				-11.460174560546875,
				-4.037314414978027,
				-9.465347290039062
			],
			"type":"VEC3"
		},
		{
			"bufferView":1,
			"componentType":5126,
			"count":1558,
			"type":"VEC3"
		},
		{
			"bufferView":2,
			"componentType":5126,
			"count":1558,
			"type":"VEC2"
		},
		{
			"bufferView":3,
			"componentType":5126,
			"count":1558,
			"type":"VEC2"
		},
		{
			"bufferView":4,
			"componentType":5123,
			"count":2766,
			"type":"SCALAR"
		}
	],
	"bufferViews":[
		{
			"buffer":0,
			"byteLength":18696,
			"byteOffset":0,
			"target":34962
		},
		{
			"buffer":0,
			"byteLength":18696,
			"byteOffset":18696,
			"target":34962
		},
		{
			"buffer":0,
			"byteLength":12464,
			"byteOffset":37392,
			"target":34962
		},
		{
			"buffer":0,
			"byteLength":12464,
			"byteOffset":49856,
			"target":34962
		},
		{
			"buffer":0,
			"byteLength":5532,
			"byteOffset":62320,
			"target":34963
		}
	],
	"samplers":[
		{
			"magFilter":9729,
			"minFilter":9987
		}
	],
	"buffers":[
		{
			"byteLength":67852,
			"uri":"apoc_SM_Wep_Mod_Body_24.bin"
		}
	]
}
