{
	"asset":{
		"generator":"Khronos glTF Blender I/O v4.4.55",
		"version":"2.0"
	},
	"extensionsUsed":[
		"EXT_texture_webp"
	],
	"extensionsRequired":[
		"EXT_texture_webp"
	],
	"scene":0,
	"scenes":[
		{
			"name":"Scene",
			"nodes":[
				0
			]
		}
	],
	"nodes":[
		{
			"mesh":0,
			"name":"SM_Env_DirtPile_01",
			"rotation":[
				0.7071068286895752,
				0,
				0,
				0.7071068286895752
			],
			"scale":[
				0.009999999776482582,
				0.009999999776482582,
				0.009999999776482582
			]
		}
	],
	"materials":[
		{
			"doubleSided":true,
			"name":"PolygonApocalypse_Mat_01_A",
			"pbrMetallicRoughness":{
				"baseColorTexture":{
					"index":0
				},
				"metallicFactor":0,
				"roughnessFactor":0.5527864098548889
			}
		}
	],
	"meshes":[
		{
			"name":"Mesh",
			"primitives":[
				{
					"attributes":{
						"POSITION":0,
						"NORMAL":1,
						"TEXCOORD_0":2,
						"TEXCOORD_1":3
					},
					"indices":4,
					"material":0
				}
			]
		}
	],
	"textures":[
		{
			"extensions":{
				"EXT_texture_webp":{
					"source":0
				}
			},
			"sampler":0
		}
	],
	"images":[
		{
			"mimeType":"image/webp",
			"name":"PolygonApocalypse_Texture_01_A",
			"uri":"PolygonApocalypse_Texture_01_A.webp"
		}
	],
	"accessors":[
		{
			"bufferView":0,
			"componentType":5126,
			"count":1060,
			"max":[
				221.5791015625,
				7.13720703125,
				1.583038330078125
			],
			"min":[
				-4.67822265625,
				-224.06396484375,
				-28.200210571289062
			],
			"type":"VEC3"
		},
		{
			"bufferView":1,
			"componentType":5126,
			"count":1060,
			"type":"VEC3"
		},
		{
			"bufferView":2,
			"componentType":5126,
			"count":1060,
			"type":"VEC2"
		},
		{
			"bufferView":3,
			"componentType":5126,
			"count":1060,
			"type":"VEC2"
		},
		{
			"bufferView":4,
			"componentType":5123,
			"count":1104,
			"type":"SCALAR"
		}
	],
	"bufferViews":[
		{
			"buffer":0,
			"byteLength":12720,
			"byteOffset":0,
			"target":34962
		},
		{
			"buffer":0,
			"byteLength":12720,
			"byteOffset":12720,
			"target":34962
		},
		{
			"buffer":0,
			"byteLength":8480,
			"byteOffset":25440,
			"target":34962
		},
		{
			"buffer":0,
			"byteLength":8480,
			"byteOffset":33920,
			"target":34962
		},
		{
			"buffer":0,
			"byteLength":2208,
			"byteOffset":42400,
			"target":34963
		}
	],
	"samplers":[
		{
			"magFilter":9729,
			"minFilter":9987
		}
	],
	"buffers":[
		{
			"byteLength":44608,
			"uri":"apoc_SM_Env_DirtPile_01.bin"
		}
	]
}
