{"asset":{"generator":"Khronos glTF Blender I/O v4.4.55","version":"2.0"},"extensionsUsed":["EXT_texture_webp"],"extensionsRequired":["EXT_texture_webp"],"scene":0,"scenes":[{"name":"Scene","nodes":[0]}],"nodes":[{"mesh":0,"name":"SM_Bld_Door_Barricaded_02","rotation":[0.7071068286895752,0,0,0.7071068286895752],"scale":[0.009999999776482582,0.009999999776482582,0.009999999776482582]}],"materials":[{"doubleSided":true,"name":"PolygonApocalypse_Mat_01_A","pbrMetallicRoughness":{"baseColorTexture":{"index":0},"metallicFactor":0,"roughnessFactor":0.5527864098548889}},{"alphaMode":"MASK","doubleSided":true,"name":"PolygonApocalypse_Glass_01","pbrMetallicRoughness":{"baseColorFactor":[1,1,1,0.6144578456878662],"baseColorTexture":{"index":1},"metallicFactor":0,"roughnessFactor":0.5527864098548889},"alphaCutoff":0.5}],"meshes":[{"name":"Mesh","primitives":[{"attributes":{"POSITION":0,"NORMAL":1,"TEXCOORD_0":2,"TEXCOORD_1":3},"indices":4,"material":0},{"attributes":{"POSITION":5,"NORMAL":6,"TEXCOORD_0":7,"TEXCOORD_1":8},"indices":9,"material":1}]}],"textures":[{"extensions":{"EXT_texture_webp":{"source":0}},"sampler":0},{"extensions":{"EXT_texture_webp":{"source":0}},"sampler":0}],"images":[{"mimeType":"image/webp","name":"PolygonApocalypse_Texture_01_A","uri":"PolygonApocalypse_Texture_01_A.webp"}],"accessors":[{"bufferView":0,"componentType":5126,"count":1486,"max":[22.19189453125,2.60693359375,0],"min":[-12.650390625,-105.66064453125,-222.434814453125],"type":"VEC3"},{"bufferView":1,"componentType":5126,"count":1486,"type":"VEC3"},{"bufferView":2,"componentType":5126,"count":1486,"type":"VEC2"},{"bufferView":3,"componentType":5126,"count":1486,"type":"VEC2"},{"bufferView":4,"componentType":5123,"count":2388,"type":"SCALAR"},{"bufferView":5,"componentType":5126,"count":98,"max":[1.81982421875,-10.78955078125,-100.28882598876953],"min":[-1.20751953125,-91.740234375,-211.9971923828125],"type":"VEC3"},{"bufferView":6,"componentType":5126,"count":98,"type":"VEC3"},{"bufferView":7,"componentType":5126,"count":98,"type":"VEC2"},{"bufferView":8,"componentType":5126,"count":98,"type":"VEC2"},{"bufferView":9,"componentType":5123,"count":162,"type":"SCALAR"}],"bufferViews":[{"buffer":0,"byteLength":17832,"byteOffset":0,"target":34962},{"buffer":0,"byteLength":17832,"byteOffset":17832,"target":34962},{"buffer":0,"byteLength":11888,"byteOffset":35664,"target":34962},{"buffer":0,"byteLength":11888,"byteOffset":47552,"target":34962},{"buffer":0,"byteLength":4776,"byteOffset":59440,"target":34963},{"buffer":0,"byteLength":1176,"byteOffset":64216,"target":34962},{"buffer":0,"byteLength":1176,"byteOffset":65392,"target":34962},{"buffer":0,"byteLength":784,"byteOffset":66568,"target":34962},{"buffer":0,"byteLength":784,"byteOffset":67352,"target":34962},{"buffer":0,"byteLength":324,"byteOffset":68136,"target":34963}],"samplers":[{"magFilter":9729,"minFilter":9987}],"buffers":[{"byteLength":68460,"uri":"apoc_SM_Bld_Door_Barricaded_02.bin"}]}