{"asset":{"generator":"Khronos glTF Blender I/O v4.4.55","version":"2.0"},"extensionsUsed":["EXT_texture_webp"],"extensionsRequired":["EXT_texture_webp"],"scene":0,"scenes":[{"name":"Scene","nodes":[0]}],"nodes":[{"mesh":0,"name":"SM_Bld_Cafe_01_Glass_01","rotation":[0.7071068286895752,0,0,0.7071068286895752],"scale":[0.009999999776482582,0.009999999776482582,0.009999999776482582]}],"materials":[{"alphaMode":"MASK","doubleSided":true,"name":"PolygonApocalypse_Glass_01","pbrMetallicRoughness":{"baseColorFactor":[1,1,1,0.6144578456878662],"baseColorTexture":{"index":0},"metallicFactor":0,"roughnessFactor":0.5527864098548889},"alphaCutoff":0.5}],"meshes":[{"name":"Mesh","primitives":[{"attributes":{"POSITION":0,"NORMAL":1,"TEXCOORD_0":2,"TEXCOORD_1":3},"indices":4,"material":0}]}],"textures":[{"extensions":{"EXT_texture_webp":{"source":0}},"sampler":0}],"images":[{"mimeType":"image/webp","name":"PolygonApocalypse_Texture_01_A","uri":"PolygonApocalypse_Texture_01_A.webp"}],"accessors":[{"bufferView":0,"componentType":5126,"count":364,"max":[240.982421875,255.09619140625,-69.10259246826172],"min":[237.464111328125,-246.5068359375,-553.4655151367188],"type":"VEC3"},{"bufferView":1,"componentType":5126,"count":364,"type":"VEC3"},{"bufferView":2,"componentType":5126,"count":364,"type":"VEC2"},{"bufferView":3,"componentType":5126,"count":364,"type":"VEC2"},{"bufferView":4,"componentType":5123,"count":606,"type":"SCALAR"}],"bufferViews":[{"buffer":0,"byteLength":4368,"byteOffset":0,"target":34962},{"buffer":0,"byteLength":4368,"byteOffset":4368,"target":34962},{"buffer":0,"byteLength":2912,"byteOffset":8736,"target":34962},{"buffer":0,"byteLength":2912,"byteOffset":11648,"target":34962},{"buffer":0,"byteLength":1212,"byteOffset":14560,"target":34963}],"samplers":[{"magFilter":9729,"minFilter":9987}],"buffers":[{"byteLength":15772,"uri":"apoc_SM_Bld_Cafe_01_Glass_01.bin"}]}