{
	"asset":{
		"generator":"Khronos glTF Blender I/O v4.4.55",
		"version":"2.0"
	},
	"extensionsUsed":[
		"EXT_texture_webp"
	],
	"extensionsRequired":[
		"EXT_texture_webp"
	],
	"scene":0,
	"scenes":[
		{
			"name":"Scene",
			"nodes":[
				0
			]
		}
	],
	"nodes":[
		{
			"mesh":0,
			"name":"SM_Chr_Attach_Armour_Shoulder_Sports_L_02",
			"rotation":[
				0.7071068286895752,
				0,
				0,
				0.7071068286895752
			],
			"scale":[
				0.009999999776482582,
				0.009999999776482582,
				0.009999999776482582
			]
		}
	],
	"materials":[
		{
			"doubleSided":true,
			"name":"PolygonApocalypse_Mat_01_A",
			"pbrMetallicRoughness":{
				"baseColorTexture":{
					"index":0
				},
				"metallicFactor":0,
				"roughnessFactor":0.5527864098548889
			}
		}
	],
	"meshes":[
		{
			"name":"Mesh",
			"primitives":[
				{
					"attributes":{
						"POSITION":0,
						"NORMAL":1,
						"TEXCOORD_0":2,
						"TEXCOORD_1":3
					},
					"indices":4,
					"material":0
				}
			]
		}
	],
	"textures":[
		{
			"extensions":{
				"EXT_texture_webp":{
					"source":0
				}
			},
			"sampler":0
		}
	],
	"images":[
		{
			"mimeType":"image/webp",
			"name":"PolygonApocalypse_Texture_01_A",
			"uri":"PolygonApocalypse_Texture_01_A.webp"
		}
	],
	"accessors":[
		{
			"bufferView":0,
			"componentType":5126,
			"count":392,
			"max":[
				2.868488311767578,
				-3.3487749099731445,
				0.849334716796875
			],
			"min":[
				-14.732996940612793,
				-25.018909454345703,
				-10.791458129882812
			],
			"type":"VEC3"
		},
		{
			"bufferView":1,
			"componentType":5126,
			"count":392,
			"type":"VEC3"
		},
		{
			"bufferView":2,
			"componentType":5126,
			"count":392,
			"type":"VEC2"
		},
		{
			"bufferView":3,
			"componentType":5126,
			"count":392,
			"type":"VEC2"
		},
		{
			"bufferView":4,
			"componentType":5123,
			"count":612,
			"type":"SCALAR"
		}
	],
	"bufferViews":[
		{
			"buffer":0,
			"byteLength":4704,
			"byteOffset":0,
			"target":34962
		},
		{
			"buffer":0,
			"byteLength":4704,
			"byteOffset":4704,
			"target":34962
		},
		{
			"buffer":0,
			"byteLength":3136,
			"byteOffset":9408,
			"target":34962
		},
		{
			"buffer":0,
			"byteLength":3136,
			"byteOffset":12544,
			"target":34962
		},
		{
			"buffer":0,
			"byteLength":1224,
			"byteOffset":15680,
			"target":34963
		}
	],
	"samplers":[
		{
			"magFilter":9729,
			"minFilter":9987
		}
	],
	"buffers":[
		{
			"byteLength":16904,
			"uri":"apoc_SM_Chr_Attach_Armour_Shoulder_Sports_L_02.bin"
		}
	]
}
