{"asset":{"generator":"Khronos glTF Blender I/O v4.4.55","version":"2.0"},"extensionsUsed":["EXT_texture_webp"],"extensionsRequired":["EXT_texture_webp"],"scene":0,"scenes":[{"name":"Scene","nodes":[54]}],"nodes":[{"mesh":0,"name":"UCX_SM_Bld_Military_Tent_Damaged_02_1"},{"mesh":1,"name":"UCX_SM_Bld_Military_Tent_Damaged_02_10"},{"mesh":2,"name":"UCX_SM_Bld_Military_Tent_Damaged_02_11"},{"mesh":3,"name":"UCX_SM_Bld_Military_Tent_Damaged_02_12"},{"mesh":4,"name":"UCX_SM_Bld_Military_Tent_Damaged_02_13"},{"mesh":5,"name":"UCX_SM_Bld_Military_Tent_Damaged_02_14"},{"mesh":6,"name":"UCX_SM_Bld_Military_Tent_Damaged_02_15"},{"mesh":7,"name":"UCX_SM_Bld_Military_Tent_Damaged_02_16"},{"mesh":8,"name":"UCX_SM_Bld_Military_Tent_Damaged_02_17"},{"mesh":9,"name":"UCX_SM_Bld_Military_Tent_Damaged_02_18"},{"mesh":10,"name":"UCX_SM_Bld_Military_Tent_Damaged_02_19"},{"mesh":11,"name":"UCX_SM_Bld_Military_Tent_Damaged_02_2"},{"mesh":12,"name":"UCX_SM_Bld_Military_Tent_Damaged_02_20"},{"mesh":13,"name":"UCX_SM_Bld_Military_Tent_Damaged_02_21"},{"mesh":14,"name":"UCX_SM_Bld_Military_Tent_Damaged_02_22"},{"mesh":15,"name":"UCX_SM_Bld_Military_Tent_Damaged_02_23"},{"mesh":16,"name":"UCX_SM_Bld_Military_Tent_Damaged_02_24"},{"mesh":17,"name":"UCX_SM_Bld_Military_Tent_Damaged_02_25"},{"mesh":18,"name":"UCX_SM_Bld_Military_Tent_Damaged_02_26"},{"mesh":19,"name":"UCX_SM_Bld_Military_Tent_Damaged_02_27"},{"mesh":20,"name":"UCX_SM_Bld_Military_Tent_Damaged_02_28"},{"mesh":21,"name":"UCX_SM_Bld_Military_Tent_Damaged_02_29"},{"mesh":22,"name":"UCX_SM_Bld_Military_Tent_Damaged_02_3"},{"mesh":23,"name":"UCX_SM_Bld_Military_Tent_Damaged_02_30"},{"mesh":24,"name":"UCX_SM_Bld_Military_Tent_Damaged_02_31"},{"mesh":25,"name":"UCX_SM_Bld_Military_Tent_Damaged_02_32"},{"mesh":26,"name":"UCX_SM_Bld_Military_Tent_Damaged_02_33"},{"mesh":27,"name":"UCX_SM_Bld_Military_Tent_Damaged_02_34"},{"mesh":28,"name":"UCX_SM_Bld_Military_Tent_Damaged_02_35"},{"mesh":29,"name":"UCX_SM_Bld_Military_Tent_Damaged_02_36"},{"mesh":30,"name":"UCX_SM_Bld_Military_Tent_Damaged_02_37"},{"mesh":31,"name":"UCX_SM_Bld_Military_Tent_Damaged_02_38"},{"mesh":32,"name":"UCX_SM_Bld_Military_Tent_Damaged_02_39"},{"mesh":33,"name":"UCX_SM_Bld_Military_Tent_Damaged_02_4"},{"mesh":34,"name":"UCX_SM_Bld_Military_Tent_Damaged_02_40"},{"mesh":35,"name":"UCX_SM_Bld_Military_Tent_Damaged_02_41"},{"mesh":36,"name":"UCX_SM_Bld_Military_Tent_Damaged_02_42"},{"mesh":37,"name":"UCX_SM_Bld_Military_Tent_Damaged_02_43"},{"mesh":38,"name":"UCX_SM_Bld_Military_Tent_Damaged_02_44"},{"mesh":39,"name":"UCX_SM_Bld_Military_Tent_Damaged_02_45"},{"mesh":40,"name":"UCX_SM_Bld_Military_Tent_Damaged_02_46"},{"mesh":41,"name":"UCX_SM_Bld_Military_Tent_Damaged_02_47"},{"mesh":42,"name":"UCX_SM_Bld_Military_Tent_Damaged_02_48"},{"mesh":43,"name":"UCX_SM_Bld_Military_Tent_Damaged_02_49"},{"mesh":44,"name":"UCX_SM_Bld_Military_Tent_Damaged_02_5"},{"mesh":45,"name":"UCX_SM_Bld_Military_Tent_Damaged_02_50"},{"mesh":46,"name":"UCX_SM_Bld_Military_Tent_Damaged_02_51"},{"mesh":47,"name":"UCX_SM_Bld_Military_Tent_Damaged_02_52"},{"mesh":48,"name":"UCX_SM_Bld_Military_Tent_Damaged_02_53"},{"mesh":49,"name":"UCX_SM_Bld_Military_Tent_Damaged_02_54"},{"mesh":50,"name":"UCX_SM_Bld_Military_Tent_Damaged_02_6"},{"mesh":51,"name":"UCX_SM_Bld_Military_Tent_Damaged_02_7"},{"mesh":52,"name":"UCX_SM_Bld_Military_Tent_Damaged_02_8"},{"mesh":53,"name":"UCX_SM_Bld_Military_Tent_Damaged_02_9"},{"children":[0,1,2,3,4,5,6,7,8,9,10,11,12,13,14,15,16,17,18,19,20,21,22,23,24,25,26,27,28,29,30,31,32,33,34,35,36,37,38,39,40,41,42,43,44,45,46,47,48,49,50,51,52,53],"mesh":54,"name":"SM_Bld_Military_Tent_Damaged_02","rotation":[0.7071068286895752,0,0,0.7071068286895752],"scale":[0.009999999776482582,0.009999999776482582,0.009999999776482582]}],"materials":[{"alphaMode":"MASK","doubleSided":true,"name":"lambert3","pbrMetallicRoughness":{"baseColorFactor":[1,1,1,0.29323261976242065],"baseColorTexture":{"index":0},"metallicFactor":0,"roughnessFactor":0.5527864098548889},"alphaCutoff":0.5},{"doubleSided":true,"name":"lambert108","pbrMetallicRoughness":{"baseColorTexture":{"index":1},"metallicFactor":0,"roughnessFactor":0.5527864098548889}}],"meshes":[{"name":"Mesh.001","primitives":[{"attributes":{"POSITION":0,"NORMAL":1,"TEXCOORD_0":2},"indices":3,"material":0}]},{"name":"Mesh.010","primitives":[{"attributes":{"POSITION":4,"NORMAL":5,"TEXCOORD_0":6},"indices":7,"material":0}]},{"name":"Mesh.011","primitives":[{"attributes":{"POSITION":8,"NORMAL":9,"TEXCOORD_0":10},"indices":11,"material":0}]},{"name":"Mesh.012","primitives":[{"attributes":{"POSITION":12,"NORMAL":13,"TEXCOORD_0":14},"indices":15,"material":0}]},{"name":"Mesh.013","primitives":[{"attributes":{"POSITION":16,"NORMAL":17,"TEXCOORD_0":18},"indices":15,"material":0}]},{"name":"Mesh.014","primitives":[{"attributes":{"POSITION":19,"NORMAL":20,"TEXCOORD_0":21},"indices":22,"material":0}]},{"name":"Mesh.015","primitives":[{"attributes":{"POSITION":23,"NORMAL":24,"TEXCOORD_0":25},"indices":26,"material":0}]},{"name":"Mesh.016","primitives":[{"attributes":{"POSITION":27,"NORMAL":28,"TEXCOORD_0":29},"indices":30,"material":0}]},{"name":"Mesh.017","primitives":[{"attributes":{"POSITION":31,"NORMAL":32,"TEXCOORD_0":33},"indices":34,"material":0}]},{"name":"Mesh.018","primitives":[{"attributes":{"POSITION":35,"NORMAL":36,"TEXCOORD_0":37},"indices":38,"material":0}]},{"name":"Mesh.019","primitives":[{"attributes":{"POSITION":39,"NORMAL":40,"TEXCOORD_0":41},"indices":38,"material":0}]},{"name":"Mesh.002","primitives":[{"attributes":{"POSITION":42,"NORMAL":43,"TEXCOORD_0":44},"indices":45,"material":0}]},{"name":"Mesh.020","primitives":[{"attributes":{"POSITION":46,"NORMAL":47,"TEXCOORD_0":48},"indices":38,"material":0}]},{"name":"Mesh.021","primitives":[{"attributes":{"POSITION":49,"NORMAL":50,"TEXCOORD_0":51},"indices":38,"material":0}]},{"name":"Mesh.022","primitives":[{"attributes":{"POSITION":52,"NORMAL":53,"TEXCOORD_0":54},"indices":22,"material":0}]},{"name":"Mesh.023","primitives":[{"attributes":{"POSITION":55,"NORMAL":56,"TEXCOORD_0":57},"indices":38,"material":0}]},{"name":"Mesh.024","primitives":[{"attributes":{"POSITION":58,"NORMAL":59,"TEXCOORD_0":60},"indices":38,"material":0}]},{"name":"Mesh.025","primitives":[{"attributes":{"POSITION":61,"NORMAL":62,"TEXCOORD_0":63},"indices":64,"material":0}]},{"name":"Mesh.026","primitives":[{"attributes":{"POSITION":65,"NORMAL":66,"TEXCOORD_0":67},"indices":68,"material":0}]},{"name":"Mesh.027","primitives":[{"attributes":{"POSITION":69,"NORMAL":70,"TEXCOORD_0":71},"indices":72,"material":0}]},{"name":"Mesh.028","primitives":[{"attributes":{"POSITION":73,"NORMAL":74,"TEXCOORD_0":75},"indices":72,"material":0}]},{"name":"Mesh.029","primitives":[{"attributes":{"POSITION":76,"NORMAL":77,"TEXCOORD_0":78},"indices":79,"material":0}]},{"name":"Mesh.003","primitives":[{"attributes":{"POSITION":80,"NORMAL":81,"TEXCOORD_0":82},"indices":45,"material":0}]},{"name":"Mesh.030","primitives":[{"attributes":{"POSITION":83,"NORMAL":84,"TEXCOORD_0":85},"indices":72,"material":0}]},{"name":"Mesh.031","primitives":[{"attributes":{"POSITION":86,"NORMAL":87,"TEXCOORD_0":88},"indices":89,"material":0}]},{"name":"Mesh.032","primitives":[{"attributes":{"POSITION":90,"NORMAL":91,"TEXCOORD_0":92},"indices":93,"material":0}]},{"name":"Mesh.033","primitives":[{"attributes":{"POSITION":94,"NORMAL":95,"TEXCOORD_0":96},"indices":97,"material":0}]},{"name":"Mesh.034","primitives":[{"attributes":{"POSITION":98,"NORMAL":99,"TEXCOORD_0":100},"indices":101,"material":0}]},{"name":"Mesh.035","primitives":[{"attributes":{"POSITION":102,"NORMAL":103,"TEXCOORD_0":104},"indices":68,"material":0}]},{"name":"Mesh.036","primitives":[{"attributes":{"POSITION":105,"NORMAL":106,"TEXCOORD_0":107},"indices":68,"material":0}]},{"name":"Mesh.037","primitives":[{"attributes":{"POSITION":108,"NORMAL":109,"TEXCOORD_0":110},"indices":111,"material":0}]},{"name":"Mesh.038","primitives":[{"attributes":{"POSITION":112,"NORMAL":113,"TEXCOORD_0":114},"indices":115,"material":0}]},{"name":"Mesh.039","primitives":[{"attributes":{"POSITION":116,"NORMAL":117,"TEXCOORD_0":118},"indices":119,"material":0}]},{"name":"Mesh.004","primitives":[{"attributes":{"POSITION":120,"NORMAL":121,"TEXCOORD_0":122},"indices":45,"material":0}]},{"name":"Mesh.040","primitives":[{"attributes":{"POSITION":123,"NORMAL":124,"TEXCOORD_0":125},"indices":126,"material":0}]},{"name":"Mesh.041","primitives":[{"attributes":{"POSITION":127,"NORMAL":128,"TEXCOORD_0":129},"indices":111,"material":0}]},{"name":"Mesh.042","primitives":[{"attributes":{"POSITION":130,"NORMAL":131,"TEXCOORD_0":132},"indices":133,"material":0}]},{"name":"Mesh.043","primitives":[{"attributes":{"POSITION":134,"NORMAL":135,"TEXCOORD_0":136},"indices":137,"material":0}]},{"name":"Mesh.044","primitives":[{"attributes":{"POSITION":138,"NORMAL":139,"TEXCOORD_0":140},"indices":111,"material":0}]},{"name":"Mesh.045","primitives":[{"attributes":{"POSITION":141,"NORMAL":142,"TEXCOORD_0":143},"indices":144,"material":0}]},{"name":"Mesh.046","primitives":[{"attributes":{"POSITION":145,"NORMAL":146,"TEXCOORD_0":147},"indices":97,"material":0}]},{"name":"Mesh.047","primitives":[{"attributes":{"POSITION":148,"NORMAL":149,"TEXCOORD_0":150},"indices":89,"material":0}]},{"name":"Mesh.048","primitives":[{"attributes":{"POSITION":151,"NORMAL":152,"TEXCOORD_0":153},"indices":97,"material":0}]},{"name":"Mesh.049","primitives":[{"attributes":{"POSITION":154,"NORMAL":155,"TEXCOORD_0":156},"indices":157,"material":0}]},{"name":"Mesh.005","primitives":[{"attributes":{"POSITION":158,"NORMAL":159,"TEXCOORD_0":160},"indices":3,"material":0}]},{"name":"Mesh.050","primitives":[{"attributes":{"POSITION":161,"NORMAL":162,"TEXCOORD_0":163},"indices":164,"material":0}]},{"name":"Mesh.051","primitives":[{"attributes":{"POSITION":165,"NORMAL":166,"TEXCOORD_0":167},"indices":168,"material":0}]},{"name":"Mesh.052","primitives":[{"attributes":{"POSITION":169,"NORMAL":170,"TEXCOORD_0":171},"indices":168,"material":0}]},{"name":"Mesh.053","primitives":[{"attributes":{"POSITION":172,"NORMAL":173,"TEXCOORD_0":174},"indices":15,"material":0}]},{"name":"Mesh.054","primitives":[{"attributes":{"POSITION":175,"NORMAL":176,"TEXCOORD_0":177},"indices":178,"material":0}]},{"name":"Mesh.006","primitives":[{"attributes":{"POSITION":179,"NORMAL":180,"TEXCOORD_0":181},"indices":3,"material":0}]},{"name":"Mesh.007","primitives":[{"attributes":{"POSITION":182,"NORMAL":183,"TEXCOORD_0":184},"indices":137,"material":0}]},{"name":"Mesh.008","primitives":[{"attributes":{"POSITION":185,"NORMAL":186,"TEXCOORD_0":187},"indices":188,"material":0}]},{"name":"Mesh.009","primitives":[{"attributes":{"POSITION":189,"NORMAL":190,"TEXCOORD_0":191},"indices":188,"material":0}]},{"name":"Mesh","primitives":[{"attributes":{"POSITION":192,"NORMAL":193,"TEXCOORD_0":194},"indices":195,"material":1}]}],"textures":[{"extensions":{"EXT_texture_webp":{"source":0}},"sampler":0},{"extensions":{"EXT_texture_webp":{"source":0}},"sampler":0}],"images":[{"mimeType":"image/webp","name":"PolygonApocalypse_Texture_01_A","uri":"PolygonApocalypse_Texture_01_A.webp"}],"accessors":[{"bufferView":0,"componentType":5126,"count":24,"max":[-345.2538757324219,303.4779968261719,2.569438934326172],"min":[-386.5709228515625,-1.39208984375,-180.98765563964844],"type":"VEC3"},{"bufferView":1,"componentType":5126,"count":24,"type":"VEC3"},{"bufferView":2,"componentType":5126,"count":24,"type":"VEC2"},{"bufferView":3,"componentType":5123,"count":36,"type":"SCALAR"},{"bufferView":4,"componentType":5126,"count":24,"max":[-185.2973175048828,449.540771484375,8.647594451904297],"min":[-203.93222045898438,301.6726379394531,-171.78480529785156],"type":"VEC3"},{"bufferView":5,"componentType":5126,"count":24,"type":"VEC3"},{"bufferView":6,"componentType":5126,"count":24,"type":"VEC2"},{"bufferView":7,"componentType":5123,"count":36,"type":"SCALAR"},{"bufferView":8,"componentType":5126,"count":24,"max":[-361.9712219238281,434.2110595703125,7.948299407958984],"min":[-425.89190673828125,296.93389892578125,-172.48410034179688],"type":"VEC3"},{"bufferView":9,"componentType":5126,"count":24,"type":"VEC3"},{"bufferView":10,"componentType":5126,"count":24,"type":"VEC2"},{"bufferView":11,"componentType":5123,"count":36,"type":"SCALAR"},{"bufferView":12,"componentType":5126,"count":24,"max":[-361.163818359375,-296.9765625,7.9895477294921875],"min":[-427.09417724609375,-433.86639404296875,-172.44284057617188],"type":"VEC3"},{"bufferView":13,"componentType":5126,"count":24,"type":"VEC3"},{"bufferView":14,"componentType":5126,"count":24,"type":"VEC2"},{"bufferView":15,"componentType":5123,"count":36,"type":"SCALAR"},{"bufferView":16,"componentType":5126,"count":24,"max":[-4.26861572265625,-302.76556396484375,7.8397674560546875],"min":[-9.621368408203125,-450.89215087890625,-172.70130920410156],"type":"VEC3"},{"bufferView":17,"componentType":5126,"count":24,"type":"VEC3"},{"bufferView":18,"componentType":5126,"count":24,"type":"VEC2"},{"bufferView":19,"componentType":5126,"count":24,"max":[190.7809600830078,-301.9813537597656,8.047462463378906],"min":[173.24658203125,-450.0923767089844,-172.248291015625],"type":"VEC3"},{"bufferView":20,"componentType":5126,"count":24,"type":"VEC3"},{"bufferView":21,"componentType":5126,"count":24,"type":"VEC2"},{"bufferView":22,"componentType":5123,"count":36,"type":"SCALAR"},{"bufferView":23,"componentType":5126,"count":24,"max":[425.97723388671875,-289.7870178222656,8.071613311767578],"min":[354.6080017089844,-431.4088439941406,-166.49826049804688],"type":"VEC3"},{"bufferView":24,"componentType":5126,"count":24,"type":"VEC3"},{"bufferView":25,"componentType":5126,"count":24,"type":"VEC2"},{"bufferView":26,"componentType":5123,"count":36,"type":"SCALAR"},{"bufferView":27,"componentType":5126,"count":24,"max":[373.511962890625,303.59417724609375,4.765953063964844],"min":[352.7173767089844,270.95892333984375,-179.76499938964844],"type":"VEC3"},{"bufferView":28,"componentType":5126,"count":24,"type":"VEC3"},{"bufferView":29,"componentType":5126,"count":24,"type":"VEC2"},{"bufferView":30,"componentType":5123,"count":36,"type":"SCALAR"},{"bufferView":31,"componentType":5126,"count":24,"max":[185.56124877929688,306.9746398925781,7.180503845214844],"min":[169.80087280273438,241.88848876953125,-174.6011505126953],"type":"VEC3"},{"bufferView":32,"componentType":5126,"count":24,"type":"VEC3"},{"bufferView":33,"componentType":5126,"count":24,"type":"VEC2"},{"bufferView":34,"componentType":5123,"count":36,"type":"SCALAR"},{"bufferView":35,"componentType":5126,"count":24,"max":[1.649810791015625,308.21929931640625,3.4246063232421875],"min":[-14.11053466796875,289.9521179199219,-179.87493896484375],"type":"VEC3"},{"bufferView":36,"componentType":5126,"count":24,"type":"VEC3"},{"bufferView":37,"componentType":5126,"count":24,"type":"VEC2"},{"bufferView":38,"componentType":5123,"count":36,"type":"SCALAR"},{"bufferView":39,"componentType":5126,"count":24,"max":[-178.45091247558594,308.21929931640625,3.4246063232421875],"min":[-194.2112579345703,289.95208740234375,-179.87493896484375],"type":"VEC3"},{"bufferView":40,"componentType":5126,"count":24,"type":"VEC3"},{"bufferView":41,"componentType":5126,"count":24,"type":"VEC2"},{"bufferView":42,"componentType":5126,"count":24,"max":[-345.03399658203125,2.233917236328125,2.569438934326172],"min":[-386.37347412109375,-310.48974609375,-178.94964599609375],"type":"VEC3"},{"bufferView":43,"componentType":5126,"count":24,"type":"VEC3"},{"bufferView":44,"componentType":5126,"count":24,"type":"VEC2"},{"bufferView":45,"componentType":5123,"count":36,"type":"SCALAR"},{"bufferView":46,"componentType":5126,"count":24,"max":[-357.0200500488281,307.9084167480469,3.4246063232421875],"min":[-372.7803955078125,289.6412048339844,-179.87493896484375],"type":"VEC3"},{"bufferView":47,"componentType":5126,"count":24,"type":"VEC3"},{"bufferView":48,"componentType":5126,"count":24,"type":"VEC2"},{"bufferView":49,"componentType":5126,"count":24,"max":[-356.81939697265625,-293.7184143066406,3.4246063232421875],"min":[-372.5797424316406,-311.985595703125,-179.87493896484375],"type":"VEC3"},{"bufferView":50,"componentType":5126,"count":24,"type":"VEC3"},{"bufferView":51,"componentType":5126,"count":24,"type":"VEC2"},{"bufferView":52,"componentType":5126,"count":24,"max":[-176.95156860351562,-226.67108154296875,7.511341094970703],"min":[-202.8402557373047,-312.2903137207031,-169.89718627929688],"type":"VEC3"},{"bufferView":53,"componentType":5126,"count":24,"type":"VEC3"},{"bufferView":54,"componentType":5126,"count":24,"type":"VEC2"},{"bufferView":55,"componentType":5126,"count":24,"max":[1.8504638671875,-293.6126403808594,3.4246063232421875],"min":[-13.909881591796875,-311.87982177734375,-179.87493896484375],"type":"VEC3"},{"bufferView":56,"componentType":5126,"count":24,"type":"VEC3"},{"bufferView":57,"componentType":5126,"count":24,"type":"VEC2"},{"bufferView":58,"componentType":5126,"count":24,"max":[185.7618865966797,-293.61260986328125,3.4246063232421875],"min":[170.0015411376953,-311.87982177734375,-179.87493896484375],"type":"VEC3"},{"bufferView":59,"componentType":5126,"count":24,"type":"VEC3"},{"bufferView":60,"componentType":5126,"count":24,"type":"VEC2"},{"bufferView":61,"componentType":5126,"count":24,"max":[373.3611755371094,-283.13128662109375,4.585472106933594],"min":[349.6104736328125,-306.1497497558594,-179.63868713378906],"type":"VEC3"},{"bufferView":62,"componentType":5126,"count":24,"type":"VEC3"},{"bufferView":63,"componentType":5126,"count":24,"type":"VEC2"},{"bufferView":64,"componentType":5123,"count":36,"type":"SCALAR"},{"bufferView":65,"componentType":5126,"count":24,"max":[352.4421691894531,139.46377563476562,-37.203948974609375],"min":[137.14547729492188,-6.76544189453125,-127.58674621582031],"type":"VEC3"},{"bufferView":66,"componentType":5126,"count":24,"type":"VEC3"},{"bufferView":67,"componentType":5126,"count":24,"type":"VEC2"},{"bufferView":68,"componentType":5123,"count":36,"type":"SCALAR"},{"bufferView":69,"componentType":5126,"count":24,"max":[341.4737548828125,9.222450256347656,-36.371620178222656],"min":[139.09603881835938,-150.8121337890625,-132.6321258544922],"type":"VEC3"},{"bufferView":70,"componentType":5126,"count":24,"type":"VEC3"},{"bufferView":71,"componentType":5126,"count":24,"type":"VEC2"},{"bufferView":72,"componentType":5123,"count":36,"type":"SCALAR"},{"bufferView":73,"componentType":5126,"count":24,"max":[354.91839599609375,-140.6637725830078,-84.9071044921875],"min":[140.76966857910156,-293.38922119140625,-201.0062255859375],"type":"VEC3"},{"bufferView":74,"componentType":5126,"count":24,"type":"VEC3"},{"bufferView":75,"componentType":5126,"count":24,"type":"VEC2"},{"bufferView":76,"componentType":5126,"count":24,"max":[164.22451782226562,-136.22927856445312,-125.05335998535156],"min":[-16.923370361328125,-274.35772705078125,-198.60842895507812],"type":"VEC3"},{"bufferView":77,"componentType":5126,"count":24,"type":"VEC3"},{"bufferView":78,"componentType":5126,"count":24,"type":"VEC2"},{"bufferView":79,"componentType":5123,"count":36,"type":"SCALAR"},{"bufferView":80,"componentType":5126,"count":24,"max":[-345.03399658203125,2.233917236328125,-176.97442626953125],"min":[-386.37347412109375,-310.48974609375,-261.1401672363281],"type":"VEC3"},{"bufferView":81,"componentType":5126,"count":24,"type":"VEC3"},{"bufferView":82,"componentType":5126,"count":24,"type":"VEC2"},{"bufferView":83,"componentType":5126,"count":24,"max":[167.77125549316406,8.969528198242188,-82.56893920898438],"min":[-61.97784423828125,-153.14210510253906,-194.07733154296875],"type":"VEC3"},{"bufferView":84,"componentType":5126,"count":24,"type":"VEC3"},{"bufferView":85,"componentType":5126,"count":24,"type":"VEC2"},{"bufferView":86,"componentType":5126,"count":24,"max":[151.68898010253906,278.2277526855469,-84.72779846191406],"min":[-17.645469665527344,-22.08917236328125,-198.19313049316406],"type":"VEC3"},{"bufferView":87,"componentType":5126,"count":24,"type":"VEC3"},{"bufferView":88,"componentType":5126,"count":24,"type":"VEC2"},{"bufferView":89,"componentType":5123,"count":36,"type":"SCALAR"},{"bufferView":90,"componentType":5126,"count":24,"max":[175.10690307617188,293.7353515625,-104.49345397949219],"min":[-2.56048583984375,71.07421112060547,-204.54698181152344],"type":"VEC3"},{"bufferView":91,"componentType":5126,"count":24,"type":"VEC3"},{"bufferView":92,"componentType":5126,"count":24,"type":"VEC2"},{"bufferView":93,"componentType":5123,"count":36,"type":"SCALAR"},{"bufferView":94,"componentType":5126,"count":24,"max":[1.459197998046875,287.28973388671875,-166.11671447753906],"min":[-91.91546630859375,116.57646179199219,-197.5146942138672],"type":"VEC3"},{"bufferView":95,"componentType":5126,"count":24,"type":"VEC3"},{"bufferView":96,"componentType":5126,"count":24,"type":"VEC2"},{"bufferView":97,"componentType":5123,"count":36,"type":"SCALAR"},{"bufferView":98,"componentType":5126,"count":24,"max":[-165.25648498535156,295.99664306640625,-180.71412658691406],"min":[-376.87969970703125,145.48699951171875,-250.40411376953125],"type":"VEC3"},{"bufferView":99,"componentType":5126,"count":24,"type":"VEC3"},{"bufferView":100,"componentType":5126,"count":24,"type":"VEC2"},{"bufferView":101,"componentType":5123,"count":36,"type":"SCALAR"},{"bufferView":102,"componentType":5126,"count":24,"max":[-175.17800903320312,137.34033203125,-199.54173278808594],"min":[-374.2149353027344,-3.1329803466796875,-358.1884765625],"type":"VEC3"},{"bufferView":103,"componentType":5126,"count":24,"type":"VEC3"},{"bufferView":104,"componentType":5126,"count":24,"type":"VEC2"},{"bufferView":105,"componentType":5126,"count":24,"max":[-4.524101257324219,141.96620178222656,-151.87489318847656],"min":[-208.65029907226562,-22.481401443481445,-239.29022216796875],"type":"VEC3"},{"bufferView":106,"componentType":5126,"count":24,"type":"VEC3"},{"bufferView":107,"componentType":5126,"count":24,"type":"VEC2"},{"bufferView":108,"componentType":5126,"count":24,"max":[42.38667297363281,-8.617874145507812,-136.0229949951172],"min":[-194.52908325195312,-183.73037719726562,-237.36434936523438],"type":"VEC3"},{"bufferView":109,"componentType":5126,"count":24,"type":"VEC3"},{"bufferView":110,"componentType":5126,"count":24,"type":"VEC2"},{"bufferView":111,"componentType":5123,"count":36,"type":"SCALAR"},{"bufferView":112,"componentType":5126,"count":24,"max":[3.1150360107421875,-133.7252655029297,-173.5469512939453],"min":[-234.06143188476562,-287.47918701171875,-220.11184692382812],"type":"VEC3"},{"bufferView":113,"componentType":5126,"count":24,"type":"VEC3"},{"bufferView":114,"componentType":5126,"count":24,"type":"VEC2"},{"bufferView":115,"componentType":5123,"count":36,"type":"SCALAR"},{"bufferView":116,"componentType":5126,"count":24,"max":[-193.94390869140625,-137.62530517578125,-161.47364807128906],"min":[-380.500244140625,-303.6779479980469,-261.1144714355469],"type":"VEC3"},{"bufferView":117,"componentType":5126,"count":24,"type":"VEC3"},{"bufferView":118,"componentType":5126,"count":24,"type":"VEC2"},{"bufferView":119,"componentType":5123,"count":36,"type":"SCALAR"},{"bufferView":120,"componentType":5126,"count":24,"max":[-345.03399658203125,2.233978271484375,-261.1401672363281],"min":[-386.37347412109375,-146.30555725097656,-357.8984680175781],"type":"VEC3"},{"bufferView":121,"componentType":5126,"count":24,"type":"VEC3"},{"bufferView":122,"componentType":5126,"count":24,"type":"VEC2"},{"bufferView":123,"componentType":5126,"count":24,"max":[-169.75086975097656,139.39305114746094,-207.95074462890625],"min":[-316.52703857421875,-27.346267700195312,-351.546142578125],"type":"VEC3"},{"bufferView":124,"componentType":5126,"count":24,"type":"VEC3"},{"bufferView":125,"componentType":5126,"count":24,"type":"VEC2"},{"bufferView":126,"componentType":5123,"count":36,"type":"SCALAR"},{"bufferView":127,"componentType":5126,"count":24,"max":[-117.62454223632812,-6.382354736328125,-177.19052124023438],"min":[-380.2483215332031,-168.67822265625,-286.8502502441406],"type":"VEC3"},{"bufferView":128,"componentType":5126,"count":24,"type":"VEC3"},{"bufferView":129,"componentType":5126,"count":24,"type":"VEC2"},{"bufferView":130,"componentType":5126,"count":24,"max":[-251.97479248046875,21.100372314453125,-266.4482116699219],"min":[-375.1910400390625,-142.14405822753906,-368.8235168457031],"type":"VEC3"},{"bufferView":131,"componentType":5126,"count":24,"type":"VEC3"},{"bufferView":132,"componentType":5126,"count":24,"type":"VEC2"},{"bufferView":133,"componentType":5123,"count":36,"type":"SCALAR"},{"bufferView":134,"componentType":5126,"count":24,"max":[-149.7603759765625,263.13983154296875,-191.37620544433594],"min":[-364.58648681640625,118.33364868164062,-255.40203857421875],"type":"VEC3"},{"bufferView":135,"componentType":5126,"count":24,"type":"VEC3"},{"bufferView":136,"componentType":5126,"count":24,"type":"VEC2"},{"bufferView":137,"componentType":5123,"count":36,"type":"SCALAR"},{"bufferView":138,"componentType":5126,"count":24,"max":[-100.72894287109375,-6.2039337158203125,-177.86293029785156],"min":[-241.056396484375,-171.94024658203125,-275.84942626953125],"type":"VEC3"},{"bufferView":139,"componentType":5126,"count":24,"type":"VEC3"},{"bufferView":140,"componentType":5126,"count":24,"type":"VEC2"},{"bufferView":141,"componentType":5126,"count":24,"max":[157.74105834960938,-232.9349365234375,-179.83993530273438],"min":[-25.20794677734375,-301.3443908691406,-196.5491485595703],"type":"VEC3"},{"bufferView":142,"componentType":5126,"count":24,"type":"VEC3"},{"bufferView":143,"componentType":5126,"count":24,"type":"VEC2"},{"bufferView":144,"componentType":5123,"count":36,"type":"SCALAR"},{"bufferView":145,"componentType":5126,"count":24,"max":[46.22151184082031,-137.13497924804688,-148.73040771484375],"min":[-168.3275146484375,-256.59759521484375,-222.07339477539062],"type":"VEC3"},{"bufferView":146,"componentType":5126,"count":24,"type":"VEC3"},{"bufferView":147,"componentType":5126,"count":24,"type":"VEC2"},{"bufferView":148,"componentType":5126,"count":24,"max":[-76.3841552734375,298.863525390625,-184.9880828857422],"min":[-175.91110229492188,139.1797637939453,-213.4056854248047],"type":"VEC3"},{"bufferView":149,"componentType":5126,"count":24,"type":"VEC3"},{"bufferView":150,"componentType":5126,"count":24,"type":"VEC2"},{"bufferView":151,"componentType":5126,"count":24,"max":[-47.171295166015625,275.9511413574219,-179.60195922851562],"min":[-160.80776977539062,91.11544799804688,-213.10777282714844],"type":"VEC3"},{"bufferView":152,"componentType":5126,"count":24,"type":"VEC3"},{"bufferView":153,"componentType":5126,"count":24,"type":"VEC2"},{"bufferView":154,"componentType":5126,"count":24,"max":[353.8268127441406,-275.4278869628906,-160.9920196533203],"min":[-5.652374267578125,-320.2476806640625,-191.49237060546875],"type":"VEC3"},{"bufferView":155,"componentType":5126,"count":24,"type":"VEC3"},{"bufferView":156,"componentType":5126,"count":24,"type":"VEC2"},{"bufferView":157,"componentType":5123,"count":36,"type":"SCALAR"},{"bufferView":158,"componentType":5126,"count":24,"max":[-345.2538757324219,148.455322265625,-259.1114196777344],"min":[-386.5709228515625,-1.39215087890625,-357.8984680175781],"type":"VEC3"},{"bufferView":159,"componentType":5126,"count":24,"type":"VEC3"},{"bufferView":160,"componentType":5126,"count":24,"type":"VEC2"},{"bufferView":161,"componentType":5126,"count":24,"max":[18.1180419921875,-247.22607421875,-146.08047485351562],"min":[-207.129638671875,-323.2445068359375,-193.27203369140625],"type":"VEC3"},{"bufferView":162,"componentType":5126,"count":24,"type":"VEC3"},{"bufferView":163,"componentType":5126,"count":24,"type":"VEC2"},{"bufferView":164,"componentType":5123,"count":36,"type":"SCALAR"},{"bufferView":165,"componentType":5126,"count":24,"max":[-188.44491577148438,-244.59539794921875,-146.81594848632812],"min":[-383.182861328125,-323.4530944824219,-184.53494262695312],"type":"VEC3"},{"bufferView":166,"componentType":5126,"count":24,"type":"VEC3"},{"bufferView":167,"componentType":5126,"count":24,"type":"VEC2"},{"bufferView":168,"componentType":5123,"count":36,"type":"SCALAR"},{"bufferView":169,"componentType":5126,"count":24,"max":[368.8173522949219,297.39794921875,-146.3656768798828],"min":[161.90293884277344,226.40768432617188,-182.62008666992188],"type":"VEC3"},{"bufferView":170,"componentType":5126,"count":24,"type":"VEC3"},{"bufferView":171,"componentType":5126,"count":24,"type":"VEC2"},{"bufferView":172,"componentType":5126,"count":24,"max":[181.7460479736328,319.78936767578125,-155.76966857910156],"min":[-24.10369873046875,232.36618041992188,-191.1636962890625],"type":"VEC3"},{"bufferView":173,"componentType":5126,"count":24,"type":"VEC3"},{"bufferView":174,"componentType":5126,"count":24,"type":"VEC2"},{"bufferView":175,"componentType":5126,"count":24,"max":[-10.83563232421875,317.834716796875,-163.34234619140625],"min":[-376.86712646484375,277.3347473144531,-192.85360717773438],"type":"VEC3"},{"bufferView":176,"componentType":5126,"count":24,"type":"VEC3"},{"bufferView":177,"componentType":5126,"count":24,"type":"VEC2"},{"bufferView":178,"componentType":5123,"count":36,"type":"SCALAR"},{"bufferView":179,"componentType":5126,"count":24,"max":[-345.2538757324219,303.4779968261719,-179.0124053955078],"min":[-386.5709228515625,-1.39208984375,-259.11138916015625],"type":"VEC3"},{"bufferView":180,"componentType":5126,"count":24,"type":"VEC3"},{"bufferView":181,"componentType":5126,"count":24,"type":"VEC2"},{"bufferView":182,"componentType":5126,"count":24,"max":[373.673095703125,297.1278076171875,-85.70787048339844],"min":[131.6099395751953,122.61886596679688,-183.28982543945312],"type":"VEC3"},{"bufferView":183,"componentType":5126,"count":24,"type":"VEC3"},{"bufferView":184,"componentType":5126,"count":24,"type":"VEC2"},{"bufferView":185,"componentType":5126,"count":24,"max":[427.10772705078125,430.75946044921875,8.459144592285156],"min":[357.0523681640625,280.9728088378906,-160.1786346435547],"type":"VEC3"},{"bufferView":186,"componentType":5126,"count":24,"type":"VEC3"},{"bufferView":187,"componentType":5126,"count":24,"type":"VEC2"},{"bufferView":188,"componentType":5123,"count":36,"type":"SCALAR"},{"bufferView":189,"componentType":5126,"count":24,"max":[-3.8935546875,450.8853759765625,8.07425308227539],"min":[-9.4056396484375,302.0912780761719,-172.358154296875],"type":"VEC3"},{"bufferView":190,"componentType":5126,"count":24,"type":"VEC3"},{"bufferView":191,"componentType":5126,"count":24,"type":"VEC2"},{"bufferView":192,"componentType":5126,"count":2865,"max":[425.65545654296875,450.0358581542969,6.597690582275391],"min":[-425.65545654296875,-450.035888671875,-380.36309814453125],"type":"VEC3"},{"bufferView":193,"componentType":5126,"count":2865,"type":"VEC3"},{"bufferView":194,"componentType":5126,"count":2865,"type":"VEC2"},{"bufferView":195,"componentType":5123,"count":4236,"type":"SCALAR"}],"bufferViews":[{"buffer":0,"byteLength":288,"byteOffset":0,"target":34962},{"buffer":0,"byteLength":288,"byteOffset":288,"target":34962},{"buffer":0,"byteLength":192,"byteOffset":576,"target":34962},{"buffer":0,"byteLength":72,"byteOffset":768,"target":34963},{"buffer":0,"byteLength":288,"byteOffset":840,"target":34962},{"buffer":0,"byteLength":288,"byteOffset":1128,"target":34962},{"buffer":0,"byteLength":192,"byteOffset":1416,"target":34962},{"buffer":0,"byteLength":72,"byteOffset":1608,"target":34963},{"buffer":0,"byteLength":288,"byteOffset":1680,"target":34962},{"buffer":0,"byteLength":288,"byteOffset":1968,"target":34962},{"buffer":0,"byteLength":192,"byteOffset":2256,"target":34962},{"buffer":0,"byteLength":72,"byteOffset":2448,"target":34963},{"buffer":0,"byteLength":288,"byteOffset":2520,"target":34962},{"buffer":0,"byteLength":288,"byteOffset":2808,"target":34962},{"buffer":0,"byteLength":192,"byteOffset":3096,"target":34962},{"buffer":0,"byteLength":72,"byteOffset":3288,"target":34963},{"buffer":0,"byteLength":288,"byteOffset":3360,"target":34962},{"buffer":0,"byteLength":288,"byteOffset":3648,"target":34962},{"buffer":0,"byteLength":192,"byteOffset":3936,"target":34962},{"buffer":0,"byteLength":288,"byteOffset":4128,"target":34962},{"buffer":0,"byteLength":288,"byteOffset":4416,"target":34962},{"buffer":0,"byteLength":192,"byteOffset":4704,"target":34962},{"buffer":0,"byteLength":72,"byteOffset":4896,"target":34963},{"buffer":0,"byteLength":288,"byteOffset":4968,"target":34962},{"buffer":0,"byteLength":288,"byteOffset":5256,"target":34962},{"buffer":0,"byteLength":192,"byteOffset":5544,"target":34962},{"buffer":0,"byteLength":72,"byteOffset":5736,"target":34963},{"buffer":0,"byteLength":288,"byteOffset":5808,"target":34962},{"buffer":0,"byteLength":288,"byteOffset":6096,"target":34962},{"buffer":0,"byteLength":192,"byteOffset":6384,"target":34962},{"buffer":0,"byteLength":72,"byteOffset":6576,"target":34963},{"buffer":0,"byteLength":288,"byteOffset":6648,"target":34962},{"buffer":0,"byteLength":288,"byteOffset":6936,"target":34962},{"buffer":0,"byteLength":192,"byteOffset":7224,"target":34962},{"buffer":0,"byteLength":72,"byteOffset":7416,"target":34963},{"buffer":0,"byteLength":288,"byteOffset":7488,"target":34962},{"buffer":0,"byteLength":288,"byteOffset":7776,"target":34962},{"buffer":0,"byteLength":192,"byteOffset":8064,"target":34962},{"buffer":0,"byteLength":72,"byteOffset":8256,"target":34963},{"buffer":0,"byteLength":288,"byteOffset":8328,"target":34962},{"buffer":0,"byteLength":288,"byteOffset":8616,"target":34962},{"buffer":0,"byteLength":192,"byteOffset":8904,"target":34962},{"buffer":0,"byteLength":288,"byteOffset":9096,"target":34962},{"buffer":0,"byteLength":288,"byteOffset":9384,"target":34962},{"buffer":0,"byteLength":192,"byteOffset":9672,"target":34962},{"buffer":0,"byteLength":72,"byteOffset":9864,"target":34963},{"buffer":0,"byteLength":288,"byteOffset":9936,"target":34962},{"buffer":0,"byteLength":288,"byteOffset":10224,"target":34962},{"buffer":0,"byteLength":192,"byteOffset":10512,"target":34962},{"buffer":0,"byteLength":288,"byteOffset":10704,"target":34962},{"buffer":0,"byteLength":288,"byteOffset":10992,"target":34962},{"buffer":0,"byteLength":192,"byteOffset":11280,"target":34962},{"buffer":0,"byteLength":288,"byteOffset":11472,"target":34962},{"buffer":0,"byteLength":288,"byteOffset":11760,"target":34962},{"buffer":0,"byteLength":192,"byteOffset":12048,"target":34962},{"buffer":0,"byteLength":288,"byteOffset":12240,"target":34962},{"buffer":0,"byteLength":288,"byteOffset":12528,"target":34962},{"buffer":0,"byteLength":192,"byteOffset":12816,"target":34962},{"buffer":0,"byteLength":288,"byteOffset":13008,"target":34962},{"buffer":0,"byteLength":288,"byteOffset":13296,"target":34962},{"buffer":0,"byteLength":192,"byteOffset":13584,"target":34962},{"buffer":0,"byteLength":288,"byteOffset":13776,"target":34962},{"buffer":0,"byteLength":288,"byteOffset":14064,"target":34962},{"buffer":0,"byteLength":192,"byteOffset":14352,"target":34962},{"buffer":0,"byteLength":72,"byteOffset":14544,"target":34963},{"buffer":0,"byteLength":288,"byteOffset":14616,"target":34962},{"buffer":0,"byteLength":288,"byteOffset":14904,"target":34962},{"buffer":0,"byteLength":192,"byteOffset":15192,"target":34962},{"buffer":0,"byteLength":72,"byteOffset":15384,"target":34963},{"buffer":0,"byteLength":288,"byteOffset":15456,"target":34962},{"buffer":0,"byteLength":288,"byteOffset":15744,"target":34962},{"buffer":0,"byteLength":192,"byteOffset":16032,"target":34962},{"buffer":0,"byteLength":72,"byteOffset":16224,"target":34963},{"buffer":0,"byteLength":288,"byteOffset":16296,"target":34962},{"buffer":0,"byteLength":288,"byteOffset":16584,"target":34962},{"buffer":0,"byteLength":192,"byteOffset":16872,"target":34962},{"buffer":0,"byteLength":288,"byteOffset":17064,"target":34962},{"buffer":0,"byteLength":288,"byteOffset":17352,"target":34962},{"buffer":0,"byteLength":192,"byteOffset":17640,"target":34962},{"buffer":0,"byteLength":72,"byteOffset":17832,"target":34963},{"buffer":0,"byteLength":288,"byteOffset":17904,"target":34962},{"buffer":0,"byteLength":288,"byteOffset":18192,"target":34962},{"buffer":0,"byteLength":192,"byteOffset":18480,"target":34962},{"buffer":0,"byteLength":288,"byteOffset":18672,"target":34962},{"buffer":0,"byteLength":288,"byteOffset":18960,"target":34962},{"buffer":0,"byteLength":192,"byteOffset":19248,"target":34962},{"buffer":0,"byteLength":288,"byteOffset":19440,"target":34962},{"buffer":0,"byteLength":288,"byteOffset":19728,"target":34962},{"buffer":0,"byteLength":192,"byteOffset":20016,"target":34962},{"buffer":0,"byteLength":72,"byteOffset":20208,"target":34963},{"buffer":0,"byteLength":288,"byteOffset":20280,"target":34962},{"buffer":0,"byteLength":288,"byteOffset":20568,"target":34962},{"buffer":0,"byteLength":192,"byteOffset":20856,"target":34962},{"buffer":0,"byteLength":72,"byteOffset":21048,"target":34963},{"buffer":0,"byteLength":288,"byteOffset":21120,"target":34962},{"buffer":0,"byteLength":288,"byteOffset":21408,"target":34962},{"buffer":0,"byteLength":192,"byteOffset":21696,"target":34962},{"buffer":0,"byteLength":72,"byteOffset":21888,"target":34963},{"buffer":0,"byteLength":288,"byteOffset":21960,"target":34962},{"buffer":0,"byteLength":288,"byteOffset":22248,"target":34962},{"buffer":0,"byteLength":192,"byteOffset":22536,"target":34962},{"buffer":0,"byteLength":72,"byteOffset":22728,"target":34963},{"buffer":0,"byteLength":288,"byteOffset":22800,"target":34962},{"buffer":0,"byteLength":288,"byteOffset":23088,"target":34962},{"buffer":0,"byteLength":192,"byteOffset":23376,"target":34962},{"buffer":0,"byteLength":288,"byteOffset":23568,"target":34962},{"buffer":0,"byteLength":288,"byteOffset":23856,"target":34962},{"buffer":0,"byteLength":192,"byteOffset":24144,"target":34962},{"buffer":0,"byteLength":288,"byteOffset":24336,"target":34962},{"buffer":0,"byteLength":288,"byteOffset":24624,"target":34962},{"buffer":0,"byteLength":192,"byteOffset":24912,"target":34962},{"buffer":0,"byteLength":72,"byteOffset":25104,"target":34963},{"buffer":0,"byteLength":288,"byteOffset":25176,"target":34962},{"buffer":0,"byteLength":288,"byteOffset":25464,"target":34962},{"buffer":0,"byteLength":192,"byteOffset":25752,"target":34962},{"buffer":0,"byteLength":72,"byteOffset":25944,"target":34963},{"buffer":0,"byteLength":288,"byteOffset":26016,"target":34962},{"buffer":0,"byteLength":288,"byteOffset":26304,"target":34962},{"buffer":0,"byteLength":192,"byteOffset":26592,"target":34962},{"buffer":0,"byteLength":72,"byteOffset":26784,"target":34963},{"buffer":0,"byteLength":288,"byteOffset":26856,"target":34962},{"buffer":0,"byteLength":288,"byteOffset":27144,"target":34962},{"buffer":0,"byteLength":192,"byteOffset":27432,"target":34962},{"buffer":0,"byteLength":288,"byteOffset":27624,"target":34962},{"buffer":0,"byteLength":288,"byteOffset":27912,"target":34962},{"buffer":0,"byteLength":192,"byteOffset":28200,"target":34962},{"buffer":0,"byteLength":72,"byteOffset":28392,"target":34963},{"buffer":0,"byteLength":288,"byteOffset":28464,"target":34962},{"buffer":0,"byteLength":288,"byteOffset":28752,"target":34962},{"buffer":0,"byteLength":192,"byteOffset":29040,"target":34962},{"buffer":0,"byteLength":288,"byteOffset":29232,"target":34962},{"buffer":0,"byteLength":288,"byteOffset":29520,"target":34962},{"buffer":0,"byteLength":192,"byteOffset":29808,"target":34962},{"buffer":0,"byteLength":72,"byteOffset":30000,"target":34963},{"buffer":0,"byteLength":288,"byteOffset":30072,"target":34962},{"buffer":0,"byteLength":288,"byteOffset":30360,"target":34962},{"buffer":0,"byteLength":192,"byteOffset":30648,"target":34962},{"buffer":0,"byteLength":72,"byteOffset":30840,"target":34963},{"buffer":0,"byteLength":288,"byteOffset":30912,"target":34962},{"buffer":0,"byteLength":288,"byteOffset":31200,"target":34962},{"buffer":0,"byteLength":192,"byteOffset":31488,"target":34962},{"buffer":0,"byteLength":288,"byteOffset":31680,"target":34962},{"buffer":0,"byteLength":288,"byteOffset":31968,"target":34962},{"buffer":0,"byteLength":192,"byteOffset":32256,"target":34962},{"buffer":0,"byteLength":72,"byteOffset":32448,"target":34963},{"buffer":0,"byteLength":288,"byteOffset":32520,"target":34962},{"buffer":0,"byteLength":288,"byteOffset":32808,"target":34962},{"buffer":0,"byteLength":192,"byteOffset":33096,"target":34962},{"buffer":0,"byteLength":288,"byteOffset":33288,"target":34962},{"buffer":0,"byteLength":288,"byteOffset":33576,"target":34962},{"buffer":0,"byteLength":192,"byteOffset":33864,"target":34962},{"buffer":0,"byteLength":288,"byteOffset":34056,"target":34962},{"buffer":0,"byteLength":288,"byteOffset":34344,"target":34962},{"buffer":0,"byteLength":192,"byteOffset":34632,"target":34962},{"buffer":0,"byteLength":288,"byteOffset":34824,"target":34962},{"buffer":0,"byteLength":288,"byteOffset":35112,"target":34962},{"buffer":0,"byteLength":192,"byteOffset":35400,"target":34962},{"buffer":0,"byteLength":72,"byteOffset":35592,"target":34963},{"buffer":0,"byteLength":288,"byteOffset":35664,"target":34962},{"buffer":0,"byteLength":288,"byteOffset":35952,"target":34962},{"buffer":0,"byteLength":192,"byteOffset":36240,"target":34962},{"buffer":0,"byteLength":288,"byteOffset":36432,"target":34962},{"buffer":0,"byteLength":288,"byteOffset":36720,"target":34962},{"buffer":0,"byteLength":192,"byteOffset":37008,"target":34962},{"buffer":0,"byteLength":72,"byteOffset":37200,"target":34963},{"buffer":0,"byteLength":288,"byteOffset":37272,"target":34962},{"buffer":0,"byteLength":288,"byteOffset":37560,"target":34962},{"buffer":0,"byteLength":192,"byteOffset":37848,"target":34962},{"buffer":0,"byteLength":72,"byteOffset":38040,"target":34963},{"buffer":0,"byteLength":288,"byteOffset":38112,"target":34962},{"buffer":0,"byteLength":288,"byteOffset":38400,"target":34962},{"buffer":0,"byteLength":192,"byteOffset":38688,"target":34962},{"buffer":0,"byteLength":288,"byteOffset":38880,"target":34962},{"buffer":0,"byteLength":288,"byteOffset":39168,"target":34962},{"buffer":0,"byteLength":192,"byteOffset":39456,"target":34962},{"buffer":0,"byteLength":288,"byteOffset":39648,"target":34962},{"buffer":0,"byteLength":288,"byteOffset":39936,"target":34962},{"buffer":0,"byteLength":192,"byteOffset":40224,"target":34962},{"buffer":0,"byteLength":72,"byteOffset":40416,"target":34963},{"buffer":0,"byteLength":288,"byteOffset":40488,"target":34962},{"buffer":0,"byteLength":288,"byteOffset":40776,"target":34962},{"buffer":0,"byteLength":192,"byteOffset":41064,"target":34962},{"buffer":0,"byteLength":288,"byteOffset":41256,"target":34962},{"buffer":0,"byteLength":288,"byteOffset":41544,"target":34962},{"buffer":0,"byteLength":192,"byteOffset":41832,"target":34962},{"buffer":0,"byteLength":288,"byteOffset":42024,"target":34962},{"buffer":0,"byteLength":288,"byteOffset":42312,"target":34962},{"buffer":0,"byteLength":192,"byteOffset":42600,"target":34962},{"buffer":0,"byteLength":72,"byteOffset":42792,"target":34963},{"buffer":0,"byteLength":288,"byteOffset":42864,"target":34962},{"buffer":0,"byteLength":288,"byteOffset":43152,"target":34962},{"buffer":0,"byteLength":192,"byteOffset":43440,"target":34962},{"buffer":0,"byteLength":34380,"byteOffset":43632,"target":34962},{"buffer":0,"byteLength":34380,"byteOffset":78012,"target":34962},{"buffer":0,"byteLength":22920,"byteOffset":112392,"target":34962},{"buffer":0,"byteLength":8472,"byteOffset":135312,"target":34963}],"samplers":[{"magFilter":9729,"minFilter":9987}],"buffers":[{"byteLength":143784,"uri":"apoc_SM_Bld_Military_Tent_Damaged_02.bin"}]}