{
	"asset":{
		"generator":"Khronos glTF Blender I/O v4.4.55",
		"version":"2.0"
	},
	"extensionsUsed":[
		"EXT_texture_webp"
	],
	"extensionsRequired":[
		"EXT_texture_webp"
	],
	"scene":0,
	"scenes":[
		{
			"name":"Scene",
			"nodes":[
				0
			]
		}
	],
	"nodes":[
		{
			"mesh":0,
			"name":"SM_Prop_CarBattery_02",
			"rotation":[
				0.7071068286895752,
				0,
				0,
				0.7071068286895752
			],
			"scale":[
				0.009999999776482582,
				0.009999999776482582,
				0.009999999776482582
			]
		}
	],
	"materials":[
		{
			"doubleSided":true,
			"name":"PolygonApocalypse_Mat_01_A",
			"pbrMetallicRoughness":{
				"baseColorTexture":{
					"index":0
				},
				"metallicFactor":0,
				"roughnessFactor":0.5527864098548889
			}
		}
	],
	"meshes":[
		{
			"name":"Mesh",
			"primitives":[
				{
					"attributes":{
						"POSITION":0,
						"NORMAL":1,
						"TEXCOORD_0":2,
						"TEXCOORD_1":3
					},
					"indices":4,
					"material":0
				}
			]
		}
	],
	"textures":[
		{
			"extensions":{
				"EXT_texture_webp":{
					"source":0
				}
			},
			"sampler":0
		}
	],
	"images":[
		{
			"mimeType":"image/webp",
			"name":"PolygonApocalypse_Texture_01_A",
			"uri":"PolygonApocalypse_Texture_01_A.webp"
		}
	],
	"accessors":[
		{
			"bufferView":0,
			"componentType":5126,
			"count":850,
			"max":[
				49.69027328491211,
				43.399879455566406,
				0.5840682983398438
			],
			"min":[
				-13.34033203125,
				-24.306278228759766,
				-56.847015380859375
			],
			"type":"VEC3"
		},
		{
			"bufferView":1,
			"componentType":5126,
			"count":850,
			"type":"VEC3"
		},
		{
			"bufferView":2,
			"componentType":5126,
			"count":850,
			"type":"VEC2"
		},
		{
			"bufferView":3,
			"componentType":5126,
			"count":850,
			"type":"VEC2"
		},
		{
			"bufferView":4,
			"componentType":5123,
			"count":1488,
			"type":"SCALAR"
		}
	],
	"bufferViews":[
		{
			"buffer":0,
			"byteLength":10200,
			"byteOffset":0,
			"target":34962
		},
		{
			"buffer":0,
			"byteLength":10200,
			"byteOffset":10200,
			"target":34962
		},
		{
			"buffer":0,
			"byteLength":6800,
			"byteOffset":20400,
			"target":34962
		},
		{
			"buffer":0,
			"byteLength":6800,
			"byteOffset":27200,
			"target":34962
		},
		{
			"buffer":0,
			"byteLength":2976,
			"byteOffset":34000,
			"target":34963
		}
	],
	"samplers":[
		{
			"magFilter":9729,
			"minFilter":9987
		}
	],
	"buffers":[
		{
			"byteLength":36976,
			"uri":"apoc_SM_Prop_CarBattery_02.bin"
		}
	]
}
