{
	"asset":{
		"generator":"Khronos glTF Blender I/O v4.4.55",
		"version":"2.0"
	},
	"extensionsUsed":[
		"EXT_texture_webp"
	],
	"extensionsRequired":[
		"EXT_texture_webp"
	],
	"scene":0,
	"scenes":[
		{
			"name":"Scene",
			"nodes":[
				0
			]
		}
	],
	"nodes":[
		{
			"mesh":0,
			"name":"SM_DeadBody_Female_02",
			"rotation":[
				0.7071068286895752,
				0,
				0,
				0.7071068286895752
			],
			"scale":[
				0.009999999776482582,
				0.009999999776482582,
				0.009999999776482582
			]
		}
	],
	"materials":[
		{
			"doubleSided":true,
			"name":"PolygonApocalypse_Mat_01_A",
			"pbrMetallicRoughness":{
				"baseColorTexture":{
					"index":0
				},
				"metallicFactor":0,
				"roughnessFactor":0.5527864098548889
			}
		}
	],
	"meshes":[
		{
			"name":"Mesh",
			"primitives":[
				{
					"attributes":{
						"POSITION":0,
						"NORMAL":1,
						"TEXCOORD_0":2,
						"TEXCOORD_1":3,
						"TEXCOORD_2":4,
						"COLOR_0":5,
						"COLOR_1":6
					},
					"indices":7,
					"material":0
				}
			]
		}
	],
	"textures":[
		{
			"extensions":{
				"EXT_texture_webp":{
					"source":0
				}
			},
			"sampler":0
		}
	],
	"images":[
		{
			"mimeType":"image/webp",
			"name":"PolygonApocalypse_Texture_01_A",
			"uri":"PolygonApocalypse_Texture_01_A.webp"
		}
	],
	"accessors":[
		{
			"bufferView":0,
			"componentType":5126,
			"count":6604,
			"max":[
				76.01570129394531,
				84.7069091796875,
				3.9481773376464844
			],
			"min":[
				-76.01570129394531,
				-84.59894561767578,
				-27.949420928955078
			],
			"type":"VEC3"
		},
		{
			"bufferView":1,
			"componentType":5126,
			"count":6604,
			"type":"VEC3"
		},
		{
			"bufferView":2,
			"componentType":5126,
			"count":6604,
			"type":"VEC2"
		},
		{
			"bufferView":3,
			"componentType":5126,
			"count":6604,
			"type":"VEC2"
		},
		{
			"bufferView":4,
			"componentType":5126,
			"count":6604,
			"type":"VEC2"
		},
		{
			"bufferView":5,
			"componentType":5121,
			"count":6604,
			"normalized":true,
			"type":"VEC4"
		},
		{
			"bufferView":6,
			"componentType":5123,
			"count":6604,
			"normalized":true,
			"type":"VEC4"
		},
		{
			"bufferView":7,
			"componentType":5123,
			"count":9306,
			"type":"SCALAR"
		}
	],
	"bufferViews":[
		{
			"buffer":0,
			"byteLength":79248,
			"byteOffset":0,
			"target":34962
		},
		{
			"buffer":0,
			"byteLength":79248,
			"byteOffset":79248,
			"target":34962
		},
		{
			"buffer":0,
			"byteLength":52832,
			"byteOffset":158496,
			"target":34962
		},
		{
			"buffer":0,
			"byteLength":52832,
			"byteOffset":211328,
			"target":34962
		},
		{
			"buffer":0,
			"byteLength":52832,
			"byteOffset":264160,
			"target":34962
		},
		{
			"buffer":0,
			"byteLength":26416,
			"byteOffset":316992,
			"target":34962
		},
		{
			"buffer":0,
			"byteLength":52832,
			"byteOffset":343408,
			"target":34962
		},
		{
			"buffer":0,
			"byteLength":18612,
			"byteOffset":396240,
			"target":34963
		}
	],
	"samplers":[
		{
			"magFilter":9729,
			"minFilter":9987
		}
	],
	"buffers":[
		{
			"byteLength":414852,
			"uri":"apoc_SM_DeadBody_Female_02.bin"
		}
	]
}
