{
	"asset":{
		"generator":"Khronos glTF Blender I/O v4.4.55",
		"version":"2.0"
	},
	"extensionsUsed":[
		"EXT_texture_webp"
	],
	"extensionsRequired":[
		"EXT_texture_webp"
	],
	"scene":0,
	"scenes":[
		{
			"name":"Scene",
			"nodes":[
				0
			]
		}
	],
	"nodes":[
		{
			"mesh":0,
			"name":"SM_Wep_Mod_Barrel_02",
			"rotation":[
				0.7071068286895752,
				0,
				0,
				0.7071068286895752
			],
			"scale":[
				0.009999999776482582,
				0.009999999776482582,
				0.009999999776482582
			]
		}
	],
	"materials":[
		{
			"doubleSided":true,
			"name":"PolygonApocalypse_Mat_01_A",
			"pbrMetallicRoughness":{
				"baseColorTexture":{
					"index":0
				},
				"metallicFactor":0,
				"roughnessFactor":0.5527864098548889
			}
		}
	],
	"meshes":[
		{
			"name":"Mesh",
			"primitives":[
				{
					"attributes":{
						"POSITION":0,
						"NORMAL":1,
						"TEXCOORD_0":2,
						"TEXCOORD_1":3
					},
					"indices":4,
					"material":0
				}
			]
		}
	],
	"textures":[
		{
			"extensions":{
				"EXT_texture_webp":{
					"source":0
				}
			},
			"sampler":0
		}
	],
	"images":[
		{
			"mimeType":"image/webp",
			"name":"PolygonApocalypse_Texture_01_A",
			"uri":"PolygonApocalypse_Texture_01_A.webp"
		}
	],
	"accessors":[
		{
			"bufferView":0,
			"componentType":5126,
			"count":2419,
			"max":[
				36.694671630859375,
				3.0034499168395996,
				5.509521484375
			],
			"min":[
				-6.103515625e-05,
				-1.3308486938476562,
				-2.8453140258789062
			],
			"type":"VEC3"
		},
		{
			"bufferView":1,
			"componentType":5126,
			"count":2419,
			"type":"VEC3"
		},
		{
			"bufferView":2,
			"componentType":5126,
			"count":2419,
			"type":"VEC2"
		},
		{
			"bufferView":3,
			"componentType":5126,
			"count":2419,
			"type":"VEC2"
		},
		{
			"bufferView":4,
			"componentType":5123,
			"count":3918,
			"type":"SCALAR"
		}
	],
	"bufferViews":[
		{
			"buffer":0,
			"byteLength":29028,
			"byteOffset":0,
			"target":34962
		},
		{
			"buffer":0,
			"byteLength":29028,
			"byteOffset":29028,
			"target":34962
		},
		{
			"buffer":0,
			"byteLength":19352,
			"byteOffset":58056,
			"target":34962
		},
		{
			"buffer":0,
			"byteLength":19352,
			"byteOffset":77408,
			"target":34962
		},
		{
			"buffer":0,
			"byteLength":7836,
			"byteOffset":96760,
			"target":34963
		}
	],
	"samplers":[
		{
			"magFilter":9729,
			"minFilter":9987
		}
	],
	"buffers":[
		{
			"byteLength":104596,
			"uri":"apoc_SM_Wep_Mod_Barrel_02.bin"
		}
	]
}
