{
	"asset":{
		"generator":"Khronos glTF Blender I/O v4.4.55",
		"version":"2.0"
	},
	"extensionsUsed":[
		"EXT_texture_webp"
	],
	"extensionsRequired":[
		"EXT_texture_webp"
	],
	"scene":0,
	"scenes":[
		{
			"name":"Scene",
			"nodes":[
				0
			]
		}
	],
	"nodes":[
		{
			"mesh":0,
			"name":"SM_Veh_Attach_Frameing_11",
			"rotation":[
				0.7071068286895752,
				0,
				0,
				0.7071068286895752
			],
			"scale":[
				0.009999999776482582,
				0.009999999776482582,
				0.009999999776482582
			]
		}
	],
	"materials":[
		{
			"doubleSided":true,
			"name":"PolygonApocalypse_Mat_01_A",
			"pbrMetallicRoughness":{
				"baseColorTexture":{
					"index":0
				},
				"metallicFactor":0,
				"roughnessFactor":0.5527864098548889
			}
		}
	],
	"meshes":[
		{
			"name":"Mesh",
			"primitives":[
				{
					"attributes":{
						"POSITION":0,
						"NORMAL":1,
						"TEXCOORD_0":2,
						"TEXCOORD_1":3,
						"TEXCOORD_2":4
					},
					"indices":5,
					"material":0
				}
			]
		}
	],
	"textures":[
		{
			"extensions":{
				"EXT_texture_webp":{
					"source":0
				}
			},
			"sampler":0
		}
	],
	"images":[
		{
			"mimeType":"image/webp",
			"name":"PolygonApocalypse_Texture_01_A",
			"uri":"PolygonApocalypse_Texture_01_A.webp"
		}
	],
	"accessors":[
		{
			"bufferView":0,
			"componentType":5126,
			"count":311,
			"max":[
				8.245391845703125,
				60.12397766113281,
				61.037322998046875
			],
			"min":[
				-8.245391845703125,
				-60.12397766113281,
				-61.03731155395508
			],
			"type":"VEC3"
		},
		{
			"bufferView":1,
			"componentType":5126,
			"count":311,
			"type":"VEC3"
		},
		{
			"bufferView":2,
			"componentType":5126,
			"count":311,
			"type":"VEC2"
		},
		{
			"bufferView":3,
			"componentType":5126,
			"count":311,
			"type":"VEC2"
		},
		{
			"bufferView":4,
			"componentType":5126,
			"count":311,
			"type":"VEC2"
		},
		{
			"bufferView":5,
			"componentType":5123,
			"count":540,
			"type":"SCALAR"
		}
	],
	"bufferViews":[
		{
			"buffer":0,
			"byteLength":3732,
			"byteOffset":0,
			"target":34962
		},
		{
			"buffer":0,
			"byteLength":3732,
			"byteOffset":3732,
			"target":34962
		},
		{
			"buffer":0,
			"byteLength":2488,
			"byteOffset":7464,
			"target":34962
		},
		{
			"buffer":0,
			"byteLength":2488,
			"byteOffset":9952,
			"target":34962
		},
		{
			"buffer":0,
			"byteLength":2488,
			"byteOffset":12440,
			"target":34962
		},
		{
			"buffer":0,
			"byteLength":1080,
			"byteOffset":14928,
			"target":34963
		}
	],
	"samplers":[
		{
			"magFilter":9729,
			"minFilter":9987
		}
	],
	"buffers":[
		{
			"byteLength":16008,
			"uri":"apoc_SM_Veh_Attach_Frameing_11.bin"
		}
	]
}
