{
	"asset":{
		"generator":"Khronos glTF Blender I/O v4.4.55",
		"version":"2.0"
	},
	"extensionsUsed":[
		"EXT_texture_webp"
	],
	"extensionsRequired":[
		"EXT_texture_webp"
	],
	"scene":0,
	"scenes":[
		{
			"name":"Scene",
			"nodes":[
				0
			]
		}
	],
	"nodes":[
		{
			"mesh":0,
			"name":"SM_Prop_Luggage_Retro_01",
			"rotation":[
				0.7071068286895752,
				0,
				0,
				0.7071068286895752
			],
			"scale":[
				0.009999999776482582,
				0.009999999776482582,
				0.009999999776482582
			]
		}
	],
	"materials":[
		{
			"doubleSided":true,
			"name":"PolygonApocalypse_Mat_01_A",
			"pbrMetallicRoughness":{
				"baseColorTexture":{
					"index":0
				},
				"metallicFactor":0,
				"roughnessFactor":0.5527864098548889
			}
		}
	],
	"meshes":[
		{
			"name":"Mesh",
			"primitives":[
				{
					"attributes":{
						"POSITION":0,
						"NORMAL":1,
						"TEXCOORD_0":2,
						"TEXCOORD_1":3
					},
					"indices":4,
					"material":0
				}
			]
		}
	],
	"textures":[
		{
			"extensions":{
				"EXT_texture_webp":{
					"source":0
				}
			},
			"sampler":0
		}
	],
	"images":[
		{
			"mimeType":"image/webp",
			"name":"PolygonApocalypse_Texture_01_A",
			"uri":"PolygonApocalypse_Texture_01_A.webp"
		}
	],
	"accessors":[
		{
			"bufferView":0,
			"componentType":5126,
			"count":1822,
			"max":[
				28.709712982177734,
				38.9404296875,
				0
			],
			"min":[
				-28.709712982177734,
				-38.9404296875,
				-31.435791015625
			],
			"type":"VEC3"
		},
		{
			"bufferView":1,
			"componentType":5126,
			"count":1822,
			"type":"VEC3"
		},
		{
			"bufferView":2,
			"componentType":5126,
			"count":1822,
			"type":"VEC2"
		},
		{
			"bufferView":3,
			"componentType":5126,
			"count":1822,
			"type":"VEC2"
		},
		{
			"bufferView":4,
			"componentType":5123,
			"count":3648,
			"type":"SCALAR"
		}
	],
	"bufferViews":[
		{
			"buffer":0,
			"byteLength":21864,
			"byteOffset":0,
			"target":34962
		},
		{
			"buffer":0,
			"byteLength":21864,
			"byteOffset":21864,
			"target":34962
		},
		{
			"buffer":0,
			"byteLength":14576,
			"byteOffset":43728,
			"target":34962
		},
		{
			"buffer":0,
			"byteLength":14576,
			"byteOffset":58304,
			"target":34962
		},
		{
			"buffer":0,
			"byteLength":7296,
			"byteOffset":72880,
			"target":34963
		}
	],
	"samplers":[
		{
			"magFilter":9729,
			"minFilter":9987
		}
	],
	"buffers":[
		{
			"byteLength":80176,
			"uri":"apoc_SM_Prop_Luggage_Retro_01.bin"
		}
	]
}
