{
	"asset":{
		"generator":"Khronos glTF Blender I/O v4.4.55",
		"version":"2.0"
	},
	"extensionsUsed":[
		"EXT_texture_webp"
	],
	"extensionsRequired":[
		"EXT_texture_webp"
	],
	"scene":0,
	"scenes":[
		{
			"name":"Scene",
			"nodes":[
				0
			]
		}
	],
	"nodes":[
		{
			"mesh":0,
			"name":"SM_Env_RoadPiece_Damaged_04",
			"rotation":[
				0.7071068286895752,
				0,
				0,
				0.7071068286895752
			],
			"scale":[
				0.009999999776482582,
				0.009999999776482582,
				0.009999999776482582
			]
		}
	],
	"materials":[
		{
			"doubleSided":true,
			"name":"PolygonApocalypse_Road_01",
			"pbrMetallicRoughness":{
				"baseColorTexture":{
					"index":0
				},
				"metallicFactor":0,
				"roughnessFactor":0.5527864098548889
			}
		}
	],
	"meshes":[
		{
			"name":"Mesh",
			"primitives":[
				{
					"attributes":{
						"POSITION":0,
						"NORMAL":1,
						"TEXCOORD_0":2,
						"TEXCOORD_1":3
					},
					"indices":4,
					"material":0
				}
			]
		}
	],
	"textures":[
		{
			"extensions":{
				"EXT_texture_webp":{
					"source":0
				}
			},
			"sampler":0
		}
	],
	"images":[
		{
			"mimeType":"image/webp",
			"name":"PolygonApocalyse_Road_01",
			"uri":"PolygonApocalyse_Road_01.webp"
		}
	],
	"accessors":[
		{
			"bufferView":0,
			"componentType":5126,
			"count":628,
			"max":[
				164.38485717773438,
				460.8960876464844,
				6.8745598793029785
			],
			"min":[
				-174.12319946289062,
				-460.8960266113281,
				-23.44190216064453
			],
			"type":"VEC3"
		},
		{
			"bufferView":1,
			"componentType":5126,
			"count":628,
			"type":"VEC3"
		},
		{
			"bufferView":2,
			"componentType":5126,
			"count":628,
			"type":"VEC2"
		},
		{
			"bufferView":3,
			"componentType":5126,
			"count":628,
			"type":"VEC2"
		},
		{
			"bufferView":4,
			"componentType":5123,
			"count":960,
			"type":"SCALAR"
		}
	],
	"bufferViews":[
		{
			"buffer":0,
			"byteLength":7536,
			"byteOffset":0,
			"target":34962
		},
		{
			"buffer":0,
			"byteLength":7536,
			"byteOffset":7536,
			"target":34962
		},
		{
			"buffer":0,
			"byteLength":5024,
			"byteOffset":15072,
			"target":34962
		},
		{
			"buffer":0,
			"byteLength":5024,
			"byteOffset":20096,
			"target":34962
		},
		{
			"buffer":0,
			"byteLength":1920,
			"byteOffset":25120,
			"target":34963
		}
	],
	"samplers":[
		{
			"magFilter":9729,
			"minFilter":9987
		}
	],
	"buffers":[
		{
			"byteLength":27040,
			"uri":"apoc_SM_Env_RoadPiece_Damaged_04.bin"
		}
	]
}
