{
	"asset":{
		"generator":"Khronos glTF Blender I/O v4.4.55",
		"version":"2.0"
	},
	"extensionsUsed":[
		"EXT_texture_webp"
	],
	"extensionsRequired":[
		"EXT_texture_webp"
	],
	"scene":0,
	"scenes":[
		{
			"name":"Scene",
			"nodes":[
				0
			]
		}
	],
	"nodes":[
		{
			"mesh":0,
			"name":"SM_Prop_Car_Wrecked_Overgrowth_01",
			"rotation":[
				0.7071068286895752,
				0,
				0,
				0.7071068286895752
			],
			"scale":[
				0.009999999776482582,
				0.009999999776482582,
				0.009999999776482582
			]
		}
	],
	"materials":[
		{
			"doubleSided":true,
			"name":"PolygonApocalypse_Overgrowth_01",
			"pbrMetallicRoughness":{
				"baseColorTexture":{
					"index":0
				},
				"metallicFactor":0,
				"roughnessFactor":0.5527864098548889
			}
		}
	],
	"meshes":[
		{
			"name":"Mesh",
			"primitives":[
				{
					"attributes":{
						"POSITION":0,
						"NORMAL":1,
						"TEXCOORD_0":2,
						"TEXCOORD_1":3
					},
					"indices":4,
					"material":0
				}
			]
		}
	],
	"textures":[
		{
			"extensions":{
				"EXT_texture_webp":{
					"source":0
				}
			},
			"sampler":0
		}
	],
	"images":[
		{
			"mimeType":"image/webp",
			"name":"Overgrowth",
			"uri":"Overgrowth.webp"
		}
	],
	"accessors":[
		{
			"bufferView":0,
			"componentType":5126,
			"count":1478,
			"max":[
				168.04541015625,
				38.0888671875,
				36.912864685058594
			],
			"min":[
				-355.8681640625,
				-204.265869140625,
				-131.28140258789062
			],
			"type":"VEC3"
		},
		{
			"bufferView":1,
			"componentType":5126,
			"count":1478,
			"type":"VEC3"
		},
		{
			"bufferView":2,
			"componentType":5126,
			"count":1478,
			"type":"VEC2"
		},
		{
			"bufferView":3,
			"componentType":5126,
			"count":1478,
			"type":"VEC2"
		},
		{
			"bufferView":4,
			"componentType":5123,
			"count":1512,
			"type":"SCALAR"
		}
	],
	"bufferViews":[
		{
			"buffer":0,
			"byteLength":17736,
			"byteOffset":0,
			"target":34962
		},
		{
			"buffer":0,
			"byteLength":17736,
			"byteOffset":17736,
			"target":34962
		},
		{
			"buffer":0,
			"byteLength":11824,
			"byteOffset":35472,
			"target":34962
		},
		{
			"buffer":0,
			"byteLength":11824,
			"byteOffset":47296,
			"target":34962
		},
		{
			"buffer":0,
			"byteLength":3024,
			"byteOffset":59120,
			"target":34963
		}
	],
	"samplers":[
		{
			"magFilter":9729,
			"minFilter":9987
		}
	],
	"buffers":[
		{
			"byteLength":62144,
			"uri":"apoc_SM_Prop_Car_Wrecked_Overgrowth_01.bin"
		}
	]
}
