{
	"asset":{
		"generator":"Khronos glTF Blender I/O v4.4.55",
		"version":"2.0"
	},
	"extensionsUsed":[
		"EXT_texture_webp"
	],
	"extensionsRequired":[
		"EXT_texture_webp"
	],
	"scene":0,
	"scenes":[
		{
			"name":"Scene",
			"nodes":[
				0
			]
		}
	],
	"nodes":[
		{
			"mesh":0,
			"name":"SM_Prop_TrashPile_06",
			"rotation":[
				0.7071068286895752,
				0,
				0,
				0.7071068286895752
			],
			"scale":[
				0.009999999776482582,
				0.009999999776482582,
				0.009999999776482582
			]
		}
	],
	"materials":[
		{
			"doubleSided":true,
			"name":"PolygonApocalypse_Rubble_01",
			"pbrMetallicRoughness":{
				"baseColorTexture":{
					"index":0
				},
				"metallicFactor":0,
				"roughnessFactor":0.5527864098548889
			}
		},
		{
			"doubleSided":true,
			"name":"PolygonApocalypse_Mat_01_A",
			"pbrMetallicRoughness":{
				"baseColorTexture":{
					"index":1
				},
				"metallicFactor":0,
				"roughnessFactor":0.5527864098548889
			}
		}
	],
	"meshes":[
		{
			"name":"Mesh",
			"primitives":[
				{
					"attributes":{
						"POSITION":0,
						"NORMAL":1,
						"TEXCOORD_0":2,
						"TEXCOORD_1":3
					},
					"indices":4,
					"material":0
				},
				{
					"attributes":{
						"POSITION":5,
						"NORMAL":6,
						"TEXCOORD_0":7,
						"TEXCOORD_1":8
					},
					"indices":9,
					"material":1
				}
			]
		}
	],
	"textures":[
		{
			"extensions":{
				"EXT_texture_webp":{
					"source":0
				}
			},
			"sampler":0
		},
		{
			"extensions":{
				"EXT_texture_webp":{
					"source":0
				}
			},
			"sampler":0
		}
	],
	"images":[
		{
			"mimeType":"image/webp",
			"name":"PolygonApocalypse_Texture_01_A",
			"uri":"PolygonApocalypse_Texture_01_A.webp"
		}
	],
	"accessors":[
		{
			"bufferView":0,
			"componentType":5126,
			"count":108,
			"max":[
				251.14259338378906,
				193.9970245361328,
				1.7838439059225664e-11
			],
			"min":[
				-258.97186279296875,
				-217.1196746826172,
				-57.75855255126953
			],
			"type":"VEC3"
		},
		{
			"bufferView":1,
			"componentType":5126,
			"count":108,
			"type":"VEC3"
		},
		{
			"bufferView":2,
			"componentType":5126,
			"count":108,
			"type":"VEC2"
		},
		{
			"bufferView":3,
			"componentType":5126,
			"count":108,
			"type":"VEC2"
		},
		{
			"bufferView":4,
			"componentType":5123,
			"count":150,
			"type":"SCALAR"
		},
		{
			"bufferView":5,
			"componentType":5126,
			"count":8880,
			"max":[
				243.7881622314453,
				206.5097198486328,
				10.840133666992188
			],
			"min":[
				-271.1726379394531,
				-227.8877410888672,
				-128.06275939941406
			],
			"type":"VEC3"
		},
		{
			"bufferView":6,
			"componentType":5126,
			"count":8880,
			"type":"VEC3"
		},
		{
			"bufferView":7,
			"componentType":5126,
			"count":8880,
			"type":"VEC2"
		},
		{
			"bufferView":8,
			"componentType":5126,
			"count":8880,
			"type":"VEC2"
		},
		{
			"bufferView":9,
			"componentType":5123,
			"count":12804,
			"type":"SCALAR"
		}
	],
	"bufferViews":[
		{
			"buffer":0,
			"byteLength":1296,
			"byteOffset":0,
			"target":34962
		},
		{
			"buffer":0,
			"byteLength":1296,
			"byteOffset":1296,
			"target":34962
		},
		{
			"buffer":0,
			"byteLength":864,
			"byteOffset":2592,
			"target":34962
		},
		{
			"buffer":0,
			"byteLength":864,
			"byteOffset":3456,
			"target":34962
		},
		{
			"buffer":0,
			"byteLength":300,
			"byteOffset":4320,
			"target":34963
		},
		{
			"buffer":0,
			"byteLength":106560,
			"byteOffset":4620,
			"target":34962
		},
		{
			"buffer":0,
			"byteLength":106560,
			"byteOffset":111180,
			"target":34962
		},
		{
			"buffer":0,
			"byteLength":71040,
			"byteOffset":217740,
			"target":34962
		},
		{
			"buffer":0,
			"byteLength":71040,
			"byteOffset":288780,
			"target":34962
		},
		{
			"buffer":0,
			"byteLength":25608,
			"byteOffset":359820,
			"target":34963
		}
	],
	"samplers":[
		{
			"magFilter":9729,
			"minFilter":9987
		}
	],
	"buffers":[
		{
			"byteLength":385428,
			"uri":"apoc_SM_Prop_TrashPile_06.bin"
		}
	]
}
