{
	"asset":{
		"generator":"Khronos glTF Blender I/O v4.4.55",
		"version":"2.0"
	},
	"extensionsUsed":[
		"EXT_texture_webp"
	],
	"extensionsRequired":[
		"EXT_texture_webp"
	],
	"scene":0,
	"scenes":[
		{
			"name":"Scene",
			"nodes":[
				0
			]
		}
	],
	"nodes":[
		{
			"mesh":0,
			"name":"SM_Bld_Industrial_Medium_01_Overgrowth_01",
			"rotation":[
				0.7071068286895752,
				0,
				0,
				0.7071068286895752
			],
			"scale":[
				0.009999999776482582,
				0.009999999776482582,
				0.009999999776482582
			]
		}
	],
	"materials":[
		{
			"doubleSided":true,
			"name":"PolygonApocalypse_Overgrowth_01",
			"pbrMetallicRoughness":{
				"baseColorTexture":{
					"index":0
				},
				"metallicFactor":0,
				"roughnessFactor":0.5527864098548889
			}
		}
	],
	"meshes":[
		{
			"name":"Mesh",
			"primitives":[
				{
					"attributes":{
						"POSITION":0,
						"NORMAL":1,
						"TEXCOORD_0":2,
						"TEXCOORD_1":3
					},
					"indices":4,
					"material":0
				}
			]
		}
	],
	"textures":[
		{
			"extensions":{
				"EXT_texture_webp":{
					"source":0
				}
			},
			"sampler":0
		}
	],
	"images":[
		{
			"mimeType":"image/webp",
			"name":"Overgrowth",
			"uri":"Overgrowth.webp"
		}
	],
	"accessors":[
		{
			"bufferView":0,
			"componentType":5126,
			"count":17112,
			"max":[
				1021.03369140625,
				881.90283203125,
				24.921030044555664
			],
			"min":[
				-804.97021484375,
				-1049.716796875,
				-1695.462890625
			],
			"type":"VEC3"
		},
		{
			"bufferView":1,
			"componentType":5126,
			"count":17112,
			"type":"VEC3"
		},
		{
			"bufferView":2,
			"componentType":5126,
			"count":17112,
			"type":"VEC2"
		},
		{
			"bufferView":3,
			"componentType":5126,
			"count":17112,
			"type":"VEC2"
		},
		{
			"bufferView":4,
			"componentType":5123,
			"count":18174,
			"type":"SCALAR"
		}
	],
	"bufferViews":[
		{
			"buffer":0,
			"byteLength":205344,
			"byteOffset":0,
			"target":34962
		},
		{
			"buffer":0,
			"byteLength":205344,
			"byteOffset":205344,
			"target":34962
		},
		{
			"buffer":0,
			"byteLength":136896,
			"byteOffset":410688,
			"target":34962
		},
		{
			"buffer":0,
			"byteLength":136896,
			"byteOffset":547584,
			"target":34962
		},
		{
			"buffer":0,
			"byteLength":36348,
			"byteOffset":684480,
			"target":34963
		}
	],
	"samplers":[
		{
			"magFilter":9729,
			"minFilter":9987
		}
	],
	"buffers":[
		{
			"byteLength":720828,
			"uri":"apoc_SM_Bld_Industrial_Medium_01_Overgrowth_01.bin"
		}
	]
}
