{
	"asset":{
		"generator":"Khronos glTF Blender I/O v4.4.55",
		"version":"2.0"
	},
	"extensionsUsed":[
		"EXT_texture_webp"
	],
	"extensionsRequired":[
		"EXT_texture_webp"
	],
	"scene":0,
	"scenes":[
		{
			"name":"Scene",
			"nodes":[
				0
			]
		}
	],
	"nodes":[
		{
			"mesh":0,
			"name":"SM_Wep_Bomb_GasCan_01",
			"rotation":[
				0.7071068286895752,
				0,
				0,
				0.7071068286895752
			],
			"scale":[
				0.009999999776482582,
				0.009999999776482582,
				0.009999999776482582
			]
		}
	],
	"materials":[
		{
			"doubleSided":true,
			"name":"PolygonApocalypse_Mat_01_A",
			"pbrMetallicRoughness":{
				"baseColorTexture":{
					"index":0
				},
				"metallicFactor":0,
				"roughnessFactor":0.5527864098548889
			}
		}
	],
	"meshes":[
		{
			"name":"Mesh",
			"primitives":[
				{
					"attributes":{
						"POSITION":0,
						"NORMAL":1,
						"TEXCOORD_0":2,
						"TEXCOORD_1":3
					},
					"indices":4,
					"material":0
				}
			]
		}
	],
	"textures":[
		{
			"extensions":{
				"EXT_texture_webp":{
					"source":0
				}
			},
			"sampler":0
		}
	],
	"images":[
		{
			"mimeType":"image/webp",
			"name":"PolygonApocalypse_Texture_01_C",
			"uri":"PolygonApocalypse_Texture_01_C.webp"
		}
	],
	"accessors":[
		{
			"bufferView":0,
			"componentType":5126,
			"count":1744,
			"max":[
				17.554019927978516,
				12.102707862854004,
				3.782282477395992e-15
			],
			"min":[
				-17.554004669189453,
				-11.244558334350586,
				-40.884033203125
			],
			"type":"VEC3"
		},
		{
			"bufferView":1,
			"componentType":5126,
			"count":1744,
			"type":"VEC3"
		},
		{
			"bufferView":2,
			"componentType":5126,
			"count":1744,
			"type":"VEC2"
		},
		{
			"bufferView":3,
			"componentType":5126,
			"count":1744,
			"type":"VEC2"
		},
		{
			"bufferView":4,
			"componentType":5123,
			"count":2928,
			"type":"SCALAR"
		}
	],
	"bufferViews":[
		{
			"buffer":0,
			"byteLength":20928,
			"byteOffset":0,
			"target":34962
		},
		{
			"buffer":0,
			"byteLength":20928,
			"byteOffset":20928,
			"target":34962
		},
		{
			"buffer":0,
			"byteLength":13952,
			"byteOffset":41856,
			"target":34962
		},
		{
			"buffer":0,
			"byteLength":13952,
			"byteOffset":55808,
			"target":34962
		},
		{
			"buffer":0,
			"byteLength":5856,
			"byteOffset":69760,
			"target":34963
		}
	],
	"samplers":[
		{
			"magFilter":9729,
			"minFilter":9987
		}
	],
	"buffers":[
		{
			"byteLength":75616,
			"uri":"apoc_SM_Wep_Bomb_GasCan_01.bin"
		}
	]
}
