{
	"asset":{
		"generator":"Khronos glTF Blender I/O v4.4.55",
		"version":"2.0"
	},
	"extensionsUsed":[
		"EXT_texture_webp"
	],
	"extensionsRequired":[
		"EXT_texture_webp"
	],
	"scene":0,
	"scenes":[
		{
			"name":"Scene",
			"nodes":[
				0
			]
		}
	],
	"nodes":[
		{
			"mesh":0,
			"name":"SM_Veh_Attach_Bumper_13",
			"rotation":[
				0.7071068286895752,
				0,
				0,
				0.7071068286895752
			],
			"scale":[
				0.009999999776482582,
				0.009999999776482582,
				0.009999999776482582
			]
		}
	],
	"materials":[
		{
			"doubleSided":true,
			"name":"PolygonApocalypse_Mat_01_A",
			"pbrMetallicRoughness":{
				"baseColorTexture":{
					"index":0
				},
				"metallicFactor":0,
				"roughnessFactor":0.5527864098548889
			}
		}
	],
	"meshes":[
		{
			"name":"Mesh",
			"primitives":[
				{
					"attributes":{
						"POSITION":0,
						"NORMAL":1,
						"TEXCOORD_0":2,
						"TEXCOORD_1":3,
						"TEXCOORD_2":4
					},
					"indices":5,
					"material":0
				}
			]
		}
	],
	"textures":[
		{
			"extensions":{
				"EXT_texture_webp":{
					"source":0
				}
			},
			"sampler":0
		}
	],
	"images":[
		{
			"mimeType":"image/webp",
			"name":"PolygonApocalypse_Texture_01_A",
			"uri":"PolygonApocalypse_Texture_01_A.webp"
		}
	],
	"accessors":[
		{
			"bufferView":0,
			"componentType":5126,
			"count":548,
			"max":[
				41.99615478515625,
				83.82415771484375,
				25.276582717895508
			],
			"min":[
				-41.99615478515625,
				-83.82416534423828,
				-25.27658462524414
			],
			"type":"VEC3"
		},
		{
			"bufferView":1,
			"componentType":5126,
			"count":548,
			"type":"VEC3"
		},
		{
			"bufferView":2,
			"componentType":5126,
			"count":548,
			"type":"VEC2"
		},
		{
			"bufferView":3,
			"componentType":5126,
			"count":548,
			"type":"VEC2"
		},
		{
			"bufferView":4,
			"componentType":5126,
			"count":548,
			"type":"VEC2"
		},
		{
			"bufferView":5,
			"componentType":5123,
			"count":1014,
			"type":"SCALAR"
		}
	],
	"bufferViews":[
		{
			"buffer":0,
			"byteLength":6576,
			"byteOffset":0,
			"target":34962
		},
		{
			"buffer":0,
			"byteLength":6576,
			"byteOffset":6576,
			"target":34962
		},
		{
			"buffer":0,
			"byteLength":4384,
			"byteOffset":13152,
			"target":34962
		},
		{
			"buffer":0,
			"byteLength":4384,
			"byteOffset":17536,
			"target":34962
		},
		{
			"buffer":0,
			"byteLength":4384,
			"byteOffset":21920,
			"target":34962
		},
		{
			"buffer":0,
			"byteLength":2028,
			"byteOffset":26304,
			"target":34963
		}
	],
	"samplers":[
		{
			"magFilter":9729,
			"minFilter":9987
		}
	],
	"buffers":[
		{
			"byteLength":28332,
			"uri":"apoc_SM_Veh_Attach_Bumper_13.bin"
		}
	]
}
