{
	"asset":{
		"generator":"Khronos glTF Blender I/O v4.4.55",
		"version":"2.0"
	},
	"extensionsUsed":[
		"EXT_texture_webp"
	],
	"extensionsRequired":[
		"EXT_texture_webp"
	],
	"scene":0,
	"scenes":[
		{
			"name":"Scene",
			"nodes":[
				0
			]
		}
	],
	"nodes":[
		{
			"mesh":0,
			"name":"SM_Env_GroundLeaves_02",
			"rotation":[
				0.7071068286895752,
				0,
				0,
				0.7071068286895752
			],
			"scale":[
				0.009999999776482582,
				0.009999999776482582,
				0.009999999776482582
			]
		}
	],
	"materials":[
		{
			"doubleSided":true,
			"name":"PolygonApocalypse_Mat_01_A",
			"pbrMetallicRoughness":{
				"baseColorTexture":{
					"index":0
				},
				"metallicFactor":0,
				"roughnessFactor":0.5527864098548889
			}
		}
	],
	"meshes":[
		{
			"name":"Mesh",
			"primitives":[
				{
					"attributes":{
						"POSITION":0,
						"NORMAL":1,
						"TEXCOORD_0":2,
						"TEXCOORD_1":3
					},
					"indices":4,
					"material":0
				}
			]
		}
	],
	"textures":[
		{
			"extensions":{
				"EXT_texture_webp":{
					"source":0
				}
			},
			"sampler":0
		}
	],
	"images":[
		{
			"mimeType":"image/webp",
			"name":"PolygonApocalypse_Texture_01_A",
			"uri":"PolygonApocalypse_Texture_01_A.webp"
		}
	],
	"accessors":[
		{
			"bufferView":0,
			"componentType":5126,
			"count":329,
			"max":[
				135.93235778808594,
				160.36141967773438,
				1.0943983793258667
			],
			"min":[
				-135.93136596679688,
				-160.36239624023438,
				-26.34739112854004
			],
			"type":"VEC3"
		},
		{
			"bufferView":1,
			"componentType":5126,
			"count":329,
			"type":"VEC3"
		},
		{
			"bufferView":2,
			"componentType":5126,
			"count":329,
			"type":"VEC2"
		},
		{
			"bufferView":3,
			"componentType":5126,
			"count":329,
			"type":"VEC2"
		},
		{
			"bufferView":4,
			"componentType":5123,
			"count":339,
			"type":"SCALAR"
		}
	],
	"bufferViews":[
		{
			"buffer":0,
			"byteLength":3948,
			"byteOffset":0,
			"target":34962
		},
		{
			"buffer":0,
			"byteLength":3948,
			"byteOffset":3948,
			"target":34962
		},
		{
			"buffer":0,
			"byteLength":2632,
			"byteOffset":7896,
			"target":34962
		},
		{
			"buffer":0,
			"byteLength":2632,
			"byteOffset":10528,
			"target":34962
		},
		{
			"buffer":0,
			"byteLength":678,
			"byteOffset":13160,
			"target":34963
		}
	],
	"samplers":[
		{
			"magFilter":9729,
			"minFilter":9987
		}
	],
	"buffers":[
		{
			"byteLength":13840,
			"uri":"apoc_SM_Env_GroundLeaves_02.bin"
		}
	]
}
