{"asset":{"generator":"Khronos glTF Blender I/O v4.4.55","version":"2.0"},"extensionsUsed":["EXT_texture_webp"],"extensionsRequired":["EXT_texture_webp"],"scene":0,"scenes":[{"name":"Scene","nodes":[1]}],"nodes":[{"mesh":0,"name":"UCX_SM_Env_Road_Bare_01_1"},{"children":[0],"mesh":1,"name":"SM_Env_Road_Bare_01","rotation":[0.7071068286895752,0,0,0.7071068286895752],"scale":[0.009999999776482582,0.009999999776482582,0.009999999776482582]}],"materials":[{"alphaMode":"MASK","doubleSided":true,"name":"lambert3","pbrMetallicRoughness":{"baseColorFactor":[1,1,1,0.29323261976242065],"baseColorTexture":{"index":0},"metallicFactor":0,"roughnessFactor":0.5527864098548889},"alphaCutoff":0.5},{"doubleSided":true,"name":"Base_Maya_Scene:pasted__MiniColour50","pbrMetallicRoughness":{"baseColorTexture":{"index":1},"metallicFactor":0,"roughnessFactor":0.5527864098548889}}],"meshes":[{"name":"Mesh.001","primitives":[{"attributes":{"POSITION":0,"NORMAL":1,"TEXCOORD_0":2},"indices":3,"material":0}]},{"name":"Mesh","primitives":[{"attributes":{"POSITION":4,"NORMAL":5,"TEXCOORD_0":6},"indices":7,"material":1}]}],"textures":[{"extensions":{"EXT_texture_webp":{"source":0}},"sampler":0},{"extensions":{"EXT_texture_webp":{"source":1}},"sampler":0}],"images":[{"mimeType":"image/webp","name":"PolygonApocalypse_Texture_01_A","uri":"PolygonApocalypse_Texture_01_A.webp"},{"mimeType":"image/webp","name":"PolygonApocalyse_Road_01","uri":"PolygonApocalyse_Road_01.webp"}],"accessors":[{"bufferView":0,"componentType":5126,"count":24,"max":[0,0,10.507232666015625],"min":[-500.00006103515625,-500,0],"type":"VEC3"},{"bufferView":1,"componentType":5126,"count":24,"type":"VEC3"},{"bufferView":2,"componentType":5126,"count":24,"type":"VEC2"},{"bufferView":3,"componentType":5123,"count":36,"type":"SCALAR"},{"bufferView":4,"componentType":5126,"count":4,"max":[0,0,-7.450580596923828e-07],"min":[-500,-500,-7.450580596923828e-07],"type":"VEC3"},{"bufferView":5,"componentType":5126,"count":4,"type":"VEC3"},{"bufferView":6,"componentType":5126,"count":4,"type":"VEC2"},{"bufferView":7,"componentType":5123,"count":6,"type":"SCALAR"}],"bufferViews":[{"buffer":0,"byteLength":288,"byteOffset":0,"target":34962},{"buffer":0,"byteLength":288,"byteOffset":288,"target":34962},{"buffer":0,"byteLength":192,"byteOffset":576,"target":34962},{"buffer":0,"byteLength":72,"byteOffset":768,"target":34963},{"buffer":0,"byteLength":48,"byteOffset":840,"target":34962},{"buffer":0,"byteLength":48,"byteOffset":888,"target":34962},{"buffer":0,"byteLength":32,"byteOffset":936,"target":34962},{"buffer":0,"byteLength":12,"byteOffset":968,"target":34963}],"samplers":[{"magFilter":9729,"minFilter":9987}],"buffers":[{"byteLength":980,"uri":"apoc_SM_Env_Road_Bare_01.bin"}]}