{"asset":{"generator":"Khronos glTF Blender I/O v4.4.55","version":"2.0"},"extensionsUsed":["EXT_texture_webp"],"extensionsRequired":["EXT_texture_webp"],"scene":0,"scenes":[{"name":"Scene","nodes":[41]}],"nodes":[{"mesh":0,"name":"UCX_SM_Bld_HighRise_Medium_01_Interior_Stack_01_1"},{"mesh":1,"name":"UCX_SM_Bld_HighRise_Medium_01_Interior_Stack_01_10"},{"mesh":2,"name":"UCX_SM_Bld_HighRise_Medium_01_Interior_Stack_01_11"},{"mesh":3,"name":"UCX_SM_Bld_HighRise_Medium_01_Interior_Stack_01_12"},{"mesh":4,"name":"UCX_SM_Bld_HighRise_Medium_01_Interior_Stack_01_13"},{"mesh":5,"name":"UCX_SM_Bld_HighRise_Medium_01_Interior_Stack_01_14"},{"mesh":6,"name":"UCX_SM_Bld_HighRise_Medium_01_Interior_Stack_01_15"},{"mesh":7,"name":"UCX_SM_Bld_HighRise_Medium_01_Interior_Stack_01_16"},{"mesh":8,"name":"UCX_SM_Bld_HighRise_Medium_01_Interior_Stack_01_17"},{"mesh":9,"name":"UCX_SM_Bld_HighRise_Medium_01_Interior_Stack_01_18"},{"mesh":10,"name":"UCX_SM_Bld_HighRise_Medium_01_Interior_Stack_01_19"},{"mesh":11,"name":"UCX_SM_Bld_HighRise_Medium_01_Interior_Stack_01_2"},{"mesh":12,"name":"UCX_SM_Bld_HighRise_Medium_01_Interior_Stack_01_20"},{"mesh":13,"name":"UCX_SM_Bld_HighRise_Medium_01_Interior_Stack_01_21"},{"mesh":14,"name":"UCX_SM_Bld_HighRise_Medium_01_Interior_Stack_01_22"},{"mesh":15,"name":"UCX_SM_Bld_HighRise_Medium_01_Interior_Stack_01_23"},{"mesh":16,"name":"UCX_SM_Bld_HighRise_Medium_01_Interior_Stack_01_24"},{"mesh":17,"name":"UCX_SM_Bld_HighRise_Medium_01_Interior_Stack_01_25"},{"mesh":18,"name":"UCX_SM_Bld_HighRise_Medium_01_Interior_Stack_01_26"},{"mesh":19,"name":"UCX_SM_Bld_HighRise_Medium_01_Interior_Stack_01_27"},{"mesh":20,"name":"UCX_SM_Bld_HighRise_Medium_01_Interior_Stack_01_28"},{"mesh":21,"name":"UCX_SM_Bld_HighRise_Medium_01_Interior_Stack_01_29"},{"mesh":22,"name":"UCX_SM_Bld_HighRise_Medium_01_Interior_Stack_01_3"},{"mesh":23,"name":"UCX_SM_Bld_HighRise_Medium_01_Interior_Stack_01_30"},{"mesh":24,"name":"UCX_SM_Bld_HighRise_Medium_01_Interior_Stack_01_31"},{"mesh":25,"name":"UCX_SM_Bld_HighRise_Medium_01_Interior_Stack_01_32"},{"mesh":26,"name":"UCX_SM_Bld_HighRise_Medium_01_Interior_Stack_01_33"},{"mesh":27,"name":"UCX_SM_Bld_HighRise_Medium_01_Interior_Stack_01_34"},{"mesh":28,"name":"UCX_SM_Bld_HighRise_Medium_01_Interior_Stack_01_35"},{"mesh":29,"name":"UCX_SM_Bld_HighRise_Medium_01_Interior_Stack_01_36"},{"mesh":30,"name":"UCX_SM_Bld_HighRise_Medium_01_Interior_Stack_01_37"},{"mesh":31,"name":"UCX_SM_Bld_HighRise_Medium_01_Interior_Stack_01_38"},{"mesh":32,"name":"UCX_SM_Bld_HighRise_Medium_01_Interior_Stack_01_39"},{"mesh":33,"name":"UCX_SM_Bld_HighRise_Medium_01_Interior_Stack_01_4"},{"mesh":34,"name":"UCX_SM_Bld_HighRise_Medium_01_Interior_Stack_01_40"},{"mesh":35,"name":"UCX_SM_Bld_HighRise_Medium_01_Interior_Stack_01_41"},{"mesh":36,"name":"UCX_SM_Bld_HighRise_Medium_01_Interior_Stack_01_5"},{"mesh":37,"name":"UCX_SM_Bld_HighRise_Medium_01_Interior_Stack_01_6"},{"mesh":38,"name":"UCX_SM_Bld_HighRise_Medium_01_Interior_Stack_01_7"},{"mesh":39,"name":"UCX_SM_Bld_HighRise_Medium_01_Interior_Stack_01_8"},{"mesh":40,"name":"UCX_SM_Bld_HighRise_Medium_01_Interior_Stack_01_9"},{"children":[0,1,2,3,4,5,6,7,8,9,10,11,12,13,14,15,16,17,18,19,20,21,22,23,24,25,26,27,28,29,30,31,32,33,34,35,36,37,38,39,40],"mesh":41,"name":"SM_Bld_HighRise_Medium_01_Interior_Stack_01","rotation":[0.7071068286895752,0,0,0.7071068286895752],"scale":[0.009999999776482582,0.009999999776482582,0.009999999776482582]}],"materials":[{"alphaMode":"MASK","doubleSided":true,"name":"lambert3","pbrMetallicRoughness":{"baseColorFactor":[1,1,1,0.29323261976242065],"baseColorTexture":{"index":0},"metallicFactor":0,"roughnessFactor":0.5527864098548889},"alphaCutoff":0.5},{"doubleSided":true,"name":"lambert36","pbrMetallicRoughness":{"baseColorTexture":{"index":1},"metallicFactor":0,"roughnessFactor":0.5527864098548889}}],"meshes":[{"name":"Mesh.015","primitives":[{"attributes":{"POSITION":0,"NORMAL":1,"TEXCOORD_0":2},"indices":3,"material":0}]},{"name":"Mesh.021","primitives":[{"attributes":{"POSITION":4,"NORMAL":5,"TEXCOORD_0":6},"indices":3,"material":0}]},{"name":"Mesh.022","primitives":[{"attributes":{"POSITION":7,"NORMAL":8,"TEXCOORD_0":9},"indices":10,"material":0}]},{"name":"Mesh.023","primitives":[{"attributes":{"POSITION":11,"NORMAL":12,"TEXCOORD_0":13},"indices":3,"material":0}]},{"name":"Mesh.024","primitives":[{"attributes":{"POSITION":14,"NORMAL":15,"TEXCOORD_0":16},"indices":3,"material":0}]},{"name":"Mesh.025","primitives":[{"attributes":{"POSITION":17,"NORMAL":18,"TEXCOORD_0":19},"indices":10,"material":0}]},{"name":"Mesh.026","primitives":[{"attributes":{"POSITION":20,"NORMAL":21,"TEXCOORD_0":22},"indices":3,"material":0}]},{"name":"Mesh.027","primitives":[{"attributes":{"POSITION":23,"NORMAL":24,"TEXCOORD_0":25},"indices":3,"material":0}]},{"name":"Mesh.028","primitives":[{"attributes":{"POSITION":26,"NORMAL":27,"TEXCOORD_0":28},"indices":3,"material":0}]},{"name":"Mesh.029","primitives":[{"attributes":{"POSITION":29,"NORMAL":30,"TEXCOORD_0":31},"indices":3,"material":0}]},{"name":"Mesh.030","primitives":[{"attributes":{"POSITION":32,"NORMAL":33,"TEXCOORD_0":34},"indices":3,"material":0}]},{"name":"Mesh.016","primitives":[{"attributes":{"POSITION":35,"NORMAL":36,"TEXCOORD_0":37},"indices":10,"material":0}]},{"name":"Mesh.031","primitives":[{"attributes":{"POSITION":38,"NORMAL":39,"TEXCOORD_0":40},"indices":3,"material":0}]},{"name":"Mesh.032","primitives":[{"attributes":{"POSITION":41,"NORMAL":42,"TEXCOORD_0":43},"indices":10,"material":0}]},{"name":"Mesh.010","primitives":[{"attributes":{"POSITION":44,"NORMAL":45,"TEXCOORD_0":46},"indices":10,"material":0}]},{"name":"Mesh.033","primitives":[{"attributes":{"POSITION":47,"NORMAL":48,"TEXCOORD_0":49},"indices":50,"material":0}]},{"name":"Mesh.034","primitives":[{"attributes":{"POSITION":51,"NORMAL":52,"TEXCOORD_0":53},"indices":54,"material":0}]},{"name":"Mesh.035","primitives":[{"attributes":{"POSITION":55,"NORMAL":56,"TEXCOORD_0":57},"indices":58,"material":0}]},{"name":"Mesh.036","primitives":[{"attributes":{"POSITION":59,"NORMAL":60,"TEXCOORD_0":61},"indices":3,"material":0}]},{"name":"Mesh.011","primitives":[{"attributes":{"POSITION":62,"NORMAL":63,"TEXCOORD_0":64},"indices":10,"material":0}]},{"name":"Mesh.037","primitives":[{"attributes":{"POSITION":65,"NORMAL":66,"TEXCOORD_0":67},"indices":50,"material":0}]},{"name":"Mesh.013","primitives":[{"attributes":{"POSITION":68,"NORMAL":69,"TEXCOORD_0":70},"indices":54,"material":0}]},{"name":"Mesh.001","primitives":[{"attributes":{"POSITION":71,"NORMAL":72,"TEXCOORD_0":73},"indices":3,"material":0}]},{"name":"Mesh.012","primitives":[{"attributes":{"POSITION":74,"NORMAL":75,"TEXCOORD_0":76},"indices":58,"material":0}]},{"name":"Mesh.014","primitives":[{"attributes":{"POSITION":77,"NORMAL":78,"TEXCOORD_0":79},"indices":3,"material":0}]},{"name":"Mesh.002","primitives":[{"attributes":{"POSITION":80,"NORMAL":81,"TEXCOORD_0":82},"indices":3,"material":0}]},{"name":"Mesh.038","primitives":[{"attributes":{"POSITION":83,"NORMAL":84,"TEXCOORD_0":85},"indices":3,"material":0}]},{"name":"Mesh.039","primitives":[{"attributes":{"POSITION":86,"NORMAL":87,"TEXCOORD_0":88},"indices":3,"material":0}]},{"name":"Mesh.040","primitives":[{"attributes":{"POSITION":89,"NORMAL":90,"TEXCOORD_0":91},"indices":10,"material":0}]},{"name":"Mesh.007","primitives":[{"attributes":{"POSITION":92,"NORMAL":93,"TEXCOORD_0":94},"indices":3,"material":0}]},{"name":"Mesh.006","primitives":[{"attributes":{"POSITION":95,"NORMAL":96,"TEXCOORD_0":97},"indices":3,"material":0}]},{"name":"Mesh.041","primitives":[{"attributes":{"POSITION":98,"NORMAL":99,"TEXCOORD_0":100},"indices":3,"material":0}]},{"name":"Mesh.003","primitives":[{"attributes":{"POSITION":101,"NORMAL":102,"TEXCOORD_0":103},"indices":3,"material":0}]},{"name":"Mesh.017","primitives":[{"attributes":{"POSITION":104,"NORMAL":105,"TEXCOORD_0":106},"indices":3,"material":0}]},{"name":"Mesh.009","primitives":[{"attributes":{"POSITION":107,"NORMAL":108,"TEXCOORD_0":109},"indices":10,"material":0}]},{"name":"Mesh.008","primitives":[{"attributes":{"POSITION":110,"NORMAL":111,"TEXCOORD_0":112},"indices":3,"material":0}]},{"name":"Mesh.018","primitives":[{"attributes":{"POSITION":113,"NORMAL":114,"TEXCOORD_0":115},"indices":10,"material":0}]},{"name":"Mesh.019","primitives":[{"attributes":{"POSITION":116,"NORMAL":117,"TEXCOORD_0":118},"indices":3,"material":0}]},{"name":"Mesh.004","primitives":[{"attributes":{"POSITION":119,"NORMAL":120,"TEXCOORD_0":121},"indices":3,"material":0}]},{"name":"Mesh.005","primitives":[{"attributes":{"POSITION":122,"NORMAL":123,"TEXCOORD_0":124},"indices":3,"material":0}]},{"name":"Mesh.020","primitives":[{"attributes":{"POSITION":125,"NORMAL":126,"TEXCOORD_0":127},"indices":10,"material":0}]},{"name":"Mesh","primitives":[{"attributes":{"POSITION":128,"NORMAL":129,"TEXCOORD_0":130},"indices":131,"material":1}]}],"textures":[{"extensions":{"EXT_texture_webp":{"source":0}},"sampler":0},{"extensions":{"EXT_texture_webp":{"source":0}},"sampler":0}],"images":[{"mimeType":"image/webp","name":"PolygonApocalypse_Texture_01_A","uri":"PolygonApocalypse_Texture_01_A.webp"}],"accessors":[{"bufferView":0,"componentType":5126,"count":24,"max":[502.25244140625,-466.46875,-351.3441162109375],"min":[483.33447265625,-650.25048828125,-469.539794921875],"type":"VEC3"},{"bufferView":1,"componentType":5126,"count":24,"type":"VEC3"},{"bufferView":2,"componentType":5126,"count":24,"type":"VEC2"},{"bufferView":3,"componentType":5123,"count":36,"type":"SCALAR"},{"bufferView":4,"componentType":5126,"count":24,"max":[143.82369995117188,323.53070068359375,-377.7713623046875],"min":[-84.56249237060547,297.7835693359375,-977.771240234375],"type":"VEC3"},{"bufferView":5,"componentType":5126,"count":24,"type":"VEC3"},{"bufferView":6,"componentType":5126,"count":24,"type":"VEC2"},{"bufferView":7,"componentType":5126,"count":24,"max":[-84.56256866455078,573.53076171875,-377.7713623046875],"min":[-103.46481323242188,297.7835998535156,-977.771240234375],"type":"VEC3"},{"bufferView":8,"componentType":5126,"count":24,"type":"VEC3"},{"bufferView":9,"componentType":5126,"count":24,"type":"VEC2"},{"bufferView":10,"componentType":5123,"count":36,"type":"SCALAR"},{"bufferView":11,"componentType":5126,"count":24,"max":[665.4375,573.5307006835938,-377.7713623046875],"min":[125.43701934814453,550.4783325195312,-977.771240234375],"type":"VEC3"},{"bufferView":12,"componentType":5126,"count":24,"type":"VEC3"},{"bufferView":13,"componentType":5126,"count":24,"type":"VEC2"},{"bufferView":14,"componentType":5126,"count":24,"max":[-84.56248474121094,573.5307006835938,-377.7713623046875],"min":[-624.56298828125,550.4783325195312,-977.771240234375],"type":"VEC3"},{"bufferView":15,"componentType":5126,"count":24,"type":"VEC3"},{"bufferView":16,"componentType":5126,"count":24,"type":"VEC2"},{"bufferView":17,"componentType":5126,"count":24,"max":[-599.9884643554688,573.53076171875,-377.7713623046875],"min":[-624.5614624023438,-466.46875,-977.771240234375],"type":"VEC3"},{"bufferView":18,"componentType":5126,"count":24,"type":"VEC3"},{"bufferView":19,"componentType":5126,"count":24,"type":"VEC2"},{"bufferView":20,"componentType":5126,"count":24,"max":[-179.762451171875,-444.27105712890625,-914.411865234375],"min":[-282.98974609375,-466.46868896484375,-977.771240234375],"type":"VEC3"},{"bufferView":21,"componentType":5126,"count":24,"type":"VEC3"},{"bufferView":22,"componentType":5126,"count":24,"type":"VEC2"},{"bufferView":23,"componentType":5126,"count":24,"max":[-179.762451171875,-444.27105712890625,-610.507568359375],"min":[-282.98974609375,-466.46868896484375,-690.476806640625],"type":"VEC3"},{"bufferView":24,"componentType":5126,"count":24,"type":"VEC3"},{"bufferView":25,"componentType":5126,"count":24,"type":"VEC2"},{"bufferView":26,"componentType":5126,"count":24,"max":[-282.98974609375,-444.27105712890625,-610.507568359375],"min":[-624.5615234375,-466.46868896484375,-977.771240234375],"type":"VEC3"},{"bufferView":27,"componentType":5126,"count":24,"type":"VEC3"},{"bufferView":28,"componentType":5126,"count":24,"type":"VEC2"},{"bufferView":29,"componentType":5126,"count":24,"max":[321.84033203125,-444.27105712890625,-610.507568359375],"min":[-179.76246643066406,-466.46868896484375,-977.771240234375],"type":"VEC3"},{"bufferView":30,"componentType":5126,"count":24,"type":"VEC3"},{"bufferView":31,"componentType":5126,"count":24,"type":"VEC2"},{"bufferView":32,"componentType":5126,"count":24,"max":[217.00927734375,-444.27105712890625,-377.7713623046875],"min":[-624.5615234375,-466.4687194824219,-610.507568359375],"type":"VEC3"},{"bufferView":33,"componentType":5126,"count":24,"type":"VEC3"},{"bufferView":34,"componentType":5126,"count":24,"type":"VEC2"},{"bufferView":35,"componentType":5126,"count":24,"max":[502.25244140625,-628.507568359375,-351.3441162109375],"min":[-502.2524108886719,-650.25048828125,-469.539794921875],"type":"VEC3"},{"bufferView":36,"componentType":5126,"count":24,"type":"VEC3"},{"bufferView":37,"componentType":5126,"count":24,"type":"VEC2"},{"bufferView":38,"componentType":5126,"count":24,"max":[665.43701171875,-444.27105712890625,-377.7713623046875],"min":[321.84033203125,-466.46868896484375,-977.771240234375],"type":"VEC3"},{"bufferView":39,"componentType":5126,"count":24,"type":"VEC3"},{"bufferView":40,"componentType":5126,"count":24,"type":"VEC2"},{"bufferView":41,"componentType":5126,"count":24,"max":[665.4369506835938,573.53076171875,-377.7713623046875],"min":[639.588623046875,-466.4687194824219,-977.771240234375],"type":"VEC3"},{"bufferView":42,"componentType":5126,"count":24,"type":"VEC3"},{"bufferView":43,"componentType":5126,"count":24,"type":"VEC2"},{"bufferView":44,"componentType":5126,"count":24,"max":[647.3889770507812,-287.0877990722656,-807.5606079101562],"min":[502.750732421875,-446.155029296875,-837.5394287109375],"type":"VEC3"},{"bufferView":45,"componentType":5126,"count":24,"type":"VEC3"},{"bufferView":46,"componentType":5126,"count":24,"type":"VEC2"},{"bufferView":47,"componentType":5126,"count":24,"max":[647.3890380859375,-113.44496154785156,-819.5852661132812],"min":[517.594970703125,-286.0926818847656,-991.7006225585938],"type":"VEC3"},{"bufferView":48,"componentType":5126,"count":24,"type":"VEC3"},{"bufferView":49,"componentType":5126,"count":24,"type":"VEC2"},{"bufferView":50,"componentType":5123,"count":36,"type":"SCALAR"},{"bufferView":51,"componentType":5126,"count":24,"max":[502.750732421875,-287.0877685546875,-672.5319213867188],"min":[336.4064636230469,-446.1550598144531,-837.5079956054688],"type":"VEC3"},{"bufferView":52,"componentType":5126,"count":24,"type":"VEC3"},{"bufferView":53,"componentType":5126,"count":24,"type":"VEC2"},{"bufferView":54,"componentType":5123,"count":36,"type":"SCALAR"},{"bufferView":55,"componentType":5126,"count":24,"max":[517.594970703125,-267.6005554199219,-687.188720703125],"min":[352.2117614746094,-287.0877990722656,-992.4937133789062],"type":"VEC3"},{"bufferView":56,"componentType":5126,"count":24,"type":"VEC3"},{"bufferView":57,"componentType":5126,"count":24,"type":"VEC2"},{"bufferView":58,"componentType":5123,"count":36,"type":"SCALAR"},{"bufferView":59,"componentType":5126,"count":24,"max":[517.594970703125,-115.04642486572266,-682.7261962890625],"min":[496.1507263183594,-287.0877990722656,-988.0311279296875],"type":"VEC3"},{"bufferView":60,"componentType":5126,"count":24,"type":"VEC3"},{"bufferView":61,"componentType":5126,"count":24,"type":"VEC2"},{"bufferView":62,"componentType":5126,"count":24,"max":[647.3889770507812,-287.0877990722656,-502.6143493652344],"min":[502.750732421875,-446.155029296875,-532.5931396484375],"type":"VEC3"},{"bufferView":63,"componentType":5126,"count":24,"type":"VEC3"},{"bufferView":64,"componentType":5126,"count":24,"type":"VEC2"},{"bufferView":65,"componentType":5126,"count":24,"max":[647.3890380859375,-113.44496154785156,-514.6389770507812],"min":[517.594970703125,-286.0926818847656,-686.75439453125],"type":"VEC3"},{"bufferView":66,"componentType":5126,"count":24,"type":"VEC3"},{"bufferView":67,"componentType":5126,"count":24,"type":"VEC2"},{"bufferView":68,"componentType":5126,"count":24,"max":[502.750732421875,-287.0877685546875,-367.58563232421875],"min":[336.4064636230469,-446.1550598144531,-532.5617065429688],"type":"VEC3"},{"bufferView":69,"componentType":5126,"count":24,"type":"VEC3"},{"bufferView":70,"componentType":5126,"count":24,"type":"VEC2"},{"bufferView":71,"componentType":5126,"count":24,"max":[-483.33447265625,-466.47021484375,-351.3441162109375],"min":[-502.25225830078125,-650.251953125,-469.54052734375],"type":"VEC3"},{"bufferView":72,"componentType":5126,"count":24,"type":"VEC3"},{"bufferView":73,"componentType":5126,"count":24,"type":"VEC2"},{"bufferView":74,"componentType":5126,"count":24,"max":[517.594970703125,-267.6005554199219,-382.242431640625],"min":[352.2117614746094,-287.0877990722656,-687.5474243164062],"type":"VEC3"},{"bufferView":75,"componentType":5126,"count":24,"type":"VEC3"},{"bufferView":76,"componentType":5126,"count":24,"type":"VEC2"},{"bufferView":77,"componentType":5126,"count":24,"max":[517.594970703125,-115.04642486572266,-377.7799377441406],"min":[496.1507263183594,-287.0877990722656,-683.0848999023438],"type":"VEC3"},{"bufferView":78,"componentType":5126,"count":24,"type":"VEC3"},{"bufferView":79,"componentType":5126,"count":24,"type":"VEC2"},{"bufferView":80,"componentType":5126,"count":24,"max":[665.4375,573.5307006835938,-377.7713623046875],"min":[125.4369888305664,-115.04641723632812,-382.242431640625],"type":"VEC3"},{"bufferView":81,"componentType":5126,"count":24,"type":"VEC3"},{"bufferView":82,"componentType":5126,"count":24,"type":"VEC2"},{"bufferView":83,"componentType":5126,"count":24,"max":[329.6845703125,-290.25286865234375,-377.7713623046875],"min":[125.43701171875,-466.46875,-382.242431640625],"type":"VEC3"},{"bufferView":84,"componentType":5126,"count":24,"type":"VEC3"},{"bufferView":85,"componentType":5126,"count":24,"type":"VEC2"},{"bufferView":86,"componentType":5126,"count":24,"max":[125.43700408935547,323.53076171875,-377.7713623046875],"min":[-624.5615234375,-466.46875,-382.242431640625],"type":"VEC3"},{"bufferView":87,"componentType":5126,"count":24,"type":"VEC3"},{"bufferView":88,"componentType":5126,"count":24,"type":"VEC2"},{"bufferView":89,"componentType":5126,"count":24,"max":[519.7975463867188,-115.04638671875,-377.7713623046875],"min":[125.43700408935547,-290.25286865234375,-382.242431640625],"type":"VEC3"},{"bufferView":90,"componentType":5126,"count":24,"type":"VEC3"},{"bufferView":91,"componentType":5126,"count":24,"type":"VEC2"},{"bufferView":92,"componentType":5126,"count":24,"max":[-84.5625,573.53076171875,-377.7713623046875],"min":[-624.56298828125,323.53076171875,-382.242431640625],"type":"VEC3"},{"bufferView":93,"componentType":5126,"count":24,"type":"VEC3"},{"bufferView":94,"componentType":5126,"count":24,"type":"VEC2"},{"bufferView":95,"componentType":5126,"count":24,"max":[665.4375,573.5307006835938,-668.29150390625],"min":[125.4369888305664,-115.04641723632812,-686.6731567382812],"type":"VEC3"},{"bufferView":96,"componentType":5126,"count":24,"type":"VEC3"},{"bufferView":97,"componentType":5126,"count":24,"type":"VEC2"},{"bufferView":98,"componentType":5126,"count":24,"max":[329.6845703125,-290.25286865234375,-668.29150390625],"min":[125.43701171875,-466.46875,-686.6731567382812],"type":"VEC3"},{"bufferView":99,"componentType":5126,"count":24,"type":"VEC3"},{"bufferView":100,"componentType":5126,"count":24,"type":"VEC2"},{"bufferView":101,"componentType":5126,"count":24,"max":[125.43700408935547,323.53076171875,-668.29150390625],"min":[-624.5615234375,-466.46875,-686.6731567382812],"type":"VEC3"},{"bufferView":102,"componentType":5126,"count":24,"type":"VEC3"},{"bufferView":103,"componentType":5126,"count":24,"type":"VEC2"},{"bufferView":104,"componentType":5126,"count":24,"max":[-483.33447265625,-466.47021484375,-645.732666015625],"min":[-502.25225830078125,-650.251953125,-763.9290771484375],"type":"VEC3"},{"bufferView":105,"componentType":5126,"count":24,"type":"VEC3"},{"bufferView":106,"componentType":5126,"count":24,"type":"VEC2"},{"bufferView":107,"componentType":5126,"count":24,"max":[519.7975463867188,-115.04638671875,-668.29150390625],"min":[125.43700408935547,-290.25286865234375,-686.6731567382812],"type":"VEC3"},{"bufferView":108,"componentType":5126,"count":24,"type":"VEC3"},{"bufferView":109,"componentType":5126,"count":24,"type":"VEC2"},{"bufferView":110,"componentType":5126,"count":24,"max":[-84.5625,573.53076171875,-668.29150390625],"min":[-624.56298828125,323.53076171875,-686.6731567382812],"type":"VEC3"},{"bufferView":111,"componentType":5126,"count":24,"type":"VEC3"},{"bufferView":112,"componentType":5126,"count":24,"type":"VEC2"},{"bufferView":113,"componentType":5126,"count":24,"max":[502.25244140625,-628.507568359375,-645.732666015625],"min":[-502.2524108886719,-650.25048828125,-763.9283447265625],"type":"VEC3"},{"bufferView":114,"componentType":5126,"count":24,"type":"VEC3"},{"bufferView":115,"componentType":5126,"count":24,"type":"VEC2"},{"bufferView":116,"componentType":5126,"count":24,"max":[502.25244140625,-466.46875,-645.732666015625],"min":[483.33447265625,-650.25048828125,-763.9283447265625],"type":"VEC3"},{"bufferView":117,"componentType":5126,"count":24,"type":"VEC3"},{"bufferView":118,"componentType":5126,"count":24,"type":"VEC2"},{"bufferView":119,"componentType":5126,"count":24,"max":[502.25244140625,-466.46875,-645.732666015625],"min":[-502.2522277832031,-650.25048828125,-685.5609130859375],"type":"VEC3"},{"bufferView":120,"componentType":5126,"count":24,"type":"VEC3"},{"bufferView":121,"componentType":5126,"count":24,"type":"VEC2"},{"bufferView":122,"componentType":5126,"count":24,"max":[502.25244140625,-466.46875,-351.3441162109375],"min":[-502.2522277832031,-650.25048828125,-391.17236328125],"type":"VEC3"},{"bufferView":123,"componentType":5126,"count":24,"type":"VEC3"},{"bufferView":124,"componentType":5126,"count":24,"type":"VEC2"},{"bufferView":125,"componentType":5126,"count":24,"max":[143.82369995117188,551.9169311523438,-377.7713623046875],"min":[125.43708038330078,323.53076171875,-977.771240234375],"type":"VEC3"},{"bufferView":126,"componentType":5126,"count":24,"type":"VEC3"},{"bufferView":127,"componentType":5126,"count":24,"type":"VEC2"},{"bufferView":128,"componentType":5126,"count":7382,"max":[680.60791015625,588.70166015625,-349.74725341796875],"min":[-639.734375,-650.251953125,-982.242431640625],"type":"VEC3"},{"bufferView":129,"componentType":5126,"count":7382,"type":"VEC3"},{"bufferView":130,"componentType":5126,"count":7382,"type":"VEC2"},{"bufferView":131,"componentType":5123,"count":14178,"type":"SCALAR"}],"bufferViews":[{"buffer":0,"byteLength":288,"byteOffset":0,"target":34962},{"buffer":0,"byteLength":288,"byteOffset":288,"target":34962},{"buffer":0,"byteLength":192,"byteOffset":576,"target":34962},{"buffer":0,"byteLength":72,"byteOffset":768,"target":34963},{"buffer":0,"byteLength":288,"byteOffset":840,"target":34962},{"buffer":0,"byteLength":288,"byteOffset":1128,"target":34962},{"buffer":0,"byteLength":192,"byteOffset":1416,"target":34962},{"buffer":0,"byteLength":288,"byteOffset":1608,"target":34962},{"buffer":0,"byteLength":288,"byteOffset":1896,"target":34962},{"buffer":0,"byteLength":192,"byteOffset":2184,"target":34962},{"buffer":0,"byteLength":72,"byteOffset":2376,"target":34963},{"buffer":0,"byteLength":288,"byteOffset":2448,"target":34962},{"buffer":0,"byteLength":288,"byteOffset":2736,"target":34962},{"buffer":0,"byteLength":192,"byteOffset":3024,"target":34962},{"buffer":0,"byteLength":288,"byteOffset":3216,"target":34962},{"buffer":0,"byteLength":288,"byteOffset":3504,"target":34962},{"buffer":0,"byteLength":192,"byteOffset":3792,"target":34962},{"buffer":0,"byteLength":288,"byteOffset":3984,"target":34962},{"buffer":0,"byteLength":288,"byteOffset":4272,"target":34962},{"buffer":0,"byteLength":192,"byteOffset":4560,"target":34962},{"buffer":0,"byteLength":288,"byteOffset":4752,"target":34962},{"buffer":0,"byteLength":288,"byteOffset":5040,"target":34962},{"buffer":0,"byteLength":192,"byteOffset":5328,"target":34962},{"buffer":0,"byteLength":288,"byteOffset":5520,"target":34962},{"buffer":0,"byteLength":288,"byteOffset":5808,"target":34962},{"buffer":0,"byteLength":192,"byteOffset":6096,"target":34962},{"buffer":0,"byteLength":288,"byteOffset":6288,"target":34962},{"buffer":0,"byteLength":288,"byteOffset":6576,"target":34962},{"buffer":0,"byteLength":192,"byteOffset":6864,"target":34962},{"buffer":0,"byteLength":288,"byteOffset":7056,"target":34962},{"buffer":0,"byteLength":288,"byteOffset":7344,"target":34962},{"buffer":0,"byteLength":192,"byteOffset":7632,"target":34962},{"buffer":0,"byteLength":288,"byteOffset":7824,"target":34962},{"buffer":0,"byteLength":288,"byteOffset":8112,"target":34962},{"buffer":0,"byteLength":192,"byteOffset":8400,"target":34962},{"buffer":0,"byteLength":288,"byteOffset":8592,"target":34962},{"buffer":0,"byteLength":288,"byteOffset":8880,"target":34962},{"buffer":0,"byteLength":192,"byteOffset":9168,"target":34962},{"buffer":0,"byteLength":288,"byteOffset":9360,"target":34962},{"buffer":0,"byteLength":288,"byteOffset":9648,"target":34962},{"buffer":0,"byteLength":192,"byteOffset":9936,"target":34962},{"buffer":0,"byteLength":288,"byteOffset":10128,"target":34962},{"buffer":0,"byteLength":288,"byteOffset":10416,"target":34962},{"buffer":0,"byteLength":192,"byteOffset":10704,"target":34962},{"buffer":0,"byteLength":288,"byteOffset":10896,"target":34962},{"buffer":0,"byteLength":288,"byteOffset":11184,"target":34962},{"buffer":0,"byteLength":192,"byteOffset":11472,"target":34962},{"buffer":0,"byteLength":288,"byteOffset":11664,"target":34962},{"buffer":0,"byteLength":288,"byteOffset":11952,"target":34962},{"buffer":0,"byteLength":192,"byteOffset":12240,"target":34962},{"buffer":0,"byteLength":72,"byteOffset":12432,"target":34963},{"buffer":0,"byteLength":288,"byteOffset":12504,"target":34962},{"buffer":0,"byteLength":288,"byteOffset":12792,"target":34962},{"buffer":0,"byteLength":192,"byteOffset":13080,"target":34962},{"buffer":0,"byteLength":72,"byteOffset":13272,"target":34963},{"buffer":0,"byteLength":288,"byteOffset":13344,"target":34962},{"buffer":0,"byteLength":288,"byteOffset":13632,"target":34962},{"buffer":0,"byteLength":192,"byteOffset":13920,"target":34962},{"buffer":0,"byteLength":72,"byteOffset":14112,"target":34963},{"buffer":0,"byteLength":288,"byteOffset":14184,"target":34962},{"buffer":0,"byteLength":288,"byteOffset":14472,"target":34962},{"buffer":0,"byteLength":192,"byteOffset":14760,"target":34962},{"buffer":0,"byteLength":288,"byteOffset":14952,"target":34962},{"buffer":0,"byteLength":288,"byteOffset":15240,"target":34962},{"buffer":0,"byteLength":192,"byteOffset":15528,"target":34962},{"buffer":0,"byteLength":288,"byteOffset":15720,"target":34962},{"buffer":0,"byteLength":288,"byteOffset":16008,"target":34962},{"buffer":0,"byteLength":192,"byteOffset":16296,"target":34962},{"buffer":0,"byteLength":288,"byteOffset":16488,"target":34962},{"buffer":0,"byteLength":288,"byteOffset":16776,"target":34962},{"buffer":0,"byteLength":192,"byteOffset":17064,"target":34962},{"buffer":0,"byteLength":288,"byteOffset":17256,"target":34962},{"buffer":0,"byteLength":288,"byteOffset":17544,"target":34962},{"buffer":0,"byteLength":192,"byteOffset":17832,"target":34962},{"buffer":0,"byteLength":288,"byteOffset":18024,"target":34962},{"buffer":0,"byteLength":288,"byteOffset":18312,"target":34962},{"buffer":0,"byteLength":192,"byteOffset":18600,"target":34962},{"buffer":0,"byteLength":288,"byteOffset":18792,"target":34962},{"buffer":0,"byteLength":288,"byteOffset":19080,"target":34962},{"buffer":0,"byteLength":192,"byteOffset":19368,"target":34962},{"buffer":0,"byteLength":288,"byteOffset":19560,"target":34962},{"buffer":0,"byteLength":288,"byteOffset":19848,"target":34962},{"buffer":0,"byteLength":192,"byteOffset":20136,"target":34962},{"buffer":0,"byteLength":288,"byteOffset":20328,"target":34962},{"buffer":0,"byteLength":288,"byteOffset":20616,"target":34962},{"buffer":0,"byteLength":192,"byteOffset":20904,"target":34962},{"buffer":0,"byteLength":288,"byteOffset":21096,"target":34962},{"buffer":0,"byteLength":288,"byteOffset":21384,"target":34962},{"buffer":0,"byteLength":192,"byteOffset":21672,"target":34962},{"buffer":0,"byteLength":288,"byteOffset":21864,"target":34962},{"buffer":0,"byteLength":288,"byteOffset":22152,"target":34962},{"buffer":0,"byteLength":192,"byteOffset":22440,"target":34962},{"buffer":0,"byteLength":288,"byteOffset":22632,"target":34962},{"buffer":0,"byteLength":288,"byteOffset":22920,"target":34962},{"buffer":0,"byteLength":192,"byteOffset":23208,"target":34962},{"buffer":0,"byteLength":288,"byteOffset":23400,"target":34962},{"buffer":0,"byteLength":288,"byteOffset":23688,"target":34962},{"buffer":0,"byteLength":192,"byteOffset":23976,"target":34962},{"buffer":0,"byteLength":288,"byteOffset":24168,"target":34962},{"buffer":0,"byteLength":288,"byteOffset":24456,"target":34962},{"buffer":0,"byteLength":192,"byteOffset":24744,"target":34962},{"buffer":0,"byteLength":288,"byteOffset":24936,"target":34962},{"buffer":0,"byteLength":288,"byteOffset":25224,"target":34962},{"buffer":0,"byteLength":192,"byteOffset":25512,"target":34962},{"buffer":0,"byteLength":288,"byteOffset":25704,"target":34962},{"buffer":0,"byteLength":288,"byteOffset":25992,"target":34962},{"buffer":0,"byteLength":192,"byteOffset":26280,"target":34962},{"buffer":0,"byteLength":288,"byteOffset":26472,"target":34962},{"buffer":0,"byteLength":288,"byteOffset":26760,"target":34962},{"buffer":0,"byteLength":192,"byteOffset":27048,"target":34962},{"buffer":0,"byteLength":288,"byteOffset":27240,"target":34962},{"buffer":0,"byteLength":288,"byteOffset":27528,"target":34962},{"buffer":0,"byteLength":192,"byteOffset":27816,"target":34962},{"buffer":0,"byteLength":288,"byteOffset":28008,"target":34962},{"buffer":0,"byteLength":288,"byteOffset":28296,"target":34962},{"buffer":0,"byteLength":192,"byteOffset":28584,"target":34962},{"buffer":0,"byteLength":288,"byteOffset":28776,"target":34962},{"buffer":0,"byteLength":288,"byteOffset":29064,"target":34962},{"buffer":0,"byteLength":192,"byteOffset":29352,"target":34962},{"buffer":0,"byteLength":288,"byteOffset":29544,"target":34962},{"buffer":0,"byteLength":288,"byteOffset":29832,"target":34962},{"buffer":0,"byteLength":192,"byteOffset":30120,"target":34962},{"buffer":0,"byteLength":288,"byteOffset":30312,"target":34962},{"buffer":0,"byteLength":288,"byteOffset":30600,"target":34962},{"buffer":0,"byteLength":192,"byteOffset":30888,"target":34962},{"buffer":0,"byteLength":288,"byteOffset":31080,"target":34962},{"buffer":0,"byteLength":288,"byteOffset":31368,"target":34962},{"buffer":0,"byteLength":192,"byteOffset":31656,"target":34962},{"buffer":0,"byteLength":88584,"byteOffset":31848,"target":34962},{"buffer":0,"byteLength":88584,"byteOffset":120432,"target":34962},{"buffer":0,"byteLength":59056,"byteOffset":209016,"target":34962},{"buffer":0,"byteLength":28356,"byteOffset":268072,"target":34963}],"samplers":[{"magFilter":9729,"minFilter":9987}],"buffers":[{"byteLength":296428,"uri":"apoc_SM_Bld_HighRise_Medium_01_Interior_Stack_01.bin"}]}