{
	"asset":{
		"generator":"Khronos glTF Blender I/O v4.4.55",
		"version":"2.0"
	},
	"extensionsUsed":[
		"EXT_texture_webp"
	],
	"extensionsRequired":[
		"EXT_texture_webp"
	],
	"scene":0,
	"scenes":[
		{
			"name":"Scene",
			"nodes":[
				0
			]
		}
	],
	"nodes":[
		{
			"mesh":0,
			"name":"SM_Prop_Trash_01",
			"rotation":[
				0.7071068286895752,
				0,
				0,
				0.7071068286895752
			],
			"scale":[
				0.009999999776482582,
				0.009999999776482582,
				0.009999999776482582
			]
		}
	],
	"materials":[
		{
			"doubleSided":true,
			"name":"PolygonApocalypse_Mat_01_A",
			"pbrMetallicRoughness":{
				"baseColorTexture":{
					"index":0
				},
				"metallicFactor":0,
				"roughnessFactor":0.5527864098548889
			}
		}
	],
	"meshes":[
		{
			"name":"Mesh",
			"primitives":[
				{
					"attributes":{
						"POSITION":0,
						"NORMAL":1,
						"TEXCOORD_0":2,
						"TEXCOORD_1":3
					},
					"indices":4,
					"material":0
				}
			]
		}
	],
	"textures":[
		{
			"extensions":{
				"EXT_texture_webp":{
					"source":0
				}
			},
			"sampler":0
		}
	],
	"images":[
		{
			"mimeType":"image/webp",
			"name":"PolygonApocalypse_Texture_01_A",
			"uri":"PolygonApocalypse_Texture_01_A.webp"
		}
	],
	"accessors":[
		{
			"bufferView":0,
			"componentType":5126,
			"count":6255,
			"max":[
				-225.3724365234375,
				1154.152587890625,
				66.72604370117188
			],
			"min":[
				-773.80517578125,
				872.1651000976562,
				-56.99113464355469
			],
			"type":"VEC3"
		},
		{
			"bufferView":1,
			"componentType":5126,
			"count":6255,
			"type":"VEC3"
		},
		{
			"bufferView":2,
			"componentType":5126,
			"count":6255,
			"type":"VEC2"
		},
		{
			"bufferView":3,
			"componentType":5126,
			"count":6255,
			"type":"VEC2"
		},
		{
			"bufferView":4,
			"componentType":5123,
			"count":9465,
			"type":"SCALAR"
		}
	],
	"bufferViews":[
		{
			"buffer":0,
			"byteLength":75060,
			"byteOffset":0,
			"target":34962
		},
		{
			"buffer":0,
			"byteLength":75060,
			"byteOffset":75060,
			"target":34962
		},
		{
			"buffer":0,
			"byteLength":50040,
			"byteOffset":150120,
			"target":34962
		},
		{
			"buffer":0,
			"byteLength":50040,
			"byteOffset":200160,
			"target":34962
		},
		{
			"buffer":0,
			"byteLength":18930,
			"byteOffset":250200,
			"target":34963
		}
	],
	"samplers":[
		{
			"magFilter":9729,
			"minFilter":9987
		}
	],
	"buffers":[
		{
			"byteLength":269132,
			"uri":"apoc_SM_Prop_Trash_01.bin"
		}
	]
}
