{
	"asset":{
		"generator":"Khronos glTF Blender I/O v4.4.55",
		"version":"2.0"
	},
	"extensionsUsed":[
		"EXT_texture_webp"
	],
	"extensionsRequired":[
		"EXT_texture_webp"
	],
	"scene":0,
	"scenes":[
		{
			"name":"Scene",
			"nodes":[
				0
			]
		}
	],
	"nodes":[
		{
			"mesh":0,
			"name":"SM_Wep_Mod_Barrel_25",
			"rotation":[
				0.7071068286895752,
				0,
				0,
				0.7071068286895752
			],
			"scale":[
				0.009999999776482582,
				0.009999999776482582,
				0.009999999776482582
			]
		}
	],
	"materials":[
		{
			"doubleSided":true,
			"name":"PolygonApocalypse_Mat_01_A",
			"pbrMetallicRoughness":{
				"baseColorTexture":{
					"index":0
				},
				"metallicFactor":0,
				"roughnessFactor":0.5527864098548889
			}
		}
	],
	"meshes":[
		{
			"name":"Mesh",
			"primitives":[
				{
					"attributes":{
						"POSITION":0,
						"NORMAL":1,
						"TEXCOORD_0":2,
						"TEXCOORD_1":3
					},
					"indices":4,
					"material":0
				}
			]
		}
	],
	"textures":[
		{
			"extensions":{
				"EXT_texture_webp":{
					"source":0
				}
			},
			"sampler":0
		}
	],
	"images":[
		{
			"mimeType":"image/webp",
			"name":"PolygonApocalypse_Texture_01_C",
			"uri":"PolygonApocalypse_Texture_01_C.webp"
		}
	],
	"accessors":[
		{
			"bufferView":0,
			"componentType":5126,
			"count":1788,
			"max":[
				33.43830108642578,
				3.7180588245391846,
				3.221698760986328
			],
			"min":[
				-0.9592361450195312,
				-3.7191343307495117,
				-4.542186737060547
			],
			"type":"VEC3"
		},
		{
			"bufferView":1,
			"componentType":5126,
			"count":1788,
			"type":"VEC3"
		},
		{
			"bufferView":2,
			"componentType":5126,
			"count":1788,
			"type":"VEC2"
		},
		{
			"bufferView":3,
			"componentType":5126,
			"count":1788,
			"type":"VEC2"
		},
		{
			"bufferView":4,
			"componentType":5123,
			"count":3498,
			"type":"SCALAR"
		}
	],
	"bufferViews":[
		{
			"buffer":0,
			"byteLength":21456,
			"byteOffset":0,
			"target":34962
		},
		{
			"buffer":0,
			"byteLength":21456,
			"byteOffset":21456,
			"target":34962
		},
		{
			"buffer":0,
			"byteLength":14304,
			"byteOffset":42912,
			"target":34962
		},
		{
			"buffer":0,
			"byteLength":14304,
			"byteOffset":57216,
			"target":34962
		},
		{
			"buffer":0,
			"byteLength":6996,
			"byteOffset":71520,
			"target":34963
		}
	],
	"samplers":[
		{
			"magFilter":9729,
			"minFilter":9987
		}
	],
	"buffers":[
		{
			"byteLength":78516,
			"uri":"apoc_SM_Wep_Mod_Barrel_25.bin"
		}
	]
}
