{
	"asset":{
		"generator":"Khronos glTF Blender I/O v4.4.55",
		"version":"2.0"
	},
	"extensionsUsed":[
		"EXT_texture_webp"
	],
	"extensionsRequired":[
		"EXT_texture_webp"
	],
	"scene":0,
	"scenes":[
		{
			"name":"Scene",
			"nodes":[
				0
			]
		}
	],
	"nodes":[
		{
			"mesh":0,
			"name":"SM_Prop_Dumpster_02",
			"rotation":[
				0.7071068286895752,
				0,
				0,
				0.7071068286895752
			],
			"scale":[
				0.009999999776482582,
				0.009999999776482582,
				0.009999999776482582
			]
		}
	],
	"materials":[
		{
			"doubleSided":true,
			"name":"PolygonApocalypse_Mat_01_A",
			"pbrMetallicRoughness":{
				"baseColorTexture":{
					"index":0
				},
				"metallicFactor":0,
				"roughnessFactor":0.5527864098548889
			}
		}
	],
	"meshes":[
		{
			"name":"Mesh",
			"primitives":[
				{
					"attributes":{
						"POSITION":0,
						"NORMAL":1,
						"TEXCOORD_0":2,
						"TEXCOORD_1":3
					},
					"indices":4,
					"material":0
				}
			]
		}
	],
	"textures":[
		{
			"extensions":{
				"EXT_texture_webp":{
					"source":0
				}
			},
			"sampler":0
		}
	],
	"images":[
		{
			"mimeType":"image/webp",
			"name":"PolygonApocalypse_Texture_01_A",
			"uri":"PolygonApocalypse_Texture_01_A.webp"
		}
	],
	"accessors":[
		{
			"bufferView":0,
			"componentType":5126,
			"count":7372,
			"max":[
				81.169677734375,
				135.769287109375,
				0
			],
			"min":[
				-66.228271484375,
				-116.354736328125,
				-254.48866271972656
			],
			"type":"VEC3"
		},
		{
			"bufferView":1,
			"componentType":5126,
			"count":7372,
			"type":"VEC3"
		},
		{
			"bufferView":2,
			"componentType":5126,
			"count":7372,
			"type":"VEC2"
		},
		{
			"bufferView":3,
			"componentType":5126,
			"count":7372,
			"type":"VEC2"
		},
		{
			"bufferView":4,
			"componentType":5123,
			"count":11472,
			"type":"SCALAR"
		}
	],
	"bufferViews":[
		{
			"buffer":0,
			"byteLength":88464,
			"byteOffset":0,
			"target":34962
		},
		{
			"buffer":0,
			"byteLength":88464,
			"byteOffset":88464,
			"target":34962
		},
		{
			"buffer":0,
			"byteLength":58976,
			"byteOffset":176928,
			"target":34962
		},
		{
			"buffer":0,
			"byteLength":58976,
			"byteOffset":235904,
			"target":34962
		},
		{
			"buffer":0,
			"byteLength":22944,
			"byteOffset":294880,
			"target":34963
		}
	],
	"samplers":[
		{
			"magFilter":9729,
			"minFilter":9987
		}
	],
	"buffers":[
		{
			"byteLength":317824,
			"uri":"apoc_SM_Prop_Dumpster_02.bin"
		}
	]
}
