{
	"asset":{
		"generator":"Khronos glTF Blender I/O v4.4.55",
		"version":"2.0"
	},
	"extensionsUsed":[
		"EXT_texture_webp"
	],
	"extensionsRequired":[
		"EXT_texture_webp"
	],
	"scene":0,
	"scenes":[
		{
			"name":"Scene",
			"nodes":[
				0
			]
		}
	],
	"nodes":[
		{
			"mesh":0,
			"name":"SM_Prop_Mannequin_Torso_01",
			"rotation":[
				0.7071068286895752,
				0,
				0,
				0.7071068286895752
			],
			"scale":[
				0.009999999776482582,
				0.009999999776482582,
				0.009999999776482582
			]
		}
	],
	"materials":[
		{
			"doubleSided":true,
			"name":"PolygonApocalypse_Mat_01_A",
			"pbrMetallicRoughness":{
				"baseColorTexture":{
					"index":0
				},
				"metallicFactor":0,
				"roughnessFactor":0.5527864098548889
			}
		}
	],
	"meshes":[
		{
			"name":"Mesh",
			"primitives":[
				{
					"attributes":{
						"POSITION":0,
						"NORMAL":1,
						"TEXCOORD_0":2,
						"TEXCOORD_1":3,
						"TEXCOORD_2":4,
						"COLOR_0":5,
						"COLOR_1":6
					},
					"indices":7,
					"material":0
				}
			]
		}
	],
	"textures":[
		{
			"extensions":{
				"EXT_texture_webp":{
					"source":0
				}
			},
			"sampler":0
		}
	],
	"images":[
		{
			"mimeType":"image/webp",
			"name":"PolygonApocalypse_Texture_01_A",
			"uri":"PolygonApocalypse_Texture_01_A.webp"
		}
	],
	"accessors":[
		{
			"bufferView":0,
			"componentType":5126,
			"count":1430,
			"max":[
				54.38927459716797,
				27.499725341796875,
				1.0422821044921875
			],
			"min":[
				-34.13059997558594,
				-27.49972915649414,
				-27.884429931640625
			],
			"type":"VEC3"
		},
		{
			"bufferView":1,
			"componentType":5126,
			"count":1430,
			"type":"VEC3"
		},
		{
			"bufferView":2,
			"componentType":5126,
			"count":1430,
			"type":"VEC2"
		},
		{
			"bufferView":3,
			"componentType":5126,
			"count":1430,
			"type":"VEC2"
		},
		{
			"bufferView":4,
			"componentType":5126,
			"count":1430,
			"type":"VEC2"
		},
		{
			"bufferView":5,
			"componentType":5121,
			"count":1430,
			"normalized":true,
			"type":"VEC4"
		},
		{
			"bufferView":6,
			"componentType":5123,
			"count":1430,
			"normalized":true,
			"type":"VEC4"
		},
		{
			"bufferView":7,
			"componentType":5123,
			"count":2034,
			"type":"SCALAR"
		}
	],
	"bufferViews":[
		{
			"buffer":0,
			"byteLength":17160,
			"byteOffset":0,
			"target":34962
		},
		{
			"buffer":0,
			"byteLength":17160,
			"byteOffset":17160,
			"target":34962
		},
		{
			"buffer":0,
			"byteLength":11440,
			"byteOffset":34320,
			"target":34962
		},
		{
			"buffer":0,
			"byteLength":11440,
			"byteOffset":45760,
			"target":34962
		},
		{
			"buffer":0,
			"byteLength":11440,
			"byteOffset":57200,
			"target":34962
		},
		{
			"buffer":0,
			"byteLength":5720,
			"byteOffset":68640,
			"target":34962
		},
		{
			"buffer":0,
			"byteLength":11440,
			"byteOffset":74360,
			"target":34962
		},
		{
			"buffer":0,
			"byteLength":4068,
			"byteOffset":85800,
			"target":34963
		}
	],
	"samplers":[
		{
			"magFilter":9729,
			"minFilter":9987
		}
	],
	"buffers":[
		{
			"byteLength":89868,
			"uri":"apoc_SM_Prop_Mannequin_Torso_01.bin"
		}
	]
}
