{
	"asset":{
		"generator":"Khronos glTF Blender I/O v4.4.55",
		"version":"2.0"
	},
	"extensionsUsed":[
		"EXT_texture_webp"
	],
	"extensionsRequired":[
		"EXT_texture_webp"
	],
	"scene":0,
	"scenes":[
		{
			"name":"Scene",
			"nodes":[
				0
			]
		}
	],
	"nodes":[
		{
			"mesh":0,
			"name":"SM_Wep_Mod_Body_28",
			"rotation":[
				0.7071068286895752,
				0,
				0,
				0.7071068286895752
			],
			"scale":[
				0.009999999776482582,
				0.009999999776482582,
				0.009999999776482582
			]
		}
	],
	"materials":[
		{
			"doubleSided":true,
			"name":"PolygonApocalypse_Mat_01_A",
			"pbrMetallicRoughness":{
				"baseColorTexture":{
					"index":0
				},
				"metallicFactor":0,
				"roughnessFactor":0.5527864098548889
			}
		}
	],
	"meshes":[
		{
			"name":"Mesh",
			"primitives":[
				{
					"attributes":{
						"POSITION":0,
						"NORMAL":1,
						"TEXCOORD_0":2,
						"TEXCOORD_1":3
					},
					"indices":4,
					"material":0
				}
			]
		}
	],
	"textures":[
		{
			"extensions":{
				"EXT_texture_webp":{
					"source":0
				}
			},
			"sampler":0
		}
	],
	"images":[
		{
			"mimeType":"image/webp",
			"name":"PolygonApocalypse_Texture_01_A",
			"uri":"PolygonApocalypse_Texture_01_A.webp"
		}
	],
	"accessors":[
		{
			"bufferView":0,
			"componentType":5126,
			"count":1012,
			"max":[
				36.94487762451172,
				3.848297119140625,
				2.1320667266845703
			],
			"min":[
				-14.221965789794922,
				-3.848297119140625,
				-12.939342498779297
			],
			"type":"VEC3"
		},
		{
			"bufferView":1,
			"componentType":5126,
			"count":1012,
			"type":"VEC3"
		},
		{
			"bufferView":2,
			"componentType":5126,
			"count":1012,
			"type":"VEC2"
		},
		{
			"bufferView":3,
			"componentType":5126,
			"count":1012,
			"type":"VEC2"
		},
		{
			"bufferView":4,
			"componentType":5123,
			"count":1848,
			"type":"SCALAR"
		}
	],
	"bufferViews":[
		{
			"buffer":0,
			"byteLength":12144,
			"byteOffset":0,
			"target":34962
		},
		{
			"buffer":0,
			"byteLength":12144,
			"byteOffset":12144,
			"target":34962
		},
		{
			"buffer":0,
			"byteLength":8096,
			"byteOffset":24288,
			"target":34962
		},
		{
			"buffer":0,
			"byteLength":8096,
			"byteOffset":32384,
			"target":34962
		},
		{
			"buffer":0,
			"byteLength":3696,
			"byteOffset":40480,
			"target":34963
		}
	],
	"samplers":[
		{
			"magFilter":9729,
			"minFilter":9987
		}
	],
	"buffers":[
		{
			"byteLength":44176,
			"uri":"apoc_SM_Wep_Mod_Body_28.bin"
		}
	]
}
