{"asset":{"generator":"Khronos glTF Blender I/O v4.4.55","version":"2.0"},"extensionsUsed":["EXT_texture_webp"],"extensionsRequired":["EXT_texture_webp"],"scene":0,"scenes":[{"name":"Scene","nodes":[48]}],"nodes":[{"mesh":0,"name":"SM_Bld_Apartment_Glass_01"},{"mesh":1,"name":"UCX_SM_Bld_Apartment_01_1"},{"mesh":2,"name":"UCX_SM_Bld_Apartment_01_10"},{"mesh":3,"name":"UCX_SM_Bld_Apartment_01_11"},{"mesh":4,"name":"UCX_SM_Bld_Apartment_01_12"},{"mesh":5,"name":"UCX_SM_Bld_Apartment_01_13"},{"mesh":6,"name":"UCX_SM_Bld_Apartment_01_14"},{"mesh":7,"name":"UCX_SM_Bld_Apartment_01_15"},{"mesh":8,"name":"UCX_SM_Bld_Apartment_01_16"},{"mesh":9,"name":"UCX_SM_Bld_Apartment_01_17"},{"mesh":10,"name":"UCX_SM_Bld_Apartment_01_18"},{"mesh":11,"name":"UCX_SM_Bld_Apartment_01_19"},{"mesh":12,"name":"UCX_SM_Bld_Apartment_01_2"},{"mesh":13,"name":"UCX_SM_Bld_Apartment_01_20"},{"mesh":14,"name":"UCX_SM_Bld_Apartment_01_21"},{"mesh":15,"name":"UCX_SM_Bld_Apartment_01_22"},{"mesh":16,"name":"UCX_SM_Bld_Apartment_01_23"},{"mesh":17,"name":"UCX_SM_Bld_Apartment_01_24"},{"mesh":18,"name":"UCX_SM_Bld_Apartment_01_25"},{"mesh":19,"name":"UCX_SM_Bld_Apartment_01_26"},{"mesh":20,"name":"UCX_SM_Bld_Apartment_01_27"},{"mesh":21,"name":"UCX_SM_Bld_Apartment_01_28"},{"mesh":22,"name":"UCX_SM_Bld_Apartment_01_29"},{"mesh":23,"name":"UCX_SM_Bld_Apartment_01_3"},{"mesh":24,"name":"UCX_SM_Bld_Apartment_01_30"},{"mesh":25,"name":"UCX_SM_Bld_Apartment_01_31"},{"mesh":26,"name":"UCX_SM_Bld_Apartment_01_32"},{"mesh":27,"name":"UCX_SM_Bld_Apartment_01_33"},{"mesh":28,"name":"UCX_SM_Bld_Apartment_01_34"},{"mesh":29,"name":"UCX_SM_Bld_Apartment_01_35"},{"mesh":30,"name":"UCX_SM_Bld_Apartment_01_36"},{"mesh":31,"name":"UCX_SM_Bld_Apartment_01_37"},{"mesh":32,"name":"UCX_SM_Bld_Apartment_01_38"},{"mesh":33,"name":"UCX_SM_Bld_Apartment_01_39"},{"mesh":34,"name":"UCX_SM_Bld_Apartment_01_4"},{"mesh":35,"name":"UCX_SM_Bld_Apartment_01_40"},{"mesh":36,"name":"UCX_SM_Bld_Apartment_01_41"},{"mesh":37,"name":"UCX_SM_Bld_Apartment_01_42"},{"mesh":38,"name":"UCX_SM_Bld_Apartment_01_43"},{"mesh":39,"name":"UCX_SM_Bld_Apartment_01_44"},{"mesh":40,"name":"UCX_SM_Bld_Apartment_01_45"},{"mesh":41,"name":"UCX_SM_Bld_Apartment_01_46"},{"mesh":42,"name":"UCX_SM_Bld_Apartment_01_47"},{"mesh":43,"name":"UCX_SM_Bld_Apartment_01_5"},{"mesh":44,"name":"UCX_SM_Bld_Apartment_01_6"},{"mesh":45,"name":"UCX_SM_Bld_Apartment_01_7"},{"mesh":46,"name":"UCX_SM_Bld_Apartment_01_8"},{"mesh":47,"name":"UCX_SM_Bld_Apartment_01_9"},{"children":[0,1,2,3,4,5,6,7,8,9,10,11,12,13,14,15,16,17,18,19,20,21,22,23,24,25,26,27,28,29,30,31,32,33,34,35,36,37,38,39,40,41,42,43,44,45,46,47],"mesh":48,"name":"SM_Bld_Apartment_01","rotation":[0.7071068286895752,0,0,0.7071068286895752],"scale":[0.009999999776482582,0.009999999776482582,0.009999999776482582]}],"materials":[{"doubleSided":true,"name":"lambert23","pbrMetallicRoughness":{"baseColorTexture":{"index":0},"metallicFactor":0,"roughnessFactor":0.5527864098548889}},{"alphaMode":"MASK","doubleSided":true,"name":"lambert3","pbrMetallicRoughness":{"baseColorFactor":[1,1,1,0.29323261976242065],"baseColorTexture":{"index":1},"metallicFactor":0,"roughnessFactor":0.5527864098548889},"alphaCutoff":0.5}],"meshes":[{"name":"Mesh.001","primitives":[{"attributes":{"POSITION":0,"NORMAL":1,"TEXCOORD_0":2},"indices":3,"material":0}]},{"name":"Mesh.002","primitives":[{"attributes":{"POSITION":4,"NORMAL":5,"TEXCOORD_0":6},"indices":7,"material":1}]},{"name":"Mesh.011","primitives":[{"attributes":{"POSITION":8,"NORMAL":9,"TEXCOORD_0":10},"indices":7,"material":1}]},{"name":"Mesh.012","primitives":[{"attributes":{"POSITION":11,"NORMAL":12,"TEXCOORD_0":13},"indices":7,"material":1}]},{"name":"Mesh.013","primitives":[{"attributes":{"POSITION":14,"NORMAL":15,"TEXCOORD_0":16},"indices":7,"material":1}]},{"name":"Mesh.014","primitives":[{"attributes":{"POSITION":17,"NORMAL":18,"TEXCOORD_0":19},"indices":20,"material":1}]},{"name":"Mesh.015","primitives":[{"attributes":{"POSITION":21,"NORMAL":22,"TEXCOORD_0":23},"indices":24,"material":1}]},{"name":"Mesh.016","primitives":[{"attributes":{"POSITION":25,"NORMAL":26,"TEXCOORD_0":27},"indices":20,"material":1}]},{"name":"Mesh.017","primitives":[{"attributes":{"POSITION":28,"NORMAL":29,"TEXCOORD_0":30},"indices":31,"material":1}]},{"name":"Mesh.018","primitives":[{"attributes":{"POSITION":32,"NORMAL":33,"TEXCOORD_0":34},"indices":7,"material":1}]},{"name":"Mesh.019","primitives":[{"attributes":{"POSITION":35,"NORMAL":36,"TEXCOORD_0":37},"indices":7,"material":1}]},{"name":"Mesh.020","primitives":[{"attributes":{"POSITION":38,"NORMAL":39,"TEXCOORD_0":40},"indices":7,"material":1}]},{"name":"Mesh.003","primitives":[{"attributes":{"POSITION":41,"NORMAL":42,"TEXCOORD_0":43},"indices":7,"material":1}]},{"name":"Mesh.021","primitives":[{"attributes":{"POSITION":44,"NORMAL":45,"TEXCOORD_0":46},"indices":47,"material":1}]},{"name":"Mesh.022","primitives":[{"attributes":{"POSITION":48,"NORMAL":49,"TEXCOORD_0":50},"indices":51,"material":1}]},{"name":"Mesh.023","primitives":[{"attributes":{"POSITION":52,"NORMAL":53,"TEXCOORD_0":54},"indices":7,"material":1}]},{"name":"Mesh.024","primitives":[{"attributes":{"POSITION":55,"NORMAL":56,"TEXCOORD_0":57},"indices":7,"material":1}]},{"name":"Mesh.025","primitives":[{"attributes":{"POSITION":58,"NORMAL":59,"TEXCOORD_0":60},"indices":61,"material":1}]},{"name":"Mesh.026","primitives":[{"attributes":{"POSITION":62,"NORMAL":63,"TEXCOORD_0":64},"indices":65,"material":1}]},{"name":"Mesh.027","primitives":[{"attributes":{"POSITION":66,"NORMAL":67,"TEXCOORD_0":68},"indices":69,"material":1}]},{"name":"Mesh.028","primitives":[{"attributes":{"POSITION":70,"NORMAL":71,"TEXCOORD_0":72},"indices":7,"material":1}]},{"name":"Mesh.029","primitives":[{"attributes":{"POSITION":73,"NORMAL":74,"TEXCOORD_0":75},"indices":7,"material":1}]},{"name":"Mesh.030","primitives":[{"attributes":{"POSITION":76,"NORMAL":77,"TEXCOORD_0":78},"indices":7,"material":1}]},{"name":"Mesh.004","primitives":[{"attributes":{"POSITION":79,"NORMAL":80,"TEXCOORD_0":81},"indices":7,"material":1}]},{"name":"Mesh.031","primitives":[{"attributes":{"POSITION":82,"NORMAL":83,"TEXCOORD_0":84},"indices":7,"material":1}]},{"name":"Mesh.032","primitives":[{"attributes":{"POSITION":85,"NORMAL":86,"TEXCOORD_0":87},"indices":7,"material":1}]},{"name":"Mesh.033","primitives":[{"attributes":{"POSITION":88,"NORMAL":89,"TEXCOORD_0":90},"indices":20,"material":1}]},{"name":"Mesh.034","primitives":[{"attributes":{"POSITION":91,"NORMAL":92,"TEXCOORD_0":93},"indices":20,"material":1}]},{"name":"Mesh.035","primitives":[{"attributes":{"POSITION":94,"NORMAL":95,"TEXCOORD_0":96},"indices":20,"material":1}]},{"name":"Mesh.036","primitives":[{"attributes":{"POSITION":97,"NORMAL":98,"TEXCOORD_0":99},"indices":7,"material":1}]},{"name":"Mesh.037","primitives":[{"attributes":{"POSITION":100,"NORMAL":101,"TEXCOORD_0":102},"indices":7,"material":1}]},{"name":"Mesh.038","primitives":[{"attributes":{"POSITION":103,"NORMAL":104,"TEXCOORD_0":105},"indices":7,"material":1}]},{"name":"Mesh.039","primitives":[{"attributes":{"POSITION":106,"NORMAL":107,"TEXCOORD_0":108},"indices":7,"material":1}]},{"name":"Mesh.040","primitives":[{"attributes":{"POSITION":109,"NORMAL":110,"TEXCOORD_0":111},"indices":7,"material":1}]},{"name":"Mesh.005","primitives":[{"attributes":{"POSITION":112,"NORMAL":113,"TEXCOORD_0":114},"indices":20,"material":1}]},{"name":"Mesh.041","primitives":[{"attributes":{"POSITION":115,"NORMAL":116,"TEXCOORD_0":117},"indices":7,"material":1}]},{"name":"Mesh.042","primitives":[{"attributes":{"POSITION":118,"NORMAL":119,"TEXCOORD_0":120},"indices":7,"material":1}]},{"name":"Mesh.043","primitives":[{"attributes":{"POSITION":121,"NORMAL":122,"TEXCOORD_0":123},"indices":7,"material":1}]},{"name":"Mesh.044","primitives":[{"attributes":{"POSITION":124,"NORMAL":125,"TEXCOORD_0":126},"indices":127,"material":1}]},{"name":"Mesh.045","primitives":[{"attributes":{"POSITION":128,"NORMAL":129,"TEXCOORD_0":130},"indices":131,"material":1}]},{"name":"Mesh.046","primitives":[{"attributes":{"POSITION":132,"NORMAL":133,"TEXCOORD_0":134},"indices":7,"material":1}]},{"name":"Mesh.047","primitives":[{"attributes":{"POSITION":135,"NORMAL":136,"TEXCOORD_0":137},"indices":7,"material":1}]},{"name":"Mesh.048","primitives":[{"attributes":{"POSITION":138,"NORMAL":139,"TEXCOORD_0":140},"indices":7,"material":1}]},{"name":"Mesh.006","primitives":[{"attributes":{"POSITION":141,"NORMAL":142,"TEXCOORD_0":143},"indices":20,"material":1}]},{"name":"Mesh.007","primitives":[{"attributes":{"POSITION":144,"NORMAL":145,"TEXCOORD_0":146},"indices":7,"material":1}]},{"name":"Mesh.008","primitives":[{"attributes":{"POSITION":147,"NORMAL":148,"TEXCOORD_0":149},"indices":150,"material":1}]},{"name":"Mesh.009","primitives":[{"attributes":{"POSITION":151,"NORMAL":152,"TEXCOORD_0":153},"indices":31,"material":1}]},{"name":"Mesh.010","primitives":[{"attributes":{"POSITION":154,"NORMAL":155,"TEXCOORD_0":156},"indices":7,"material":1}]},{"name":"Mesh","primitives":[{"attributes":{"POSITION":157,"NORMAL":158,"TEXCOORD_0":159,"TEXCOORD_1":160},"indices":161,"material":0}]}],"textures":[{"extensions":{"EXT_texture_webp":{"source":0}},"sampler":0},{"extensions":{"EXT_texture_webp":{"source":1}},"sampler":0}],"images":[{"mimeType":"image/webp","name":"PolygonApocalypse_Texture_01_C","uri":"PolygonApocalypse_Texture_01_C.webp"},{"mimeType":"image/webp","name":"PolygonApocalypse_Texture_01_A","uri":"PolygonApocalypse_Texture_01_A.webp"}],"accessors":[{"bufferView":0,"componentType":5126,"count":469,"max":[361.01251220703125,391.8762512207031,-63.38105010986328],"min":[357.7391662597656,-391.87628173828125,-1276.604736328125],"type":"VEC3"},{"bufferView":1,"componentType":5126,"count":469,"type":"VEC3"},{"bufferView":2,"componentType":5126,"count":469,"type":"VEC2"},{"bufferView":3,"componentType":5123,"count":780,"type":"SCALAR"},{"bufferView":4,"componentType":5126,"count":24,"max":[367.33184814453125,282.6578063964844,-3.457069396972656e-05],"min":[-480.0571594238281,-478.43829345703125,-8.582932472229004],"type":"VEC3"},{"bufferView":5,"componentType":5126,"count":24,"type":"VEC3"},{"bufferView":6,"componentType":5126,"count":24,"type":"VEC2"},{"bufferView":7,"componentType":5123,"count":36,"type":"SCALAR"},{"bufferView":8,"componentType":5126,"count":24,"max":[53.07684326171875,363.9607849121094,-828.612548828125],"min":[-287.6071472167969,-481.58331298828125,-867.3923950195312],"type":"VEC3"},{"bufferView":9,"componentType":5126,"count":24,"type":"VEC3"},{"bufferView":10,"componentType":5126,"count":24,"type":"VEC2"},{"bufferView":11,"componentType":5126,"count":24,"max":[348.8772888183594,490.7521667480469,-828.612548828125],"min":[50.038726806640625,-481.58331298828125,-867.3923950195312],"type":"VEC3"},{"bufferView":12,"componentType":5126,"count":24,"type":"VEC3"},{"bufferView":13,"componentType":5126,"count":24,"type":"VEC2"},{"bufferView":14,"componentType":5126,"count":24,"max":[76.27212524414062,486.9955749511719,-861.4776000976562],"min":[56.888641357421875,341.6531982421875,-978.2122802734375],"type":"VEC3"},{"bufferView":15,"componentType":5126,"count":24,"type":"VEC3"},{"bufferView":16,"componentType":5126,"count":24,"type":"VEC2"},{"bufferView":17,"componentType":5126,"count":24,"max":[76.27212524414062,358.3414306640625,-861.4776000976562],"min":[-296.74395751953125,341.65313720703125,-978.2122802734375],"type":"VEC3"},{"bufferView":18,"componentType":5126,"count":24,"type":"VEC3"},{"bufferView":19,"componentType":5126,"count":24,"type":"VEC2"},{"bufferView":20,"componentType":5123,"count":36,"type":"SCALAR"},{"bufferView":21,"componentType":5126,"count":24,"max":[203.55352783203125,358.3414306640625,-399.0777282714844],"min":[-296.74395751953125,341.65313720703125,-866.965576171875],"type":"VEC3"},{"bufferView":22,"componentType":5126,"count":24,"type":"VEC3"},{"bufferView":23,"componentType":5126,"count":24,"type":"VEC2"},{"bufferView":24,"componentType":5123,"count":36,"type":"SCALAR"},{"bufferView":25,"componentType":5126,"count":24,"max":[202.42657470703125,358.3414306640625,-399.0777282714844],"min":[-296.74395751953125,341.65313720703125,-510.0765075683594],"type":"VEC3"},{"bufferView":26,"componentType":5126,"count":24,"type":"VEC3"},{"bufferView":27,"componentType":5126,"count":24,"type":"VEC2"},{"bufferView":28,"componentType":5126,"count":24,"max":[144.70257568359375,486.6304016113281,2.966073751449585],"min":[-293.0147399902344,363.9607238769531,-396.4354553222656],"type":"VEC3"},{"bufferView":29,"componentType":5126,"count":24,"type":"VEC3"},{"bufferView":30,"componentType":5126,"count":24,"type":"VEC2"},{"bufferView":31,"componentType":5123,"count":36,"type":"SCALAR"},{"bufferView":32,"componentType":5126,"count":24,"max":[-287.18804931640625,490.7521667480469,-344.9752197265625],"min":[-442.0969543457031,-490.1463623046875,-401.95751953125],"type":"VEC3"},{"bufferView":33,"componentType":5126,"count":24,"type":"VEC3"},{"bufferView":34,"componentType":5126,"count":24,"type":"VEC2"},{"bufferView":35,"componentType":5126,"count":24,"max":[53.07684326171875,363.9607238769531,-344.9752197265625],"min":[-287.607177734375,-490.1463623046875,-401.95751953125],"type":"VEC3"},{"bufferView":36,"componentType":5126,"count":24,"type":"VEC3"},{"bufferView":37,"componentType":5126,"count":24,"type":"VEC2"},{"bufferView":38,"componentType":5126,"count":24,"max":[348.8772888183594,490.7521667480469,-344.9752197265625],"min":[53.076812744140625,-490.1463928222656,-401.95751953125],"type":"VEC3"},{"bufferView":39,"componentType":5126,"count":24,"type":"VEC3"},{"bufferView":40,"componentType":5126,"count":24,"type":"VEC2"},{"bufferView":41,"componentType":5126,"count":24,"max":[250.6212158203125,487.0281066894531,-3.457069396972656e-05],"min":[110.67349243164062,294.83935546875,-3.7789390087127686],"type":"VEC3"},{"bufferView":42,"componentType":5126,"count":24,"type":"VEC3"},{"bufferView":43,"componentType":5126,"count":24,"type":"VEC2"},{"bufferView":44,"componentType":5126,"count":24,"max":[367.852294921875,-365.6282958984375,5.364418029785156e-07],"min":[302.023681640625,-413.8226623535156,-257.066650390625],"type":"VEC3"},{"bufferView":45,"componentType":5126,"count":24,"type":"VEC3"},{"bufferView":46,"componentType":5126,"count":24,"type":"VEC2"},{"bufferView":47,"componentType":5123,"count":36,"type":"SCALAR"},{"bufferView":48,"componentType":5126,"count":24,"max":[303.0275573730469,-365.981201171875,-5.688704967498779],"min":[226.93914794921875,-394.8589172363281,-262.75537109375],"type":"VEC3"},{"bufferView":49,"componentType":5126,"count":24,"type":"VEC3"},{"bufferView":50,"componentType":5126,"count":24,"type":"VEC2"},{"bufferView":51,"componentType":5123,"count":36,"type":"SCALAR"},{"bufferView":52,"componentType":5126,"count":24,"max":[243.77987670898438,-346.2170715332031,-5.391521453857422],"min":[224.8647003173828,-366.2323303222656,-243.241943359375],"type":"VEC3"},{"bufferView":53,"componentType":5126,"count":24,"type":"VEC3"},{"bufferView":54,"componentType":5126,"count":24,"type":"VEC2"},{"bufferView":55,"componentType":5126,"count":24,"max":[243.77987670898438,-211.44369506835938,-5.391521453857422],"min":[224.8647003173828,-240.4896240234375,-243.241943359375],"type":"VEC3"},{"bufferView":56,"componentType":5126,"count":24,"type":"VEC3"},{"bufferView":57,"componentType":5126,"count":24,"type":"VEC2"},{"bufferView":58,"componentType":5126,"count":24,"max":[303.0275573730469,-203.90676879882812,-5.688704967498779],"min":[226.93914794921875,-220.4829559326172,-262.75537109375],"type":"VEC3"},{"bufferView":59,"componentType":5126,"count":24,"type":"VEC3"},{"bufferView":60,"componentType":5126,"count":24,"type":"VEC2"},{"bufferView":61,"componentType":5123,"count":36,"type":"SCALAR"},{"bufferView":62,"componentType":5126,"count":24,"max":[367.852294921875,-198.63223266601562,5.364418029785156e-07],"min":[302.023681640625,-220.8358154296875,-257.066650390625],"type":"VEC3"},{"bufferView":63,"componentType":5126,"count":24,"type":"VEC3"},{"bufferView":64,"componentType":5126,"count":24,"type":"VEC2"},{"bufferView":65,"componentType":5123,"count":36,"type":"SCALAR"},{"bufferView":66,"componentType":5126,"count":24,"max":[387.2164001464844,444.2646789550781,-245.66485595703125],"min":[249.68515014648438,285.8836975097656,-392.16070556640625],"type":"VEC3"},{"bufferView":67,"componentType":5126,"count":24,"type":"VEC3"},{"bufferView":68,"componentType":5126,"count":24,"type":"VEC2"},{"bufferView":69,"componentType":5123,"count":36,"type":"SCALAR"},{"bufferView":70,"componentType":5126,"count":24,"max":[367.852294921875,-386.2049255371094,5.364418029785156e-07],"min":[310.3596496582031,-475.9414367675781,-257.066650390625],"type":"VEC3"},{"bufferView":71,"componentType":5126,"count":24,"type":"VEC3"},{"bufferView":72,"componentType":5126,"count":24,"type":"VEC2"},{"bufferView":73,"componentType":5126,"count":24,"max":[367.8523254394531,282.2055358886719,-257.16546630859375],"min":[343.0193786621094,-429.234130859375,-392.16070556640625],"type":"VEC3"},{"bufferView":74,"componentType":5126,"count":24,"type":"VEC3"},{"bufferView":75,"componentType":5126,"count":24,"type":"VEC2"},{"bufferView":76,"componentType":5126,"count":24,"max":[367.852294921875,273.7032470703125,5.364418029785156e-07],"min":[343.0193786621094,-199.94949340820312,-257.066650390625],"type":"VEC3"},{"bufferView":77,"componentType":5126,"count":24,"type":"VEC3"},{"bufferView":78,"componentType":5126,"count":24,"type":"VEC2"},{"bufferView":79,"componentType":5126,"count":24,"max":[389.537353515625,444.70098876953125,-3.457069396972656e-05],"min":[249.58966064453125,294.83935546875,-15.591028213500977],"type":"VEC3"},{"bufferView":80,"componentType":5126,"count":24,"type":"VEC3"},{"bufferView":81,"componentType":5126,"count":24,"type":"VEC2"},{"bufferView":82,"componentType":5126,"count":24,"max":[405.888427734375,-424.6636962890625,-3.7299623489379883],"min":[357.478515625,-494.767333984375,-1331.34228515625],"type":"VEC3"},{"bufferView":83,"componentType":5126,"count":24,"type":"VEC3"},{"bufferView":84,"componentType":5126,"count":24,"type":"VEC2"},{"bufferView":85,"componentType":5126,"count":24,"max":[405.8884582519531,307.1675720214844,-3.7299623489379883],"min":[324.6004943847656,268.0027160644531,-394.28704833984375],"type":"VEC3"},{"bufferView":86,"componentType":5126,"count":24,"type":"VEC3"},{"bufferView":87,"componentType":5126,"count":24,"type":"VEC2"},{"bufferView":88,"componentType":5126,"count":24,"max":[-438.2042541503906,490.6792907714844,-235.09312438964844],"min":[-480.27178955078125,-491.2609558105469,-1326.099609375],"type":"VEC3"},{"bufferView":89,"componentType":5126,"count":24,"type":"VEC3"},{"bufferView":90,"componentType":5126,"count":24,"type":"VEC2"},{"bufferView":91,"componentType":5126,"count":24,"max":[-438.2042541503906,490.6792907714844,5.364418029785156e-07],"min":[-480.27178955078125,220.75677490234375,-240.6033477783203],"type":"VEC3"},{"bufferView":92,"componentType":5126,"count":24,"type":"VEC3"},{"bufferView":93,"componentType":5126,"count":24,"type":"VEC2"},{"bufferView":94,"componentType":5126,"count":24,"max":[-438.2042541503906,114.95333862304688,5.364418029785156e-07],"min":[-480.2718200683594,-491.2609558105469,-240.6033477783203],"type":"VEC3"},{"bufferView":95,"componentType":5126,"count":24,"type":"VEC3"},{"bufferView":96,"componentType":5126,"count":24,"type":"VEC2"},{"bufferView":97,"componentType":5126,"count":24,"max":[192.83016967773438,363.6990966796875,5.364418029785156e-07],"min":[-480.2718505859375,281.69097900390625,-400.8501892089844],"type":"VEC3"},{"bufferView":98,"componentType":5126,"count":24,"type":"VEC3"},{"bufferView":99,"componentType":5126,"count":24,"type":"VEC2"},{"bufferView":100,"componentType":5126,"count":24,"max":[402.22991943359375,430.5322265625,-394.5326232910156],"min":[339.6299743652344,-436.13763427734375,-1335.258056640625],"type":"VEC3"},{"bufferView":101,"componentType":5126,"count":24,"type":"VEC3"},{"bufferView":102,"componentType":5126,"count":24,"type":"VEC2"},{"bufferView":103,"componentType":5126,"count":24,"max":[405.8884582519531,494.7674255371094,-3.7299623489379883],"min":[325.5493469238281,424.6637878417969,-1331.34228515625],"type":"VEC3"},{"bufferView":104,"componentType":5126,"count":24,"type":"VEC3"},{"bufferView":105,"componentType":5126,"count":24,"type":"VEC2"},{"bufferView":106,"componentType":5126,"count":24,"max":[405.888427734375,-473.804443359375,-3.7299623489379883],"min":[-480.2718505859375,-494.7673645019531,-1331.34228515625],"type":"VEC3"},{"bufferView":107,"componentType":5126,"count":24,"type":"VEC3"},{"bufferView":108,"componentType":5126,"count":24,"type":"VEC2"},{"bufferView":109,"componentType":5126,"count":24,"max":[325.5493469238281,484.6736755371094,-3.7299623489379883],"min":[255.19906616210938,444.3076477050781,-251.07843017578125],"type":"VEC3"},{"bufferView":110,"componentType":5126,"count":24,"type":"VEC3"},{"bufferView":111,"componentType":5126,"count":24,"type":"VEC2"},{"bufferView":112,"componentType":5126,"count":24,"max":[465.38580322265625,515.6408081054688,-1326.099609375],"min":[379.3833312988281,-515.640869140625,-1487.924560546875],"type":"VEC3"},{"bufferView":113,"componentType":5126,"count":24,"type":"VEC3"},{"bufferView":114,"componentType":5126,"count":24,"type":"VEC2"},{"bufferView":115,"componentType":5126,"count":24,"max":[325.5493469238281,295.5740661621094,-3.7299623489379883],"min":[255.19906616210938,282.4165954589844,-370.6487731933594],"type":"VEC3"},{"bufferView":116,"componentType":5126,"count":24,"type":"VEC3"},{"bufferView":117,"componentType":5126,"count":24,"type":"VEC2"},{"bufferView":118,"componentType":5126,"count":24,"max":[249.64468383789062,302.4975891113281,-3.7299623489379883],"min":[164.96029663085938,282.4165954589844,-370.6487731933594],"type":"VEC3"},{"bufferView":119,"componentType":5126,"count":24,"type":"VEC3"},{"bufferView":120,"componentType":5126,"count":24,"type":"VEC2"},{"bufferView":121,"componentType":5126,"count":24,"max":[243.77987670898438,-211.4436798095703,-237.2410888671875],"min":[224.8647003173828,-366.2323303222656,-362.94134521484375],"type":"VEC3"},{"bufferView":122,"componentType":5126,"count":24,"type":"VEC3"},{"bufferView":123,"componentType":5126,"count":24,"type":"VEC2"},{"bufferView":124,"componentType":5126,"count":24,"max":[362.4314880371094,-197.77322387695312,-237.2410888671875],"min":[224.86471557617188,-219.60293579101562,-362.94134521484375],"type":"VEC3"},{"bufferView":125,"componentType":5126,"count":24,"type":"VEC3"},{"bufferView":126,"componentType":5126,"count":24,"type":"VEC2"},{"bufferView":127,"componentType":5123,"count":36,"type":"SCALAR"},{"bufferView":128,"componentType":5126,"count":24,"max":[317.9216003417969,-348.55596923828125,-257.066650390625],"min":[226.32958984375,-398.5473327636719,-382.76690673828125],"type":"VEC3"},{"bufferView":129,"componentType":5126,"count":24,"type":"VEC3"},{"bufferView":130,"componentType":5126,"count":24,"type":"VEC2"},{"bufferView":131,"componentType":5123,"count":36,"type":"SCALAR"},{"bufferView":132,"componentType":5126,"count":24,"max":[329.47015380859375,-386.5804443359375,-257.066650390625],"min":[310.55499267578125,-477.38555908203125,-382.76690673828125],"type":"VEC3"},{"bufferView":133,"componentType":5126,"count":24,"type":"VEC3"},{"bufferView":134,"componentType":5126,"count":24,"type":"VEC2"},{"bufferView":135,"componentType":5126,"count":24,"max":[265.0644836425781,482.3815612792969,-14.775612831115723],"min":[249.27590942382812,423.80889892578125,-251.5775909423828],"type":"VEC3"},{"bufferView":136,"componentType":5126,"count":24,"type":"VEC3"},{"bufferView":137,"componentType":5126,"count":24,"type":"VEC2"},{"bufferView":138,"componentType":5126,"count":24,"max":[265.064453125,313.152099609375,-14.775612831115723],"min":[249.27593994140625,287.09197998046875,-251.5775909423828],"type":"VEC3"},{"bufferView":139,"componentType":5126,"count":24,"type":"VEC3"},{"bufferView":140,"componentType":5126,"count":24,"type":"VEC2"},{"bufferView":141,"componentType":5126,"count":24,"max":[379.3832702636719,502.3297424316406,-1326.099609375],"min":[-491.8020324707031,-502.32977294921875,-1426.49169921875],"type":"VEC3"},{"bufferView":142,"componentType":5126,"count":24,"type":"VEC3"},{"bufferView":143,"componentType":5126,"count":24,"type":"VEC2"},{"bufferView":144,"componentType":5126,"count":24,"max":[405.8883972167969,490.6792297363281,5.364418029785156e-07],"min":[-480.2718505859375,486.328369140625,-1327.6123046875],"type":"VEC3"},{"bufferView":145,"componentType":5126,"count":24,"type":"VEC3"},{"bufferView":146,"componentType":5126,"count":24,"type":"VEC2"},{"bufferView":147,"componentType":5126,"count":24,"max":[171.56942749023438,486.6304626464844,-262.6724548339844],"min":[60.570648193359375,350.0928649902344,-486.0296325683594],"type":"VEC3"},{"bufferView":148,"componentType":5126,"count":24,"type":"VEC3"},{"bufferView":149,"componentType":5126,"count":24,"type":"VEC2"},{"bufferView":150,"componentType":5123,"count":36,"type":"SCALAR"},{"bufferView":151,"componentType":5126,"count":24,"max":[201.1427001953125,486.6304016113281,-400.67706298828125],"min":[-331.0813903808594,350.02349853515625,-862.0839233398438],"type":"VEC3"},{"bufferView":152,"componentType":5126,"count":24,"type":"VEC3"},{"bufferView":153,"componentType":5126,"count":24,"type":"VEC2"},{"bufferView":154,"componentType":5126,"count":24,"max":[-287.18804931640625,490.7521667480469,-828.612548828125],"min":[-442.09698486328125,-481.58331298828125,-867.3923950195312],"type":"VEC3"},{"bufferView":155,"componentType":5126,"count":24,"type":"VEC3"},{"bufferView":156,"componentType":5126,"count":24,"type":"VEC2"},{"bufferView":157,"componentType":5126,"count":9574,"max":[465.25152587890625,515.6408081054688,0],"min":[-491.802001953125,-515.640869140625,-1487.924560546875],"type":"VEC3"},{"bufferView":158,"componentType":5126,"count":9574,"type":"VEC3"},{"bufferView":159,"componentType":5126,"count":9574,"type":"VEC2"},{"bufferView":160,"componentType":5126,"count":9574,"type":"VEC2"},{"bufferView":161,"componentType":5123,"count":18873,"type":"SCALAR"}],"bufferViews":[{"buffer":0,"byteLength":5628,"byteOffset":0,"target":34962},{"buffer":0,"byteLength":5628,"byteOffset":5628,"target":34962},{"buffer":0,"byteLength":3752,"byteOffset":11256,"target":34962},{"buffer":0,"byteLength":1560,"byteOffset":15008,"target":34963},{"buffer":0,"byteLength":288,"byteOffset":16568,"target":34962},{"buffer":0,"byteLength":288,"byteOffset":16856,"target":34962},{"buffer":0,"byteLength":192,"byteOffset":17144,"target":34962},{"buffer":0,"byteLength":72,"byteOffset":17336,"target":34963},{"buffer":0,"byteLength":288,"byteOffset":17408,"target":34962},{"buffer":0,"byteLength":288,"byteOffset":17696,"target":34962},{"buffer":0,"byteLength":192,"byteOffset":17984,"target":34962},{"buffer":0,"byteLength":288,"byteOffset":18176,"target":34962},{"buffer":0,"byteLength":288,"byteOffset":18464,"target":34962},{"buffer":0,"byteLength":192,"byteOffset":18752,"target":34962},{"buffer":0,"byteLength":288,"byteOffset":18944,"target":34962},{"buffer":0,"byteLength":288,"byteOffset":19232,"target":34962},{"buffer":0,"byteLength":192,"byteOffset":19520,"target":34962},{"buffer":0,"byteLength":288,"byteOffset":19712,"target":34962},{"buffer":0,"byteLength":288,"byteOffset":20000,"target":34962},{"buffer":0,"byteLength":192,"byteOffset":20288,"target":34962},{"buffer":0,"byteLength":72,"byteOffset":20480,"target":34963},{"buffer":0,"byteLength":288,"byteOffset":20552,"target":34962},{"buffer":0,"byteLength":288,"byteOffset":20840,"target":34962},{"buffer":0,"byteLength":192,"byteOffset":21128,"target":34962},{"buffer":0,"byteLength":72,"byteOffset":21320,"target":34963},{"buffer":0,"byteLength":288,"byteOffset":21392,"target":34962},{"buffer":0,"byteLength":288,"byteOffset":21680,"target":34962},{"buffer":0,"byteLength":192,"byteOffset":21968,"target":34962},{"buffer":0,"byteLength":288,"byteOffset":22160,"target":34962},{"buffer":0,"byteLength":288,"byteOffset":22448,"target":34962},{"buffer":0,"byteLength":192,"byteOffset":22736,"target":34962},{"buffer":0,"byteLength":72,"byteOffset":22928,"target":34963},{"buffer":0,"byteLength":288,"byteOffset":23000,"target":34962},{"buffer":0,"byteLength":288,"byteOffset":23288,"target":34962},{"buffer":0,"byteLength":192,"byteOffset":23576,"target":34962},{"buffer":0,"byteLength":288,"byteOffset":23768,"target":34962},{"buffer":0,"byteLength":288,"byteOffset":24056,"target":34962},{"buffer":0,"byteLength":192,"byteOffset":24344,"target":34962},{"buffer":0,"byteLength":288,"byteOffset":24536,"target":34962},{"buffer":0,"byteLength":288,"byteOffset":24824,"target":34962},{"buffer":0,"byteLength":192,"byteOffset":25112,"target":34962},{"buffer":0,"byteLength":288,"byteOffset":25304,"target":34962},{"buffer":0,"byteLength":288,"byteOffset":25592,"target":34962},{"buffer":0,"byteLength":192,"byteOffset":25880,"target":34962},{"buffer":0,"byteLength":288,"byteOffset":26072,"target":34962},{"buffer":0,"byteLength":288,"byteOffset":26360,"target":34962},{"buffer":0,"byteLength":192,"byteOffset":26648,"target":34962},{"buffer":0,"byteLength":72,"byteOffset":26840,"target":34963},{"buffer":0,"byteLength":288,"byteOffset":26912,"target":34962},{"buffer":0,"byteLength":288,"byteOffset":27200,"target":34962},{"buffer":0,"byteLength":192,"byteOffset":27488,"target":34962},{"buffer":0,"byteLength":72,"byteOffset":27680,"target":34963},{"buffer":0,"byteLength":288,"byteOffset":27752,"target":34962},{"buffer":0,"byteLength":288,"byteOffset":28040,"target":34962},{"buffer":0,"byteLength":192,"byteOffset":28328,"target":34962},{"buffer":0,"byteLength":288,"byteOffset":28520,"target":34962},{"buffer":0,"byteLength":288,"byteOffset":28808,"target":34962},{"buffer":0,"byteLength":192,"byteOffset":29096,"target":34962},{"buffer":0,"byteLength":288,"byteOffset":29288,"target":34962},{"buffer":0,"byteLength":288,"byteOffset":29576,"target":34962},{"buffer":0,"byteLength":192,"byteOffset":29864,"target":34962},{"buffer":0,"byteLength":72,"byteOffset":30056,"target":34963},{"buffer":0,"byteLength":288,"byteOffset":30128,"target":34962},{"buffer":0,"byteLength":288,"byteOffset":30416,"target":34962},{"buffer":0,"byteLength":192,"byteOffset":30704,"target":34962},{"buffer":0,"byteLength":72,"byteOffset":30896,"target":34963},{"buffer":0,"byteLength":288,"byteOffset":30968,"target":34962},{"buffer":0,"byteLength":288,"byteOffset":31256,"target":34962},{"buffer":0,"byteLength":192,"byteOffset":31544,"target":34962},{"buffer":0,"byteLength":72,"byteOffset":31736,"target":34963},{"buffer":0,"byteLength":288,"byteOffset":31808,"target":34962},{"buffer":0,"byteLength":288,"byteOffset":32096,"target":34962},{"buffer":0,"byteLength":192,"byteOffset":32384,"target":34962},{"buffer":0,"byteLength":288,"byteOffset":32576,"target":34962},{"buffer":0,"byteLength":288,"byteOffset":32864,"target":34962},{"buffer":0,"byteLength":192,"byteOffset":33152,"target":34962},{"buffer":0,"byteLength":288,"byteOffset":33344,"target":34962},{"buffer":0,"byteLength":288,"byteOffset":33632,"target":34962},{"buffer":0,"byteLength":192,"byteOffset":33920,"target":34962},{"buffer":0,"byteLength":288,"byteOffset":34112,"target":34962},{"buffer":0,"byteLength":288,"byteOffset":34400,"target":34962},{"buffer":0,"byteLength":192,"byteOffset":34688,"target":34962},{"buffer":0,"byteLength":288,"byteOffset":34880,"target":34962},{"buffer":0,"byteLength":288,"byteOffset":35168,"target":34962},{"buffer":0,"byteLength":192,"byteOffset":35456,"target":34962},{"buffer":0,"byteLength":288,"byteOffset":35648,"target":34962},{"buffer":0,"byteLength":288,"byteOffset":35936,"target":34962},{"buffer":0,"byteLength":192,"byteOffset":36224,"target":34962},{"buffer":0,"byteLength":288,"byteOffset":36416,"target":34962},{"buffer":0,"byteLength":288,"byteOffset":36704,"target":34962},{"buffer":0,"byteLength":192,"byteOffset":36992,"target":34962},{"buffer":0,"byteLength":288,"byteOffset":37184,"target":34962},{"buffer":0,"byteLength":288,"byteOffset":37472,"target":34962},{"buffer":0,"byteLength":192,"byteOffset":37760,"target":34962},{"buffer":0,"byteLength":288,"byteOffset":37952,"target":34962},{"buffer":0,"byteLength":288,"byteOffset":38240,"target":34962},{"buffer":0,"byteLength":192,"byteOffset":38528,"target":34962},{"buffer":0,"byteLength":288,"byteOffset":38720,"target":34962},{"buffer":0,"byteLength":288,"byteOffset":39008,"target":34962},{"buffer":0,"byteLength":192,"byteOffset":39296,"target":34962},{"buffer":0,"byteLength":288,"byteOffset":39488,"target":34962},{"buffer":0,"byteLength":288,"byteOffset":39776,"target":34962},{"buffer":0,"byteLength":192,"byteOffset":40064,"target":34962},{"buffer":0,"byteLength":288,"byteOffset":40256,"target":34962},{"buffer":0,"byteLength":288,"byteOffset":40544,"target":34962},{"buffer":0,"byteLength":192,"byteOffset":40832,"target":34962},{"buffer":0,"byteLength":288,"byteOffset":41024,"target":34962},{"buffer":0,"byteLength":288,"byteOffset":41312,"target":34962},{"buffer":0,"byteLength":192,"byteOffset":41600,"target":34962},{"buffer":0,"byteLength":288,"byteOffset":41792,"target":34962},{"buffer":0,"byteLength":288,"byteOffset":42080,"target":34962},{"buffer":0,"byteLength":192,"byteOffset":42368,"target":34962},{"buffer":0,"byteLength":288,"byteOffset":42560,"target":34962},{"buffer":0,"byteLength":288,"byteOffset":42848,"target":34962},{"buffer":0,"byteLength":192,"byteOffset":43136,"target":34962},{"buffer":0,"byteLength":288,"byteOffset":43328,"target":34962},{"buffer":0,"byteLength":288,"byteOffset":43616,"target":34962},{"buffer":0,"byteLength":192,"byteOffset":43904,"target":34962},{"buffer":0,"byteLength":288,"byteOffset":44096,"target":34962},{"buffer":0,"byteLength":288,"byteOffset":44384,"target":34962},{"buffer":0,"byteLength":192,"byteOffset":44672,"target":34962},{"buffer":0,"byteLength":288,"byteOffset":44864,"target":34962},{"buffer":0,"byteLength":288,"byteOffset":45152,"target":34962},{"buffer":0,"byteLength":192,"byteOffset":45440,"target":34962},{"buffer":0,"byteLength":288,"byteOffset":45632,"target":34962},{"buffer":0,"byteLength":288,"byteOffset":45920,"target":34962},{"buffer":0,"byteLength":192,"byteOffset":46208,"target":34962},{"buffer":0,"byteLength":72,"byteOffset":46400,"target":34963},{"buffer":0,"byteLength":288,"byteOffset":46472,"target":34962},{"buffer":0,"byteLength":288,"byteOffset":46760,"target":34962},{"buffer":0,"byteLength":192,"byteOffset":47048,"target":34962},{"buffer":0,"byteLength":72,"byteOffset":47240,"target":34963},{"buffer":0,"byteLength":288,"byteOffset":47312,"target":34962},{"buffer":0,"byteLength":288,"byteOffset":47600,"target":34962},{"buffer":0,"byteLength":192,"byteOffset":47888,"target":34962},{"buffer":0,"byteLength":288,"byteOffset":48080,"target":34962},{"buffer":0,"byteLength":288,"byteOffset":48368,"target":34962},{"buffer":0,"byteLength":192,"byteOffset":48656,"target":34962},{"buffer":0,"byteLength":288,"byteOffset":48848,"target":34962},{"buffer":0,"byteLength":288,"byteOffset":49136,"target":34962},{"buffer":0,"byteLength":192,"byteOffset":49424,"target":34962},{"buffer":0,"byteLength":288,"byteOffset":49616,"target":34962},{"buffer":0,"byteLength":288,"byteOffset":49904,"target":34962},{"buffer":0,"byteLength":192,"byteOffset":50192,"target":34962},{"buffer":0,"byteLength":288,"byteOffset":50384,"target":34962},{"buffer":0,"byteLength":288,"byteOffset":50672,"target":34962},{"buffer":0,"byteLength":192,"byteOffset":50960,"target":34962},{"buffer":0,"byteLength":288,"byteOffset":51152,"target":34962},{"buffer":0,"byteLength":288,"byteOffset":51440,"target":34962},{"buffer":0,"byteLength":192,"byteOffset":51728,"target":34962},{"buffer":0,"byteLength":72,"byteOffset":51920,"target":34963},{"buffer":0,"byteLength":288,"byteOffset":51992,"target":34962},{"buffer":0,"byteLength":288,"byteOffset":52280,"target":34962},{"buffer":0,"byteLength":192,"byteOffset":52568,"target":34962},{"buffer":0,"byteLength":288,"byteOffset":52760,"target":34962},{"buffer":0,"byteLength":288,"byteOffset":53048,"target":34962},{"buffer":0,"byteLength":192,"byteOffset":53336,"target":34962},{"buffer":0,"byteLength":114888,"byteOffset":53528,"target":34962},{"buffer":0,"byteLength":114888,"byteOffset":168416,"target":34962},{"buffer":0,"byteLength":76592,"byteOffset":283304,"target":34962},{"buffer":0,"byteLength":76592,"byteOffset":359896,"target":34962},{"buffer":0,"byteLength":37746,"byteOffset":436488,"target":34963}],"samplers":[{"magFilter":9729,"minFilter":9987}],"buffers":[{"byteLength":474236,"uri":"apoc_SM_Bld_Apartment_01.bin"}]}