{
	"asset":{
		"generator":"Khronos glTF Blender I/O v4.4.55",
		"version":"2.0"
	},
	"extensionsUsed":[
		"EXT_texture_webp"
	],
	"extensionsRequired":[
		"EXT_texture_webp"
	],
	"scene":0,
	"scenes":[
		{
			"name":"Scene",
			"nodes":[
				0
			]
		}
	],
	"nodes":[
		{
			"mesh":0,
			"name":"SM_Env_Ground_Tile_Floating_Platform_01",
			"rotation":[
				0.7071068286895752,
				0,
				0,
				0.7071068286895752
			],
			"scale":[
				0.009999999776482582,
				0.009999999776482582,
				0.009999999776482582
			]
		}
	],
	"materials":[
		{
			"doubleSided":true,
			"name":"lambert88",
			"pbrMetallicRoughness":{
				"baseColorTexture":{
					"index":0
				},
				"metallicFactor":0,
				"roughnessFactor":0.5527864098548889
			}
		}
	],
	"meshes":[
		{
			"name":"Mesh",
			"primitives":[
				{
					"attributes":{
						"POSITION":0,
						"NORMAL":1,
						"TEXCOORD_0":2
					},
					"indices":3,
					"material":0
				}
			]
		}
	],
	"textures":[
		{
			"extensions":{
				"EXT_texture_webp":{
					"source":0
				}
			},
			"sampler":0
		}
	],
	"images":[
		{
			"mimeType":"image/webp",
			"name":"PolygonScifi_01_A",
			"uri":"PolygonScifi_01_A.webp"
		}
	],
	"accessors":[
		{
			"bufferView":0,
			"componentType":5126,
			"count":5607,
			"max":[
				539.8612060546875,
				39.86130142211914,
				285.77349853515625
			],
			"min":[
				-45.10040283203125,
				-545.1004028320312,
				0
			],
			"type":"VEC3"
		},
		{
			"bufferView":1,
			"componentType":5126,
			"count":5607,
			"type":"VEC3"
		},
		{
			"bufferView":2,
			"componentType":5126,
			"count":5607,
			"type":"VEC2"
		},
		{
			"bufferView":3,
			"componentType":5123,
			"count":8982,
			"type":"SCALAR"
		}
	],
	"bufferViews":[
		{
			"buffer":0,
			"byteLength":67284,
			"byteOffset":0,
			"target":34962
		},
		{
			"buffer":0,
			"byteLength":67284,
			"byteOffset":67284,
			"target":34962
		},
		{
			"buffer":0,
			"byteLength":44856,
			"byteOffset":134568,
			"target":34962
		},
		{
			"buffer":0,
			"byteLength":17964,
			"byteOffset":179424,
			"target":34963
		}
	],
	"samplers":[
		{
			"magFilter":9729,
			"minFilter":9987
		}
	],
	"buffers":[
		{
			"byteLength":197388,
			"uri":"city_SM_Env_Ground_Tile_Floating_Platform_01.bin"
		}
	]
}
