{
	"asset":{
		"generator":"Khronos glTF Blender I/O v4.4.55",
		"version":"2.0"
	},
	"extensionsUsed":[
		"EXT_texture_webp"
	],
	"extensionsRequired":[
		"EXT_texture_webp"
	],
	"scene":0,
	"scenes":[
		{
			"name":"Scene",
			"nodes":[
				9
			]
		}
	],
	"nodes":[
		{
			"mesh":0,
			"name":"SM_Veh_Classic_01_Glass"
		},
		{
			"mesh":1,
			"name":"SM_Veh_Classic_01_L_Glass"
		},
		{
			"children":[
				1
			],
			"mesh":2,
			"name":"SM_Veh_Classic_01_L_Door"
		},
		{
			"mesh":3,
			"name":"SM_Veh_Classic_01_R_Glass"
		},
		{
			"children":[
				3
			],
			"mesh":4,
			"name":"SM_Veh_Classic_01_R_Door"
		},
		{
			"mesh":5,
			"name":"SM_Veh_Classic_01_Wheel_fl"
		},
		{
			"mesh":6,
			"name":"SM_Veh_Classic_01_Wheel_fr"
		},
		{
			"mesh":7,
			"name":"SM_Veh_Classic_01_Wheel_rl"
		},
		{
			"mesh":8,
			"name":"SM_Veh_Classic_01_Wheel_rr"
		},
		{
			"children":[
				0,
				2,
				4,
				5,
				6,
				7,
				8
			],
			"mesh":9,
			"name":"SM_Veh_Classic_01",
			"rotation":[
				0.7071068286895752,
				0,
				0,
				0.7071068286895752
			],
			"scale":[
				0.009999999776482582,
				0.009999999776482582,
				0.009999999776482582
			]
		}
	],
	"materials":[
		{
			"doubleSided":true,
			"name":"Body1",
			"pbrMetallicRoughness":{
				"baseColorTexture":{
					"index":0
				},
				"metallicFactor":0,
				"roughnessFactor":0.5527864098548889
			}
		}
	],
	"meshes":[
		{
			"name":"Mesh.001",
			"primitives":[
				{
					"attributes":{
						"POSITION":0,
						"NORMAL":1,
						"TEXCOORD_0":2
					},
					"indices":3,
					"material":0
				}
			]
		},
		{
			"name":"Mesh.005",
			"primitives":[
				{
					"attributes":{
						"POSITION":4,
						"NORMAL":5,
						"TEXCOORD_0":6
					},
					"indices":7,
					"material":0
				}
			]
		},
		{
			"name":"Mesh.004",
			"primitives":[
				{
					"attributes":{
						"POSITION":8,
						"NORMAL":9,
						"TEXCOORD_0":10
					},
					"indices":11,
					"material":0
				}
			]
		},
		{
			"name":"Mesh.003",
			"primitives":[
				{
					"attributes":{
						"POSITION":12,
						"NORMAL":13,
						"TEXCOORD_0":14
					},
					"indices":15,
					"material":0
				}
			]
		},
		{
			"name":"Mesh.002",
			"primitives":[
				{
					"attributes":{
						"POSITION":16,
						"NORMAL":17,
						"TEXCOORD_0":18
					},
					"indices":19,
					"material":0
				}
			]
		},
		{
			"name":"Mesh.006",
			"primitives":[
				{
					"attributes":{
						"POSITION":20,
						"NORMAL":21,
						"TEXCOORD_0":22
					},
					"indices":23,
					"material":0
				}
			]
		},
		{
			"name":"Mesh.007",
			"primitives":[
				{
					"attributes":{
						"POSITION":24,
						"NORMAL":25,
						"TEXCOORD_0":26
					},
					"indices":27,
					"material":0
				}
			]
		},
		{
			"name":"Mesh.008",
			"primitives":[
				{
					"attributes":{
						"POSITION":28,
						"NORMAL":29,
						"TEXCOORD_0":30
					},
					"indices":31,
					"material":0
				}
			]
		},
		{
			"name":"Mesh.009",
			"primitives":[
				{
					"attributes":{
						"POSITION":32,
						"NORMAL":33,
						"TEXCOORD_0":34
					},
					"indices":35,
					"material":0
				}
			]
		},
		{
			"name":"Mesh",
			"primitives":[
				{
					"attributes":{
						"POSITION":36,
						"NORMAL":37,
						"TEXCOORD_0":38
					},
					"indices":39,
					"material":0
				}
			]
		}
	],
	"textures":[
		{
			"extensions":{
				"EXT_texture_webp":{
					"source":0
				}
			},
			"sampler":0
		}
	],
	"images":[
		{
			"mimeType":"image/webp",
			"name":"PolygonScifi_01_A",
			"uri":"PolygonScifi_01_A.webp"
		}
	],
	"accessors":[
		{
			"bufferView":0,
			"componentType":5126,
			"count":30,
			"max":[
				88.27830505371094,
				87.6792984008789,
				-121.60295104980469
			],
			"min":[
				-88.27830505371094,
				15.349584579467773,
				-171.74903869628906
			],
			"type":"VEC3"
		},
		{
			"bufferView":1,
			"componentType":5126,
			"count":30,
			"type":"VEC3"
		},
		{
			"bufferView":2,
			"componentType":5126,
			"count":30,
			"type":"VEC2"
		},
		{
			"bufferView":3,
			"componentType":5123,
			"count":72,
			"type":"SCALAR"
		},
		{
			"bufferView":4,
			"componentType":5126,
			"count":17,
			"max":[
				94.75908660888672,
				41.58058166503906,
				-121.4599609375
			],
			"min":[
				84.21830749511719,
				-74.5293960571289,
				-160.45086669921875
			],
			"type":"VEC3"
		},
		{
			"bufferView":5,
			"componentType":5126,
			"count":17,
			"type":"VEC3"
		},
		{
			"bufferView":6,
			"componentType":5126,
			"count":17,
			"type":"VEC2"
		},
		{
			"bufferView":7,
			"componentType":5123,
			"count":27,
			"type":"SCALAR"
		},
		{
			"bufferView":8,
			"componentType":5126,
			"count":216,
			"max":[
				102.876220703125,
				93.79930114746094,
				-56.31438064575195
			],
			"min":[
				78.56439971923828,
				-88.18285369873047,
				-168.16616821289062
			],
			"type":"VEC3"
		},
		{
			"bufferView":9,
			"componentType":5126,
			"count":216,
			"type":"VEC3"
		},
		{
			"bufferView":10,
			"componentType":5126,
			"count":216,
			"type":"VEC2"
		},
		{
			"bufferView":11,
			"componentType":5123,
			"count":384,
			"type":"SCALAR"
		},
		{
			"bufferView":12,
			"componentType":5126,
			"count":18,
			"max":[
				-84.21830749511719,
				41.58058166503906,
				-121.4599609375
			],
			"min":[
				-94.75908660888672,
				-74.5293960571289,
				-160.45086669921875
			],
			"type":"VEC3"
		},
		{
			"bufferView":13,
			"componentType":5126,
			"count":18,
			"type":"VEC3"
		},
		{
			"bufferView":14,
			"componentType":5126,
			"count":18,
			"type":"VEC2"
		},
		{
			"bufferView":15,
			"componentType":5123,
			"count":27,
			"type":"SCALAR"
		},
		{
			"bufferView":16,
			"componentType":5126,
			"count":214,
			"max":[
				-78.56439971923828,
				93.79930114746094,
				-55.031280517578125
			],
			"min":[
				-102.876220703125,
				-88.18285369873047,
				-168.91110229492188
			],
			"type":"VEC3"
		},
		{
			"bufferView":17,
			"componentType":5126,
			"count":214,
			"type":"VEC3"
		},
		{
			"bufferView":18,
			"componentType":5126,
			"count":214,
			"type":"VEC2"
		},
		{
			"bufferView":19,
			"componentType":5123,
			"count":378,
			"type":"SCALAR"
		},
		{
			"bufferView":20,
			"componentType":5126,
			"count":530,
			"max":[
				109.88629913330078,
				238.0460205078125,
				-0.19057846069335938
			],
			"min":[
				78.8976058959961,
				146.7760009765625,
				-91.46064758300781
			],
			"type":"VEC3"
		},
		{
			"bufferView":21,
			"componentType":5126,
			"count":530,
			"type":"VEC3"
		},
		{
			"bufferView":22,
			"componentType":5126,
			"count":530,
			"type":"VEC2"
		},
		{
			"bufferView":23,
			"componentType":5123,
			"count":936,
			"type":"SCALAR"
		},
		{
			"bufferView":24,
			"componentType":5126,
			"count":530,
			"max":[
				-78.8976058959961,
				238.0460205078125,
				-0.19057846069335938
			],
			"min":[
				-109.88629913330078,
				146.7760009765625,
				-91.46064758300781
			],
			"type":"VEC3"
		},
		{
			"bufferView":25,
			"componentType":5126,
			"count":530,
			"type":"VEC3"
		},
		{
			"bufferView":26,
			"componentType":5126,
			"count":530,
			"type":"VEC2"
		},
		{
			"bufferView":27,
			"componentType":5123,
			"count":936,
			"type":"SCALAR"
		},
		{
			"bufferView":28,
			"componentType":5126,
			"count":458,
			"max":[
				111.33460998535156,
				-115.08984375,
				0
			],
			"min":[
				60.807098388671875,
				-214.8911590576172,
				-99.80134582519531
			],
			"type":"VEC3"
		},
		{
			"bufferView":29,
			"componentType":5126,
			"count":458,
			"type":"VEC3"
		},
		{
			"bufferView":30,
			"componentType":5126,
			"count":458,
			"type":"VEC2"
		},
		{
			"bufferView":31,
			"componentType":5123,
			"count":792,
			"type":"SCALAR"
		},
		{
			"bufferView":32,
			"componentType":5126,
			"count":458,
			"max":[
				-60.807098388671875,
				-115.08984375,
				0
			],
			"min":[
				-111.33460998535156,
				-214.8911590576172,
				-99.80134582519531
			],
			"type":"VEC3"
		},
		{
			"bufferView":33,
			"componentType":5126,
			"count":458,
			"type":"VEC3"
		},
		{
			"bufferView":34,
			"componentType":5126,
			"count":458,
			"type":"VEC2"
		},
		{
			"bufferView":35,
			"componentType":5123,
			"count":792,
			"type":"SCALAR"
		},
		{
			"bufferView":36,
			"componentType":5126,
			"count":9275,
			"max":[
				124.34860229492188,
				298.3340759277344,
				-23.42501449584961
			],
			"min":[
				-124.34860229492188,
				-298.3340759277344,
				-180.42788696289062
			],
			"type":"VEC3"
		},
		{
			"bufferView":37,
			"componentType":5126,
			"count":9275,
			"type":"VEC3"
		},
		{
			"bufferView":38,
			"componentType":5126,
			"count":9275,
			"type":"VEC2"
		},
		{
			"bufferView":39,
			"componentType":5123,
			"count":14640,
			"type":"SCALAR"
		}
	],
	"bufferViews":[
		{
			"buffer":0,
			"byteLength":360,
			"byteOffset":0,
			"target":34962
		},
		{
			"buffer":0,
			"byteLength":360,
			"byteOffset":360,
			"target":34962
		},
		{
			"buffer":0,
			"byteLength":240,
			"byteOffset":720,
			"target":34962
		},
		{
			"buffer":0,
			"byteLength":144,
			"byteOffset":960,
			"target":34963
		},
		{
			"buffer":0,
			"byteLength":204,
			"byteOffset":1104,
			"target":34962
		},
		{
			"buffer":0,
			"byteLength":204,
			"byteOffset":1308,
			"target":34962
		},
		{
			"buffer":0,
			"byteLength":136,
			"byteOffset":1512,
			"target":34962
		},
		{
			"buffer":0,
			"byteLength":54,
			"byteOffset":1648,
			"target":34963
		},
		{
			"buffer":0,
			"byteLength":2592,
			"byteOffset":1704,
			"target":34962
		},
		{
			"buffer":0,
			"byteLength":2592,
			"byteOffset":4296,
			"target":34962
		},
		{
			"buffer":0,
			"byteLength":1728,
			"byteOffset":6888,
			"target":34962
		},
		{
			"buffer":0,
			"byteLength":768,
			"byteOffset":8616,
			"target":34963
		},
		{
			"buffer":0,
			"byteLength":216,
			"byteOffset":9384,
			"target":34962
		},
		{
			"buffer":0,
			"byteLength":216,
			"byteOffset":9600,
			"target":34962
		},
		{
			"buffer":0,
			"byteLength":144,
			"byteOffset":9816,
			"target":34962
		},
		{
			"buffer":0,
			"byteLength":54,
			"byteOffset":9960,
			"target":34963
		},
		{
			"buffer":0,
			"byteLength":2568,
			"byteOffset":10016,
			"target":34962
		},
		{
			"buffer":0,
			"byteLength":2568,
			"byteOffset":12584,
			"target":34962
		},
		{
			"buffer":0,
			"byteLength":1712,
			"byteOffset":15152,
			"target":34962
		},
		{
			"buffer":0,
			"byteLength":756,
			"byteOffset":16864,
			"target":34963
		},
		{
			"buffer":0,
			"byteLength":6360,
			"byteOffset":17620,
			"target":34962
		},
		{
			"buffer":0,
			"byteLength":6360,
			"byteOffset":23980,
			"target":34962
		},
		{
			"buffer":0,
			"byteLength":4240,
			"byteOffset":30340,
			"target":34962
		},
		{
			"buffer":0,
			"byteLength":1872,
			"byteOffset":34580,
			"target":34963
		},
		{
			"buffer":0,
			"byteLength":6360,
			"byteOffset":36452,
			"target":34962
		},
		{
			"buffer":0,
			"byteLength":6360,
			"byteOffset":42812,
			"target":34962
		},
		{
			"buffer":0,
			"byteLength":4240,
			"byteOffset":49172,
			"target":34962
		},
		{
			"buffer":0,
			"byteLength":1872,
			"byteOffset":53412,
			"target":34963
		},
		{
			"buffer":0,
			"byteLength":5496,
			"byteOffset":55284,
			"target":34962
		},
		{
			"buffer":0,
			"byteLength":5496,
			"byteOffset":60780,
			"target":34962
		},
		{
			"buffer":0,
			"byteLength":3664,
			"byteOffset":66276,
			"target":34962
		},
		{
			"buffer":0,
			"byteLength":1584,
			"byteOffset":69940,
			"target":34963
		},
		{
			"buffer":0,
			"byteLength":5496,
			"byteOffset":71524,
			"target":34962
		},
		{
			"buffer":0,
			"byteLength":5496,
			"byteOffset":77020,
			"target":34962
		},
		{
			"buffer":0,
			"byteLength":3664,
			"byteOffset":82516,
			"target":34962
		},
		{
			"buffer":0,
			"byteLength":1584,
			"byteOffset":86180,
			"target":34963
		},
		{
			"buffer":0,
			"byteLength":111300,
			"byteOffset":87764,
			"target":34962
		},
		{
			"buffer":0,
			"byteLength":111300,
			"byteOffset":199064,
			"target":34962
		},
		{
			"buffer":0,
			"byteLength":74200,
			"byteOffset":310364,
			"target":34962
		},
		{
			"buffer":0,
			"byteLength":29280,
			"byteOffset":384564,
			"target":34963
		}
	],
	"samplers":[
		{
			"magFilter":9729,
			"minFilter":9987
		}
	],
	"buffers":[
		{
			"byteLength":413844,
			"uri":"city_SM_Veh_Classic_01.bin"
		}
	]
}
