{
	"asset":{
		"generator":"Khronos glTF Blender I/O v4.4.55",
		"version":"2.0"
	},
	"extensionsUsed":[
		"EXT_texture_webp"
	],
	"extensionsRequired":[
		"EXT_texture_webp"
	],
	"scene":0,
	"scenes":[
		{
			"name":"Scene",
			"nodes":[
				2
			]
		}
	],
	"nodes":[
		{
			"mesh":0,
			"name":"SM_Veh_Future_Cop_01_Glass"
		},
		{
			"mesh":1,
			"name":"SM_Veh_Future_Cop_01SteeringW",
			"rotation":[
				0.2122480422258377,
				0,
				0,
				0.9772158265113831
			],
			"translation":[
				0,
				-35.79652404785156,
				-26.907102584838867
			]
		},
		{
			"children":[
				0,
				1
			],
			"mesh":2,
			"name":"SM_Veh_Future_Cop_01",
			"rotation":[
				0.7071068286895752,
				0,
				0,
				0.7071068286895752
			],
			"scale":[
				0.009999999776482582,
				0.009999999776482582,
				0.009999999776482582
			]
		}
	],
	"materials":[
		{
			"doubleSided":true,
			"name":"Body1",
			"pbrMetallicRoughness":{
				"baseColorTexture":{
					"index":0
				},
				"metallicFactor":0,
				"roughnessFactor":0.5527864098548889
			}
		}
	],
	"meshes":[
		{
			"name":"Mesh.002",
			"primitives":[
				{
					"attributes":{
						"POSITION":0,
						"NORMAL":1,
						"TEXCOORD_0":2
					},
					"indices":3,
					"material":0
				}
			]
		},
		{
			"name":"Mesh.001",
			"primitives":[
				{
					"attributes":{
						"POSITION":4,
						"NORMAL":5,
						"TEXCOORD_0":6
					},
					"indices":7,
					"material":0
				}
			]
		},
		{
			"name":"Mesh",
			"primitives":[
				{
					"attributes":{
						"POSITION":8,
						"NORMAL":9,
						"TEXCOORD_0":10
					},
					"indices":11,
					"material":0
				}
			]
		}
	],
	"textures":[
		{
			"extensions":{
				"EXT_texture_webp":{
					"source":0
				}
			},
			"sampler":0
		}
	],
	"images":[
		{
			"mimeType":"image/webp",
			"name":"PolygonScifi_01_A",
			"uri":"PolygonScifi_01_A.webp"
		}
	],
	"accessors":[
		{
			"bufferView":0,
			"componentType":5126,
			"count":74,
			"max":[
				89.1667251586914,
				97.24729919433594,
				-110.692626953125
			],
			"min":[
				-89.1667251586914,
				-211.5369415283203,
				-148.94189453125
			],
			"type":"VEC3"
		},
		{
			"bufferView":1,
			"componentType":5126,
			"count":74,
			"type":"VEC3"
		},
		{
			"bufferView":2,
			"componentType":5126,
			"count":74,
			"type":"VEC2"
		},
		{
			"bufferView":3,
			"componentType":5123,
			"count":102,
			"type":"SCALAR"
		},
		{
			"bufferView":4,
			"componentType":5126,
			"count":631,
			"max":[
				63.9007682800293,
				54.9183349609375,
				-76.4111328125
			],
			"min":[
				15.24061393737793,
				39.72580337524414,
				-108.0239486694336
			],
			"type":"VEC3"
		},
		{
			"bufferView":5,
			"componentType":5126,
			"count":631,
			"type":"VEC3"
		},
		{
			"bufferView":6,
			"componentType":5126,
			"count":631,
			"type":"VEC2"
		},
		{
			"bufferView":7,
			"componentType":5123,
			"count":930,
			"type":"SCALAR"
		},
		{
			"bufferView":8,
			"componentType":5126,
			"count":7341,
			"max":[
				137.0572052001953,
				253.86618041992188,
				2.241795063018799
			],
			"min":[
				-136.81741333007812,
				-269.71942138671875,
				-222.354248046875
			],
			"type":"VEC3"
		},
		{
			"bufferView":9,
			"componentType":5126,
			"count":7341,
			"type":"VEC3"
		},
		{
			"bufferView":10,
			"componentType":5126,
			"count":7341,
			"type":"VEC2"
		},
		{
			"bufferView":11,
			"componentType":5123,
			"count":11454,
			"type":"SCALAR"
		}
	],
	"bufferViews":[
		{
			"buffer":0,
			"byteLength":888,
			"byteOffset":0,
			"target":34962
		},
		{
			"buffer":0,
			"byteLength":888,
			"byteOffset":888,
			"target":34962
		},
		{
			"buffer":0,
			"byteLength":592,
			"byteOffset":1776,
			"target":34962
		},
		{
			"buffer":0,
			"byteLength":204,
			"byteOffset":2368,
			"target":34963
		},
		{
			"buffer":0,
			"byteLength":7572,
			"byteOffset":2572,
			"target":34962
		},
		{
			"buffer":0,
			"byteLength":7572,
			"byteOffset":10144,
			"target":34962
		},
		{
			"buffer":0,
			"byteLength":5048,
			"byteOffset":17716,
			"target":34962
		},
		{
			"buffer":0,
			"byteLength":1860,
			"byteOffset":22764,
			"target":34963
		},
		{
			"buffer":0,
			"byteLength":88092,
			"byteOffset":24624,
			"target":34962
		},
		{
			"buffer":0,
			"byteLength":88092,
			"byteOffset":112716,
			"target":34962
		},
		{
			"buffer":0,
			"byteLength":58728,
			"byteOffset":200808,
			"target":34962
		},
		{
			"buffer":0,
			"byteLength":22908,
			"byteOffset":259536,
			"target":34963
		}
	],
	"samplers":[
		{
			"magFilter":9729,
			"minFilter":9987
		}
	],
	"buffers":[
		{
			"byteLength":282444,
			"uri":"city_SM_Veh_Future_Cop_01.bin"
		}
	]
}
