{
	"asset":{
		"generator":"Khronos glTF Blender I/O v4.4.55",
		"version":"2.0"
	},
	"extensionsUsed":[
		"EXT_texture_webp"
	],
	"extensionsRequired":[
		"EXT_texture_webp"
	],
	"scene":0,
	"scenes":[
		{
			"name":"Scene",
			"nodes":[
				0
			]
		}
	],
	"nodes":[
		{
			"mesh":0,
			"name":"SM_Prop_DeadZub_05",
			"rotation":[
				0.7071068286895752,
				0,
				0,
				0.7071068286895752
			],
			"scale":[
				0.009999999776482582,
				0.009999999776482582,
				0.009999999776482582
			]
		}
	],
	"materials":[
		{
			"doubleSided":true,
			"name":"lambert30",
			"pbrMetallicRoughness":{
				"baseColorTexture":{
					"index":0
				},
				"metallicFactor":0,
				"roughnessFactor":0.5527864098548889
			}
		},
		{
			"doubleSided":true,
			"name":"lambert29",
			"pbrMetallicRoughness":{
				"baseColorTexture":{
					"index":1
				},
				"metallicFactor":0,
				"roughnessFactor":0.5527864098548889
			}
		}
	],
	"meshes":[
		{
			"name":"Mesh",
			"primitives":[
				{
					"attributes":{
						"POSITION":0,
						"NORMAL":1,
						"TEXCOORD_0":2
					},
					"indices":3,
					"material":0
				},
				{
					"attributes":{
						"POSITION":4,
						"NORMAL":5,
						"TEXCOORD_0":6
					},
					"indices":7,
					"material":1
				}
			]
		}
	],
	"textures":[
		{
			"extensions":{
				"EXT_texture_webp":{
					"source":0
				}
			},
			"sampler":0
		},
		{
			"extensions":{
				"EXT_texture_webp":{
					"source":0
				}
			},
			"sampler":0
		}
	],
	"images":[
		{
			"mimeType":"image/webp",
			"name":"PolygonScifi_01_A",
			"uri":"PolygonScifi_01_A.webp"
		}
	],
	"accessors":[
		{
			"bufferView":0,
			"componentType":5126,
			"count":908,
			"max":[
				8.258959770202637,
				8.879870414733887,
				-8.190872192382812
			],
			"min":[
				-7.257706642150879,
				-7.766664028167725,
				-22.020009994506836
			],
			"type":"VEC3"
		},
		{
			"bufferView":1,
			"componentType":5126,
			"count":908,
			"type":"VEC3"
		},
		{
			"bufferView":2,
			"componentType":5126,
			"count":908,
			"type":"VEC2"
		},
		{
			"bufferView":3,
			"componentType":5123,
			"count":1266,
			"type":"SCALAR"
		},
		{
			"bufferView":4,
			"componentType":5126,
			"count":1816,
			"max":[
				8.830024719238281,
				9.265331268310547,
				-2.089672088623047
			],
			"min":[
				-9.068730354309082,
				-9.278642654418945,
				-27.87114715576172
			],
			"type":"VEC3"
		},
		{
			"bufferView":5,
			"componentType":5126,
			"count":1816,
			"type":"VEC3"
		},
		{
			"bufferView":6,
			"componentType":5126,
			"count":1816,
			"type":"VEC2"
		},
		{
			"bufferView":7,
			"componentType":5123,
			"count":2532,
			"type":"SCALAR"
		}
	],
	"bufferViews":[
		{
			"buffer":0,
			"byteLength":10896,
			"byteOffset":0,
			"target":34962
		},
		{
			"buffer":0,
			"byteLength":10896,
			"byteOffset":10896,
			"target":34962
		},
		{
			"buffer":0,
			"byteLength":7264,
			"byteOffset":21792,
			"target":34962
		},
		{
			"buffer":0,
			"byteLength":2532,
			"byteOffset":29056,
			"target":34963
		},
		{
			"buffer":0,
			"byteLength":21792,
			"byteOffset":31588,
			"target":34962
		},
		{
			"buffer":0,
			"byteLength":21792,
			"byteOffset":53380,
			"target":34962
		},
		{
			"buffer":0,
			"byteLength":14528,
			"byteOffset":75172,
			"target":34962
		},
		{
			"buffer":0,
			"byteLength":5064,
			"byteOffset":89700,
			"target":34963
		}
	],
	"samplers":[
		{
			"magFilter":9729,
			"minFilter":9987
		}
	],
	"buffers":[
		{
			"byteLength":94764,
			"uri":"city_SM_Prop_DeadZub_05.bin"
		}
	]
}
