{
	"asset":{
		"generator":"Khronos glTF Blender I/O v4.4.55",
		"version":"2.0"
	},
	"extensionsUsed":[
		"EXT_texture_webp"
	],
	"extensionsRequired":[
		"EXT_texture_webp"
	],
	"scene":0,
	"scenes":[
		{
			"name":"Scene",
			"nodes":[
				0
			]
		}
	],
	"nodes":[
		{
			"mesh":0,
			"name":"SM_Prop_Posters_03",
			"rotation":[
				0.7071068286895752,
				0,
				0,
				0.7071068286895752
			],
			"scale":[
				0.010000000707805157,
				0.010000000707805157,
				0.010000000707805157
			]
		}
	],
	"materials":[
		{
			"doubleSided":true,
			"name":"lambert224",
			"pbrMetallicRoughness":{
				"baseColorTexture":{
					"index":0
				},
				"metallicFactor":0,
				"roughnessFactor":0.5527864098548889
			}
		}
	],
	"meshes":[
		{
			"name":"Mesh",
			"primitives":[
				{
					"attributes":{
						"POSITION":0,
						"NORMAL":1,
						"TEXCOORD_0":2
					},
					"indices":3,
					"material":0
				}
			]
		}
	],
	"textures":[
		{
			"extensions":{
				"EXT_texture_webp":{
					"source":0
				}
			},
			"sampler":0
		}
	],
	"images":[
		{
			"mimeType":"image/webp",
			"name":"Billboards",
			"uri":"Billboards.webp"
		}
	],
	"accessors":[
		{
			"bufferView":0,
			"componentType":5126,
			"count":85,
			"max":[
				302.7117919921875,
				334.96002197265625,
				0
			],
			"min":[
				-302.7117919921875,
				-334.9603271484375,
				-16.506135940551758
			],
			"type":"VEC3"
		},
		{
			"bufferView":1,
			"componentType":5126,
			"count":85,
			"type":"VEC3"
		},
		{
			"bufferView":2,
			"componentType":5126,
			"count":85,
			"type":"VEC2"
		},
		{
			"bufferView":3,
			"componentType":5123,
			"count":147,
			"type":"SCALAR"
		}
	],
	"bufferViews":[
		{
			"buffer":0,
			"byteLength":1020,
			"byteOffset":0,
			"target":34962
		},
		{
			"buffer":0,
			"byteLength":1020,
			"byteOffset":1020,
			"target":34962
		},
		{
			"buffer":0,
			"byteLength":680,
			"byteOffset":2040,
			"target":34962
		},
		{
			"buffer":0,
			"byteLength":294,
			"byteOffset":2720,
			"target":34963
		}
	],
	"samplers":[
		{
			"magFilter":9729,
			"minFilter":9987
		}
	],
	"buffers":[
		{
			"byteLength":3016,
			"uri":"city_SM_Prop_Posters_03.bin"
		}
	]
}
