{"asset":{"generator":"Khronos glTF Blender I/O v4.4.55","version":"2.0"},"extensionsUsed":["EXT_texture_webp"],"extensionsRequired":["EXT_texture_webp"],"scene":0,"scenes":[{"name":"Scene","nodes":[2]}],"nodes":[{"mesh":0,"name":"SM_Bld_Section_Door_07_Door"},{"mesh":1,"name":"SM_Bld_Section_Door_07_Glass"},{"children":[0,1],"mesh":2,"name":"SM_Bld_Section_Door_07","rotation":[0.7071068286895752,0,0,0.7071068286895752],"scale":[0.009999999776482582,0.009999999776482582,0.009999999776482582]}],"materials":[{"doubleSided":true,"name":"lambert367","pbrMetallicRoughness":{"baseColorTexture":{"index":0},"metallicFactor":0,"roughnessFactor":0.5527864098548889}},{"alphaMode":"MASK","doubleSided":true,"name":"lambert368","pbrMetallicRoughness":{"baseColorFactor":[1,1,1,0.33833831548690796],"baseColorTexture":{"index":1},"metallicFactor":0,"roughnessFactor":0.5527864098548889},"alphaCutoff":0.5}],"meshes":[{"name":"Mesh.002","primitives":[{"attributes":{"POSITION":0,"NORMAL":1,"TEXCOORD_0":2},"indices":3,"material":0}]},{"name":"Mesh.001","primitives":[{"attributes":{"POSITION":4,"NORMAL":5,"TEXCOORD_0":6},"indices":7,"material":1}]},{"name":"Mesh","primitives":[{"attributes":{"POSITION":8,"NORMAL":9,"TEXCOORD_0":10},"indices":11,"material":0}]}],"textures":[{"extensions":{"EXT_texture_webp":{"source":0}},"sampler":0},{"extensions":{"EXT_texture_webp":{"source":0}},"sampler":0}],"images":[{"mimeType":"image/webp","name":"PolygonScifi_01_A","uri":"PolygonScifi_01_A.webp"}],"accessors":[{"bufferView":0,"componentType":5126,"count":1049,"max":[426.1077880859375,9.975624084472656,-25.972938537597656],"min":[308.837890625,-23.990631103515625,-210.162353515625],"type":"VEC3"},{"bufferView":1,"componentType":5126,"count":1049,"type":"VEC3"},{"bufferView":2,"componentType":5126,"count":1049,"type":"VEC2"},{"bufferView":3,"componentType":5123,"count":2034,"type":"SCALAR"},{"bufferView":4,"componentType":5126,"count":40,"max":[480.2459716796875,-9.56268310546875,-29.76818084716797],"min":[19.75555419921875,-11.03811264038086,-275.0946044921875],"type":"VEC3"},{"bufferView":5,"componentType":5126,"count":40,"type":"VEC3"},{"bufferView":6,"componentType":5126,"count":40,"type":"VEC2"},{"bufferView":7,"componentType":5123,"count":60,"type":"SCALAR"},{"bufferView":8,"componentType":5126,"count":2532,"max":[500,19.04070281982422,0],"min":[0,-500,-300],"type":"VEC3"},{"bufferView":9,"componentType":5126,"count":2532,"type":"VEC3"},{"bufferView":10,"componentType":5126,"count":2532,"type":"VEC2"},{"bufferView":11,"componentType":5123,"count":4116,"type":"SCALAR"}],"bufferViews":[{"buffer":0,"byteLength":12588,"byteOffset":0,"target":34962},{"buffer":0,"byteLength":12588,"byteOffset":12588,"target":34962},{"buffer":0,"byteLength":8392,"byteOffset":25176,"target":34962},{"buffer":0,"byteLength":4068,"byteOffset":33568,"target":34963},{"buffer":0,"byteLength":480,"byteOffset":37636,"target":34962},{"buffer":0,"byteLength":480,"byteOffset":38116,"target":34962},{"buffer":0,"byteLength":320,"byteOffset":38596,"target":34962},{"buffer":0,"byteLength":120,"byteOffset":38916,"target":34963},{"buffer":0,"byteLength":30384,"byteOffset":39036,"target":34962},{"buffer":0,"byteLength":30384,"byteOffset":69420,"target":34962},{"buffer":0,"byteLength":20256,"byteOffset":99804,"target":34962},{"buffer":0,"byteLength":8232,"byteOffset":120060,"target":34963}],"samplers":[{"magFilter":9729,"minFilter":9987}],"buffers":[{"byteLength":128292,"uri":"city_SM_Bld_Section_Door_07.bin"}]}