{
	"asset":{
		"generator":"Khronos glTF Blender I/O v4.4.55",
		"version":"2.0"
	},
	"extensionsUsed":[
		"EXT_texture_webp"
	],
	"extensionsRequired":[
		"EXT_texture_webp"
	],
	"scene":0,
	"scenes":[
		{
			"name":"Scene",
			"nodes":[
				0
			]
		}
	],
	"nodes":[
		{
			"mesh":0,
			"name":"SM_Bld_Section_Corner_02",
			"rotation":[
				0.7071068286895752,
				0,
				0,
				0.7071068286895752
			],
			"scale":[
				0.009999999776482582,
				0.009999999776482582,
				0.009999999776482582
			]
		}
	],
	"materials":[
		{
			"doubleSided":true,
			"name":"lambert36",
			"pbrMetallicRoughness":{
				"baseColorTexture":{
					"index":0
				},
				"metallicFactor":0,
				"roughnessFactor":0.5527864098548889
			}
		}
	],
	"meshes":[
		{
			"name":"Mesh",
			"primitives":[
				{
					"attributes":{
						"POSITION":0,
						"NORMAL":1,
						"TEXCOORD_0":2
					},
					"indices":3,
					"material":0
				}
			]
		}
	],
	"textures":[
		{
			"extensions":{
				"EXT_texture_webp":{
					"source":0
				}
			},
			"sampler":0
		}
	],
	"images":[
		{
			"mimeType":"image/webp",
			"name":"PolygonScifi_01_A",
			"uri":"PolygonScifi_01_A.webp"
		}
	],
	"accessors":[
		{
			"bufferView":0,
			"componentType":5126,
			"count":570,
			"max":[
				509.267822265625,
				9.267234802246094,
				1.862645149230957e-05
			],
			"min":[
				-9.267425537109375,
				-509.2674255371094,
				-300
			],
			"type":"VEC3"
		},
		{
			"bufferView":1,
			"componentType":5126,
			"count":570,
			"type":"VEC3"
		},
		{
			"bufferView":2,
			"componentType":5126,
			"count":570,
			"type":"VEC2"
		},
		{
			"bufferView":3,
			"componentType":5123,
			"count":1110,
			"type":"SCALAR"
		}
	],
	"bufferViews":[
		{
			"buffer":0,
			"byteLength":6840,
			"byteOffset":0,
			"target":34962
		},
		{
			"buffer":0,
			"byteLength":6840,
			"byteOffset":6840,
			"target":34962
		},
		{
			"buffer":0,
			"byteLength":4560,
			"byteOffset":13680,
			"target":34962
		},
		{
			"buffer":0,
			"byteLength":2220,
			"byteOffset":18240,
			"target":34963
		}
	],
	"samplers":[
		{
			"magFilter":9729,
			"minFilter":9987
		}
	],
	"buffers":[
		{
			"byteLength":20460,
			"uri":"city_SM_Bld_Section_Corner_02.bin"
		}
	]
}
