{
	"asset":{
		"generator":"Khronos glTF Blender I/O v4.4.55",
		"version":"2.0"
	},
	"extensionsUsed":[
		"EXT_texture_webp"
	],
	"extensionsRequired":[
		"EXT_texture_webp"
	],
	"scene":0,
	"scenes":[
		{
			"name":"Scene",
			"nodes":[
				0
			]
		}
	],
	"nodes":[
		{
			"mesh":0,
			"name":"SM_Prop_Shelf_Wall_Preset_03",
			"rotation":[
				0.7071068286895752,
				0,
				0,
				0.7071068286895752
			],
			"scale":[
				0.009999999776482582,
				0.009999999776482582,
				0.009999999776482582
			]
		}
	],
	"materials":[
		{
			"doubleSided":true,
			"name":"lambert1",
			"pbrMetallicRoughness":{
				"baseColorTexture":{
					"index":0
				},
				"metallicFactor":0,
				"roughnessFactor":0.5527864098548889
			}
		}
	],
	"meshes":[
		{
			"name":"Mesh",
			"primitives":[
				{
					"attributes":{
						"POSITION":0,
						"NORMAL":1,
						"TEXCOORD_0":2,
						"TEXCOORD_1":3,
						"TEXCOORD_2":4
					},
					"indices":5,
					"material":0
				}
			]
		}
	],
	"textures":[
		{
			"extensions":{
				"EXT_texture_webp":{
					"source":0
				}
			},
			"sampler":0
		}
	],
	"images":[
		{
			"mimeType":"image/webp",
			"name":"PolygonScifi_01_A",
			"uri":"PolygonScifi_01_A.webp"
		}
	],
	"accessors":[
		{
			"bufferView":0,
			"componentType":5126,
			"count":2878,
			"max":[
				101.3497314453125,
				57.7758674621582,
				117.59034729003906
			],
			"min":[
				-101.3497314453125,
				0,
				-1.6782045364379883
			],
			"type":"VEC3"
		},
		{
			"bufferView":1,
			"componentType":5126,
			"count":2878,
			"type":"VEC3"
		},
		{
			"bufferView":2,
			"componentType":5126,
			"count":2878,
			"type":"VEC2"
		},
		{
			"bufferView":3,
			"componentType":5126,
			"count":2878,
			"type":"VEC2"
		},
		{
			"bufferView":4,
			"componentType":5126,
			"count":2878,
			"type":"VEC2"
		},
		{
			"bufferView":5,
			"componentType":5123,
			"count":4488,
			"type":"SCALAR"
		}
	],
	"bufferViews":[
		{
			"buffer":0,
			"byteLength":34536,
			"byteOffset":0,
			"target":34962
		},
		{
			"buffer":0,
			"byteLength":34536,
			"byteOffset":34536,
			"target":34962
		},
		{
			"buffer":0,
			"byteLength":23024,
			"byteOffset":69072,
			"target":34962
		},
		{
			"buffer":0,
			"byteLength":23024,
			"byteOffset":92096,
			"target":34962
		},
		{
			"buffer":0,
			"byteLength":23024,
			"byteOffset":115120,
			"target":34962
		},
		{
			"buffer":0,
			"byteLength":8976,
			"byteOffset":138144,
			"target":34963
		}
	],
	"samplers":[
		{
			"magFilter":9729,
			"minFilter":9987
		}
	],
	"buffers":[
		{
			"byteLength":147120,
			"uri":"city_SM_Prop_Shelf_Wall_Preset_03.bin"
		}
	]
}
