{
	"asset":{
		"generator":"Khronos glTF Blender I/O v4.4.55",
		"version":"2.0"
	},
	"extensionsUsed":[
		"EXT_texture_webp"
	],
	"extensionsRequired":[
		"EXT_texture_webp"
	],
	"scene":0,
	"scenes":[
		{
			"name":"Scene",
			"nodes":[
				7
			]
		}
	],
	"nodes":[
		{
			"mesh":0,
			"name":"SM_Glass"
		},
		{
			"mesh":1,
			"name":"SM_HologramPods_01"
		},
		{
			"mesh":2,
			"name":"SM_Prop_Door_01"
		},
		{
			"mesh":3,
			"name":"SM_Prop_Door_02"
		},
		{
			"mesh":4,
			"name":"SM_Prop_Door_03"
		},
		{
			"mesh":5,
			"name":"SM_Prop_Door_04"
		},
		{
			"mesh":6,
			"name":"SM_Prop_Door_05"
		},
		{
			"children":[
				0,
				1,
				2,
				3,
				4,
				5,
				6
			],
			"mesh":7,
			"name":"SM_Bld_StripClub_Interior_01",
			"rotation":[
				0.7071068286895752,
				0,
				0,
				0.7071068286895752
			],
			"scale":[
				0.009999999776482582,
				0.009999999776482582,
				0.009999999776482582
			]
		}
	],
	"materials":[
		{
			"doubleSided":true,
			"name":"lambert1",
			"pbrMetallicRoughness":{
				"baseColorTexture":{
					"index":0
				},
				"metallicFactor":0,
				"roughnessFactor":0.5527864098548889
			}
		}
	],
	"meshes":[
		{
			"name":"Mesh.007",
			"primitives":[
				{
					"attributes":{
						"POSITION":0,
						"NORMAL":1,
						"TEXCOORD_0":2
					},
					"indices":3,
					"material":0
				}
			]
		},
		{
			"name":"Mesh.006",
			"primitives":[
				{
					"attributes":{
						"POSITION":4,
						"NORMAL":5,
						"TEXCOORD_0":6
					},
					"indices":7,
					"material":0
				}
			]
		},
		{
			"name":"Mesh.001",
			"primitives":[
				{
					"attributes":{
						"POSITION":8,
						"NORMAL":9,
						"TEXCOORD_0":10
					},
					"indices":11,
					"material":0
				}
			]
		},
		{
			"name":"Mesh.002",
			"primitives":[
				{
					"attributes":{
						"POSITION":12,
						"NORMAL":13,
						"TEXCOORD_0":14
					},
					"indices":15,
					"material":0
				}
			]
		},
		{
			"name":"Mesh.003",
			"primitives":[
				{
					"attributes":{
						"POSITION":16,
						"NORMAL":17,
						"TEXCOORD_0":18
					},
					"indices":19,
					"material":0
				}
			]
		},
		{
			"name":"Mesh.004",
			"primitives":[
				{
					"attributes":{
						"POSITION":20,
						"NORMAL":21,
						"TEXCOORD_0":22
					},
					"indices":23,
					"material":0
				}
			]
		},
		{
			"name":"Mesh.005",
			"primitives":[
				{
					"attributes":{
						"POSITION":24,
						"NORMAL":25,
						"TEXCOORD_0":26
					},
					"indices":27,
					"material":0
				}
			]
		},
		{
			"name":"Mesh",
			"primitives":[
				{
					"attributes":{
						"POSITION":28,
						"NORMAL":29,
						"TEXCOORD_0":30
					},
					"indices":31,
					"material":0
				}
			]
		}
	],
	"textures":[
		{
			"extensions":{
				"EXT_texture_webp":{
					"source":0
				}
			},
			"sampler":0
		}
	],
	"images":[
		{
			"mimeType":"image/webp",
			"name":"PolygonScifi_01_A",
			"uri":"PolygonScifi_01_A.webp"
		}
	],
	"accessors":[
		{
			"bufferView":0,
			"componentType":5126,
			"count":20,
			"max":[
				630.1729736328125,
				-48.88348388671875,
				-80.33647155761719
			],
			"min":[
				630.1729736328125,
				-194.87542724609375,
				-206.92620849609375
			],
			"type":"VEC3"
		},
		{
			"bufferView":1,
			"componentType":5126,
			"count":20,
			"type":"VEC3"
		},
		{
			"bufferView":2,
			"componentType":5126,
			"count":20,
			"type":"VEC2"
		},
		{
			"bufferView":3,
			"componentType":5123,
			"count":48,
			"type":"SCALAR"
		},
		{
			"bufferView":4,
			"componentType":5126,
			"count":48,
			"max":[
				972.0147705078125,
				-235.6915283203125,
				-66.43017578125
			],
			"min":[
				27.98590087890625,
				-1379.8485107421875,
				-333.56988525390625
			],
			"type":"VEC3"
		},
		{
			"bufferView":5,
			"componentType":5126,
			"count":48,
			"type":"VEC3"
		},
		{
			"bufferView":6,
			"componentType":5126,
			"count":48,
			"type":"VEC2"
		},
		{
			"bufferView":7,
			"componentType":5123,
			"count":120,
			"type":"SCALAR"
		},
		{
			"bufferView":8,
			"componentType":5126,
			"count":160,
			"max":[
				805.4112548828125,
				-208.6842041015625,
				-5.481677532196045
			],
			"min":[
				697.082275390625,
				-227.1744384765625,
				-223.7008514404297
			],
			"type":"VEC3"
		},
		{
			"bufferView":9,
			"componentType":5126,
			"count":160,
			"type":"VEC3"
		},
		{
			"bufferView":10,
			"componentType":5126,
			"count":160,
			"type":"VEC2"
		},
		{
			"bufferView":11,
			"componentType":5123,
			"count":420,
			"type":"SCALAR"
		},
		{
			"bufferView":12,
			"componentType":5126,
			"count":160,
			"max":[
				394.8953857421875,
				-64.83428955078125,
				-5.4816789627075195
			],
			"min":[
				376.4051818847656,
				-173.163330078125,
				-223.7008514404297
			],
			"type":"VEC3"
		},
		{
			"bufferView":13,
			"componentType":5126,
			"count":160,
			"type":"VEC3"
		},
		{
			"bufferView":14,
			"componentType":5126,
			"count":160,
			"type":"VEC2"
		},
		{
			"bufferView":15,
			"componentType":5123,
			"count":420,
			"type":"SCALAR"
		},
		{
			"bufferView":16,
			"componentType":5126,
			"count":160,
			"max":[
				394.89544677734375,
				-1620.976318359375,
				-5.481678009033203
			],
			"min":[
				376.40509033203125,
				-1729.3052978515625,
				-223.7008514404297
			],
			"type":"VEC3"
		},
		{
			"bufferView":17,
			"componentType":5126,
			"count":160,
			"type":"VEC3"
		},
		{
			"bufferView":18,
			"componentType":5126,
			"count":160,
			"type":"VEC2"
		},
		{
			"bufferView":19,
			"componentType":5123,
			"count":420,
			"type":"SCALAR"
		},
		{
			"bufferView":20,
			"componentType":5126,
			"count":160,
			"max":[
				623.5955200195312,
				-1620.9761962890625,
				1.1868317127227783
			],
			"min":[
				605.1052856445312,
				-1729.3052978515625,
				-223.7008514404297
			],
			"type":"VEC3"
		},
		{
			"bufferView":21,
			"componentType":5126,
			"count":160,
			"type":"VEC3"
		},
		{
			"bufferView":22,
			"componentType":5126,
			"count":160,
			"type":"VEC2"
		},
		{
			"bufferView":23,
			"componentType":5123,
			"count":420,
			"type":"SCALAR"
		},
		{
			"bufferView":24,
			"componentType":5126,
			"count":160,
			"max":[
				554.1649169921875,
				-1971.455322265625,
				1.1868317127227783
			],
			"min":[
				445.8357849121094,
				-1989.9454345703125,
				-223.7008514404297
			],
			"type":"VEC3"
		},
		{
			"bufferView":25,
			"componentType":5126,
			"count":160,
			"type":"VEC3"
		},
		{
			"bufferView":26,
			"componentType":5126,
			"count":160,
			"type":"VEC2"
		},
		{
			"bufferView":27,
			"componentType":5123,
			"count":420,
			"type":"SCALAR"
		},
		{
			"bufferView":28,
			"componentType":5126,
			"count":3607,
			"max":[
				979.5036010742188,
				-11.98736572265625,
				0
			],
			"min":[
				20.49713134765625,
				-1999.55859375,
				-333.5699462890625
			],
			"type":"VEC3"
		},
		{
			"bufferView":29,
			"componentType":5126,
			"count":3607,
			"type":"VEC3"
		},
		{
			"bufferView":30,
			"componentType":5126,
			"count":3607,
			"type":"VEC2"
		},
		{
			"bufferView":31,
			"componentType":5123,
			"count":6627,
			"type":"SCALAR"
		}
	],
	"bufferViews":[
		{
			"buffer":0,
			"byteLength":240,
			"byteOffset":0,
			"target":34962
		},
		{
			"buffer":0,
			"byteLength":240,
			"byteOffset":240,
			"target":34962
		},
		{
			"buffer":0,
			"byteLength":160,
			"byteOffset":480,
			"target":34962
		},
		{
			"buffer":0,
			"byteLength":96,
			"byteOffset":640,
			"target":34963
		},
		{
			"buffer":0,
			"byteLength":576,
			"byteOffset":736,
			"target":34962
		},
		{
			"buffer":0,
			"byteLength":576,
			"byteOffset":1312,
			"target":34962
		},
		{
			"buffer":0,
			"byteLength":384,
			"byteOffset":1888,
			"target":34962
		},
		{
			"buffer":0,
			"byteLength":240,
			"byteOffset":2272,
			"target":34963
		},
		{
			"buffer":0,
			"byteLength":1920,
			"byteOffset":2512,
			"target":34962
		},
		{
			"buffer":0,
			"byteLength":1920,
			"byteOffset":4432,
			"target":34962
		},
		{
			"buffer":0,
			"byteLength":1280,
			"byteOffset":6352,
			"target":34962
		},
		{
			"buffer":0,
			"byteLength":840,
			"byteOffset":7632,
			"target":34963
		},
		{
			"buffer":0,
			"byteLength":1920,
			"byteOffset":8472,
			"target":34962
		},
		{
			"buffer":0,
			"byteLength":1920,
			"byteOffset":10392,
			"target":34962
		},
		{
			"buffer":0,
			"byteLength":1280,
			"byteOffset":12312,
			"target":34962
		},
		{
			"buffer":0,
			"byteLength":840,
			"byteOffset":13592,
			"target":34963
		},
		{
			"buffer":0,
			"byteLength":1920,
			"byteOffset":14432,
			"target":34962
		},
		{
			"buffer":0,
			"byteLength":1920,
			"byteOffset":16352,
			"target":34962
		},
		{
			"buffer":0,
			"byteLength":1280,
			"byteOffset":18272,
			"target":34962
		},
		{
			"buffer":0,
			"byteLength":840,
			"byteOffset":19552,
			"target":34963
		},
		{
			"buffer":0,
			"byteLength":1920,
			"byteOffset":20392,
			"target":34962
		},
		{
			"buffer":0,
			"byteLength":1920,
			"byteOffset":22312,
			"target":34962
		},
		{
			"buffer":0,
			"byteLength":1280,
			"byteOffset":24232,
			"target":34962
		},
		{
			"buffer":0,
			"byteLength":840,
			"byteOffset":25512,
			"target":34963
		},
		{
			"buffer":0,
			"byteLength":1920,
			"byteOffset":26352,
			"target":34962
		},
		{
			"buffer":0,
			"byteLength":1920,
			"byteOffset":28272,
			"target":34962
		},
		{
			"buffer":0,
			"byteLength":1280,
			"byteOffset":30192,
			"target":34962
		},
		{
			"buffer":0,
			"byteLength":840,
			"byteOffset":31472,
			"target":34963
		},
		{
			"buffer":0,
			"byteLength":43284,
			"byteOffset":32312,
			"target":34962
		},
		{
			"buffer":0,
			"byteLength":43284,
			"byteOffset":75596,
			"target":34962
		},
		{
			"buffer":0,
			"byteLength":28856,
			"byteOffset":118880,
			"target":34962
		},
		{
			"buffer":0,
			"byteLength":13254,
			"byteOffset":147736,
			"target":34963
		}
	],
	"samplers":[
		{
			"magFilter":9729,
			"minFilter":9987
		}
	],
	"buffers":[
		{
			"byteLength":160992,
			"uri":"city_SM_Bld_StripClub_Interior_01.bin"
		}
	]
}
