{
	"asset":{
		"generator":"Khronos glTF Blender I/O v4.4.55",
		"version":"2.0"
	},
	"extensionsUsed":[
		"EXT_texture_webp"
	],
	"extensionsRequired":[
		"EXT_texture_webp"
	],
	"scene":0,
	"scenes":[
		{
			"name":"Scene",
			"nodes":[
				0
			]
		}
	],
	"nodes":[
		{
			"mesh":0,
			"name":"SM_Bld_Roof_Pagoda_02",
			"rotation":[
				0.7071068286895752,
				0,
				0,
				0.7071068286895752
			],
			"scale":[
				0.009999999776482582,
				0.009999999776482582,
				0.009999999776482582
			]
		}
	],
	"materials":[
		{
			"doubleSided":true,
			"name":"lambert34",
			"pbrMetallicRoughness":{
				"baseColorTexture":{
					"index":0
				},
				"metallicFactor":0,
				"roughnessFactor":0.5527864098548889
			}
		}
	],
	"meshes":[
		{
			"name":"Mesh",
			"primitives":[
				{
					"attributes":{
						"POSITION":0,
						"NORMAL":1,
						"TEXCOORD_0":2
					},
					"indices":3,
					"material":0
				}
			]
		}
	],
	"textures":[
		{
			"extensions":{
				"EXT_texture_webp":{
					"source":0
				}
			},
			"sampler":0
		}
	],
	"images":[
		{
			"mimeType":"image/webp",
			"name":"PolygonScifi_01_A",
			"uri":"PolygonScifi_01_A.webp"
		}
	],
	"accessors":[
		{
			"bufferView":0,
			"componentType":5126,
			"count":552,
			"max":[
				246.32302856445312,
				200.298095703125,
				-2.384185791015625e-05
			],
			"min":[
				-246.32339477539062,
				-200.2981414794922,
				-226.901123046875
			],
			"type":"VEC3"
		},
		{
			"bufferView":1,
			"componentType":5126,
			"count":552,
			"type":"VEC3"
		},
		{
			"bufferView":2,
			"componentType":5126,
			"count":552,
			"type":"VEC2"
		},
		{
			"bufferView":3,
			"componentType":5123,
			"count":1110,
			"type":"SCALAR"
		}
	],
	"bufferViews":[
		{
			"buffer":0,
			"byteLength":6624,
			"byteOffset":0,
			"target":34962
		},
		{
			"buffer":0,
			"byteLength":6624,
			"byteOffset":6624,
			"target":34962
		},
		{
			"buffer":0,
			"byteLength":4416,
			"byteOffset":13248,
			"target":34962
		},
		{
			"buffer":0,
			"byteLength":2220,
			"byteOffset":17664,
			"target":34963
		}
	],
	"samplers":[
		{
			"magFilter":9729,
			"minFilter":9987
		}
	],
	"buffers":[
		{
			"byteLength":19884,
			"uri":"city_SM_Bld_Roof_Pagoda_02.bin"
		}
	]
}
