{
	"asset":{
		"generator":"Khronos glTF Blender I/O v4.4.55",
		"version":"2.0"
	},
	"extensionsUsed":[
		"EXT_texture_webp"
	],
	"extensionsRequired":[
		"EXT_texture_webp"
	],
	"scene":0,
	"scenes":[
		{
			"name":"Scene",
			"nodes":[
				1
			]
		}
	],
	"nodes":[
		{
			"mesh":0,
			"name":"SM_Wep_Rifle_Plasma_Trigger_01"
		},
		{
			"children":[
				0
			],
			"mesh":1,
			"name":"SM_Wep_Rifle_Plasma_01",
			"rotation":[
				0.7071068286895752,
				0,
				0,
				0.7071068286895752
			],
			"scale":[
				0.009999999776482582,
				0.009999999776482582,
				0.009999999776482582
			]
		}
	],
	"materials":[
		{
			"doubleSided":true,
			"name":"lambert1",
			"pbrMetallicRoughness":{
				"baseColorTexture":{
					"index":0
				},
				"metallicFactor":0,
				"roughnessFactor":0.5527864098548889
			}
		}
	],
	"meshes":[
		{
			"name":"Mesh.001",
			"primitives":[
				{
					"attributes":{
						"POSITION":0,
						"NORMAL":1,
						"TEXCOORD_0":2
					},
					"indices":3,
					"material":0
				}
			]
		},
		{
			"name":"Mesh",
			"primitives":[
				{
					"attributes":{
						"POSITION":4,
						"NORMAL":5,
						"TEXCOORD_0":6
					},
					"indices":7,
					"material":0
				}
			]
		}
	],
	"textures":[
		{
			"extensions":{
				"EXT_texture_webp":{
					"source":0
				}
			},
			"sampler":0
		}
	],
	"images":[
		{
			"mimeType":"image/webp",
			"name":"PolygonScifi_01_A",
			"uri":"PolygonScifi_01_A.webp"
		}
	],
	"accessors":[
		{
			"bufferView":0,
			"componentType":5126,
			"count":68,
			"max":[
				0.6091365218162537,
				7.97344970703125,
				-1.5630645751953125
			],
			"min":[
				-0.6091365218162537,
				5.4130859375,
				-5.980369567871094
			],
			"type":"VEC3"
		},
		{
			"bufferView":1,
			"componentType":5126,
			"count":68,
			"type":"VEC3"
		},
		{
			"bufferView":2,
			"componentType":5126,
			"count":68,
			"type":"VEC2"
		},
		{
			"bufferView":3,
			"componentType":5123,
			"count":108,
			"type":"SCALAR"
		},
		{
			"bufferView":4,
			"componentType":5126,
			"count":2368,
			"max":[
				4.279703140258789,
				76.24267578125,
				10.567100524902344
			],
			"min":[
				-4.279703140258789,
				-41.71580505371094,
				-20.082870483398438
			],
			"type":"VEC3"
		},
		{
			"bufferView":5,
			"componentType":5126,
			"count":2368,
			"type":"VEC3"
		},
		{
			"bufferView":6,
			"componentType":5126,
			"count":2368,
			"type":"VEC2"
		},
		{
			"bufferView":7,
			"componentType":5123,
			"count":4527,
			"type":"SCALAR"
		}
	],
	"bufferViews":[
		{
			"buffer":0,
			"byteLength":816,
			"byteOffset":0,
			"target":34962
		},
		{
			"buffer":0,
			"byteLength":816,
			"byteOffset":816,
			"target":34962
		},
		{
			"buffer":0,
			"byteLength":544,
			"byteOffset":1632,
			"target":34962
		},
		{
			"buffer":0,
			"byteLength":216,
			"byteOffset":2176,
			"target":34963
		},
		{
			"buffer":0,
			"byteLength":28416,
			"byteOffset":2392,
			"target":34962
		},
		{
			"buffer":0,
			"byteLength":28416,
			"byteOffset":30808,
			"target":34962
		},
		{
			"buffer":0,
			"byteLength":18944,
			"byteOffset":59224,
			"target":34962
		},
		{
			"buffer":0,
			"byteLength":9054,
			"byteOffset":78168,
			"target":34963
		}
	],
	"samplers":[
		{
			"magFilter":9729,
			"minFilter":9987
		}
	],
	"buffers":[
		{
			"byteLength":87224,
			"uri":"city_SM_Wep_Rifle_Plasma_01.bin"
		}
	]
}
