{
	"asset":{
		"generator":"Khronos glTF Blender I/O v4.4.55",
		"version":"2.0"
	},
	"extensionsUsed":[
		"EXT_texture_webp"
	],
	"extensionsRequired":[
		"EXT_texture_webp"
	],
	"scene":0,
	"scenes":[
		{
			"name":"Scene",
			"nodes":[
				11
			]
		}
	],
	"nodes":[
		{
			"mesh":0,
			"name":"SM_Veh_Retro_01_Door_L_Glass_Hover"
		},
		{
			"children":[
				0
			],
			"mesh":1,
			"name":"SM_Veh_Retro_01_Door_L_Hover"
		},
		{
			"mesh":2,
			"name":"SM_Veh_Retro_01_Door_R_Glass_Hover"
		},
		{
			"children":[
				2
			],
			"mesh":3,
			"name":"SM_Veh_Retro_01_Door_R_Hover"
		},
		{
			"mesh":4,
			"name":"SM_Veh_Retro_01_Glass_Hover"
		},
		{
			"mesh":5,
			"name":"SM_Veh_Retro_01_SteeringW_Hover",
			"rotation":[
				0.20618483424186707,
				0,
				0,
				0.9785130620002747
			],
			"translation":[
				0,
				-41.37295913696289,
				-24.583171844482422
			]
		},
		{
			"mesh":6,
			"name":"SM_Veh_Retro_Fins_01_Hover"
		},
		{
			"mesh":7,
			"name":"SM_Veh_Retro_Hover_01_Wheel_fl_Hover"
		},
		{
			"mesh":8,
			"name":"SM_Veh_Retro_Hover_01_Wheel_fr_Hover"
		},
		{
			"mesh":9,
			"name":"SM_Veh_Retro_Hover_01_Wheel_rl_Hover"
		},
		{
			"mesh":10,
			"name":"SM_Veh_Retro_Hover_01_Wheel_rr_Hover"
		},
		{
			"children":[
				1,
				3,
				4,
				5,
				6,
				7,
				8,
				9,
				10
			],
			"mesh":11,
			"name":"SM_Veh_Retro_01_Hover",
			"rotation":[
				0.7071068286895752,
				0,
				0,
				0.7071068286895752
			],
			"scale":[
				0.009999999776482582,
				0.009999999776482582,
				0.009999999776482582
			]
		}
	],
	"materials":[
		{
			"doubleSided":true,
			"name":"Body1",
			"pbrMetallicRoughness":{
				"baseColorTexture":{
					"index":0
				},
				"metallicFactor":0,
				"roughnessFactor":0.5527864098548889
			}
		}
	],
	"meshes":[
		{
			"name":"Mesh.007",
			"primitives":[
				{
					"attributes":{
						"POSITION":0,
						"NORMAL":1,
						"TEXCOORD_0":2
					},
					"indices":3,
					"material":0
				}
			]
		},
		{
			"name":"Mesh.006",
			"primitives":[
				{
					"attributes":{
						"POSITION":4,
						"NORMAL":5,
						"TEXCOORD_0":6
					},
					"indices":7,
					"material":0
				}
			]
		},
		{
			"name":"Mesh.009",
			"primitives":[
				{
					"attributes":{
						"POSITION":8,
						"NORMAL":9,
						"TEXCOORD_0":10
					},
					"indices":11,
					"material":0
				}
			]
		},
		{
			"name":"Mesh.008",
			"primitives":[
				{
					"attributes":{
						"POSITION":12,
						"NORMAL":13,
						"TEXCOORD_0":14
					},
					"indices":15,
					"material":0
				}
			]
		},
		{
			"name":"Mesh.004",
			"primitives":[
				{
					"attributes":{
						"POSITION":16,
						"NORMAL":17,
						"TEXCOORD_0":18
					},
					"indices":19,
					"material":0
				}
			]
		},
		{
			"name":"Mesh.005",
			"primitives":[
				{
					"attributes":{
						"POSITION":20,
						"NORMAL":21,
						"TEXCOORD_0":22
					},
					"indices":23,
					"material":0
				}
			]
		},
		{
			"name":"Mesh.003",
			"primitives":[
				{
					"attributes":{
						"POSITION":24,
						"NORMAL":25,
						"TEXCOORD_0":26
					},
					"indices":27,
					"material":0
				}
			]
		},
		{
			"name":"Mesh.002",
			"primitives":[
				{
					"attributes":{
						"POSITION":28,
						"NORMAL":29,
						"TEXCOORD_0":30
					},
					"indices":31,
					"material":0
				}
			]
		},
		{
			"name":"Mesh.010",
			"primitives":[
				{
					"attributes":{
						"POSITION":32,
						"NORMAL":33,
						"TEXCOORD_0":34
					},
					"indices":35,
					"material":0
				}
			]
		},
		{
			"name":"Mesh.001",
			"primitives":[
				{
					"attributes":{
						"POSITION":36,
						"NORMAL":37,
						"TEXCOORD_0":38
					},
					"indices":39,
					"material":0
				}
			]
		},
		{
			"name":"Mesh.011",
			"primitives":[
				{
					"attributes":{
						"POSITION":40,
						"NORMAL":41,
						"TEXCOORD_0":42
					},
					"indices":43,
					"material":0
				}
			]
		},
		{
			"name":"Mesh",
			"primitives":[
				{
					"attributes":{
						"POSITION":44,
						"NORMAL":45,
						"TEXCOORD_0":46
					},
					"indices":47,
					"material":0
				}
			]
		}
	],
	"textures":[
		{
			"extensions":{
				"EXT_texture_webp":{
					"source":0
				}
			},
			"sampler":0
		}
	],
	"images":[
		{
			"mimeType":"image/webp",
			"name":"PolygonScifi_01_A",
			"uri":"PolygonScifi_01_A.webp"
		}
	],
	"accessors":[
		{
			"bufferView":0,
			"componentType":5126,
			"count":5,
			"max":[
				113.19583892822266,
				77.37020874023438,
				-124.37120819091797
			],
			"min":[
				91.65999603271484,
				-91.8504409790039,
				-155.58753967285156
			],
			"type":"VEC3"
		},
		{
			"bufferView":1,
			"componentType":5126,
			"count":5,
			"type":"VEC3"
		},
		{
			"bufferView":2,
			"componentType":5126,
			"count":5,
			"type":"VEC2"
		},
		{
			"bufferView":3,
			"componentType":5123,
			"count":9,
			"type":"SCALAR"
		},
		{
			"bufferView":4,
			"componentType":5126,
			"count":140,
			"max":[
				130.26400756835938,
				103.62963104248047,
				-46.20912551879883
			],
			"min":[
				87.00615692138672,
				-99.9286880493164,
				-160.9517059326172
			],
			"type":"VEC3"
		},
		{
			"bufferView":5,
			"componentType":5126,
			"count":140,
			"type":"VEC3"
		},
		{
			"bufferView":6,
			"componentType":5126,
			"count":140,
			"type":"VEC2"
		},
		{
			"bufferView":7,
			"componentType":5123,
			"count":270,
			"type":"SCALAR"
		},
		{
			"bufferView":8,
			"componentType":5126,
			"count":5,
			"max":[
				-91.65999603271484,
				77.37020874023438,
				-124.37120819091797
			],
			"min":[
				-113.19583892822266,
				-91.8504409790039,
				-155.58753967285156
			],
			"type":"VEC3"
		},
		{
			"bufferView":9,
			"componentType":5126,
			"count":5,
			"type":"VEC3"
		},
		{
			"bufferView":10,
			"componentType":5126,
			"count":5,
			"type":"VEC2"
		},
		{
			"bufferView":11,
			"componentType":5123,
			"count":9,
			"type":"SCALAR"
		},
		{
			"bufferView":12,
			"componentType":5126,
			"count":140,
			"max":[
				-87.00615692138672,
				103.62963104248047,
				-46.20912551879883
			],
			"min":[
				-130.26400756835938,
				-99.9286880493164,
				-160.9517059326172
			],
			"type":"VEC3"
		},
		{
			"bufferView":13,
			"componentType":5126,
			"count":140,
			"type":"VEC3"
		},
		{
			"bufferView":14,
			"componentType":5126,
			"count":140,
			"type":"VEC2"
		},
		{
			"bufferView":15,
			"componentType":5123,
			"count":270,
			"type":"SCALAR"
		},
		{
			"bufferView":16,
			"componentType":5126,
			"count":30,
			"max":[
				99.8402099609375,
				106.11518859863281,
				-123.13687133789062
			],
			"min":[
				-99.8402099609375,
				-249.20111083984375,
				-162.14747619628906
			],
			"type":"VEC3"
		},
		{
			"bufferView":17,
			"componentType":5126,
			"count":30,
			"type":"VEC3"
		},
		{
			"bufferView":18,
			"componentType":5126,
			"count":30,
			"type":"VEC2"
		},
		{
			"bufferView":19,
			"componentType":5123,
			"count":72,
			"type":"SCALAR"
		},
		{
			"bufferView":20,
			"componentType":5126,
			"count":719,
			"max":[
				71.48831176757812,
				49.19881057739258,
				-84.52664947509766
			],
			"min":[
				19.609149932861328,
				33.02583312988281,
				-136.40463256835938
			],
			"type":"VEC3"
		},
		{
			"bufferView":21,
			"componentType":5126,
			"count":719,
			"type":"VEC3"
		},
		{
			"bufferView":22,
			"componentType":5126,
			"count":719,
			"type":"VEC2"
		},
		{
			"bufferView":23,
			"componentType":5123,
			"count":1122,
			"type":"SCALAR"
		},
		{
			"bufferView":24,
			"componentType":5126,
			"count":620,
			"max":[
				206.48757934570312,
				76.10037231445312,
				17.597017288208008
			],
			"min":[
				-206.48757934570312,
				-286.2375183105469,
				-201.43003845214844
			],
			"type":"VEC3"
		},
		{
			"bufferView":25,
			"componentType":5126,
			"count":620,
			"type":"VEC3"
		},
		{
			"bufferView":26,
			"componentType":5126,
			"count":620,
			"type":"VEC2"
		},
		{
			"bufferView":27,
			"componentType":5123,
			"count":948,
			"type":"SCALAR"
		},
		{
			"bufferView":28,
			"componentType":5126,
			"count":895,
			"max":[
				157.13951110839844,
				200.10006713867188,
				18.389068603515625
			],
			"min":[
				56.52971267700195,
				94.35530090332031,
				-80.13645935058594
			],
			"type":"VEC3"
		},
		{
			"bufferView":29,
			"componentType":5126,
			"count":895,
			"type":"VEC3"
		},
		{
			"bufferView":30,
			"componentType":5126,
			"count":895,
			"type":"VEC2"
		},
		{
			"bufferView":31,
			"componentType":5123,
			"count":1536,
			"type":"SCALAR"
		},
		{
			"bufferView":32,
			"componentType":5126,
			"count":895,
			"max":[
				-56.52971267700195,
				200.10006713867188,
				18.389068603515625
			],
			"min":[
				-157.13951110839844,
				94.35530090332031,
				-80.13645935058594
			],
			"type":"VEC3"
		},
		{
			"bufferView":33,
			"componentType":5126,
			"count":895,
			"type":"VEC3"
		},
		{
			"bufferView":34,
			"componentType":5126,
			"count":895,
			"type":"VEC2"
		},
		{
			"bufferView":35,
			"componentType":5123,
			"count":1536,
			"type":"SCALAR"
		},
		{
			"bufferView":36,
			"componentType":5126,
			"count":895,
			"max":[
				152.2765350341797,
				-171.1061248779297,
				7.030900001525879
			],
			"min":[
				50.11619567871094,
				-275.7156066894531,
				-90.7149887084961
			],
			"type":"VEC3"
		},
		{
			"bufferView":37,
			"componentType":5126,
			"count":895,
			"type":"VEC3"
		},
		{
			"bufferView":38,
			"componentType":5126,
			"count":895,
			"type":"VEC2"
		},
		{
			"bufferView":39,
			"componentType":5123,
			"count":1536,
			"type":"SCALAR"
		},
		{
			"bufferView":40,
			"componentType":5126,
			"count":895,
			"max":[
				-50.11619567871094,
				-171.1061248779297,
				7.030900001525879
			],
			"min":[
				-152.27655029296875,
				-275.7156066894531,
				-90.7149887084961
			],
			"type":"VEC3"
		},
		{
			"bufferView":41,
			"componentType":5126,
			"count":895,
			"type":"VEC3"
		},
		{
			"bufferView":42,
			"componentType":5126,
			"count":895,
			"type":"VEC2"
		},
		{
			"bufferView":43,
			"componentType":5123,
			"count":1536,
			"type":"SCALAR"
		},
		{
			"bufferView":44,
			"componentType":5126,
			"count":7319,
			"max":[
				131.75918579101562,
				283.5911865234375,
				-10.077882766723633
			],
			"min":[
				-131.75918579101562,
				-283.5911865234375,
				-164.8937530517578
			],
			"type":"VEC3"
		},
		{
			"bufferView":45,
			"componentType":5126,
			"count":7319,
			"type":"VEC3"
		},
		{
			"bufferView":46,
			"componentType":5126,
			"count":7319,
			"type":"VEC2"
		},
		{
			"bufferView":47,
			"componentType":5123,
			"count":12096,
			"type":"SCALAR"
		}
	],
	"bufferViews":[
		{
			"buffer":0,
			"byteLength":60,
			"byteOffset":0,
			"target":34962
		},
		{
			"buffer":0,
			"byteLength":60,
			"byteOffset":60,
			"target":34962
		},
		{
			"buffer":0,
			"byteLength":40,
			"byteOffset":120,
			"target":34962
		},
		{
			"buffer":0,
			"byteLength":18,
			"byteOffset":160,
			"target":34963
		},
		{
			"buffer":0,
			"byteLength":1680,
			"byteOffset":180,
			"target":34962
		},
		{
			"buffer":0,
			"byteLength":1680,
			"byteOffset":1860,
			"target":34962
		},
		{
			"buffer":0,
			"byteLength":1120,
			"byteOffset":3540,
			"target":34962
		},
		{
			"buffer":0,
			"byteLength":540,
			"byteOffset":4660,
			"target":34963
		},
		{
			"buffer":0,
			"byteLength":60,
			"byteOffset":5200,
			"target":34962
		},
		{
			"buffer":0,
			"byteLength":60,
			"byteOffset":5260,
			"target":34962
		},
		{
			"buffer":0,
			"byteLength":40,
			"byteOffset":5320,
			"target":34962
		},
		{
			"buffer":0,
			"byteLength":18,
			"byteOffset":5360,
			"target":34963
		},
		{
			"buffer":0,
			"byteLength":1680,
			"byteOffset":5380,
			"target":34962
		},
		{
			"buffer":0,
			"byteLength":1680,
			"byteOffset":7060,
			"target":34962
		},
		{
			"buffer":0,
			"byteLength":1120,
			"byteOffset":8740,
			"target":34962
		},
		{
			"buffer":0,
			"byteLength":540,
			"byteOffset":9860,
			"target":34963
		},
		{
			"buffer":0,
			"byteLength":360,
			"byteOffset":10400,
			"target":34962
		},
		{
			"buffer":0,
			"byteLength":360,
			"byteOffset":10760,
			"target":34962
		},
		{
			"buffer":0,
			"byteLength":240,
			"byteOffset":11120,
			"target":34962
		},
		{
			"buffer":0,
			"byteLength":144,
			"byteOffset":11360,
			"target":34963
		},
		{
			"buffer":0,
			"byteLength":8628,
			"byteOffset":11504,
			"target":34962
		},
		{
			"buffer":0,
			"byteLength":8628,
			"byteOffset":20132,
			"target":34962
		},
		{
			"buffer":0,
			"byteLength":5752,
			"byteOffset":28760,
			"target":34962
		},
		{
			"buffer":0,
			"byteLength":2244,
			"byteOffset":34512,
			"target":34963
		},
		{
			"buffer":0,
			"byteLength":7440,
			"byteOffset":36756,
			"target":34962
		},
		{
			"buffer":0,
			"byteLength":7440,
			"byteOffset":44196,
			"target":34962
		},
		{
			"buffer":0,
			"byteLength":4960,
			"byteOffset":51636,
			"target":34962
		},
		{
			"buffer":0,
			"byteLength":1896,
			"byteOffset":56596,
			"target":34963
		},
		{
			"buffer":0,
			"byteLength":10740,
			"byteOffset":58492,
			"target":34962
		},
		{
			"buffer":0,
			"byteLength":10740,
			"byteOffset":69232,
			"target":34962
		},
		{
			"buffer":0,
			"byteLength":7160,
			"byteOffset":79972,
			"target":34962
		},
		{
			"buffer":0,
			"byteLength":3072,
			"byteOffset":87132,
			"target":34963
		},
		{
			"buffer":0,
			"byteLength":10740,
			"byteOffset":90204,
			"target":34962
		},
		{
			"buffer":0,
			"byteLength":10740,
			"byteOffset":100944,
			"target":34962
		},
		{
			"buffer":0,
			"byteLength":7160,
			"byteOffset":111684,
			"target":34962
		},
		{
			"buffer":0,
			"byteLength":3072,
			"byteOffset":118844,
			"target":34963
		},
		{
			"buffer":0,
			"byteLength":10740,
			"byteOffset":121916,
			"target":34962
		},
		{
			"buffer":0,
			"byteLength":10740,
			"byteOffset":132656,
			"target":34962
		},
		{
			"buffer":0,
			"byteLength":7160,
			"byteOffset":143396,
			"target":34962
		},
		{
			"buffer":0,
			"byteLength":3072,
			"byteOffset":150556,
			"target":34963
		},
		{
			"buffer":0,
			"byteLength":10740,
			"byteOffset":153628,
			"target":34962
		},
		{
			"buffer":0,
			"byteLength":10740,
			"byteOffset":164368,
			"target":34962
		},
		{
			"buffer":0,
			"byteLength":7160,
			"byteOffset":175108,
			"target":34962
		},
		{
			"buffer":0,
			"byteLength":3072,
			"byteOffset":182268,
			"target":34963
		},
		{
			"buffer":0,
			"byteLength":87828,
			"byteOffset":185340,
			"target":34962
		},
		{
			"buffer":0,
			"byteLength":87828,
			"byteOffset":273168,
			"target":34962
		},
		{
			"buffer":0,
			"byteLength":58552,
			"byteOffset":360996,
			"target":34962
		},
		{
			"buffer":0,
			"byteLength":24192,
			"byteOffset":419548,
			"target":34963
		}
	],
	"samplers":[
		{
			"magFilter":9729,
			"minFilter":9987
		}
	],
	"buffers":[
		{
			"byteLength":443740,
			"uri":"city_SM_Veh_Retro_01_Hover.bin"
		}
	]
}
