{
	"asset":{
		"generator":"Khronos glTF Blender I/O v4.4.55",
		"version":"2.0"
	},
	"extensionsUsed":[
		"EXT_texture_webp"
	],
	"extensionsRequired":[
		"EXT_texture_webp"
	],
	"scene":0,
	"scenes":[
		{
			"name":"Scene",
			"nodes":[
				0
			]
		}
	],
	"nodes":[
		{
			"mesh":0,
			"name":"SM_Prop_MarketCovcer_02",
			"rotation":[
				0.7071068286895752,
				0,
				0,
				0.7071068286895752
			],
			"scale":[
				0.009999999776482582,
				0.009999999776482582,
				0.009999999776482582
			]
		}
	],
	"materials":[
		{
			"doubleSided":true,
			"name":"lambert192",
			"pbrMetallicRoughness":{
				"baseColorTexture":{
					"index":0
				},
				"metallicFactor":0,
				"roughnessFactor":0.5527864098548889
			}
		}
	],
	"meshes":[
		{
			"name":"Mesh",
			"primitives":[
				{
					"attributes":{
						"POSITION":0,
						"NORMAL":1,
						"TEXCOORD_0":2
					},
					"indices":3,
					"material":0
				}
			]
		}
	],
	"textures":[
		{
			"extensions":{
				"EXT_texture_webp":{
					"source":0
				}
			},
			"sampler":0
		}
	],
	"images":[
		{
			"mimeType":"image/webp",
			"name":"PolygonScifi_01_A",
			"uri":"PolygonScifi_01_A.webp"
		}
	],
	"accessors":[
		{
			"bufferView":0,
			"componentType":5126,
			"count":1114,
			"max":[
				166.58132934570312,
				85.1919174194336,
				-82.6162109375
			],
			"min":[
				-166.5813446044922,
				-85.1919174194336,
				-240.42750549316406
			],
			"type":"VEC3"
		},
		{
			"bufferView":1,
			"componentType":5126,
			"count":1114,
			"type":"VEC3"
		},
		{
			"bufferView":2,
			"componentType":5126,
			"count":1114,
			"type":"VEC2"
		},
		{
			"bufferView":3,
			"componentType":5123,
			"count":1776,
			"type":"SCALAR"
		}
	],
	"bufferViews":[
		{
			"buffer":0,
			"byteLength":13368,
			"byteOffset":0,
			"target":34962
		},
		{
			"buffer":0,
			"byteLength":13368,
			"byteOffset":13368,
			"target":34962
		},
		{
			"buffer":0,
			"byteLength":8912,
			"byteOffset":26736,
			"target":34962
		},
		{
			"buffer":0,
			"byteLength":3552,
			"byteOffset":35648,
			"target":34963
		}
	],
	"samplers":[
		{
			"magFilter":9729,
			"minFilter":9987
		}
	],
	"buffers":[
		{
			"byteLength":39200,
			"uri":"city_SM_Prop_MarketCovcer_02.bin"
		}
	]
}
