{
	"asset":{
		"generator":"Khronos glTF Blender I/O v4.4.55",
		"version":"2.0"
	},
	"extensionsUsed":[
		"EXT_texture_webp"
	],
	"extensionsRequired":[
		"EXT_texture_webp"
	],
	"scene":0,
	"scenes":[
		{
			"name":"Scene",
			"nodes":[
				0
			]
		}
	],
	"nodes":[
		{
			"mesh":0,
			"name":"SM_Prop_Robotic_Part_010",
			"rotation":[
				0.7071068286895752,
				0,
				0,
				0.7071068286895752
			],
			"scale":[
				0.009999999776482582,
				0.009999999776482582,
				0.009999999776482582
			]
		}
	],
	"materials":[
		{
			"doubleSided":true,
			"name":"lambert1",
			"pbrMetallicRoughness":{
				"baseColorTexture":{
					"index":0
				},
				"metallicFactor":0,
				"roughnessFactor":0.5527864098548889
			}
		}
	],
	"meshes":[
		{
			"name":"Mesh",
			"primitives":[
				{
					"attributes":{
						"POSITION":0,
						"NORMAL":1,
						"TEXCOORD_0":2,
						"TEXCOORD_1":3
					},
					"indices":4,
					"material":0
				}
			]
		}
	],
	"textures":[
		{
			"extensions":{
				"EXT_texture_webp":{
					"source":0
				}
			},
			"sampler":0
		}
	],
	"images":[
		{
			"mimeType":"image/webp",
			"name":"PolygonScifi_01_A",
			"uri":"PolygonScifi_01_A.webp"
		}
	],
	"accessors":[
		{
			"bufferView":0,
			"componentType":5126,
			"count":1244,
			"max":[
				28.997421264648438,
				14.008522033691406,
				1.9029260873794556
			],
			"min":[
				-28.99723243713379,
				-14.008522033691406,
				-9.48019027709961
			],
			"type":"VEC3"
		},
		{
			"bufferView":1,
			"componentType":5126,
			"count":1244,
			"type":"VEC3"
		},
		{
			"bufferView":2,
			"componentType":5126,
			"count":1244,
			"type":"VEC2"
		},
		{
			"bufferView":3,
			"componentType":5126,
			"count":1244,
			"type":"VEC2"
		},
		{
			"bufferView":4,
			"componentType":5123,
			"count":1896,
			"type":"SCALAR"
		}
	],
	"bufferViews":[
		{
			"buffer":0,
			"byteLength":14928,
			"byteOffset":0,
			"target":34962
		},
		{
			"buffer":0,
			"byteLength":14928,
			"byteOffset":14928,
			"target":34962
		},
		{
			"buffer":0,
			"byteLength":9952,
			"byteOffset":29856,
			"target":34962
		},
		{
			"buffer":0,
			"byteLength":9952,
			"byteOffset":39808,
			"target":34962
		},
		{
			"buffer":0,
			"byteLength":3792,
			"byteOffset":49760,
			"target":34963
		}
	],
	"samplers":[
		{
			"magFilter":9729,
			"minFilter":9987
		}
	],
	"buffers":[
		{
			"byteLength":53552,
			"uri":"city_SM_Prop_Robotic_Part_010.bin"
		}
	]
}
