{
	"asset":{
		"generator":"Khronos glTF Blender I/O v4.4.55",
		"version":"2.0"
	},
	"extensionsUsed":[
		"EXT_texture_webp"
	],
	"extensionsRequired":[
		"EXT_texture_webp"
	],
	"scene":0,
	"scenes":[
		{
			"name":"Scene",
			"nodes":[
				0
			]
		}
	],
	"nodes":[
		{
			"mesh":0,
			"name":"SM_Prop_Medical_Table_01",
			"rotation":[
				0.7071068286895752,
				0,
				0,
				0.7071068286895752
			],
			"scale":[
				0.009999999776482582,
				0.009999999776482582,
				0.009999999776482582
			]
		}
	],
	"materials":[
		{
			"doubleSided":true,
			"name":"lambert1",
			"pbrMetallicRoughness":{
				"baseColorTexture":{
					"index":0
				},
				"metallicFactor":0,
				"roughnessFactor":0.5527864098548889
			}
		}
	],
	"meshes":[
		{
			"name":"Mesh",
			"primitives":[
				{
					"attributes":{
						"POSITION":0,
						"NORMAL":1,
						"TEXCOORD_0":2,
						"TEXCOORD_1":3
					},
					"indices":4,
					"material":0
				}
			]
		}
	],
	"textures":[
		{
			"extensions":{
				"EXT_texture_webp":{
					"source":0
				}
			},
			"sampler":0
		}
	],
	"images":[
		{
			"mimeType":"image/webp",
			"name":"PolygonScifi_01_A",
			"uri":"PolygonScifi_01_A.webp"
		}
	],
	"accessors":[
		{
			"bufferView":0,
			"componentType":5126,
			"count":1519,
			"max":[
				43.15373992919922,
				34.94529724121094,
				0
			],
			"min":[
				-43.153717041015625,
				-34.94539260864258,
				-114.68507385253906
			],
			"type":"VEC3"
		},
		{
			"bufferView":1,
			"componentType":5126,
			"count":1519,
			"type":"VEC3"
		},
		{
			"bufferView":2,
			"componentType":5126,
			"count":1519,
			"type":"VEC2"
		},
		{
			"bufferView":3,
			"componentType":5126,
			"count":1519,
			"type":"VEC2"
		},
		{
			"bufferView":4,
			"componentType":5123,
			"count":2904,
			"type":"SCALAR"
		}
	],
	"bufferViews":[
		{
			"buffer":0,
			"byteLength":18228,
			"byteOffset":0,
			"target":34962
		},
		{
			"buffer":0,
			"byteLength":18228,
			"byteOffset":18228,
			"target":34962
		},
		{
			"buffer":0,
			"byteLength":12152,
			"byteOffset":36456,
			"target":34962
		},
		{
			"buffer":0,
			"byteLength":12152,
			"byteOffset":48608,
			"target":34962
		},
		{
			"buffer":0,
			"byteLength":5808,
			"byteOffset":60760,
			"target":34963
		}
	],
	"samplers":[
		{
			"magFilter":9729,
			"minFilter":9987
		}
	],
	"buffers":[
		{
			"byteLength":66568,
			"uri":"city_SM_Prop_Medical_Table_01.bin"
		}
	]
}
