{
	"asset":{
		"generator":"Khronos glTF Blender I/O v4.4.55",
		"version":"2.0"
	},
	"extensionsUsed":[
		"EXT_texture_webp"
	],
	"extensionsRequired":[
		"EXT_texture_webp"
	],
	"scene":0,
	"scenes":[
		{
			"name":"Scene",
			"nodes":[
				10
			]
		}
	],
	"nodes":[
		{
			"mesh":0,
			"name":"SM_Veh_Retro_01_Door_L_Glass"
		},
		{
			"children":[
				0
			],
			"mesh":1,
			"name":"SM_Veh_Retro_01_Door_L"
		},
		{
			"mesh":2,
			"name":"SM_Veh_Retro_01_Door_R_Glass"
		},
		{
			"children":[
				2
			],
			"mesh":3,
			"name":"SM_Veh_Retro_01_Door_R"
		},
		{
			"mesh":4,
			"name":"SM_Veh_Retro_01_Glass"
		},
		{
			"mesh":5,
			"name":"SM_Veh_Retro_01_SteeringW",
			"rotation":[
				0.20618483424186707,
				0,
				0,
				0.9785130620002747
			],
			"translation":[
				0,
				-41.37295913696289,
				-24.583171844482422
			]
		},
		{
			"mesh":6,
			"name":"SM_Veh_Retro_01_Wheel_fl"
		},
		{
			"mesh":7,
			"name":"SM_Veh_Retro_01_Wheel_fr"
		},
		{
			"mesh":8,
			"name":"SM_Veh_Retro_01_Wheel_rl"
		},
		{
			"mesh":9,
			"name":"SM_Veh_Retro_01_Wheel_rr"
		},
		{
			"children":[
				1,
				3,
				4,
				5,
				6,
				7,
				8,
				9
			],
			"mesh":10,
			"name":"SM_Veh_Retro_01",
			"rotation":[
				0.7071068286895752,
				0,
				0,
				0.7071068286895752
			],
			"scale":[
				0.009999999776482582,
				0.009999999776482582,
				0.009999999776482582
			]
		}
	],
	"materials":[
		{
			"doubleSided":true,
			"name":"Body1",
			"pbrMetallicRoughness":{
				"baseColorTexture":{
					"index":0
				},
				"metallicFactor":0,
				"roughnessFactor":0.5527864098548889
			}
		}
	],
	"meshes":[
		{
			"name":"Mesh.004",
			"primitives":[
				{
					"attributes":{
						"POSITION":0,
						"NORMAL":1,
						"TEXCOORD_0":2
					},
					"indices":3,
					"material":0
				}
			]
		},
		{
			"name":"Mesh.003",
			"primitives":[
				{
					"attributes":{
						"POSITION":4,
						"NORMAL":5,
						"TEXCOORD_0":6
					},
					"indices":7,
					"material":0
				}
			]
		},
		{
			"name":"Mesh.008",
			"primitives":[
				{
					"attributes":{
						"POSITION":8,
						"NORMAL":9,
						"TEXCOORD_0":10
					},
					"indices":11,
					"material":0
				}
			]
		},
		{
			"name":"Mesh.007",
			"primitives":[
				{
					"attributes":{
						"POSITION":12,
						"NORMAL":13,
						"TEXCOORD_0":14
					},
					"indices":15,
					"material":0
				}
			]
		},
		{
			"name":"Mesh.001",
			"primitives":[
				{
					"attributes":{
						"POSITION":16,
						"NORMAL":17,
						"TEXCOORD_0":18
					},
					"indices":19,
					"material":0
				}
			]
		},
		{
			"name":"Mesh.002",
			"primitives":[
				{
					"attributes":{
						"POSITION":20,
						"NORMAL":21,
						"TEXCOORD_0":22
					},
					"indices":23,
					"material":0
				}
			]
		},
		{
			"name":"Mesh.005",
			"primitives":[
				{
					"attributes":{
						"POSITION":24,
						"NORMAL":25,
						"TEXCOORD_0":26
					},
					"indices":27,
					"material":0
				}
			]
		},
		{
			"name":"Mesh.009",
			"primitives":[
				{
					"attributes":{
						"POSITION":28,
						"NORMAL":29,
						"TEXCOORD_0":30
					},
					"indices":31,
					"material":0
				}
			]
		},
		{
			"name":"Mesh.006",
			"primitives":[
				{
					"attributes":{
						"POSITION":32,
						"NORMAL":33,
						"TEXCOORD_0":34
					},
					"indices":35,
					"material":0
				}
			]
		},
		{
			"name":"Mesh.010",
			"primitives":[
				{
					"attributes":{
						"POSITION":36,
						"NORMAL":37,
						"TEXCOORD_0":38
					},
					"indices":39,
					"material":0
				}
			]
		},
		{
			"name":"Mesh",
			"primitives":[
				{
					"attributes":{
						"POSITION":40,
						"NORMAL":41,
						"TEXCOORD_0":42
					},
					"indices":43,
					"material":0
				}
			]
		}
	],
	"textures":[
		{
			"extensions":{
				"EXT_texture_webp":{
					"source":0
				}
			},
			"sampler":0
		}
	],
	"images":[
		{
			"mimeType":"image/webp",
			"name":"PolygonScifi_01_A",
			"uri":"PolygonScifi_01_A.webp"
		}
	],
	"accessors":[
		{
			"bufferView":0,
			"componentType":5126,
			"count":5,
			"max":[
				113.19583892822266,
				77.37020874023438,
				-124.37120819091797
			],
			"min":[
				91.65999603271484,
				-91.8504409790039,
				-155.58753967285156
			],
			"type":"VEC3"
		},
		{
			"bufferView":1,
			"componentType":5126,
			"count":5,
			"type":"VEC3"
		},
		{
			"bufferView":2,
			"componentType":5126,
			"count":5,
			"type":"VEC2"
		},
		{
			"bufferView":3,
			"componentType":5123,
			"count":9,
			"type":"SCALAR"
		},
		{
			"bufferView":4,
			"componentType":5126,
			"count":140,
			"max":[
				130.26400756835938,
				103.62963104248047,
				-46.20912551879883
			],
			"min":[
				87.00615692138672,
				-99.9286880493164,
				-160.9517059326172
			],
			"type":"VEC3"
		},
		{
			"bufferView":5,
			"componentType":5126,
			"count":140,
			"type":"VEC3"
		},
		{
			"bufferView":6,
			"componentType":5126,
			"count":140,
			"type":"VEC2"
		},
		{
			"bufferView":7,
			"componentType":5123,
			"count":270,
			"type":"SCALAR"
		},
		{
			"bufferView":8,
			"componentType":5126,
			"count":5,
			"max":[
				-91.65999603271484,
				77.37020874023438,
				-124.37120819091797
			],
			"min":[
				-113.19583892822266,
				-91.8504409790039,
				-155.58753967285156
			],
			"type":"VEC3"
		},
		{
			"bufferView":9,
			"componentType":5126,
			"count":5,
			"type":"VEC3"
		},
		{
			"bufferView":10,
			"componentType":5126,
			"count":5,
			"type":"VEC2"
		},
		{
			"bufferView":11,
			"componentType":5123,
			"count":9,
			"type":"SCALAR"
		},
		{
			"bufferView":12,
			"componentType":5126,
			"count":140,
			"max":[
				-87.00615692138672,
				103.62963104248047,
				-46.20912551879883
			],
			"min":[
				-130.26400756835938,
				-99.9286880493164,
				-160.9517059326172
			],
			"type":"VEC3"
		},
		{
			"bufferView":13,
			"componentType":5126,
			"count":140,
			"type":"VEC3"
		},
		{
			"bufferView":14,
			"componentType":5126,
			"count":140,
			"type":"VEC2"
		},
		{
			"bufferView":15,
			"componentType":5123,
			"count":270,
			"type":"SCALAR"
		},
		{
			"bufferView":16,
			"componentType":5126,
			"count":30,
			"max":[
				99.8402099609375,
				106.11518859863281,
				-123.13687133789062
			],
			"min":[
				-99.8402099609375,
				-249.20111083984375,
				-162.14747619628906
			],
			"type":"VEC3"
		},
		{
			"bufferView":17,
			"componentType":5126,
			"count":30,
			"type":"VEC3"
		},
		{
			"bufferView":18,
			"componentType":5126,
			"count":30,
			"type":"VEC2"
		},
		{
			"bufferView":19,
			"componentType":5123,
			"count":72,
			"type":"SCALAR"
		},
		{
			"bufferView":20,
			"componentType":5126,
			"count":719,
			"max":[
				71.48831176757812,
				49.19881057739258,
				-84.52664947509766
			],
			"min":[
				19.609149932861328,
				33.02583312988281,
				-136.40463256835938
			],
			"type":"VEC3"
		},
		{
			"bufferView":21,
			"componentType":5126,
			"count":719,
			"type":"VEC3"
		},
		{
			"bufferView":22,
			"componentType":5126,
			"count":719,
			"type":"VEC2"
		},
		{
			"bufferView":23,
			"componentType":5123,
			"count":1122,
			"type":"SCALAR"
		},
		{
			"bufferView":24,
			"componentType":5126,
			"count":384,
			"max":[
				107.58252716064453,
				192.58380126953125,
				0
			],
			"min":[
				79.79126739501953,
				98.82952117919922,
				-93.75428771972656
			],
			"type":"VEC3"
		},
		{
			"bufferView":25,
			"componentType":5126,
			"count":384,
			"type":"VEC3"
		},
		{
			"bufferView":26,
			"componentType":5126,
			"count":384,
			"type":"VEC2"
		},
		{
			"bufferView":27,
			"componentType":5123,
			"count":732,
			"type":"SCALAR"
		},
		{
			"bufferView":28,
			"componentType":5126,
			"count":384,
			"max":[
				-79.79126739501953,
				192.58380126953125,
				0
			],
			"min":[
				-107.58252716064453,
				98.82952117919922,
				-93.75428771972656
			],
			"type":"VEC3"
		},
		{
			"bufferView":29,
			"componentType":5126,
			"count":384,
			"type":"VEC3"
		},
		{
			"bufferView":30,
			"componentType":5126,
			"count":384,
			"type":"VEC2"
		},
		{
			"bufferView":31,
			"componentType":5123,
			"count":732,
			"type":"SCALAR"
		},
		{
			"bufferView":32,
			"componentType":5126,
			"count":384,
			"max":[
				113.18887329101562,
				-162.71295166015625,
				0
			],
			"min":[
				85.39761352539062,
				-256.4672546386719,
				-93.75428771972656
			],
			"type":"VEC3"
		},
		{
			"bufferView":33,
			"componentType":5126,
			"count":384,
			"type":"VEC3"
		},
		{
			"bufferView":34,
			"componentType":5126,
			"count":384,
			"type":"VEC2"
		},
		{
			"bufferView":35,
			"componentType":5123,
			"count":732,
			"type":"SCALAR"
		},
		{
			"bufferView":36,
			"componentType":5126,
			"count":384,
			"max":[
				-85.3976058959961,
				-162.71295166015625,
				0
			],
			"min":[
				-113.1888656616211,
				-256.4672546386719,
				-93.75428771972656
			],
			"type":"VEC3"
		},
		{
			"bufferView":37,
			"componentType":5126,
			"count":384,
			"type":"VEC3"
		},
		{
			"bufferView":38,
			"componentType":5126,
			"count":384,
			"type":"VEC2"
		},
		{
			"bufferView":39,
			"componentType":5123,
			"count":732,
			"type":"SCALAR"
		},
		{
			"bufferView":40,
			"componentType":5126,
			"count":7319,
			"max":[
				131.75918579101562,
				283.5911865234375,
				-10.077882766723633
			],
			"min":[
				-131.75918579101562,
				-283.5911865234375,
				-164.8937530517578
			],
			"type":"VEC3"
		},
		{
			"bufferView":41,
			"componentType":5126,
			"count":7319,
			"type":"VEC3"
		},
		{
			"bufferView":42,
			"componentType":5126,
			"count":7319,
			"type":"VEC2"
		},
		{
			"bufferView":43,
			"componentType":5123,
			"count":12096,
			"type":"SCALAR"
		}
	],
	"bufferViews":[
		{
			"buffer":0,
			"byteLength":60,
			"byteOffset":0,
			"target":34962
		},
		{
			"buffer":0,
			"byteLength":60,
			"byteOffset":60,
			"target":34962
		},
		{
			"buffer":0,
			"byteLength":40,
			"byteOffset":120,
			"target":34962
		},
		{
			"buffer":0,
			"byteLength":18,
			"byteOffset":160,
			"target":34963
		},
		{
			"buffer":0,
			"byteLength":1680,
			"byteOffset":180,
			"target":34962
		},
		{
			"buffer":0,
			"byteLength":1680,
			"byteOffset":1860,
			"target":34962
		},
		{
			"buffer":0,
			"byteLength":1120,
			"byteOffset":3540,
			"target":34962
		},
		{
			"buffer":0,
			"byteLength":540,
			"byteOffset":4660,
			"target":34963
		},
		{
			"buffer":0,
			"byteLength":60,
			"byteOffset":5200,
			"target":34962
		},
		{
			"buffer":0,
			"byteLength":60,
			"byteOffset":5260,
			"target":34962
		},
		{
			"buffer":0,
			"byteLength":40,
			"byteOffset":5320,
			"target":34962
		},
		{
			"buffer":0,
			"byteLength":18,
			"byteOffset":5360,
			"target":34963
		},
		{
			"buffer":0,
			"byteLength":1680,
			"byteOffset":5380,
			"target":34962
		},
		{
			"buffer":0,
			"byteLength":1680,
			"byteOffset":7060,
			"target":34962
		},
		{
			"buffer":0,
			"byteLength":1120,
			"byteOffset":8740,
			"target":34962
		},
		{
			"buffer":0,
			"byteLength":540,
			"byteOffset":9860,
			"target":34963
		},
		{
			"buffer":0,
			"byteLength":360,
			"byteOffset":10400,
			"target":34962
		},
		{
			"buffer":0,
			"byteLength":360,
			"byteOffset":10760,
			"target":34962
		},
		{
			"buffer":0,
			"byteLength":240,
			"byteOffset":11120,
			"target":34962
		},
		{
			"buffer":0,
			"byteLength":144,
			"byteOffset":11360,
			"target":34963
		},
		{
			"buffer":0,
			"byteLength":8628,
			"byteOffset":11504,
			"target":34962
		},
		{
			"buffer":0,
			"byteLength":8628,
			"byteOffset":20132,
			"target":34962
		},
		{
			"buffer":0,
			"byteLength":5752,
			"byteOffset":28760,
			"target":34962
		},
		{
			"buffer":0,
			"byteLength":2244,
			"byteOffset":34512,
			"target":34963
		},
		{
			"buffer":0,
			"byteLength":4608,
			"byteOffset":36756,
			"target":34962
		},
		{
			"buffer":0,
			"byteLength":4608,
			"byteOffset":41364,
			"target":34962
		},
		{
			"buffer":0,
			"byteLength":3072,
			"byteOffset":45972,
			"target":34962
		},
		{
			"buffer":0,
			"byteLength":1464,
			"byteOffset":49044,
			"target":34963
		},
		{
			"buffer":0,
			"byteLength":4608,
			"byteOffset":50508,
			"target":34962
		},
		{
			"buffer":0,
			"byteLength":4608,
			"byteOffset":55116,
			"target":34962
		},
		{
			"buffer":0,
			"byteLength":3072,
			"byteOffset":59724,
			"target":34962
		},
		{
			"buffer":0,
			"byteLength":1464,
			"byteOffset":62796,
			"target":34963
		},
		{
			"buffer":0,
			"byteLength":4608,
			"byteOffset":64260,
			"target":34962
		},
		{
			"buffer":0,
			"byteLength":4608,
			"byteOffset":68868,
			"target":34962
		},
		{
			"buffer":0,
			"byteLength":3072,
			"byteOffset":73476,
			"target":34962
		},
		{
			"buffer":0,
			"byteLength":1464,
			"byteOffset":76548,
			"target":34963
		},
		{
			"buffer":0,
			"byteLength":4608,
			"byteOffset":78012,
			"target":34962
		},
		{
			"buffer":0,
			"byteLength":4608,
			"byteOffset":82620,
			"target":34962
		},
		{
			"buffer":0,
			"byteLength":3072,
			"byteOffset":87228,
			"target":34962
		},
		{
			"buffer":0,
			"byteLength":1464,
			"byteOffset":90300,
			"target":34963
		},
		{
			"buffer":0,
			"byteLength":87828,
			"byteOffset":91764,
			"target":34962
		},
		{
			"buffer":0,
			"byteLength":87828,
			"byteOffset":179592,
			"target":34962
		},
		{
			"buffer":0,
			"byteLength":58552,
			"byteOffset":267420,
			"target":34962
		},
		{
			"buffer":0,
			"byteLength":24192,
			"byteOffset":325972,
			"target":34963
		}
	],
	"samplers":[
		{
			"magFilter":9729,
			"minFilter":9987
		}
	],
	"buffers":[
		{
			"byteLength":350164,
			"uri":"city_SM_Veh_Retro_01.bin"
		}
	]
}
