{
	"asset":{
		"generator":"Khronos glTF Blender I/O v4.4.55",
		"version":"2.0"
	},
	"extensionsUsed":[
		"EXT_texture_webp"
	],
	"extensionsRequired":[
		"EXT_texture_webp"
	],
	"scene":0,
	"scenes":[
		{
			"name":"Scene",
			"nodes":[
				1
			]
		}
	],
	"nodes":[
		{
			"mesh":0,
			"name":"SM_Prop_Dumpster_01_Lid"
		},
		{
			"children":[
				0
			],
			"mesh":1,
			"name":"SM_Prop_Dumpster_01",
			"rotation":[
				0.7071068286895752,
				0,
				0,
				0.7071068286895752
			],
			"scale":[
				0.009999999776482582,
				0.009999999776482582,
				0.009999999776482582
			]
		}
	],
	"materials":[
		{
			"doubleSided":true,
			"name":"lambert28",
			"pbrMetallicRoughness":{
				"baseColorTexture":{
					"index":0
				},
				"metallicFactor":0,
				"roughnessFactor":0.5527864098548889
			}
		}
	],
	"meshes":[
		{
			"name":"Mesh.001",
			"primitives":[
				{
					"attributes":{
						"POSITION":0,
						"NORMAL":1,
						"TEXCOORD_0":2
					},
					"indices":3,
					"material":0
				}
			]
		},
		{
			"name":"Mesh",
			"primitives":[
				{
					"attributes":{
						"POSITION":4,
						"NORMAL":5,
						"TEXCOORD_0":6
					},
					"indices":7,
					"material":0
				}
			]
		}
	],
	"textures":[
		{
			"extensions":{
				"EXT_texture_webp":{
					"source":0
				}
			},
			"sampler":0
		}
	],
	"images":[
		{
			"mimeType":"image/webp",
			"name":"PolygonScifi_01_A",
			"uri":"PolygonScifi_01_A.webp"
		}
	],
	"accessors":[
		{
			"bufferView":0,
			"componentType":5126,
			"count":376,
			"max":[
				111.50627136230469,
				71.1334228515625,
				-107.81973266601562
			],
			"min":[
				-111.50627136230469,
				-43.182132720947266,
				-147.83482360839844
			],
			"type":"VEC3"
		},
		{
			"bufferView":1,
			"componentType":5126,
			"count":376,
			"type":"VEC3"
		},
		{
			"bufferView":2,
			"componentType":5126,
			"count":376,
			"type":"VEC2"
		},
		{
			"bufferView":3,
			"componentType":5123,
			"count":564,
			"type":"SCALAR"
		},
		{
			"bufferView":4,
			"componentType":5126,
			"count":1254,
			"max":[
				124.102783203125,
				77.26116180419922,
				0
			],
			"min":[
				-124.10269165039062,
				-77.26116180419922,
				-140.68106079101562
			],
			"type":"VEC3"
		},
		{
			"bufferView":5,
			"componentType":5126,
			"count":1254,
			"type":"VEC3"
		},
		{
			"bufferView":6,
			"componentType":5126,
			"count":1254,
			"type":"VEC2"
		},
		{
			"bufferView":7,
			"componentType":5123,
			"count":2562,
			"type":"SCALAR"
		}
	],
	"bufferViews":[
		{
			"buffer":0,
			"byteLength":4512,
			"byteOffset":0,
			"target":34962
		},
		{
			"buffer":0,
			"byteLength":4512,
			"byteOffset":4512,
			"target":34962
		},
		{
			"buffer":0,
			"byteLength":3008,
			"byteOffset":9024,
			"target":34962
		},
		{
			"buffer":0,
			"byteLength":1128,
			"byteOffset":12032,
			"target":34963
		},
		{
			"buffer":0,
			"byteLength":15048,
			"byteOffset":13160,
			"target":34962
		},
		{
			"buffer":0,
			"byteLength":15048,
			"byteOffset":28208,
			"target":34962
		},
		{
			"buffer":0,
			"byteLength":10032,
			"byteOffset":43256,
			"target":34962
		},
		{
			"buffer":0,
			"byteLength":5124,
			"byteOffset":53288,
			"target":34963
		}
	],
	"samplers":[
		{
			"magFilter":9729,
			"minFilter":9987
		}
	],
	"buffers":[
		{
			"byteLength":58412,
			"uri":"city_SM_Prop_Dumpster_01.bin"
		}
	]
}
