{
	"asset":{
		"generator":"Khronos glTF Blender I/O v4.4.55",
		"version":"2.0"
	},
	"extensionsUsed":[
		"EXT_texture_webp"
	],
	"extensionsRequired":[
		"EXT_texture_webp"
	],
	"scene":0,
	"scenes":[
		{
			"name":"Scene",
			"nodes":[
				2
			]
		}
	],
	"nodes":[
		{
			"mesh":0,
			"name":"SM_Prop_Bank_Door_Left_01"
		},
		{
			"mesh":1,
			"name":"SM_Prop_Bank_Door_Right_01"
		},
		{
			"children":[
				0,
				1
			],
			"mesh":2,
			"name":"SM_Prop_Bank_Door_01",
			"rotation":[
				0.7071068286895752,
				0,
				0,
				0.7071068286895752
			],
			"scale":[
				0.009999999776482582,
				0.009999999776482582,
				0.009999999776482582
			]
		}
	],
	"materials":[
		{
			"doubleSided":true,
			"name":"lambert27",
			"pbrMetallicRoughness":{
				"baseColorTexture":{
					"index":0
				},
				"metallicFactor":0,
				"roughnessFactor":0.5527864098548889
			}
		}
	],
	"meshes":[
		{
			"name":"Mesh.001",
			"primitives":[
				{
					"attributes":{
						"POSITION":0,
						"NORMAL":1,
						"TEXCOORD_0":2
					},
					"indices":3,
					"material":0
				}
			]
		},
		{
			"name":"Mesh.002",
			"primitives":[
				{
					"attributes":{
						"POSITION":4,
						"NORMAL":5,
						"TEXCOORD_0":6
					},
					"indices":7,
					"material":0
				}
			]
		},
		{
			"name":"Mesh",
			"primitives":[
				{
					"attributes":{
						"POSITION":8,
						"NORMAL":9,
						"TEXCOORD_0":10
					},
					"indices":11,
					"material":0
				}
			]
		}
	],
	"textures":[
		{
			"extensions":{
				"EXT_texture_webp":{
					"source":0
				}
			},
			"sampler":0
		}
	],
	"images":[
		{
			"mimeType":"image/webp",
			"name":"PolygonScifi_01_A",
			"uri":"PolygonScifi_01_A.webp"
		}
	],
	"accessors":[
		{
			"bufferView":0,
			"componentType":5126,
			"count":148,
			"max":[
				376.07269287109375,
				-59.978485107421875,
				2.4776833378865437e-16
			],
			"min":[
				298.4249267578125,
				-75.82893371582031,
				-242.9345245361328
			],
			"type":"VEC3"
		},
		{
			"bufferView":1,
			"componentType":5126,
			"count":148,
			"type":"VEC3"
		},
		{
			"bufferView":2,
			"componentType":5126,
			"count":148,
			"type":"VEC2"
		},
		{
			"bufferView":3,
			"componentType":5123,
			"count":300,
			"type":"SCALAR"
		},
		{
			"bufferView":4,
			"componentType":5126,
			"count":196,
			"max":[
				432.1108703613281,
				-59.978485107421875,
				0
			],
			"min":[
				352.70843505859375,
				-75.82893371582031,
				-242.9345245361328
			],
			"type":"VEC3"
		},
		{
			"bufferView":5,
			"componentType":5126,
			"count":196,
			"type":"VEC3"
		},
		{
			"bufferView":6,
			"componentType":5126,
			"count":196,
			"type":"VEC2"
		},
		{
			"bufferView":7,
			"componentType":5123,
			"count":396,
			"type":"SCALAR"
		},
		{
			"bufferView":8,
			"componentType":5126,
			"count":456,
			"max":[
				493.6788635253906,
				14.672566413879395,
				0
			],
			"min":[
				229.81719970703125,
				-100.9634017944336,
				-299.99993896484375
			],
			"type":"VEC3"
		},
		{
			"bufferView":9,
			"componentType":5126,
			"count":456,
			"type":"VEC3"
		},
		{
			"bufferView":10,
			"componentType":5126,
			"count":456,
			"type":"VEC2"
		},
		{
			"bufferView":11,
			"componentType":5123,
			"count":915,
			"type":"SCALAR"
		}
	],
	"bufferViews":[
		{
			"buffer":0,
			"byteLength":1776,
			"byteOffset":0,
			"target":34962
		},
		{
			"buffer":0,
			"byteLength":1776,
			"byteOffset":1776,
			"target":34962
		},
		{
			"buffer":0,
			"byteLength":1184,
			"byteOffset":3552,
			"target":34962
		},
		{
			"buffer":0,
			"byteLength":600,
			"byteOffset":4736,
			"target":34963
		},
		{
			"buffer":0,
			"byteLength":2352,
			"byteOffset":5336,
			"target":34962
		},
		{
			"buffer":0,
			"byteLength":2352,
			"byteOffset":7688,
			"target":34962
		},
		{
			"buffer":0,
			"byteLength":1568,
			"byteOffset":10040,
			"target":34962
		},
		{
			"buffer":0,
			"byteLength":792,
			"byteOffset":11608,
			"target":34963
		},
		{
			"buffer":0,
			"byteLength":5472,
			"byteOffset":12400,
			"target":34962
		},
		{
			"buffer":0,
			"byteLength":5472,
			"byteOffset":17872,
			"target":34962
		},
		{
			"buffer":0,
			"byteLength":3648,
			"byteOffset":23344,
			"target":34962
		},
		{
			"buffer":0,
			"byteLength":1830,
			"byteOffset":26992,
			"target":34963
		}
	],
	"samplers":[
		{
			"magFilter":9729,
			"minFilter":9987
		}
	],
	"buffers":[
		{
			"byteLength":28824,
			"uri":"city_SM_Prop_Bank_Door_01.bin"
		}
	]
}
