{
	"asset":{
		"generator":"Khronos glTF Blender I/O v4.4.55",
		"version":"2.0"
	},
	"extensionsUsed":[
		"EXT_texture_webp"
	],
	"extensionsRequired":[
		"EXT_texture_webp"
	],
	"scene":0,
	"scenes":[
		{
			"name":"Scene",
			"nodes":[
				0
			]
		}
	],
	"nodes":[
		{
			"mesh":0,
			"name":"SM_Prop_Medical_Machine_01",
			"rotation":[
				0.7071068286895752,
				0,
				0,
				0.7071068286895752
			],
			"scale":[
				0.009999999776482582,
				0.009999999776482582,
				0.009999999776482582
			]
		}
	],
	"materials":[
		{
			"doubleSided":true,
			"name":"lambert1",
			"pbrMetallicRoughness":{
				"baseColorTexture":{
					"index":0
				},
				"metallicFactor":0,
				"roughnessFactor":0.5527864098548889
			}
		}
	],
	"meshes":[
		{
			"name":"Mesh",
			"primitives":[
				{
					"attributes":{
						"POSITION":0,
						"NORMAL":1,
						"TEXCOORD_0":2,
						"TEXCOORD_1":3
					},
					"indices":4,
					"material":0
				}
			]
		}
	],
	"textures":[
		{
			"extensions":{
				"EXT_texture_webp":{
					"source":0
				}
			},
			"sampler":0
		}
	],
	"images":[
		{
			"mimeType":"image/webp",
			"name":"PolygonScifi_01_A",
			"uri":"PolygonScifi_01_A.webp"
		}
	],
	"accessors":[
		{
			"bufferView":0,
			"componentType":5126,
			"count":5392,
			"max":[
				83.85086059570312,
				216.95738220214844,
				0
			],
			"min":[
				-83.85090637207031,
				-53.00236129760742,
				-296.3944091796875
			],
			"type":"VEC3"
		},
		{
			"bufferView":1,
			"componentType":5126,
			"count":5392,
			"type":"VEC3"
		},
		{
			"bufferView":2,
			"componentType":5126,
			"count":5392,
			"type":"VEC2"
		},
		{
			"bufferView":3,
			"componentType":5126,
			"count":5392,
			"type":"VEC2"
		},
		{
			"bufferView":4,
			"componentType":5123,
			"count":10350,
			"type":"SCALAR"
		}
	],
	"bufferViews":[
		{
			"buffer":0,
			"byteLength":64704,
			"byteOffset":0,
			"target":34962
		},
		{
			"buffer":0,
			"byteLength":64704,
			"byteOffset":64704,
			"target":34962
		},
		{
			"buffer":0,
			"byteLength":43136,
			"byteOffset":129408,
			"target":34962
		},
		{
			"buffer":0,
			"byteLength":43136,
			"byteOffset":172544,
			"target":34962
		},
		{
			"buffer":0,
			"byteLength":20700,
			"byteOffset":215680,
			"target":34963
		}
	],
	"samplers":[
		{
			"magFilter":9729,
			"minFilter":9987
		}
	],
	"buffers":[
		{
			"byteLength":236380,
			"uri":"city_SM_Prop_Medical_Machine_01.bin"
		}
	]
}
