{
	"asset":{
		"generator":"Khronos glTF Blender I/O v4.4.55",
		"version":"2.0"
	},
	"extensionsUsed":[
		"EXT_texture_webp"
	],
	"extensionsRequired":[
		"EXT_texture_webp"
	],
	"scene":0,
	"scenes":[
		{
			"name":"Scene",
			"nodes":[
				8
			]
		}
	],
	"nodes":[
		{
			"mesh":0,
			"name":"SM_Veh_Armored_Truck_01_Glass_Hover"
		},
		{
			"mesh":1,
			"name":"SM_Veh_Armored_Truck_01_Wheel_fl_Hover"
		},
		{
			"mesh":2,
			"name":"SM_Veh_Armored_Truck_01_Wheel_fr_Hover"
		},
		{
			"mesh":3,
			"name":"SM_Veh_Armored_Truck_01_Wheel_rl_01_Hover"
		},
		{
			"mesh":4,
			"name":"SM_Veh_Armored_Truck_01_Wheel_rl_02_Hover"
		},
		{
			"mesh":5,
			"name":"SM_Veh_Armored_Truck_01_Wheel_rr_01_Hover"
		},
		{
			"mesh":6,
			"name":"SM_Veh_Armored_Truck_01_Wheel_rr_02_Hover"
		},
		{
			"mesh":7,
			"name":"SM_Veh_Armored_Truck_SteeringW_01_Hover",
			"rotation":[
				0.1765618622303009,
				0,
				0,
				0.9842895865440369
			],
			"translation":[
				0,
				-57.363624572753906,
				-50.11106491088867
			]
		},
		{
			"children":[
				0,
				1,
				2,
				3,
				4,
				5,
				6,
				7
			],
			"mesh":8,
			"name":"SM_Veh_Armored_Truck_01_Hover",
			"rotation":[
				0.7071068286895752,
				0,
				0,
				0.7071068286895752
			],
			"scale":[
				0.009999999776482582,
				0.009999999776482582,
				0.009999999776482582
			]
		}
	],
	"materials":[
		{
			"doubleSided":true,
			"name":"Body1",
			"pbrMetallicRoughness":{
				"baseColorTexture":{
					"index":0
				},
				"metallicFactor":0,
				"roughnessFactor":0.5527864098548889
			}
		}
	],
	"meshes":[
		{
			"name":"Mesh.001",
			"primitives":[
				{
					"attributes":{
						"POSITION":0,
						"NORMAL":1,
						"TEXCOORD_0":2
					},
					"indices":3,
					"material":0
				}
			]
		},
		{
			"name":"Mesh.003",
			"primitives":[
				{
					"attributes":{
						"POSITION":4,
						"NORMAL":5,
						"TEXCOORD_0":6
					},
					"indices":7,
					"material":0
				}
			]
		},
		{
			"name":"Mesh.006",
			"primitives":[
				{
					"attributes":{
						"POSITION":8,
						"NORMAL":9,
						"TEXCOORD_0":10
					},
					"indices":11,
					"material":0
				}
			]
		},
		{
			"name":"Mesh.004",
			"primitives":[
				{
					"attributes":{
						"POSITION":12,
						"NORMAL":13,
						"TEXCOORD_0":14
					},
					"indices":15,
					"material":0
				}
			]
		},
		{
			"name":"Mesh.005",
			"primitives":[
				{
					"attributes":{
						"POSITION":16,
						"NORMAL":17,
						"TEXCOORD_0":18
					},
					"indices":19,
					"material":0
				}
			]
		},
		{
			"name":"Mesh.007",
			"primitives":[
				{
					"attributes":{
						"POSITION":20,
						"NORMAL":21,
						"TEXCOORD_0":22
					},
					"indices":23,
					"material":0
				}
			]
		},
		{
			"name":"Mesh.008",
			"primitives":[
				{
					"attributes":{
						"POSITION":24,
						"NORMAL":25,
						"TEXCOORD_0":26
					},
					"indices":27,
					"material":0
				}
			]
		},
		{
			"name":"Mesh.002",
			"primitives":[
				{
					"attributes":{
						"POSITION":28,
						"NORMAL":29,
						"TEXCOORD_0":30
					},
					"indices":31,
					"material":0
				}
			]
		},
		{
			"name":"Mesh",
			"primitives":[
				{
					"attributes":{
						"POSITION":32,
						"NORMAL":33,
						"TEXCOORD_0":34
					},
					"indices":35,
					"material":0
				}
			]
		}
	],
	"textures":[
		{
			"extensions":{
				"EXT_texture_webp":{
					"source":0
				}
			},
			"sampler":0
		}
	],
	"images":[
		{
			"mimeType":"image/webp",
			"name":"PolygonScifi_01_A",
			"uri":"PolygonScifi_01_A.webp"
		}
	],
	"accessors":[
		{
			"bufferView":0,
			"componentType":5126,
			"count":22,
			"max":[
				97.10881805419922,
				128.60107421875,
				-204.2379608154297
			],
			"min":[
				-97.10881805419922,
				52.379638671875,
				-236.0087432861328
			],
			"type":"VEC3"
		},
		{
			"bufferView":1,
			"componentType":5126,
			"count":22,
			"type":"VEC3"
		},
		{
			"bufferView":2,
			"componentType":5126,
			"count":22,
			"type":"VEC2"
		},
		{
			"bufferView":3,
			"componentType":5123,
			"count":48,
			"type":"SCALAR"
		},
		{
			"bufferView":4,
			"componentType":5126,
			"count":895,
			"max":[
				160.13949584960938,
				259.25311279296875,
				-18.9805908203125
			],
			"min":[
				47.80615234375,
				141.061767578125,
				-136.3082275390625
			],
			"type":"VEC3"
		},
		{
			"bufferView":5,
			"componentType":5126,
			"count":895,
			"type":"VEC3"
		},
		{
			"bufferView":6,
			"componentType":5126,
			"count":895,
			"type":"VEC2"
		},
		{
			"bufferView":7,
			"componentType":5123,
			"count":1536,
			"type":"SCALAR"
		},
		{
			"bufferView":8,
			"componentType":5126,
			"count":895,
			"max":[
				-47.80615234375,
				259.25311279296875,
				-18.9805908203125
			],
			"min":[
				-160.13949584960938,
				141.061767578125,
				-136.3082275390625
			],
			"type":"VEC3"
		},
		{
			"bufferView":9,
			"componentType":5126,
			"count":895,
			"type":"VEC3"
		},
		{
			"bufferView":10,
			"componentType":5126,
			"count":895,
			"type":"VEC2"
		},
		{
			"bufferView":11,
			"componentType":5123,
			"count":1536,
			"type":"SCALAR"
		},
		{
			"bufferView":12,
			"componentType":5126,
			"count":895,
			"max":[
				159.11964416503906,
				-16.990478515625,
				-21.701904296875
			],
			"min":[
				45.68679428100586,
				-136.21270751953125,
				-137.35552978515625
			],
			"type":"VEC3"
		},
		{
			"bufferView":13,
			"componentType":5126,
			"count":895,
			"type":"VEC3"
		},
		{
			"bufferView":14,
			"componentType":5126,
			"count":895,
			"type":"VEC2"
		},
		{
			"bufferView":15,
			"componentType":5123,
			"count":1536,
			"type":"SCALAR"
		},
		{
			"bufferView":16,
			"componentType":5126,
			"count":895,
			"max":[
				163.3881072998047,
				-166.7362518310547,
				-22.9910888671875
			],
			"min":[
				56.510841369628906,
				-284.7818603515625,
				-147.48193359375
			],
			"type":"VEC3"
		},
		{
			"bufferView":17,
			"componentType":5126,
			"count":895,
			"type":"VEC3"
		},
		{
			"bufferView":18,
			"componentType":5126,
			"count":895,
			"type":"VEC2"
		},
		{
			"bufferView":19,
			"componentType":5123,
			"count":1536,
			"type":"SCALAR"
		},
		{
			"bufferView":20,
			"componentType":5126,
			"count":895,
			"max":[
				-45.68679428100586,
				-16.990478515625,
				-21.701904296875
			],
			"min":[
				-159.11964416503906,
				-136.21270751953125,
				-137.35552978515625
			],
			"type":"VEC3"
		},
		{
			"bufferView":21,
			"componentType":5126,
			"count":895,
			"type":"VEC3"
		},
		{
			"bufferView":22,
			"componentType":5126,
			"count":895,
			"type":"VEC2"
		},
		{
			"bufferView":23,
			"componentType":5123,
			"count":1536,
			"type":"SCALAR"
		},
		{
			"bufferView":24,
			"componentType":5126,
			"count":895,
			"max":[
				-56.510841369628906,
				-166.7362518310547,
				-22.9910888671875
			],
			"min":[
				-163.3881072998047,
				-284.7818603515625,
				-147.48193359375
			],
			"type":"VEC3"
		},
		{
			"bufferView":25,
			"componentType":5126,
			"count":895,
			"type":"VEC3"
		},
		{
			"bufferView":26,
			"componentType":5126,
			"count":895,
			"type":"VEC2"
		},
		{
			"bufferView":27,
			"componentType":5123,
			"count":1536,
			"type":"SCALAR"
		},
		{
			"bufferView":28,
			"componentType":5126,
			"count":719,
			"max":[
				68.12297821044922,
				122.12873840332031,
				-160.00660705566406
			],
			"min":[
				18.235595703125,
				106.57416534423828,
				-209.8928680419922
			],
			"type":"VEC3"
		},
		{
			"bufferView":29,
			"componentType":5126,
			"count":719,
			"type":"VEC3"
		},
		{
			"bufferView":30,
			"componentType":5126,
			"count":719,
			"type":"VEC2"
		},
		{
			"bufferView":31,
			"componentType":5123,
			"count":1122,
			"type":"SCALAR"
		},
		{
			"bufferView":32,
			"componentType":5126,
			"count":5522,
			"max":[
				143.93775939941406,
				352.5718994140625,
				-44.19651794433594
			],
			"min":[
				-143.93775939941406,
				-352.572021484375,
				-266.0091247558594
			],
			"type":"VEC3"
		},
		{
			"bufferView":33,
			"componentType":5126,
			"count":5522,
			"type":"VEC3"
		},
		{
			"bufferView":34,
			"componentType":5126,
			"count":5522,
			"type":"VEC2"
		},
		{
			"bufferView":35,
			"componentType":5123,
			"count":9861,
			"type":"SCALAR"
		}
	],
	"bufferViews":[
		{
			"buffer":0,
			"byteLength":264,
			"byteOffset":0,
			"target":34962
		},
		{
			"buffer":0,
			"byteLength":264,
			"byteOffset":264,
			"target":34962
		},
		{
			"buffer":0,
			"byteLength":176,
			"byteOffset":528,
			"target":34962
		},
		{
			"buffer":0,
			"byteLength":96,
			"byteOffset":704,
			"target":34963
		},
		{
			"buffer":0,
			"byteLength":10740,
			"byteOffset":800,
			"target":34962
		},
		{
			"buffer":0,
			"byteLength":10740,
			"byteOffset":11540,
			"target":34962
		},
		{
			"buffer":0,
			"byteLength":7160,
			"byteOffset":22280,
			"target":34962
		},
		{
			"buffer":0,
			"byteLength":3072,
			"byteOffset":29440,
			"target":34963
		},
		{
			"buffer":0,
			"byteLength":10740,
			"byteOffset":32512,
			"target":34962
		},
		{
			"buffer":0,
			"byteLength":10740,
			"byteOffset":43252,
			"target":34962
		},
		{
			"buffer":0,
			"byteLength":7160,
			"byteOffset":53992,
			"target":34962
		},
		{
			"buffer":0,
			"byteLength":3072,
			"byteOffset":61152,
			"target":34963
		},
		{
			"buffer":0,
			"byteLength":10740,
			"byteOffset":64224,
			"target":34962
		},
		{
			"buffer":0,
			"byteLength":10740,
			"byteOffset":74964,
			"target":34962
		},
		{
			"buffer":0,
			"byteLength":7160,
			"byteOffset":85704,
			"target":34962
		},
		{
			"buffer":0,
			"byteLength":3072,
			"byteOffset":92864,
			"target":34963
		},
		{
			"buffer":0,
			"byteLength":10740,
			"byteOffset":95936,
			"target":34962
		},
		{
			"buffer":0,
			"byteLength":10740,
			"byteOffset":106676,
			"target":34962
		},
		{
			"buffer":0,
			"byteLength":7160,
			"byteOffset":117416,
			"target":34962
		},
		{
			"buffer":0,
			"byteLength":3072,
			"byteOffset":124576,
			"target":34963
		},
		{
			"buffer":0,
			"byteLength":10740,
			"byteOffset":127648,
			"target":34962
		},
		{
			"buffer":0,
			"byteLength":10740,
			"byteOffset":138388,
			"target":34962
		},
		{
			"buffer":0,
			"byteLength":7160,
			"byteOffset":149128,
			"target":34962
		},
		{
			"buffer":0,
			"byteLength":3072,
			"byteOffset":156288,
			"target":34963
		},
		{
			"buffer":0,
			"byteLength":10740,
			"byteOffset":159360,
			"target":34962
		},
		{
			"buffer":0,
			"byteLength":10740,
			"byteOffset":170100,
			"target":34962
		},
		{
			"buffer":0,
			"byteLength":7160,
			"byteOffset":180840,
			"target":34962
		},
		{
			"buffer":0,
			"byteLength":3072,
			"byteOffset":188000,
			"target":34963
		},
		{
			"buffer":0,
			"byteLength":8628,
			"byteOffset":191072,
			"target":34962
		},
		{
			"buffer":0,
			"byteLength":8628,
			"byteOffset":199700,
			"target":34962
		},
		{
			"buffer":0,
			"byteLength":5752,
			"byteOffset":208328,
			"target":34962
		},
		{
			"buffer":0,
			"byteLength":2244,
			"byteOffset":214080,
			"target":34963
		},
		{
			"buffer":0,
			"byteLength":66264,
			"byteOffset":216324,
			"target":34962
		},
		{
			"buffer":0,
			"byteLength":66264,
			"byteOffset":282588,
			"target":34962
		},
		{
			"buffer":0,
			"byteLength":44176,
			"byteOffset":348852,
			"target":34962
		},
		{
			"buffer":0,
			"byteLength":19722,
			"byteOffset":393028,
			"target":34963
		}
	],
	"samplers":[
		{
			"magFilter":9729,
			"minFilter":9987
		}
	],
	"buffers":[
		{
			"byteLength":412752,
			"uri":"city_SM_Veh_Armored_Truck_01_Hover.bin"
		}
	]
}
