{
	"asset":{
		"generator":"Khronos glTF Blender I/O v4.4.55",
		"version":"2.0"
	},
	"extensionsUsed":[
		"EXT_texture_webp"
	],
	"extensionsRequired":[
		"EXT_texture_webp"
	],
	"scene":0,
	"scenes":[
		{
			"name":"Scene",
			"nodes":[
				0
			]
		}
	],
	"nodes":[
		{
			"mesh":0,
			"name":"SM_Prop_Robotic_Part_08",
			"rotation":[
				0.7071068286895752,
				0,
				0,
				0.7071068286895752
			],
			"scale":[
				0.009999999776482582,
				0.009999999776482582,
				0.009999999776482582
			]
		}
	],
	"materials":[
		{
			"doubleSided":true,
			"name":"lambert1",
			"pbrMetallicRoughness":{
				"baseColorTexture":{
					"index":0
				},
				"metallicFactor":0,
				"roughnessFactor":0.5527864098548889
			}
		}
	],
	"meshes":[
		{
			"name":"Mesh",
			"primitives":[
				{
					"attributes":{
						"POSITION":0,
						"NORMAL":1,
						"TEXCOORD_0":2,
						"TEXCOORD_1":3
					},
					"indices":4,
					"material":0
				}
			]
		}
	],
	"textures":[
		{
			"extensions":{
				"EXT_texture_webp":{
					"source":0
				}
			},
			"sampler":0
		}
	],
	"images":[
		{
			"mimeType":"image/webp",
			"name":"PolygonScifi_01_A",
			"uri":"PolygonScifi_01_A.webp"
		}
	],
	"accessors":[
		{
			"bufferView":0,
			"componentType":5126,
			"count":1468,
			"max":[
				25.174331665039062,
				8.236217498779297,
				44.802101135253906
			],
			"min":[
				-9.97161865234375,
				-26.3161678314209,
				-8.80279541015625
			],
			"type":"VEC3"
		},
		{
			"bufferView":1,
			"componentType":5126,
			"count":1468,
			"type":"VEC3"
		},
		{
			"bufferView":2,
			"componentType":5126,
			"count":1468,
			"type":"VEC2"
		},
		{
			"bufferView":3,
			"componentType":5126,
			"count":1468,
			"type":"VEC2"
		},
		{
			"bufferView":4,
			"componentType":5123,
			"count":2394,
			"type":"SCALAR"
		}
	],
	"bufferViews":[
		{
			"buffer":0,
			"byteLength":17616,
			"byteOffset":0,
			"target":34962
		},
		{
			"buffer":0,
			"byteLength":17616,
			"byteOffset":17616,
			"target":34962
		},
		{
			"buffer":0,
			"byteLength":11744,
			"byteOffset":35232,
			"target":34962
		},
		{
			"buffer":0,
			"byteLength":11744,
			"byteOffset":46976,
			"target":34962
		},
		{
			"buffer":0,
			"byteLength":4788,
			"byteOffset":58720,
			"target":34963
		}
	],
	"samplers":[
		{
			"magFilter":9729,
			"minFilter":9987
		}
	],
	"buffers":[
		{
			"byteLength":63508,
			"uri":"city_SM_Prop_Robotic_Part_08.bin"
		}
	]
}
