{
	"asset":{
		"generator":"Khronos glTF Blender I/O v4.4.55",
		"version":"2.0"
	},
	"extensionsUsed":[
		"EXT_texture_webp"
	],
	"extensionsRequired":[
		"EXT_texture_webp"
	],
	"scene":0,
	"scenes":[
		{
			"name":"Scene",
			"nodes":[
				2
			]
		}
	],
	"nodes":[
		{
			"mesh":0,
			"name":"SM_Wep_Syringe_Gun_Charge_01"
		},
		{
			"mesh":1,
			"name":"SM_Wep_Syringe_Gun_Trigger_01"
		},
		{
			"children":[
				0,
				1
			],
			"mesh":2,
			"name":"SM_Wep_Syringe_Gun_01",
			"rotation":[
				0.7071068286895752,
				0,
				0,
				0.7071068286895752
			],
			"scale":[
				0.009999999776482582,
				0.009999999776482582,
				0.009999999776482582
			]
		}
	],
	"materials":[
		{
			"doubleSided":true,
			"name":"lambert1",
			"pbrMetallicRoughness":{
				"baseColorTexture":{
					"index":0
				},
				"metallicFactor":0,
				"roughnessFactor":0.5527864098548889
			}
		},
		{
			"doubleSided":true,
			"name":"lambert16",
			"pbrMetallicRoughness":{
				"baseColorTexture":{
					"index":1
				},
				"metallicFactor":0,
				"roughnessFactor":0.5527864098548889
			}
		}
	],
	"meshes":[
		{
			"name":"Mesh.002",
			"primitives":[
				{
					"attributes":{
						"POSITION":0,
						"NORMAL":1,
						"TEXCOORD_0":2
					},
					"indices":3,
					"material":0
				}
			]
		},
		{
			"name":"Mesh.001",
			"primitives":[
				{
					"attributes":{
						"POSITION":4,
						"NORMAL":5,
						"TEXCOORD_0":6
					},
					"indices":7,
					"material":1
				}
			]
		},
		{
			"name":"Mesh",
			"primitives":[
				{
					"attributes":{
						"POSITION":8,
						"NORMAL":9,
						"TEXCOORD_0":10
					},
					"indices":11,
					"material":0
				}
			]
		}
	],
	"textures":[
		{
			"extensions":{
				"EXT_texture_webp":{
					"source":0
				}
			},
			"sampler":0
		},
		{
			"extensions":{
				"EXT_texture_webp":{
					"source":0
				}
			},
			"sampler":0
		}
	],
	"images":[
		{
			"mimeType":"image/webp",
			"name":"PolygonScifi_01_A",
			"uri":"PolygonScifi_01_A.webp"
		}
	],
	"accessors":[
		{
			"bufferView":0,
			"componentType":5126,
			"count":353,
			"max":[
				-1.7852134704589844,
				6.589729309082031,
				-8.324066162109375
			],
			"min":[
				-14.441610336303711,
				0.3736724853515625,
				-17.471355438232422
			],
			"type":"VEC3"
		},
		{
			"bufferView":1,
			"componentType":5126,
			"count":353,
			"type":"VEC3"
		},
		{
			"bufferView":2,
			"componentType":5126,
			"count":353,
			"type":"VEC2"
		},
		{
			"bufferView":3,
			"componentType":5123,
			"count":618,
			"type":"SCALAR"
		},
		{
			"bufferView":4,
			"componentType":5126,
			"count":30,
			"max":[
				0.6751946806907654,
				6.755500793457031,
				-0.258697509765625
			],
			"min":[
				0.08876140415668488,
				2.9558982849121094,
				-4.735786437988281
			],
			"type":"VEC3"
		},
		{
			"bufferView":5,
			"componentType":5126,
			"count":30,
			"type":"VEC3"
		},
		{
			"bufferView":6,
			"componentType":5126,
			"count":30,
			"type":"VEC2"
		},
		{
			"bufferView":7,
			"componentType":5123,
			"count":54,
			"type":"SCALAR"
		},
		{
			"bufferView":8,
			"componentType":5126,
			"count":1375,
			"max":[
				3.3091421127319336,
				35.94615936279297,
				8.602859497070312
			],
			"min":[
				-3.3091421127319336,
				-9.427715301513672,
				-16.53255844116211
			],
			"type":"VEC3"
		},
		{
			"bufferView":9,
			"componentType":5126,
			"count":1375,
			"type":"VEC3"
		},
		{
			"bufferView":10,
			"componentType":5126,
			"count":1375,
			"type":"VEC2"
		},
		{
			"bufferView":11,
			"componentType":5123,
			"count":2466,
			"type":"SCALAR"
		}
	],
	"bufferViews":[
		{
			"buffer":0,
			"byteLength":4236,
			"byteOffset":0,
			"target":34962
		},
		{
			"buffer":0,
			"byteLength":4236,
			"byteOffset":4236,
			"target":34962
		},
		{
			"buffer":0,
			"byteLength":2824,
			"byteOffset":8472,
			"target":34962
		},
		{
			"buffer":0,
			"byteLength":1236,
			"byteOffset":11296,
			"target":34963
		},
		{
			"buffer":0,
			"byteLength":360,
			"byteOffset":12532,
			"target":34962
		},
		{
			"buffer":0,
			"byteLength":360,
			"byteOffset":12892,
			"target":34962
		},
		{
			"buffer":0,
			"byteLength":240,
			"byteOffset":13252,
			"target":34962
		},
		{
			"buffer":0,
			"byteLength":108,
			"byteOffset":13492,
			"target":34963
		},
		{
			"buffer":0,
			"byteLength":16500,
			"byteOffset":13600,
			"target":34962
		},
		{
			"buffer":0,
			"byteLength":16500,
			"byteOffset":30100,
			"target":34962
		},
		{
			"buffer":0,
			"byteLength":11000,
			"byteOffset":46600,
			"target":34962
		},
		{
			"buffer":0,
			"byteLength":4932,
			"byteOffset":57600,
			"target":34963
		}
	],
	"samplers":[
		{
			"magFilter":9729,
			"minFilter":9987
		}
	],
	"buffers":[
		{
			"byteLength":62532,
			"uri":"city_SM_Wep_Syringe_Gun_01.bin"
		}
	]
}
