{
	"asset":{
		"generator":"Khronos glTF Blender I/O v4.4.55",
		"version":"2.0"
	},
	"extensionsUsed":[
		"EXT_texture_webp"
	],
	"extensionsRequired":[
		"EXT_texture_webp"
	],
	"scene":0,
	"scenes":[
		{
			"name":"Scene",
			"nodes":[
				1
			]
		}
	],
	"nodes":[
		{
			"mesh":0,
			"name":"SM_Prop_Security_Camera_02_Top"
		},
		{
			"children":[
				0
			],
			"mesh":1,
			"name":"SM_Prop_Security_Camera_02",
			"rotation":[
				0.7071068286895752,
				0,
				0,
				0.7071068286895752
			],
			"scale":[
				0.009999999776482582,
				0.009999999776482582,
				0.009999999776482582
			]
		}
	],
	"materials":[
		{
			"doubleSided":true,
			"name":"lambert235",
			"pbrMetallicRoughness":{
				"baseColorTexture":{
					"index":0
				},
				"metallicFactor":0,
				"roughnessFactor":0.5527864098548889
			}
		}
	],
	"meshes":[
		{
			"name":"Mesh.001",
			"primitives":[
				{
					"attributes":{
						"POSITION":0,
						"NORMAL":1,
						"TEXCOORD_0":2
					},
					"indices":3,
					"material":0
				}
			]
		},
		{
			"name":"Mesh",
			"primitives":[
				{
					"attributes":{
						"POSITION":4,
						"NORMAL":5,
						"TEXCOORD_0":6
					},
					"indices":7,
					"material":0
				}
			]
		}
	],
	"textures":[
		{
			"extensions":{
				"EXT_texture_webp":{
					"source":0
				}
			},
			"sampler":0
		}
	],
	"images":[
		{
			"mimeType":"image/webp",
			"name":"PolygonScifi_01_A",
			"uri":"PolygonScifi_01_A.webp"
		}
	],
	"accessors":[
		{
			"bufferView":0,
			"componentType":5126,
			"count":374,
			"max":[
				12.726880073547363,
				108.03108215332031,
				-0.964363694190979
			],
			"min":[
				-18.174457550048828,
				37.71228790283203,
				-88.63705444335938
			],
			"type":"VEC3"
		},
		{
			"bufferView":1,
			"componentType":5126,
			"count":374,
			"type":"VEC3"
		},
		{
			"bufferView":2,
			"componentType":5126,
			"count":374,
			"type":"VEC2"
		},
		{
			"bufferView":3,
			"componentType":5123,
			"count":678,
			"type":"SCALAR"
		},
		{
			"bufferView":4,
			"componentType":5126,
			"count":210,
			"max":[
				18.120098114013672,
				59.99107360839844,
				18.12014389038086
			],
			"min":[
				-18.120145797729492,
				0,
				-18.12014389038086
			],
			"type":"VEC3"
		},
		{
			"bufferView":5,
			"componentType":5126,
			"count":210,
			"type":"VEC3"
		},
		{
			"bufferView":6,
			"componentType":5126,
			"count":210,
			"type":"VEC2"
		},
		{
			"bufferView":7,
			"componentType":5123,
			"count":372,
			"type":"SCALAR"
		}
	],
	"bufferViews":[
		{
			"buffer":0,
			"byteLength":4488,
			"byteOffset":0,
			"target":34962
		},
		{
			"buffer":0,
			"byteLength":4488,
			"byteOffset":4488,
			"target":34962
		},
		{
			"buffer":0,
			"byteLength":2992,
			"byteOffset":8976,
			"target":34962
		},
		{
			"buffer":0,
			"byteLength":1356,
			"byteOffset":11968,
			"target":34963
		},
		{
			"buffer":0,
			"byteLength":2520,
			"byteOffset":13324,
			"target":34962
		},
		{
			"buffer":0,
			"byteLength":2520,
			"byteOffset":15844,
			"target":34962
		},
		{
			"buffer":0,
			"byteLength":1680,
			"byteOffset":18364,
			"target":34962
		},
		{
			"buffer":0,
			"byteLength":744,
			"byteOffset":20044,
			"target":34963
		}
	],
	"samplers":[
		{
			"magFilter":9729,
			"minFilter":9987
		}
	],
	"buffers":[
		{
			"byteLength":20788,
			"uri":"city_SM_Prop_Security_Camera_02.bin"
		}
	]
}
