{
	"asset":{
		"generator":"Khronos glTF Blender I/O v4.4.55",
		"version":"2.0"
	},
	"extensionsUsed":[
		"EXT_texture_webp"
	],
	"extensionsRequired":[
		"EXT_texture_webp"
	],
	"scene":0,
	"scenes":[
		{
			"name":"Scene",
			"nodes":[
				4
			]
		}
	],
	"nodes":[
		{
			"mesh":0,
			"name":"SM_Wep_Rifle_Small_ChargeHandle_01"
		},
		{
			"mesh":1,
			"name":"SM_Wep_Rifle_Small_Mag_01"
		},
		{
			"mesh":2,
			"name":"SM_Wep_Rifle_Small_Slide_01"
		},
		{
			"mesh":3,
			"name":"SM_Wep_Rifle_Small_Trigger_01"
		},
		{
			"children":[
				0,
				1,
				2,
				3
			],
			"mesh":4,
			"name":"SM_Wep_Rifle_Small_01",
			"rotation":[
				0.7071068286895752,
				0,
				0,
				0.7071068286895752
			],
			"scale":[
				0.009999999776482582,
				0.009999999776482582,
				0.009999999776482582
			]
		}
	],
	"materials":[
		{
			"doubleSided":true,
			"name":"lambert1",
			"pbrMetallicRoughness":{
				"baseColorTexture":{
					"index":0
				},
				"metallicFactor":0,
				"roughnessFactor":0.5527864098548889
			}
		}
	],
	"meshes":[
		{
			"name":"Mesh.003",
			"primitives":[
				{
					"attributes":{
						"POSITION":0,
						"NORMAL":1,
						"TEXCOORD_0":2
					},
					"indices":3,
					"material":0
				}
			]
		},
		{
			"name":"Mesh.002",
			"primitives":[
				{
					"attributes":{
						"POSITION":4,
						"NORMAL":5,
						"TEXCOORD_0":6
					},
					"indices":7,
					"material":0
				}
			]
		},
		{
			"name":"Mesh.004",
			"primitives":[
				{
					"attributes":{
						"POSITION":8,
						"NORMAL":9,
						"TEXCOORD_0":10
					},
					"indices":11,
					"material":0
				}
			]
		},
		{
			"name":"Mesh.001",
			"primitives":[
				{
					"attributes":{
						"POSITION":12,
						"NORMAL":13,
						"TEXCOORD_0":14
					},
					"indices":15,
					"material":0
				}
			]
		},
		{
			"name":"Mesh",
			"primitives":[
				{
					"attributes":{
						"POSITION":16,
						"NORMAL":17,
						"TEXCOORD_0":18
					},
					"indices":19,
					"material":0
				}
			]
		}
	],
	"textures":[
		{
			"extensions":{
				"EXT_texture_webp":{
					"source":0
				}
			},
			"sampler":0
		}
	],
	"images":[
		{
			"mimeType":"image/webp",
			"name":"PolygonScifi_01_A",
			"uri":"PolygonScifi_01_A.webp"
		}
	],
	"accessors":[
		{
			"bufferView":0,
			"componentType":5126,
			"count":68,
			"max":[
				4.143681526184082,
				18.22811508178711,
				-16.342937469482422
			],
			"min":[
				-2.792975902557373,
				-5.163058280944824,
				-17.58393096923828
			],
			"type":"VEC3"
		},
		{
			"bufferView":1,
			"componentType":5126,
			"count":68,
			"type":"VEC3"
		},
		{
			"bufferView":2,
			"componentType":5126,
			"count":68,
			"type":"VEC2"
		},
		{
			"bufferView":3,
			"componentType":5123,
			"count":126,
			"type":"SCALAR"
		},
		{
			"bufferView":4,
			"componentType":5126,
			"count":295,
			"max":[
				2.458723545074463,
				22.35052490234375,
				12.159675598144531
			],
			"min":[
				-1.1080188751220703,
				13.653427124023438,
				-5.291236877441406
			],
			"type":"VEC3"
		},
		{
			"bufferView":5,
			"componentType":5126,
			"count":295,
			"type":"VEC3"
		},
		{
			"bufferView":6,
			"componentType":5126,
			"count":295,
			"type":"VEC2"
		},
		{
			"bufferView":7,
			"componentType":5123,
			"count":540,
			"type":"SCALAR"
		},
		{
			"bufferView":8,
			"componentType":5126,
			"count":16,
			"max":[
				1.3887619972229004,
				20.502845764160156,
				-12.69247055053711
			],
			"min":[
				-1.5861542224884033,
				11.166763305664062,
				-15.67188835144043
			],
			"type":"VEC3"
		},
		{
			"bufferView":9,
			"componentType":5126,
			"count":16,
			"type":"VEC3"
		},
		{
			"bufferView":10,
			"componentType":5126,
			"count":16,
			"type":"VEC2"
		},
		{
			"bufferView":11,
			"componentType":5123,
			"count":24,
			"type":"SCALAR"
		},
		{
			"bufferView":12,
			"componentType":5126,
			"count":96,
			"max":[
				1.224104404449463,
				9.305414199829102,
				-2.177501678466797
			],
			"min":[
				0.1266002357006073,
				5.5010199546813965,
				-7.19605016708374
			],
			"type":"VEC3"
		},
		{
			"bufferView":13,
			"componentType":5126,
			"count":96,
			"type":"VEC3"
		},
		{
			"bufferView":14,
			"componentType":5126,
			"count":96,
			"type":"VEC2"
		},
		{
			"bufferView":15,
			"componentType":5123,
			"count":156,
			"type":"SCALAR"
		},
		{
			"bufferView":16,
			"componentType":5126,
			"count":2992,
			"max":[
				5.006139755249023,
				49.97369384765625,
				10.172027587890625
			],
			"min":[
				-5.006139755249023,
				-35.010345458984375,
				-19.187789916992188
			],
			"type":"VEC3"
		},
		{
			"bufferView":17,
			"componentType":5126,
			"count":2992,
			"type":"VEC3"
		},
		{
			"bufferView":18,
			"componentType":5126,
			"count":2992,
			"type":"VEC2"
		},
		{
			"bufferView":19,
			"componentType":5123,
			"count":5316,
			"type":"SCALAR"
		}
	],
	"bufferViews":[
		{
			"buffer":0,
			"byteLength":816,
			"byteOffset":0,
			"target":34962
		},
		{
			"buffer":0,
			"byteLength":816,
			"byteOffset":816,
			"target":34962
		},
		{
			"buffer":0,
			"byteLength":544,
			"byteOffset":1632,
			"target":34962
		},
		{
			"buffer":0,
			"byteLength":252,
			"byteOffset":2176,
			"target":34963
		},
		{
			"buffer":0,
			"byteLength":3540,
			"byteOffset":2428,
			"target":34962
		},
		{
			"buffer":0,
			"byteLength":3540,
			"byteOffset":5968,
			"target":34962
		},
		{
			"buffer":0,
			"byteLength":2360,
			"byteOffset":9508,
			"target":34962
		},
		{
			"buffer":0,
			"byteLength":1080,
			"byteOffset":11868,
			"target":34963
		},
		{
			"buffer":0,
			"byteLength":192,
			"byteOffset":12948,
			"target":34962
		},
		{
			"buffer":0,
			"byteLength":192,
			"byteOffset":13140,
			"target":34962
		},
		{
			"buffer":0,
			"byteLength":128,
			"byteOffset":13332,
			"target":34962
		},
		{
			"buffer":0,
			"byteLength":48,
			"byteOffset":13460,
			"target":34963
		},
		{
			"buffer":0,
			"byteLength":1152,
			"byteOffset":13508,
			"target":34962
		},
		{
			"buffer":0,
			"byteLength":1152,
			"byteOffset":14660,
			"target":34962
		},
		{
			"buffer":0,
			"byteLength":768,
			"byteOffset":15812,
			"target":34962
		},
		{
			"buffer":0,
			"byteLength":312,
			"byteOffset":16580,
			"target":34963
		},
		{
			"buffer":0,
			"byteLength":35904,
			"byteOffset":16892,
			"target":34962
		},
		{
			"buffer":0,
			"byteLength":35904,
			"byteOffset":52796,
			"target":34962
		},
		{
			"buffer":0,
			"byteLength":23936,
			"byteOffset":88700,
			"target":34962
		},
		{
			"buffer":0,
			"byteLength":10632,
			"byteOffset":112636,
			"target":34963
		}
	],
	"samplers":[
		{
			"magFilter":9729,
			"minFilter":9987
		}
	],
	"buffers":[
		{
			"byteLength":123268,
			"uri":"city_SM_Wep_Rifle_Small_01.bin"
		}
	]
}
