{
	"asset":{
		"generator":"Khronos glTF Blender I/O v4.4.55",
		"version":"2.0"
	},
	"extensionsUsed":[
		"EXT_texture_webp"
	],
	"extensionsRequired":[
		"EXT_texture_webp"
	],
	"scene":0,
	"scenes":[
		{
			"name":"Scene",
			"nodes":[
				0
			]
		}
	],
	"nodes":[
		{
			"mesh":0,
			"name":"SM_Prop_Drone_Ball_01",
			"rotation":[
				0.7071068286895752,
				0,
				0,
				0.7071068286895752
			],
			"scale":[
				0.009999999776482582,
				0.009999999776482582,
				0.009999999776482582
			]
		}
	],
	"materials":[
		{
			"doubleSided":true,
			"name":"lambert1",
			"pbrMetallicRoughness":{
				"baseColorTexture":{
					"index":0
				},
				"metallicFactor":0,
				"roughnessFactor":0.5527864098548889
			}
		}
	],
	"meshes":[
		{
			"name":"Mesh",
			"primitives":[
				{
					"attributes":{
						"POSITION":0,
						"NORMAL":1,
						"TEXCOORD_0":2
					},
					"indices":3,
					"material":0
				}
			]
		}
	],
	"textures":[
		{
			"extensions":{
				"EXT_texture_webp":{
					"source":0
				}
			},
			"sampler":0
		}
	],
	"images":[
		{
			"mimeType":"image/webp",
			"name":"PolygonScifi_01_A",
			"uri":"PolygonScifi_01_A.webp"
		}
	],
	"accessors":[
		{
			"bufferView":0,
			"componentType":5126,
			"count":1887,
			"max":[
				34.795204162597656,
				30.228588104248047,
				27.607677459716797
			],
			"min":[
				-34.795204162597656,
				-30.228588104248047,
				-27.607677459716797
			],
			"type":"VEC3"
		},
		{
			"bufferView":1,
			"componentType":5126,
			"count":1887,
			"type":"VEC3"
		},
		{
			"bufferView":2,
			"componentType":5126,
			"count":1887,
			"type":"VEC2"
		},
		{
			"bufferView":3,
			"componentType":5123,
			"count":3522,
			"type":"SCALAR"
		}
	],
	"bufferViews":[
		{
			"buffer":0,
			"byteLength":22644,
			"byteOffset":0,
			"target":34962
		},
		{
			"buffer":0,
			"byteLength":22644,
			"byteOffset":22644,
			"target":34962
		},
		{
			"buffer":0,
			"byteLength":15096,
			"byteOffset":45288,
			"target":34962
		},
		{
			"buffer":0,
			"byteLength":7044,
			"byteOffset":60384,
			"target":34963
		}
	],
	"samplers":[
		{
			"magFilter":9729,
			"minFilter":9987
		}
	],
	"buffers":[
		{
			"byteLength":67428,
			"uri":"city_SM_Prop_Drone_Ball_01.bin"
		}
	]
}
