{
	"asset":{
		"generator":"Khronos glTF Blender I/O v4.4.55",
		"version":"2.0"
	},
	"extensionsUsed":[
		"EXT_texture_webp"
	],
	"extensionsRequired":[
		"EXT_texture_webp"
	],
	"scene":0,
	"scenes":[
		{
			"name":"Scene",
			"nodes":[
				1
			]
		}
	],
	"nodes":[
		{
			"mesh":0,
			"name":"SM_Veh_Armored_Truck_Cannon_Barrel"
		},
		{
			"children":[
				0
			],
			"mesh":1,
			"name":"SM_Veh_Armored_Truck_Cannon_01",
			"rotation":[
				0.7071068286895752,
				0,
				0,
				0.7071068286895752
			],
			"scale":[
				0.009999999776482582,
				0.009999999776482582,
				0.009999999776482582
			]
		}
	],
	"materials":[
		{
			"doubleSided":true,
			"name":"Body1",
			"pbrMetallicRoughness":{
				"baseColorTexture":{
					"index":0
				},
				"metallicFactor":0,
				"roughnessFactor":0.5527864098548889
			}
		}
	],
	"meshes":[
		{
			"name":"Mesh.001",
			"primitives":[
				{
					"attributes":{
						"POSITION":0,
						"NORMAL":1,
						"TEXCOORD_0":2
					},
					"indices":3,
					"material":0
				}
			]
		},
		{
			"name":"Mesh",
			"primitives":[
				{
					"attributes":{
						"POSITION":4,
						"NORMAL":5,
						"TEXCOORD_0":6
					},
					"indices":7,
					"material":0
				}
			]
		}
	],
	"textures":[
		{
			"extensions":{
				"EXT_texture_webp":{
					"source":0
				}
			},
			"sampler":0
		}
	],
	"images":[
		{
			"mimeType":"image/webp",
			"name":"PolygonScifi_01_A",
			"uri":"PolygonScifi_01_A.webp"
		}
	],
	"accessors":[
		{
			"bufferView":0,
			"componentType":5126,
			"count":635,
			"max":[
				63.49026870727539,
				162.83140563964844,
				-19.375083923339844
			],
			"min":[
				-50.967018127441406,
				-63.935386657714844,
				-88.21098327636719
			],
			"type":"VEC3"
		},
		{
			"bufferView":1,
			"componentType":5126,
			"count":635,
			"type":"VEC3"
		},
		{
			"bufferView":2,
			"componentType":5126,
			"count":635,
			"type":"VEC2"
		},
		{
			"bufferView":3,
			"componentType":5123,
			"count":1020,
			"type":"SCALAR"
		},
		{
			"bufferView":4,
			"componentType":5126,
			"count":194,
			"max":[
				45.77179718017578,
				45.77178192138672,
				3.5762786865234375e-07
			],
			"min":[
				-45.771793365478516,
				-45.77179718017578,
				-22.915571212768555
			],
			"type":"VEC3"
		},
		{
			"bufferView":5,
			"componentType":5126,
			"count":194,
			"type":"VEC3"
		},
		{
			"bufferView":6,
			"componentType":5126,
			"count":194,
			"type":"VEC2"
		},
		{
			"bufferView":7,
			"componentType":5123,
			"count":360,
			"type":"SCALAR"
		}
	],
	"bufferViews":[
		{
			"buffer":0,
			"byteLength":7620,
			"byteOffset":0,
			"target":34962
		},
		{
			"buffer":0,
			"byteLength":7620,
			"byteOffset":7620,
			"target":34962
		},
		{
			"buffer":0,
			"byteLength":5080,
			"byteOffset":15240,
			"target":34962
		},
		{
			"buffer":0,
			"byteLength":2040,
			"byteOffset":20320,
			"target":34963
		},
		{
			"buffer":0,
			"byteLength":2328,
			"byteOffset":22360,
			"target":34962
		},
		{
			"buffer":0,
			"byteLength":2328,
			"byteOffset":24688,
			"target":34962
		},
		{
			"buffer":0,
			"byteLength":1552,
			"byteOffset":27016,
			"target":34962
		},
		{
			"buffer":0,
			"byteLength":720,
			"byteOffset":28568,
			"target":34963
		}
	],
	"samplers":[
		{
			"magFilter":9729,
			"minFilter":9987
		}
	],
	"buffers":[
		{
			"byteLength":29288,
			"uri":"city_SM_Veh_Armored_Truck_Cannon_01.bin"
		}
	]
}
