{
	"asset":{
		"generator":"Khronos glTF Blender I/O v4.4.55",
		"version":"2.0"
	},
	"extensionsUsed":[
		"EXT_texture_webp"
	],
	"extensionsRequired":[
		"EXT_texture_webp"
	],
	"scene":0,
	"scenes":[
		{
			"name":"Scene",
			"nodes":[
				8
			]
		}
	],
	"nodes":[
		{
			"mesh":0,
			"name":"SM_Veh_Garbage_01_Glass_Hover"
		},
		{
			"mesh":1,
			"name":"SM_Veh_Garbage_01_SteeringW_Hover",
			"rotation":[
				0.2341400533914566,
				0,
				0,
				0.9722028970718384
			],
			"translation":[
				0,
				-50.20082473754883,
				-125.95657348632812
			]
		},
		{
			"mesh":2,
			"name":"SM_Veh_Garbage_01_Wheel_fl_Hover"
		},
		{
			"mesh":3,
			"name":"SM_Veh_Garbage_01_Wheel_fr_Hover"
		},
		{
			"mesh":4,
			"name":"SM_Veh_Garbage_01_Wheel_rl_01_Hover"
		},
		{
			"mesh":5,
			"name":"SM_Veh_Garbage_01_Wheel_rl_02_Hover"
		},
		{
			"mesh":6,
			"name":"SM_Veh_Garbage_01_Wheel_rr_01_Hover"
		},
		{
			"mesh":7,
			"name":"SM_Veh_Garbage_01_Wheel_rr_02_Hover"
		},
		{
			"children":[
				0,
				1,
				2,
				3,
				4,
				5,
				6,
				7
			],
			"mesh":8,
			"name":"SM_Veh_Garbage_01_Hover",
			"rotation":[
				0.7071068286895752,
				0,
				0,
				0.7071068286895752
			],
			"scale":[
				0.009999999776482582,
				0.009999999776482582,
				0.009999999776482582
			]
		}
	],
	"materials":[
		{
			"doubleSided":true,
			"name":"Body1",
			"pbrMetallicRoughness":{
				"baseColorTexture":{
					"index":0
				},
				"metallicFactor":0,
				"roughnessFactor":0.5527864098548889
			}
		}
	],
	"meshes":[
		{
			"name":"Mesh.002",
			"primitives":[
				{
					"attributes":{
						"POSITION":0,
						"NORMAL":1,
						"TEXCOORD_0":2
					},
					"indices":3,
					"material":0
				}
			]
		},
		{
			"name":"Mesh.001",
			"primitives":[
				{
					"attributes":{
						"POSITION":4,
						"NORMAL":5,
						"TEXCOORD_0":6
					},
					"indices":7,
					"material":0
				}
			]
		},
		{
			"name":"Mesh.005",
			"primitives":[
				{
					"attributes":{
						"POSITION":8,
						"NORMAL":9,
						"TEXCOORD_0":10
					},
					"indices":11,
					"material":0
				}
			]
		},
		{
			"name":"Mesh.006",
			"primitives":[
				{
					"attributes":{
						"POSITION":12,
						"NORMAL":13,
						"TEXCOORD_0":14
					},
					"indices":15,
					"material":0
				}
			]
		},
		{
			"name":"Mesh.004",
			"primitives":[
				{
					"attributes":{
						"POSITION":16,
						"NORMAL":17,
						"TEXCOORD_0":18
					},
					"indices":19,
					"material":0
				}
			]
		},
		{
			"name":"Mesh.003",
			"primitives":[
				{
					"attributes":{
						"POSITION":20,
						"NORMAL":21,
						"TEXCOORD_0":22
					},
					"indices":23,
					"material":0
				}
			]
		},
		{
			"name":"Mesh.007",
			"primitives":[
				{
					"attributes":{
						"POSITION":24,
						"NORMAL":25,
						"TEXCOORD_0":26
					},
					"indices":27,
					"material":0
				}
			]
		},
		{
			"name":"Mesh.008",
			"primitives":[
				{
					"attributes":{
						"POSITION":28,
						"NORMAL":29,
						"TEXCOORD_0":30
					},
					"indices":31,
					"material":0
				}
			]
		},
		{
			"name":"Mesh",
			"primitives":[
				{
					"attributes":{
						"POSITION":32,
						"NORMAL":33,
						"TEXCOORD_0":34
					},
					"indices":35,
					"material":0
				}
			]
		}
	],
	"textures":[
		{
			"extensions":{
				"EXT_texture_webp":{
					"source":0
				}
			},
			"sampler":0
		}
	],
	"images":[
		{
			"mimeType":"image/webp",
			"name":"PolygonScifi_01_A",
			"uri":"PolygonScifi_01_A.webp"
		}
	],
	"accessors":[
		{
			"bufferView":0,
			"componentType":5126,
			"count":28,
			"max":[
				108.15000915527344,
				288.93634033203125,
				-137.08595275878906
			],
			"min":[
				-108.15000915527344,
				101.94281005859375,
				-224.0451202392578
			],
			"type":"VEC3"
		},
		{
			"bufferView":1,
			"componentType":5126,
			"count":28,
			"type":"VEC3"
		},
		{
			"bufferView":2,
			"componentType":5126,
			"count":28,
			"type":"VEC2"
		},
		{
			"bufferView":3,
			"componentType":5123,
			"count":48,
			"type":"SCALAR"
		},
		{
			"bufferView":4,
			"componentType":5126,
			"count":719,
			"max":[
				64.23329162597656,
				246.43739318847656,
				-143.90713500976562
			],
			"min":[
				17.632394790649414,
				232.23731994628906,
				-190.494873046875
			],
			"type":"VEC3"
		},
		{
			"bufferView":5,
			"componentType":5126,
			"count":719,
			"type":"VEC3"
		},
		{
			"bufferView":6,
			"componentType":5126,
			"count":719,
			"type":"VEC2"
		},
		{
			"bufferView":7,
			"componentType":5123,
			"count":1122,
			"type":"SCALAR"
		},
		{
			"bufferView":8,
			"componentType":5126,
			"count":321,
			"max":[
				148.98480224609375,
				205.83895874023438,
				-12.195382118225098
			],
			"min":[
				35.35483169555664,
				111.1250991821289,
				-127.85282897949219
			],
			"type":"VEC3"
		},
		{
			"bufferView":9,
			"componentType":5126,
			"count":321,
			"type":"VEC3"
		},
		{
			"bufferView":10,
			"componentType":5126,
			"count":321,
			"type":"VEC2"
		},
		{
			"bufferView":11,
			"componentType":5123,
			"count":480,
			"type":"SCALAR"
		},
		{
			"bufferView":12,
			"componentType":5126,
			"count":321,
			"max":[
				-35.35483169555664,
				205.83895874023438,
				-12.195382118225098
			],
			"min":[
				-148.98480224609375,
				111.1250991821289,
				-127.85282897949219
			],
			"type":"VEC3"
		},
		{
			"bufferView":13,
			"componentType":5126,
			"count":321,
			"type":"VEC3"
		},
		{
			"bufferView":14,
			"componentType":5126,
			"count":321,
			"type":"VEC2"
		},
		{
			"bufferView":15,
			"componentType":5123,
			"count":480,
			"type":"SCALAR"
		},
		{
			"bufferView":16,
			"componentType":5126,
			"count":321,
			"max":[
				159.4075927734375,
				-36.93819046020508,
				2.2821617126464844
			],
			"min":[
				39.4027099609375,
				-139.76620483398438,
				-117.65753173828125
			],
			"type":"VEC3"
		},
		{
			"bufferView":17,
			"componentType":5126,
			"count":321,
			"type":"VEC3"
		},
		{
			"bufferView":18,
			"componentType":5126,
			"count":321,
			"type":"VEC2"
		},
		{
			"bufferView":19,
			"componentType":5123,
			"count":480,
			"type":"SCALAR"
		},
		{
			"bufferView":20,
			"componentType":5126,
			"count":321,
			"max":[
				152.5032958984375,
				-159.76095581054688,
				-3.8334813117980957
			],
			"min":[
				39.68935012817383,
				-265.17645263671875,
				-122.248291015625
			],
			"type":"VEC3"
		},
		{
			"bufferView":21,
			"componentType":5126,
			"count":321,
			"type":"VEC3"
		},
		{
			"bufferView":22,
			"componentType":5126,
			"count":321,
			"type":"VEC2"
		},
		{
			"bufferView":23,
			"componentType":5123,
			"count":480,
			"type":"SCALAR"
		},
		{
			"bufferView":24,
			"componentType":5126,
			"count":321,
			"max":[
				-39.4027099609375,
				-36.93819046020508,
				2.2821617126464844
			],
			"min":[
				-159.4075927734375,
				-139.76620483398438,
				-117.65753173828125
			],
			"type":"VEC3"
		},
		{
			"bufferView":25,
			"componentType":5126,
			"count":321,
			"type":"VEC3"
		},
		{
			"bufferView":26,
			"componentType":5126,
			"count":321,
			"type":"VEC2"
		},
		{
			"bufferView":27,
			"componentType":5123,
			"count":480,
			"type":"SCALAR"
		},
		{
			"bufferView":28,
			"componentType":5126,
			"count":321,
			"max":[
				-39.68935012817383,
				-159.76095581054688,
				-3.8334813117980957
			],
			"min":[
				-152.5032958984375,
				-265.17645263671875,
				-122.248291015625
			],
			"type":"VEC3"
		},
		{
			"bufferView":29,
			"componentType":5126,
			"count":321,
			"type":"VEC3"
		},
		{
			"bufferView":30,
			"componentType":5126,
			"count":321,
			"type":"VEC2"
		},
		{
			"bufferView":31,
			"componentType":5123,
			"count":480,
			"type":"SCALAR"
		},
		{
			"bufferView":32,
			"componentType":5126,
			"count":7518,
			"max":[
				168.609130859375,
				311.2559509277344,
				12.409029960632324
			],
			"min":[
				-168.609130859375,
				-311.2559509277344,
				-285.21923828125
			],
			"type":"VEC3"
		},
		{
			"bufferView":33,
			"componentType":5126,
			"count":7518,
			"type":"VEC3"
		},
		{
			"bufferView":34,
			"componentType":5126,
			"count":7518,
			"type":"VEC2"
		},
		{
			"bufferView":35,
			"componentType":5123,
			"count":12987,
			"type":"SCALAR"
		}
	],
	"bufferViews":[
		{
			"buffer":0,
			"byteLength":336,
			"byteOffset":0,
			"target":34962
		},
		{
			"buffer":0,
			"byteLength":336,
			"byteOffset":336,
			"target":34962
		},
		{
			"buffer":0,
			"byteLength":224,
			"byteOffset":672,
			"target":34962
		},
		{
			"buffer":0,
			"byteLength":96,
			"byteOffset":896,
			"target":34963
		},
		{
			"buffer":0,
			"byteLength":8628,
			"byteOffset":992,
			"target":34962
		},
		{
			"buffer":0,
			"byteLength":8628,
			"byteOffset":9620,
			"target":34962
		},
		{
			"buffer":0,
			"byteLength":5752,
			"byteOffset":18248,
			"target":34962
		},
		{
			"buffer":0,
			"byteLength":2244,
			"byteOffset":24000,
			"target":34963
		},
		{
			"buffer":0,
			"byteLength":3852,
			"byteOffset":26244,
			"target":34962
		},
		{
			"buffer":0,
			"byteLength":3852,
			"byteOffset":30096,
			"target":34962
		},
		{
			"buffer":0,
			"byteLength":2568,
			"byteOffset":33948,
			"target":34962
		},
		{
			"buffer":0,
			"byteLength":960,
			"byteOffset":36516,
			"target":34963
		},
		{
			"buffer":0,
			"byteLength":3852,
			"byteOffset":37476,
			"target":34962
		},
		{
			"buffer":0,
			"byteLength":3852,
			"byteOffset":41328,
			"target":34962
		},
		{
			"buffer":0,
			"byteLength":2568,
			"byteOffset":45180,
			"target":34962
		},
		{
			"buffer":0,
			"byteLength":960,
			"byteOffset":47748,
			"target":34963
		},
		{
			"buffer":0,
			"byteLength":3852,
			"byteOffset":48708,
			"target":34962
		},
		{
			"buffer":0,
			"byteLength":3852,
			"byteOffset":52560,
			"target":34962
		},
		{
			"buffer":0,
			"byteLength":2568,
			"byteOffset":56412,
			"target":34962
		},
		{
			"buffer":0,
			"byteLength":960,
			"byteOffset":58980,
			"target":34963
		},
		{
			"buffer":0,
			"byteLength":3852,
			"byteOffset":59940,
			"target":34962
		},
		{
			"buffer":0,
			"byteLength":3852,
			"byteOffset":63792,
			"target":34962
		},
		{
			"buffer":0,
			"byteLength":2568,
			"byteOffset":67644,
			"target":34962
		},
		{
			"buffer":0,
			"byteLength":960,
			"byteOffset":70212,
			"target":34963
		},
		{
			"buffer":0,
			"byteLength":3852,
			"byteOffset":71172,
			"target":34962
		},
		{
			"buffer":0,
			"byteLength":3852,
			"byteOffset":75024,
			"target":34962
		},
		{
			"buffer":0,
			"byteLength":2568,
			"byteOffset":78876,
			"target":34962
		},
		{
			"buffer":0,
			"byteLength":960,
			"byteOffset":81444,
			"target":34963
		},
		{
			"buffer":0,
			"byteLength":3852,
			"byteOffset":82404,
			"target":34962
		},
		{
			"buffer":0,
			"byteLength":3852,
			"byteOffset":86256,
			"target":34962
		},
		{
			"buffer":0,
			"byteLength":2568,
			"byteOffset":90108,
			"target":34962
		},
		{
			"buffer":0,
			"byteLength":960,
			"byteOffset":92676,
			"target":34963
		},
		{
			"buffer":0,
			"byteLength":90216,
			"byteOffset":93636,
			"target":34962
		},
		{
			"buffer":0,
			"byteLength":90216,
			"byteOffset":183852,
			"target":34962
		},
		{
			"buffer":0,
			"byteLength":60144,
			"byteOffset":274068,
			"target":34962
		},
		{
			"buffer":0,
			"byteLength":25974,
			"byteOffset":334212,
			"target":34963
		}
	],
	"samplers":[
		{
			"magFilter":9729,
			"minFilter":9987
		}
	],
	"buffers":[
		{
			"byteLength":360188,
			"uri":"city_SM_Veh_Garbage_01_Hover.bin"
		}
	]
}
