{
	"asset":{
		"generator":"Khronos glTF Blender I/O v4.4.55",
		"version":"2.0"
	},
	"extensionsUsed":[
		"EXT_texture_webp"
	],
	"extensionsRequired":[
		"EXT_texture_webp"
	],
	"scene":0,
	"scenes":[
		{
			"name":"Scene",
			"nodes":[
				8
			]
		}
	],
	"nodes":[
		{
			"mesh":0,
			"name":"SM_Veh_Sweepo_01_Glass"
		},
		{
			"mesh":1,
			"name":"SM_Veh_Sweepo_01_SteeringW",
			"rotation":[
				0.22515304386615753,
				0,
				0,
				0.9743234515190125
			],
			"translation":[
				0,
				-46.12748718261719,
				-65.03750610351562
			]
		},
		{
			"mesh":2,
			"name":"SM_Veh_Sweepo_01_Wheel_fl"
		},
		{
			"mesh":3,
			"name":"SM_Veh_Sweepo_01_Wheel_fr"
		},
		{
			"mesh":4,
			"name":"SM_Veh_Sweepo_01_Wheel_rl"
		},
		{
			"mesh":5,
			"name":"SM_Veh_Sweepo_01_Wheel_rr"
		},
		{
			"mesh":6,
			"name":"SM_Veh_Sweepo_Brush_L"
		},
		{
			"mesh":7,
			"name":"SM_Veh_Sweepo_Brush_R"
		},
		{
			"children":[
				0,
				1,
				2,
				3,
				4,
				5,
				6,
				7
			],
			"mesh":8,
			"name":"SM_Veh_Sweepo_01",
			"rotation":[
				0.7071068286895752,
				0,
				0,
				0.7071068286895752
			],
			"scale":[
				0.009999999776482582,
				0.009999999776482582,
				0.009999999776482582
			]
		}
	],
	"materials":[
		{
			"doubleSided":true,
			"name":"Body1",
			"pbrMetallicRoughness":{
				"baseColorTexture":{
					"index":0
				},
				"metallicFactor":0,
				"roughnessFactor":0.5527864098548889
			}
		}
	],
	"meshes":[
		{
			"name":"Mesh.007",
			"primitives":[
				{
					"attributes":{
						"POSITION":0,
						"NORMAL":1,
						"TEXCOORD_0":2
					},
					"indices":3,
					"material":0
				}
			]
		},
		{
			"name":"Mesh.008",
			"primitives":[
				{
					"attributes":{
						"POSITION":4,
						"NORMAL":5,
						"TEXCOORD_0":6
					},
					"indices":7,
					"material":0
				}
			]
		},
		{
			"name":"Mesh.002",
			"primitives":[
				{
					"attributes":{
						"POSITION":8,
						"NORMAL":9,
						"TEXCOORD_0":10
					},
					"indices":11,
					"material":0
				}
			]
		},
		{
			"name":"Mesh.006",
			"primitives":[
				{
					"attributes":{
						"POSITION":12,
						"NORMAL":13,
						"TEXCOORD_0":14
					},
					"indices":15,
					"material":0
				}
			]
		},
		{
			"name":"Mesh.003",
			"primitives":[
				{
					"attributes":{
						"POSITION":16,
						"NORMAL":17,
						"TEXCOORD_0":18
					},
					"indices":11,
					"material":0
				}
			]
		},
		{
			"name":"Mesh.005",
			"primitives":[
				{
					"attributes":{
						"POSITION":19,
						"NORMAL":20,
						"TEXCOORD_0":21
					},
					"indices":15,
					"material":0
				}
			]
		},
		{
			"name":"Mesh.001",
			"primitives":[
				{
					"attributes":{
						"POSITION":22,
						"NORMAL":23,
						"TEXCOORD_0":24
					},
					"indices":25,
					"material":0
				}
			]
		},
		{
			"name":"Mesh.004",
			"primitives":[
				{
					"attributes":{
						"POSITION":26,
						"NORMAL":27,
						"TEXCOORD_0":28
					},
					"indices":29,
					"material":0
				}
			]
		},
		{
			"name":"Mesh",
			"primitives":[
				{
					"attributes":{
						"POSITION":30,
						"NORMAL":31,
						"TEXCOORD_0":32
					},
					"indices":33,
					"material":0
				}
			]
		}
	],
	"textures":[
		{
			"extensions":{
				"EXT_texture_webp":{
					"source":0
				}
			},
			"sampler":0
		}
	],
	"images":[
		{
			"mimeType":"image/webp",
			"name":"PolygonScifi_01_A",
			"uri":"PolygonScifi_01_A.webp"
		}
	],
	"accessors":[
		{
			"bufferView":0,
			"componentType":5126,
			"count":34,
			"max":[
				68.35562896728516,
				154.7868194580078,
				-74.98039245605469
			],
			"min":[
				-68.35562896728516,
				45.001731872558594,
				-198.89556884765625
			],
			"type":"VEC3"
		},
		{
			"bufferView":1,
			"componentType":5126,
			"count":34,
			"type":"VEC3"
		},
		{
			"bufferView":2,
			"componentType":5126,
			"count":34,
			"type":"VEC2"
		},
		{
			"bufferView":3,
			"componentType":5123,
			"count":48,
			"type":"SCALAR"
		},
		{
			"bufferView":4,
			"componentType":5126,
			"count":719,
			"max":[
				21.600404739379883,
				126.87095642089844,
				-110.72528076171875
			],
			"min":[
				-21.60039520263672,
				113.820556640625,
				-153.92361450195312
			],
			"type":"VEC3"
		},
		{
			"bufferView":5,
			"componentType":5126,
			"count":719,
			"type":"VEC3"
		},
		{
			"bufferView":6,
			"componentType":5126,
			"count":719,
			"type":"VEC2"
		},
		{
			"bufferView":7,
			"componentType":5123,
			"count":1122,
			"type":"SCALAR"
		},
		{
			"bufferView":8,
			"componentType":5126,
			"count":416,
			"max":[
				72.47454833984375,
				81.03764343261719,
				0.6824407577514648
			],
			"min":[
				50.224205017089844,
				13.439739227294922,
				-66.91547393798828
			],
			"type":"VEC3"
		},
		{
			"bufferView":9,
			"componentType":5126,
			"count":416,
			"type":"VEC3"
		},
		{
			"bufferView":10,
			"componentType":5126,
			"count":416,
			"type":"VEC2"
		},
		{
			"bufferView":11,
			"componentType":5123,
			"count":792,
			"type":"SCALAR"
		},
		{
			"bufferView":12,
			"componentType":5126,
			"count":416,
			"max":[
				-50.224205017089844,
				81.03764343261719,
				0.6824407577514648
			],
			"min":[
				-72.47454071044922,
				13.439739227294922,
				-66.91547393798828
			],
			"type":"VEC3"
		},
		{
			"bufferView":13,
			"componentType":5126,
			"count":416,
			"type":"VEC3"
		},
		{
			"bufferView":14,
			"componentType":5126,
			"count":416,
			"type":"VEC2"
		},
		{
			"bufferView":15,
			"componentType":5123,
			"count":792,
			"type":"SCALAR"
		},
		{
			"bufferView":16,
			"componentType":5126,
			"count":416,
			"max":[
				72.47454833984375,
				-74.6015625,
				0.6824407577514648
			],
			"min":[
				50.224205017089844,
				-142.199462890625,
				-66.91547393798828
			],
			"type":"VEC3"
		},
		{
			"bufferView":17,
			"componentType":5126,
			"count":416,
			"type":"VEC3"
		},
		{
			"bufferView":18,
			"componentType":5126,
			"count":416,
			"type":"VEC2"
		},
		{
			"bufferView":19,
			"componentType":5126,
			"count":416,
			"max":[
				-50.224205017089844,
				-74.6015625,
				0.6824407577514648
			],
			"min":[
				-72.47454071044922,
				-142.199462890625,
				-66.91547393798828
			],
			"type":"VEC3"
		},
		{
			"bufferView":20,
			"componentType":5126,
			"count":416,
			"type":"VEC3"
		},
		{
			"bufferView":21,
			"componentType":5126,
			"count":416,
			"type":"VEC2"
		},
		{
			"bufferView":22,
			"componentType":5126,
			"count":383,
			"max":[
				109.02688598632812,
				200.5738983154297,
				-2.125843048095703
			],
			"min":[
				17.39972686767578,
				109.18335723876953,
				-41.20976638793945
			],
			"type":"VEC3"
		},
		{
			"bufferView":23,
			"componentType":5126,
			"count":383,
			"type":"VEC3"
		},
		{
			"bufferView":24,
			"componentType":5126,
			"count":383,
			"type":"VEC2"
		},
		{
			"bufferView":25,
			"componentType":5123,
			"count":624,
			"type":"SCALAR"
		},
		{
			"bufferView":26,
			"componentType":5126,
			"count":383,
			"max":[
				-11.426507949829102,
				198.05596923828125,
				-2.125843048095703
			],
			"min":[
				-105.69844818115234,
				106.37076568603516,
				-41.20976638793945
			],
			"type":"VEC3"
		},
		{
			"bufferView":27,
			"componentType":5126,
			"count":383,
			"type":"VEC3"
		},
		{
			"bufferView":28,
			"componentType":5126,
			"count":383,
			"type":"VEC2"
		},
		{
			"bufferView":29,
			"componentType":5123,
			"count":624,
			"type":"SCALAR"
		},
		{
			"bufferView":30,
			"componentType":5126,
			"count":4605,
			"max":[
				95.3639144897461,
				168.93374633789062,
				-13.544410705566406
			],
			"min":[
				-95.3639144897461,
				-184.44627380371094,
				-234.9187469482422
			],
			"type":"VEC3"
		},
		{
			"bufferView":31,
			"componentType":5126,
			"count":4605,
			"type":"VEC3"
		},
		{
			"bufferView":32,
			"componentType":5126,
			"count":4605,
			"type":"VEC2"
		},
		{
			"bufferView":33,
			"componentType":5123,
			"count":8046,
			"type":"SCALAR"
		}
	],
	"bufferViews":[
		{
			"buffer":0,
			"byteLength":408,
			"byteOffset":0,
			"target":34962
		},
		{
			"buffer":0,
			"byteLength":408,
			"byteOffset":408,
			"target":34962
		},
		{
			"buffer":0,
			"byteLength":272,
			"byteOffset":816,
			"target":34962
		},
		{
			"buffer":0,
			"byteLength":96,
			"byteOffset":1088,
			"target":34963
		},
		{
			"buffer":0,
			"byteLength":8628,
			"byteOffset":1184,
			"target":34962
		},
		{
			"buffer":0,
			"byteLength":8628,
			"byteOffset":9812,
			"target":34962
		},
		{
			"buffer":0,
			"byteLength":5752,
			"byteOffset":18440,
			"target":34962
		},
		{
			"buffer":0,
			"byteLength":2244,
			"byteOffset":24192,
			"target":34963
		},
		{
			"buffer":0,
			"byteLength":4992,
			"byteOffset":26436,
			"target":34962
		},
		{
			"buffer":0,
			"byteLength":4992,
			"byteOffset":31428,
			"target":34962
		},
		{
			"buffer":0,
			"byteLength":3328,
			"byteOffset":36420,
			"target":34962
		},
		{
			"buffer":0,
			"byteLength":1584,
			"byteOffset":39748,
			"target":34963
		},
		{
			"buffer":0,
			"byteLength":4992,
			"byteOffset":41332,
			"target":34962
		},
		{
			"buffer":0,
			"byteLength":4992,
			"byteOffset":46324,
			"target":34962
		},
		{
			"buffer":0,
			"byteLength":3328,
			"byteOffset":51316,
			"target":34962
		},
		{
			"buffer":0,
			"byteLength":1584,
			"byteOffset":54644,
			"target":34963
		},
		{
			"buffer":0,
			"byteLength":4992,
			"byteOffset":56228,
			"target":34962
		},
		{
			"buffer":0,
			"byteLength":4992,
			"byteOffset":61220,
			"target":34962
		},
		{
			"buffer":0,
			"byteLength":3328,
			"byteOffset":66212,
			"target":34962
		},
		{
			"buffer":0,
			"byteLength":4992,
			"byteOffset":69540,
			"target":34962
		},
		{
			"buffer":0,
			"byteLength":4992,
			"byteOffset":74532,
			"target":34962
		},
		{
			"buffer":0,
			"byteLength":3328,
			"byteOffset":79524,
			"target":34962
		},
		{
			"buffer":0,
			"byteLength":4596,
			"byteOffset":82852,
			"target":34962
		},
		{
			"buffer":0,
			"byteLength":4596,
			"byteOffset":87448,
			"target":34962
		},
		{
			"buffer":0,
			"byteLength":3064,
			"byteOffset":92044,
			"target":34962
		},
		{
			"buffer":0,
			"byteLength":1248,
			"byteOffset":95108,
			"target":34963
		},
		{
			"buffer":0,
			"byteLength":4596,
			"byteOffset":96356,
			"target":34962
		},
		{
			"buffer":0,
			"byteLength":4596,
			"byteOffset":100952,
			"target":34962
		},
		{
			"buffer":0,
			"byteLength":3064,
			"byteOffset":105548,
			"target":34962
		},
		{
			"buffer":0,
			"byteLength":1248,
			"byteOffset":108612,
			"target":34963
		},
		{
			"buffer":0,
			"byteLength":55260,
			"byteOffset":109860,
			"target":34962
		},
		{
			"buffer":0,
			"byteLength":55260,
			"byteOffset":165120,
			"target":34962
		},
		{
			"buffer":0,
			"byteLength":36840,
			"byteOffset":220380,
			"target":34962
		},
		{
			"buffer":0,
			"byteLength":16092,
			"byteOffset":257220,
			"target":34963
		}
	],
	"samplers":[
		{
			"magFilter":9729,
			"minFilter":9987
		}
	],
	"buffers":[
		{
			"byteLength":273312,
			"uri":"city_SM_Veh_Sweepo_01.bin"
		}
	]
}
