{
	"asset":{
		"generator":"Khronos glTF Blender I/O v4.4.55",
		"version":"2.0"
	},
	"extensionsUsed":[
		"EXT_texture_webp"
	],
	"extensionsRequired":[
		"EXT_texture_webp"
	],
	"scene":0,
	"scenes":[
		{
			"name":"Scene",
			"nodes":[
				1
			]
		}
	],
	"nodes":[
		{
			"mesh":0,
			"name":"SM_Prop_LargeSign_Noodles_01_Outline"
		},
		{
			"children":[
				0
			],
			"mesh":1,
			"name":"SM_Prop_Hologram_Noodles_01",
			"rotation":[
				0.7071068286895752,
				0,
				0,
				0.7071068286895752
			],
			"scale":[
				0.009999999776482582,
				0.009999999776482582,
				0.009999999776482582
			]
		}
	],
	"materials":[
		{
			"doubleSided":true,
			"name":"lambert27",
			"pbrMetallicRoughness":{
				"baseColorTexture":{
					"index":0
				},
				"metallicFactor":0,
				"roughnessFactor":0.5527864098548889
			}
		}
	],
	"meshes":[
		{
			"name":"Mesh.001",
			"primitives":[
				{
					"attributes":{
						"POSITION":0,
						"NORMAL":1,
						"TEXCOORD_0":2
					},
					"indices":3,
					"material":0
				}
			]
		},
		{
			"name":"Mesh",
			"primitives":[
				{
					"attributes":{
						"POSITION":4,
						"NORMAL":5,
						"TEXCOORD_0":6
					},
					"indices":7,
					"material":0
				}
			]
		}
	],
	"textures":[
		{
			"extensions":{
				"EXT_texture_webp":{
					"source":0
				}
			},
			"sampler":0
		}
	],
	"images":[
		{
			"mimeType":"image/webp",
			"name":"PolygonScifi_01_A",
			"uri":"PolygonScifi_01_A.webp"
		}
	],
	"accessors":[
		{
			"bufferView":0,
			"componentType":5126,
			"count":188,
			"max":[
				159.8896026611328,
				129.3146209716797,
				18.19830322265625
			],
			"min":[
				-157.1239471435547,
				-140.73448181152344,
				-362.4214172363281
			],
			"type":"VEC3"
		},
		{
			"bufferView":1,
			"componentType":5126,
			"count":188,
			"type":"VEC3"
		},
		{
			"bufferView":2,
			"componentType":5126,
			"count":188,
			"type":"VEC2"
		},
		{
			"bufferView":3,
			"componentType":5123,
			"count":318,
			"type":"SCALAR"
		},
		{
			"bufferView":4,
			"componentType":5126,
			"count":506,
			"max":[
				147.3975067138672,
				120.09315490722656,
				9.57631778717041
			],
			"min":[
				-147.3975067138672,
				-131.422607421875,
				-350.5559387207031
			],
			"type":"VEC3"
		},
		{
			"bufferView":5,
			"componentType":5126,
			"count":506,
			"type":"VEC3"
		},
		{
			"bufferView":6,
			"componentType":5126,
			"count":506,
			"type":"VEC2"
		},
		{
			"bufferView":7,
			"componentType":5123,
			"count":840,
			"type":"SCALAR"
		}
	],
	"bufferViews":[
		{
			"buffer":0,
			"byteLength":2256,
			"byteOffset":0,
			"target":34962
		},
		{
			"buffer":0,
			"byteLength":2256,
			"byteOffset":2256,
			"target":34962
		},
		{
			"buffer":0,
			"byteLength":1504,
			"byteOffset":4512,
			"target":34962
		},
		{
			"buffer":0,
			"byteLength":636,
			"byteOffset":6016,
			"target":34963
		},
		{
			"buffer":0,
			"byteLength":6072,
			"byteOffset":6652,
			"target":34962
		},
		{
			"buffer":0,
			"byteLength":6072,
			"byteOffset":12724,
			"target":34962
		},
		{
			"buffer":0,
			"byteLength":4048,
			"byteOffset":18796,
			"target":34962
		},
		{
			"buffer":0,
			"byteLength":1680,
			"byteOffset":22844,
			"target":34963
		}
	],
	"samplers":[
		{
			"magFilter":9729,
			"minFilter":9987
		}
	],
	"buffers":[
		{
			"byteLength":24524,
			"uri":"city_SM_Prop_Hologram_Noodles_01.bin"
		}
	]
}
