{
	"asset":{
		"generator":"Khronos glTF Blender I/O v4.4.55",
		"version":"2.0"
	},
	"extensionsUsed":[
		"EXT_texture_webp"
	],
	"extensionsRequired":[
		"EXT_texture_webp"
	],
	"scene":0,
	"scenes":[
		{
			"name":"Scene",
			"nodes":[
				0
			]
		}
	],
	"nodes":[
		{
			"mesh":0,
			"name":"SM_Bld_Power_03",
			"rotation":[
				0.7071068286895752,
				0,
				0,
				0.7071068286895752
			],
			"scale":[
				0.009999999776482582,
				0.009999999776482582,
				0.009999999776482582
			]
		}
	],
	"materials":[
		{
			"doubleSided":true,
			"name":"lambert29",
			"pbrMetallicRoughness":{
				"baseColorTexture":{
					"index":0
				},
				"metallicFactor":0,
				"roughnessFactor":0.5527864098548889
			}
		}
	],
	"meshes":[
		{
			"name":"Mesh",
			"primitives":[
				{
					"attributes":{
						"POSITION":0,
						"NORMAL":1,
						"TEXCOORD_0":2
					},
					"indices":3,
					"material":0
				}
			]
		}
	],
	"textures":[
		{
			"extensions":{
				"EXT_texture_webp":{
					"source":0
				}
			},
			"sampler":0
		}
	],
	"images":[
		{
			"mimeType":"image/webp",
			"name":"PolygonScifi_01_A",
			"uri":"PolygonScifi_01_A.webp"
		}
	],
	"accessors":[
		{
			"bufferView":0,
			"componentType":5126,
			"count":1010,
			"max":[
				327.45513916015625,
				327.45513916015625,
				0
			],
			"min":[
				-327.4543762207031,
				-327.45513916015625,
				-678.625732421875
			],
			"type":"VEC3"
		},
		{
			"bufferView":1,
			"componentType":5126,
			"count":1010,
			"type":"VEC3"
		},
		{
			"bufferView":2,
			"componentType":5126,
			"count":1010,
			"type":"VEC2"
		},
		{
			"bufferView":3,
			"componentType":5123,
			"count":1656,
			"type":"SCALAR"
		}
	],
	"bufferViews":[
		{
			"buffer":0,
			"byteLength":12120,
			"byteOffset":0,
			"target":34962
		},
		{
			"buffer":0,
			"byteLength":12120,
			"byteOffset":12120,
			"target":34962
		},
		{
			"buffer":0,
			"byteLength":8080,
			"byteOffset":24240,
			"target":34962
		},
		{
			"buffer":0,
			"byteLength":3312,
			"byteOffset":32320,
			"target":34963
		}
	],
	"samplers":[
		{
			"magFilter":9729,
			"minFilter":9987
		}
	],
	"buffers":[
		{
			"byteLength":35632,
			"uri":"city_SM_Bld_Power_03.bin"
		}
	]
}
