{
	"asset":{
		"generator":"Khronos glTF Blender I/O v4.4.55",
		"version":"2.0"
	},
	"extensionsUsed":[
		"EXT_texture_webp"
	],
	"extensionsRequired":[
		"EXT_texture_webp"
	],
	"scene":0,
	"scenes":[
		{
			"name":"Scene",
			"nodes":[
				0
			]
		}
	],
	"nodes":[
		{
			"mesh":0,
			"name":"SM_Prop_Robot_Posed_04",
			"rotation":[
				0.7071068286895752,
				0,
				0,
				0.7071068286895752
			],
			"scale":[
				0.009999999776482582,
				0.009999999776482582,
				0.009999999776482582
			]
		}
	],
	"materials":[
		{
			"doubleSided":true,
			"name":"roboguy_lambert4SG14",
			"pbrMetallicRoughness":{
				"baseColorTexture":{
					"index":0
				},
				"metallicFactor":0,
				"roughnessFactor":0.5527864098548889
			}
		}
	],
	"meshes":[
		{
			"name":"Mesh",
			"primitives":[
				{
					"attributes":{
						"POSITION":0,
						"NORMAL":1,
						"TEXCOORD_0":2
					},
					"indices":3,
					"material":0
				}
			]
		}
	],
	"textures":[
		{
			"extensions":{
				"EXT_texture_webp":{
					"source":0
				}
			},
			"sampler":0
		}
	],
	"images":[
		{
			"mimeType":"image/webp",
			"name":"PolygonCyberCity_Texture_01_A",
			"uri":"PolygonCyberCity_Texture_01_A.webp"
		}
	],
	"accessors":[
		{
			"bufferView":0,
			"componentType":5126,
			"count":3513,
			"max":[
				50.274261474609375,
				48.881744384765625,
				2.9185333251953125
			],
			"min":[
				-52.14080810546875,
				-24.34603500366211,
				-66.193603515625
			],
			"type":"VEC3"
		},
		{
			"bufferView":1,
			"componentType":5126,
			"count":3513,
			"type":"VEC3"
		},
		{
			"bufferView":2,
			"componentType":5126,
			"count":3513,
			"type":"VEC2"
		},
		{
			"bufferView":3,
			"componentType":5123,
			"count":4674,
			"type":"SCALAR"
		}
	],
	"bufferViews":[
		{
			"buffer":0,
			"byteLength":42156,
			"byteOffset":0,
			"target":34962
		},
		{
			"buffer":0,
			"byteLength":42156,
			"byteOffset":42156,
			"target":34962
		},
		{
			"buffer":0,
			"byteLength":28104,
			"byteOffset":84312,
			"target":34962
		},
		{
			"buffer":0,
			"byteLength":9348,
			"byteOffset":112416,
			"target":34963
		}
	],
	"samplers":[
		{
			"magFilter":9729,
			"minFilter":9987
		}
	],
	"buffers":[
		{
			"byteLength":121764,
			"uri":"cyber_SM_Prop_Robot_Posed_04.bin"
		}
	]
}
