{"asset":{"generator":"Khronos glTF Blender I/O v4.4.55","version":"2.0"},"extensionsUsed":["EXT_texture_webp"],"extensionsRequired":["EXT_texture_webp"],"scene":0,"scenes":[{"name":"Scene","nodes":[0]}],"nodes":[{"mesh":0,"name":"SM_Prop_NeonSign_03","rotation":[0.7071068286895752,0,0,0.7071068286895752],"scale":[0.009999999776482582,0.009999999776482582,0.009999999776482582]}],"materials":[{"doubleSided":true,"name":"Scifi_Cybercity_Main","pbrMetallicRoughness":{"baseColorTexture":{"index":2},"metallicFactor":0,"roughnessFactor":0.5527864098548889}}],"meshes":[{"name":"Mesh","primitives":[{"attributes":{"POSITION":0,"NORMAL":1,"TEXCOORD_0":2},"indices":3,"material":0}]}],"textures":[{"extensions":{},"sampler":0},{"extensions":{},"sampler":0},{"extensions":{"EXT_texture_webp":{"source":0}},"sampler":0}],"images":[{"mimeType":"image/webp","name":"Wall_05_Emissive","uri":"Wall_05_Emissive.webp"}],"accessors":[{"bufferView":0,"componentType":5126,"count":1002,"max":[108.83460998535156,3.35888671875,43.168701171875],"min":[-108.83457946777344,-3.35888671875,-43.168701171875],"type":"VEC3"},{"bufferView":1,"componentType":5126,"count":1002,"type":"VEC3"},{"bufferView":2,"componentType":5126,"count":1002,"type":"VEC2"},{"bufferView":3,"componentType":5123,"count":1656,"type":"SCALAR"}],"bufferViews":[{"buffer":0,"byteLength":12024,"byteOffset":0,"target":34962},{"buffer":0,"byteLength":12024,"byteOffset":12024,"target":34962},{"buffer":0,"byteLength":8016,"byteOffset":24048,"target":34962},{"buffer":0,"byteLength":3312,"byteOffset":32064,"target":34963}],"samplers":[{"magFilter":9729,"minFilter":9987}],"buffers":[{"byteLength":35376,"uri":"cyber_SM_Prop_NeonSign_03.bin"}]}