{"asset":{"generator":"Khronos glTF Blender I/O v4.4.55","version":"2.0"},"extensionsUsed":["EXT_texture_webp"],"extensionsRequired":["EXT_texture_webp"],"scene":0,"scenes":[{"name":"Scene","nodes":[1]}],"nodes":[{"mesh":0,"name":"SM_Prop_Cellphone_02_Screen_01"},{"children":[0],"mesh":1,"name":"SM_Prop_Cellphone_02","rotation":[0.7071068286895752,0,0,0.7071068286895752],"scale":[0.009999999776482582,0.009999999776482582,0.009999999776482582]}],"materials":[{"alphaMode":"MASK","doubleSided":true,"name":"Base_Lambert1","pbrMetallicRoughness":{"baseColorFactor":[1,1,1,0.4345238208770752],"baseColorTexture":{"index":1},"metallicFactor":0,"roughnessFactor":0.5527864098548889},"alphaCutoff":0.5},{"doubleSided":true,"name":"Base_Lambert","pbrMetallicRoughness":{"baseColorTexture":{"index":4},"metallicFactor":0,"roughnessFactor":0.5527864098548889}}],"meshes":[{"name":"Mesh.001","primitives":[{"attributes":{"POSITION":0,"NORMAL":1,"TEXCOORD_0":2},"indices":3,"material":0}]},{"name":"Mesh","primitives":[{"attributes":{"POSITION":4,"NORMAL":5,"TEXCOORD_0":6},"indices":7,"material":1}]}],"textures":[{"extensions":{},"sampler":0},{"extensions":{"EXT_texture_webp":{"source":0}},"sampler":0},{"extensions":{},"sampler":0},{"extensions":{},"sampler":0},{"extensions":{"EXT_texture_webp":{"source":0}},"sampler":0}],"images":[{"mimeType":"image/webp","name":"Wall_05_Emissive","uri":"Wall_05_Emissive.webp"}],"accessors":[{"bufferView":0,"componentType":5126,"count":26,"max":[5.007907390594482,0.5,11.355364799499512],"min":[-5.007907390594482,-0.5,-11.355364799499512],"type":"VEC3"},{"bufferView":1,"componentType":5126,"count":26,"type":"VEC3"},{"bufferView":2,"componentType":5126,"count":26,"type":"VEC2"},{"bufferView":3,"componentType":5123,"count":48,"type":"SCALAR"},{"bufferView":4,"componentType":5126,"count":332,"max":[6.368896484375,0.9949493408203125,13.15919303894043],"min":[-6.368896484375,-1.5565471649169922,-13.15919303894043],"type":"VEC3"},{"bufferView":5,"componentType":5126,"count":332,"type":"VEC3"},{"bufferView":6,"componentType":5126,"count":332,"type":"VEC2"},{"bufferView":7,"componentType":5123,"count":576,"type":"SCALAR"}],"bufferViews":[{"buffer":0,"byteLength":312,"byteOffset":0,"target":34962},{"buffer":0,"byteLength":312,"byteOffset":312,"target":34962},{"buffer":0,"byteLength":208,"byteOffset":624,"target":34962},{"buffer":0,"byteLength":96,"byteOffset":832,"target":34963},{"buffer":0,"byteLength":3984,"byteOffset":928,"target":34962},{"buffer":0,"byteLength":3984,"byteOffset":4912,"target":34962},{"buffer":0,"byteLength":2656,"byteOffset":8896,"target":34962},{"buffer":0,"byteLength":1152,"byteOffset":11552,"target":34963}],"samplers":[{"magFilter":9729,"minFilter":9987}],"buffers":[{"byteLength":12704,"uri":"cyber_SM_Prop_Cellphone_02.bin"}]}