{"asset":{"generator":"Khronos glTF Blender I/O v4.4.55","version":"2.0"},"extensionsUsed":["EXT_texture_webp"],"extensionsRequired":["EXT_texture_webp"],"scene":0,"scenes":[{"name":"Scene","nodes":[0]}],"nodes":[{"mesh":0,"name":"SM_Prop_Pipe_Junction_Attatchment_03","rotation":[0.7071068286895752,0,0,0.7071068286895752],"scale":[0.009999999776482582,0.009999999776482582,0.009999999776482582]}],"materials":[{"doubleSided":true,"name":"Base_Lambert","pbrMetallicRoughness":{"baseColorTexture":{"index":2},"metallicFactor":0,"roughnessFactor":0.5527864098548889}}],"meshes":[{"name":"Mesh","primitives":[{"attributes":{"POSITION":0,"NORMAL":1,"TEXCOORD_0":2},"indices":3,"material":0}]}],"textures":[{"extensions":{},"sampler":0},{"extensions":{},"sampler":0},{"extensions":{"EXT_texture_webp":{"source":0}},"sampler":0}],"images":[{"mimeType":"image/webp","name":"Wall_05_Emissive","uri":"Wall_05_Emissive.webp"}],"accessors":[{"bufferView":0,"componentType":5126,"count":1228,"max":[56.84051513671875,56.84051513671875,-56.840545654296875],"min":[-56.84053039550781,-56.840484619140625,-87.33250427246094],"type":"VEC3"},{"bufferView":1,"componentType":5126,"count":1228,"type":"VEC3"},{"bufferView":2,"componentType":5126,"count":1228,"type":"VEC2"},{"bufferView":3,"componentType":5123,"count":1887,"type":"SCALAR"}],"bufferViews":[{"buffer":0,"byteLength":14736,"byteOffset":0,"target":34962},{"buffer":0,"byteLength":14736,"byteOffset":14736,"target":34962},{"buffer":0,"byteLength":9824,"byteOffset":29472,"target":34962},{"buffer":0,"byteLength":3774,"byteOffset":39296,"target":34963}],"samplers":[{"magFilter":9729,"minFilter":9987}],"buffers":[{"byteLength":43072,"uri":"cyber_SM_Prop_Pipe_Junction_Attatchment_03.bin"}]}