{"asset":{"generator":"Khronos glTF Blender I/O v4.4.55","version":"2.0"},"extensionsUsed":["EXT_texture_webp"],"extensionsRequired":["EXT_texture_webp"],"scene":0,"scenes":[{"name":"Scene","nodes":[0]}],"nodes":[{"mesh":0,"name":"SM_Prop_Traffic_Lights_01","rotation":[0.7071068286895752,0,0,0.7071068286895752],"scale":[0.009999999776482582,0.009999999776482582,0.009999999776482582]}],"materials":[{"doubleSided":true,"name":"MAT_01A2","pbrMetallicRoughness":{"baseColorTexture":{"index":1},"metallicFactor":0,"roughnessFactor":0.5527864098548889}}],"meshes":[{"name":"Mesh","primitives":[{"attributes":{"POSITION":0,"NORMAL":1,"TEXCOORD_0":2},"indices":3,"material":0}]}],"textures":[{"extensions":{},"sampler":0},{"extensions":{"EXT_texture_webp":{"source":0}},"sampler":0}],"images":[{"mimeType":"image/webp","name":"PolygonCyberCity_Texture_01_A","uri":"PolygonCyberCity_Texture_01_A.webp"}],"accessors":[{"bufferView":0,"componentType":5126,"count":892,"max":[97.73065185546875,32.262451171875,67.7789535522461],"min":[0,-13.074461936950684,-67.7789535522461],"type":"VEC3"},{"bufferView":1,"componentType":5126,"count":892,"type":"VEC3"},{"bufferView":2,"componentType":5126,"count":892,"type":"VEC2"},{"bufferView":3,"componentType":5123,"count":1494,"type":"SCALAR"}],"bufferViews":[{"buffer":0,"byteLength":10704,"byteOffset":0,"target":34962},{"buffer":0,"byteLength":10704,"byteOffset":10704,"target":34962},{"buffer":0,"byteLength":7136,"byteOffset":21408,"target":34962},{"buffer":0,"byteLength":2988,"byteOffset":28544,"target":34963}],"samplers":[{"magFilter":9729,"minFilter":9987}],"buffers":[{"byteLength":31532,"uri":"cyber_SM_Prop_Traffic_Lights_01.bin"}]}