{
	"asset":{
		"generator":"Khronos glTF Blender I/O v4.4.55",
		"version":"2.0"
	},
	"extensionsUsed":[
		"EXT_texture_webp"
	],
	"extensionsRequired":[
		"EXT_texture_webp"
	],
	"scene":0,
	"scenes":[
		{
			"name":"Scene",
			"nodes":[
				1
			]
		}
	],
	"nodes":[
		{
			"mesh":0,
			"name":"SM_Prop_Canopy_02_Fabric_01"
		},
		{
			"children":[
				0
			],
			"mesh":1,
			"name":"SM_Prop_Canopy_02",
			"rotation":[
				0.7071068286895752,
				0,
				0,
				0.7071068286895752
			],
			"scale":[
				0.009999999776482582,
				0.009999999776482582,
				0.009999999776482582
			]
		}
	],
	"materials":[
		{
			"doubleSided":true,
			"name":"lambert2",
			"pbrMetallicRoughness":{
				"baseColorTexture":{
					"index":0
				},
				"metallicFactor":0,
				"roughnessFactor":0.5527864098548889
			}
		}
	],
	"meshes":[
		{
			"name":"Mesh.001",
			"primitives":[
				{
					"attributes":{
						"POSITION":0,
						"NORMAL":1,
						"TEXCOORD_0":2,
						"COLOR_0":3,
						"COLOR_1":4,
						"COLOR_2":5
					},
					"indices":6,
					"material":0
				}
			]
		},
		{
			"name":"Mesh",
			"primitives":[
				{
					"attributes":{
						"POSITION":7,
						"NORMAL":8,
						"TEXCOORD_0":9
					},
					"indices":10,
					"material":0
				}
			]
		}
	],
	"textures":[
		{
			"extensions":{
				"EXT_texture_webp":{
					"source":0
				}
			},
			"sampler":0
		}
	],
	"images":[
		{
			"mimeType":"image/webp",
			"name":"PolygonCyberCity_Texture_01_A",
			"uri":"PolygonCyberCity_Texture_01_A.webp"
		}
	],
	"accessors":[
		{
			"bufferView":0,
			"componentType":5126,
			"count":2034,
			"max":[
				-64.26727294921875,
				143.7470703125,
				108.58332061767578
			],
			"min":[
				-691.6261596679688,
				-269.7705993652344,
				3.58489990234375
			],
			"type":"VEC3"
		},
		{
			"bufferView":1,
			"componentType":5126,
			"count":2034,
			"type":"VEC3"
		},
		{
			"bufferView":2,
			"componentType":5126,
			"count":2034,
			"type":"VEC2"
		},
		{
			"bufferView":3,
			"componentType":5121,
			"count":2034,
			"normalized":true,
			"type":"VEC4"
		},
		{
			"bufferView":4,
			"componentType":5123,
			"count":2034,
			"normalized":true,
			"type":"VEC4"
		},
		{
			"bufferView":5,
			"componentType":5123,
			"count":2034,
			"normalized":true,
			"type":"VEC4"
		},
		{
			"bufferView":6,
			"componentType":5123,
			"count":2592,
			"type":"SCALAR"
		},
		{
			"bufferView":7,
			"componentType":5126,
			"count":634,
			"max":[
				13.701204299926758,
				205.28953552246094,
				36.08604049682617
			],
			"min":[
				-754.057373046875,
				-345.15545654296875,
				-11.603160858154297
			],
			"type":"VEC3"
		},
		{
			"bufferView":8,
			"componentType":5126,
			"count":634,
			"type":"VEC3"
		},
		{
			"bufferView":9,
			"componentType":5126,
			"count":634,
			"type":"VEC2"
		},
		{
			"bufferView":10,
			"componentType":5123,
			"count":960,
			"type":"SCALAR"
		}
	],
	"bufferViews":[
		{
			"buffer":0,
			"byteLength":24408,
			"byteOffset":0,
			"target":34962
		},
		{
			"buffer":0,
			"byteLength":24408,
			"byteOffset":24408,
			"target":34962
		},
		{
			"buffer":0,
			"byteLength":16272,
			"byteOffset":48816,
			"target":34962
		},
		{
			"buffer":0,
			"byteLength":8136,
			"byteOffset":65088,
			"target":34962
		},
		{
			"buffer":0,
			"byteLength":16272,
			"byteOffset":73224,
			"target":34962
		},
		{
			"buffer":0,
			"byteLength":16272,
			"byteOffset":89496,
			"target":34962
		},
		{
			"buffer":0,
			"byteLength":5184,
			"byteOffset":105768,
			"target":34963
		},
		{
			"buffer":0,
			"byteLength":7608,
			"byteOffset":110952,
			"target":34962
		},
		{
			"buffer":0,
			"byteLength":7608,
			"byteOffset":118560,
			"target":34962
		},
		{
			"buffer":0,
			"byteLength":5072,
			"byteOffset":126168,
			"target":34962
		},
		{
			"buffer":0,
			"byteLength":1920,
			"byteOffset":131240,
			"target":34963
		}
	],
	"samplers":[
		{
			"magFilter":9729,
			"minFilter":9987
		}
	],
	"buffers":[
		{
			"byteLength":133160,
			"uri":"cyber_SM_Prop_Canopy_02.bin"
		}
	]
}
