{"asset":{"generator":"Khronos glTF Blender I/O v4.4.55","version":"2.0"},"extensionsUsed":["EXT_texture_webp"],"extensionsRequired":["EXT_texture_webp"],"scene":0,"scenes":[{"name":"Scene","nodes":[1]}],"nodes":[{"mesh":0,"name":"SM_Prop_Monitor_03_Hologram_01"},{"children":[0],"mesh":1,"name":"SM_Prop_Monitor_03","rotation":[0.7071068286895752,0,0,0.7071068286895752],"scale":[0.009999999776482582,0.009999999776482582,0.009999999776482582]}],"materials":[{"doubleSided":true,"name":"MAT_01A","pbrMetallicRoughness":{"baseColorTexture":{"index":1},"metallicFactor":0,"roughnessFactor":0.5527864098548889}}],"meshes":[{"name":"Mesh.001","primitives":[{"attributes":{"POSITION":0,"NORMAL":1,"TEXCOORD_0":2},"indices":3,"material":0}]},{"name":"Mesh","primitives":[{"attributes":{"POSITION":4,"NORMAL":5,"TEXCOORD_0":6},"indices":7,"material":0}]}],"textures":[{"extensions":{},"sampler":0},{"extensions":{"EXT_texture_webp":{"source":0}},"sampler":0}],"images":[{"mimeType":"image/webp","name":"PolygonCyberCity_Texture_01_A","uri":"PolygonCyberCity_Texture_01_A.webp"}],"accessors":[{"bufferView":0,"componentType":5126,"count":16,"max":[8.37506103515625,0.23664548993110657,131.58409118652344],"min":[-51.4619140625,0.23664548993110657,40.485809326171875],"type":"VEC3"},{"bufferView":1,"componentType":5126,"count":16,"type":"VEC3"},{"bufferView":2,"componentType":5126,"count":16,"type":"VEC2"},{"bufferView":3,"componentType":5123,"count":42,"type":"SCALAR"},{"bufferView":4,"componentType":5126,"count":855,"max":[27.6204833984375,5.658538818359375,139.9287109375],"min":[-55.301025390625,-5.658537864685059,0],"type":"VEC3"},{"bufferView":5,"componentType":5126,"count":855,"type":"VEC3"},{"bufferView":6,"componentType":5126,"count":855,"type":"VEC2"},{"bufferView":7,"componentType":5123,"count":1632,"type":"SCALAR"}],"bufferViews":[{"buffer":0,"byteLength":192,"byteOffset":0,"target":34962},{"buffer":0,"byteLength":192,"byteOffset":192,"target":34962},{"buffer":0,"byteLength":128,"byteOffset":384,"target":34962},{"buffer":0,"byteLength":84,"byteOffset":512,"target":34963},{"buffer":0,"byteLength":10260,"byteOffset":596,"target":34962},{"buffer":0,"byteLength":10260,"byteOffset":10856,"target":34962},{"buffer":0,"byteLength":6840,"byteOffset":21116,"target":34962},{"buffer":0,"byteLength":3264,"byteOffset":27956,"target":34963}],"samplers":[{"magFilter":9729,"minFilter":9987}],"buffers":[{"byteLength":31220,"uri":"cyber_SM_Prop_Monitor_03.bin"}]}