{"asset":{"generator":"Khronos glTF Blender I/O v4.4.55","version":"2.0"},"extensionsUsed":["EXT_texture_webp"],"extensionsRequired":["EXT_texture_webp"],"scene":0,"scenes":[{"name":"Scene","nodes":[0]}],"nodes":[{"mesh":0,"name":"SM_Prop_Powerpole_01","rotation":[0.7071068286895752,0,0,0.7071068286895752],"scale":[0.009999999776482582,0.009999999776482582,0.009999999776482582]}],"materials":[{"doubleSided":true,"name":"Scifi_Cybercity_Main","pbrMetallicRoughness":{"baseColorTexture":{"index":2},"metallicFactor":0,"roughnessFactor":0.5527864098548889}}],"meshes":[{"name":"Mesh","primitives":[{"attributes":{"POSITION":0,"NORMAL":1,"TEXCOORD_0":2},"indices":3,"material":0}]}],"textures":[{"extensions":{},"sampler":0},{"extensions":{},"sampler":0},{"extensions":{"EXT_texture_webp":{"source":0}},"sampler":0}],"images":[{"mimeType":"image/webp","name":"Wall_05_Emissive","uri":"Wall_05_Emissive.webp"}],"accessors":[{"bufferView":0,"componentType":5126,"count":3521,"max":[130.49070739746094,48.94673156738281,0],"min":[-130.49070739746094,-48.94673156738281,-633.1407470703125],"type":"VEC3"},{"bufferView":1,"componentType":5126,"count":3521,"type":"VEC3"},{"bufferView":2,"componentType":5126,"count":3521,"type":"VEC2"},{"bufferView":3,"componentType":5123,"count":5712,"type":"SCALAR"}],"bufferViews":[{"buffer":0,"byteLength":42252,"byteOffset":0,"target":34962},{"buffer":0,"byteLength":42252,"byteOffset":42252,"target":34962},{"buffer":0,"byteLength":28168,"byteOffset":84504,"target":34962},{"buffer":0,"byteLength":11424,"byteOffset":112672,"target":34963}],"samplers":[{"magFilter":9729,"minFilter":9987}],"buffers":[{"byteLength":124096,"uri":"cyber_SM_Prop_Powerpole_01.bin"}]}