{"asset":{"generator":"Khronos glTF Blender I/O v4.4.55","version":"2.0"},"extensionsUsed":["EXT_texture_webp"],"extensionsRequired":["EXT_texture_webp"],"scene":0,"scenes":[{"name":"Scene","nodes":[1]}],"nodes":[{"mesh":0,"name":"SM_Veh_Food_Trailer_01_Door_01"},{"children":[0],"mesh":1,"name":"SM_Veh_Food_Trailer_01","rotation":[0.7071068286895752,0,0,0.7071068286895752],"scale":[0.009999999776482582,0.009999999776482582,0.009999999776482582]}],"materials":[{"doubleSided":true,"name":"Scifi_Cybercity_Main","pbrMetallicRoughness":{"baseColorTexture":{"index":2},"metallicFactor":0,"roughnessFactor":0.5527864098548889}}],"meshes":[{"name":"Mesh.001","primitives":[{"attributes":{"POSITION":0,"NORMAL":1,"TEXCOORD_0":2},"indices":3,"material":0}]},{"name":"Mesh","primitives":[{"attributes":{"POSITION":4,"NORMAL":5,"TEXCOORD_0":6,"TEXCOORD_1":7},"indices":8,"material":0}]}],"textures":[{"extensions":{},"sampler":0},{"extensions":{},"sampler":0},{"extensions":{"EXT_texture_webp":{"source":0}},"sampler":0}],"images":[{"mimeType":"image/webp","name":"Wall_05_Emissive","uri":"Wall_05_Emissive.webp"}],"accessors":[{"bufferView":0,"componentType":5126,"count":126,"max":[119.7646713256836,118.56063842773438,-63.01791000366211],"min":[109.03604125976562,45.45492172241211,-286.9770812988281],"type":"VEC3"},{"bufferView":1,"componentType":5126,"count":126,"type":"VEC3"},{"bufferView":2,"componentType":5126,"count":126,"type":"VEC2"},{"bufferView":3,"componentType":5123,"count":258,"type":"SCALAR"},{"bufferView":4,"componentType":5126,"count":16221,"max":[136.30996704101562,374.7950439453125,3.0516161918640137],"min":[-255.10804748535156,-268.29058837890625,-533.3726806640625],"type":"VEC3"},{"bufferView":5,"componentType":5126,"count":16221,"type":"VEC3"},{"bufferView":6,"componentType":5126,"count":16221,"type":"VEC2"},{"bufferView":7,"componentType":5126,"count":16221,"type":"VEC2"},{"bufferView":8,"componentType":5123,"count":26568,"type":"SCALAR"}],"bufferViews":[{"buffer":0,"byteLength":1512,"byteOffset":0,"target":34962},{"buffer":0,"byteLength":1512,"byteOffset":1512,"target":34962},{"buffer":0,"byteLength":1008,"byteOffset":3024,"target":34962},{"buffer":0,"byteLength":516,"byteOffset":4032,"target":34963},{"buffer":0,"byteLength":194652,"byteOffset":4548,"target":34962},{"buffer":0,"byteLength":194652,"byteOffset":199200,"target":34962},{"buffer":0,"byteLength":129768,"byteOffset":393852,"target":34962},{"buffer":0,"byteLength":129768,"byteOffset":523620,"target":34962},{"buffer":0,"byteLength":53136,"byteOffset":653388,"target":34963}],"samplers":[{"magFilter":9729,"minFilter":9987}],"buffers":[{"byteLength":706524,"uri":"cyber_SM_Veh_Food_Trailer_01.bin"}]}