{"asset":{"generator":"Khronos glTF Blender I/O v4.4.55","version":"2.0"},"extensionsUsed":["EXT_texture_webp"],"extensionsRequired":["EXT_texture_webp"],"scene":0,"scenes":[{"name":"Scene","nodes":[5]}],"nodes":[{"mesh":0,"name":"SM_Prop_Robotic_Needle_Arm_01_Needle_01"},{"children":[0],"mesh":1,"name":"SM_Prop_Robotic_Needle_Arm_01_Arm_03"},{"children":[1],"mesh":2,"name":"SM_Prop_Robotic_Needle_Arm_01_Arm_02"},{"children":[2],"mesh":3,"name":"SM_Prop_Robotic_Needle_Arm_01_Arm_01"},{"children":[3],"mesh":4,"name":"SM_Prop_Robotic_Needle_Arm_01_Base_01"},{"children":[4],"mesh":5,"name":"SM_Prop_Robotic_Needle_Arm_01","rotation":[0.7071068286895752,0,0,0.7071068286895752],"scale":[0.009999999776482582,0.009999999776482582,0.009999999776482582]}],"materials":[{"doubleSided":true,"name":"Base_Lambert","pbrMetallicRoughness":{"baseColorTexture":{"index":2},"metallicFactor":0,"roughnessFactor":0.5527864098548889}}],"meshes":[{"name":"Mesh.005","primitives":[{"attributes":{"POSITION":0,"NORMAL":1,"TEXCOORD_0":2},"indices":3,"material":0}]},{"name":"Mesh.004","primitives":[{"attributes":{"POSITION":4,"NORMAL":5,"TEXCOORD_0":6},"indices":7,"material":0}]},{"name":"Mesh.003","primitives":[{"attributes":{"POSITION":8,"NORMAL":9,"TEXCOORD_0":10},"indices":11,"material":0}]},{"name":"Mesh.002","primitives":[{"attributes":{"POSITION":12,"NORMAL":13,"TEXCOORD_0":14},"indices":15,"material":0}]},{"name":"Mesh.001","primitives":[{"attributes":{"POSITION":16,"NORMAL":17,"TEXCOORD_0":18},"indices":19,"material":0}]},{"name":"Mesh","primitives":[{"attributes":{"POSITION":20,"NORMAL":21,"TEXCOORD_0":22},"indices":23,"material":0}]}],"textures":[{"extensions":{},"sampler":0},{"extensions":{},"sampler":0},{"extensions":{"EXT_texture_webp":{"source":0}},"sampler":0}],"images":[{"mimeType":"image/webp","name":"Wall_05_Emissive","uri":"Wall_05_Emissive.webp"}],"accessors":[{"bufferView":0,"componentType":5126,"count":774,"max":[6.312650203704834,4.711088180541992,-240.54476928710938],"min":[-6.312650680541992,-18.803070068359375,-314.7544860839844],"type":"VEC3"},{"bufferView":1,"componentType":5126,"count":774,"type":"VEC3"},{"bufferView":2,"componentType":5126,"count":774,"type":"VEC2"},{"bufferView":3,"componentType":5123,"count":1260,"type":"SCALAR"},{"bufferView":4,"componentType":5126,"count":1540,"max":[21.061731338500977,15.62226676940918,-185.9690399169922],"min":[-21.061677932739258,-15.622292518615723,-264.9453430175781],"type":"VEC3"},{"bufferView":5,"componentType":5126,"count":1540,"type":"VEC3"},{"bufferView":6,"componentType":5126,"count":1540,"type":"VEC2"},{"bufferView":7,"componentType":5123,"count":2499,"type":"SCALAR"},{"bufferView":8,"componentType":5126,"count":1475,"max":[31.523906707763672,16.753314971923828,-118.98645782470703],"min":[-25.127613067626953,-21.939388275146484,-196.28208923339844],"type":"VEC3"},{"bufferView":9,"componentType":5126,"count":1475,"type":"VEC3"},{"bufferView":10,"componentType":5126,"count":1475,"type":"VEC2"},{"bufferView":11,"componentType":5123,"count":2448,"type":"SCALAR"},{"bufferView":12,"componentType":5126,"count":1244,"max":[26.003549575805664,27.286331176757812,-39.458717346191406],"min":[-26.0035457611084,-22.43592643737793,-131.23690795898438],"type":"VEC3"},{"bufferView":13,"componentType":5126,"count":1244,"type":"VEC3"},{"bufferView":14,"componentType":5126,"count":1244,"type":"VEC2"},{"bufferView":15,"componentType":5123,"count":1998,"type":"SCALAR"},{"bufferView":16,"componentType":5126,"count":338,"max":[20.21360206604004,20.835691452026367,-2.9342575073242188],"min":[-20.21360206604004,-22.895723342895508,-53.095123291015625],"type":"VEC3"},{"bufferView":17,"componentType":5126,"count":338,"type":"VEC3"},{"bufferView":18,"componentType":5126,"count":338,"type":"VEC2"},{"bufferView":19,"componentType":5123,"count":504,"type":"SCALAR"},{"bufferView":20,"componentType":5126,"count":581,"max":[69.82099914550781,66.5094223022461,3.0766472816467285],"min":[-69.82099914550781,-66.5094223022461,-15.822195053100586],"type":"VEC3"},{"bufferView":21,"componentType":5126,"count":581,"type":"VEC3"},{"bufferView":22,"componentType":5126,"count":581,"type":"VEC2"},{"bufferView":23,"componentType":5123,"count":930,"type":"SCALAR"}],"bufferViews":[{"buffer":0,"byteLength":9288,"byteOffset":0,"target":34962},{"buffer":0,"byteLength":9288,"byteOffset":9288,"target":34962},{"buffer":0,"byteLength":6192,"byteOffset":18576,"target":34962},{"buffer":0,"byteLength":2520,"byteOffset":24768,"target":34963},{"buffer":0,"byteLength":18480,"byteOffset":27288,"target":34962},{"buffer":0,"byteLength":18480,"byteOffset":45768,"target":34962},{"buffer":0,"byteLength":12320,"byteOffset":64248,"target":34962},{"buffer":0,"byteLength":4998,"byteOffset":76568,"target":34963},{"buffer":0,"byteLength":17700,"byteOffset":81568,"target":34962},{"buffer":0,"byteLength":17700,"byteOffset":99268,"target":34962},{"buffer":0,"byteLength":11800,"byteOffset":116968,"target":34962},{"buffer":0,"byteLength":4896,"byteOffset":128768,"target":34963},{"buffer":0,"byteLength":14928,"byteOffset":133664,"target":34962},{"buffer":0,"byteLength":14928,"byteOffset":148592,"target":34962},{"buffer":0,"byteLength":9952,"byteOffset":163520,"target":34962},{"buffer":0,"byteLength":3996,"byteOffset":173472,"target":34963},{"buffer":0,"byteLength":4056,"byteOffset":177468,"target":34962},{"buffer":0,"byteLength":4056,"byteOffset":181524,"target":34962},{"buffer":0,"byteLength":2704,"byteOffset":185580,"target":34962},{"buffer":0,"byteLength":1008,"byteOffset":188284,"target":34963},{"buffer":0,"byteLength":6972,"byteOffset":189292,"target":34962},{"buffer":0,"byteLength":6972,"byteOffset":196264,"target":34962},{"buffer":0,"byteLength":4648,"byteOffset":203236,"target":34962},{"buffer":0,"byteLength":1860,"byteOffset":207884,"target":34963}],"samplers":[{"magFilter":9729,"minFilter":9987}],"buffers":[{"byteLength":209744,"uri":"cyber_SM_Prop_Robotic_Needle_Arm_01.bin"}]}