{"asset":{"generator":"Khronos glTF Blender I/O v4.4.55","version":"2.0"},"extensionsUsed":["EXT_texture_webp"],"extensionsRequired":["EXT_texture_webp"],"scene":0,"scenes":[{"name":"Scene","nodes":[1]}],"nodes":[{"mesh":0,"name":"SM_Bld_Pipe_End_Valve"},{"children":[0],"mesh":1,"name":"SM_Bld_Pipe_Small_End_01","rotation":[0.7071068286895752,0,0,0.7071068286895752],"scale":[0.009999999776482582,0.009999999776482582,0.009999999776482582]}],"materials":[{"doubleSided":true,"name":"Base_Lambert13","pbrMetallicRoughness":{"baseColorTexture":{"index":2},"metallicFactor":0,"roughnessFactor":0.5527864098548889}}],"meshes":[{"name":"Mesh.001","primitives":[{"attributes":{"POSITION":0,"NORMAL":1,"TEXCOORD_0":2},"indices":3,"material":0}]},{"name":"Mesh","primitives":[{"attributes":{"POSITION":4,"NORMAL":5,"TEXCOORD_0":6},"indices":7,"material":0}]}],"textures":[{"extensions":{},"sampler":0},{"extensions":{},"sampler":0},{"extensions":{"EXT_texture_webp":{"source":0}},"sampler":0}],"images":[{"mimeType":"image/webp","name":"Wall_05_Emissive","uri":"Wall_05_Emissive.webp"}],"accessors":[{"bufferView":0,"componentType":5126,"count":369,"max":[133.52467346191406,56.09037780761719,34.91035842895508],"min":[65.04105377197266,29.218095779418945,-33.569156646728516],"type":"VEC3"},{"bufferView":1,"componentType":5126,"count":369,"type":"VEC3"},{"bufferView":2,"componentType":5126,"count":369,"type":"VEC2"},{"bufferView":3,"componentType":5123,"count":618,"type":"SCALAR"},{"bufferView":4,"componentType":5126,"count":840,"max":[179.8541259765625,37.307044982910156,29.991817474365234],"min":[0,-88.93081665039062,-29.97954750061035],"type":"VEC3"},{"bufferView":5,"componentType":5126,"count":840,"type":"VEC3"},{"bufferView":6,"componentType":5126,"count":840,"type":"VEC2"},{"bufferView":7,"componentType":5123,"count":1392,"type":"SCALAR"}],"bufferViews":[{"buffer":0,"byteLength":4428,"byteOffset":0,"target":34962},{"buffer":0,"byteLength":4428,"byteOffset":4428,"target":34962},{"buffer":0,"byteLength":2952,"byteOffset":8856,"target":34962},{"buffer":0,"byteLength":1236,"byteOffset":11808,"target":34963},{"buffer":0,"byteLength":10080,"byteOffset":13044,"target":34962},{"buffer":0,"byteLength":10080,"byteOffset":23124,"target":34962},{"buffer":0,"byteLength":6720,"byteOffset":33204,"target":34962},{"buffer":0,"byteLength":2784,"byteOffset":39924,"target":34963}],"samplers":[{"magFilter":9729,"minFilter":9987}],"buffers":[{"byteLength":42708,"uri":"cyber_SM_Bld_Pipe_Small_End_01.bin"}]}