{
	"asset":{
		"generator":"Khronos glTF Blender I/O v4.4.55",
		"version":"2.0"
	},
	"extensionsUsed":[
		"EXT_texture_webp"
	],
	"extensionsRequired":[
		"EXT_texture_webp"
	],
	"scene":0,
	"scenes":[
		{
			"name":"Scene",
			"nodes":[
				1
			]
		}
	],
	"nodes":[
		{
			"mesh":0,
			"name":"SM_Prop_Crate_03_Lid_01"
		},
		{
			"children":[
				0
			],
			"mesh":1,
			"name":"SM_Prop_Crate_03",
			"rotation":[
				0.7071068286895752,
				0,
				0,
				0.7071068286895752
			],
			"scale":[
				0.009999999776482582,
				0.009999999776482582,
				0.009999999776482582
			]
		}
	],
	"materials":[
		{
			"doubleSided":true,
			"name":"lambert15",
			"pbrMetallicRoughness":{
				"baseColorTexture":{
					"index":0
				},
				"metallicFactor":0,
				"roughnessFactor":0.5527864098548889
			}
		}
	],
	"meshes":[
		{
			"name":"Mesh.001",
			"primitives":[
				{
					"attributes":{
						"POSITION":0,
						"NORMAL":1,
						"TEXCOORD_0":2
					},
					"indices":3,
					"material":0
				}
			]
		},
		{
			"name":"Mesh",
			"primitives":[
				{
					"attributes":{
						"POSITION":4,
						"NORMAL":5,
						"TEXCOORD_0":6
					},
					"indices":7,
					"material":0
				}
			]
		}
	],
	"textures":[
		{
			"extensions":{
				"EXT_texture_webp":{
					"source":0
				}
			},
			"sampler":0
		}
	],
	"images":[
		{
			"mimeType":"image/webp",
			"name":"PolygonCyberCity_Texture_01_A",
			"uri":"PolygonCyberCity_Texture_01_A.webp"
		}
	],
	"accessors":[
		{
			"bufferView":0,
			"componentType":5126,
			"count":573,
			"max":[
				48.49052047729492,
				48.49052047729492,
				-83.25825500488281
			],
			"min":[
				-48.490516662597656,
				-48.490516662597656,
				-94.97750854492188
			],
			"type":"VEC3"
		},
		{
			"bufferView":1,
			"componentType":5126,
			"count":573,
			"type":"VEC3"
		},
		{
			"bufferView":2,
			"componentType":5126,
			"count":573,
			"type":"VEC2"
		},
		{
			"bufferView":3,
			"componentType":5123,
			"count":1170,
			"type":"SCALAR"
		},
		{
			"bufferView":4,
			"componentType":5126,
			"count":852,
			"max":[
				48.490516662597656,
				48.490516662597656,
				1.6093254089355469e-06
			],
			"min":[
				-48.490516662597656,
				-48.490516662597656,
				-85.43659973144531
			],
			"type":"VEC3"
		},
		{
			"bufferView":5,
			"componentType":5126,
			"count":852,
			"type":"VEC3"
		},
		{
			"bufferView":6,
			"componentType":5126,
			"count":852,
			"type":"VEC2"
		},
		{
			"bufferView":7,
			"componentType":5123,
			"count":1500,
			"type":"SCALAR"
		}
	],
	"bufferViews":[
		{
			"buffer":0,
			"byteLength":6876,
			"byteOffset":0,
			"target":34962
		},
		{
			"buffer":0,
			"byteLength":6876,
			"byteOffset":6876,
			"target":34962
		},
		{
			"buffer":0,
			"byteLength":4584,
			"byteOffset":13752,
			"target":34962
		},
		{
			"buffer":0,
			"byteLength":2340,
			"byteOffset":18336,
			"target":34963
		},
		{
			"buffer":0,
			"byteLength":10224,
			"byteOffset":20676,
			"target":34962
		},
		{
			"buffer":0,
			"byteLength":10224,
			"byteOffset":30900,
			"target":34962
		},
		{
			"buffer":0,
			"byteLength":6816,
			"byteOffset":41124,
			"target":34962
		},
		{
			"buffer":0,
			"byteLength":3000,
			"byteOffset":47940,
			"target":34963
		}
	],
	"samplers":[
		{
			"magFilter":9729,
			"minFilter":9987
		}
	],
	"buffers":[
		{
			"byteLength":50940,
			"uri":"cyber_SM_Prop_Crate_03.bin"
		}
	]
}
