{"asset":{"generator":"Khronos glTF Blender I/O v4.4.55","version":"2.0"},"extensionsUsed":["EXT_texture_webp"],"extensionsRequired":["EXT_texture_webp"],"scene":0,"scenes":[{"name":"Scene","nodes":[0]}],"nodes":[{"mesh":0,"name":"SM_Prop_Street_Light_13","rotation":[0.7071068286895752,0,0,0.7071068286895752],"scale":[0.009999999776482582,0.009999999776482582,0.009999999776482582]}],"materials":[{"doubleSided":true,"name":"Scifi_Cybercity_Main","pbrMetallicRoughness":{"baseColorTexture":{"index":2},"metallicFactor":0,"roughnessFactor":0.5527864098548889}}],"meshes":[{"name":"Mesh","primitives":[{"attributes":{"POSITION":0,"NORMAL":1,"TEXCOORD_0":2},"indices":3,"material":0}]}],"textures":[{"extensions":{},"sampler":0},{"extensions":{},"sampler":0},{"extensions":{"EXT_texture_webp":{"source":0}},"sampler":0}],"images":[{"mimeType":"image/webp","name":"Wall_05_Emissive","uri":"Wall_05_Emissive.webp"}],"accessors":[{"bufferView":0,"componentType":5126,"count":624,"max":[60.316162109375,17.86911392211914,30.247909545898438],"min":[-60.316162109375,-1.1144077777862549,-30.247909545898438],"type":"VEC3"},{"bufferView":1,"componentType":5126,"count":624,"type":"VEC3"},{"bufferView":2,"componentType":5126,"count":624,"type":"VEC2"},{"bufferView":3,"componentType":5123,"count":1032,"type":"SCALAR"}],"bufferViews":[{"buffer":0,"byteLength":7488,"byteOffset":0,"target":34962},{"buffer":0,"byteLength":7488,"byteOffset":7488,"target":34962},{"buffer":0,"byteLength":4992,"byteOffset":14976,"target":34962},{"buffer":0,"byteLength":2064,"byteOffset":19968,"target":34963}],"samplers":[{"magFilter":9729,"minFilter":9987}],"buffers":[{"byteLength":22032,"uri":"cyber_SM_Prop_Street_Light_13.bin"}]}