{"asset":{"generator":"Khronos glTF Blender I/O v4.4.55","version":"2.0"},"extensionsUsed":["EXT_texture_webp"],"extensionsRequired":["EXT_texture_webp"],"scene":0,"scenes":[{"name":"Scene","nodes":[1]}],"nodes":[{"mesh":0,"name":"SM_Wep_Paint_Gun_01_Trigger_01"},{"children":[0],"mesh":1,"name":"SM_Wep_Paint_Gun_01","rotation":[0.7071068286895752,0,0,0.7071068286895752],"scale":[0.009999999776482582,0.009999999776482582,0.009999999776482582]}],"materials":[{"doubleSided":true,"name":"MAT_01A","pbrMetallicRoughness":{"baseColorTexture":{"index":1},"metallicFactor":0,"roughnessFactor":0.5527864098548889}}],"meshes":[{"name":"Mesh.001","primitives":[{"attributes":{"POSITION":0,"NORMAL":1,"TEXCOORD_0":2},"indices":3,"material":0}]},{"name":"Mesh","primitives":[{"attributes":{"POSITION":4,"NORMAL":5,"TEXCOORD_0":6},"indices":7,"material":0}]}],"textures":[{"extensions":{},"sampler":0},{"extensions":{"EXT_texture_webp":{"source":0}},"sampler":0}],"images":[{"mimeType":"image/webp","name":"PolygonCyberCity_Texture_01_A","uri":"PolygonCyberCity_Texture_01_A.webp"}],"accessors":[{"bufferView":0,"componentType":5126,"count":64,"max":[1.0809751749038696,8.889893531799316,-2.5302352905273438],"min":[-1.1110483407974243,4.522891044616699,-7.15092658996582],"type":"VEC3"},{"bufferView":1,"componentType":5126,"count":64,"type":"VEC3"},{"bufferView":2,"componentType":5126,"count":64,"type":"VEC2"},{"bufferView":3,"componentType":5123,"count":120,"type":"SCALAR"},{"bufferView":4,"componentType":5126,"count":1210,"max":[6.873019695281982,28.873001098632812,17.991374969482422],"min":[-5.836248874664307,-8.291967391967773,-15.14164924621582],"type":"VEC3"},{"bufferView":5,"componentType":5126,"count":1210,"type":"VEC3"},{"bufferView":6,"componentType":5126,"count":1210,"type":"VEC2"},{"bufferView":7,"componentType":5123,"count":1902,"type":"SCALAR"}],"bufferViews":[{"buffer":0,"byteLength":768,"byteOffset":0,"target":34962},{"buffer":0,"byteLength":768,"byteOffset":768,"target":34962},{"buffer":0,"byteLength":512,"byteOffset":1536,"target":34962},{"buffer":0,"byteLength":240,"byteOffset":2048,"target":34963},{"buffer":0,"byteLength":14520,"byteOffset":2288,"target":34962},{"buffer":0,"byteLength":14520,"byteOffset":16808,"target":34962},{"buffer":0,"byteLength":9680,"byteOffset":31328,"target":34962},{"buffer":0,"byteLength":3804,"byteOffset":41008,"target":34963}],"samplers":[{"magFilter":9729,"minFilter":9987}],"buffers":[{"byteLength":44812,"uri":"cyber_SM_Wep_Paint_Gun_01.bin"}]}