{
	"asset":{
		"generator":"Khronos glTF Blender I/O v4.4.55",
		"version":"2.0"
	},
	"extensionsUsed":[
		"EXT_texture_webp"
	],
	"extensionsRequired":[
		"EXT_texture_webp"
	],
	"scene":0,
	"scenes":[
		{
			"name":"Scene",
			"nodes":[
				0
			]
		}
	],
	"nodes":[
		{
			"mesh":0,
			"name":"SM_Prop_Target_Hologram_02",
			"rotation":[
				0.7071068286895752,
				0,
				0,
				0.7071068286895752
			],
			"scale":[
				0.009999999776482582,
				0.009999999776482582,
				0.009999999776482582
			]
		}
	],
	"materials":[
		{
			"doubleSided":true,
			"name":"holotargets",
			"pbrMetallicRoughness":{
				"baseColorTexture":{
					"index":0
				},
				"metallicFactor":0,
				"roughnessFactor":0.5527864098548889
			}
		}
	],
	"meshes":[
		{
			"name":"Mesh",
			"primitives":[
				{
					"attributes":{
						"POSITION":0,
						"NORMAL":1,
						"TEXCOORD_0":2
					},
					"indices":3,
					"material":0
				}
			]
		}
	],
	"textures":[
		{
			"extensions":{
				"EXT_texture_webp":{
					"source":0
				}
			},
			"sampler":0
		}
	],
	"images":[
		{
			"mimeType":"image/webp",
			"name":"PolygonCyberCity_Texture_01_A",
			"uri":"PolygonCyberCity_Texture_01_A.webp"
		}
	],
	"accessors":[
		{
			"bufferView":0,
			"componentType":5126,
			"count":269,
			"max":[
				49.292903900146484,
				0.0010734876850619912,
				1.7295023202896118
			],
			"min":[
				-84.65674591064453,
				-7.1091899371822365e-06,
				-207.0374298095703
			],
			"type":"VEC3"
		},
		{
			"bufferView":1,
			"componentType":5126,
			"count":269,
			"type":"VEC3"
		},
		{
			"bufferView":2,
			"componentType":5126,
			"count":269,
			"type":"VEC2"
		},
		{
			"bufferView":3,
			"componentType":5123,
			"count":870,
			"type":"SCALAR"
		}
	],
	"bufferViews":[
		{
			"buffer":0,
			"byteLength":3228,
			"byteOffset":0,
			"target":34962
		},
		{
			"buffer":0,
			"byteLength":3228,
			"byteOffset":3228,
			"target":34962
		},
		{
			"buffer":0,
			"byteLength":2152,
			"byteOffset":6456,
			"target":34962
		},
		{
			"buffer":0,
			"byteLength":1740,
			"byteOffset":8608,
			"target":34963
		}
	],
	"samplers":[
		{
			"magFilter":9729,
			"minFilter":9987
		}
	],
	"buffers":[
		{
			"byteLength":10348,
			"uri":"cyber_SM_Prop_Target_Hologram_02.bin"
		}
	]
}
