{"asset":{"generator":"Khronos glTF Blender I/O v4.4.55","version":"2.0"},"extensionsUsed":["EXT_texture_webp"],"extensionsRequired":["EXT_texture_webp"],"scene":0,"scenes":[{"name":"Scene","nodes":[0]}],"nodes":[{"mesh":0,"name":"SM_Prop_Hibernation_Pod_Console_01","rotation":[0.7071068286895752,0,0,0.7071068286895752],"scale":[0.009999999776482582,0.009999999776482582,0.009999999776482582]}],"materials":[{"doubleSided":true,"name":"Scifi_Cybercity_Main","pbrMetallicRoughness":{"baseColorTexture":{"index":2},"metallicFactor":0,"roughnessFactor":0.5527864098548889}}],"meshes":[{"name":"Mesh","primitives":[{"attributes":{"POSITION":0,"NORMAL":1,"TEXCOORD_0":2},"indices":3,"material":0}]}],"textures":[{"extensions":{},"sampler":0},{"extensions":{},"sampler":0},{"extensions":{"EXT_texture_webp":{"source":0}},"sampler":0}],"images":[{"mimeType":"image/webp","name":"Wall_05_Emissive","uri":"Wall_05_Emissive.webp"}],"accessors":[{"bufferView":0,"componentType":5126,"count":2048,"max":[86.89849853515625,151.1571807861328,0],"min":[-86.89849853515625,-151.1571807861328,-179.47210693359375],"type":"VEC3"},{"bufferView":1,"componentType":5126,"count":2048,"type":"VEC3"},{"bufferView":2,"componentType":5126,"count":2048,"type":"VEC2"},{"bufferView":3,"componentType":5123,"count":3723,"type":"SCALAR"}],"bufferViews":[{"buffer":0,"byteLength":24576,"byteOffset":0,"target":34962},{"buffer":0,"byteLength":24576,"byteOffset":24576,"target":34962},{"buffer":0,"byteLength":16384,"byteOffset":49152,"target":34962},{"buffer":0,"byteLength":7446,"byteOffset":65536,"target":34963}],"samplers":[{"magFilter":9729,"minFilter":9987}],"buffers":[{"byteLength":72984,"uri":"cyber_SM_Prop_Hibernation_Pod_Console_01.bin"}]}