{"asset":{"generator":"Khronos glTF Blender I/O v4.4.55","version":"2.0"},"extensionsUsed":["EXT_texture_webp"],"extensionsRequired":["EXT_texture_webp"],"scene":0,"scenes":[{"name":"Scene","nodes":[0]}],"nodes":[{"mesh":0,"name":"SM_Prop_Food_Trailer_PowerPole_01","rotation":[0.7071068286895752,0,0,0.7071068286895752],"scale":[0.009999999776482582,0.009999999776482582,0.009999999776482582]}],"materials":[{"doubleSided":true,"name":"Scifi_Cybercity_Main","pbrMetallicRoughness":{"baseColorTexture":{"index":2},"metallicFactor":0,"roughnessFactor":0.5527864098548889}}],"meshes":[{"name":"Mesh","primitives":[{"attributes":{"POSITION":0,"NORMAL":1,"TEXCOORD_0":2},"indices":3,"material":0}]}],"textures":[{"extensions":{},"sampler":0},{"extensions":{},"sampler":0},{"extensions":{"EXT_texture_webp":{"source":0}},"sampler":0}],"images":[{"mimeType":"image/webp","name":"Wall_05_Emissive","uri":"Wall_05_Emissive.webp"}],"accessors":[{"bufferView":0,"componentType":5126,"count":1829,"max":[82.72288513183594,-150.8492889404297,0.45040321350097656],"min":[-84.35934448242188,-481.7493591308594,-640.4619140625],"type":"VEC3"},{"bufferView":1,"componentType":5126,"count":1829,"type":"VEC3"},{"bufferView":2,"componentType":5126,"count":1829,"type":"VEC2"},{"bufferView":3,"componentType":5123,"count":3075,"type":"SCALAR"}],"bufferViews":[{"buffer":0,"byteLength":21948,"byteOffset":0,"target":34962},{"buffer":0,"byteLength":21948,"byteOffset":21948,"target":34962},{"buffer":0,"byteLength":14632,"byteOffset":43896,"target":34962},{"buffer":0,"byteLength":6150,"byteOffset":58528,"target":34963}],"samplers":[{"magFilter":9729,"minFilter":9987}],"buffers":[{"byteLength":64680,"uri":"cyber_SM_Prop_Food_Trailer_PowerPole_01.bin"}]}