{
	"asset":{
		"generator":"Khronos glTF Blender I/O v4.4.55",
		"version":"2.0"
	},
	"extensionsUsed":[
		"EXT_texture_webp"
	],
	"extensionsRequired":[
		"EXT_texture_webp"
	],
	"scene":0,
	"scenes":[
		{
			"name":"Scene",
			"nodes":[
				0
			]
		}
	],
	"nodes":[
		{
			"mesh":0,
			"name":"SM_Prop_Cardboard_Junk_02",
			"rotation":[
				0.7071068286895752,
				0,
				0,
				0.7071068286895752
			],
			"scale":[
				0.009999999776482582,
				0.009999999776482582,
				0.009999999776482582
			]
		}
	],
	"materials":[
		{
			"doubleSided":true,
			"name":"construction_SHD32",
			"pbrMetallicRoughness":{
				"baseColorTexture":{
					"index":0
				},
				"metallicFactor":0,
				"roughnessFactor":0.5527864098548889
			}
		}
	],
	"meshes":[
		{
			"name":"Mesh",
			"primitives":[
				{
					"attributes":{
						"POSITION":0,
						"NORMAL":1,
						"TEXCOORD_0":2
					},
					"indices":3,
					"material":0
				}
			]
		}
	],
	"textures":[
		{
			"extensions":{
				"EXT_texture_webp":{
					"source":0
				}
			},
			"sampler":0
		}
	],
	"images":[
		{
			"mimeType":"image/webp",
			"name":"PolygonCyberCity_Texture_01_A",
			"uri":"PolygonCyberCity_Texture_01_A.webp"
		}
	],
	"accessors":[
		{
			"bufferView":0,
			"componentType":5126,
			"count":1208,
			"max":[
				149.18978881835938,
				152.06558227539062,
				2.353942632675171
			],
			"min":[
				-124.3519287109375,
				-129.80259704589844,
				-12.13703727722168
			],
			"type":"VEC3"
		},
		{
			"bufferView":1,
			"componentType":5126,
			"count":1208,
			"type":"VEC3"
		},
		{
			"bufferView":2,
			"componentType":5126,
			"count":1208,
			"type":"VEC2"
		},
		{
			"bufferView":3,
			"componentType":5123,
			"count":1941,
			"type":"SCALAR"
		}
	],
	"bufferViews":[
		{
			"buffer":0,
			"byteLength":14496,
			"byteOffset":0,
			"target":34962
		},
		{
			"buffer":0,
			"byteLength":14496,
			"byteOffset":14496,
			"target":34962
		},
		{
			"buffer":0,
			"byteLength":9664,
			"byteOffset":28992,
			"target":34962
		},
		{
			"buffer":0,
			"byteLength":3882,
			"byteOffset":38656,
			"target":34963
		}
	],
	"samplers":[
		{
			"magFilter":9729,
			"minFilter":9987
		}
	],
	"buffers":[
		{
			"byteLength":42540,
			"uri":"cyber_SM_Prop_Cardboard_Junk_02.bin"
		}
	]
}
