{"asset":{"generator":"Khronos glTF Blender I/O v4.4.55","version":"2.0"},"extensionsUsed":["EXT_texture_webp"],"extensionsRequired":["EXT_texture_webp"],"scene":0,"scenes":[{"name":"Scene","nodes":[0]}],"nodes":[{"mesh":0,"name":"SM_Bld_Railing_Stairs_01","rotation":[0.7071068286895752,0,0,0.7071068286895752],"scale":[0.009999999776482582,0.009999999776482582,0.009999999776482582]}],"materials":[{"doubleSided":true,"name":"Base_Lambert","pbrMetallicRoughness":{"baseColorTexture":{"index":2},"metallicFactor":0,"roughnessFactor":0.5527864098548889}}],"meshes":[{"name":"Mesh","primitives":[{"attributes":{"POSITION":0,"NORMAL":1,"TEXCOORD_0":2},"indices":3,"material":0}]}],"textures":[{"extensions":{},"sampler":0},{"extensions":{},"sampler":0},{"extensions":{"EXT_texture_webp":{"source":0}},"sampler":0}],"images":[{"mimeType":"image/webp","name":"Wall_05_Emissive","uri":"Wall_05_Emissive.webp"}],"accessors":[{"bufferView":0,"componentType":5126,"count":262,"max":[250,25.30950927734375,34.367095947265625],"min":[-0.0008544921875,-25,-181.27108764648438],"type":"VEC3"},{"bufferView":1,"componentType":5126,"count":262,"type":"VEC3"},{"bufferView":2,"componentType":5126,"count":262,"type":"VEC2"},{"bufferView":3,"componentType":5123,"count":414,"type":"SCALAR"}],"bufferViews":[{"buffer":0,"byteLength":3144,"byteOffset":0,"target":34962},{"buffer":0,"byteLength":3144,"byteOffset":3144,"target":34962},{"buffer":0,"byteLength":2096,"byteOffset":6288,"target":34962},{"buffer":0,"byteLength":828,"byteOffset":8384,"target":34963}],"samplers":[{"magFilter":9729,"minFilter":9987}],"buffers":[{"byteLength":9212,"uri":"cyber_SM_Bld_Railing_Stairs_01.bin"}]}