{
	"asset":{
		"generator":"Khronos glTF Blender I/O v4.4.55",
		"version":"2.0"
	},
	"extensionsUsed":[
		"EXT_texture_webp"
	],
	"extensionsRequired":[
		"EXT_texture_webp"
	],
	"scene":0,
	"scenes":[
		{
			"name":"Scene",
			"nodes":[
				0
			]
		}
	],
	"nodes":[
		{
			"mesh":0,
			"name":"SM_Prop_Cardboard_Box_05",
			"rotation":[
				0.7071068286895752,
				0,
				0,
				0.7071068286895752
			],
			"scale":[
				0.009999999776482582,
				0.009999999776482582,
				0.009999999776482582
			]
		}
	],
	"materials":[
		{
			"doubleSided":true,
			"name":"roboguy_lambert4SG3",
			"pbrMetallicRoughness":{
				"baseColorTexture":{
					"index":0
				},
				"metallicFactor":0,
				"roughnessFactor":0.5527864098548889
			}
		}
	],
	"meshes":[
		{
			"name":"Mesh",
			"primitives":[
				{
					"attributes":{
						"POSITION":0,
						"NORMAL":1,
						"TEXCOORD_0":2,
						"COLOR_0":3,
						"COLOR_1":4
					},
					"indices":5,
					"material":0
				}
			]
		}
	],
	"textures":[
		{
			"extensions":{
				"EXT_texture_webp":{
					"source":0
				}
			},
			"sampler":0
		}
	],
	"images":[
		{
			"mimeType":"image/webp",
			"name":"PolygonCyberCity_Texture_01_A",
			"uri":"PolygonCyberCity_Texture_01_A.webp"
		}
	],
	"accessors":[
		{
			"bufferView":0,
			"componentType":5126,
			"count":3278,
			"max":[
				47.83197021484375,
				56.484039306640625,
				0
			],
			"min":[
				-56.52264404296875,
				-44.829986572265625,
				-69.2118911743164
			],
			"type":"VEC3"
		},
		{
			"bufferView":1,
			"componentType":5126,
			"count":3278,
			"type":"VEC3"
		},
		{
			"bufferView":2,
			"componentType":5126,
			"count":3278,
			"type":"VEC2"
		},
		{
			"bufferView":3,
			"componentType":5121,
			"count":3278,
			"normalized":true,
			"type":"VEC4"
		},
		{
			"bufferView":4,
			"componentType":5123,
			"count":3278,
			"normalized":true,
			"type":"VEC4"
		},
		{
			"bufferView":5,
			"componentType":5123,
			"count":4272,
			"type":"SCALAR"
		}
	],
	"bufferViews":[
		{
			"buffer":0,
			"byteLength":39336,
			"byteOffset":0,
			"target":34962
		},
		{
			"buffer":0,
			"byteLength":39336,
			"byteOffset":39336,
			"target":34962
		},
		{
			"buffer":0,
			"byteLength":26224,
			"byteOffset":78672,
			"target":34962
		},
		{
			"buffer":0,
			"byteLength":13112,
			"byteOffset":104896,
			"target":34962
		},
		{
			"buffer":0,
			"byteLength":26224,
			"byteOffset":118008,
			"target":34962
		},
		{
			"buffer":0,
			"byteLength":8544,
			"byteOffset":144232,
			"target":34963
		}
	],
	"samplers":[
		{
			"magFilter":9729,
			"minFilter":9987
		}
	],
	"buffers":[
		{
			"byteLength":152776,
			"uri":"cyber_SM_Prop_Cardboard_Box_05.bin"
		}
	]
}
