{"asset":{"generator":"Khronos glTF Blender I/O v4.4.55","version":"2.0"},"extensionsUsed":["EXT_texture_webp"],"extensionsRequired":["EXT_texture_webp"],"scene":0,"scenes":[{"name":"Scene","nodes":[12]}],"nodes":[{"mesh":0,"name":"SM_Veh_Truck_01_Door_L_Glass_01"},{"children":[0],"mesh":1,"name":"SM_Veh_Truck_01_Door_L_01"},{"mesh":2,"name":"SM_Veh_Truck_01_Door_R_Glass_01"},{"children":[2],"mesh":3,"name":"SM_Veh_Truck_01_Door_R_01"},{"mesh":4,"name":"SM_Veh_Truck_01_Glass_01"},{"mesh":5,"name":"SM_Veh_Truck_01_Steering_Wheel_01","rotation":[0.36409974098205566,0,0,0.9313599467277527],"translation":[0,1.5258788153005298e-05,3.0517578125e-05]},{"mesh":6,"name":"SM_Veh_Truck_01_Wheel_Back_L_01"},{"mesh":7,"name":"SM_Veh_Truck_01_Wheel_Back_R_01"},{"mesh":8,"name":"SM_Veh_Truck_01_Wheel_Front_L_01"},{"mesh":9,"name":"SM_Veh_Truck_01_Wheel_Front_R_01"},{"mesh":10,"name":"SM_Veh_Truck_01_Wheel_Mid_L_01"},{"mesh":11,"name":"SM_Veh_Truck_01_Wheel_Mid_R_01"},{"children":[1,3,4,5,6,7,8,9,10,11],"mesh":12,"name":"SM_Veh_Truck_01","rotation":[0.7071068286895752,0,0,0.7071068286895752],"scale":[0.009999999776482582,0.009999999776482582,0.009999999776482582]}],"materials":[{"alphaMode":"MASK","doubleSided":true,"name":"lambert974","pbrMetallicRoughness":{"baseColorFactor":[1,1,1,0.4047619104385376],"baseColorTexture":{"index":1},"metallicFactor":0,"roughnessFactor":0.5527864098548889},"alphaCutoff":0.5},{"doubleSided":true,"name":"Scifi_Cybercity_Main","pbrMetallicRoughness":{"baseColorTexture":{"index":4},"metallicFactor":0,"roughnessFactor":0.5527864098548889}}],"meshes":[{"name":"Mesh.005","primitives":[{"attributes":{"POSITION":0,"NORMAL":1,"TEXCOORD_0":2},"indices":3,"material":0}]},{"name":"Mesh.004","primitives":[{"attributes":{"POSITION":4,"NORMAL":5,"TEXCOORD_0":6},"indices":7,"material":1}]},{"name":"Mesh.003","primitives":[{"attributes":{"POSITION":8,"NORMAL":9,"TEXCOORD_0":10},"indices":11,"material":0}]},{"name":"Mesh.002","primitives":[{"attributes":{"POSITION":12,"NORMAL":13,"TEXCOORD_0":14},"indices":15,"material":1}]},{"name":"Mesh.001","primitives":[{"attributes":{"POSITION":16,"NORMAL":17,"TEXCOORD_0":18},"indices":19,"material":0}]},{"name":"Mesh.012","primitives":[{"attributes":{"POSITION":20,"NORMAL":21,"TEXCOORD_0":22},"indices":23,"material":1}]},{"name":"Mesh.008","primitives":[{"attributes":{"POSITION":24,"NORMAL":25,"TEXCOORD_0":26},"indices":27,"material":1}]},{"name":"Mesh.009","primitives":[{"attributes":{"POSITION":28,"NORMAL":29,"TEXCOORD_0":30},"indices":31,"material":1}]},{"name":"Mesh.006","primitives":[{"attributes":{"POSITION":32,"NORMAL":33,"TEXCOORD_0":34},"indices":35,"material":1}]},{"name":"Mesh.011","primitives":[{"attributes":{"POSITION":36,"NORMAL":37,"TEXCOORD_0":38},"indices":39,"material":1}]},{"name":"Mesh.007","primitives":[{"attributes":{"POSITION":40,"NORMAL":41,"TEXCOORD_0":42},"indices":43,"material":1}]},{"name":"Mesh.010","primitives":[{"attributes":{"POSITION":44,"NORMAL":45,"TEXCOORD_0":46},"indices":31,"material":1}]},{"name":"Mesh","primitives":[{"attributes":{"POSITION":47,"NORMAL":48,"TEXCOORD_0":49},"indices":50,"material":1}]}],"textures":[{"extensions":{},"sampler":0},{"extensions":{"EXT_texture_webp":{"source":0}},"sampler":0},{"extensions":{},"sampler":0},{"extensions":{},"sampler":0},{"extensions":{"EXT_texture_webp":{"source":0}},"sampler":0}],"images":[{"mimeType":"image/webp","name":"Wall_05_Emissive","uri":"Wall_05_Emissive.webp"}],"accessors":[{"bufferView":0,"componentType":5126,"count":12,"max":[134.88442993164062,492.7333679199219,-237.86685180664062],"min":[125.75519561767578,348.76739501953125,-331.6348876953125],"type":"VEC3"},{"bufferView":1,"componentType":5126,"count":12,"type":"VEC3"},{"bufferView":2,"componentType":5126,"count":12,"type":"VEC2"},{"bufferView":3,"componentType":5123,"count":24,"type":"SCALAR"},{"bufferView":4,"componentType":5126,"count":710,"max":[177.86524963378906,499.3787841796875,-173.3764190673828],"min":[121.11060333251953,334.836669921875,-340.4736022949219],"type":"VEC3"},{"bufferView":5,"componentType":5126,"count":710,"type":"VEC3"},{"bufferView":6,"componentType":5126,"count":710,"type":"VEC2"},{"bufferView":7,"componentType":5123,"count":1116,"type":"SCALAR"},{"bufferView":8,"componentType":5126,"count":12,"max":[-126.57208251953125,492.7333679199219,-238.32345581054688],"min":[-136.1710205078125,348.76739501953125,-332.402099609375],"type":"VEC3"},{"bufferView":9,"componentType":5126,"count":12,"type":"VEC3"},{"bufferView":10,"componentType":5126,"count":12,"type":"VEC2"},{"bufferView":11,"componentType":5123,"count":24,"type":"SCALAR"},{"bufferView":12,"componentType":5126,"count":704,"max":[-121.11060333251953,499.3787841796875,-173.3764190673828],"min":[-177.8653564453125,334.836669921875,-340.4736022949219],"type":"VEC3"},{"bufferView":13,"componentType":5126,"count":704,"type":"VEC3"},{"bufferView":14,"componentType":5126,"count":704,"type":"VEC2"},{"bufferView":15,"componentType":5123,"count":1116,"type":"SCALAR"},{"bufferView":16,"componentType":5126,"count":8,"max":[97.60734558105469,524.1546020507812,-247.90682983398438],"min":[-97.60734558105469,465.5456848144531,-333.0157470703125],"type":"VEC3"},{"bufferView":17,"componentType":5126,"count":8,"type":"VEC3"},{"bufferView":18,"componentType":5126,"count":8,"type":"VEC2"},{"bufferView":19,"componentType":5123,"count":12,"type":"SCALAR"},{"bufferView":20,"componentType":5126,"count":406,"max":[96.05606079101562,182.320068359375,-449.91046142578125],"min":[27.883010864257812,153.35906982421875,-518.08349609375],"type":"VEC3"},{"bufferView":21,"componentType":5126,"count":406,"type":"VEC3"},{"bufferView":22,"componentType":5126,"count":406,"type":"VEC2"},{"bufferView":23,"componentType":5123,"count":894,"type":"SCALAR"},{"bufferView":24,"componentType":5126,"count":817,"max":[147.84645080566406,-238.27859497070312,-4.006146430969238],"min":[110.52692413330078,-355.76275634765625,-121.49027252197266],"type":"VEC3"},{"bufferView":25,"componentType":5126,"count":817,"type":"VEC3"},{"bufferView":26,"componentType":5126,"count":817,"type":"VEC2"},{"bufferView":27,"componentType":5123,"count":1260,"type":"SCALAR"},{"bufferView":28,"componentType":5126,"count":817,"max":[-117.18936157226562,-238.2784881591797,-4.006121635437012],"min":[-154.50889587402344,-355.76263427734375,-121.49019622802734],"type":"VEC3"},{"bufferView":29,"componentType":5126,"count":817,"type":"VEC3"},{"bufferView":30,"componentType":5126,"count":817,"type":"VEC2"},{"bufferView":31,"componentType":5123,"count":1260,"type":"SCALAR"},{"bufferView":32,"componentType":5126,"count":817,"max":[147.84645080566406,298.0256042480469,-4.006146430969238],"min":[110.52692413330078,180.54147338867188,-121.49027252197266],"type":"VEC3"},{"bufferView":33,"componentType":5126,"count":817,"type":"VEC3"},{"bufferView":34,"componentType":5126,"count":817,"type":"VEC2"},{"bufferView":35,"componentType":5123,"count":1260,"type":"SCALAR"},{"bufferView":36,"componentType":5126,"count":817,"max":[-117.18936157226562,296.83734130859375,-4.006121635437012],"min":[-154.50889587402344,179.3531951904297,-121.49019622802734],"type":"VEC3"},{"bufferView":37,"componentType":5126,"count":817,"type":"VEC3"},{"bufferView":38,"componentType":5126,"count":817,"type":"VEC2"},{"bufferView":39,"componentType":5123,"count":1260,"type":"SCALAR"},{"bufferView":40,"componentType":5126,"count":817,"max":[147.84645080566406,-73.88282775878906,-4.006146430969238],"min":[110.52692413330078,-191.36695861816406,-121.49027252197266],"type":"VEC3"},{"bufferView":41,"componentType":5126,"count":817,"type":"VEC3"},{"bufferView":42,"componentType":5126,"count":817,"type":"VEC2"},{"bufferView":43,"componentType":5123,"count":1260,"type":"SCALAR"},{"bufferView":44,"componentType":5126,"count":817,"max":[-117.18936157226562,-72.10103607177734,-4.006121635437012],"min":[-154.50889587402344,-189.58518981933594,-121.49019622802734],"type":"VEC3"},{"bufferView":45,"componentType":5126,"count":817,"type":"VEC3"},{"bufferView":46,"componentType":5126,"count":817,"type":"VEC2"},{"bufferView":47,"componentType":5126,"count":11953,"max":[171.75631713867188,539.7921752929688,-19.888521194458008],"min":[-174.99417114257812,-405.71221923828125,-382.78302001953125],"type":"VEC3"},{"bufferView":48,"componentType":5126,"count":11953,"type":"VEC3"},{"bufferView":49,"componentType":5126,"count":11953,"type":"VEC2"},{"bufferView":50,"componentType":5123,"count":19140,"type":"SCALAR"}],"bufferViews":[{"buffer":0,"byteLength":144,"byteOffset":0,"target":34962},{"buffer":0,"byteLength":144,"byteOffset":144,"target":34962},{"buffer":0,"byteLength":96,"byteOffset":288,"target":34962},{"buffer":0,"byteLength":48,"byteOffset":384,"target":34963},{"buffer":0,"byteLength":8520,"byteOffset":432,"target":34962},{"buffer":0,"byteLength":8520,"byteOffset":8952,"target":34962},{"buffer":0,"byteLength":5680,"byteOffset":17472,"target":34962},{"buffer":0,"byteLength":2232,"byteOffset":23152,"target":34963},{"buffer":0,"byteLength":144,"byteOffset":25384,"target":34962},{"buffer":0,"byteLength":144,"byteOffset":25528,"target":34962},{"buffer":0,"byteLength":96,"byteOffset":25672,"target":34962},{"buffer":0,"byteLength":48,"byteOffset":25768,"target":34963},{"buffer":0,"byteLength":8448,"byteOffset":25816,"target":34962},{"buffer":0,"byteLength":8448,"byteOffset":34264,"target":34962},{"buffer":0,"byteLength":5632,"byteOffset":42712,"target":34962},{"buffer":0,"byteLength":2232,"byteOffset":48344,"target":34963},{"buffer":0,"byteLength":96,"byteOffset":50576,"target":34962},{"buffer":0,"byteLength":96,"byteOffset":50672,"target":34962},{"buffer":0,"byteLength":64,"byteOffset":50768,"target":34962},{"buffer":0,"byteLength":24,"byteOffset":50832,"target":34963},{"buffer":0,"byteLength":4872,"byteOffset":50856,"target":34962},{"buffer":0,"byteLength":4872,"byteOffset":55728,"target":34962},{"buffer":0,"byteLength":3248,"byteOffset":60600,"target":34962},{"buffer":0,"byteLength":1788,"byteOffset":63848,"target":34963},{"buffer":0,"byteLength":9804,"byteOffset":65636,"target":34962},{"buffer":0,"byteLength":9804,"byteOffset":75440,"target":34962},{"buffer":0,"byteLength":6536,"byteOffset":85244,"target":34962},{"buffer":0,"byteLength":2520,"byteOffset":91780,"target":34963},{"buffer":0,"byteLength":9804,"byteOffset":94300,"target":34962},{"buffer":0,"byteLength":9804,"byteOffset":104104,"target":34962},{"buffer":0,"byteLength":6536,"byteOffset":113908,"target":34962},{"buffer":0,"byteLength":2520,"byteOffset":120444,"target":34963},{"buffer":0,"byteLength":9804,"byteOffset":122964,"target":34962},{"buffer":0,"byteLength":9804,"byteOffset":132768,"target":34962},{"buffer":0,"byteLength":6536,"byteOffset":142572,"target":34962},{"buffer":0,"byteLength":2520,"byteOffset":149108,"target":34963},{"buffer":0,"byteLength":9804,"byteOffset":151628,"target":34962},{"buffer":0,"byteLength":9804,"byteOffset":161432,"target":34962},{"buffer":0,"byteLength":6536,"byteOffset":171236,"target":34962},{"buffer":0,"byteLength":2520,"byteOffset":177772,"target":34963},{"buffer":0,"byteLength":9804,"byteOffset":180292,"target":34962},{"buffer":0,"byteLength":9804,"byteOffset":190096,"target":34962},{"buffer":0,"byteLength":6536,"byteOffset":199900,"target":34962},{"buffer":0,"byteLength":2520,"byteOffset":206436,"target":34963},{"buffer":0,"byteLength":9804,"byteOffset":208956,"target":34962},{"buffer":0,"byteLength":9804,"byteOffset":218760,"target":34962},{"buffer":0,"byteLength":6536,"byteOffset":228564,"target":34962},{"buffer":0,"byteLength":143436,"byteOffset":235100,"target":34962},{"buffer":0,"byteLength":143436,"byteOffset":378536,"target":34962},{"buffer":0,"byteLength":95624,"byteOffset":521972,"target":34962},{"buffer":0,"byteLength":38280,"byteOffset":617596,"target":34963}],"samplers":[{"magFilter":9729,"minFilter":9987}],"buffers":[{"byteLength":655876,"uri":"cyber_SM_Veh_Truck_01.bin"}]}