{
	"asset":{
		"generator":"Khronos glTF Blender I/O v4.4.55",
		"version":"2.0"
	},
	"extensionsUsed":[
		"EXT_texture_webp"
	],
	"extensionsRequired":[
		"EXT_texture_webp"
	],
	"scene":0,
	"scenes":[
		{
			"name":"Scene",
			"nodes":[
				1
			]
		}
	],
	"nodes":[
		{
			"mesh":0,
			"name":"SM_Prop_Canopy_05_Fabric_01"
		},
		{
			"children":[
				0
			],
			"mesh":1,
			"name":"SM_Prop_Canopy_05",
			"rotation":[
				0.7071068286895752,
				0,
				0,
				0.7071068286895752
			],
			"scale":[
				0.009999999776482582,
				0.009999999776482582,
				0.009999999776482582
			]
		}
	],
	"materials":[
		{
			"doubleSided":true,
			"name":"lambert5",
			"pbrMetallicRoughness":{
				"baseColorTexture":{
					"index":0
				},
				"metallicFactor":0,
				"roughnessFactor":0.5527864098548889
			}
		}
	],
	"meshes":[
		{
			"name":"Mesh.001",
			"primitives":[
				{
					"attributes":{
						"POSITION":0,
						"NORMAL":1,
						"TEXCOORD_0":2
					},
					"indices":3,
					"material":0
				}
			]
		},
		{
			"name":"Mesh",
			"primitives":[
				{
					"attributes":{
						"POSITION":4,
						"NORMAL":5,
						"TEXCOORD_0":6
					},
					"indices":7,
					"material":0
				}
			]
		}
	],
	"textures":[
		{
			"extensions":{
				"EXT_texture_webp":{
					"source":0
				}
			},
			"sampler":0
		}
	],
	"images":[
		{
			"mimeType":"image/webp",
			"name":"PolygonCyberCity_Texture_01_A",
			"uri":"PolygonCyberCity_Texture_01_A.webp"
		}
	],
	"accessors":[
		{
			"bufferView":0,
			"componentType":5126,
			"count":214,
			"max":[
				355.572509765625,
				239.7718048095703,
				29.773048400878906
			],
			"min":[
				-356.4453430175781,
				-236.40284729003906,
				-101.77413940429688
			],
			"type":"VEC3"
		},
		{
			"bufferView":1,
			"componentType":5126,
			"count":214,
			"type":"VEC3"
		},
		{
			"bufferView":2,
			"componentType":5126,
			"count":214,
			"type":"VEC2"
		},
		{
			"bufferView":3,
			"componentType":5123,
			"count":216,
			"type":"SCALAR"
		},
		{
			"bufferView":4,
			"componentType":5126,
			"count":954,
			"max":[
				413.0400085449219,
				269.28851318359375,
				32.26315689086914
			],
			"min":[
				-413.0400085449219,
				-281.8327941894531,
				-104.46121215820312
			],
			"type":"VEC3"
		},
		{
			"bufferView":5,
			"componentType":5126,
			"count":954,
			"type":"VEC3"
		},
		{
			"bufferView":6,
			"componentType":5126,
			"count":954,
			"type":"VEC2"
		},
		{
			"bufferView":7,
			"componentType":5123,
			"count":1770,
			"type":"SCALAR"
		}
	],
	"bufferViews":[
		{
			"buffer":0,
			"byteLength":2568,
			"byteOffset":0,
			"target":34962
		},
		{
			"buffer":0,
			"byteLength":2568,
			"byteOffset":2568,
			"target":34962
		},
		{
			"buffer":0,
			"byteLength":1712,
			"byteOffset":5136,
			"target":34962
		},
		{
			"buffer":0,
			"byteLength":432,
			"byteOffset":6848,
			"target":34963
		},
		{
			"buffer":0,
			"byteLength":11448,
			"byteOffset":7280,
			"target":34962
		},
		{
			"buffer":0,
			"byteLength":11448,
			"byteOffset":18728,
			"target":34962
		},
		{
			"buffer":0,
			"byteLength":7632,
			"byteOffset":30176,
			"target":34962
		},
		{
			"buffer":0,
			"byteLength":3540,
			"byteOffset":37808,
			"target":34963
		}
	],
	"samplers":[
		{
			"magFilter":9729,
			"minFilter":9987
		}
	],
	"buffers":[
		{
			"byteLength":41348,
			"uri":"cyber_SM_Prop_Canopy_05.bin"
		}
	]
}
