{"asset":{"generator":"Khronos glTF Blender I/O v4.4.55","version":"2.0"},"extensionsUsed":["EXT_texture_webp"],"extensionsRequired":["EXT_texture_webp"],"scene":0,"scenes":[{"name":"Scene","nodes":[1]}],"nodes":[{"mesh":0,"name":"SM_Bld_Wall_Window_04_Glass_01"},{"children":[0],"mesh":1,"name":"SM_Bld_Wall_Window_04","rotation":[0.7071068286895752,0,0,0.7071068286895752],"scale":[0.009999999776482582,0.009999999776482582,0.009999999776482582]}],"materials":[{"alphaMode":"MASK","doubleSided":true,"name":"Glass_MAT4","pbrMetallicRoughness":{"baseColorFactor":[1,1,1,0.15662652254104614],"baseColorTexture":{"index":0},"metallicFactor":0,"roughnessFactor":0.5527864098548889},"alphaCutoff":0.5},{"doubleSided":true,"name":"SciFi_Planets_SHD22","pbrMetallicRoughness":{"baseColorTexture":{"index":1},"metallicFactor":0,"roughnessFactor":0.5527864098548889}},{"doubleSided":true,"name":"A_Wall44","pbrMetallicRoughness":{"baseColorTexture":{"index":2},"metallicFactor":0,"roughnessFactor":0.5527864098548889}},{"doubleSided":true,"name":"lambert2","pbrMetallicRoughness":{"baseColorTexture":{"index":3},"metallicFactor":0,"roughnessFactor":0.5527864098548889}}],"meshes":[{"name":"Mesh.001","primitives":[{"attributes":{"POSITION":0,"NORMAL":1,"TEXCOORD_0":2},"indices":3,"material":0}]},{"name":"Mesh","primitives":[{"attributes":{"POSITION":4,"NORMAL":5,"TEXCOORD_0":6},"indices":7,"material":1},{"attributes":{"POSITION":8,"NORMAL":9,"TEXCOORD_0":10},"indices":11,"material":2},{"attributes":{"POSITION":12,"NORMAL":13,"TEXCOORD_0":14},"indices":15,"material":3}]}],"textures":[{"extensions":{"EXT_texture_webp":{"source":0}},"sampler":0},{"extensions":{"EXT_texture_webp":{"source":0}},"sampler":0},{"extensions":{"EXT_texture_webp":{"source":0}},"sampler":0},{"extensions":{"EXT_texture_webp":{"source":0}},"sampler":0}],"images":[{"mimeType":"image/webp","name":"PolygonCyberCity_Texture_01_A","uri":"PolygonCyberCity_Texture_01_A.webp"}],"accessors":[{"bufferView":0,"componentType":5126,"count":36,"max":[209.24551391601562,17.513778686523438,-73.64898681640625],"min":[40.75358581542969,-17.513778686523438,-237.22434997558594],"type":"VEC3"},{"bufferView":1,"componentType":5126,"count":36,"type":"VEC3"},{"bufferView":2,"componentType":5126,"count":36,"type":"VEC2"},{"bufferView":3,"componentType":5123,"count":96,"type":"SCALAR"},{"bufferView":4,"componentType":5126,"count":818,"max":[223.11903381347656,26.16541290283203,-64.86328125],"min":[26.880111694335938,-26.16541290283203,-246.010009765625],"type":"VEC3"},{"bufferView":5,"componentType":5126,"count":818,"type":"VEC3"},{"bufferView":6,"componentType":5126,"count":818,"type":"VEC2"},{"bufferView":7,"componentType":5123,"count":1554,"type":"SCALAR"},{"bufferView":8,"componentType":5126,"count":63,"max":[249.9991455078125,11.25,0],"min":[0,0,-300.57427978515625],"type":"VEC3"},{"bufferView":9,"componentType":5126,"count":63,"type":"VEC3"},{"bufferView":10,"componentType":5126,"count":63,"type":"VEC2"},{"bufferView":11,"componentType":5123,"count":165,"type":"SCALAR"},{"bufferView":12,"componentType":5126,"count":63,"max":[249.9991455078125,0,0],"min":[0,-11.25,-300.57427978515625],"type":"VEC3"},{"bufferView":13,"componentType":5126,"count":63,"type":"VEC3"},{"bufferView":14,"componentType":5126,"count":63,"type":"VEC2"},{"bufferView":15,"componentType":5123,"count":165,"type":"SCALAR"}],"bufferViews":[{"buffer":0,"byteLength":432,"byteOffset":0,"target":34962},{"buffer":0,"byteLength":432,"byteOffset":432,"target":34962},{"buffer":0,"byteLength":288,"byteOffset":864,"target":34962},{"buffer":0,"byteLength":192,"byteOffset":1152,"target":34963},{"buffer":0,"byteLength":9816,"byteOffset":1344,"target":34962},{"buffer":0,"byteLength":9816,"byteOffset":11160,"target":34962},{"buffer":0,"byteLength":6544,"byteOffset":20976,"target":34962},{"buffer":0,"byteLength":3108,"byteOffset":27520,"target":34963},{"buffer":0,"byteLength":756,"byteOffset":30628,"target":34962},{"buffer":0,"byteLength":756,"byteOffset":31384,"target":34962},{"buffer":0,"byteLength":504,"byteOffset":32140,"target":34962},{"buffer":0,"byteLength":330,"byteOffset":32644,"target":34963},{"buffer":0,"byteLength":756,"byteOffset":32976,"target":34962},{"buffer":0,"byteLength":756,"byteOffset":33732,"target":34962},{"buffer":0,"byteLength":504,"byteOffset":34488,"target":34962},{"buffer":0,"byteLength":330,"byteOffset":34992,"target":34963}],"samplers":[{"magFilter":9729,"minFilter":9987}],"buffers":[{"byteLength":35324,"uri":"cyber_SM_Bld_Wall_Window_04.bin"}]}