{"asset":{"generator":"Khronos glTF Blender I/O v4.4.55","version":"2.0"},"extensionsUsed":["EXT_texture_webp"],"extensionsRequired":["EXT_texture_webp"],"scene":0,"scenes":[{"name":"Scene","nodes":[0]}],"nodes":[{"mesh":0,"name":"FX_Scrap_02","rotation":[0.7071068286895752,0,0,0.7071068286895752],"scale":[0.009999999776482582,0.009999999776482582,0.009999999776482582]}],"materials":[{"doubleSided":true,"name":"SciFi_Planets_SHD","pbrMetallicRoughness":{"baseColorTexture":{"index":1},"metallicFactor":0,"roughnessFactor":0.5527864098548889}}],"meshes":[{"name":"Mesh","primitives":[{"attributes":{"POSITION":0,"NORMAL":1,"TEXCOORD_0":2},"indices":3,"material":0}]}],"textures":[{"extensions":{},"sampler":0},{"extensions":{"EXT_texture_webp":{"source":0}},"sampler":0}],"images":[{"mimeType":"image/webp","name":"PolygonCyberCity_Texture_01_A","uri":"PolygonCyberCity_Texture_01_A.webp"}],"accessors":[{"bufferView":0,"componentType":5126,"count":86,"max":[249.01124572753906,96.5537109375,30.105960845947266],"min":[-240.6883087158203,-76.3056640625,-51.62028121948242],"type":"VEC3"},{"bufferView":1,"componentType":5126,"count":86,"type":"VEC3"},{"bufferView":2,"componentType":5126,"count":86,"type":"VEC2"},{"bufferView":3,"componentType":5123,"count":120,"type":"SCALAR"}],"bufferViews":[{"buffer":0,"byteLength":1032,"byteOffset":0,"target":34962},{"buffer":0,"byteLength":1032,"byteOffset":1032,"target":34962},{"buffer":0,"byteLength":688,"byteOffset":2064,"target":34962},{"buffer":0,"byteLength":240,"byteOffset":2752,"target":34963}],"samplers":[{"magFilter":9729,"minFilter":9987}],"buffers":[{"byteLength":2992,"uri":"cyber_SM_FX_Scrap_02.bin"}]}