{"asset":{"generator":"Khronos glTF Blender I/O v4.4.55","version":"2.0"},"extensionsUsed":["EXT_texture_webp"],"extensionsRequired":["EXT_texture_webp"],"scene":0,"scenes":[{"name":"Scene","nodes":[4]}],"nodes":[{"mesh":0,"name":"SM_Veh_Truck_01_Module_01_Bench_01"},{"mesh":1,"name":"SM_Veh_Truck_01_Module_01_Door_Bottom_01"},{"mesh":2,"name":"SM_Veh_Truck_01_Module_01_Door_Top_01"},{"mesh":3,"name":"SM_Veh_Truck_01_Module_01_Screen_01"},{"children":[0,1,2,3],"mesh":4,"name":"SM_Veh_Truck_01_Module_01","rotation":[0.7071068286895752,0,0,0.7071068286895752],"scale":[0.009999999776482582,0.009999999776482582,0.009999999776482582]}],"materials":[{"doubleSided":true,"name":"Scifi_Cybercity_Main","pbrMetallicRoughness":{"baseColorTexture":{"index":2},"metallicFactor":0,"roughnessFactor":0.5527864098548889}}],"meshes":[{"name":"Mesh.003","primitives":[{"attributes":{"POSITION":0,"NORMAL":1,"TEXCOORD_0":2},"indices":3,"material":0}]},{"name":"Mesh.002","primitives":[{"attributes":{"POSITION":4,"NORMAL":5,"TEXCOORD_0":6},"indices":7,"material":0}]},{"name":"Mesh.001","primitives":[{"attributes":{"POSITION":8,"NORMAL":9,"TEXCOORD_0":10},"indices":11,"material":0}]},{"name":"Mesh.004","primitives":[{"attributes":{"POSITION":12,"NORMAL":13,"TEXCOORD_0":14},"indices":15,"material":0}]},{"name":"Mesh","primitives":[{"attributes":{"POSITION":16,"NORMAL":17,"TEXCOORD_0":18},"indices":19,"material":0}]}],"textures":[{"extensions":{},"sampler":0},{"extensions":{},"sampler":0},{"extensions":{"EXT_texture_webp":{"source":0}},"sampler":0}],"images":[{"mimeType":"image/webp","name":"Wall_05_Emissive","uri":"Wall_05_Emissive.webp"}],"accessors":[{"bufferView":0,"componentType":5126,"count":163,"max":[81.33153533935547,119.4897232055664,-161.58465576171875],"min":[31.946720123291016,-331.9337158203125,-205.92803955078125],"type":"VEC3"},{"bufferView":1,"componentType":5126,"count":163,"type":"VEC3"},{"bufferView":2,"componentType":5126,"count":163,"type":"VEC2"},{"bufferView":3,"componentType":5123,"count":240,"type":"SCALAR"},{"bufferView":4,"componentType":5126,"count":272,"max":[86.63206481933594,-347.27911376953125,-152.2480010986328],"min":[-86.63206481933594,-424.779296875,-248.37939453125],"type":"VEC3"},{"bufferView":5,"componentType":5126,"count":272,"type":"VEC3"},{"bufferView":6,"componentType":5126,"count":272,"type":"VEC2"},{"bufferView":7,"componentType":5123,"count":408,"type":"SCALAR"},{"bufferView":8,"componentType":5126,"count":338,"max":[86.63206481933594,-411.5960388183594,-248.28994750976562],"min":[-86.63206481933594,-437.52142333984375,-357.998046875],"type":"VEC3"},{"bufferView":9,"componentType":5126,"count":338,"type":"VEC3"},{"bufferView":10,"componentType":5126,"count":338,"type":"VEC2"},{"bufferView":11,"componentType":5123,"count":534,"type":"SCALAR"},{"bufferView":12,"componentType":5126,"count":175,"max":[-5.783573150634766,80.58037567138672,-291.09954833984375],"min":[-72.68455505371094,14.191139221191406,-333.65948486328125],"type":"VEC3"},{"bufferView":13,"componentType":5126,"count":175,"type":"VEC3"},{"bufferView":14,"componentType":5126,"count":175,"type":"VEC2"},{"bufferView":15,"componentType":5123,"count":282,"type":"SCALAR"},{"bufferView":16,"componentType":5126,"count":8644,"max":[155.81028747558594,264.95263671875,-124.69100952148438],"min":[-150.89837646484375,-443.46630859375,-529.7534790039062],"type":"VEC3"},{"bufferView":17,"componentType":5126,"count":8644,"type":"VEC3"},{"bufferView":18,"componentType":5126,"count":8644,"type":"VEC2"},{"bufferView":19,"componentType":5123,"count":13890,"type":"SCALAR"}],"bufferViews":[{"buffer":0,"byteLength":1956,"byteOffset":0,"target":34962},{"buffer":0,"byteLength":1956,"byteOffset":1956,"target":34962},{"buffer":0,"byteLength":1304,"byteOffset":3912,"target":34962},{"buffer":0,"byteLength":480,"byteOffset":5216,"target":34963},{"buffer":0,"byteLength":3264,"byteOffset":5696,"target":34962},{"buffer":0,"byteLength":3264,"byteOffset":8960,"target":34962},{"buffer":0,"byteLength":2176,"byteOffset":12224,"target":34962},{"buffer":0,"byteLength":816,"byteOffset":14400,"target":34963},{"buffer":0,"byteLength":4056,"byteOffset":15216,"target":34962},{"buffer":0,"byteLength":4056,"byteOffset":19272,"target":34962},{"buffer":0,"byteLength":2704,"byteOffset":23328,"target":34962},{"buffer":0,"byteLength":1068,"byteOffset":26032,"target":34963},{"buffer":0,"byteLength":2100,"byteOffset":27100,"target":34962},{"buffer":0,"byteLength":2100,"byteOffset":29200,"target":34962},{"buffer":0,"byteLength":1400,"byteOffset":31300,"target":34962},{"buffer":0,"byteLength":564,"byteOffset":32700,"target":34963},{"buffer":0,"byteLength":103728,"byteOffset":33264,"target":34962},{"buffer":0,"byteLength":103728,"byteOffset":136992,"target":34962},{"buffer":0,"byteLength":69152,"byteOffset":240720,"target":34962},{"buffer":0,"byteLength":27780,"byteOffset":309872,"target":34963}],"samplers":[{"magFilter":9729,"minFilter":9987}],"buffers":[{"byteLength":337652,"uri":"cyber_SM_Veh_Truck_01_Module_01.bin"}]}