{"asset":{"generator":"Khronos glTF Blender I/O v4.4.55","version":"2.0"},"extensionsUsed":["EXT_texture_webp"],"extensionsRequired":["EXT_texture_webp"],"scene":0,"scenes":[{"name":"Scene","nodes":[0]}],"nodes":[{"mesh":0,"name":"SM_Prop_Street_Console_01","rotation":[0.7071068286895752,0,0,0.7071068286895752],"scale":[0.009999999776482582,0.009999999776482582,0.009999999776482582]}],"materials":[{"doubleSided":true,"name":"Scifi_Cybercity_Main","pbrMetallicRoughness":{"baseColorTexture":{"index":2},"metallicFactor":0,"roughnessFactor":0.5527864098548889}}],"meshes":[{"name":"Mesh","primitives":[{"attributes":{"POSITION":0,"NORMAL":1,"TEXCOORD_0":2},"indices":3,"material":0}]}],"textures":[{"extensions":{},"sampler":0},{"extensions":{},"sampler":0},{"extensions":{"EXT_texture_webp":{"source":0}},"sampler":0}],"images":[{"mimeType":"image/webp","name":"Wall_05_Emissive","uri":"Wall_05_Emissive.webp"}],"accessors":[{"bufferView":0,"componentType":5126,"count":1859,"max":[40.89833068847656,42.56377029418945,0],"min":[-40.89833068847656,-30.809558868408203,-139.12550354003906],"type":"VEC3"},{"bufferView":1,"componentType":5126,"count":1859,"type":"VEC3"},{"bufferView":2,"componentType":5126,"count":1859,"type":"VEC2"},{"bufferView":3,"componentType":5123,"count":3075,"type":"SCALAR"}],"bufferViews":[{"buffer":0,"byteLength":22308,"byteOffset":0,"target":34962},{"buffer":0,"byteLength":22308,"byteOffset":22308,"target":34962},{"buffer":0,"byteLength":14872,"byteOffset":44616,"target":34962},{"buffer":0,"byteLength":6150,"byteOffset":59488,"target":34963}],"samplers":[{"magFilter":9729,"minFilter":9987}],"buffers":[{"byteLength":65640,"uri":"cyber_SM_Prop_Street_Console_01.bin"}]}