{"asset":{"generator":"Khronos glTF Blender I/O v4.4.55","version":"2.0"},"extensionsUsed":["EXT_texture_webp"],"extensionsRequired":["EXT_texture_webp"],"scene":0,"scenes":[{"name":"Scene","nodes":[2]}],"nodes":[{"mesh":0,"name":"SM_Bld_Door_Single_Large_01_Door_01"},{"mesh":1,"name":"SM_Bld_Door_Single_Large_01_Door_02"},{"children":[0,1],"mesh":2,"name":"SM_Bld_Door_Single_Large_01","rotation":[0.7071068286895752,0,0,0.7071068286895752],"scale":[0.009999999776482582,0.009999999776482582,0.009999999776482582]}],"materials":[{"doubleSided":true,"name":"MAT_01A8","pbrMetallicRoughness":{"baseColorTexture":{"index":1},"metallicFactor":0,"roughnessFactor":0.5527864098548889}}],"meshes":[{"name":"Mesh.002","primitives":[{"attributes":{"POSITION":0,"NORMAL":1,"TEXCOORD_0":2},"indices":3,"material":0}]},{"name":"Mesh.001","primitives":[{"attributes":{"POSITION":4,"NORMAL":5,"TEXCOORD_0":6},"indices":7,"material":0}]},{"name":"Mesh","primitives":[{"attributes":{"POSITION":8,"NORMAL":9,"TEXCOORD_0":10},"indices":11,"material":0}]}],"textures":[{"extensions":{},"sampler":0},{"extensions":{"EXT_texture_webp":{"source":0}},"sampler":0}],"images":[{"mimeType":"image/webp","name":"PolygonCyberCity_Texture_01_A","uri":"PolygonCyberCity_Texture_01_A.webp"}],"accessors":[{"bufferView":0,"componentType":5126,"count":1475,"max":[56.05859375,8.08469295501709,-0.03741455078125],"min":[-56.05859375,-8.08469295501709,-146.7561798095703],"type":"VEC3"},{"bufferView":1,"componentType":5126,"count":1475,"type":"VEC3"},{"bufferView":2,"componentType":5126,"count":1475,"type":"VEC2"},{"bufferView":3,"componentType":5123,"count":2616,"type":"SCALAR"},{"bufferView":4,"componentType":5126,"count":1436,"max":[56.05859375,8.08469295501709,-96.47856140136719],"min":[-56.05859375,-8.08469295501709,-246.62620544433594],"type":"VEC3"},{"bufferView":5,"componentType":5126,"count":1436,"type":"VEC3"},{"bufferView":6,"componentType":5126,"count":1436,"type":"VEC2"},{"bufferView":7,"componentType":5123,"count":2544,"type":"SCALAR"},{"bufferView":8,"componentType":5126,"count":2100,"max":[74.96875,21.726835250854492,8.83583927154541],"min":[-74.96875,-21.726835250854492,-265.463623046875],"type":"VEC3"},{"bufferView":9,"componentType":5126,"count":2100,"type":"VEC3"},{"bufferView":10,"componentType":5126,"count":2100,"type":"VEC2"},{"bufferView":11,"componentType":5123,"count":3300,"type":"SCALAR"}],"bufferViews":[{"buffer":0,"byteLength":17700,"byteOffset":0,"target":34962},{"buffer":0,"byteLength":17700,"byteOffset":17700,"target":34962},{"buffer":0,"byteLength":11800,"byteOffset":35400,"target":34962},{"buffer":0,"byteLength":5232,"byteOffset":47200,"target":34963},{"buffer":0,"byteLength":17232,"byteOffset":52432,"target":34962},{"buffer":0,"byteLength":17232,"byteOffset":69664,"target":34962},{"buffer":0,"byteLength":11488,"byteOffset":86896,"target":34962},{"buffer":0,"byteLength":5088,"byteOffset":98384,"target":34963},{"buffer":0,"byteLength":25200,"byteOffset":103472,"target":34962},{"buffer":0,"byteLength":25200,"byteOffset":128672,"target":34962},{"buffer":0,"byteLength":16800,"byteOffset":153872,"target":34962},{"buffer":0,"byteLength":6600,"byteOffset":170672,"target":34963}],"samplers":[{"magFilter":9729,"minFilter":9987}],"buffers":[{"byteLength":177272,"uri":"cyber_SM_Bld_Door_Single_Large_01.bin"}]}