{"asset":{"generator":"Khronos glTF Blender I/O v4.4.55","version":"2.0"},"extensionsUsed":["EXT_texture_webp"],"extensionsRequired":["EXT_texture_webp"],"scene":0,"scenes":[{"name":"Scene","nodes":[1]}],"nodes":[{"mesh":0,"name":"SM_Prop_Old_Television_01_Screen"},{"children":[0],"mesh":1,"name":"SM_Prop_Old_Television_01","rotation":[0.7071068286895752,0,0,0.7071068286895752],"scale":[0.009999999776482582,0.009999999776482582,0.009999999776482582]}],"materials":[{"doubleSided":true,"name":"Base_Lambert32","pbrMetallicRoughness":{"baseColorTexture":{"index":2},"metallicFactor":0,"roughnessFactor":0.5527864098548889}}],"meshes":[{"name":"Mesh.001","primitives":[{"attributes":{"POSITION":0,"NORMAL":1,"TEXCOORD_0":2},"indices":3,"material":0}]},{"name":"Mesh","primitives":[{"attributes":{"POSITION":4,"NORMAL":5,"TEXCOORD_0":6},"indices":7,"material":0}]}],"textures":[{"extensions":{},"sampler":0},{"extensions":{},"sampler":0},{"extensions":{"EXT_texture_webp":{"source":0}},"sampler":0}],"images":[{"mimeType":"image/webp","name":"Wall_05_Emissive","uri":"Wall_05_Emissive.webp"}],"accessors":[{"bufferView":0,"componentType":5126,"count":16,"max":[37.53041076660156,31.386863708496094,-13.244890213012695],"min":[-36.91859436035156,28.23917007446289,-70.9255599975586],"type":"VEC3"},{"bufferView":1,"componentType":5126,"count":16,"type":"VEC3"},{"bufferView":2,"componentType":5126,"count":16,"type":"VEC2"},{"bufferView":3,"componentType":5123,"count":24,"type":"SCALAR"},{"bufferView":4,"componentType":5126,"count":555,"max":[65.52557373046875,33.5513916015625,0],"min":[-65.52557373046875,-33.55145263671875,-131.01077270507812],"type":"VEC3"},{"bufferView":5,"componentType":5126,"count":555,"type":"VEC3"},{"bufferView":6,"componentType":5126,"count":555,"type":"VEC2"},{"bufferView":7,"componentType":5123,"count":930,"type":"SCALAR"}],"bufferViews":[{"buffer":0,"byteLength":192,"byteOffset":0,"target":34962},{"buffer":0,"byteLength":192,"byteOffset":192,"target":34962},{"buffer":0,"byteLength":128,"byteOffset":384,"target":34962},{"buffer":0,"byteLength":48,"byteOffset":512,"target":34963},{"buffer":0,"byteLength":6660,"byteOffset":560,"target":34962},{"buffer":0,"byteLength":6660,"byteOffset":7220,"target":34962},{"buffer":0,"byteLength":4440,"byteOffset":13880,"target":34962},{"buffer":0,"byteLength":1860,"byteOffset":18320,"target":34963}],"samplers":[{"magFilter":9729,"minFilter":9987}],"buffers":[{"byteLength":20180,"uri":"cyber_SM_Prop_Old_Television_01.bin"}]}