{"asset":{"generator":"Khronos glTF Blender I/O v4.4.55","version":"2.0"},"extensionsUsed":["EXT_texture_webp"],"extensionsRequired":["EXT_texture_webp"],"scene":0,"scenes":[{"name":"Scene","nodes":[0]}],"nodes":[{"mesh":0,"name":"SM_Bld_Wall_Shop_04","rotation":[0.7071068286895752,0,0,0.7071068286895752],"scale":[0.009999999776482582,0.009999999776482582,0.009999999776482582]}],"materials":[{"doubleSided":true,"name":"Base_Lambert","pbrMetallicRoughness":{"baseColorTexture":{"index":2},"metallicFactor":0,"roughnessFactor":0.5527864098548889}},{"doubleSided":true,"name":"A_Wall","pbrMetallicRoughness":{"baseColorTexture":{"index":3},"metallicFactor":0,"roughnessFactor":0.5527864098548889}},{"doubleSided":true,"name":"lambert1","pbrMetallicRoughness":{"baseColorTexture":{"index":4},"metallicFactor":0,"roughnessFactor":0.5527864098548889}}],"meshes":[{"name":"Mesh","primitives":[{"attributes":{"POSITION":0,"NORMAL":1,"TEXCOORD_0":2},"indices":3,"material":0},{"attributes":{"POSITION":4,"NORMAL":5,"TEXCOORD_0":6},"indices":7,"material":1},{"attributes":{"POSITION":8,"NORMAL":9,"TEXCOORD_0":10},"indices":11,"material":2}]}],"textures":[{"extensions":{},"sampler":0},{"extensions":{},"sampler":0},{"extensions":{"EXT_texture_webp":{"source":0}},"sampler":0},{"extensions":{"EXT_texture_webp":{"source":1}},"sampler":0},{"extensions":{"EXT_texture_webp":{"source":1}},"sampler":0}],"images":[{"mimeType":"image/webp","name":"Wall_05_Emissive","uri":"Wall_05_Emissive.webp"},{"mimeType":"image/webp","name":"PolygonCyberCity_Texture_01_A","uri":"PolygonCyberCity_Texture_01_A.webp"}],"accessors":[{"bufferView":0,"componentType":5126,"count":2162,"max":[482.99951171875,85.13013458251953,1.2303900718688965],"min":[14.81279182434082,-18.657379150390625,-202.9008026123047],"type":"VEC3"},{"bufferView":1,"componentType":5126,"count":2162,"type":"VEC3"},{"bufferView":2,"componentType":5126,"count":2162,"type":"VEC2"},{"bufferView":3,"componentType":5123,"count":3846,"type":"SCALAR"},{"bufferView":4,"componentType":5126,"count":58,"max":[500,11.462432861328125,6.237368506845087e-05],"min":[0,0,-300.57427978515625],"type":"VEC3"},{"bufferView":5,"componentType":5126,"count":58,"type":"VEC3"},{"bufferView":6,"componentType":5126,"count":58,"type":"VEC2"},{"bufferView":7,"componentType":5123,"count":120,"type":"SCALAR"},{"bufferView":8,"componentType":5126,"count":58,"max":[500,0,6.237368506845087e-05],"min":[0,-11.462432861328125,-300.57427978515625],"type":"VEC3"},{"bufferView":9,"componentType":5126,"count":58,"type":"VEC3"},{"bufferView":10,"componentType":5126,"count":58,"type":"VEC2"},{"bufferView":11,"componentType":5123,"count":120,"type":"SCALAR"}],"bufferViews":[{"buffer":0,"byteLength":25944,"byteOffset":0,"target":34962},{"buffer":0,"byteLength":25944,"byteOffset":25944,"target":34962},{"buffer":0,"byteLength":17296,"byteOffset":51888,"target":34962},{"buffer":0,"byteLength":7692,"byteOffset":69184,"target":34963},{"buffer":0,"byteLength":696,"byteOffset":76876,"target":34962},{"buffer":0,"byteLength":696,"byteOffset":77572,"target":34962},{"buffer":0,"byteLength":464,"byteOffset":78268,"target":34962},{"buffer":0,"byteLength":240,"byteOffset":78732,"target":34963},{"buffer":0,"byteLength":696,"byteOffset":78972,"target":34962},{"buffer":0,"byteLength":696,"byteOffset":79668,"target":34962},{"buffer":0,"byteLength":464,"byteOffset":80364,"target":34962},{"buffer":0,"byteLength":240,"byteOffset":80828,"target":34963}],"samplers":[{"magFilter":9729,"minFilter":9987}],"buffers":[{"byteLength":81068,"uri":"cyber_SM_Bld_Wall_Shop_04.bin"}]}