{"asset":{"generator":"Khronos glTF Blender I/O v4.4.55","version":"2.0"},"extensionsUsed":["EXT_texture_webp"],"extensionsRequired":["EXT_texture_webp"],"scene":0,"scenes":[{"name":"Scene","nodes":[2]}],"nodes":[{"mesh":0,"name":"SM_Prop_Tool_Neon_Saw_Blade_01"},{"mesh":1,"name":"SM_Prop_Tool_Neon_Saw_Trigger_01"},{"children":[0,1],"mesh":2,"name":"SM_Prop_Tool_Neon_Saw_01","rotation":[0.7071068286895752,0,0,0.7071068286895752],"scale":[0.009999999776482582,0.009999999776482582,0.009999999776482582]}],"materials":[{"doubleSided":true,"name":"Base_Lambert32","pbrMetallicRoughness":{"baseColorTexture":{"index":2},"metallicFactor":0,"roughnessFactor":0.5527864098548889}}],"meshes":[{"name":"Mesh.002","primitives":[{"attributes":{"POSITION":0,"NORMAL":1,"TEXCOORD_0":2},"indices":3,"material":0}]},{"name":"Mesh.001","primitives":[{"attributes":{"POSITION":4,"NORMAL":5,"TEXCOORD_0":6},"indices":7,"material":0}]},{"name":"Mesh","primitives":[{"attributes":{"POSITION":8,"NORMAL":9,"TEXCOORD_0":10},"indices":11,"material":0}]}],"textures":[{"extensions":{},"sampler":0},{"extensions":{},"sampler":0},{"extensions":{"EXT_texture_webp":{"source":0}},"sampler":0}],"images":[{"mimeType":"image/webp","name":"Wall_05_Emissive","uri":"Wall_05_Emissive.webp"}],"accessors":[{"bufferView":0,"componentType":5126,"count":50,"max":[0.64044189453125,92.08953857421875,-5.771522521972656],"min":[-0.64031982421875,58.4781494140625,-11.92536735534668],"type":"VEC3"},{"bufferView":1,"componentType":5126,"count":50,"type":"VEC3"},{"bufferView":2,"componentType":5126,"count":50,"type":"VEC2"},{"bufferView":3,"componentType":5123,"count":78,"type":"SCALAR"},{"bufferView":4,"componentType":5126,"count":34,"max":[1.1247377395629883,11.858680725097656,-1.0809165239334106],"min":[-1.124471664428711,6.966377258300781,-6.607022762298584],"type":"VEC3"},{"bufferView":5,"componentType":5126,"count":34,"type":"VEC3"},{"bufferView":6,"componentType":5126,"count":34,"type":"VEC2"},{"bufferView":7,"componentType":5123,"count":72,"type":"SCALAR"},{"bufferView":8,"componentType":5126,"count":1306,"max":[5.97515869140625,61.2752685546875,11.36240005493164],"min":[-5.97503662109375,-4.84600830078125,-13.179845809936523],"type":"VEC3"},{"bufferView":9,"componentType":5126,"count":1306,"type":"VEC3"},{"bufferView":10,"componentType":5126,"count":1306,"type":"VEC2"},{"bufferView":11,"componentType":5123,"count":2274,"type":"SCALAR"}],"bufferViews":[{"buffer":0,"byteLength":600,"byteOffset":0,"target":34962},{"buffer":0,"byteLength":600,"byteOffset":600,"target":34962},{"buffer":0,"byteLength":400,"byteOffset":1200,"target":34962},{"buffer":0,"byteLength":156,"byteOffset":1600,"target":34963},{"buffer":0,"byteLength":408,"byteOffset":1756,"target":34962},{"buffer":0,"byteLength":408,"byteOffset":2164,"target":34962},{"buffer":0,"byteLength":272,"byteOffset":2572,"target":34962},{"buffer":0,"byteLength":144,"byteOffset":2844,"target":34963},{"buffer":0,"byteLength":15672,"byteOffset":2988,"target":34962},{"buffer":0,"byteLength":15672,"byteOffset":18660,"target":34962},{"buffer":0,"byteLength":10448,"byteOffset":34332,"target":34962},{"buffer":0,"byteLength":4548,"byteOffset":44780,"target":34963}],"samplers":[{"magFilter":9729,"minFilter":9987}],"buffers":[{"byteLength":49328,"uri":"cyber_SM_Prop_Tool_Neon_Saw_01.bin"}]}