{"asset":{"generator":"Khronos glTF Blender I/O v4.4.55","version":"2.0"},"extensionsUsed":["EXT_texture_webp"],"extensionsRequired":["EXT_texture_webp"],"scene":0,"scenes":[{"name":"Scene","nodes":[0]}],"nodes":[{"mesh":0,"name":"SM_Prop_Trash_Bin_02","rotation":[0.7071068286895752,0,0,0.7071068286895752],"scale":[0.009999999776482582,0.009999999776482582,0.009999999776482582]}],"materials":[{"doubleSided":true,"name":"Scifi_Cybercity_Main","pbrMetallicRoughness":{"baseColorTexture":{"index":2},"metallicFactor":0,"roughnessFactor":0.5527864098548889}}],"meshes":[{"name":"Mesh","primitives":[{"attributes":{"POSITION":0,"NORMAL":1,"TEXCOORD_0":2},"indices":3,"material":0}]}],"textures":[{"extensions":{},"sampler":0},{"extensions":{},"sampler":0},{"extensions":{"EXT_texture_webp":{"source":0}},"sampler":0}],"images":[{"mimeType":"image/webp","name":"Wall_05_Emissive","uri":"Wall_05_Emissive.webp"}],"accessors":[{"bufferView":0,"componentType":5126,"count":939,"max":[42.21940612792969,41.52592468261719,0],"min":[-42.21940612792969,-41.52592468261719,-144.68104553222656],"type":"VEC3"},{"bufferView":1,"componentType":5126,"count":939,"type":"VEC3"},{"bufferView":2,"componentType":5126,"count":939,"type":"VEC2"},{"bufferView":3,"componentType":5123,"count":1662,"type":"SCALAR"}],"bufferViews":[{"buffer":0,"byteLength":11268,"byteOffset":0,"target":34962},{"buffer":0,"byteLength":11268,"byteOffset":11268,"target":34962},{"buffer":0,"byteLength":7512,"byteOffset":22536,"target":34962},{"buffer":0,"byteLength":3324,"byteOffset":30048,"target":34963}],"samplers":[{"magFilter":9729,"minFilter":9987}],"buffers":[{"byteLength":33372,"uri":"cyber_SM_Prop_Trash_Bin_02.bin"}]}