{"asset":{"generator":"Khronos glTF Blender I/O v4.4.55","version":"2.0"},"extensionsUsed":["EXT_texture_webp"],"extensionsRequired":["EXT_texture_webp"],"scene":0,"scenes":[{"name":"Scene","nodes":[0]}],"nodes":[{"mesh":0,"name":"SM_Bld_Door_NoFrame_Single_Large_02","rotation":[0.7071068286895752,0,0,0.7071068286895752],"scale":[0.009999999776482582,0.009999999776482582,0.009999999776482582]}],"materials":[{"doubleSided":true,"name":"MAT_01A","pbrMetallicRoughness":{"baseColorTexture":{"index":1},"metallicFactor":0,"roughnessFactor":0.5527864098548889}}],"meshes":[{"name":"Mesh","primitives":[{"attributes":{"POSITION":0,"NORMAL":1,"TEXCOORD_0":2},"indices":3,"material":0}]}],"textures":[{"extensions":{},"sampler":0},{"extensions":{"EXT_texture_webp":{"source":0}},"sampler":0}],"images":[{"mimeType":"image/webp","name":"PolygonCyberCity_Texture_01_A","uri":"PolygonCyberCity_Texture_01_A.webp"}],"accessors":[{"bufferView":0,"componentType":5126,"count":2188,"max":[112.1171875,8.08469295501709,-0.03741455078125],"min":[0,-8.08469295501709,-246.62620544433594],"type":"VEC3"},{"bufferView":1,"componentType":5126,"count":2188,"type":"VEC3"},{"bufferView":2,"componentType":5126,"count":2188,"type":"VEC2"},{"bufferView":3,"componentType":5123,"count":3960,"type":"SCALAR"}],"bufferViews":[{"buffer":0,"byteLength":26256,"byteOffset":0,"target":34962},{"buffer":0,"byteLength":26256,"byteOffset":26256,"target":34962},{"buffer":0,"byteLength":17504,"byteOffset":52512,"target":34962},{"buffer":0,"byteLength":7920,"byteOffset":70016,"target":34963}],"samplers":[{"magFilter":9729,"minFilter":9987}],"buffers":[{"byteLength":77936,"uri":"cyber_SM_Bld_Door_NoFrame_Single_Large_02.bin"}]}