{
	"asset":{
		"generator":"Khronos glTF Blender I/O v4.4.55",
		"version":"2.0"
	},
	"extensionsUsed":[
		"EXT_texture_webp"
	],
	"extensionsRequired":[
		"EXT_texture_webp"
	],
	"scene":0,
	"scenes":[
		{
			"name":"Scene",
			"nodes":[
				0
			]
		}
	],
	"nodes":[
		{
			"mesh":0,
			"name":"SM_Prop_Greebles_17",
			"rotation":[
				0.7071068286895752,
				0,
				0,
				0.7071068286895752
			],
			"scale":[
				0.009999999776482582,
				0.009999999776482582,
				0.009999999776482582
			]
		}
	],
	"materials":[
		{
			"doubleSided":true,
			"name":"CyberCityTexture11",
			"pbrMetallicRoughness":{
				"baseColorTexture":{
					"index":0
				},
				"metallicFactor":0,
				"roughnessFactor":0.5527864098548889
			}
		}
	],
	"meshes":[
		{
			"name":"Mesh",
			"primitives":[
				{
					"attributes":{
						"POSITION":0,
						"NORMAL":1,
						"TEXCOORD_0":2
					},
					"indices":3,
					"material":0
				}
			]
		}
	],
	"textures":[
		{
			"extensions":{
				"EXT_texture_webp":{
					"source":0
				}
			},
			"sampler":0
		}
	],
	"images":[
		{
			"mimeType":"image/webp",
			"name":"PolygonCyberCity_Texture_01_A",
			"uri":"PolygonCyberCity_Texture_01_A.webp"
		}
	],
	"accessors":[
		{
			"bufferView":0,
			"componentType":5126,
			"count":438,
			"max":[
				40.67790985107422,
				31.164506912231445,
				58.58887481689453
			],
			"min":[
				-40.67790222167969,
				9.192152976989746,
				-39.08514404296875
			],
			"type":"VEC3"
		},
		{
			"bufferView":1,
			"componentType":5126,
			"count":438,
			"type":"VEC3"
		},
		{
			"bufferView":2,
			"componentType":5126,
			"count":438,
			"type":"VEC2"
		},
		{
			"bufferView":3,
			"componentType":5123,
			"count":771,
			"type":"SCALAR"
		}
	],
	"bufferViews":[
		{
			"buffer":0,
			"byteLength":5256,
			"byteOffset":0,
			"target":34962
		},
		{
			"buffer":0,
			"byteLength":5256,
			"byteOffset":5256,
			"target":34962
		},
		{
			"buffer":0,
			"byteLength":3504,
			"byteOffset":10512,
			"target":34962
		},
		{
			"buffer":0,
			"byteLength":1542,
			"byteOffset":14016,
			"target":34963
		}
	],
	"samplers":[
		{
			"magFilter":9729,
			"minFilter":9987
		}
	],
	"buffers":[
		{
			"byteLength":15560,
			"uri":"cyber_SM_Prop_Greebles_17.bin"
		}
	]
}
