{"asset":{"generator":"Khronos glTF Blender I/O v4.4.55","version":"2.0"},"extensionsUsed":["EXT_texture_webp"],"extensionsRequired":["EXT_texture_webp"],"scene":0,"scenes":[{"name":"Scene","nodes":[5]}],"nodes":[{"mesh":0,"name":"SM_Prop_Server_01_Blade_01"},{"mesh":1,"name":"SM_Prop_Server_01_Blade_02"},{"mesh":2,"name":"SM_Prop_Server_01_Blade_03"},{"mesh":3,"name":"SM_Prop_Server_01_Glass_01"},{"children":[3],"mesh":4,"name":"SM_Prop_Server_01_Door_01"},{"children":[0,1,2,4],"mesh":5,"name":"SM_Prop_Server_01","rotation":[0.7071068286895752,0,0,0.7071068286895752],"scale":[0.009999999776482582,0.009999999776482582,0.009999999776482582]}],"materials":[{"doubleSided":true,"name":"lambert6","pbrMetallicRoughness":{"baseColorTexture":{"index":0},"metallicFactor":0,"roughnessFactor":0.5527864098548889}},{"alphaMode":"MASK","doubleSided":true,"name":"lambert8","pbrMetallicRoughness":{"baseColorFactor":[1,1,1,0.2976190447807312],"baseColorTexture":{"index":1},"metallicFactor":0,"roughnessFactor":0.5527864098548889},"alphaCutoff":0.5}],"meshes":[{"name":"Mesh.003","primitives":[{"attributes":{"POSITION":0,"NORMAL":1,"TEXCOORD_0":2},"indices":3,"material":0}]},{"name":"Mesh.004","primitives":[{"attributes":{"POSITION":4,"NORMAL":5,"TEXCOORD_0":6},"indices":7,"material":0}]},{"name":"Mesh.005","primitives":[{"attributes":{"POSITION":8,"NORMAL":9,"TEXCOORD_0":10},"indices":11,"material":0}]},{"name":"Mesh.002","primitives":[{"attributes":{"POSITION":12,"NORMAL":13,"TEXCOORD_0":14},"indices":15,"material":1}]},{"name":"Mesh.001","primitives":[{"attributes":{"POSITION":16,"NORMAL":17,"TEXCOORD_0":18},"indices":19,"material":0}]},{"name":"Mesh","primitives":[{"attributes":{"POSITION":20,"NORMAL":21,"TEXCOORD_0":22},"indices":23,"material":0}]}],"textures":[{"extensions":{"EXT_texture_webp":{"source":0}},"sampler":0},{"extensions":{"EXT_texture_webp":{"source":0}},"sampler":0}],"images":[{"mimeType":"image/webp","name":"PolygonCyberCity_Texture_01_A","uri":"PolygonCyberCity_Texture_01_A.webp"}],"accessors":[{"bufferView":0,"componentType":5126,"count":538,"max":[34.11427307128906,42.24059295654297,-149.98806762695312],"min":[-34.11427307128906,-37.481571197509766,-205.61578369140625],"type":"VEC3"},{"bufferView":1,"componentType":5126,"count":538,"type":"VEC3"},{"bufferView":2,"componentType":5126,"count":538,"type":"VEC2"},{"bufferView":3,"componentType":5123,"count":936,"type":"SCALAR"},{"bufferView":4,"componentType":5126,"count":538,"max":[34.11427307128906,42.24059295654297,-95.41885375976562],"min":[-34.11427307128906,-37.481571197509766,-151.04656982421875],"type":"VEC3"},{"bufferView":5,"componentType":5126,"count":538,"type":"VEC3"},{"bufferView":6,"componentType":5126,"count":538,"type":"VEC2"},{"bufferView":7,"componentType":5123,"count":936,"type":"SCALAR"},{"bufferView":8,"componentType":5126,"count":458,"max":[34.11427307128906,42.24059295654297,-38.91596984863281],"min":[-34.11427307128906,-37.481571197509766,-94.54368591308594],"type":"VEC3"},{"bufferView":9,"componentType":5126,"count":458,"type":"VEC3"},{"bufferView":10,"componentType":5126,"count":458,"type":"VEC2"},{"bufferView":11,"componentType":5123,"count":792,"type":"SCALAR"},{"bufferView":12,"componentType":5126,"count":24,"max":[34.02354049682617,42.69222640991211,-37.51494216918945],"min":[-33.78007507324219,42.41184616088867,-209.83018493652344],"type":"VEC3"},{"bufferView":13,"componentType":5126,"count":24,"type":"VEC3"},{"bufferView":14,"componentType":5126,"count":24,"type":"VEC2"},{"bufferView":15,"componentType":5123,"count":36,"type":"SCALAR"},{"bufferView":16,"componentType":5126,"count":346,"max":[34.562992095947266,50.61152648925781,-37.3939208984375],"min":[-34.31952667236328,41.657470703125,-209.95115661621094],"type":"VEC3"},{"bufferView":17,"componentType":5126,"count":346,"type":"VEC3"},{"bufferView":18,"componentType":5126,"count":346,"type":"VEC2"},{"bufferView":19,"componentType":5123,"count":660,"type":"SCALAR"},{"bufferView":20,"componentType":5126,"count":2330,"max":[46.122718811035156,46.122718811035156,0],"min":[-46.122718811035156,-49.66926574707031,-228.25303649902344],"type":"VEC3"},{"bufferView":21,"componentType":5126,"count":2330,"type":"VEC3"},{"bufferView":22,"componentType":5126,"count":2330,"type":"VEC2"},{"bufferView":23,"componentType":5123,"count":4170,"type":"SCALAR"}],"bufferViews":[{"buffer":0,"byteLength":6456,"byteOffset":0,"target":34962},{"buffer":0,"byteLength":6456,"byteOffset":6456,"target":34962},{"buffer":0,"byteLength":4304,"byteOffset":12912,"target":34962},{"buffer":0,"byteLength":1872,"byteOffset":17216,"target":34963},{"buffer":0,"byteLength":6456,"byteOffset":19088,"target":34962},{"buffer":0,"byteLength":6456,"byteOffset":25544,"target":34962},{"buffer":0,"byteLength":4304,"byteOffset":32000,"target":34962},{"buffer":0,"byteLength":1872,"byteOffset":36304,"target":34963},{"buffer":0,"byteLength":5496,"byteOffset":38176,"target":34962},{"buffer":0,"byteLength":5496,"byteOffset":43672,"target":34962},{"buffer":0,"byteLength":3664,"byteOffset":49168,"target":34962},{"buffer":0,"byteLength":1584,"byteOffset":52832,"target":34963},{"buffer":0,"byteLength":288,"byteOffset":54416,"target":34962},{"buffer":0,"byteLength":288,"byteOffset":54704,"target":34962},{"buffer":0,"byteLength":192,"byteOffset":54992,"target":34962},{"buffer":0,"byteLength":72,"byteOffset":55184,"target":34963},{"buffer":0,"byteLength":4152,"byteOffset":55256,"target":34962},{"buffer":0,"byteLength":4152,"byteOffset":59408,"target":34962},{"buffer":0,"byteLength":2768,"byteOffset":63560,"target":34962},{"buffer":0,"byteLength":1320,"byteOffset":66328,"target":34963},{"buffer":0,"byteLength":27960,"byteOffset":67648,"target":34962},{"buffer":0,"byteLength":27960,"byteOffset":95608,"target":34962},{"buffer":0,"byteLength":18640,"byteOffset":123568,"target":34962},{"buffer":0,"byteLength":8340,"byteOffset":142208,"target":34963}],"samplers":[{"magFilter":9729,"minFilter":9987}],"buffers":[{"byteLength":150548,"uri":"cyber_SM_Prop_Server_01.bin"}]}