{
	"asset":{
		"generator":"Khronos glTF Blender I/O v4.4.55",
		"version":"2.0"
	},
	"extensionsUsed":[
		"EXT_texture_webp"
	],
	"extensionsRequired":[
		"EXT_texture_webp"
	],
	"scene":0,
	"scenes":[
		{
			"name":"Scene",
			"nodes":[
				1
			]
		}
	],
	"nodes":[
		{
			"mesh":0,
			"name":"SM_Prop_Greebles_05_Split_Fan"
		},
		{
			"children":[
				0
			],
			"mesh":1,
			"name":"SM_Prop_Greebles_05_Split",
			"rotation":[
				0.70710688829422,
				0,
				0,
				0.7071066498756409
			],
			"scale":[
				0.009999999776482582,
				0.009999999776482582,
				0.009999999776482582
			]
		}
	],
	"materials":[
		{
			"doubleSided":true,
			"name":"CyberCityTexture.001",
			"pbrMetallicRoughness":{
				"baseColorTexture":{
					"index":0
				},
				"metallicFactor":0,
				"roughnessFactor":0.5527864098548889
			}
		},
		{
			"doubleSided":true,
			"name":"CyberCityTexture",
			"pbrMetallicRoughness":{
				"baseColorTexture":{
					"index":1
				},
				"metallicFactor":0,
				"roughnessFactor":0.5527864098548889
			}
		}
	],
	"meshes":[
		{
			"name":"Mesh.002",
			"primitives":[
				{
					"attributes":{
						"POSITION":0,
						"NORMAL":1,
						"TEXCOORD_0":2,
						"TEXCOORD_1":3
					},
					"indices":4,
					"material":0
				}
			]
		},
		{
			"name":"Mesh",
			"primitives":[
				{
					"attributes":{
						"POSITION":5,
						"NORMAL":6,
						"TEXCOORD_0":7,
						"TEXCOORD_1":8
					},
					"indices":9,
					"material":1
				}
			]
		}
	],
	"textures":[
		{
			"extensions":{
				"EXT_texture_webp":{
					"source":0
				}
			},
			"sampler":0
		},
		{
			"extensions":{
				"EXT_texture_webp":{
					"source":0
				}
			},
			"sampler":0
		}
	],
	"images":[
		{
			"mimeType":"image/webp",
			"name":"PolygonCyberCity_Texture_01_A",
			"uri":"PolygonCyberCity_Texture_01_A.webp"
		}
	],
	"accessors":[
		{
			"bufferView":0,
			"componentType":5126,
			"count":229,
			"max":[
				26.869232177734375,
				28.410934448242188,
				26.869354248046875
			],
			"min":[
				-26.869415283203125,
				20.848867416381836,
				-26.869400024414062
			],
			"type":"VEC3"
		},
		{
			"bufferView":1,
			"componentType":5126,
			"count":229,
			"type":"VEC3"
		},
		{
			"bufferView":2,
			"componentType":5126,
			"count":229,
			"type":"VEC2"
		},
		{
			"bufferView":3,
			"componentType":5126,
			"count":229,
			"type":"VEC2"
		},
		{
			"bufferView":4,
			"componentType":5123,
			"count":324,
			"type":"SCALAR"
		},
		{
			"bufferView":5,
			"componentType":5126,
			"count":532,
			"max":[
				48.61602783203125,
				28.198177337646484,
				48.615997314453125
			],
			"min":[
				-48.616058349609375,
				9.456476211547852,
				-48.615997314453125
			],
			"type":"VEC3"
		},
		{
			"bufferView":6,
			"componentType":5126,
			"count":532,
			"type":"VEC3"
		},
		{
			"bufferView":7,
			"componentType":5126,
			"count":532,
			"type":"VEC2"
		},
		{
			"bufferView":8,
			"componentType":5126,
			"count":532,
			"type":"VEC2"
		},
		{
			"bufferView":9,
			"componentType":5123,
			"count":900,
			"type":"SCALAR"
		}
	],
	"bufferViews":[
		{
			"buffer":0,
			"byteLength":2748,
			"byteOffset":0,
			"target":34962
		},
		{
			"buffer":0,
			"byteLength":2748,
			"byteOffset":2748,
			"target":34962
		},
		{
			"buffer":0,
			"byteLength":1832,
			"byteOffset":5496,
			"target":34962
		},
		{
			"buffer":0,
			"byteLength":1832,
			"byteOffset":7328,
			"target":34962
		},
		{
			"buffer":0,
			"byteLength":648,
			"byteOffset":9160,
			"target":34963
		},
		{
			"buffer":0,
			"byteLength":6384,
			"byteOffset":9808,
			"target":34962
		},
		{
			"buffer":0,
			"byteLength":6384,
			"byteOffset":16192,
			"target":34962
		},
		{
			"buffer":0,
			"byteLength":4256,
			"byteOffset":22576,
			"target":34962
		},
		{
			"buffer":0,
			"byteLength":4256,
			"byteOffset":26832,
			"target":34962
		},
		{
			"buffer":0,
			"byteLength":1800,
			"byteOffset":31088,
			"target":34963
		}
	],
	"samplers":[
		{
			"magFilter":9729,
			"minFilter":9987
		}
	],
	"buffers":[
		{
			"byteLength":32888,
			"uri":"cyber_SM_Prop_Greebles_05_Split.bin"
		}
	]
}
