{
	"asset":{
		"generator":"Khronos glTF Blender I/O v4.4.55",
		"version":"2.0"
	},
	"extensionsUsed":[
		"EXT_texture_webp"
	],
	"extensionsRequired":[
		"EXT_texture_webp"
	],
	"scene":0,
	"scenes":[
		{
			"name":"Scene",
			"nodes":[
				1
			]
		}
	],
	"nodes":[
		{
			"mesh":0,
			"name":"SM_Bld_Wall_Window_08_Glass_01"
		},
		{
			"children":[
				0
			],
			"mesh":1,
			"name":"SM_Bld_Wall_Window_08",
			"rotation":[
				0.7071068286895752,
				0,
				0,
				0.7071068286895752
			],
			"scale":[
				0.009999999776482582,
				0.009999999776482582,
				0.009999999776482582
			]
		}
	],
	"materials":[
		{
			"doubleSided":true,
			"name":"SciFi_Planets_SHD15",
			"pbrMetallicRoughness":{
				"baseColorTexture":{
					"index":0
				},
				"metallicFactor":0,
				"roughnessFactor":0.5527864098548889
			}
		},
		{
			"doubleSided":true,
			"name":"A_Wall39",
			"pbrMetallicRoughness":{
				"baseColorTexture":{
					"index":1
				},
				"metallicFactor":0,
				"roughnessFactor":0.5527864098548889
			}
		},
		{
			"doubleSided":true,
			"name":"blinn5",
			"pbrMetallicRoughness":{
				"baseColorTexture":{
					"index":2
				},
				"metallicFactor":0.5,
				"roughnessFactor":0.7487671971321106
			}
		}
	],
	"meshes":[
		{
			"name":"Mesh.001",
			"primitives":[
				{
					"attributes":{
						"POSITION":0,
						"NORMAL":1,
						"TEXCOORD_0":2
					},
					"indices":3,
					"material":0
				}
			]
		},
		{
			"name":"Mesh",
			"primitives":[
				{
					"attributes":{
						"POSITION":4,
						"NORMAL":5,
						"TEXCOORD_0":6
					},
					"indices":7,
					"material":1
				},
				{
					"attributes":{
						"POSITION":8,
						"NORMAL":9,
						"TEXCOORD_0":10
					},
					"indices":11,
					"material":2
				},
				{
					"attributes":{
						"POSITION":12,
						"NORMAL":13,
						"TEXCOORD_0":14
					},
					"indices":15,
					"material":0
				}
			]
		}
	],
	"textures":[
		{
			"extensions":{
				"EXT_texture_webp":{
					"source":0
				}
			},
			"sampler":0
		},
		{
			"extensions":{
				"EXT_texture_webp":{
					"source":0
				}
			},
			"sampler":0
		},
		{
			"extensions":{
				"EXT_texture_webp":{
					"source":0
				}
			},
			"sampler":0
		}
	],
	"images":[
		{
			"mimeType":"image/webp",
			"name":"PolygonCyberCity_Texture_01_A",
			"uri":"PolygonCyberCity_Texture_01_A.webp"
		}
	],
	"accessors":[
		{
			"bufferView":0,
			"componentType":5126,
			"count":48,
			"max":[
				219.71533203125,
				4.697957992553711,
				-140.49562072753906
			],
			"min":[
				30.2838134765625,
				-4.697957992553711,
				-226.2169952392578
			],
			"type":"VEC3"
		},
		{
			"bufferView":1,
			"componentType":5126,
			"count":48,
			"type":"VEC3"
		},
		{
			"bufferView":2,
			"componentType":5126,
			"count":48,
			"type":"VEC2"
		},
		{
			"bufferView":3,
			"componentType":5123,
			"count":120,
			"type":"SCALAR"
		},
		{
			"bufferView":4,
			"componentType":5126,
			"count":47,
			"max":[
				249.9991455078125,
				11.25,
				0
			],
			"min":[
				0,
				0,
				-300.57427978515625
			],
			"type":"VEC3"
		},
		{
			"bufferView":5,
			"componentType":5126,
			"count":47,
			"type":"VEC3"
		},
		{
			"bufferView":6,
			"componentType":5126,
			"count":47,
			"type":"VEC2"
		},
		{
			"bufferView":7,
			"componentType":5123,
			"count":123,
			"type":"SCALAR"
		},
		{
			"bufferView":8,
			"componentType":5126,
			"count":47,
			"max":[
				249.9991455078125,
				0,
				0
			],
			"min":[
				0,
				-11.25,
				-300.57427978515625
			],
			"type":"VEC3"
		},
		{
			"bufferView":9,
			"componentType":5126,
			"count":47,
			"type":"VEC3"
		},
		{
			"bufferView":10,
			"componentType":5126,
			"count":47,
			"type":"VEC2"
		},
		{
			"bufferView":11,
			"componentType":5123,
			"count":123,
			"type":"SCALAR"
		},
		{
			"bufferView":12,
			"componentType":5126,
			"count":854,
			"max":[
				220.19412231445312,
				16.358924865722656,
				-140.0167694091797
			],
			"min":[
				29.805030822753906,
				-16.358924865722656,
				-226.69583129882812
			],
			"type":"VEC3"
		},
		{
			"bufferView":13,
			"componentType":5126,
			"count":854,
			"type":"VEC3"
		},
		{
			"bufferView":14,
			"componentType":5126,
			"count":854,
			"type":"VEC2"
		},
		{
			"bufferView":15,
			"componentType":5123,
			"count":1650,
			"type":"SCALAR"
		}
	],
	"bufferViews":[
		{
			"buffer":0,
			"byteLength":576,
			"byteOffset":0,
			"target":34962
		},
		{
			"buffer":0,
			"byteLength":576,
			"byteOffset":576,
			"target":34962
		},
		{
			"buffer":0,
			"byteLength":384,
			"byteOffset":1152,
			"target":34962
		},
		{
			"buffer":0,
			"byteLength":240,
			"byteOffset":1536,
			"target":34963
		},
		{
			"buffer":0,
			"byteLength":564,
			"byteOffset":1776,
			"target":34962
		},
		{
			"buffer":0,
			"byteLength":564,
			"byteOffset":2340,
			"target":34962
		},
		{
			"buffer":0,
			"byteLength":376,
			"byteOffset":2904,
			"target":34962
		},
		{
			"buffer":0,
			"byteLength":246,
			"byteOffset":3280,
			"target":34963
		},
		{
			"buffer":0,
			"byteLength":564,
			"byteOffset":3528,
			"target":34962
		},
		{
			"buffer":0,
			"byteLength":564,
			"byteOffset":4092,
			"target":34962
		},
		{
			"buffer":0,
			"byteLength":376,
			"byteOffset":4656,
			"target":34962
		},
		{
			"buffer":0,
			"byteLength":246,
			"byteOffset":5032,
			"target":34963
		},
		{
			"buffer":0,
			"byteLength":10248,
			"byteOffset":5280,
			"target":34962
		},
		{
			"buffer":0,
			"byteLength":10248,
			"byteOffset":15528,
			"target":34962
		},
		{
			"buffer":0,
			"byteLength":6832,
			"byteOffset":25776,
			"target":34962
		},
		{
			"buffer":0,
			"byteLength":3300,
			"byteOffset":32608,
			"target":34963
		}
	],
	"samplers":[
		{
			"magFilter":9729,
			"minFilter":9987
		}
	],
	"buffers":[
		{
			"byteLength":35908,
			"uri":"cyber_SM_Bld_Wall_Window_08.bin"
		}
	]
}
