{"asset":{"generator":"Khronos glTF Blender I/O v4.4.55","version":"2.0"},"extensionsUsed":["EXT_texture_webp"],"extensionsRequired":["EXT_texture_webp"],"scene":0,"scenes":[{"name":"Scene","nodes":[1]}],"nodes":[{"mesh":0,"name":"SM_Prop_Holo_Planter_03_Foliage"},{"children":[0],"mesh":1,"name":"SM_Prop_Holo_Planter_03","rotation":[0.7071068286895752,0,0,0.7071068286895752],"scale":[0.009999999776482582,0.009999999776482582,0.009999999776482582]}],"materials":[{"alphaMode":"MASK","doubleSided":true,"name":"Tree","pbrMetallicRoughness":{"baseColorTexture":{"index":0},"metallicFactor":0,"roughnessFactor":0.5527864098548889},"alphaCutoff":0.5},{"doubleSided":true,"name":"Base_Lambert","pbrMetallicRoughness":{"baseColorTexture":{"index":3},"metallicFactor":0,"roughnessFactor":0.5527864098548889}}],"meshes":[{"name":"Mesh.001","primitives":[{"attributes":{"POSITION":0,"NORMAL":1,"TEXCOORD_0":2,"TEXCOORD_1":3,"COLOR_0":4,"COLOR_1":5},"indices":6,"material":0}]},{"name":"Mesh","primitives":[{"attributes":{"POSITION":7,"NORMAL":8,"TEXCOORD_0":9},"indices":10,"material":1}]}],"textures":[{"extensions":{"EXT_texture_webp":{"source":0}},"sampler":0},{"extensions":{},"sampler":0},{"extensions":{},"sampler":0},{"extensions":{"EXT_texture_webp":{"source":1}},"sampler":0}],"images":[{"mimeType":"image/webp","name":"Orange_Gradient_01","uri":"Orange_Gradient_01.webp"},{"mimeType":"image/webp","name":"Wall_05_Emissive","uri":"Wall_05_Emissive.webp"}],"accessors":[{"bufferView":0,"componentType":5126,"count":9112,"max":[47.18452453613281,105.31889343261719,-61.87302017211914],"min":[-45.525569915771484,-113.54928588867188,-191.7334442138672],"type":"VEC3"},{"bufferView":1,"componentType":5126,"count":9112,"type":"VEC3"},{"bufferView":2,"componentType":5126,"count":9112,"type":"VEC2"},{"bufferView":3,"componentType":5126,"count":9112,"type":"VEC2"},{"bufferView":4,"componentType":5121,"count":9112,"normalized":true,"type":"VEC4"},{"bufferView":5,"componentType":5123,"count":9112,"normalized":true,"type":"VEC4"},{"bufferView":6,"componentType":5123,"count":11514,"type":"SCALAR"},{"bufferView":7,"componentType":5126,"count":471,"max":[31.657241821289062,109.07551574707031,0],"min":[-31.658161163330078,-112.08162689208984,-85.16162872314453],"type":"VEC3"},{"bufferView":8,"componentType":5126,"count":471,"type":"VEC3"},{"bufferView":9,"componentType":5126,"count":471,"type":"VEC2"},{"bufferView":10,"componentType":5123,"count":804,"type":"SCALAR"}],"bufferViews":[{"buffer":0,"byteLength":109344,"byteOffset":0,"target":34962},{"buffer":0,"byteLength":109344,"byteOffset":109344,"target":34962},{"buffer":0,"byteLength":72896,"byteOffset":218688,"target":34962},{"buffer":0,"byteLength":72896,"byteOffset":291584,"target":34962},{"buffer":0,"byteLength":36448,"byteOffset":364480,"target":34962},{"buffer":0,"byteLength":72896,"byteOffset":400928,"target":34962},{"buffer":0,"byteLength":23028,"byteOffset":473824,"target":34963},{"buffer":0,"byteLength":5652,"byteOffset":496852,"target":34962},{"buffer":0,"byteLength":5652,"byteOffset":502504,"target":34962},{"buffer":0,"byteLength":3768,"byteOffset":508156,"target":34962},{"buffer":0,"byteLength":1608,"byteOffset":511924,"target":34963}],"samplers":[{"magFilter":9729,"minFilter":9987}],"buffers":[{"byteLength":513532,"uri":"cyber_SM_Prop_Holo_Planter_03.bin"}]}