{
	"asset":{
		"generator":"Khronos glTF Blender I/O v4.4.55",
		"version":"2.0"
	},
	"extensionsUsed":[
		"EXT_texture_webp"
	],
	"extensionsRequired":[
		"EXT_texture_webp"
	],
	"scene":0,
	"scenes":[
		{
			"name":"Scene",
			"nodes":[
				0
			]
		}
	],
	"nodes":[
		{
			"mesh":0,
			"name":"SM_Env_Hologram_Tree_02",
			"rotation":[
				0.7071068286895752,
				0,
				0,
				0.7071068286895752
			],
			"scale":[
				0.009999999776482582,
				0.009999999776482582,
				0.009999999776482582
			]
		}
	],
	"materials":[
		{
			"doubleSided":true,
			"name":"lambert12",
			"pbrMetallicRoughness":{
				"baseColorTexture":{
					"index":0
				},
				"metallicFactor":0,
				"roughnessFactor":0.5527864098548889
			}
		}
	],
	"meshes":[
		{
			"name":"Mesh",
			"primitives":[
				{
					"attributes":{
						"POSITION":0,
						"NORMAL":1,
						"TEXCOORD_0":2,
						"TEXCOORD_1":3
					},
					"indices":4,
					"material":0
				}
			]
		}
	],
	"textures":[
		{
			"extensions":{
				"EXT_texture_webp":{
					"source":0
				}
			},
			"sampler":0
		}
	],
	"images":[
		{
			"mimeType":"image/webp",
			"name":"PolygonCyberCity_Texture_01_A",
			"uri":"PolygonCyberCity_Texture_01_A.webp"
		}
	],
	"accessors":[
		{
			"bufferView":0,
			"componentType":5126,
			"count":4770,
			"max":[
				173.1577911376953,
				143.32205200195312,
				7.06043815612793
			],
			"min":[
				-157.93008422851562,
				-105.33914947509766,
				-558.3178100585938
			],
			"type":"VEC3"
		},
		{
			"bufferView":1,
			"componentType":5126,
			"count":4770,
			"type":"VEC3"
		},
		{
			"bufferView":2,
			"componentType":5126,
			"count":4770,
			"type":"VEC2"
		},
		{
			"bufferView":3,
			"componentType":5126,
			"count":4770,
			"type":"VEC2"
		},
		{
			"bufferView":4,
			"componentType":5123,
			"count":5154,
			"type":"SCALAR"
		}
	],
	"bufferViews":[
		{
			"buffer":0,
			"byteLength":57240,
			"byteOffset":0,
			"target":34962
		},
		{
			"buffer":0,
			"byteLength":57240,
			"byteOffset":57240,
			"target":34962
		},
		{
			"buffer":0,
			"byteLength":38160,
			"byteOffset":114480,
			"target":34962
		},
		{
			"buffer":0,
			"byteLength":38160,
			"byteOffset":152640,
			"target":34962
		},
		{
			"buffer":0,
			"byteLength":10308,
			"byteOffset":190800,
			"target":34963
		}
	],
	"samplers":[
		{
			"magFilter":9729,
			"minFilter":9987
		}
	],
	"buffers":[
		{
			"byteLength":201108,
			"uri":"cyber_SM_Env_Hologram_Tree_02.bin"
		}
	]
}
