{"asset":{"generator":"Khronos glTF Blender I/O v4.4.55","version":"2.0"},"extensionsUsed":["EXT_texture_webp"],"extensionsRequired":["EXT_texture_webp"],"scene":0,"scenes":[{"name":"Scene","nodes":[0]}],"nodes":[{"mesh":0,"name":"SM_Prop_Rug_02","rotation":[0.7071068286895752,0,0,0.7071068286895752],"scale":[0.009999999776482582,0.009999999776482582,0.009999999776482582]}],"materials":[{"doubleSided":true,"name":"Base_Lambert","pbrMetallicRoughness":{"baseColorTexture":{"index":2},"metallicFactor":0,"roughnessFactor":0.5527864098548889}}],"meshes":[{"name":"Mesh","primitives":[{"attributes":{"POSITION":0,"NORMAL":1,"TEXCOORD_0":2,"TEXCOORD_1":3},"indices":4,"material":0}]}],"textures":[{"extensions":{},"sampler":0},{"extensions":{},"sampler":0},{"extensions":{"EXT_texture_webp":{"source":0}},"sampler":0}],"images":[{"mimeType":"image/webp","name":"Wall_05_Emissive","uri":"Wall_05_Emissive.webp"}],"accessors":[{"bufferView":0,"componentType":5126,"count":450,"max":[77.60311889648438,122.2791748046875,1.1920928955078125e-06],"min":[-77.6004638671875,-122.27842712402344,-6.493255615234375],"type":"VEC3"},{"bufferView":1,"componentType":5126,"count":450,"type":"VEC3"},{"bufferView":2,"componentType":5126,"count":450,"type":"VEC2"},{"bufferView":3,"componentType":5126,"count":450,"type":"VEC2"},{"bufferView":4,"componentType":5123,"count":792,"type":"SCALAR"}],"bufferViews":[{"buffer":0,"byteLength":5400,"byteOffset":0,"target":34962},{"buffer":0,"byteLength":5400,"byteOffset":5400,"target":34962},{"buffer":0,"byteLength":3600,"byteOffset":10800,"target":34962},{"buffer":0,"byteLength":3600,"byteOffset":14400,"target":34962},{"buffer":0,"byteLength":1584,"byteOffset":18000,"target":34963}],"samplers":[{"magFilter":9729,"minFilter":9987}],"buffers":[{"byteLength":19584,"uri":"cyber_SM_Prop_Rug_02.bin"}]}