{"asset":{"generator":"Khronos glTF Blender I/O v4.4.55","version":"2.0"},"extensionsUsed":["EXT_texture_webp"],"extensionsRequired":["EXT_texture_webp"],"scene":0,"scenes":[{"name":"Scene","nodes":[3]}],"nodes":[{"mesh":0,"name":"SM_Prop_Camera_01_Arm_01"},{"mesh":1,"name":"SM_Prop_Camera_01_Base_01"},{"children":[1],"mesh":2,"name":"SM_Prop_Camera_01_Arm_02"},{"children":[0,2],"mesh":3,"name":"SM_Prop_Camera_01","rotation":[0.7071068286895752,0,0,0.7071068286895752],"scale":[0.009999999776482582,0.009999999776482582,0.009999999776482582]}],"materials":[{"doubleSided":true,"name":"Scifi_Cybercity_Main1","pbrMetallicRoughness":{"baseColorTexture":{"index":2},"metallicFactor":0,"roughnessFactor":0.5527864098548889}}],"meshes":[{"name":"Mesh.001","primitives":[{"attributes":{"POSITION":0,"NORMAL":1,"TEXCOORD_0":2},"indices":3,"material":0}]},{"name":"Mesh.003","primitives":[{"attributes":{"POSITION":4,"NORMAL":5,"TEXCOORD_0":6},"indices":7,"material":0}]},{"name":"Mesh.002","primitives":[{"attributes":{"POSITION":8,"NORMAL":9,"TEXCOORD_0":10},"indices":11,"material":0}]},{"name":"Mesh","primitives":[{"attributes":{"POSITION":12,"NORMAL":13,"TEXCOORD_0":14},"indices":15,"material":0}]}],"textures":[{"extensions":{},"sampler":0},{"extensions":{},"sampler":0},{"extensions":{"EXT_texture_webp":{"source":0}},"sampler":0}],"images":[{"mimeType":"image/webp","name":"Wall_05_Emissive","uri":"Wall_05_Emissive.webp"}],"accessors":[{"bufferView":0,"componentType":5126,"count":690,"max":[4.376516342163086,40.442264556884766,27.562557220458984],"min":[-7.073797225952148,8.00766372680664,-0.24045944213867188],"type":"VEC3"},{"bufferView":1,"componentType":5126,"count":690,"type":"VEC3"},{"bufferView":2,"componentType":5126,"count":690,"type":"VEC2"},{"bufferView":3,"componentType":5123,"count":1074,"type":"SCALAR"},{"bufferView":4,"componentType":5126,"count":1914,"max":[13.726737976074219,100.91006469726562,18.16695785522461],"min":[-16.506492614746094,43.167240142822266,-16.418304443359375],"type":"VEC3"},{"bufferView":5,"componentType":5126,"count":1914,"type":"VEC3"},{"bufferView":6,"componentType":5126,"count":1914,"type":"VEC2"},{"bufferView":7,"componentType":5123,"count":3048,"type":"SCALAR"},{"bufferView":8,"componentType":5126,"count":674,"max":[3.1144142150878906,71.92948913574219,29.72891616821289],"min":[-5.811698913574219,36.09134292602539,11.816126823425293],"type":"VEC3"},{"bufferView":9,"componentType":5126,"count":674,"type":"VEC3"},{"bufferView":10,"componentType":5126,"count":674,"type":"VEC2"},{"bufferView":11,"componentType":5123,"count":1050,"type":"SCALAR"},{"bufferView":12,"componentType":5126,"count":200,"max":[12.835693359375,15.657626152038574,19.973697662353516],"min":[-15.2481689453125,-0.9525420665740967,-20.804332733154297],"type":"VEC3"},{"bufferView":13,"componentType":5126,"count":200,"type":"VEC3"},{"bufferView":14,"componentType":5126,"count":200,"type":"VEC2"},{"bufferView":15,"componentType":5123,"count":330,"type":"SCALAR"}],"bufferViews":[{"buffer":0,"byteLength":8280,"byteOffset":0,"target":34962},{"buffer":0,"byteLength":8280,"byteOffset":8280,"target":34962},{"buffer":0,"byteLength":5520,"byteOffset":16560,"target":34962},{"buffer":0,"byteLength":2148,"byteOffset":22080,"target":34963},{"buffer":0,"byteLength":22968,"byteOffset":24228,"target":34962},{"buffer":0,"byteLength":22968,"byteOffset":47196,"target":34962},{"buffer":0,"byteLength":15312,"byteOffset":70164,"target":34962},{"buffer":0,"byteLength":6096,"byteOffset":85476,"target":34963},{"buffer":0,"byteLength":8088,"byteOffset":91572,"target":34962},{"buffer":0,"byteLength":8088,"byteOffset":99660,"target":34962},{"buffer":0,"byteLength":5392,"byteOffset":107748,"target":34962},{"buffer":0,"byteLength":2100,"byteOffset":113140,"target":34963},{"buffer":0,"byteLength":2400,"byteOffset":115240,"target":34962},{"buffer":0,"byteLength":2400,"byteOffset":117640,"target":34962},{"buffer":0,"byteLength":1600,"byteOffset":120040,"target":34962},{"buffer":0,"byteLength":660,"byteOffset":121640,"target":34963}],"samplers":[{"magFilter":9729,"minFilter":9987}],"buffers":[{"byteLength":122300,"uri":"cyber_SM_Prop_Camera_01.bin"}]}