{"asset":{"generator":"Khronos glTF Blender I/O v4.4.55","version":"2.0"},"extensionsUsed":["EXT_texture_webp"],"extensionsRequired":["EXT_texture_webp"],"scene":0,"scenes":[{"name":"Scene","nodes":[0]}],"nodes":[{"mesh":0,"name":"SM_Prop_NeonSign_04","rotation":[0.7071068286895752,0,0,0.7071068286895752],"scale":[0.009999999776482582,0.009999999776482582,0.009999999776482582]}],"materials":[{"doubleSided":true,"name":"Scifi_Cybercity_Main","pbrMetallicRoughness":{"baseColorTexture":{"index":2},"metallicFactor":0,"roughnessFactor":0.5527864098548889}}],"meshes":[{"name":"Mesh","primitives":[{"attributes":{"POSITION":0,"NORMAL":1,"TEXCOORD_0":2},"indices":3,"material":0}]}],"textures":[{"extensions":{},"sampler":0},{"extensions":{},"sampler":0},{"extensions":{"EXT_texture_webp":{"source":0}},"sampler":0}],"images":[{"mimeType":"image/webp","name":"Wall_05_Emissive","uri":"Wall_05_Emissive.webp"}],"accessors":[{"bufferView":0,"componentType":5126,"count":1222,"max":[157.12306213378906,3.35888671875,43.168701171875],"min":[-157.1230926513672,-3.35888671875,-43.168701171875],"type":"VEC3"},{"bufferView":1,"componentType":5126,"count":1222,"type":"VEC3"},{"bufferView":2,"componentType":5126,"count":1222,"type":"VEC2"},{"bufferView":3,"componentType":5123,"count":2064,"type":"SCALAR"}],"bufferViews":[{"buffer":0,"byteLength":14664,"byteOffset":0,"target":34962},{"buffer":0,"byteLength":14664,"byteOffset":14664,"target":34962},{"buffer":0,"byteLength":9776,"byteOffset":29328,"target":34962},{"buffer":0,"byteLength":4128,"byteOffset":39104,"target":34963}],"samplers":[{"magFilter":9729,"minFilter":9987}],"buffers":[{"byteLength":43232,"uri":"cyber_SM_Prop_NeonSign_04.bin"}]}