{
	"asset":{
		"generator":"Khronos glTF Blender I/O v4.4.55",
		"version":"2.0"
	},
	"extensionsUsed":[
		"EXT_texture_webp"
	],
	"extensionsRequired":[
		"EXT_texture_webp"
	],
	"scene":0,
	"scenes":[
		{
			"name":"Scene",
			"nodes":[
				0
			]
		}
	],
	"nodes":[
		{
			"mesh":0,
			"name":"SM_Prop_Robot_Posed_Hanging_01",
			"rotation":[
				0.7071068286895752,
				0,
				0,
				0.7071068286895752
			],
			"scale":[
				0.009999999776482582,
				0.009999999776482582,
				0.009999999776482582
			]
		}
	],
	"materials":[
		{
			"doubleSided":true,
			"name":"roboguy_lambert4SG17",
			"pbrMetallicRoughness":{
				"baseColorTexture":{
					"index":0
				},
				"metallicFactor":0,
				"roughnessFactor":0.5527864098548889
			}
		}
	],
	"meshes":[
		{
			"name":"Mesh",
			"primitives":[
				{
					"attributes":{
						"POSITION":0,
						"NORMAL":1,
						"TEXCOORD_0":2
					},
					"indices":3,
					"material":0
				}
			]
		}
	],
	"textures":[
		{
			"extensions":{
				"EXT_texture_webp":{
					"source":0
				}
			},
			"sampler":0
		}
	],
	"images":[
		{
			"mimeType":"image/webp",
			"name":"PolygonCyberCity_Texture_01_A",
			"uri":"PolygonCyberCity_Texture_01_A.webp"
		}
	],
	"accessors":[
		{
			"bufferView":0,
			"componentType":5126,
			"count":6331,
			"max":[
				60.073883056640625,
				34.614994049072266,
				-12.580984115600586
			],
			"min":[
				-73.6727294921875,
				-3.1549158096313477,
				-213.78602600097656
			],
			"type":"VEC3"
		},
		{
			"bufferView":1,
			"componentType":5126,
			"count":6331,
			"type":"VEC3"
		},
		{
			"bufferView":2,
			"componentType":5126,
			"count":6331,
			"type":"VEC2"
		},
		{
			"bufferView":3,
			"componentType":5123,
			"count":8847,
			"type":"SCALAR"
		}
	],
	"bufferViews":[
		{
			"buffer":0,
			"byteLength":75972,
			"byteOffset":0,
			"target":34962
		},
		{
			"buffer":0,
			"byteLength":75972,
			"byteOffset":75972,
			"target":34962
		},
		{
			"buffer":0,
			"byteLength":50648,
			"byteOffset":151944,
			"target":34962
		},
		{
			"buffer":0,
			"byteLength":17694,
			"byteOffset":202592,
			"target":34963
		}
	],
	"samplers":[
		{
			"magFilter":9729,
			"minFilter":9987
		}
	],
	"buffers":[
		{
			"byteLength":220288,
			"uri":"cyber_SM_Prop_Robot_Posed_Hanging_01.bin"
		}
	]
}
