{"asset":{"generator":"Khronos glTF Blender I/O v4.4.55","version":"2.0"},"extensionsUsed":["EXT_texture_webp"],"extensionsRequired":["EXT_texture_webp"],"scene":0,"scenes":[{"name":"Scene","nodes":[0]}],"nodes":[{"mesh":0,"name":"SM_Prop_Street_Light_12","rotation":[0.7071068286895752,0,0,0.7071068286895752],"scale":[0.009999999776482582,0.009999999776482582,0.009999999776482582]}],"materials":[{"doubleSided":true,"name":"Scifi_Cybercity_Main","pbrMetallicRoughness":{"baseColorTexture":{"index":2},"metallicFactor":0,"roughnessFactor":0.5527864098548889}}],"meshes":[{"name":"Mesh","primitives":[{"attributes":{"POSITION":0,"NORMAL":1,"TEXCOORD_0":2},"indices":3,"material":0}]}],"textures":[{"extensions":{},"sampler":0},{"extensions":{},"sampler":0},{"extensions":{"EXT_texture_webp":{"source":0}},"sampler":0}],"images":[{"mimeType":"image/webp","name":"Wall_05_Emissive","uri":"Wall_05_Emissive.webp"}],"accessors":[{"bufferView":0,"componentType":5126,"count":186,"max":[83.57492065429688,16.182788848876953,9.293136596679688],"min":[-83.57492065429688,-0.2287454605102539,-9.293136596679688],"type":"VEC3"},{"bufferView":1,"componentType":5126,"count":186,"type":"VEC3"},{"bufferView":2,"componentType":5126,"count":186,"type":"VEC2"},{"bufferView":3,"componentType":5123,"count":306,"type":"SCALAR"}],"bufferViews":[{"buffer":0,"byteLength":2232,"byteOffset":0,"target":34962},{"buffer":0,"byteLength":2232,"byteOffset":2232,"target":34962},{"buffer":0,"byteLength":1488,"byteOffset":4464,"target":34962},{"buffer":0,"byteLength":612,"byteOffset":5952,"target":34963}],"samplers":[{"magFilter":9729,"minFilter":9987}],"buffers":[{"byteLength":6564,"uri":"cyber_SM_Prop_Street_Light_12.bin"}]}