{"asset":{"generator":"Khronos glTF Blender I/O v4.4.55","version":"2.0"},"extensionsUsed":["EXT_texture_webp"],"extensionsRequired":["EXT_texture_webp"],"scene":0,"scenes":[{"name":"Scene","nodes":[1]}],"nodes":[{"mesh":0,"name":"SM_Prop_Lamp_01_Glass_01"},{"children":[0],"mesh":1,"name":"SM_Prop_Lamp_01","rotation":[0.7071068286895752,0,0,0.7071068286895752],"scale":[0.009999999776482582,0.009999999776482582,0.009999999776482582]}],"materials":[{"alphaMode":"MASK","doubleSided":true,"name":"Base_Lambert1","pbrMetallicRoughness":{"baseColorFactor":[1,1,1,0.4345238208770752],"baseColorTexture":{"index":1},"metallicFactor":0,"roughnessFactor":0.5527864098548889},"alphaCutoff":0.5},{"doubleSided":true,"name":"MAT_01A","pbrMetallicRoughness":{"baseColorTexture":{"index":3},"metallicFactor":0,"roughnessFactor":0.5527864098548889}}],"meshes":[{"name":"Mesh.001","primitives":[{"attributes":{"POSITION":0,"NORMAL":1,"TEXCOORD_0":2},"indices":3,"material":0}]},{"name":"Mesh","primitives":[{"attributes":{"POSITION":4,"NORMAL":5,"TEXCOORD_0":6},"indices":7,"material":1}]}],"textures":[{"extensions":{},"sampler":0},{"extensions":{"EXT_texture_webp":{"source":0}},"sampler":0},{"extensions":{},"sampler":0},{"extensions":{"EXT_texture_webp":{"source":1}},"sampler":0}],"images":[{"mimeType":"image/webp","name":"Wall_05_Emissive","uri":"Wall_05_Emissive.webp"},{"mimeType":"image/webp","name":"PolygonCyberCity_Texture_01_A","uri":"PolygonCyberCity_Texture_01_A.webp"}],"accessors":[{"bufferView":0,"componentType":5126,"count":20,"max":[12.694048881530762,11.241623878479004,-314.5941162109375],"min":[-12.694048881530762,-8.704207420349121,-356.0429382324219],"type":"VEC3"},{"bufferView":1,"componentType":5126,"count":20,"type":"VEC3"},{"bufferView":2,"componentType":5126,"count":20,"type":"VEC2"},{"bufferView":3,"componentType":5123,"count":30,"type":"SCALAR"},{"bufferView":4,"componentType":5126,"count":724,"max":[16.050642013549805,13.900262832641602,-3.814697265625e-06],"min":[-16.050642013549805,-14.37721061706543,-375.5939025878906],"type":"VEC3"},{"bufferView":5,"componentType":5126,"count":724,"type":"VEC3"},{"bufferView":6,"componentType":5126,"count":724,"type":"VEC2"},{"bufferView":7,"componentType":5123,"count":1155,"type":"SCALAR"}],"bufferViews":[{"buffer":0,"byteLength":240,"byteOffset":0,"target":34962},{"buffer":0,"byteLength":240,"byteOffset":240,"target":34962},{"buffer":0,"byteLength":160,"byteOffset":480,"target":34962},{"buffer":0,"byteLength":60,"byteOffset":640,"target":34963},{"buffer":0,"byteLength":8688,"byteOffset":700,"target":34962},{"buffer":0,"byteLength":8688,"byteOffset":9388,"target":34962},{"buffer":0,"byteLength":5792,"byteOffset":18076,"target":34962},{"buffer":0,"byteLength":2310,"byteOffset":23868,"target":34963}],"samplers":[{"magFilter":9729,"minFilter":9987}],"buffers":[{"byteLength":26180,"uri":"cyber_SM_Prop_Lamp_01.bin"}]}