{"asset":{"generator":"Khronos glTF Blender I/O v4.4.55","version":"2.0"},"extensionsUsed":["EXT_texture_webp"],"extensionsRequired":["EXT_texture_webp"],"scene":0,"scenes":[{"name":"Scene","nodes":[9]}],"nodes":[{"mesh":0,"name":"SM_Prop_Drone_04_LeftArm_02"},{"children":[0],"mesh":1,"name":"SM_Prop_Drone_04_LeftArm_01"},{"mesh":2,"name":"SM_Prop_Drone_04_Claw_01"},{"mesh":3,"name":"SM_Prop_Drone_04_Claw_02"},{"children":[2,3],"mesh":4,"name":"SM_Prop_Drone_04_Swivel_01"},{"children":[4],"mesh":5,"name":"SM_Prop_Drone_04_RightArm_02"},{"children":[5],"mesh":6,"name":"SM_Prop_Drone_04_RightArm_01"},{"mesh":7,"name":"SM_Prop_Drone_04_Scope_01"},{"mesh":8,"name":"SM_Prop_Drone_04_Scope_02"},{"children":[1,6,7,8],"mesh":9,"name":"SM_Prop_Drone_04","rotation":[0.7071068286895752,0,0,0.7071068286895752],"scale":[0.009999999776482582,0.009999999776482582,0.009999999776482582]}],"materials":[{"doubleSided":true,"name":"MAT_01A1","pbrMetallicRoughness":{"baseColorTexture":{"index":1},"metallicFactor":0,"roughnessFactor":0.5527864098548889}}],"meshes":[{"name":"Mesh.004","primitives":[{"attributes":{"POSITION":0,"NORMAL":1,"TEXCOORD_0":2},"indices":3,"material":0}]},{"name":"Mesh.003","primitives":[{"attributes":{"POSITION":4,"NORMAL":5,"TEXCOORD_0":6},"indices":7,"material":0}]},{"name":"Mesh.008","primitives":[{"attributes":{"POSITION":8,"NORMAL":9,"TEXCOORD_0":10},"indices":11,"material":0}]},{"name":"Mesh.009","primitives":[{"attributes":{"POSITION":12,"NORMAL":13,"TEXCOORD_0":14},"indices":15,"material":0}]},{"name":"Mesh.007","primitives":[{"attributes":{"POSITION":16,"NORMAL":17,"TEXCOORD_0":18},"indices":19,"material":0}]},{"name":"Mesh.006","primitives":[{"attributes":{"POSITION":20,"NORMAL":21,"TEXCOORD_0":22},"indices":23,"material":0}]},{"name":"Mesh.005","primitives":[{"attributes":{"POSITION":24,"NORMAL":25,"TEXCOORD_0":26},"indices":27,"material":0}]},{"name":"Mesh.001","primitives":[{"attributes":{"POSITION":28,"NORMAL":29,"TEXCOORD_0":30},"indices":31,"material":0}]},{"name":"Mesh.002","primitives":[{"attributes":{"POSITION":32,"NORMAL":33,"TEXCOORD_0":34},"indices":35,"material":0}]},{"name":"Mesh","primitives":[{"attributes":{"POSITION":36,"NORMAL":37,"TEXCOORD_0":38},"indices":39,"material":0}]}],"textures":[{"extensions":{},"sampler":0},{"extensions":{"EXT_texture_webp":{"source":0}},"sampler":0}],"images":[{"mimeType":"image/webp","name":"PolygonCyberCity_Texture_01_A","uri":"PolygonCyberCity_Texture_01_A.webp"}],"accessors":[{"bufferView":0,"componentType":5126,"count":1714,"max":[44.0296630859375,152.762451171875,56.413169860839844],"min":[28.486328125,47.6121826171875,10.538482666015625],"type":"VEC3"},{"bufferView":1,"componentType":5126,"count":1714,"type":"VEC3"},{"bufferView":2,"componentType":5126,"count":1714,"type":"VEC2"},{"bufferView":3,"componentType":5123,"count":2652,"type":"SCALAR"},{"bufferView":4,"componentType":5126,"count":364,"max":[47.0093994140625,49.78009033203125,44.43232727050781],"min":[25.1168212890625,-14.53729248046875,25.476242065429688],"type":"VEC3"},{"bufferView":5,"componentType":5126,"count":364,"type":"VEC3"},{"bufferView":6,"componentType":5126,"count":364,"type":"VEC2"},{"bufferView":7,"componentType":5123,"count":588,"type":"SCALAR"},{"bufferView":8,"componentType":5126,"count":282,"max":[-22.116670608520508,157.22386169433594,41.29756164550781],"min":[-36.74298095703125,120.94671630859375,29.742645263671875],"type":"VEC3"},{"bufferView":9,"componentType":5126,"count":282,"type":"VEC3"},{"bufferView":10,"componentType":5126,"count":282,"type":"VEC2"},{"bufferView":11,"componentType":5123,"count":450,"type":"SCALAR"},{"bufferView":12,"componentType":5126,"count":282,"max":[-36.869258880615234,157.2139434814453,41.296783447265625],"min":[-51.421077728271484,120.8636474609375,29.71527099609375],"type":"VEC3"},{"bufferView":13,"componentType":5126,"count":282,"type":"VEC3"},{"bufferView":14,"componentType":5126,"count":282,"type":"VEC2"},{"bufferView":15,"componentType":5123,"count":450,"type":"SCALAR"},{"bufferView":16,"componentType":5126,"count":84,"max":[-27.970155715942383,125.693603515625,39.90776062011719],"min":[-44.90679931640625,111.109130859375,31.032318115234375],"type":"VEC3"},{"bufferView":17,"componentType":5126,"count":84,"type":"VEC3"},{"bufferView":18,"componentType":5126,"count":84,"type":"VEC2"},{"bufferView":19,"componentType":5123,"count":132,"type":"SCALAR"},{"bufferView":20,"componentType":5126,"count":388,"max":[-28.46746826171875,112.55377197265625,44.452850341796875],"min":[-44.202880859375,48.624267578125,26.301162719726562],"type":"VEC3"},{"bufferView":21,"componentType":5126,"count":388,"type":"VEC3"},{"bufferView":22,"componentType":5126,"count":388,"type":"VEC2"},{"bufferView":23,"componentType":5123,"count":624,"type":"SCALAR"},{"bufferView":24,"componentType":5126,"count":364,"max":[-25.124267578125,49.77740478515625,44.440887451171875],"min":[-47.016845703125,-14.5584716796875,25.4853515625],"type":"VEC3"},{"bufferView":25,"componentType":5126,"count":364,"type":"VEC3"},{"bufferView":26,"componentType":5126,"count":364,"type":"VEC2"},{"bufferView":27,"componentType":5123,"count":588,"type":"SCALAR"},{"bufferView":28,"componentType":5126,"count":431,"max":[64.66015625,27.34991455078125,5.2222137451171875],"min":[50.904296875,-33.12353515625,-8.266708374023438],"type":"VEC3"},{"bufferView":29,"componentType":5126,"count":431,"type":"VEC3"},{"bufferView":30,"componentType":5126,"count":431,"type":"VEC2"},{"bufferView":31,"componentType":5123,"count":678,"type":"SCALAR"},{"bufferView":32,"componentType":5126,"count":430,"max":[-45.32391357421875,32.2230224609375,4.2691802978515625],"min":[-59.07989501953125,-28.25042724609375,-9.219741821289062],"type":"VEC3"},{"bufferView":33,"componentType":5126,"count":430,"type":"VEC3"},{"bufferView":34,"componentType":5126,"count":430,"type":"VEC2"},{"bufferView":35,"componentType":5123,"count":672,"type":"SCALAR"},{"bufferView":36,"componentType":5126,"count":3026,"max":[52.3568115234375,45.70001220703125,56.63983917236328],"min":[-47.42498779296875,-35.772705078125,-32.15876770019531],"type":"VEC3"},{"bufferView":37,"componentType":5126,"count":3026,"type":"VEC3"},{"bufferView":38,"componentType":5126,"count":3026,"type":"VEC2"},{"bufferView":39,"componentType":5123,"count":4866,"type":"SCALAR"}],"bufferViews":[{"buffer":0,"byteLength":20568,"byteOffset":0,"target":34962},{"buffer":0,"byteLength":20568,"byteOffset":20568,"target":34962},{"buffer":0,"byteLength":13712,"byteOffset":41136,"target":34962},{"buffer":0,"byteLength":5304,"byteOffset":54848,"target":34963},{"buffer":0,"byteLength":4368,"byteOffset":60152,"target":34962},{"buffer":0,"byteLength":4368,"byteOffset":64520,"target":34962},{"buffer":0,"byteLength":2912,"byteOffset":68888,"target":34962},{"buffer":0,"byteLength":1176,"byteOffset":71800,"target":34963},{"buffer":0,"byteLength":3384,"byteOffset":72976,"target":34962},{"buffer":0,"byteLength":3384,"byteOffset":76360,"target":34962},{"buffer":0,"byteLength":2256,"byteOffset":79744,"target":34962},{"buffer":0,"byteLength":900,"byteOffset":82000,"target":34963},{"buffer":0,"byteLength":3384,"byteOffset":82900,"target":34962},{"buffer":0,"byteLength":3384,"byteOffset":86284,"target":34962},{"buffer":0,"byteLength":2256,"byteOffset":89668,"target":34962},{"buffer":0,"byteLength":900,"byteOffset":91924,"target":34963},{"buffer":0,"byteLength":1008,"byteOffset":92824,"target":34962},{"buffer":0,"byteLength":1008,"byteOffset":93832,"target":34962},{"buffer":0,"byteLength":672,"byteOffset":94840,"target":34962},{"buffer":0,"byteLength":264,"byteOffset":95512,"target":34963},{"buffer":0,"byteLength":4656,"byteOffset":95776,"target":34962},{"buffer":0,"byteLength":4656,"byteOffset":100432,"target":34962},{"buffer":0,"byteLength":3104,"byteOffset":105088,"target":34962},{"buffer":0,"byteLength":1248,"byteOffset":108192,"target":34963},{"buffer":0,"byteLength":4368,"byteOffset":109440,"target":34962},{"buffer":0,"byteLength":4368,"byteOffset":113808,"target":34962},{"buffer":0,"byteLength":2912,"byteOffset":118176,"target":34962},{"buffer":0,"byteLength":1176,"byteOffset":121088,"target":34963},{"buffer":0,"byteLength":5172,"byteOffset":122264,"target":34962},{"buffer":0,"byteLength":5172,"byteOffset":127436,"target":34962},{"buffer":0,"byteLength":3448,"byteOffset":132608,"target":34962},{"buffer":0,"byteLength":1356,"byteOffset":136056,"target":34963},{"buffer":0,"byteLength":5160,"byteOffset":137412,"target":34962},{"buffer":0,"byteLength":5160,"byteOffset":142572,"target":34962},{"buffer":0,"byteLength":3440,"byteOffset":147732,"target":34962},{"buffer":0,"byteLength":1344,"byteOffset":151172,"target":34963},{"buffer":0,"byteLength":36312,"byteOffset":152516,"target":34962},{"buffer":0,"byteLength":36312,"byteOffset":188828,"target":34962},{"buffer":0,"byteLength":24208,"byteOffset":225140,"target":34962},{"buffer":0,"byteLength":9732,"byteOffset":249348,"target":34963}],"samplers":[{"magFilter":9729,"minFilter":9987}],"buffers":[{"byteLength":259080,"uri":"cyber_SM_Prop_Drone_04.bin"}]}