{"asset":{"generator":"Khronos glTF Blender I/O v4.4.55","version":"2.0"},"extensionsUsed":["EXT_texture_webp"],"extensionsRequired":["EXT_texture_webp"],"scene":0,"scenes":[{"name":"Scene","nodes":[0]}],"nodes":[{"mesh":0,"name":"SM_Prop_Pipe_Junction_Attatchment_07","rotation":[0.7071068286895752,0,0,0.7071068286895752],"scale":[0.009999999776482582,0.009999999776482582,0.009999999776482582]}],"materials":[{"doubleSided":true,"name":"Base_Lambert","pbrMetallicRoughness":{"baseColorTexture":{"index":2},"metallicFactor":0,"roughnessFactor":0.5527864098548889}}],"meshes":[{"name":"Mesh","primitives":[{"attributes":{"POSITION":0,"NORMAL":1,"TEXCOORD_0":2},"indices":3,"material":0}]}],"textures":[{"extensions":{},"sampler":0},{"extensions":{},"sampler":0},{"extensions":{"EXT_texture_webp":{"source":0}},"sampler":0}],"images":[{"mimeType":"image/webp","name":"Wall_05_Emissive","uri":"Wall_05_Emissive.webp"}],"accessors":[{"bufferView":0,"componentType":5126,"count":822,"max":[56.84048080444336,56.84050369262695,-56.840545654296875],"min":[-56.84050369262695,-56.84053039550781,-78.09139251708984],"type":"VEC3"},{"bufferView":1,"componentType":5126,"count":822,"type":"VEC3"},{"bufferView":2,"componentType":5126,"count":822,"type":"VEC2"},{"bufferView":3,"componentType":5123,"count":1338,"type":"SCALAR"}],"bufferViews":[{"buffer":0,"byteLength":9864,"byteOffset":0,"target":34962},{"buffer":0,"byteLength":9864,"byteOffset":9864,"target":34962},{"buffer":0,"byteLength":6576,"byteOffset":19728,"target":34962},{"buffer":0,"byteLength":2676,"byteOffset":26304,"target":34963}],"samplers":[{"magFilter":9729,"minFilter":9987}],"buffers":[{"byteLength":28980,"uri":"cyber_SM_Prop_Pipe_Junction_Attatchment_07.bin"}]}