{"asset":{"generator":"Khronos glTF Blender I/O v4.4.55","version":"2.0"},"extensionsUsed":["EXT_texture_webp"],"extensionsRequired":["EXT_texture_webp"],"scene":0,"scenes":[{"name":"Scene","nodes":[1]}],"nodes":[{"mesh":0,"name":"SM_Prop_Cuff_01_Hinge_01"},{"children":[0],"mesh":1,"name":"SM_Prop_Cuff_01","rotation":[0.7071068286895752,0,0,0.7071068286895752],"scale":[0.009999999776482582,0.009999999776482582,0.009999999776482582]}],"materials":[{"doubleSided":true,"name":"Base_Lambert","pbrMetallicRoughness":{"baseColorTexture":{"index":2},"metallicFactor":0,"roughnessFactor":0.5527864098548889}}],"meshes":[{"name":"Mesh.001","primitives":[{"attributes":{"POSITION":0,"NORMAL":1,"TEXCOORD_0":2},"indices":3,"material":0}]},{"name":"Mesh","primitives":[{"attributes":{"POSITION":4,"NORMAL":5,"TEXCOORD_0":6},"indices":7,"material":0}]}],"textures":[{"extensions":{},"sampler":0},{"extensions":{},"sampler":0},{"extensions":{"EXT_texture_webp":{"source":0}},"sampler":0}],"images":[{"mimeType":"image/webp","name":"Wall_05_Emissive","uri":"Wall_05_Emissive.webp"}],"accessors":[{"bufferView":0,"componentType":5126,"count":126,"max":[5.751443862915039,3.636565685272217,1.4852328300476074],"min":[-5.862983703613281,-3.636565685272217,-5.751443386077881],"type":"VEC3"},{"bufferView":1,"componentType":5126,"count":126,"type":"VEC3"},{"bufferView":2,"componentType":5126,"count":126,"type":"VEC2"},{"bufferView":3,"componentType":5123,"count":210,"type":"SCALAR"},{"bufferView":4,"componentType":5126,"count":76,"max":[5.751443862915039,2.9209399223327637,5.751443386077881],"min":[-5.751443386077881,-2.9209399223327637,-0.8238075375556946],"type":"VEC3"},{"bufferView":5,"componentType":5126,"count":76,"type":"VEC3"},{"bufferView":6,"componentType":5126,"count":76,"type":"VEC2"},{"bufferView":7,"componentType":5123,"count":132,"type":"SCALAR"}],"bufferViews":[{"buffer":0,"byteLength":1512,"byteOffset":0,"target":34962},{"buffer":0,"byteLength":1512,"byteOffset":1512,"target":34962},{"buffer":0,"byteLength":1008,"byteOffset":3024,"target":34962},{"buffer":0,"byteLength":420,"byteOffset":4032,"target":34963},{"buffer":0,"byteLength":912,"byteOffset":4452,"target":34962},{"buffer":0,"byteLength":912,"byteOffset":5364,"target":34962},{"buffer":0,"byteLength":608,"byteOffset":6276,"target":34962},{"buffer":0,"byteLength":264,"byteOffset":6884,"target":34963}],"samplers":[{"magFilter":9729,"minFilter":9987}],"buffers":[{"byteLength":7148,"uri":"cyber_SM_Prop_Cuff_01.bin"}]}