{"asset":{"generator":"Khronos glTF Blender I/O v4.4.55","version":"2.0"},"extensionsUsed":["EXT_texture_webp"],"extensionsRequired":["EXT_texture_webp"],"scene":0,"scenes":[{"name":"Scene","nodes":[1]}],"nodes":[{"mesh":0,"name":"SM_Prop_Pill_Dispenser_01_Handle_01"},{"children":[0],"mesh":1,"name":"SM_Prop_Pill_Dispenser_01","rotation":[0.7071068286895752,0,0,0.7071068286895752],"scale":[0.009999999776482582,0.009999999776482582,0.009999999776482582]}],"materials":[{"doubleSided":true,"name":"Base_Lambert","pbrMetallicRoughness":{"baseColorTexture":{"index":2},"metallicFactor":0,"roughnessFactor":0.5527864098548889}}],"meshes":[{"name":"Mesh.001","primitives":[{"attributes":{"POSITION":0,"NORMAL":1,"TEXCOORD_0":2},"indices":3,"material":0}]},{"name":"Mesh","primitives":[{"attributes":{"POSITION":4,"NORMAL":5,"TEXCOORD_0":6},"indices":7,"material":0}]}],"textures":[{"extensions":{},"sampler":0},{"extensions":{},"sampler":0},{"extensions":{"EXT_texture_webp":{"source":0}},"sampler":0}],"images":[{"mimeType":"image/webp","name":"Wall_05_Emissive","uri":"Wall_05_Emissive.webp"}],"accessors":[{"bufferView":0,"componentType":5126,"count":120,"max":[1.4624059200286865,14.433320045471191,-103.76746368408203],"min":[-9.284907341003418,10.368237495422363,-109.856201171875],"type":"VEC3"},{"bufferView":1,"componentType":5126,"count":120,"type":"VEC3"},{"bufferView":2,"componentType":5126,"count":120,"type":"VEC2"},{"bufferView":3,"componentType":5123,"count":192,"type":"SCALAR"},{"bufferView":4,"componentType":5126,"count":1561,"max":[23.860538482666016,24.582324981689453,5.245208740234375e-06],"min":[-23.860538482666016,-27.565872192382812,-191.98977661132812],"type":"VEC3"},{"bufferView":5,"componentType":5126,"count":1561,"type":"VEC3"},{"bufferView":6,"componentType":5126,"count":1561,"type":"VEC2"},{"bufferView":7,"componentType":5123,"count":2574,"type":"SCALAR"}],"bufferViews":[{"buffer":0,"byteLength":1440,"byteOffset":0,"target":34962},{"buffer":0,"byteLength":1440,"byteOffset":1440,"target":34962},{"buffer":0,"byteLength":960,"byteOffset":2880,"target":34962},{"buffer":0,"byteLength":384,"byteOffset":3840,"target":34963},{"buffer":0,"byteLength":18732,"byteOffset":4224,"target":34962},{"buffer":0,"byteLength":18732,"byteOffset":22956,"target":34962},{"buffer":0,"byteLength":12488,"byteOffset":41688,"target":34962},{"buffer":0,"byteLength":5148,"byteOffset":54176,"target":34963}],"samplers":[{"magFilter":9729,"minFilter":9987}],"buffers":[{"byteLength":59324,"uri":"cyber_SM_Prop_Pill_Dispenser_01.bin"}]}