{"asset":{"generator":"Khronos glTF Blender I/O v4.4.55","version":"2.0"},"extensionsUsed":["EXT_texture_webp"],"extensionsRequired":["EXT_texture_webp"],"scene":0,"scenes":[{"name":"Scene","nodes":[1]}],"nodes":[{"mesh":0,"name":"SM_Bld_Railing_Base_Rail_Stairs_HoloWall"},{"children":[0],"mesh":1,"name":"SM_Bld_Railing_Rail_Stairs_02","rotation":[0.7071068286895752,0,0,0.7071068286895752],"scale":[0.009999999776482582,0.009999999776482582,0.009999999776482582]}],"materials":[{"doubleSided":true,"name":"Base_Lambert","pbrMetallicRoughness":{"baseColorTexture":{"index":2},"metallicFactor":0,"roughnessFactor":0.5527864098548889}}],"meshes":[{"name":"Mesh.001","primitives":[{"attributes":{"POSITION":0,"NORMAL":1,"TEXCOORD_0":2},"indices":3,"material":0}]},{"name":"Mesh","primitives":[{"attributes":{"POSITION":4,"NORMAL":5,"TEXCOORD_0":6},"indices":7,"material":0}]}],"textures":[{"extensions":{},"sampler":0},{"extensions":{},"sampler":0},{"extensions":{"EXT_texture_webp":{"source":0}},"sampler":0}],"images":[{"mimeType":"image/webp","name":"Wall_05_Emissive","uri":"Wall_05_Emissive.webp"}],"accessors":[{"bufferView":0,"componentType":5126,"count":8,"max":[236.8154296875,16.39013671875,-59.994686126708984],"min":[18.579147338867188,16.39013671875,-239.2716064453125],"type":"VEC3"},{"bufferView":1,"componentType":5126,"count":8,"type":"VEC3"},{"bufferView":2,"componentType":5126,"count":8,"type":"VEC2"},{"bufferView":3,"componentType":5123,"count":18,"type":"SCALAR"},{"bufferView":4,"componentType":5126,"count":464,"max":[249.9991455078125,24.225128173828125,-36.566139221191406],"min":[0,6.4505615234375,-261.7032470703125],"type":"VEC3"},{"bufferView":5,"componentType":5126,"count":464,"type":"VEC3"},{"bufferView":6,"componentType":5126,"count":464,"type":"VEC2"},{"bufferView":7,"componentType":5123,"count":756,"type":"SCALAR"}],"bufferViews":[{"buffer":0,"byteLength":96,"byteOffset":0,"target":34962},{"buffer":0,"byteLength":96,"byteOffset":96,"target":34962},{"buffer":0,"byteLength":64,"byteOffset":192,"target":34962},{"buffer":0,"byteLength":36,"byteOffset":256,"target":34963},{"buffer":0,"byteLength":5568,"byteOffset":292,"target":34962},{"buffer":0,"byteLength":5568,"byteOffset":5860,"target":34962},{"buffer":0,"byteLength":3712,"byteOffset":11428,"target":34962},{"buffer":0,"byteLength":1512,"byteOffset":15140,"target":34963}],"samplers":[{"magFilter":9729,"minFilter":9987}],"buffers":[{"byteLength":16652,"uri":"cyber_SM_Bld_Railing_Rail_Stairs_02.bin"}]}