{"asset":{"generator":"Khronos glTF Blender I/O v4.4.55","version":"2.0"},"extensionsUsed":["EXT_texture_webp"],"extensionsRequired":["EXT_texture_webp"],"scene":0,"scenes":[{"name":"Scene","nodes":[0]}],"nodes":[{"mesh":0,"name":"SM_Prop_Manholes_06","rotation":[0.7071068286895752,0,0,0.7071068286895752],"scale":[0.009999999776482582,0.009999999776482582,0.009999999776482582]}],"materials":[{"doubleSided":true,"name":"Scifi_Cybercity_Main","pbrMetallicRoughness":{"baseColorTexture":{"index":2},"metallicFactor":0,"roughnessFactor":0.5527864098548889}}],"meshes":[{"name":"Mesh","primitives":[{"attributes":{"POSITION":0,"NORMAL":1,"TEXCOORD_0":2},"indices":3,"material":0}]}],"textures":[{"extensions":{},"sampler":0},{"extensions":{},"sampler":0},{"extensions":{"EXT_texture_webp":{"source":0}},"sampler":0}],"images":[{"mimeType":"image/webp","name":"Wall_05_Emissive","uri":"Wall_05_Emissive.webp"}],"accessors":[{"bufferView":0,"componentType":5126,"count":800,"max":[74.1002197265625,64.53462219238281,0],"min":[-74.1002197265625,-64.53462219238281,-20.33045196533203],"type":"VEC3"},{"bufferView":1,"componentType":5126,"count":800,"type":"VEC3"},{"bufferView":2,"componentType":5126,"count":800,"type":"VEC2"},{"bufferView":3,"componentType":5123,"count":1254,"type":"SCALAR"}],"bufferViews":[{"buffer":0,"byteLength":9600,"byteOffset":0,"target":34962},{"buffer":0,"byteLength":9600,"byteOffset":9600,"target":34962},{"buffer":0,"byteLength":6400,"byteOffset":19200,"target":34962},{"buffer":0,"byteLength":2508,"byteOffset":25600,"target":34963}],"samplers":[{"magFilter":9729,"minFilter":9987}],"buffers":[{"byteLength":28108,"uri":"cyber_SM_Prop_Manholes_06.bin"}]}