{"asset":{"generator":"Khronos glTF Blender I/O v4.4.55","version":"2.0"},"extensionsUsed":["EXT_texture_webp"],"extensionsRequired":["EXT_texture_webp"],"scene":0,"scenes":[{"name":"Scene","nodes":[0]}],"nodes":[{"mesh":0,"name":"SM_Bld_Pipe_Large_Group_01","rotation":[0.7071068286895752,0,0,0.7071068286895752],"scale":[0.009999999776482582,0.009999999776482582,0.009999999776482582]}],"materials":[{"doubleSided":true,"name":"Base_Lambert","pbrMetallicRoughness":{"baseColorTexture":{"index":2},"metallicFactor":0,"roughnessFactor":0.5527864098548889}}],"meshes":[{"name":"Mesh","primitives":[{"attributes":{"POSITION":0,"NORMAL":1,"TEXCOORD_0":2},"indices":3,"material":0}]}],"textures":[{"extensions":{},"sampler":0},{"extensions":{},"sampler":0},{"extensions":{"EXT_texture_webp":{"source":0}},"sampler":0}],"images":[{"mimeType":"image/webp","name":"Wall_05_Emissive","uri":"Wall_05_Emissive.webp"}],"accessors":[{"bufferView":0,"componentType":5126,"count":2628,"max":[500,54.53948974609375,55.011009216308594],"min":[-2.5041519422300262e-14,-57.16986083984375,-50.0283203125],"type":"VEC3"},{"bufferView":1,"componentType":5126,"count":2628,"type":"VEC3"},{"bufferView":2,"componentType":5126,"count":2628,"type":"VEC2"},{"bufferView":3,"componentType":5123,"count":4704,"type":"SCALAR"}],"bufferViews":[{"buffer":0,"byteLength":31536,"byteOffset":0,"target":34962},{"buffer":0,"byteLength":31536,"byteOffset":31536,"target":34962},{"buffer":0,"byteLength":21024,"byteOffset":63072,"target":34962},{"buffer":0,"byteLength":9408,"byteOffset":84096,"target":34963}],"samplers":[{"magFilter":9729,"minFilter":9987}],"buffers":[{"byteLength":93504,"uri":"cyber_SM_Bld_Pipe_Large_Group_01.bin"}]}