{"asset":{"generator":"Khronos glTF Blender I/O v4.4.55","version":"2.0"},"extensionsUsed":["EXT_texture_webp"],"extensionsRequired":["EXT_texture_webp"],"scene":0,"scenes":[{"name":"Scene","nodes":[0]}],"nodes":[{"mesh":0,"name":"SM_Bld_Floor_Small_02","rotation":[0.7071068286895752,0,0,0.7071068286895752],"scale":[0.009999999776482582,0.009999999776482582,0.009999999776482582]}],"materials":[{"doubleSided":true,"name":"lambert26","pbrMetallicRoughness":{"baseColorTexture":{"index":0},"metallicFactor":0,"roughnessFactor":0.5527864098548889}},{"doubleSided":true,"name":"A_Wall3","pbrMetallicRoughness":{"baseColorTexture":{"index":1},"metallicFactor":0,"roughnessFactor":0.5527864098548889}},{"doubleSided":true,"name":"SciFi_Planets_SHD","pbrMetallicRoughness":{"baseColorTexture":{"index":3},"metallicFactor":0,"roughnessFactor":0.5527864098548889}}],"meshes":[{"name":"Mesh","primitives":[{"attributes":{"POSITION":0,"NORMAL":1,"TEXCOORD_0":2},"indices":3,"material":0},{"attributes":{"POSITION":4,"NORMAL":5,"TEXCOORD_0":6},"indices":7,"material":1},{"attributes":{"POSITION":8,"NORMAL":9,"TEXCOORD_0":10},"indices":11,"material":2}]}],"textures":[{"extensions":{"EXT_texture_webp":{"source":0}},"sampler":0},{"extensions":{"EXT_texture_webp":{"source":0}},"sampler":0},{"extensions":{},"sampler":0},{"extensions":{"EXT_texture_webp":{"source":0}},"sampler":0}],"images":[{"mimeType":"image/webp","name":"PolygonCyberCity_Texture_01_A","uri":"PolygonCyberCity_Texture_01_A.webp"}],"accessors":[{"bufferView":0,"componentType":5126,"count":20,"max":[124.99957275390625,124.99999237060547,9.251653671264648],"min":[0,0,4.625823974609375],"type":"VEC3"},{"bufferView":1,"componentType":5126,"count":20,"type":"VEC3"},{"bufferView":2,"componentType":5126,"count":20,"type":"VEC2"},{"bufferView":3,"componentType":5123,"count":30,"type":"SCALAR"},{"bufferView":4,"componentType":5126,"count":20,"max":[124.99957275390625,124.99999237060547,4.625826835632324],"min":[0,0,-0.80908203125],"type":"VEC3"},{"bufferView":5,"componentType":5126,"count":20,"type":"VEC3"},{"bufferView":6,"componentType":5126,"count":20,"type":"VEC2"},{"bufferView":7,"componentType":5123,"count":30,"type":"SCALAR"},{"bufferView":8,"componentType":5126,"count":380,"max":[111.5257339477539,117.24989318847656,6.775480270385742],"min":[13.474483489990234,7.7500457763671875,-8.125726699829102],"type":"VEC3"},{"bufferView":9,"componentType":5126,"count":380,"type":"VEC3"},{"bufferView":10,"componentType":5126,"count":380,"type":"VEC2"},{"bufferView":11,"componentType":5123,"count":654,"type":"SCALAR"}],"bufferViews":[{"buffer":0,"byteLength":240,"byteOffset":0,"target":34962},{"buffer":0,"byteLength":240,"byteOffset":240,"target":34962},{"buffer":0,"byteLength":160,"byteOffset":480,"target":34962},{"buffer":0,"byteLength":60,"byteOffset":640,"target":34963},{"buffer":0,"byteLength":240,"byteOffset":700,"target":34962},{"buffer":0,"byteLength":240,"byteOffset":940,"target":34962},{"buffer":0,"byteLength":160,"byteOffset":1180,"target":34962},{"buffer":0,"byteLength":60,"byteOffset":1340,"target":34963},{"buffer":0,"byteLength":4560,"byteOffset":1400,"target":34962},{"buffer":0,"byteLength":4560,"byteOffset":5960,"target":34962},{"buffer":0,"byteLength":3040,"byteOffset":10520,"target":34962},{"buffer":0,"byteLength":1308,"byteOffset":13560,"target":34963}],"samplers":[{"magFilter":9729,"minFilter":9987}],"buffers":[{"byteLength":14868,"uri":"cyber_SM_Bld_Floor_Small_02.bin"}]}