{"asset":{"generator":"Khronos glTF Blender I/O v4.4.55","version":"2.0"},"extensionsUsed":["EXT_texture_webp"],"extensionsRequired":["EXT_texture_webp"],"scene":0,"scenes":[{"name":"Scene","nodes":[0]}],"nodes":[{"mesh":0,"name":"SM_Prop_Antenna_05","rotation":[0.7071068286895752,0,0,0.7071068286895752],"scale":[0.009999999776482582,0.009999999776482582,0.009999999776482582]}],"materials":[{"doubleSided":true,"name":"Base_Lambert","pbrMetallicRoughness":{"baseColorTexture":{"index":2},"metallicFactor":0,"roughnessFactor":0.5527864098548889}}],"meshes":[{"name":"Mesh","primitives":[{"attributes":{"POSITION":0,"NORMAL":1,"TEXCOORD_0":2,"TEXCOORD_1":3},"indices":4,"material":0}]}],"textures":[{"extensions":{},"sampler":0},{"extensions":{},"sampler":0},{"extensions":{"EXT_texture_webp":{"source":0}},"sampler":0}],"images":[{"mimeType":"image/webp","name":"Wall_05_Emissive","uri":"Wall_05_Emissive.webp"}],"accessors":[{"bufferView":0,"componentType":5126,"count":1335,"max":[80.12965393066406,79.06692504882812,0],"min":[-72.40127563476562,-76.61488342285156,-310.7904357910156],"type":"VEC3"},{"bufferView":1,"componentType":5126,"count":1335,"type":"VEC3"},{"bufferView":2,"componentType":5126,"count":1335,"type":"VEC2"},{"bufferView":3,"componentType":5126,"count":1335,"type":"VEC2"},{"bufferView":4,"componentType":5123,"count":2088,"type":"SCALAR"}],"bufferViews":[{"buffer":0,"byteLength":16020,"byteOffset":0,"target":34962},{"buffer":0,"byteLength":16020,"byteOffset":16020,"target":34962},{"buffer":0,"byteLength":10680,"byteOffset":32040,"target":34962},{"buffer":0,"byteLength":10680,"byteOffset":42720,"target":34962},{"buffer":0,"byteLength":4176,"byteOffset":53400,"target":34963}],"samplers":[{"magFilter":9729,"minFilter":9987}],"buffers":[{"byteLength":57576,"uri":"cyber_SM_Prop_Antenna_05.bin"}]}