{"asset":{"generator":"Khronos glTF Blender I/O v4.4.55","version":"2.0"},"extensionsUsed":["EXT_texture_webp"],"extensionsRequired":["EXT_texture_webp"],"scene":0,"scenes":[{"name":"Scene","nodes":[0]}],"nodes":[{"mesh":0,"name":"SM_Env_Hologram_Cherry_Tree_02","rotation":[0.7071068286895752,0,0,0.7071068286895752],"scale":[0.009999999776482582,0.009999999776482582,0.009999999776482582]}],"materials":[{"alphaMode":"MASK","doubleSided":true,"name":"Tree","pbrMetallicRoughness":{"baseColorTexture":{"index":0},"metallicFactor":0,"roughnessFactor":0.5527864098548889},"alphaCutoff":0.5}],"meshes":[{"name":"Mesh","primitives":[{"attributes":{"POSITION":0,"NORMAL":1,"TEXCOORD_0":2,"TEXCOORD_1":3},"indices":4,"material":0}]}],"textures":[{"extensions":{"EXT_texture_webp":{"source":0}},"sampler":0}],"images":[{"mimeType":"image/webp","name":"Orange_Gradient_01","uri":"Orange_Gradient_01.webp"}],"accessors":[{"bufferView":0,"componentType":5126,"count":7119,"max":[428.5465393066406,276.57916259765625,0],"min":[-468.4740295410156,-261.5735778808594,-660.1305541992188],"type":"VEC3"},{"bufferView":1,"componentType":5126,"count":7119,"type":"VEC3"},{"bufferView":2,"componentType":5126,"count":7119,"type":"VEC2"},{"bufferView":3,"componentType":5126,"count":7119,"type":"VEC2"},{"bufferView":4,"componentType":5123,"count":8061,"type":"SCALAR"}],"bufferViews":[{"buffer":0,"byteLength":85428,"byteOffset":0,"target":34962},{"buffer":0,"byteLength":85428,"byteOffset":85428,"target":34962},{"buffer":0,"byteLength":56952,"byteOffset":170856,"target":34962},{"buffer":0,"byteLength":56952,"byteOffset":227808,"target":34962},{"buffer":0,"byteLength":16122,"byteOffset":284760,"target":34963}],"samplers":[{"magFilter":9729,"minFilter":9987}],"buffers":[{"byteLength":300884,"uri":"cyber_SM_Env_Hologram_Cherry_Tree_02.bin"}]}