{"asset":{"generator":"Khronos glTF Blender I/O v4.4.55","version":"2.0"},"extensionsUsed":["EXT_texture_webp"],"extensionsRequired":["EXT_texture_webp"],"scene":0,"scenes":[{"name":"Scene","nodes":[2]}],"nodes":[{"mesh":0,"name":"SM_Bld_Wall_Shop_02_Shutter_Closed"},{"mesh":1,"name":"SM_Bld_Wall_Shop_02_Shutter_Open"},{"children":[0,1],"mesh":2,"name":"SM_Bld_Wall_Shop_02","rotation":[0.7071068286895752,0,0,0.7071068286895752],"scale":[0.009999999776482582,0.009999999776482582,0.009999999776482582]}],"materials":[{"doubleSided":true,"name":"Base_Lambert8","pbrMetallicRoughness":{"baseColorTexture":{"index":2},"metallicFactor":0,"roughnessFactor":0.5527864098548889}},{"doubleSided":true,"name":"A_Wall21","pbrMetallicRoughness":{"baseColorTexture":{"index":3},"metallicFactor":0,"roughnessFactor":0.5527864098548889}},{"doubleSided":true,"name":"lambert40","pbrMetallicRoughness":{"baseColorTexture":{"index":4},"metallicFactor":0,"roughnessFactor":0.5527864098548889}}],"meshes":[{"name":"Mesh.002","primitives":[{"attributes":{"POSITION":0,"NORMAL":1,"TEXCOORD_0":2},"indices":3,"material":0}]},{"name":"Mesh.001","primitives":[{"attributes":{"POSITION":4,"NORMAL":5,"TEXCOORD_0":6},"indices":3,"material":0}]},{"name":"Mesh","primitives":[{"attributes":{"POSITION":7,"NORMAL":8,"TEXCOORD_0":9},"indices":10,"material":0},{"attributes":{"POSITION":11,"NORMAL":12,"TEXCOORD_0":13},"indices":14,"material":1},{"attributes":{"POSITION":15,"NORMAL":16,"TEXCOORD_0":17},"indices":18,"material":2}]}],"textures":[{"extensions":{},"sampler":0},{"extensions":{},"sampler":0},{"extensions":{"EXT_texture_webp":{"source":0}},"sampler":0},{"extensions":{"EXT_texture_webp":{"source":1}},"sampler":0},{"extensions":{"EXT_texture_webp":{"source":1}},"sampler":0}],"images":[{"mimeType":"image/webp","name":"Wall_05_Emissive","uri":"Wall_05_Emissive.webp"},{"mimeType":"image/webp","name":"PolygonCyberCity_Texture_01_A","uri":"PolygonCyberCity_Texture_01_A.webp"}],"accessors":[{"bufferView":0,"componentType":5126,"count":96,"max":[464.1827697753906,19.419113159179688,-5.545482635498047],"min":[212.462158203125,4.309145927429199,-245.59475708007812],"type":"VEC3"},{"bufferView":1,"componentType":5126,"count":96,"type":"VEC3"},{"bufferView":2,"componentType":5126,"count":96,"type":"VEC2"},{"bufferView":3,"componentType":5123,"count":180,"type":"SCALAR"},{"bufferView":4,"componentType":5126,"count":96,"max":[464.1827697753906,17.4095458984375,-201.2957763671875],"min":[212.462158203125,5.799614429473877,-247.76959228515625],"type":"VEC3"},{"bufferView":5,"componentType":5126,"count":96,"type":"VEC3"},{"bufferView":6,"componentType":5126,"count":96,"type":"VEC2"},{"bufferView":7,"componentType":5126,"count":1112,"max":[497.3738708496094,63.426170349121094,1.597084879875183],"min":[-11.234663009643555,-19.778961181640625,-303.26617431640625],"type":"VEC3"},{"bufferView":8,"componentType":5126,"count":1112,"type":"VEC3"},{"bufferView":9,"componentType":5126,"count":1112,"type":"VEC2"},{"bufferView":10,"componentType":5123,"count":1911,"type":"SCALAR"},{"bufferView":11,"componentType":5126,"count":74,"max":[500,16.801605224609375,1.5971325635910034],"min":[0.000732421875,-1.6860660314559937,-300.5743408203125],"type":"VEC3"},{"bufferView":12,"componentType":5126,"count":74,"type":"VEC3"},{"bufferView":13,"componentType":5126,"count":74,"type":"VEC2"},{"bufferView":14,"componentType":5123,"count":144,"type":"SCALAR"},{"bufferView":15,"componentType":5126,"count":70,"max":[500,5.551605701446533,1.5971325635910034],"min":[0.000732421875,-11.46246337890625,-300.5743408203125],"type":"VEC3"},{"bufferView":16,"componentType":5126,"count":70,"type":"VEC3"},{"bufferView":17,"componentType":5126,"count":70,"type":"VEC2"},{"bufferView":18,"componentType":5123,"count":144,"type":"SCALAR"}],"bufferViews":[{"buffer":0,"byteLength":1152,"byteOffset":0,"target":34962},{"buffer":0,"byteLength":1152,"byteOffset":1152,"target":34962},{"buffer":0,"byteLength":768,"byteOffset":2304,"target":34962},{"buffer":0,"byteLength":360,"byteOffset":3072,"target":34963},{"buffer":0,"byteLength":1152,"byteOffset":3432,"target":34962},{"buffer":0,"byteLength":1152,"byteOffset":4584,"target":34962},{"buffer":0,"byteLength":768,"byteOffset":5736,"target":34962},{"buffer":0,"byteLength":13344,"byteOffset":6504,"target":34962},{"buffer":0,"byteLength":13344,"byteOffset":19848,"target":34962},{"buffer":0,"byteLength":8896,"byteOffset":33192,"target":34962},{"buffer":0,"byteLength":3822,"byteOffset":42088,"target":34963},{"buffer":0,"byteLength":888,"byteOffset":45912,"target":34962},{"buffer":0,"byteLength":888,"byteOffset":46800,"target":34962},{"buffer":0,"byteLength":592,"byteOffset":47688,"target":34962},{"buffer":0,"byteLength":288,"byteOffset":48280,"target":34963},{"buffer":0,"byteLength":840,"byteOffset":48568,"target":34962},{"buffer":0,"byteLength":840,"byteOffset":49408,"target":34962},{"buffer":0,"byteLength":560,"byteOffset":50248,"target":34962},{"buffer":0,"byteLength":288,"byteOffset":50808,"target":34963}],"samplers":[{"magFilter":9729,"minFilter":9987}],"buffers":[{"byteLength":51096,"uri":"cyber_SM_Bld_Wall_Shop_02.bin"}]}