{
	"asset":{
		"generator":"Khronos glTF Blender I/O v4.4.55",
		"version":"2.0"
	},
	"extensionsUsed":[
		"EXT_texture_webp"
	],
	"extensionsRequired":[
		"EXT_texture_webp"
	],
	"scene":0,
	"scenes":[
		{
			"name":"Scene",
			"nodes":[
				0
			]
		}
	],
	"nodes":[
		{
			"mesh":0,
			"name":"SM_Wep_Shock_Stick_02",
			"rotation":[
				0.7071068286895752,
				0,
				0,
				0.7071068286895752
			],
			"scale":[
				0.009999999776482582,
				0.009999999776482582,
				0.009999999776482582
			]
		}
	],
	"materials":[
		{
			"doubleSided":true,
			"emissiveFactor":[
				1,
				1,
				1
			],
			"emissiveTexture":{
				"index":0
			},
			"name":"Scifi_Cybercity_Main19",
			"normalTexture":{
				"index":1
			},
			"pbrMetallicRoughness":{
				"baseColorTexture":{
					"index":2
				},
				"metallicFactor":0,
				"roughnessFactor":0.5527864098548889
			}
		}
	],
	"meshes":[
		{
			"name":"Mesh",
			"primitives":[
				{
					"attributes":{
						"POSITION":0,
						"NORMAL":1,
						"TEXCOORD_0":2
					},
					"indices":3,
					"material":0
				}
			]
		}
	],
	"textures":[
		{
			"extensions":{},
			"sampler":0
		},
		{
			"extensions":{},
			"sampler":0
		},
		{
			"extensions":{
				"EXT_texture_webp":{
					"source":0
				}
			},
			"sampler":0
		}
	],
	"images":[
		{
			"mimeType":"image/webp",
			"name":"Wall_05_Emissive",
			"uri":"Wall_05_Emissive.webp"
		}
	],
	"accessors":[
		{
			"bufferView":0,
			"componentType":5126,
			"count":1178,
			"max":[
				5.443936347961426,
				4.202186584472656,
				26.04397201538086
			],
			"min":[
				-5.443936347961426,
				-27.397109985351562,
				-72.28350830078125
			],
			"type":"VEC3"
		},
		{
			"bufferView":1,
			"componentType":5126,
			"count":1178,
			"type":"VEC3"
		},
		{
			"bufferView":2,
			"componentType":5126,
			"count":1178,
			"type":"VEC2"
		},
		{
			"bufferView":3,
			"componentType":5123,
			"count":1812,
			"type":"SCALAR"
		}
	],
	"bufferViews":[
		{
			"buffer":0,
			"byteLength":14136,
			"byteOffset":0,
			"target":34962
		},
		{
			"buffer":0,
			"byteLength":14136,
			"byteOffset":14136,
			"target":34962
		},
		{
			"buffer":0,
			"byteLength":9424,
			"byteOffset":28272,
			"target":34962
		},
		{
			"buffer":0,
			"byteLength":3624,
			"byteOffset":37696,
			"target":34963
		}
	],
	"samplers":[
		{
			"magFilter":9729,
			"minFilter":9987
		}
	],
	"buffers":[
		{
			"byteLength":41320,
			"uri":"cyber_SM_Wep_Shock_Stick_02.bin"
		}
	]
}
