{"asset":{"generator":"Khronos glTF Blender I/O v4.4.55","version":"2.0"},"extensionsUsed":["EXT_texture_webp"],"extensionsRequired":["EXT_texture_webp"],"scene":0,"scenes":[{"name":"Scene","nodes":[5]}],"nodes":[{"mesh":0,"name":"SM_Prop_Pipe_Junction_Attatchment_05_Gear_Holo","rotation":[-0.7071068286895752,0,0,0.7071068286895752],"scale":[100,100,100]},{"mesh":1,"name":"SM_Prop_Pipe_Junction_Attatchment_05_Liquid_Holo","rotation":[-0.7071068286895752,0,0,0.7071068286895752],"scale":[100,100,100]},{"mesh":2,"name":"SM_Prop_Pipe_Junction_Attatchment_05_Power_Holo","rotation":[-0.7071068286895752,0,0,0.7071068286895752],"scale":[100,100,100]},{"mesh":3,"name":"SM_Prop_Pipe_Junction_Attatchment_05_Toxic_Holo","rotation":[-0.7071068286895752,0,0,0.7071068286895752],"scale":[100,100,100]},{"mesh":4,"name":"SM_Prop_Pipe_Junction_Attatchment_05_Warning_Holo"},{"children":[0,1,2,3,4],"mesh":5,"name":"SM_Prop_Pipe_Junction_Attatchment_05","rotation":[0.7071068286895752,0,0,0.7071068286895752],"scale":[0.009999999776482582,0.009999999776482582,0.009999999776482582]}],"materials":[{"doubleSided":true,"name":"Base_Lambert1","pbrMetallicRoughness":{"baseColorTexture":{"index":2},"metallicFactor":0,"roughnessFactor":0.5527864098548889}}],"meshes":[{"name":"Mesh.002","primitives":[{"attributes":{"POSITION":0,"NORMAL":1,"TEXCOORD_0":2},"indices":3,"material":0}]},{"name":"Mesh.003","primitives":[{"attributes":{"POSITION":4,"NORMAL":5,"TEXCOORD_0":6},"indices":7,"material":0}]},{"name":"Mesh.005","primitives":[{"attributes":{"POSITION":8,"NORMAL":9,"TEXCOORD_0":10},"indices":11,"material":0}]},{"name":"Mesh.004","primitives":[{"attributes":{"POSITION":12,"NORMAL":13,"TEXCOORD_0":14},"indices":15,"material":0}]},{"name":"Mesh.001","primitives":[{"attributes":{"POSITION":16,"NORMAL":17,"TEXCOORD_0":18},"indices":19,"material":0}]},{"name":"Mesh","primitives":[{"attributes":{"POSITION":20,"NORMAL":21,"TEXCOORD_0":22},"indices":23,"material":0}]}],"textures":[{"extensions":{},"sampler":0},{"extensions":{},"sampler":0},{"extensions":{"EXT_texture_webp":{"source":0}},"sampler":0}],"images":[{"mimeType":"image/webp","name":"Wall_05_Emissive","uri":"Wall_05_Emissive.webp"}],"accessors":[{"bufferView":0,"componentType":5126,"count":372,"max":[30.695375442504883,8.204446792602539,-80.62551879882812],"min":[-30.695350646972656,-5.020879745483398,-145.8343963623047],"type":"VEC3"},{"bufferView":1,"componentType":5126,"count":372,"type":"VEC3"},{"bufferView":2,"componentType":5126,"count":372,"type":"VEC2"},{"bufferView":3,"componentType":5123,"count":684,"type":"SCALAR"},{"bufferView":4,"componentType":5126,"count":132,"max":[19.582204818725586,11.728052139282227,-85.63456726074219],"min":[-19.582256317138672,1.8877640962600708,-148.14590454101562],"type":"VEC3"},{"bufferView":5,"componentType":5126,"count":132,"type":"VEC3"},{"bufferView":6,"componentType":5126,"count":132,"type":"VEC2"},{"bufferView":7,"componentType":5123,"count":180,"type":"SCALAR"},{"bufferView":8,"componentType":5126,"count":70,"max":[15.738038063049316,8.204445838928223,-81.18083190917969],"min":[-14.36104965209961,-5.020878791809082,-145.618408203125],"type":"VEC3"},{"bufferView":9,"componentType":5126,"count":70,"type":"VEC3"},{"bufferView":10,"componentType":5126,"count":70,"type":"VEC2"},{"bufferView":11,"componentType":5123,"count":114,"type":"SCALAR"},{"bufferView":12,"componentType":5126,"count":472,"max":[33.063323974609375,4.8981146812438965,-80.1666488647461],"min":[-33.06330108642578,-1.714547872543335,-146.29327392578125],"type":"VEC3"},{"bufferView":13,"componentType":5126,"count":472,"type":"VEC3"},{"bufferView":14,"componentType":5126,"count":472,"type":"VEC2"},{"bufferView":15,"componentType":5123,"count":876,"type":"SCALAR"},{"bufferView":16,"componentType":5126,"count":180,"max":[8.758098602294922,4.8981170654296875,-84.24546813964844],"min":[-8.758098602294922,-1.7145506143569946,-141.5453338623047],"type":"VEC3"},{"bufferView":17,"componentType":5126,"count":180,"type":"VEC3"},{"bufferView":18,"componentType":5126,"count":180,"type":"VEC2"},{"bufferView":19,"componentType":5123,"count":300,"type":"SCALAR"},{"bufferView":20,"componentType":5126,"count":292,"max":[57.301002502441406,57.30098342895508,-58.89288330078125],"min":[-57.300933837890625,-57.30097198486328,-77.40254974365234],"type":"VEC3"},{"bufferView":21,"componentType":5126,"count":292,"type":"VEC3"},{"bufferView":22,"componentType":5126,"count":292,"type":"VEC2"},{"bufferView":23,"componentType":5123,"count":486,"type":"SCALAR"}],"bufferViews":[{"buffer":0,"byteLength":4464,"byteOffset":0,"target":34962},{"buffer":0,"byteLength":4464,"byteOffset":4464,"target":34962},{"buffer":0,"byteLength":2976,"byteOffset":8928,"target":34962},{"buffer":0,"byteLength":1368,"byteOffset":11904,"target":34963},{"buffer":0,"byteLength":1584,"byteOffset":13272,"target":34962},{"buffer":0,"byteLength":1584,"byteOffset":14856,"target":34962},{"buffer":0,"byteLength":1056,"byteOffset":16440,"target":34962},{"buffer":0,"byteLength":360,"byteOffset":17496,"target":34963},{"buffer":0,"byteLength":840,"byteOffset":17856,"target":34962},{"buffer":0,"byteLength":840,"byteOffset":18696,"target":34962},{"buffer":0,"byteLength":560,"byteOffset":19536,"target":34962},{"buffer":0,"byteLength":228,"byteOffset":20096,"target":34963},{"buffer":0,"byteLength":5664,"byteOffset":20324,"target":34962},{"buffer":0,"byteLength":5664,"byteOffset":25988,"target":34962},{"buffer":0,"byteLength":3776,"byteOffset":31652,"target":34962},{"buffer":0,"byteLength":1752,"byteOffset":35428,"target":34963},{"buffer":0,"byteLength":2160,"byteOffset":37180,"target":34962},{"buffer":0,"byteLength":2160,"byteOffset":39340,"target":34962},{"buffer":0,"byteLength":1440,"byteOffset":41500,"target":34962},{"buffer":0,"byteLength":600,"byteOffset":42940,"target":34963},{"buffer":0,"byteLength":3504,"byteOffset":43540,"target":34962},{"buffer":0,"byteLength":3504,"byteOffset":47044,"target":34962},{"buffer":0,"byteLength":2336,"byteOffset":50548,"target":34962},{"buffer":0,"byteLength":972,"byteOffset":52884,"target":34963}],"samplers":[{"magFilter":9729,"minFilter":9987}],"buffers":[{"byteLength":53856,"uri":"cyber_SM_Prop_Pipe_Junction_Attatchment_05.bin"}]}