{
	"asset":{
		"generator":"Khronos glTF Blender I/O v4.4.55",
		"version":"2.0"
	},
	"extensionsUsed":[
		"EXT_texture_webp"
	],
	"extensionsRequired":[
		"EXT_texture_webp"
	],
	"scene":0,
	"scenes":[
		{
			"name":"Scene",
			"nodes":[
				0
			]
		}
	],
	"nodes":[
		{
			"mesh":0,
			"name":"SM_Env_Hologram_Tree_03",
			"rotation":[
				0.7071068286895752,
				0,
				0,
				0.7071068286895752
			],
			"scale":[
				0.009999999776482582,
				0.009999999776482582,
				0.009999999776482582
			]
		}
	],
	"materials":[
		{
			"alphaMode":"BLEND",
			"doubleSided":true,
			"name":"Tree",
			"pbrMetallicRoughness":{
				"baseColorTexture":{
					"index":0
				},
				"metallicFactor":0,
				"roughnessFactor":0.5527864098548889
			}
		}
	],
	"meshes":[
		{
			"name":"Mesh",
			"primitives":[
				{
					"attributes":{
						"POSITION":0,
						"NORMAL":1,
						"TEXCOORD_0":2,
						"TEXCOORD_1":3
					},
					"indices":4,
					"material":0
				}
			]
		}
	],
	"textures":[
		{
			"extensions":{
				"EXT_texture_webp":{
					"source":0
				}
			},
			"sampler":0
		}
	],
	"images":[
		{
			"mimeType":"image/webp",
			"name":"Orange_Gradient_01",
			"uri":"Orange_Gradient_01.webp"
		}
	],
	"accessors":[
		{
			"bufferView":0,
			"componentType":5126,
			"count":3657,
			"max":[
				95.18175506591797,
				120.31320190429688,
				6.6593499183654785
			],
			"min":[
				-144.9908447265625,
				-125.37179565429688,
				-587.3672485351562
			],
			"type":"VEC3"
		},
		{
			"bufferView":1,
			"componentType":5126,
			"count":3657,
			"type":"VEC3"
		},
		{
			"bufferView":2,
			"componentType":5126,
			"count":3657,
			"type":"VEC2"
		},
		{
			"bufferView":3,
			"componentType":5126,
			"count":3657,
			"type":"VEC2"
		},
		{
			"bufferView":4,
			"componentType":5123,
			"count":3888,
			"type":"SCALAR"
		}
	],
	"bufferViews":[
		{
			"buffer":0,
			"byteLength":43884,
			"byteOffset":0,
			"target":34962
		},
		{
			"buffer":0,
			"byteLength":43884,
			"byteOffset":43884,
			"target":34962
		},
		{
			"buffer":0,
			"byteLength":29256,
			"byteOffset":87768,
			"target":34962
		},
		{
			"buffer":0,
			"byteLength":29256,
			"byteOffset":117024,
			"target":34962
		},
		{
			"buffer":0,
			"byteLength":7776,
			"byteOffset":146280,
			"target":34963
		}
	],
	"samplers":[
		{
			"magFilter":9729,
			"minFilter":9987
		}
	],
	"buffers":[
		{
			"byteLength":154056,
			"uri":"cyber_SM_Env_Hologram_Tree_03.bin"
		}
	]
}
