{
	"asset":{
		"generator":"Khronos glTF Blender I/O v4.4.55",
		"version":"2.0"
	},
	"extensionsUsed":[
		"EXT_texture_webp"
	],
	"extensionsRequired":[
		"EXT_texture_webp"
	],
	"scene":0,
	"scenes":[
		{
			"name":"Scene",
			"nodes":[
				3
			]
		}
	],
	"nodes":[
		{
			"mesh":0,
			"name":"SM_Bld_Door_Double_Large_01_Lock_01"
		},
		{
			"children":[
				0
			],
			"mesh":1,
			"name":"SM_Bld_Door_Double_Large_01_Door_01"
		},
		{
			"mesh":2,
			"name":"SM_Bld_Door_Double_Large_01_Door_02"
		},
		{
			"children":[
				1,
				2
			],
			"mesh":3,
			"name":"SM_Bld_Door_Double_Large_01",
			"rotation":[
				0.7071068286895752,
				0,
				0,
				0.7071068286895752
			],
			"scale":[
				0.009999999776482582,
				0.009999999776482582,
				0.009999999776482582
			]
		}
	],
	"materials":[
		{
			"doubleSided":true,
			"name":"MAT_01A4",
			"normalTexture":{
				"index":0
			},
			"pbrMetallicRoughness":{
				"baseColorTexture":{
					"index":1
				},
				"metallicFactor":0,
				"roughnessFactor":0.5527864098548889
			}
		}
	],
	"meshes":[
		{
			"name":"Mesh.003",
			"primitives":[
				{
					"attributes":{
						"POSITION":0,
						"NORMAL":1,
						"TEXCOORD_0":2
					},
					"indices":3,
					"material":0
				}
			]
		},
		{
			"name":"Mesh.002",
			"primitives":[
				{
					"attributes":{
						"POSITION":4,
						"NORMAL":5,
						"TEXCOORD_0":6
					},
					"indices":7,
					"material":0
				}
			]
		},
		{
			"name":"Mesh.001",
			"primitives":[
				{
					"attributes":{
						"POSITION":8,
						"NORMAL":9,
						"TEXCOORD_0":10
					},
					"indices":11,
					"material":0
				}
			]
		},
		{
			"name":"Mesh",
			"primitives":[
				{
					"attributes":{
						"POSITION":12,
						"NORMAL":13,
						"TEXCOORD_0":14
					},
					"indices":15,
					"material":0
				}
			]
		}
	],
	"textures":[
		{
			"extensions":{},
			"sampler":0
		},
		{
			"extensions":{
				"EXT_texture_webp":{
					"source":0
				}
			},
			"sampler":0
		}
	],
	"images":[
		{
			"mimeType":"image/webp",
			"name":"PolygonCyberCity_Texture_01_A",
			"uri":"PolygonCyberCity_Texture_01_A.webp"
		}
	],
	"accessors":[
		{
			"bufferView":0,
			"componentType":5126,
			"count":372,
			"max":[
				43.11077117919922,
				10.340332984924316,
				-80.22103881835938
			],
			"min":[
				-43.110774993896484,
				-10.340332984924316,
				-166.44259643554688
			],
			"type":"VEC3"
		},
		{
			"bufferView":1,
			"componentType":5126,
			"count":372,
			"type":"VEC3"
		},
		{
			"bufferView":2,
			"componentType":5126,
			"count":372,
			"type":"VEC2"
		},
		{
			"bufferView":3,
			"componentType":5123,
			"count":588,
			"type":"SCALAR"
		},
		{
			"bufferView":4,
			"componentType":5126,
			"count":1867,
			"max":[
				112.11712646484375,
				8.958602905273438,
				6.237368506845087e-05
			],
			"min":[
				-52.37469482421875,
				-9.066827774047852,
				-246.6636199951172
			],
			"type":"VEC3"
		},
		{
			"bufferView":5,
			"componentType":5126,
			"count":1867,
			"type":"VEC3"
		},
		{
			"bufferView":6,
			"componentType":5126,
			"count":1867,
			"type":"VEC2"
		},
		{
			"bufferView":7,
			"componentType":5123,
			"count":3078,
			"type":"SCALAR"
		},
		{
			"bufferView":8,
			"componentType":5126,
			"count":1230,
			"max":[
				7.671117782592773e-05,
				9.066827774047852,
				8.9374680101173e-06
			],
			"min":[
				-112.11711120605469,
				-9.066827774047852,
				-246.6636199951172
			],
			"type":"VEC3"
		},
		{
			"bufferView":9,
			"componentType":5126,
			"count":1230,
			"type":"VEC3"
		},
		{
			"bufferView":10,
			"componentType":5126,
			"count":1230,
			"type":"VEC2"
		},
		{
			"bufferView":11,
			"componentType":5123,
			"count":2082,
			"type":"SCALAR"
		},
		{
			"bufferView":12,
			"componentType":5126,
			"count":2431,
			"max":[
				127.43203735351562,
				32.590396881103516,
				9.493518829345703
			],
			"min":[
				-127.43203735351562,
				-32.590396881103516,
				-258.16363525390625
			],
			"type":"VEC3"
		},
		{
			"bufferView":13,
			"componentType":5126,
			"count":2431,
			"type":"VEC3"
		},
		{
			"bufferView":14,
			"componentType":5126,
			"count":2431,
			"type":"VEC2"
		},
		{
			"bufferView":15,
			"componentType":5123,
			"count":3852,
			"type":"SCALAR"
		}
	],
	"bufferViews":[
		{
			"buffer":0,
			"byteLength":4464,
			"byteOffset":0,
			"target":34962
		},
		{
			"buffer":0,
			"byteLength":4464,
			"byteOffset":4464,
			"target":34962
		},
		{
			"buffer":0,
			"byteLength":2976,
			"byteOffset":8928,
			"target":34962
		},
		{
			"buffer":0,
			"byteLength":1176,
			"byteOffset":11904,
			"target":34963
		},
		{
			"buffer":0,
			"byteLength":22404,
			"byteOffset":13080,
			"target":34962
		},
		{
			"buffer":0,
			"byteLength":22404,
			"byteOffset":35484,
			"target":34962
		},
		{
			"buffer":0,
			"byteLength":14936,
			"byteOffset":57888,
			"target":34962
		},
		{
			"buffer":0,
			"byteLength":6156,
			"byteOffset":72824,
			"target":34963
		},
		{
			"buffer":0,
			"byteLength":14760,
			"byteOffset":78980,
			"target":34962
		},
		{
			"buffer":0,
			"byteLength":14760,
			"byteOffset":93740,
			"target":34962
		},
		{
			"buffer":0,
			"byteLength":9840,
			"byteOffset":108500,
			"target":34962
		},
		{
			"buffer":0,
			"byteLength":4164,
			"byteOffset":118340,
			"target":34963
		},
		{
			"buffer":0,
			"byteLength":29172,
			"byteOffset":122504,
			"target":34962
		},
		{
			"buffer":0,
			"byteLength":29172,
			"byteOffset":151676,
			"target":34962
		},
		{
			"buffer":0,
			"byteLength":19448,
			"byteOffset":180848,
			"target":34962
		},
		{
			"buffer":0,
			"byteLength":7704,
			"byteOffset":200296,
			"target":34963
		}
	],
	"samplers":[
		{
			"magFilter":9729,
			"minFilter":9987
		}
	],
	"buffers":[
		{
			"byteLength":208000,
			"uri":"cyber_SM_Bld_Door_Double_Large_01.bin"
		}
	]
}
