{"asset":{"generator":"Khronos glTF Blender I/O v4.4.55","version":"2.0"},"extensionsUsed":["EXT_texture_webp"],"extensionsRequired":["EXT_texture_webp"],"scene":0,"scenes":[{"name":"Scene","nodes":[0]}],"nodes":[{"mesh":0,"name":"SM_Prop_Food_Shelf_03_Insert_01","rotation":[0.7071068286895752,0,0,0.7071068286895752],"scale":[0.009999999776482582,0.009999999776482582,0.009999999776482582]}],"materials":[{"doubleSided":true,"name":"Base_Lambert6","pbrMetallicRoughness":{"baseColorTexture":{"index":2},"metallicFactor":0,"roughnessFactor":0.5527864098548889}}],"meshes":[{"name":"Mesh","primitives":[{"attributes":{"POSITION":0,"NORMAL":1,"TEXCOORD_0":2},"indices":3,"material":0}]}],"textures":[{"extensions":{},"sampler":0},{"extensions":{},"sampler":0},{"extensions":{"EXT_texture_webp":{"source":0}},"sampler":0}],"images":[{"mimeType":"image/webp","name":"Wall_05_Emissive","uri":"Wall_05_Emissive.webp"}],"accessors":[{"bufferView":0,"componentType":5126,"count":5668,"max":[102.34320068359375,24.653369903564453,-36.88911056518555],"min":[-93.91240692138672,-22.59090232849121,-107.32392120361328],"type":"VEC3"},{"bufferView":1,"componentType":5126,"count":5668,"type":"VEC3"},{"bufferView":2,"componentType":5126,"count":5668,"type":"VEC2"},{"bufferView":3,"componentType":5123,"count":9708,"type":"SCALAR"}],"bufferViews":[{"buffer":0,"byteLength":68016,"byteOffset":0,"target":34962},{"buffer":0,"byteLength":68016,"byteOffset":68016,"target":34962},{"buffer":0,"byteLength":45344,"byteOffset":136032,"target":34962},{"buffer":0,"byteLength":19416,"byteOffset":181376,"target":34963}],"samplers":[{"magFilter":9729,"minFilter":9987}],"buffers":[{"byteLength":200792,"uri":"cyber_SM_Prop_Food_Shelf_03_Insert_01.bin"}]}