{"asset":{"generator":"Khronos glTF Blender I/O v4.4.55","version":"2.0"},"extensionsUsed":["EXT_texture_webp"],"extensionsRequired":["EXT_texture_webp"],"scene":0,"scenes":[{"name":"Scene","nodes":[0]}],"nodes":[{"mesh":0,"name":"SM_Prop_Small_Table_01","rotation":[0.7071068286895752,0,0,0.7071068286895752],"scale":[0.009999999776482582,0.009999999776482582,0.009999999776482582]}],"materials":[{"doubleSided":true,"name":"Base_Lambert","pbrMetallicRoughness":{"baseColorTexture":{"index":2},"metallicFactor":0,"roughnessFactor":0.5527864098548889}}],"meshes":[{"name":"Mesh","primitives":[{"attributes":{"POSITION":0,"NORMAL":1,"TEXCOORD_0":2,"TEXCOORD_1":3},"indices":4,"material":0}]}],"textures":[{"extensions":{},"sampler":0},{"extensions":{},"sampler":0},{"extensions":{"EXT_texture_webp":{"source":0}},"sampler":0}],"images":[{"mimeType":"image/webp","name":"Wall_05_Emissive","uri":"Wall_05_Emissive.webp"}],"accessors":[{"bufferView":0,"componentType":5126,"count":1062,"max":[59.930389404296875,61.167259216308594,0],"min":[-59.930389404296875,-58.693458557128906,-112.2557373046875],"type":"VEC3"},{"bufferView":1,"componentType":5126,"count":1062,"type":"VEC3"},{"bufferView":2,"componentType":5126,"count":1062,"type":"VEC2"},{"bufferView":3,"componentType":5126,"count":1062,"type":"VEC2"},{"bufferView":4,"componentType":5123,"count":1734,"type":"SCALAR"}],"bufferViews":[{"buffer":0,"byteLength":12744,"byteOffset":0,"target":34962},{"buffer":0,"byteLength":12744,"byteOffset":12744,"target":34962},{"buffer":0,"byteLength":8496,"byteOffset":25488,"target":34962},{"buffer":0,"byteLength":8496,"byteOffset":33984,"target":34962},{"buffer":0,"byteLength":3468,"byteOffset":42480,"target":34963}],"samplers":[{"magFilter":9729,"minFilter":9987}],"buffers":[{"byteLength":45948,"uri":"cyber_SM_Prop_Small_Table_01.bin"}]}