{"asset":{"generator":"Khronos glTF Blender I/O v4.4.55","version":"2.0"},"extensionsUsed":["EXT_texture_webp"],"extensionsRequired":["EXT_texture_webp"],"scene":0,"scenes":[{"name":"Scene","nodes":[0]}],"nodes":[{"mesh":0,"name":"SM_Bld_Metal_Pipe_Frame_01","rotation":[0.7071068286895752,0,0,0.7071068286895752],"scale":[0.009999999776482582,0.009999999776482582,0.009999999776482582]}],"materials":[{"doubleSided":true,"name":"Base_Lambert","pbrMetallicRoughness":{"baseColorTexture":{"index":2},"metallicFactor":0,"roughnessFactor":0.5527864098548889}}],"meshes":[{"name":"Mesh","primitives":[{"attributes":{"POSITION":0,"NORMAL":1,"TEXCOORD_0":2},"indices":3,"material":0}]}],"textures":[{"extensions":{},"sampler":0},{"extensions":{},"sampler":0},{"extensions":{"EXT_texture_webp":{"source":0}},"sampler":0}],"images":[{"mimeType":"image/webp","name":"Wall_05_Emissive","uri":"Wall_05_Emissive.webp"}],"accessors":[{"bufferView":0,"componentType":5126,"count":5105,"max":[250,80.7996597290039,0],"min":[-81.812255859375,-80.7996597290039,-329.1612548828125],"type":"VEC3"},{"bufferView":1,"componentType":5126,"count":5105,"type":"VEC3"},{"bufferView":2,"componentType":5126,"count":5105,"type":"VEC2"},{"bufferView":3,"componentType":5123,"count":8814,"type":"SCALAR"}],"bufferViews":[{"buffer":0,"byteLength":61260,"byteOffset":0,"target":34962},{"buffer":0,"byteLength":61260,"byteOffset":61260,"target":34962},{"buffer":0,"byteLength":40840,"byteOffset":122520,"target":34962},{"buffer":0,"byteLength":17628,"byteOffset":163360,"target":34963}],"samplers":[{"magFilter":9729,"minFilter":9987}],"buffers":[{"byteLength":180988,"uri":"cyber_SM_Bld_Metal_Pipe_Frame_01.bin"}]}