{"asset":{"generator":"Khronos glTF Blender I/O v4.4.55","version":"2.0"},"extensionsUsed":["EXT_texture_webp"],"extensionsRequired":["EXT_texture_webp"],"scene":0,"scenes":[{"name":"Scene","nodes":[5]}],"nodes":[{"mesh":0,"name":"SM_Prop_Drone_03_Gun_01","translation":[-0.11287689208984375,0,0]},{"mesh":1,"name":"SM_Prop_Drone_03_l_Booster_01"},{"mesh":2,"name":"SM_Prop_Drone_03_r_Booster_01"},{"mesh":3,"name":"SM_Prop_Drone_03_Turret_01"},{"children":[3],"mesh":4,"name":"SM_Prop_Drone_03_Swivel_01"},{"children":[0,1,2,4],"mesh":5,"name":"SM_Prop_Drone_03","rotation":[0.7071068286895752,0,0,0.7071068286895752],"scale":[0.009999999776482582,0.009999999776482582,0.009999999776482582]}],"materials":[{"doubleSided":true,"name":"MAT_01A","pbrMetallicRoughness":{"baseColorTexture":{"index":1},"metallicFactor":0,"roughnessFactor":0.5527864098548889}}],"meshes":[{"name":"Mesh.005","primitives":[{"attributes":{"POSITION":0,"NORMAL":1,"TEXCOORD_0":2},"indices":3,"material":0}]},{"name":"Mesh.003","primitives":[{"attributes":{"POSITION":4,"NORMAL":5,"TEXCOORD_0":6},"indices":7,"material":0}]},{"name":"Mesh.004","primitives":[{"attributes":{"POSITION":8,"NORMAL":9,"TEXCOORD_0":10},"indices":11,"material":0}]},{"name":"Mesh.002","primitives":[{"attributes":{"POSITION":12,"NORMAL":13,"TEXCOORD_0":14},"indices":15,"material":0}]},{"name":"Mesh.001","primitives":[{"attributes":{"POSITION":16,"NORMAL":17,"TEXCOORD_0":18},"indices":19,"material":0}]},{"name":"Mesh","primitives":[{"attributes":{"POSITION":20,"NORMAL":21,"TEXCOORD_0":22},"indices":23,"material":0}]}],"textures":[{"extensions":{},"sampler":0},{"extensions":{"EXT_texture_webp":{"source":0}},"sampler":0}],"images":[{"mimeType":"image/webp","name":"PolygonCyberCity_Texture_01_A","uri":"PolygonCyberCity_Texture_01_A.webp"}],"accessors":[{"bufferView":0,"componentType":5126,"count":390,"max":[-66.68559265136719,95.30562591552734,41.047969818115234],"min":[-94.71199798583984,11.798747062683105,16.776397705078125],"type":"VEC3"},{"bufferView":1,"componentType":5126,"count":390,"type":"VEC3"},{"bufferView":2,"componentType":5126,"count":390,"type":"VEC2"},{"bufferView":3,"componentType":5123,"count":654,"type":"SCALAR"},{"bufferView":4,"componentType":5126,"count":826,"max":[-140.5465087890625,119.2965087890625,-15.64802360534668],"min":[-210.6949462890625,-120.6051025390625,-91.1253890991211],"type":"VEC3"},{"bufferView":5,"componentType":5126,"count":826,"type":"VEC3"},{"bufferView":6,"componentType":5126,"count":826,"type":"VEC2"},{"bufferView":7,"componentType":5123,"count":1410,"type":"SCALAR"},{"bufferView":8,"componentType":5126,"count":840,"max":[210.69497680664062,119.2965316772461,-15.64802360534668],"min":[140.54647827148438,-120.24375915527344,-91.1253890991211],"type":"VEC3"},{"bufferView":9,"componentType":5126,"count":840,"type":"VEC3"},{"bufferView":10,"componentType":5126,"count":840,"type":"VEC2"},{"bufferView":11,"componentType":5123,"count":1440,"type":"SCALAR"},{"bufferView":12,"componentType":5126,"count":1236,"max":[19.588932037353516,110.3910903930664,64.63164520263672],"min":[-19.58893585205078,-11.482041358947754,40.65382385253906],"type":"VEC3"},{"bufferView":13,"componentType":5126,"count":1236,"type":"VEC3"},{"bufferView":14,"componentType":5126,"count":1236,"type":"VEC2"},{"bufferView":15,"componentType":5123,"count":1974,"type":"SCALAR"},{"bufferView":16,"componentType":5126,"count":24,"max":[7.0589704513549805,21.753328323364258,45.19466018676758],"min":[-7.0589704513549805,8.956843376159668,27.88551139831543],"type":"VEC3"},{"bufferView":17,"componentType":5126,"count":24,"type":"VEC3"},{"bufferView":18,"componentType":5126,"count":24,"type":"VEC2"},{"bufferView":19,"componentType":5123,"count":36,"type":"SCALAR"},{"bufferView":20,"componentType":5126,"count":3551,"max":[142.9508056640625,141.226318359375,59.812599182128906],"min":[-142.9508056640625,-139.98822021484375,-59.812599182128906],"type":"VEC3"},{"bufferView":21,"componentType":5126,"count":3551,"type":"VEC3"},{"bufferView":22,"componentType":5126,"count":3551,"type":"VEC2"},{"bufferView":23,"componentType":5123,"count":5820,"type":"SCALAR"}],"bufferViews":[{"buffer":0,"byteLength":4680,"byteOffset":0,"target":34962},{"buffer":0,"byteLength":4680,"byteOffset":4680,"target":34962},{"buffer":0,"byteLength":3120,"byteOffset":9360,"target":34962},{"buffer":0,"byteLength":1308,"byteOffset":12480,"target":34963},{"buffer":0,"byteLength":9912,"byteOffset":13788,"target":34962},{"buffer":0,"byteLength":9912,"byteOffset":23700,"target":34962},{"buffer":0,"byteLength":6608,"byteOffset":33612,"target":34962},{"buffer":0,"byteLength":2820,"byteOffset":40220,"target":34963},{"buffer":0,"byteLength":10080,"byteOffset":43040,"target":34962},{"buffer":0,"byteLength":10080,"byteOffset":53120,"target":34962},{"buffer":0,"byteLength":6720,"byteOffset":63200,"target":34962},{"buffer":0,"byteLength":2880,"byteOffset":69920,"target":34963},{"buffer":0,"byteLength":14832,"byteOffset":72800,"target":34962},{"buffer":0,"byteLength":14832,"byteOffset":87632,"target":34962},{"buffer":0,"byteLength":9888,"byteOffset":102464,"target":34962},{"buffer":0,"byteLength":3948,"byteOffset":112352,"target":34963},{"buffer":0,"byteLength":288,"byteOffset":116300,"target":34962},{"buffer":0,"byteLength":288,"byteOffset":116588,"target":34962},{"buffer":0,"byteLength":192,"byteOffset":116876,"target":34962},{"buffer":0,"byteLength":72,"byteOffset":117068,"target":34963},{"buffer":0,"byteLength":42612,"byteOffset":117140,"target":34962},{"buffer":0,"byteLength":42612,"byteOffset":159752,"target":34962},{"buffer":0,"byteLength":28408,"byteOffset":202364,"target":34962},{"buffer":0,"byteLength":11640,"byteOffset":230772,"target":34963}],"samplers":[{"magFilter":9729,"minFilter":9987}],"buffers":[{"byteLength":242412,"uri":"cyber_SM_Prop_Drone_03.bin"}]}