{"asset":{"generator":"Khronos glTF Blender I/O v4.4.55","version":"2.0"},"extensionsUsed":["EXT_texture_webp"],"extensionsRequired":["EXT_texture_webp"],"scene":0,"scenes":[{"name":"Scene","nodes":[0]}],"nodes":[{"mesh":0,"name":"SM_Prop_Lantern_01","rotation":[0.7071068286895752,0,0,0.7071068286895752],"scale":[0.009999999776482582,0.009999999776482582,0.009999999776482582]}],"materials":[{"doubleSided":true,"name":"Scifi_Cybercity_Main","pbrMetallicRoughness":{"baseColorTexture":{"index":2},"metallicFactor":0,"roughnessFactor":0.5527864098548889}}],"meshes":[{"name":"Mesh","primitives":[{"attributes":{"POSITION":0,"NORMAL":1,"TEXCOORD_0":2},"indices":3,"material":0}]}],"textures":[{"extensions":{},"sampler":0},{"extensions":{},"sampler":0},{"extensions":{"EXT_texture_webp":{"source":0}},"sampler":0}],"images":[{"mimeType":"image/webp","name":"Wall_05_Emissive","uri":"Wall_05_Emissive.webp"}],"accessors":[{"bufferView":0,"componentType":5126,"count":614,"max":[19.08935546875,119.05555725097656,101.1046142578125],"min":[-19.08935546875,-2.041259765625,-14.69775390625],"type":"VEC3"},{"bufferView":1,"componentType":5126,"count":614,"type":"VEC3"},{"bufferView":2,"componentType":5126,"count":614,"type":"VEC2"},{"bufferView":3,"componentType":5123,"count":990,"type":"SCALAR"}],"bufferViews":[{"buffer":0,"byteLength":7368,"byteOffset":0,"target":34962},{"buffer":0,"byteLength":7368,"byteOffset":7368,"target":34962},{"buffer":0,"byteLength":4912,"byteOffset":14736,"target":34962},{"buffer":0,"byteLength":1980,"byteOffset":19648,"target":34963}],"samplers":[{"magFilter":9729,"minFilter":9987}],"buffers":[{"byteLength":21628,"uri":"cyber_SM_Prop_Lantern_01.bin"}]}