{"asset":{"generator":"Khronos glTF Blender I/O v4.4.55","version":"2.0"},"extensionsUsed":["EXT_texture_webp"],"extensionsRequired":["EXT_texture_webp"],"scene":0,"scenes":[{"name":"Scene","nodes":[5]}],"nodes":[{"mesh":0,"name":"SM_Prop_Fridge_01_Glass_01"},{"children":[0],"mesh":1,"name":"SM_Prop_Fridge_01_Door_01"},{"mesh":2,"name":"SM_Prop_Fridge_01_Glass_02"},{"children":[2],"mesh":3,"name":"SM_Prop_Fridge_01_Door_02"},{"mesh":4,"name":"SM_Prop_Fridge_01_Glass_03"},{"children":[1,3,4],"mesh":5,"name":"SM_Prop_Fridge_01","rotation":[0.7071068286895752,0,0,0.7071068286895752],"scale":[0.009999999776482582,0.009999999776482582,0.009999999776482582]}],"materials":[{"alphaMode":"MASK","doubleSided":true,"name":"Base_Lambert1","pbrMetallicRoughness":{"baseColorFactor":[1,1,1,0.4345238208770752],"baseColorTexture":{"index":1},"metallicFactor":0,"roughnessFactor":0.5527864098548889},"alphaCutoff":0.5},{"doubleSided":true,"name":"MAT_01A","pbrMetallicRoughness":{"baseColorTexture":{"index":3},"metallicFactor":0,"roughnessFactor":0.5527864098548889}}],"meshes":[{"name":"Mesh.005","primitives":[{"attributes":{"POSITION":0,"NORMAL":1,"TEXCOORD_0":2},"indices":3,"material":0}]},{"name":"Mesh.004","primitives":[{"attributes":{"POSITION":4,"NORMAL":5,"TEXCOORD_0":6},"indices":7,"material":1}]},{"name":"Mesh.003","primitives":[{"attributes":{"POSITION":8,"NORMAL":9,"TEXCOORD_0":10},"indices":11,"material":0}]},{"name":"Mesh.002","primitives":[{"attributes":{"POSITION":12,"NORMAL":13,"TEXCOORD_0":14},"indices":15,"material":1}]},{"name":"Mesh.001","primitives":[{"attributes":{"POSITION":16,"NORMAL":17,"TEXCOORD_0":18},"indices":19,"material":0}]},{"name":"Mesh","primitives":[{"attributes":{"POSITION":20,"NORMAL":21,"TEXCOORD_0":22},"indices":23,"material":1}]}],"textures":[{"extensions":{},"sampler":0},{"extensions":{"EXT_texture_webp":{"source":0}},"sampler":0},{"extensions":{},"sampler":0},{"extensions":{"EXT_texture_webp":{"source":1}},"sampler":0}],"images":[{"mimeType":"image/webp","name":"Wall_05_Emissive","uri":"Wall_05_Emissive.webp"},{"mimeType":"image/webp","name":"PolygonCyberCity_Texture_01_A","uri":"PolygonCyberCity_Texture_01_A.webp"}],"accessors":[{"bufferView":0,"componentType":5126,"count":24,"max":[-39.6962776184082,43.762691497802734,-22.25531578063965],"min":[-98.93431091308594,15.592069625854492,-197.8645782470703],"type":"VEC3"},{"bufferView":1,"componentType":5126,"count":24,"type":"VEC3"},{"bufferView":2,"componentType":5126,"count":24,"type":"VEC2"},{"bufferView":3,"componentType":5123,"count":36,"type":"SCALAR"},{"bufferView":4,"componentType":5126,"count":202,"max":[-31.988306045532227,49.291404724121094,-18.413169860839844],"min":[-102.29122161865234,10.253400802612305,-201.2045440673828],"type":"VEC3"},{"bufferView":5,"componentType":5126,"count":202,"type":"VEC3"},{"bufferView":6,"componentType":5126,"count":202,"type":"VEC2"},{"bufferView":7,"componentType":5123,"count":348,"type":"SCALAR"},{"bufferView":8,"componentType":5126,"count":28,"max":[92.99736022949219,38.027671813964844,-17.774057388305664],"min":[22.967418670654297,35.42747497558594,-81.3998031616211],"type":"VEC3"},{"bufferView":9,"componentType":5126,"count":28,"type":"VEC3"},{"bufferView":10,"componentType":5126,"count":28,"type":"VEC2"},{"bufferView":11,"componentType":5123,"count":48,"type":"SCALAR"},{"bufferView":12,"componentType":5126,"count":128,"max":[94.76593017578125,40.46778869628906,-18.04313850402832],"min":[19.77280044555664,33.12696075439453,-81.14483642578125],"type":"VEC3"},{"bufferView":13,"componentType":5126,"count":128,"type":"VEC3"},{"bufferView":14,"componentType":5126,"count":128,"type":"VEC2"},{"bufferView":15,"componentType":5123,"count":228,"type":"SCALAR"},{"bufferView":16,"componentType":5126,"count":46,"max":[124.05322265625,38.18993377685547,-17.367218017578125],"min":[-32.418724060058594,7.613000869750977,-199.2389678955078],"type":"VEC3"},{"bufferView":17,"componentType":5126,"count":46,"type":"VEC3"},{"bufferView":18,"componentType":5126,"count":46,"type":"VEC2"},{"bufferView":19,"componentType":5123,"count":72,"type":"SCALAR"},{"bufferView":20,"componentType":5126,"count":1967,"max":[144.01918029785156,42.283119201660156,2.0608395061572082e-05],"min":[-112.03628540039062,-39.514007568359375,-218.3584747314453],"type":"VEC3"},{"bufferView":21,"componentType":5126,"count":1967,"type":"VEC3"},{"bufferView":22,"componentType":5126,"count":1967,"type":"VEC2"},{"bufferView":23,"componentType":5123,"count":2934,"type":"SCALAR"}],"bufferViews":[{"buffer":0,"byteLength":288,"byteOffset":0,"target":34962},{"buffer":0,"byteLength":288,"byteOffset":288,"target":34962},{"buffer":0,"byteLength":192,"byteOffset":576,"target":34962},{"buffer":0,"byteLength":72,"byteOffset":768,"target":34963},{"buffer":0,"byteLength":2424,"byteOffset":840,"target":34962},{"buffer":0,"byteLength":2424,"byteOffset":3264,"target":34962},{"buffer":0,"byteLength":1616,"byteOffset":5688,"target":34962},{"buffer":0,"byteLength":696,"byteOffset":7304,"target":34963},{"buffer":0,"byteLength":336,"byteOffset":8000,"target":34962},{"buffer":0,"byteLength":336,"byteOffset":8336,"target":34962},{"buffer":0,"byteLength":224,"byteOffset":8672,"target":34962},{"buffer":0,"byteLength":96,"byteOffset":8896,"target":34963},{"buffer":0,"byteLength":1536,"byteOffset":8992,"target":34962},{"buffer":0,"byteLength":1536,"byteOffset":10528,"target":34962},{"buffer":0,"byteLength":1024,"byteOffset":12064,"target":34962},{"buffer":0,"byteLength":456,"byteOffset":13088,"target":34963},{"buffer":0,"byteLength":552,"byteOffset":13544,"target":34962},{"buffer":0,"byteLength":552,"byteOffset":14096,"target":34962},{"buffer":0,"byteLength":368,"byteOffset":14648,"target":34962},{"buffer":0,"byteLength":144,"byteOffset":15016,"target":34963},{"buffer":0,"byteLength":23604,"byteOffset":15160,"target":34962},{"buffer":0,"byteLength":23604,"byteOffset":38764,"target":34962},{"buffer":0,"byteLength":15736,"byteOffset":62368,"target":34962},{"buffer":0,"byteLength":5868,"byteOffset":78104,"target":34963}],"samplers":[{"magFilter":9729,"minFilter":9987}],"buffers":[{"byteLength":83972,"uri":"cyber_SM_Prop_Fridge_01.bin"}]}