{"asset":{"generator":"Khronos glTF Blender I/O v4.4.55","version":"2.0"},"extensionsUsed":["EXT_texture_webp"],"extensionsRequired":["EXT_texture_webp"],"scene":0,"scenes":[{"name":"Scene","nodes":[0]}],"nodes":[{"mesh":0,"name":"SM_Bld_Pipe_Large_Hatch_02","rotation":[0.7071068286895752,0,0,0.7071068286895752],"scale":[0.009999999776482582,0.009999999776482582,0.009999999776482582]}],"materials":[{"doubleSided":true,"name":"Base_Lambert","pbrMetallicRoughness":{"baseColorTexture":{"index":2},"metallicFactor":0,"roughnessFactor":0.5527864098548889}}],"meshes":[{"name":"Mesh","primitives":[{"attributes":{"POSITION":0,"NORMAL":1,"TEXCOORD_0":2},"indices":3,"material":0}]}],"textures":[{"extensions":{},"sampler":0},{"extensions":{},"sampler":0},{"extensions":{"EXT_texture_webp":{"source":0}},"sampler":0}],"images":[{"mimeType":"image/webp","name":"Wall_05_Emissive","uri":"Wall_05_Emissive.webp"}],"accessors":[{"bufferView":0,"componentType":5126,"count":618,"max":[21.744667053222656,13.919883728027344,64.66220092773438],"min":[-4.14950545746251e-06,-120.65634155273438,-64.66220092773438],"type":"VEC3"},{"bufferView":1,"componentType":5126,"count":618,"type":"VEC3"},{"bufferView":2,"componentType":5126,"count":618,"type":"VEC2"},{"bufferView":3,"componentType":5123,"count":1026,"type":"SCALAR"}],"bufferViews":[{"buffer":0,"byteLength":7416,"byteOffset":0,"target":34962},{"buffer":0,"byteLength":7416,"byteOffset":7416,"target":34962},{"buffer":0,"byteLength":4944,"byteOffset":14832,"target":34962},{"buffer":0,"byteLength":2052,"byteOffset":19776,"target":34963}],"samplers":[{"magFilter":9729,"minFilter":9987}],"buffers":[{"byteLength":21828,"uri":"cyber_SM_Bld_Pipe_Large_Hatch_02.bin"}]}