{
	"asset":{
		"generator":"Khronos glTF Blender I/O v4.4.55",
		"version":"2.0"
	},
	"extensionsUsed":[
		"EXT_texture_webp"
	],
	"extensionsRequired":[
		"EXT_texture_webp"
	],
	"scene":0,
	"scenes":[
		{
			"name":"Scene",
			"nodes":[
				1
			]
		}
	],
	"nodes":[
		{
			"mesh":0,
			"name":"SM_Prop_Greebles_06_Split_Fan"
		},
		{
			"children":[
				0
			],
			"mesh":1,
			"name":"SM_Prop_Greebles_06_Split",
			"rotation":[
				0.70710688829422,
				0,
				0,
				0.7071066498756409
			],
			"scale":[
				0.009999999776482582,
				0.009999999776482582,
				0.009999999776482582
			]
		}
	],
	"materials":[
		{
			"doubleSided":true,
			"name":"CyberCityTexture.003",
			"pbrMetallicRoughness":{
				"baseColorTexture":{
					"index":0
				},
				"metallicFactor":0,
				"roughnessFactor":0.5527864098548889
			}
		},
		{
			"doubleSided":true,
			"name":"CyberCityTexture.002",
			"pbrMetallicRoughness":{
				"baseColorTexture":{
					"index":1
				},
				"metallicFactor":0,
				"roughnessFactor":0.5527864098548889
			}
		}
	],
	"meshes":[
		{
			"name":"Mesh.013",
			"primitives":[
				{
					"attributes":{
						"POSITION":0,
						"NORMAL":1,
						"TEXCOORD_0":2,
						"TEXCOORD_1":3
					},
					"indices":4,
					"material":0
				}
			]
		},
		{
			"name":"Mesh.003",
			"primitives":[
				{
					"attributes":{
						"POSITION":5,
						"NORMAL":6,
						"TEXCOORD_0":7,
						"TEXCOORD_1":8
					},
					"indices":9,
					"material":1
				}
			]
		}
	],
	"textures":[
		{
			"extensions":{
				"EXT_texture_webp":{
					"source":0
				}
			},
			"sampler":0
		},
		{
			"extensions":{
				"EXT_texture_webp":{
					"source":0
				}
			},
			"sampler":0
		}
	],
	"images":[
		{
			"mimeType":"image/webp",
			"name":"PolygonCyberCity_Texture_01_A",
			"uri":"PolygonCyberCity_Texture_01_A.webp"
		}
	],
	"accessors":[
		{
			"bufferView":0,
			"componentType":5126,
			"count":229,
			"max":[
				29.894651412963867,
				28.334413528442383,
				29.89447021484375
			],
			"min":[
				-29.89459991455078,
				20.848867416381836,
				-29.894683837890625
			],
			"type":"VEC3"
		},
		{
			"bufferView":1,
			"componentType":5126,
			"count":229,
			"type":"VEC3"
		},
		{
			"bufferView":2,
			"componentType":5126,
			"count":229,
			"type":"VEC2"
		},
		{
			"bufferView":3,
			"componentType":5126,
			"count":229,
			"type":"VEC2"
		},
		{
			"bufferView":4,
			"componentType":5123,
			"count":324,
			"type":"SCALAR"
		},
		{
			"bufferView":5,
			"componentType":5126,
			"count":527,
			"max":[
				42.41455841064453,
				27.87342071533203,
				61.3363037109375
			],
			"min":[
				-42.41456604003906,
				8.991031646728516,
				-61.33629608154297
			],
			"type":"VEC3"
		},
		{
			"bufferView":6,
			"componentType":5126,
			"count":527,
			"type":"VEC3"
		},
		{
			"bufferView":7,
			"componentType":5126,
			"count":527,
			"type":"VEC2"
		},
		{
			"bufferView":8,
			"componentType":5126,
			"count":527,
			"type":"VEC2"
		},
		{
			"bufferView":9,
			"componentType":5123,
			"count":894,
			"type":"SCALAR"
		}
	],
	"bufferViews":[
		{
			"buffer":0,
			"byteLength":2748,
			"byteOffset":0,
			"target":34962
		},
		{
			"buffer":0,
			"byteLength":2748,
			"byteOffset":2748,
			"target":34962
		},
		{
			"buffer":0,
			"byteLength":1832,
			"byteOffset":5496,
			"target":34962
		},
		{
			"buffer":0,
			"byteLength":1832,
			"byteOffset":7328,
			"target":34962
		},
		{
			"buffer":0,
			"byteLength":648,
			"byteOffset":9160,
			"target":34963
		},
		{
			"buffer":0,
			"byteLength":6324,
			"byteOffset":9808,
			"target":34962
		},
		{
			"buffer":0,
			"byteLength":6324,
			"byteOffset":16132,
			"target":34962
		},
		{
			"buffer":0,
			"byteLength":4216,
			"byteOffset":22456,
			"target":34962
		},
		{
			"buffer":0,
			"byteLength":4216,
			"byteOffset":26672,
			"target":34962
		},
		{
			"buffer":0,
			"byteLength":1788,
			"byteOffset":30888,
			"target":34963
		}
	],
	"samplers":[
		{
			"magFilter":9729,
			"minFilter":9987
		}
	],
	"buffers":[
		{
			"byteLength":32676,
			"uri":"cyber_SM_Prop_Greebles_06_Split.bin"
		}
	]
}
