{"asset":{"generator":"Khronos glTF Blender I/O v4.4.55","version":"2.0"},"extensionsUsed":["EXT_texture_webp"],"extensionsRequired":["EXT_texture_webp"],"scene":0,"scenes":[{"name":"Scene","nodes":[0]}],"nodes":[{"mesh":0,"name":"SM_Bld_Wall_Half_01","rotation":[0.7071068286895752,0,0,0.7071068286895752],"scale":[0.009999999776482582,0.009999999776482582,0.009999999776482582]}],"materials":[{"doubleSided":true,"emissiveFactor":[1,1,1],"name":"Base_Lambert","pbrMetallicRoughness":{"baseColorTexture":{"index":2},"metallicFactor":0,"roughnessFactor":0.5527864098548889}},{"doubleSided":true,"name":"A_Wall","pbrMetallicRoughness":{"baseColorTexture":{"index":3},"metallicFactor":0,"roughnessFactor":0.5527864098548889}}],"meshes":[{"name":"Mesh","primitives":[{"attributes":{"POSITION":0,"NORMAL":1,"TEXCOORD_0":2},"indices":3,"material":0},{"attributes":{"POSITION":4,"NORMAL":5,"TEXCOORD_0":6},"indices":7,"material":1}]}],"textures":[{"extensions":{},"sampler":0},{"extensions":{},"sampler":0},{"extensions":{"EXT_texture_webp":{"source":0}},"sampler":0},{"extensions":{"EXT_texture_webp":{"source":1}},"sampler":0}],"images":[{"mimeType":"image/webp","name":"Wall_05_Emissive","uri":"Wall_05_Emissive.webp"},{"mimeType":"image/webp","name":"PolygonCyberCity_Texture_01_A","uri":"PolygonCyberCity_Texture_01_A.webp"}],"accessors":[{"bufferView":0,"componentType":5126,"count":540,"max":[250,11.368327140808105,0],"min":[0,0,-150],"type":"VEC3"},{"bufferView":1,"componentType":5126,"count":540,"type":"VEC3"},{"bufferView":2,"componentType":5126,"count":540,"type":"VEC2"},{"bufferView":3,"componentType":5123,"count":732,"type":"SCALAR"},{"bufferView":4,"componentType":5126,"count":20,"max":[250,9.424033818941635e-13,0],"min":[0,-11.249999046325684,-150],"type":"VEC3"},{"bufferView":5,"componentType":5126,"count":20,"type":"VEC3"},{"bufferView":6,"componentType":5126,"count":20,"type":"VEC2"},{"bufferView":7,"componentType":5123,"count":30,"type":"SCALAR"}],"bufferViews":[{"buffer":0,"byteLength":6480,"byteOffset":0,"target":34962},{"buffer":0,"byteLength":6480,"byteOffset":6480,"target":34962},{"buffer":0,"byteLength":4320,"byteOffset":12960,"target":34962},{"buffer":0,"byteLength":1464,"byteOffset":17280,"target":34963},{"buffer":0,"byteLength":240,"byteOffset":18744,"target":34962},{"buffer":0,"byteLength":240,"byteOffset":18984,"target":34962},{"buffer":0,"byteLength":160,"byteOffset":19224,"target":34962},{"buffer":0,"byteLength":60,"byteOffset":19384,"target":34963}],"samplers":[{"magFilter":9729,"minFilter":9987}],"buffers":[{"byteLength":19444,"uri":"cyber_SM_Bld_Wall_Half_01.bin"}]}