{
	"asset":{
		"generator":"Khronos glTF Blender I/O v4.4.55",
		"version":"2.0"
	},
	"extensionsUsed":[
		"EXT_texture_webp"
	],
	"extensionsRequired":[
		"EXT_texture_webp"
	],
	"scene":0,
	"scenes":[
		{
			"name":"Scene",
			"nodes":[
				1
			]
		}
	],
	"nodes":[
		{
			"mesh":0,
			"name":"SM_Prop_Crate_06_Lid_01"
		},
		{
			"children":[
				0
			],
			"mesh":1,
			"name":"SM_Prop_Crate_06",
			"rotation":[
				0.7071068286895752,
				0,
				0,
				0.7071068286895752
			],
			"scale":[
				0.009999999776482582,
				0.009999999776482582,
				0.009999999776482582
			]
		}
	],
	"materials":[
		{
			"doubleSided":true,
			"name":"lambert18",
			"pbrMetallicRoughness":{
				"baseColorTexture":{
					"index":0
				},
				"metallicFactor":0,
				"roughnessFactor":0.5527864098548889
			}
		}
	],
	"meshes":[
		{
			"name":"Mesh.001",
			"primitives":[
				{
					"attributes":{
						"POSITION":0,
						"NORMAL":1,
						"TEXCOORD_0":2
					},
					"indices":3,
					"material":0
				}
			]
		},
		{
			"name":"Mesh",
			"primitives":[
				{
					"attributes":{
						"POSITION":4,
						"NORMAL":5,
						"TEXCOORD_0":6
					},
					"indices":7,
					"material":0
				}
			]
		}
	],
	"textures":[
		{
			"extensions":{
				"EXT_texture_webp":{
					"source":0
				}
			},
			"sampler":0
		}
	],
	"images":[
		{
			"mimeType":"image/webp",
			"name":"PolygonCyberCity_Texture_01_A",
			"uri":"PolygonCyberCity_Texture_01_A.webp"
		}
	],
	"accessors":[
		{
			"bufferView":0,
			"componentType":5126,
			"count":437,
			"max":[
				38.11286163330078,
				18.314361572265625,
				-59.28107833862305
			],
			"min":[
				-38.21287155151367,
				-18.314361572265625,
				-68.41351318359375
			],
			"type":"VEC3"
		},
		{
			"bufferView":1,
			"componentType":5126,
			"count":437,
			"type":"VEC3"
		},
		{
			"bufferView":2,
			"componentType":5126,
			"count":437,
			"type":"VEC2"
		},
		{
			"bufferView":3,
			"componentType":5123,
			"count":762,
			"type":"SCALAR"
		},
		{
			"bufferView":4,
			"componentType":5126,
			"count":1372,
			"max":[
				56.10498809814453,
				30.041297912597656,
				0
			],
			"min":[
				-56.10498809814453,
				-30.041297912597656,
				-66.14332580566406
			],
			"type":"VEC3"
		},
		{
			"bufferView":5,
			"componentType":5126,
			"count":1372,
			"type":"VEC3"
		},
		{
			"bufferView":6,
			"componentType":5126,
			"count":1372,
			"type":"VEC2"
		},
		{
			"bufferView":7,
			"componentType":5123,
			"count":2292,
			"type":"SCALAR"
		}
	],
	"bufferViews":[
		{
			"buffer":0,
			"byteLength":5244,
			"byteOffset":0,
			"target":34962
		},
		{
			"buffer":0,
			"byteLength":5244,
			"byteOffset":5244,
			"target":34962
		},
		{
			"buffer":0,
			"byteLength":3496,
			"byteOffset":10488,
			"target":34962
		},
		{
			"buffer":0,
			"byteLength":1524,
			"byteOffset":13984,
			"target":34963
		},
		{
			"buffer":0,
			"byteLength":16464,
			"byteOffset":15508,
			"target":34962
		},
		{
			"buffer":0,
			"byteLength":16464,
			"byteOffset":31972,
			"target":34962
		},
		{
			"buffer":0,
			"byteLength":10976,
			"byteOffset":48436,
			"target":34962
		},
		{
			"buffer":0,
			"byteLength":4584,
			"byteOffset":59412,
			"target":34963
		}
	],
	"samplers":[
		{
			"magFilter":9729,
			"minFilter":9987
		}
	],
	"buffers":[
		{
			"byteLength":63996,
			"uri":"cyber_SM_Prop_Crate_06.bin"
		}
	]
}
