{
	"asset":{
		"generator":"Khronos glTF Blender I/O v4.4.55",
		"version":"2.0"
	},
	"extensionsUsed":[
		"EXT_texture_webp"
	],
	"extensionsRequired":[
		"EXT_texture_webp"
	],
	"scene":0,
	"scenes":[
		{
			"name":"Scene",
			"nodes":[
				0
			]
		}
	],
	"nodes":[
		{
			"mesh":0,
			"name":"SM_Prop_Robot_Posed_03",
			"rotation":[
				0.7071068286895752,
				0,
				0,
				0.7071068286895752
			],
			"scale":[
				0.009999999776482582,
				0.009999999776482582,
				0.009999999776482582
			]
		}
	],
	"materials":[
		{
			"doubleSided":true,
			"name":"roboguy_lambert4SG13",
			"pbrMetallicRoughness":{
				"baseColorTexture":{
					"index":0
				},
				"metallicFactor":0,
				"roughnessFactor":0.5527864098548889
			}
		}
	],
	"meshes":[
		{
			"name":"Mesh",
			"primitives":[
				{
					"attributes":{
						"POSITION":0,
						"NORMAL":1,
						"TEXCOORD_0":2
					},
					"indices":3,
					"material":0
				}
			]
		}
	],
	"textures":[
		{
			"extensions":{
				"EXT_texture_webp":{
					"source":0
				}
			},
			"sampler":0
		}
	],
	"images":[
		{
			"mimeType":"image/webp",
			"name":"PolygonCyberCity_Texture_01_A",
			"uri":"PolygonCyberCity_Texture_01_A.webp"
		}
	],
	"accessors":[
		{
			"bufferView":0,
			"componentType":5126,
			"count":4905,
			"max":[
				79.08883666992188,
				102.40022277832031,
				6.655914306640625
			],
			"min":[
				-100.28924560546875,
				-61.36545181274414,
				-39.45930862426758
			],
			"type":"VEC3"
		},
		{
			"bufferView":1,
			"componentType":5126,
			"count":4905,
			"type":"VEC3"
		},
		{
			"bufferView":2,
			"componentType":5126,
			"count":4905,
			"type":"VEC2"
		},
		{
			"bufferView":3,
			"componentType":5123,
			"count":6420,
			"type":"SCALAR"
		}
	],
	"bufferViews":[
		{
			"buffer":0,
			"byteLength":58860,
			"byteOffset":0,
			"target":34962
		},
		{
			"buffer":0,
			"byteLength":58860,
			"byteOffset":58860,
			"target":34962
		},
		{
			"buffer":0,
			"byteLength":39240,
			"byteOffset":117720,
			"target":34962
		},
		{
			"buffer":0,
			"byteLength":12840,
			"byteOffset":156960,
			"target":34963
		}
	],
	"samplers":[
		{
			"magFilter":9729,
			"minFilter":9987
		}
	],
	"buffers":[
		{
			"byteLength":169800,
			"uri":"cyber_SM_Prop_Robot_Posed_03.bin"
		}
	]
}
