{
	"asset":{
		"generator":"Khronos glTF Blender I/O v4.4.55",
		"version":"2.0"
	},
	"extensionsUsed":[
		"EXT_texture_webp"
	],
	"extensionsRequired":[
		"EXT_texture_webp"
	],
	"scene":0,
	"scenes":[
		{
			"name":"Scene",
			"nodes":[
				0
			]
		}
	],
	"nodes":[
		{
			"mesh":0,
			"name":"SM_Prop_Junk_Paper_14",
			"rotation":[
				0.7071068286895752,
				0,
				0,
				0.7071068286895752
			],
			"scale":[
				0.009999999776482582,
				0.009999999776482582,
				0.009999999776482582
			]
		}
	],
	"materials":[
		{
			"doubleSided":true,
			"name":"PapersPlease12",
			"pbrMetallicRoughness":{
				"baseColorTexture":{
					"index":0
				},
				"metallicFactor":0,
				"roughnessFactor":0.5527864098548889
			}
		}
	],
	"meshes":[
		{
			"name":"Mesh",
			"primitives":[
				{
					"attributes":{
						"POSITION":0,
						"NORMAL":1,
						"TEXCOORD_0":2
					},
					"indices":3,
					"material":0
				}
			]
		}
	],
	"textures":[
		{
			"extensions":{
				"EXT_texture_webp":{
					"source":0
				}
			},
			"sampler":0
		}
	],
	"images":[
		{
			"mimeType":"image/webp",
			"name":"Posters_01",
			"uri":"Posters_01.webp"
		}
	],
	"accessors":[
		{
			"bufferView":0,
			"componentType":5126,
			"count":302,
			"max":[
				21.8448486328125,
				31.38512420654297,
				0
			],
			"min":[
				-27.16469383239746,
				-31.159242630004883,
				-7.348943710327148
			],
			"type":"VEC3"
		},
		{
			"bufferView":1,
			"componentType":5126,
			"count":302,
			"type":"VEC3"
		},
		{
			"bufferView":2,
			"componentType":5126,
			"count":302,
			"type":"VEC2"
		},
		{
			"bufferView":3,
			"componentType":5123,
			"count":456,
			"type":"SCALAR"
		}
	],
	"bufferViews":[
		{
			"buffer":0,
			"byteLength":3624,
			"byteOffset":0,
			"target":34962
		},
		{
			"buffer":0,
			"byteLength":3624,
			"byteOffset":3624,
			"target":34962
		},
		{
			"buffer":0,
			"byteLength":2416,
			"byteOffset":7248,
			"target":34962
		},
		{
			"buffer":0,
			"byteLength":912,
			"byteOffset":9664,
			"target":34963
		}
	],
	"samplers":[
		{
			"magFilter":9729,
			"minFilter":9987
		}
	],
	"buffers":[
		{
			"byteLength":10576,
			"uri":"cyber_SM_Prop_Junk_Paper_14.bin"
		}
	]
}
