{
	"asset":{
		"generator":"Khronos glTF Blender I/O v4.4.55",
		"version":"2.0"
	},
	"extensionsUsed":[
		"EXT_texture_webp"
	],
	"extensionsRequired":[
		"EXT_texture_webp"
	],
	"scene":0,
	"scenes":[
		{
			"name":"Scene",
			"nodes":[
				2
			]
		}
	],
	"nodes":[
		{
			"mesh":0,
			"name":"SM_Prop_Canopy_04_Fabric_01"
		},
		{
			"mesh":1,
			"name":"SM_Prop_Canopy_04_Fabric_02"
		},
		{
			"children":[
				0,
				1
			],
			"mesh":2,
			"name":"SM_Prop_Canopy_04",
			"rotation":[
				0.7071068286895752,
				0,
				0,
				0.7071068286895752
			],
			"scale":[
				0.009999999776482582,
				0.009999999776482582,
				0.009999999776482582
			]
		}
	],
	"materials":[
		{
			"doubleSided":true,
			"name":"lambert3",
			"pbrMetallicRoughness":{
				"baseColorTexture":{
					"index":0
				},
				"metallicFactor":0,
				"roughnessFactor":0.5527864098548889
			}
		}
	],
	"meshes":[
		{
			"name":"Mesh.001",
			"primitives":[
				{
					"attributes":{
						"POSITION":0,
						"NORMAL":1,
						"TEXCOORD_0":2
					},
					"indices":3,
					"material":0
				}
			]
		},
		{
			"name":"Mesh.002",
			"primitives":[
				{
					"attributes":{
						"POSITION":4,
						"NORMAL":5,
						"TEXCOORD_0":6
					},
					"indices":7,
					"material":0
				}
			]
		},
		{
			"name":"Mesh",
			"primitives":[
				{
					"attributes":{
						"POSITION":8,
						"NORMAL":9,
						"TEXCOORD_0":10
					},
					"indices":11,
					"material":0
				}
			]
		}
	],
	"textures":[
		{
			"extensions":{
				"EXT_texture_webp":{
					"source":0
				}
			},
			"sampler":0
		}
	],
	"images":[
		{
			"mimeType":"image/webp",
			"name":"PolygonCyberCity_Texture_01_A",
			"uri":"PolygonCyberCity_Texture_01_A.webp"
		}
	],
	"accessors":[
		{
			"bufferView":0,
			"componentType":5126,
			"count":131,
			"max":[
				320.6737060546875,
				323.463134765625,
				47.25078201293945
			],
			"min":[
				-291.3448181152344,
				-377.3902282714844,
				-68.93260192871094
			],
			"type":"VEC3"
		},
		{
			"bufferView":1,
			"componentType":5126,
			"count":131,
			"type":"VEC3"
		},
		{
			"bufferView":2,
			"componentType":5126,
			"count":131,
			"type":"VEC2"
		},
		{
			"bufferView":3,
			"componentType":5123,
			"count":216,
			"type":"SCALAR"
		},
		{
			"bufferView":4,
			"componentType":5126,
			"count":135,
			"max":[
				272.52838134765625,
				324.254150390625,
				46.025779724121094
			],
			"min":[
				-347.1865234375,
				-376.7954406738281,
				-94.72315216064453
			],
			"type":"VEC3"
		},
		{
			"bufferView":5,
			"componentType":5126,
			"count":135,
			"type":"VEC3"
		},
		{
			"bufferView":6,
			"componentType":5126,
			"count":135,
			"type":"VEC2"
		},
		{
			"bufferView":7,
			"componentType":5123,
			"count":216,
			"type":"SCALAR"
		},
		{
			"bufferView":8,
			"componentType":5126,
			"count":2010,
			"max":[
				349.0209045410156,
				352.3470153808594,
				57.922325134277344
			],
			"min":[
				-371.3110656738281,
				-404.1825256347656,
				-97.65650177001953
			],
			"type":"VEC3"
		},
		{
			"bufferView":9,
			"componentType":5126,
			"count":2010,
			"type":"VEC3"
		},
		{
			"bufferView":10,
			"componentType":5126,
			"count":2010,
			"type":"VEC2"
		},
		{
			"bufferView":11,
			"componentType":5123,
			"count":3138,
			"type":"SCALAR"
		}
	],
	"bufferViews":[
		{
			"buffer":0,
			"byteLength":1572,
			"byteOffset":0,
			"target":34962
		},
		{
			"buffer":0,
			"byteLength":1572,
			"byteOffset":1572,
			"target":34962
		},
		{
			"buffer":0,
			"byteLength":1048,
			"byteOffset":3144,
			"target":34962
		},
		{
			"buffer":0,
			"byteLength":432,
			"byteOffset":4192,
			"target":34963
		},
		{
			"buffer":0,
			"byteLength":1620,
			"byteOffset":4624,
			"target":34962
		},
		{
			"buffer":0,
			"byteLength":1620,
			"byteOffset":6244,
			"target":34962
		},
		{
			"buffer":0,
			"byteLength":1080,
			"byteOffset":7864,
			"target":34962
		},
		{
			"buffer":0,
			"byteLength":432,
			"byteOffset":8944,
			"target":34963
		},
		{
			"buffer":0,
			"byteLength":24120,
			"byteOffset":9376,
			"target":34962
		},
		{
			"buffer":0,
			"byteLength":24120,
			"byteOffset":33496,
			"target":34962
		},
		{
			"buffer":0,
			"byteLength":16080,
			"byteOffset":57616,
			"target":34962
		},
		{
			"buffer":0,
			"byteLength":6276,
			"byteOffset":73696,
			"target":34963
		}
	],
	"samplers":[
		{
			"magFilter":9729,
			"minFilter":9987
		}
	],
	"buffers":[
		{
			"byteLength":79972,
			"uri":"cyber_SM_Prop_Canopy_04.bin"
		}
	]
}
