{"asset":{"generator":"Khronos glTF Blender I/O v4.4.55","version":"2.0"},"extensionsUsed":["EXT_texture_webp"],"extensionsRequired":["EXT_texture_webp"],"scene":0,"scenes":[{"name":"Scene","nodes":[1]}],"nodes":[{"mesh":0,"name":"SM_Prop_Lamp_04_Glass_01"},{"children":[0],"mesh":1,"name":"SM_Prop_Lamp_04","rotation":[0.7071068286895752,0,0,0.7071068286895752],"scale":[0.009999999776482582,0.009999999776482582,0.009999999776482582]}],"materials":[{"alphaMode":"MASK","doubleSided":true,"name":"Base_Lambert1","pbrMetallicRoughness":{"baseColorFactor":[1,1,1,0.4345238208770752],"baseColorTexture":{"index":1},"metallicFactor":0,"roughnessFactor":0.5527864098548889},"alphaCutoff":0.5},{"doubleSided":true,"name":"MAT_01A","pbrMetallicRoughness":{"baseColorTexture":{"index":3},"metallicFactor":0,"roughnessFactor":0.5527864098548889}}],"meshes":[{"name":"Mesh.001","primitives":[{"attributes":{"POSITION":0,"NORMAL":1,"TEXCOORD_0":2},"indices":3,"material":0}]},{"name":"Mesh","primitives":[{"attributes":{"POSITION":4,"NORMAL":5,"TEXCOORD_0":6},"indices":7,"material":1}]}],"textures":[{"extensions":{},"sampler":0},{"extensions":{"EXT_texture_webp":{"source":0}},"sampler":0},{"extensions":{},"sampler":0},{"extensions":{"EXT_texture_webp":{"source":1}},"sampler":0}],"images":[{"mimeType":"image/webp","name":"Wall_05_Emissive","uri":"Wall_05_Emissive.webp"},{"mimeType":"image/webp","name":"PolygonCyberCity_Texture_01_A","uri":"PolygonCyberCity_Texture_01_A.webp"}],"accessors":[{"bufferView":0,"componentType":5126,"count":32,"max":[12.203836441040039,39.07200622558594,18.315383911132812],"min":[-12.203835487365723,14.664336204528809,-33.86639404296875],"type":"VEC3"},{"bufferView":1,"componentType":5126,"count":32,"type":"VEC3"},{"bufferView":2,"componentType":5126,"count":32,"type":"VEC2"},{"bufferView":3,"componentType":5123,"count":48,"type":"SCALAR"},{"bufferView":4,"componentType":5126,"count":1134,"max":[13.797119140625,40.48931884765625,41.75264358520508],"min":[-13.797119140625,0,-41.51014709472656],"type":"VEC3"},{"bufferView":5,"componentType":5126,"count":1134,"type":"VEC3"},{"bufferView":6,"componentType":5126,"count":1134,"type":"VEC2"},{"bufferView":7,"componentType":5123,"count":1878,"type":"SCALAR"}],"bufferViews":[{"buffer":0,"byteLength":384,"byteOffset":0,"target":34962},{"buffer":0,"byteLength":384,"byteOffset":384,"target":34962},{"buffer":0,"byteLength":256,"byteOffset":768,"target":34962},{"buffer":0,"byteLength":96,"byteOffset":1024,"target":34963},{"buffer":0,"byteLength":13608,"byteOffset":1120,"target":34962},{"buffer":0,"byteLength":13608,"byteOffset":14728,"target":34962},{"buffer":0,"byteLength":9072,"byteOffset":28336,"target":34962},{"buffer":0,"byteLength":3756,"byteOffset":37408,"target":34963}],"samplers":[{"magFilter":9729,"minFilter":9987}],"buffers":[{"byteLength":41164,"uri":"cyber_SM_Prop_Lamp_04.bin"}]}