{
	"asset":{
		"generator":"Khronos glTF Blender I/O v4.4.55",
		"version":"2.0"
	},
	"extensionsUsed":[
		"EXT_texture_webp"
	],
	"extensionsRequired":[
		"EXT_texture_webp"
	],
	"scene":0,
	"scenes":[
		{
			"name":"Scene",
			"nodes":[
				3
			]
		}
	],
	"nodes":[
		{
			"mesh":0,
			"name":"SM_Prop_Canopy_03_Fabric_01"
		},
		{
			"mesh":1,
			"name":"SM_Prop_Canopy_03_Fabric_02"
		},
		{
			"mesh":2,
			"name":"SM_Prop_Canopy_03_Fabric_03"
		},
		{
			"children":[
				0,
				1,
				2
			],
			"mesh":3,
			"name":"SM_Prop_Canopy_03",
			"rotation":[
				0.7071068286895752,
				0,
				0,
				0.7071068286895752
			],
			"scale":[
				0.009999999776482582,
				0.009999999776482582,
				0.009999999776482582
			]
		}
	],
	"materials":[
		{
			"doubleSided":true,
			"name":"lambert5",
			"pbrMetallicRoughness":{
				"baseColorTexture":{
					"index":0
				},
				"metallicFactor":0,
				"roughnessFactor":0.5527864098548889
			}
		}
	],
	"meshes":[
		{
			"name":"Mesh.001",
			"primitives":[
				{
					"attributes":{
						"POSITION":0,
						"NORMAL":1,
						"TEXCOORD_0":2
					},
					"indices":3,
					"material":0
				}
			]
		},
		{
			"name":"Mesh.002",
			"primitives":[
				{
					"attributes":{
						"POSITION":4,
						"NORMAL":5,
						"TEXCOORD_0":6
					},
					"indices":7,
					"material":0
				}
			]
		},
		{
			"name":"Mesh.003",
			"primitives":[
				{
					"attributes":{
						"POSITION":8,
						"NORMAL":9,
						"TEXCOORD_0":10
					},
					"indices":11,
					"material":0
				}
			]
		},
		{
			"name":"Mesh",
			"primitives":[
				{
					"attributes":{
						"POSITION":12,
						"NORMAL":13,
						"TEXCOORD_0":14
					},
					"indices":15,
					"material":0
				}
			]
		}
	],
	"textures":[
		{
			"extensions":{
				"EXT_texture_webp":{
					"source":0
				}
			},
			"sampler":0
		}
	],
	"images":[
		{
			"mimeType":"image/webp",
			"name":"PolygonCyberCity_Texture_01_A",
			"uri":"PolygonCyberCity_Texture_01_A.webp"
		}
	],
	"accessors":[
		{
			"bufferView":0,
			"componentType":5126,
			"count":214,
			"max":[
				355.572509765625,
				239.7718048095703,
				29.773048400878906
			],
			"min":[
				-356.4453430175781,
				-236.40284729003906,
				-101.77413940429688
			],
			"type":"VEC3"
		},
		{
			"bufferView":1,
			"componentType":5126,
			"count":214,
			"type":"VEC3"
		},
		{
			"bufferView":2,
			"componentType":5126,
			"count":214,
			"type":"VEC2"
		},
		{
			"bufferView":3,
			"componentType":5123,
			"count":216,
			"type":"SCALAR"
		},
		{
			"bufferView":4,
			"componentType":5126,
			"count":212,
			"max":[
				766.4248046875,
				235.50721740722656,
				30.927814483642578
			],
			"min":[
				54.406890869140625,
				-239.75265502929688,
				-116.19481658935547
			],
			"type":"VEC3"
		},
		{
			"bufferView":5,
			"componentType":5126,
			"count":212,
			"type":"VEC3"
		},
		{
			"bufferView":6,
			"componentType":5126,
			"count":212,
			"type":"VEC2"
		},
		{
			"bufferView":7,
			"componentType":5123,
			"count":216,
			"type":"SCALAR"
		},
		{
			"bufferView":8,
			"componentType":5126,
			"count":212,
			"max":[
				-54.40704345703125,
				235.50758361816406,
				30.927791595458984
			],
			"min":[
				-766.4249267578125,
				-239.75262451171875,
				-116.1948471069336
			],
			"type":"VEC3"
		},
		{
			"bufferView":9,
			"componentType":5126,
			"count":212,
			"type":"VEC3"
		},
		{
			"bufferView":10,
			"componentType":5126,
			"count":212,
			"type":"VEC2"
		},
		{
			"bufferView":11,
			"componentType":5123,
			"count":216,
			"type":"SCALAR"
		},
		{
			"bufferView":12,
			"componentType":5126,
			"count":3634,
			"max":[
				789.985595703125,
				272.0948181152344,
				35.87568283081055
			],
			"min":[
				-790.7568969726562,
				-281.8327941894531,
				-117.75988006591797
			],
			"type":"VEC3"
		},
		{
			"bufferView":13,
			"componentType":5126,
			"count":3634,
			"type":"VEC3"
		},
		{
			"bufferView":14,
			"componentType":5126,
			"count":3634,
			"type":"VEC2"
		},
		{
			"bufferView":15,
			"componentType":5123,
			"count":5814,
			"type":"SCALAR"
		}
	],
	"bufferViews":[
		{
			"buffer":0,
			"byteLength":2568,
			"byteOffset":0,
			"target":34962
		},
		{
			"buffer":0,
			"byteLength":2568,
			"byteOffset":2568,
			"target":34962
		},
		{
			"buffer":0,
			"byteLength":1712,
			"byteOffset":5136,
			"target":34962
		},
		{
			"buffer":0,
			"byteLength":432,
			"byteOffset":6848,
			"target":34963
		},
		{
			"buffer":0,
			"byteLength":2544,
			"byteOffset":7280,
			"target":34962
		},
		{
			"buffer":0,
			"byteLength":2544,
			"byteOffset":9824,
			"target":34962
		},
		{
			"buffer":0,
			"byteLength":1696,
			"byteOffset":12368,
			"target":34962
		},
		{
			"buffer":0,
			"byteLength":432,
			"byteOffset":14064,
			"target":34963
		},
		{
			"buffer":0,
			"byteLength":2544,
			"byteOffset":14496,
			"target":34962
		},
		{
			"buffer":0,
			"byteLength":2544,
			"byteOffset":17040,
			"target":34962
		},
		{
			"buffer":0,
			"byteLength":1696,
			"byteOffset":19584,
			"target":34962
		},
		{
			"buffer":0,
			"byteLength":432,
			"byteOffset":21280,
			"target":34963
		},
		{
			"buffer":0,
			"byteLength":43608,
			"byteOffset":21712,
			"target":34962
		},
		{
			"buffer":0,
			"byteLength":43608,
			"byteOffset":65320,
			"target":34962
		},
		{
			"buffer":0,
			"byteLength":29072,
			"byteOffset":108928,
			"target":34962
		},
		{
			"buffer":0,
			"byteLength":11628,
			"byteOffset":138000,
			"target":34963
		}
	],
	"samplers":[
		{
			"magFilter":9729,
			"minFilter":9987
		}
	],
	"buffers":[
		{
			"byteLength":149628,
			"uri":"cyber_SM_Prop_Canopy_03.bin"
		}
	]
}
