{"asset":{"generator":"Khronos glTF Blender I/O v4.4.55","version":"2.0"},"extensionsUsed":["EXT_texture_webp"],"extensionsRequired":["EXT_texture_webp"],"scene":0,"scenes":[{"name":"Scene","nodes":[1]}],"nodes":[{"mesh":0,"name":"SM_Prop_Street_Console_02_Glass_01"},{"children":[0],"mesh":1,"name":"SM_Prop_Street_Console_02","rotation":[0.7071068286895752,0,0,0.7071068286895752],"scale":[0.009999999776482582,0.009999999776482582,0.009999999776482582]}],"materials":[{"alphaMode":"MASK","doubleSided":true,"name":"lambert974","pbrMetallicRoughness":{"baseColorFactor":[1,1,1,0.28901731967926025],"baseColorTexture":{"index":1},"metallicFactor":0,"roughnessFactor":0.5527864098548889},"alphaCutoff":0.5},{"doubleSided":true,"name":"Scifi_Cybercity_Main","pbrMetallicRoughness":{"baseColorTexture":{"index":4},"metallicFactor":0,"roughnessFactor":0.5527864098548889}}],"meshes":[{"name":"Mesh.001","primitives":[{"attributes":{"POSITION":0,"NORMAL":1,"TEXCOORD_0":2},"indices":3,"material":0}]},{"name":"Mesh","primitives":[{"attributes":{"POSITION":4,"NORMAL":5,"TEXCOORD_0":6},"indices":7,"material":1}]}],"textures":[{"extensions":{},"sampler":0},{"extensions":{"EXT_texture_webp":{"source":0}},"sampler":0},{"extensions":{},"sampler":0},{"extensions":{},"sampler":0},{"extensions":{"EXT_texture_webp":{"source":0}},"sampler":0}],"images":[{"mimeType":"image/webp","name":"Wall_05_Emissive","uri":"Wall_05_Emissive.webp"}],"accessors":[{"bufferView":0,"componentType":5126,"count":4,"max":[14.167522430419922,29.048023223876953,-29.25679588317871],"min":[-20.285266876220703,29.048023223876953,-67.41618347167969],"type":"VEC3"},{"bufferView":1,"componentType":5126,"count":4,"type":"VEC3"},{"bufferView":2,"componentType":5126,"count":4,"type":"VEC2"},{"bufferView":3,"componentType":5123,"count":6,"type":"SCALAR"},{"bufferView":4,"componentType":5126,"count":1514,"max":[50.21292495727539,41.581485748291016,0],"min":[-50.21292495727539,-41.581485748291016,-135.91871643066406],"type":"VEC3"},{"bufferView":5,"componentType":5126,"count":1514,"type":"VEC3"},{"bufferView":6,"componentType":5126,"count":1514,"type":"VEC2"},{"bufferView":7,"componentType":5123,"count":2586,"type":"SCALAR"}],"bufferViews":[{"buffer":0,"byteLength":48,"byteOffset":0,"target":34962},{"buffer":0,"byteLength":48,"byteOffset":48,"target":34962},{"buffer":0,"byteLength":32,"byteOffset":96,"target":34962},{"buffer":0,"byteLength":12,"byteOffset":128,"target":34963},{"buffer":0,"byteLength":18168,"byteOffset":140,"target":34962},{"buffer":0,"byteLength":18168,"byteOffset":18308,"target":34962},{"buffer":0,"byteLength":12112,"byteOffset":36476,"target":34962},{"buffer":0,"byteLength":5172,"byteOffset":48588,"target":34963}],"samplers":[{"magFilter":9729,"minFilter":9987}],"buffers":[{"byteLength":53760,"uri":"cyber_SM_Prop_Street_Console_02.bin"}]}