{"asset":{"generator":"Khronos glTF Blender I/O v4.4.55","version":"2.0"},"extensionsUsed":["EXT_texture_webp"],"extensionsRequired":["EXT_texture_webp"],"scene":0,"scenes":[{"name":"Scene","nodes":[0]}],"nodes":[{"mesh":0,"name":"FX_Scrap_04","rotation":[0.7071068286895752,0,0,0.7071068286895752],"scale":[0.009999999776482582,0.009999999776482582,0.009999999776482582]}],"materials":[{"doubleSided":true,"name":"SciFi_Planets_SHD2","pbrMetallicRoughness":{"baseColorTexture":{"index":1},"metallicFactor":0,"roughnessFactor":0.5527864098548889}}],"meshes":[{"name":"Mesh","primitives":[{"attributes":{"POSITION":0,"NORMAL":1,"TEXCOORD_0":2},"indices":3,"material":0}]}],"textures":[{"extensions":{},"sampler":0},{"extensions":{"EXT_texture_webp":{"source":0}},"sampler":0}],"images":[{"mimeType":"image/webp","name":"PolygonCyberCity_Texture_01_A","uri":"PolygonCyberCity_Texture_01_A.webp"}],"accessors":[{"bufferView":0,"componentType":5126,"count":174,"max":[286.96533203125,25.342529296875,16.66864013671875],"min":[-256.218017578125,-149.33021545410156,-175.58737182617188],"type":"VEC3"},{"bufferView":1,"componentType":5126,"count":174,"type":"VEC3"},{"bufferView":2,"componentType":5126,"count":174,"type":"VEC2"},{"bufferView":3,"componentType":5123,"count":270,"type":"SCALAR"}],"bufferViews":[{"buffer":0,"byteLength":2088,"byteOffset":0,"target":34962},{"buffer":0,"byteLength":2088,"byteOffset":2088,"target":34962},{"buffer":0,"byteLength":1392,"byteOffset":4176,"target":34962},{"buffer":0,"byteLength":540,"byteOffset":5568,"target":34963}],"samplers":[{"magFilter":9729,"minFilter":9987}],"buffers":[{"byteLength":6108,"uri":"cyber_SM_FX_Scrap_04.bin"}]}