{"asset":{"generator":"Khronos glTF Blender I/O v4.4.55","version":"2.0"},"extensionsUsed":["EXT_texture_webp"],"extensionsRequired":["EXT_texture_webp"],"scene":0,"scenes":[{"name":"Scene","nodes":[0]}],"nodes":[{"mesh":0,"name":"SM_Bld_Wall_Shop_03","rotation":[0.7071068286895752,0,0,0.7071068286895752],"scale":[0.009999999776482582,0.009999999776482582,0.009999999776482582]}],"materials":[{"doubleSided":true,"name":"Base_Lambert","pbrMetallicRoughness":{"baseColorTexture":{"index":2},"metallicFactor":0,"roughnessFactor":0.5527864098548889}},{"doubleSided":true,"name":"lambert1","pbrMetallicRoughness":{"baseColorTexture":{"index":3},"metallicFactor":0,"roughnessFactor":0.5527864098548889}},{"doubleSided":true,"name":"A_Wall","pbrMetallicRoughness":{"baseColorTexture":{"index":4},"metallicFactor":0,"roughnessFactor":0.5527864098548889}}],"meshes":[{"name":"Mesh","primitives":[{"attributes":{"POSITION":0,"NORMAL":1,"TEXCOORD_0":2},"indices":3,"material":0},{"attributes":{"POSITION":4,"NORMAL":5,"TEXCOORD_0":6},"indices":7,"material":1},{"attributes":{"POSITION":8,"NORMAL":9,"TEXCOORD_0":10},"indices":11,"material":2}]}],"textures":[{"extensions":{},"sampler":0},{"extensions":{},"sampler":0},{"extensions":{"EXT_texture_webp":{"source":0}},"sampler":0},{"extensions":{"EXT_texture_webp":{"source":1}},"sampler":0},{"extensions":{"EXT_texture_webp":{"source":1}},"sampler":0}],"images":[{"mimeType":"image/webp","name":"Wall_05_Emissive","uri":"Wall_05_Emissive.webp"},{"mimeType":"image/webp","name":"PolygonCyberCity_Texture_01_A","uri":"PolygonCyberCity_Texture_01_A.webp"}],"accessors":[{"bufferView":0,"componentType":5126,"count":1942,"max":[476.7550048828125,79.99007415771484,6.237368506845087e-05],"min":[-11.234663009643555,-21.481109619140625,-303.26611328125],"type":"VEC3"},{"bufferView":1,"componentType":5126,"count":1942,"type":"VEC3"},{"bufferView":2,"componentType":5126,"count":1942,"type":"VEC2"},{"bufferView":3,"componentType":5123,"count":3627,"type":"SCALAR"},{"bufferView":4,"componentType":5126,"count":58,"max":[500,0,6.237368506845087e-05],"min":[0,-11.46246337890625,-300.57427978515625],"type":"VEC3"},{"bufferView":5,"componentType":5126,"count":58,"type":"VEC3"},{"bufferView":6,"componentType":5126,"count":58,"type":"VEC2"},{"bufferView":7,"componentType":5123,"count":120,"type":"SCALAR"},{"bufferView":8,"componentType":5126,"count":58,"max":[500,11.46246337890625,6.237368506845087e-05],"min":[0,0,-300.57427978515625],"type":"VEC3"},{"bufferView":9,"componentType":5126,"count":58,"type":"VEC3"},{"bufferView":10,"componentType":5126,"count":58,"type":"VEC2"},{"bufferView":11,"componentType":5123,"count":120,"type":"SCALAR"}],"bufferViews":[{"buffer":0,"byteLength":23304,"byteOffset":0,"target":34962},{"buffer":0,"byteLength":23304,"byteOffset":23304,"target":34962},{"buffer":0,"byteLength":15536,"byteOffset":46608,"target":34962},{"buffer":0,"byteLength":7254,"byteOffset":62144,"target":34963},{"buffer":0,"byteLength":696,"byteOffset":69400,"target":34962},{"buffer":0,"byteLength":696,"byteOffset":70096,"target":34962},{"buffer":0,"byteLength":464,"byteOffset":70792,"target":34962},{"buffer":0,"byteLength":240,"byteOffset":71256,"target":34963},{"buffer":0,"byteLength":696,"byteOffset":71496,"target":34962},{"buffer":0,"byteLength":696,"byteOffset":72192,"target":34962},{"buffer":0,"byteLength":464,"byteOffset":72888,"target":34962},{"buffer":0,"byteLength":240,"byteOffset":73352,"target":34963}],"samplers":[{"magFilter":9729,"minFilter":9987}],"buffers":[{"byteLength":73592,"uri":"cyber_SM_Bld_Wall_Shop_03.bin"}]}