{"asset":{"generator":"Khronos glTF Blender I/O v4.4.55","version":"2.0"},"extensionsUsed":["EXT_texture_webp"],"extensionsRequired":["EXT_texture_webp"],"scene":0,"scenes":[{"name":"Scene","nodes":[9]}],"nodes":[{"mesh":0,"name":"SM_Veh_Train_Cockpit_01_Billboard_01"},{"mesh":1,"name":"SM_Veh_Train_Cockpit_01_Glass_01"},{"mesh":2,"name":"SM_Veh_Train_Cockpit_01_Hologram_01"},{"mesh":3,"name":"SM_Veh_Train_Cockpit_01_L_Door_01"},{"mesh":4,"name":"SM_Veh_Train_Cockpit_01_L_Ramp_01"},{"mesh":5,"name":"SM_Veh_Train_Cockpit_01_Hologram_02"},{"children":[5],"mesh":6,"name":"SM_Veh_Train_Cockpit_01_Monitor_01"},{"mesh":7,"name":"SM_Veh_Train_Cockpit_01_R_Door_01"},{"mesh":8,"name":"SM_Veh_Train_Cockpit_01_R_Ramp_01"},{"children":[0,1,2,3,4,6,7,8],"mesh":9,"name":"SM_Veh_Train_Cockpit_01","rotation":[0.7071068286895752,0,0,0.7071068286895752],"scale":[0.009999999776482582,0.009999999776482582,0.009999999776482582]}],"materials":[{"doubleSided":true,"name":"MAT_01A14","pbrMetallicRoughness":{"baseColorTexture":{"index":1},"metallicFactor":0,"roughnessFactor":0.5527864098548889}},{"alphaMode":"MASK","doubleSided":true,"name":"GlassSHD1","pbrMetallicRoughness":{"baseColorFactor":[1,1,1,0.3928571343421936],"baseColorTexture":{"index":2},"metallicFactor":0,"roughnessFactor":0.5527864098548889},"alphaCutoff":0.5}],"meshes":[{"name":"Mesh.002","primitives":[{"attributes":{"POSITION":0,"NORMAL":1,"TEXCOORD_0":2},"indices":3,"material":0}]},{"name":"Mesh.009","primitives":[{"attributes":{"POSITION":4,"NORMAL":5,"TEXCOORD_0":6},"indices":7,"material":1}]},{"name":"Mesh.001","primitives":[{"attributes":{"POSITION":8,"NORMAL":9,"TEXCOORD_0":10},"indices":11,"material":0}]},{"name":"Mesh.003","primitives":[{"attributes":{"POSITION":12,"NORMAL":13,"TEXCOORD_0":14},"indices":15,"material":0}]},{"name":"Mesh.007","primitives":[{"attributes":{"POSITION":16,"NORMAL":17,"TEXCOORD_0":18},"indices":19,"material":0}]},{"name":"Mesh.006","primitives":[{"attributes":{"POSITION":20,"NORMAL":21,"TEXCOORD_0":22},"indices":23,"material":0}]},{"name":"Mesh.005","primitives":[{"attributes":{"POSITION":24,"NORMAL":25,"TEXCOORD_0":26},"indices":27,"material":0}]},{"name":"Mesh.004","primitives":[{"attributes":{"POSITION":28,"NORMAL":29,"TEXCOORD_0":30},"indices":31,"material":0}]},{"name":"Mesh.008","primitives":[{"attributes":{"POSITION":32,"NORMAL":33,"TEXCOORD_0":34},"indices":35,"material":0}]},{"name":"Mesh","primitives":[{"attributes":{"POSITION":36,"NORMAL":37,"TEXCOORD_0":38},"indices":39,"material":0}]}],"textures":[{"extensions":{},"sampler":0},{"extensions":{"EXT_texture_webp":{"source":0}},"sampler":0},{"extensions":{"EXT_texture_webp":{"source":0}},"sampler":0}],"images":[{"mimeType":"image/webp","name":"PolygonCyberCity_Texture_01_A","uri":"PolygonCyberCity_Texture_01_A.webp"}],"accessors":[{"bufferView":0,"componentType":5126,"count":8,"max":[137.00540161132812,24.17797088623047,-70.54695892333984],"min":[-137.00537109375,-195.32318115234375,-221.59652709960938],"type":"VEC3"},{"bufferView":1,"componentType":5126,"count":8,"type":"VEC3"},{"bufferView":2,"componentType":5126,"count":8,"type":"VEC2"},{"bufferView":3,"componentType":5123,"count":12,"type":"SCALAR"},{"bufferView":4,"componentType":5126,"count":48,"max":[125.8909683227539,548.9356079101562,-27.78652572631836],"min":[-125.8909683227539,-477.859619140625,-249.04461669921875],"type":"VEC3"},{"bufferView":5,"componentType":5126,"count":48,"type":"VEC3"},{"bufferView":6,"componentType":5126,"count":48,"type":"VEC2"},{"bufferView":7,"componentType":5123,"count":84,"type":"SCALAR"},{"bufferView":8,"componentType":5126,"count":16,"max":[53.09014892578125,-323.5894775390625,-129.93374633789062],"min":[-3.289306640625,-323.5894775390625,-218.6293182373047],"type":"VEC3"},{"bufferView":9,"componentType":5126,"count":16,"type":"VEC3"},{"bufferView":10,"componentType":5126,"count":16,"type":"VEC2"},{"bufferView":11,"componentType":5123,"count":42,"type":"SCALAR"},{"bufferView":12,"componentType":5126,"count":454,"max":[128.27981567382812,190.24424743652344,-44.999298095703125],"min":[117.43798828125,59.45298767089844,-245.2474822998047],"type":"VEC3"},{"bufferView":13,"componentType":5126,"count":454,"type":"VEC3"},{"bufferView":14,"componentType":5126,"count":454,"type":"VEC2"},{"bufferView":15,"componentType":5123,"count":744,"type":"SCALAR"},{"bufferView":16,"componentType":5126,"count":200,"max":[170.86073303222656,202.79164123535156,-8.791255950927734],"min":[1.341104507446289e-06,47.84498596191406,-25.340444564819336],"type":"VEC3"},{"bufferView":17,"componentType":5126,"count":200,"type":"VEC3"},{"bufferView":18,"componentType":5126,"count":200,"type":"VEC2"},{"bufferView":19,"componentType":5123,"count":306,"type":"SCALAR"},{"bufferView":20,"componentType":5126,"count":12,"max":[-75.79736328125,-135.48777770996094,-181.2044677734375],"min":[-75.79739379882812,-211.30157470703125,-222.73353576660156],"type":"VEC3"},{"bufferView":21,"componentType":5126,"count":12,"type":"VEC3"},{"bufferView":22,"componentType":5126,"count":12,"type":"VEC2"},{"bufferView":23,"componentType":5123,"count":30,"type":"SCALAR"},{"bufferView":24,"componentType":5126,"count":428,"max":[-72.11578369140625,-132.3784942626953,-174.9615936279297],"min":[-78.0408935546875,-223.6631317138672,-226.25424194335938],"type":"VEC3"},{"bufferView":25,"componentType":5126,"count":428,"type":"VEC3"},{"bufferView":26,"componentType":5126,"count":428,"type":"VEC2"},{"bufferView":27,"componentType":5123,"count":702,"type":"SCALAR"},{"bufferView":28,"componentType":5126,"count":454,"max":[-117.43800354003906,190.24424743652344,-44.999298095703125],"min":[-128.27980041503906,59.45298767089844,-245.2474822998047],"type":"VEC3"},{"bufferView":29,"componentType":5126,"count":454,"type":"VEC3"},{"bufferView":30,"componentType":5126,"count":454,"type":"VEC2"},{"bufferView":31,"componentType":5123,"count":744,"type":"SCALAR"},{"bufferView":32,"componentType":5126,"count":200,"max":[1.341104507446289e-06,202.79164123535156,-8.791255950927734],"min":[-170.86073303222656,47.84498596191406,-25.340444564819336],"type":"VEC3"},{"bufferView":33,"componentType":5126,"count":200,"type":"VEC3"},{"bufferView":34,"componentType":5126,"count":200,"type":"VEC2"},{"bufferView":35,"componentType":5123,"count":306,"type":"SCALAR"},{"bufferView":36,"componentType":5126,"count":11470,"max":[173.5455780029297,603.76416015625,89.12637329101562],"min":[-173.5455780029297,-603.76416015625,-377.76025390625],"type":"VEC3"},{"bufferView":37,"componentType":5126,"count":11470,"type":"VEC3"},{"bufferView":38,"componentType":5126,"count":11470,"type":"VEC2"},{"bufferView":39,"componentType":5123,"count":19116,"type":"SCALAR"}],"bufferViews":[{"buffer":0,"byteLength":96,"byteOffset":0,"target":34962},{"buffer":0,"byteLength":96,"byteOffset":96,"target":34962},{"buffer":0,"byteLength":64,"byteOffset":192,"target":34962},{"buffer":0,"byteLength":24,"byteOffset":256,"target":34963},{"buffer":0,"byteLength":576,"byteOffset":280,"target":34962},{"buffer":0,"byteLength":576,"byteOffset":856,"target":34962},{"buffer":0,"byteLength":384,"byteOffset":1432,"target":34962},{"buffer":0,"byteLength":168,"byteOffset":1816,"target":34963},{"buffer":0,"byteLength":192,"byteOffset":1984,"target":34962},{"buffer":0,"byteLength":192,"byteOffset":2176,"target":34962},{"buffer":0,"byteLength":128,"byteOffset":2368,"target":34962},{"buffer":0,"byteLength":84,"byteOffset":2496,"target":34963},{"buffer":0,"byteLength":5448,"byteOffset":2580,"target":34962},{"buffer":0,"byteLength":5448,"byteOffset":8028,"target":34962},{"buffer":0,"byteLength":3632,"byteOffset":13476,"target":34962},{"buffer":0,"byteLength":1488,"byteOffset":17108,"target":34963},{"buffer":0,"byteLength":2400,"byteOffset":18596,"target":34962},{"buffer":0,"byteLength":2400,"byteOffset":20996,"target":34962},{"buffer":0,"byteLength":1600,"byteOffset":23396,"target":34962},{"buffer":0,"byteLength":612,"byteOffset":24996,"target":34963},{"buffer":0,"byteLength":144,"byteOffset":25608,"target":34962},{"buffer":0,"byteLength":144,"byteOffset":25752,"target":34962},{"buffer":0,"byteLength":96,"byteOffset":25896,"target":34962},{"buffer":0,"byteLength":60,"byteOffset":25992,"target":34963},{"buffer":0,"byteLength":5136,"byteOffset":26052,"target":34962},{"buffer":0,"byteLength":5136,"byteOffset":31188,"target":34962},{"buffer":0,"byteLength":3424,"byteOffset":36324,"target":34962},{"buffer":0,"byteLength":1404,"byteOffset":39748,"target":34963},{"buffer":0,"byteLength":5448,"byteOffset":41152,"target":34962},{"buffer":0,"byteLength":5448,"byteOffset":46600,"target":34962},{"buffer":0,"byteLength":3632,"byteOffset":52048,"target":34962},{"buffer":0,"byteLength":1488,"byteOffset":55680,"target":34963},{"buffer":0,"byteLength":2400,"byteOffset":57168,"target":34962},{"buffer":0,"byteLength":2400,"byteOffset":59568,"target":34962},{"buffer":0,"byteLength":1600,"byteOffset":61968,"target":34962},{"buffer":0,"byteLength":612,"byteOffset":63568,"target":34963},{"buffer":0,"byteLength":137640,"byteOffset":64180,"target":34962},{"buffer":0,"byteLength":137640,"byteOffset":201820,"target":34962},{"buffer":0,"byteLength":91760,"byteOffset":339460,"target":34962},{"buffer":0,"byteLength":38232,"byteOffset":431220,"target":34963}],"samplers":[{"magFilter":9729,"minFilter":9987}],"buffers":[{"byteLength":469452,"uri":"cyber_SM_Veh_Train_Cockpit_01_Alt.bin"}]}