{"asset":{"generator":"Khronos glTF Blender I/O v4.4.55","version":"2.0"},"extensionsUsed":["EXT_texture_webp"],"extensionsRequired":["EXT_texture_webp"],"scene":0,"scenes":[{"name":"Scene","nodes":[1]}],"nodes":[{"mesh":0,"name":"SM_Prop_Vending_Machine_01_Glass_01"},{"children":[0],"mesh":1,"name":"SM_Prop_Vending_Machine_01","rotation":[0.7071068286895752,0,0,0.7071068286895752],"scale":[0.009999999776482582,0.009999999776482582,0.009999999776482582]}],"materials":[{"alphaMode":"MASK","doubleSided":true,"name":"Base_Lambert1","pbrMetallicRoughness":{"baseColorFactor":[1,1,1,0.4345238208770752],"baseColorTexture":{"index":1},"metallicFactor":0,"roughnessFactor":0.5527864098548889},"alphaCutoff":0.5},{"doubleSided":true,"name":"MAT_01A","pbrMetallicRoughness":{"baseColorTexture":{"index":3},"metallicFactor":0,"roughnessFactor":0.5527864098548889}}],"meshes":[{"name":"Mesh.001","primitives":[{"attributes":{"POSITION":0,"NORMAL":1,"TEXCOORD_0":2},"indices":3,"material":0}]},{"name":"Mesh","primitives":[{"attributes":{"POSITION":4,"NORMAL":5,"TEXCOORD_0":6},"indices":7,"material":1}]}],"textures":[{"extensions":{},"sampler":0},{"extensions":{"EXT_texture_webp":{"source":0}},"sampler":0},{"extensions":{},"sampler":0},{"extensions":{"EXT_texture_webp":{"source":1}},"sampler":0}],"images":[{"mimeType":"image/webp","name":"Wall_05_Emissive","uri":"Wall_05_Emissive.webp"},{"mimeType":"image/webp","name":"PolygonCyberCity_Texture_01_A","uri":"PolygonCyberCity_Texture_01_A.webp"}],"accessors":[{"bufferView":0,"componentType":5126,"count":8,"max":[39.7996711730957,30.148588180541992,-43.6888427734375],"min":[-51.29164505004883,30.148588180541992,-219.8900604248047],"type":"VEC3"},{"bufferView":1,"componentType":5126,"count":8,"type":"VEC3"},{"bufferView":2,"componentType":5126,"count":8,"type":"VEC2"},{"bufferView":3,"componentType":5123,"count":18,"type":"SCALAR"},{"bufferView":4,"componentType":5126,"count":1404,"max":[67.410888671875,49.4881591796875,0],"min":[-62.302490234375,-35.891845703125,-231.6598663330078],"type":"VEC3"},{"bufferView":5,"componentType":5126,"count":1404,"type":"VEC3"},{"bufferView":6,"componentType":5126,"count":1404,"type":"VEC2"},{"bufferView":7,"componentType":5123,"count":2304,"type":"SCALAR"}],"bufferViews":[{"buffer":0,"byteLength":96,"byteOffset":0,"target":34962},{"buffer":0,"byteLength":96,"byteOffset":96,"target":34962},{"buffer":0,"byteLength":64,"byteOffset":192,"target":34962},{"buffer":0,"byteLength":36,"byteOffset":256,"target":34963},{"buffer":0,"byteLength":16848,"byteOffset":292,"target":34962},{"buffer":0,"byteLength":16848,"byteOffset":17140,"target":34962},{"buffer":0,"byteLength":11232,"byteOffset":33988,"target":34962},{"buffer":0,"byteLength":4608,"byteOffset":45220,"target":34963}],"samplers":[{"magFilter":9729,"minFilter":9987}],"buffers":[{"byteLength":49828,"uri":"cyber_SM_Prop_Vending_Machine_01.bin"}]}