{"asset":{"generator":"Khronos glTF Blender I/O v4.4.55","version":"2.0"},"extensionsUsed":["EXT_texture_webp"],"extensionsRequired":["EXT_texture_webp"],"scene":0,"scenes":[{"name":"Scene","nodes":[1]}],"nodes":[{"mesh":0,"name":"SM_Bld_Door_NoFrame_Single_03_Glass"},{"children":[0],"mesh":1,"name":"SM_Bld_Door_NoFrame_Single_03","rotation":[0.7071068286895752,0,0,0.7071068286895752],"scale":[0.009999999776482582,0.009999999776482582,0.009999999776482582]}],"materials":[{"doubleSided":true,"name":"MAT_01A","pbrMetallicRoughness":{"baseColorTexture":{"index":1},"metallicFactor":0,"roughnessFactor":0.5527864098548889}}],"meshes":[{"name":"Mesh.001","primitives":[{"attributes":{"POSITION":0,"NORMAL":1,"TEXCOORD_0":2},"indices":3,"material":0}]},{"name":"Mesh","primitives":[{"attributes":{"POSITION":4,"NORMAL":5,"TEXCOORD_0":6},"indices":7,"material":0}]}],"textures":[{"extensions":{},"sampler":0},{"extensions":{"EXT_texture_webp":{"source":0}},"sampler":0}],"images":[{"mimeType":"image/webp","name":"PolygonCyberCity_Texture_01_A","uri":"PolygonCyberCity_Texture_01_A.webp"}],"accessors":[{"bufferView":0,"componentType":5126,"count":8,"max":[45.961788177490234,1.7207534313201904,-47.97246551513672],"min":[24.132583618164062,-1.7207534313201904,-168.08114624023438],"type":"VEC3"},{"bufferView":1,"componentType":5126,"count":8,"type":"VEC3"},{"bufferView":2,"componentType":5126,"count":8,"type":"VEC2"},{"bufferView":3,"componentType":5123,"count":12,"type":"SCALAR"},{"bufferView":4,"componentType":5126,"count":1159,"max":[100.11791229248047,6.443554878234863,0],"min":[0,-6.443554878234863,-196.64892578125],"type":"VEC3"},{"bufferView":5,"componentType":5126,"count":1159,"type":"VEC3"},{"bufferView":6,"componentType":5126,"count":1159,"type":"VEC2"},{"bufferView":7,"componentType":5123,"count":2268,"type":"SCALAR"}],"bufferViews":[{"buffer":0,"byteLength":96,"byteOffset":0,"target":34962},{"buffer":0,"byteLength":96,"byteOffset":96,"target":34962},{"buffer":0,"byteLength":64,"byteOffset":192,"target":34962},{"buffer":0,"byteLength":24,"byteOffset":256,"target":34963},{"buffer":0,"byteLength":13908,"byteOffset":280,"target":34962},{"buffer":0,"byteLength":13908,"byteOffset":14188,"target":34962},{"buffer":0,"byteLength":9272,"byteOffset":28096,"target":34962},{"buffer":0,"byteLength":4536,"byteOffset":37368,"target":34963}],"samplers":[{"magFilter":9729,"minFilter":9987}],"buffers":[{"byteLength":41904,"uri":"cyber_SM_Bld_Door_NoFrame_Single_03.bin"}]}