{"asset":{"generator":"Khronos glTF Blender I/O v4.4.55","version":"2.0"},"extensionsUsed":["EXT_texture_webp"],"extensionsRequired":["EXT_texture_webp"],"scene":0,"scenes":[{"name":"Scene","nodes":[0]}],"nodes":[{"mesh":0,"name":"SM_Prop_Street_Light_01","rotation":[0.7071068286895752,0,0,0.7071068286895752],"scale":[0.009999999776482582,0.009999999776482582,0.009999999776482582],"translation":[0,0,-0.0051817684434354305]}],"materials":[{"doubleSided":true,"name":"Scifi_Cybercity_Main","pbrMetallicRoughness":{"baseColorTexture":{"index":2},"metallicFactor":0,"roughnessFactor":0.5527864098548889}}],"meshes":[{"name":"Mesh","primitives":[{"attributes":{"POSITION":0,"NORMAL":1,"TEXCOORD_0":2},"indices":3,"material":0}]}],"textures":[{"extensions":{},"sampler":0},{"extensions":{},"sampler":0},{"extensions":{"EXT_texture_webp":{"source":0}},"sampler":0}],"images":[{"mimeType":"image/webp","name":"Wall_05_Emissive","uri":"Wall_05_Emissive.webp"}],"accessors":[{"bufferView":0,"componentType":5126,"count":585,"max":[21.0631103515625,21.363365173339844,21.063091278076172],"min":[-21.063079833984375,0,-21.063087463378906],"type":"VEC3"},{"bufferView":1,"componentType":5126,"count":585,"type":"VEC3"},{"bufferView":2,"componentType":5126,"count":585,"type":"VEC2"},{"bufferView":3,"componentType":5123,"count":1026,"type":"SCALAR"}],"bufferViews":[{"buffer":0,"byteLength":7020,"byteOffset":0,"target":34962},{"buffer":0,"byteLength":7020,"byteOffset":7020,"target":34962},{"buffer":0,"byteLength":4680,"byteOffset":14040,"target":34962},{"buffer":0,"byteLength":2052,"byteOffset":18720,"target":34963}],"samplers":[{"magFilter":9729,"minFilter":9987}],"buffers":[{"byteLength":20772,"uri":"cyber_SM_Prop_Street_Light_01.bin"}]}