{"asset":{"generator":"Khronos glTF Blender I/O v4.4.55","version":"2.0"},"extensionsUsed":["EXT_texture_webp"],"extensionsRequired":["EXT_texture_webp"],"scene":0,"scenes":[{"name":"Scene","nodes":[0]}],"nodes":[{"mesh":0,"name":"SM_Prop_Street_Pole_01","rotation":[0.7071068286895752,0,0,0.7071068286895752],"scale":[0.009999999776482582,0.009999999776482582,0.009999999776482582]}],"materials":[{"doubleSided":true,"name":"MAT_01A1","pbrMetallicRoughness":{"baseColorTexture":{"index":1},"metallicFactor":0,"roughnessFactor":0.5527864098548889}}],"meshes":[{"name":"Mesh","primitives":[{"attributes":{"POSITION":0,"NORMAL":1,"TEXCOORD_0":2},"indices":3,"material":0}]}],"textures":[{"extensions":{},"sampler":0},{"extensions":{"EXT_texture_webp":{"source":0}},"sampler":0}],"images":[{"mimeType":"image/webp","name":"PolygonCyberCity_Texture_01_A","uri":"PolygonCyberCity_Texture_01_A.webp"}],"accessors":[{"bufferView":0,"componentType":5126,"count":908,"max":[76.27952575683594,34.015464782714844,0],"min":[-53.73867416381836,-34.015464782714844,-861.4276123046875],"type":"VEC3"},{"bufferView":1,"componentType":5126,"count":908,"type":"VEC3"},{"bufferView":2,"componentType":5126,"count":908,"type":"VEC2"},{"bufferView":3,"componentType":5123,"count":1494,"type":"SCALAR"}],"bufferViews":[{"buffer":0,"byteLength":10896,"byteOffset":0,"target":34962},{"buffer":0,"byteLength":10896,"byteOffset":10896,"target":34962},{"buffer":0,"byteLength":7264,"byteOffset":21792,"target":34962},{"buffer":0,"byteLength":2988,"byteOffset":29056,"target":34963}],"samplers":[{"magFilter":9729,"minFilter":9987}],"buffers":[{"byteLength":32044,"uri":"cyber_SM_Prop_Street_Pole_01.bin"}]}