{
	"asset":{
		"generator":"Khronos glTF Blender I/O v4.4.55",
		"version":"2.0"
	},
	"extensionsUsed":[
		"EXT_texture_webp"
	],
	"extensionsRequired":[
		"EXT_texture_webp"
	],
	"scene":0,
	"scenes":[
		{
			"name":"Scene",
			"nodes":[
				2
			]
		}
	],
	"nodes":[
		{
			"mesh":0,
			"name":"SM_Prop_Traffic_Lights_02_Screen_01"
		},
		{
			"children":[
				0
			],
			"mesh":1,
			"name":"SM_Prop_Traffic_Lights_02_Arm_01"
		},
		{
			"children":[
				1
			],
			"mesh":2,
			"name":"SM_Prop_Traffic_Lights_02",
			"rotation":[
				0.7071068286895752,
				0,
				0,
				0.7071068286895752
			],
			"scale":[
				0.009999999776482582,
				0.009999999776482582,
				0.009999999776482582
			]
		}
	],
	"materials":[
		{
			"doubleSided":true,
			"name":"lambert9",
			"pbrMetallicRoughness":{
				"baseColorTexture":{
					"index":0
				},
				"metallicFactor":0,
				"roughnessFactor":0.5527864098548889
			}
		},
		{
			"doubleSided":true,
			"name":"MAT_01A1",
			"normalTexture":{
				"index":1
			},
			"pbrMetallicRoughness":{
				"baseColorTexture":{
					"index":2
				},
				"metallicFactor":0,
				"roughnessFactor":0.5527864098548889
			}
		}
	],
	"meshes":[
		{
			"name":"Mesh.002",
			"primitives":[
				{
					"attributes":{
						"POSITION":0,
						"NORMAL":1,
						"TEXCOORD_0":2
					},
					"indices":3,
					"material":0
				}
			]
		},
		{
			"name":"Mesh.001",
			"primitives":[
				{
					"attributes":{
						"POSITION":4,
						"NORMAL":5,
						"TEXCOORD_0":6
					},
					"indices":7,
					"material":1
				}
			]
		},
		{
			"name":"Mesh",
			"primitives":[
				{
					"attributes":{
						"POSITION":8,
						"NORMAL":9,
						"TEXCOORD_0":10
					},
					"indices":11,
					"material":1
				}
			]
		}
	],
	"textures":[
		{
			"extensions":{
				"EXT_texture_webp":{
					"source":0
				}
			},
			"sampler":0
		},
		{
			"extensions":{},
			"sampler":0
		},
		{
			"extensions":{
				"EXT_texture_webp":{
					"source":1
				}
			},
			"sampler":0
		}
	],
	"images":[
		{
			"mimeType":"image/webp",
			"name":"Signs_01",
			"uri":"Signs_01.webp"
		},
		{
			"mimeType":"image/webp",
			"name":"PolygonCyberCity_Texture_01_A",
			"uri":"PolygonCyberCity_Texture_01_A.webp"
		}
	],
	"accessors":[
		{
			"bufferView":0,
			"componentType":5126,
			"count":4,
			"max":[
				133.79197692871094,
				0,
				-154.03575134277344
			],
			"min":[
				-133.79197692871094,
				0,
				-215.6012420654297
			],
			"type":"VEC3"
		},
		{
			"bufferView":1,
			"componentType":5126,
			"count":4,
			"type":"VEC3"
		},
		{
			"bufferView":2,
			"componentType":5126,
			"count":4,
			"type":"VEC2"
		},
		{
			"bufferView":3,
			"componentType":5123,
			"count":6,
			"type":"SCALAR"
		},
		{
			"bufferView":4,
			"componentType":5126,
			"count":484,
			"max":[
				16.737743377685547,
				16.73777198791504,
				-100.42717742919922
			],
			"min":[
				-158.30413818359375,
				-16.73777198791504,
				-227.52574157714844
			],
			"type":"VEC3"
		},
		{
			"bufferView":5,
			"componentType":5126,
			"count":484,
			"type":"VEC3"
		},
		{
			"bufferView":6,
			"componentType":5126,
			"count":484,
			"type":"VEC2"
		},
		{
			"bufferView":7,
			"componentType":5123,
			"count":768,
			"type":"SCALAR"
		},
		{
			"bufferView":8,
			"componentType":5126,
			"count":3279,
			"max":[
				71.31243896484375,
				71.31243896484375,
				103.91331481933594
			],
			"min":[
				-71.31243896484375,
				-71.31243896484375,
				-103.91331481933594
			],
			"type":"VEC3"
		},
		{
			"bufferView":9,
			"componentType":5126,
			"count":3279,
			"type":"VEC3"
		},
		{
			"bufferView":10,
			"componentType":5126,
			"count":3279,
			"type":"VEC2"
		},
		{
			"bufferView":11,
			"componentType":5123,
			"count":5466,
			"type":"SCALAR"
		}
	],
	"bufferViews":[
		{
			"buffer":0,
			"byteLength":48,
			"byteOffset":0,
			"target":34962
		},
		{
			"buffer":0,
			"byteLength":48,
			"byteOffset":48,
			"target":34962
		},
		{
			"buffer":0,
			"byteLength":32,
			"byteOffset":96,
			"target":34962
		},
		{
			"buffer":0,
			"byteLength":12,
			"byteOffset":128,
			"target":34963
		},
		{
			"buffer":0,
			"byteLength":5808,
			"byteOffset":140,
			"target":34962
		},
		{
			"buffer":0,
			"byteLength":5808,
			"byteOffset":5948,
			"target":34962
		},
		{
			"buffer":0,
			"byteLength":3872,
			"byteOffset":11756,
			"target":34962
		},
		{
			"buffer":0,
			"byteLength":1536,
			"byteOffset":15628,
			"target":34963
		},
		{
			"buffer":0,
			"byteLength":39348,
			"byteOffset":17164,
			"target":34962
		},
		{
			"buffer":0,
			"byteLength":39348,
			"byteOffset":56512,
			"target":34962
		},
		{
			"buffer":0,
			"byteLength":26232,
			"byteOffset":95860,
			"target":34962
		},
		{
			"buffer":0,
			"byteLength":10932,
			"byteOffset":122092,
			"target":34963
		}
	],
	"samplers":[
		{
			"magFilter":9729,
			"minFilter":9987
		}
	],
	"buffers":[
		{
			"byteLength":133024,
			"uri":"cyber_SM_Prop_Traffic_Lights_02.bin"
		}
	]
}
