{"asset":{"generator":"Khronos glTF Blender I/O v4.4.55","version":"2.0"},"extensionsUsed":["EXT_texture_webp"],"extensionsRequired":["EXT_texture_webp"],"scene":0,"scenes":[{"name":"Scene","nodes":[0]}],"nodes":[{"mesh":0,"name":"SM_Env_Basalt_04","rotation":[0.7071068286895752,0,0,0.7071068286895752],"scale":[0.009999999776482582,0.009999999776482582,0.009999999776482582]}],"materials":[{"doubleSided":true,"name":"MAT_01A3","pbrMetallicRoughness":{"baseColorTexture":{"index":2},"metallicFactor":0,"roughnessFactor":0.5527864098548889}}],"meshes":[{"name":"Mesh","primitives":[{"attributes":{"POSITION":0,"NORMAL":1,"TEXCOORD_0":2},"indices":3,"material":0}]}],"textures":[{"extensions":{},"sampler":0},{"extensions":{},"sampler":0},{"extensions":{"EXT_texture_webp":{"source":0}},"sampler":0}],"images":[{"mimeType":"image/webp","name":"PolygonDarkFantasy_Emissive_04_A","uri":"PolygonDarkFantasy_Emissive_04_A.webp"}],"accessors":[{"bufferView":0,"componentType":5126,"count":1645,"max":[408.01025390625,143.41424560546875,-1.251670198598731e-07],"min":[-407.3575744628906,-135.04237365722656,-591.3558349609375],"type":"VEC3"},{"bufferView":1,"componentType":5126,"count":1645,"type":"VEC3"},{"bufferView":2,"componentType":5126,"count":1645,"type":"VEC2"},{"bufferView":3,"componentType":5123,"count":1689,"type":"SCALAR"}],"bufferViews":[{"buffer":0,"byteLength":19740,"byteOffset":0,"target":34962},{"buffer":0,"byteLength":19740,"byteOffset":19740,"target":34962},{"buffer":0,"byteLength":13160,"byteOffset":39480,"target":34962},{"buffer":0,"byteLength":3378,"byteOffset":52640,"target":34963}],"samplers":[{"magFilter":9729,"minFilter":9987}],"buffers":[{"byteLength":56020,"uri":"dark_SM_Env_Basalt_04.bin"}]}