{
	"asset":{
		"generator":"Khronos glTF Blender I/O v4.4.55",
		"version":"2.0"
	},
	"extensionsUsed":[
		"EXT_texture_webp"
	],
	"extensionsRequired":[
		"EXT_texture_webp"
	],
	"scene":0,
	"scenes":[
		{
			"name":"Scene",
			"nodes":[
				0
			]
		}
	],
	"nodes":[
		{
			"mesh":0,
			"name":"SM_Env_Landslide_01",
			"rotation":[
				0.7071068286895752,
				0,
				0,
				0.7071068286895752
			],
			"scale":[
				0.009258811362087727,
				0.009640448726713657,
				0.011112499050796032
			]
		}
	],
	"materials":[
		{
			"doubleSided":true,
			"name":"Gothicc",
			"pbrMetallicRoughness":{
				"baseColorTexture":{
					"index":0
				},
				"metallicFactor":0,
				"roughnessFactor":0.5527864098548889
			}
		}
	],
	"meshes":[
		{
			"name":"Mesh",
			"primitives":[
				{
					"attributes":{
						"POSITION":0,
						"NORMAL":1,
						"TEXCOORD_0":2
					},
					"indices":3,
					"material":0
				}
			]
		}
	],
	"textures":[
		{
			"extensions":{
				"EXT_texture_webp":{
					"source":0
				}
			},
			"sampler":0
		}
	],
	"images":[
		{
			"mimeType":"image/webp",
			"name":"PolygonDarkFantasy_Texture_01_A",
			"uri":"PolygonDarkFantasy_Texture_01_A.webp"
		}
	],
	"accessors":[
		{
			"bufferView":0,
			"componentType":5126,
			"count":2087,
			"max":[
				1160.25341796875,
				1587.498291015625,
				295.0074768066406
			],
			"min":[
				-1160.25341796875,
				-255.036376953125,
				-901.4611206054688
			],
			"type":"VEC3"
		},
		{
			"bufferView":1,
			"componentType":5126,
			"count":2087,
			"type":"VEC3"
		},
		{
			"bufferView":2,
			"componentType":5126,
			"count":2087,
			"type":"VEC2"
		},
		{
			"bufferView":3,
			"componentType":5123,
			"count":2121,
			"type":"SCALAR"
		}
	],
	"bufferViews":[
		{
			"buffer":0,
			"byteLength":25044,
			"byteOffset":0,
			"target":34962
		},
		{
			"buffer":0,
			"byteLength":25044,
			"byteOffset":25044,
			"target":34962
		},
		{
			"buffer":0,
			"byteLength":16696,
			"byteOffset":50088,
			"target":34962
		},
		{
			"buffer":0,
			"byteLength":4242,
			"byteOffset":66784,
			"target":34963
		}
	],
	"samplers":[
		{
			"magFilter":9729,
			"minFilter":9987
		}
	],
	"buffers":[
		{
			"byteLength":71028,
			"uri":"dark_SM_Env_Landslide_01.bin"
		}
	]
}
