{"asset":{"generator":"Khronos glTF Blender I/O v4.4.55","version":"2.0"},"extensionsUsed":["EXT_texture_webp"],"extensionsRequired":["EXT_texture_webp"],"scene":0,"scenes":[{"name":"Scene","nodes":[0]}],"nodes":[{"mesh":0,"name":"SM_Bld_Railing_01_Damaged_02","rotation":[0.7071068286895752,0,0,0.7071068286895752],"scale":[0.009999999776482582,0.009999999776482582,0.009999999776482582]}],"materials":[{"doubleSided":true,"name":"MAT_01A","pbrMetallicRoughness":{"baseColorTexture":{"index":2},"metallicFactor":0,"roughnessFactor":0.5527864098548889}}],"meshes":[{"name":"Mesh","primitives":[{"attributes":{"POSITION":0,"NORMAL":1,"TEXCOORD_0":2},"indices":3,"material":0}]}],"textures":[{"extensions":{},"sampler":0},{"extensions":{},"sampler":0},{"extensions":{"EXT_texture_webp":{"source":0}},"sampler":0}],"images":[{"mimeType":"image/webp","name":"PolygonDarkFantasy_Emissive_04_A","uri":"PolygonDarkFantasy_Emissive_04_A.webp"}],"accessors":[{"bufferView":0,"componentType":5126,"count":1800,"max":[249.99951171875,16.5693359375,0.00010973765165545046],"min":[-0.00390625,-16.5693359375,-94.51275634765625],"type":"VEC3"},{"bufferView":1,"componentType":5126,"count":1800,"type":"VEC3"},{"bufferView":2,"componentType":5126,"count":1800,"type":"VEC2"},{"bufferView":3,"componentType":5123,"count":2634,"type":"SCALAR"}],"bufferViews":[{"buffer":0,"byteLength":21600,"byteOffset":0,"target":34962},{"buffer":0,"byteLength":21600,"byteOffset":21600,"target":34962},{"buffer":0,"byteLength":14400,"byteOffset":43200,"target":34962},{"buffer":0,"byteLength":5268,"byteOffset":57600,"target":34963}],"samplers":[{"magFilter":9729,"minFilter":9987}],"buffers":[{"byteLength":62868,"uri":"dark_SM_Bld_Railing_01_Damaged_02.bin"}]}