{
	"asset":{
		"generator":"Khronos glTF Blender I/O v4.4.55",
		"version":"2.0"
	},
	"extensionsUsed":[
		"EXT_texture_webp"
	],
	"extensionsRequired":[
		"EXT_texture_webp"
	],
	"scene":0,
	"scenes":[
		{
			"name":"Scene",
			"nodes":[
				0
			]
		}
	],
	"nodes":[
		{
			"mesh":0,
			"name":"SM_Prop_Bone_Pile_02",
			"rotation":[
				0.7071068286895752,
				0,
				0,
				0.7071068286895752
			],
			"scale":[
				0.009999999776482582,
				0.009999999776482582,
				0.009999999776482582
			]
		}
	],
	"materials":[
		{
			"doubleSided":true,
			"name":"pasted__Gothicc",
			"pbrMetallicRoughness":{
				"baseColorTexture":{
					"index":0
				},
				"metallicFactor":0,
				"roughnessFactor":0.5527864098548889
			}
		}
	],
	"meshes":[
		{
			"name":"Mesh",
			"primitives":[
				{
					"attributes":{
						"POSITION":0,
						"NORMAL":1,
						"TEXCOORD_0":2
					},
					"indices":3,
					"material":0
				}
			]
		}
	],
	"textures":[
		{
			"extensions":{
				"EXT_texture_webp":{
					"source":0
				}
			},
			"sampler":0
		}
	],
	"images":[
		{
			"mimeType":"image/webp",
			"name":"PolygonDarkFantasy_Texture_01_A",
			"uri":"PolygonDarkFantasy_Texture_01_A.webp"
		}
	],
	"accessors":[
		{
			"bufferView":0,
			"componentType":5126,
			"count":2492,
			"max":[
				53.870262145996094,
				39.63098907470703,
				11.42523193359375
			],
			"min":[
				-41.23175048828125,
				-39.59521484375,
				-11.797782897949219
			],
			"type":"VEC3"
		},
		{
			"bufferView":1,
			"componentType":5126,
			"count":2492,
			"type":"VEC3"
		},
		{
			"bufferView":2,
			"componentType":5126,
			"count":2492,
			"type":"VEC2"
		},
		{
			"bufferView":3,
			"componentType":5123,
			"count":3252,
			"type":"SCALAR"
		}
	],
	"bufferViews":[
		{
			"buffer":0,
			"byteLength":29904,
			"byteOffset":0,
			"target":34962
		},
		{
			"buffer":0,
			"byteLength":29904,
			"byteOffset":29904,
			"target":34962
		},
		{
			"buffer":0,
			"byteLength":19936,
			"byteOffset":59808,
			"target":34962
		},
		{
			"buffer":0,
			"byteLength":6504,
			"byteOffset":79744,
			"target":34963
		}
	],
	"samplers":[
		{
			"magFilter":9729,
			"minFilter":9987
		}
	],
	"buffers":[
		{
			"byteLength":86248,
			"uri":"dark_SM_Prop_Bone_Pile_02.bin"
		}
	]
}
