{"asset":{"generator":"Khronos glTF Blender I/O v4.4.55","version":"2.0"},"extensionsUsed":["EXT_texture_webp"],"extensionsRequired":["EXT_texture_webp"],"scene":0,"scenes":[{"name":"Scene","nodes":[0]}],"nodes":[{"mesh":0,"name":"SM_Env_Rock_Cliff_Arch_01","rotation":[0.7071068286895752,0,0,0.7071068286895752],"scale":[0.009999999776482582,0.009999999776482582,0.009999999776482582]}],"materials":[{"doubleSided":true,"name":"MAT_01A16","pbrMetallicRoughness":{"baseColorTexture":{"index":2},"metallicFactor":0,"roughnessFactor":0.5527864098548889}}],"meshes":[{"name":"Mesh","primitives":[{"attributes":{"POSITION":0,"NORMAL":1,"TEXCOORD_0":2,"TEXCOORD_1":3},"indices":4,"material":0}]}],"textures":[{"extensions":{},"sampler":0},{"extensions":{},"sampler":0},{"extensions":{"EXT_texture_webp":{"source":0}},"sampler":0}],"images":[{"mimeType":"image/webp","name":"PolygonDarkFantasy_Emissive_04_A","uri":"PolygonDarkFantasy_Emissive_04_A.webp"}],"accessors":[{"bufferView":0,"componentType":5126,"count":5278,"max":[364.2762145996094,566.4940185546875,25.936662673950195],"min":[-2038.8909912109375,-609.3163452148438,-1332.7991943359375],"type":"VEC3"},{"bufferView":1,"componentType":5126,"count":5278,"type":"VEC3"},{"bufferView":2,"componentType":5126,"count":5278,"type":"VEC2"},{"bufferView":3,"componentType":5126,"count":5278,"type":"VEC2"},{"bufferView":4,"componentType":5123,"count":5280,"type":"SCALAR"}],"bufferViews":[{"buffer":0,"byteLength":63336,"byteOffset":0,"target":34962},{"buffer":0,"byteLength":63336,"byteOffset":63336,"target":34962},{"buffer":0,"byteLength":42224,"byteOffset":126672,"target":34962},{"buffer":0,"byteLength":42224,"byteOffset":168896,"target":34962},{"buffer":0,"byteLength":10560,"byteOffset":211120,"target":34963}],"samplers":[{"magFilter":9729,"minFilter":9987}],"buffers":[{"byteLength":221680,"uri":"dark_SM_Env_Rock_Cliff_Arch_01.bin"}]}