{
	"asset":{
		"generator":"Khronos glTF Blender I/O v4.4.55",
		"version":"2.0"
	},
	"extensionsUsed":[
		"EXT_texture_webp"
	],
	"extensionsRequired":[
		"EXT_texture_webp"
	],
	"scene":0,
	"scenes":[
		{
			"name":"Scene",
			"nodes":[
				0
			]
		}
	],
	"nodes":[
		{
			"mesh":0,
			"name":"SM_Prop_Gargoyle_Small_01",
			"rotation":[
				0.7071068286895752,
				0,
				0,
				0.7071068286895752
			],
			"scale":[
				0.009999999776482582,
				0.009999999776482582,
				0.009999999776482582
			],
			"translation":[
				0,
				0.029155513271689415,
				1.5942929983139038
			]
		}
	],
	"materials":[
		{
			"doubleSided":true,
			"name":"gargoyles_Gothicc3",
			"pbrMetallicRoughness":{
				"baseColorTexture":{
					"index":0
				},
				"metallicFactor":0,
				"roughnessFactor":0.5527864098548889
			}
		}
	],
	"meshes":[
		{
			"name":"Mesh",
			"primitives":[
				{
					"attributes":{
						"POSITION":0,
						"NORMAL":1,
						"TEXCOORD_0":2,
						"TEXCOORD_1":3,
						"TEXCOORD_2":4
					},
					"indices":5,
					"material":0
				}
			]
		}
	],
	"textures":[
		{
			"extensions":{
				"EXT_texture_webp":{
					"source":0
				}
			},
			"sampler":0
		}
	],
	"images":[
		{
			"mimeType":"image/webp",
			"name":"PolygonDarkFantasy_Texture_01_A",
			"uri":"PolygonDarkFantasy_Texture_01_A.webp"
		}
	],
	"accessors":[
		{
			"bufferView":0,
			"componentType":5126,
			"count":3510,
			"max":[
				33.96686935424805,
				20.002988815307617,
				0.22890472412109375
			],
			"min":[
				-33.88808059692383,
				-13.466875076293945,
				-56.070701599121094
			],
			"type":"VEC3"
		},
		{
			"bufferView":1,
			"componentType":5126,
			"count":3510,
			"type":"VEC3"
		},
		{
			"bufferView":2,
			"componentType":5126,
			"count":3510,
			"type":"VEC2"
		},
		{
			"bufferView":3,
			"componentType":5126,
			"count":3510,
			"type":"VEC2"
		},
		{
			"bufferView":4,
			"componentType":5126,
			"count":3510,
			"type":"VEC2"
		},
		{
			"bufferView":5,
			"componentType":5123,
			"count":4380,
			"type":"SCALAR"
		}
	],
	"bufferViews":[
		{
			"buffer":0,
			"byteLength":42120,
			"byteOffset":0,
			"target":34962
		},
		{
			"buffer":0,
			"byteLength":42120,
			"byteOffset":42120,
			"target":34962
		},
		{
			"buffer":0,
			"byteLength":28080,
			"byteOffset":84240,
			"target":34962
		},
		{
			"buffer":0,
			"byteLength":28080,
			"byteOffset":112320,
			"target":34962
		},
		{
			"buffer":0,
			"byteLength":28080,
			"byteOffset":140400,
			"target":34962
		},
		{
			"buffer":0,
			"byteLength":8760,
			"byteOffset":168480,
			"target":34963
		}
	],
	"samplers":[
		{
			"magFilter":9729,
			"minFilter":9987
		}
	],
	"buffers":[
		{
			"byteLength":177240,
			"uri":"dark_SM_Prop_Gargoyle_Small_01.bin"
		}
	]
}
