{"asset":{"generator":"Khronos glTF Blender I/O v4.4.55","version":"2.0"},"extensionsUsed":["EXT_texture_webp"],"extensionsRequired":["EXT_texture_webp"],"scene":0,"scenes":[{"name":"Scene","nodes":[0]}],"nodes":[{"mesh":0,"name":"SM_Env_Plant_Grass_02","rotation":[0.7071068286895752,0,0,0.7071068286895752],"scale":[0.009999999776482582,0.009999999776482582,0.009999999776482582]}],"materials":[{"doubleSided":true,"emissiveFactor":[1,1,1],"name":"MAT_01A","pbrMetallicRoughness":{"baseColorTexture":{"index":2},"metallicFactor":0,"roughnessFactor":0.5527864098548889}}],"meshes":[{"name":"Mesh","primitives":[{"attributes":{"POSITION":0,"NORMAL":1,"TEXCOORD_0":2,"COLOR_0":3,"COLOR_1":4},"indices":5,"material":0}]}],"textures":[{"extensions":{},"sampler":0},{"extensions":{},"sampler":0},{"extensions":{"EXT_texture_webp":{"source":0}},"sampler":0}],"images":[{"mimeType":"image/webp","name":"PolygonDarkFantasy_Emissive_04_A","uri":"PolygonDarkFantasy_Emissive_04_A.webp"}],"accessors":[{"bufferView":0,"componentType":5126,"count":680,"max":[55.6829719543457,64.61920928955078,0],"min":[-55.6829719543457,-64.61920928955078,-98.50053405761719],"type":"VEC3"},{"bufferView":1,"componentType":5126,"count":680,"type":"VEC3"},{"bufferView":2,"componentType":5126,"count":680,"type":"VEC2"},{"bufferView":3,"componentType":5121,"count":680,"normalized":true,"type":"VEC4"},{"bufferView":4,"componentType":5123,"count":680,"normalized":true,"type":"VEC4"},{"bufferView":5,"componentType":5123,"count":714,"type":"SCALAR"}],"bufferViews":[{"buffer":0,"byteLength":8160,"byteOffset":0,"target":34962},{"buffer":0,"byteLength":8160,"byteOffset":8160,"target":34962},{"buffer":0,"byteLength":5440,"byteOffset":16320,"target":34962},{"buffer":0,"byteLength":2720,"byteOffset":21760,"target":34962},{"buffer":0,"byteLength":5440,"byteOffset":24480,"target":34962},{"buffer":0,"byteLength":1428,"byteOffset":29920,"target":34963}],"samplers":[{"magFilter":9729,"minFilter":9987}],"buffers":[{"byteLength":31348,"uri":"dark_SM_Env_Plant_Grass_02.bin"}]}