{"asset":{"generator":"Khronos glTF Blender I/O v4.4.55","version":"2.0"},"extensionsUsed":["EXT_texture_webp"],"extensionsRequired":["EXT_texture_webp"],"scene":0,"scenes":[{"name":"Scene","nodes":[1]}],"nodes":[{"mesh":0,"name":"SM_Prop_Fire_Pit_01_Rotisserie_01_Pig"},{"children":[0],"mesh":1,"name":"SM_Prop_Fire_Pit_01_Rotisserie_01","rotation":[0.7071068286895752,0,0,0.7071068286895752],"scale":[0.009999999776482582,0.009999999776482582,0.009999999776482582]}],"materials":[{"doubleSided":true,"name":"Gothic","pbrMetallicRoughness":{"baseColorTexture":{"index":2},"metallicFactor":0,"roughnessFactor":0.5527864098548889}}],"meshes":[{"name":"Mesh.001","primitives":[{"attributes":{"POSITION":0,"NORMAL":1,"TEXCOORD_0":2,"TEXCOORD_1":3},"indices":4,"material":0}]},{"name":"Mesh","primitives":[{"attributes":{"POSITION":5,"NORMAL":6,"TEXCOORD_0":7},"indices":8,"material":0}]}],"textures":[{"extensions":{},"sampler":0},{"extensions":{},"sampler":0},{"extensions":{"EXT_texture_webp":{"source":0}},"sampler":0}],"images":[{"mimeType":"image/webp","name":"PolygonDarkFantasy_Emissive_04_A","uri":"PolygonDarkFantasy_Emissive_04_A.webp"}],"accessors":[{"bufferView":0,"componentType":5126,"count":3089,"max":[131.84097290039062,34.349281311035156,-75.85912322998047],"min":[-179.4025421142578,-22.272220611572266,-163.86749267578125],"type":"VEC3"},{"bufferView":1,"componentType":5126,"count":3089,"type":"VEC3"},{"bufferView":2,"componentType":5126,"count":3089,"type":"VEC2"},{"bufferView":3,"componentType":5126,"count":3089,"type":"VEC2"},{"bufferView":4,"componentType":5123,"count":4500,"type":"SCALAR"},{"bufferView":5,"componentType":5126,"count":348,"max":[111.36585235595703,13.58713150024414,1.2455320358276367],"min":[-116.13398742675781,0.7702512741088867,-170.48550415039062],"type":"VEC3"},{"bufferView":6,"componentType":5126,"count":348,"type":"VEC3"},{"bufferView":7,"componentType":5126,"count":348,"type":"VEC2"},{"bufferView":8,"componentType":5123,"count":468,"type":"SCALAR"}],"bufferViews":[{"buffer":0,"byteLength":37068,"byteOffset":0,"target":34962},{"buffer":0,"byteLength":37068,"byteOffset":37068,"target":34962},{"buffer":0,"byteLength":24712,"byteOffset":74136,"target":34962},{"buffer":0,"byteLength":24712,"byteOffset":98848,"target":34962},{"buffer":0,"byteLength":9000,"byteOffset":123560,"target":34963},{"buffer":0,"byteLength":4176,"byteOffset":132560,"target":34962},{"buffer":0,"byteLength":4176,"byteOffset":136736,"target":34962},{"buffer":0,"byteLength":2784,"byteOffset":140912,"target":34962},{"buffer":0,"byteLength":936,"byteOffset":143696,"target":34963}],"samplers":[{"magFilter":9729,"minFilter":9987}],"buffers":[{"byteLength":144632,"uri":"dark_SM_Prop_Fire_Pit_01_Rotisserie_01.bin"}]}