{
	"asset":{
		"generator":"Khronos glTF Blender I/O v4.4.55",
		"version":"2.0"
	},
	"extensionsUsed":[
		"EXT_texture_webp"
	],
	"extensionsRequired":[
		"EXT_texture_webp"
	],
	"scene":0,
	"scenes":[
		{
			"name":"Scene",
			"nodes":[
				0
			]
		}
	],
	"nodes":[
		{
			"mesh":0,
			"name":"SM_Prop_Flag_Light_01",
			"rotation":[
				0.7071068286895752,
				0,
				0,
				0.7071068286895752
			],
			"scale":[
				0.009999999776482582,
				0.009999999776482582,
				0.009999999776482582
			]
		}
	],
	"materials":[
		{
			"doubleSided":true,
			"name":"GOTHIC_MAT14",
			"pbrMetallicRoughness":{
				"baseColorTexture":{
					"index":0
				},
				"metallicFactor":0,
				"roughnessFactor":0.5527864098548889
			}
		}
	],
	"meshes":[
		{
			"name":"Mesh",
			"primitives":[
				{
					"attributes":{
						"POSITION":0,
						"NORMAL":1,
						"TEXCOORD_0":2
					},
					"indices":3,
					"material":0
				}
			]
		}
	],
	"textures":[
		{
			"extensions":{
				"EXT_texture_webp":{
					"source":0
				}
			},
			"sampler":0
		}
	],
	"images":[
		{
			"mimeType":"image/webp",
			"name":"PolygonDarkFantasy_Texture_01_A",
			"uri":"PolygonDarkFantasy_Texture_01_A.webp"
		}
	],
	"accessors":[
		{
			"bufferView":0,
			"componentType":5126,
			"count":1207,
			"max":[
				72.37310791015625,
				14.205480575561523,
				0
			],
			"min":[
				-72.37310791015625,
				-5.845983028411865,
				-300.43731689453125
			],
			"type":"VEC3"
		},
		{
			"bufferView":1,
			"componentType":5126,
			"count":1207,
			"type":"VEC3"
		},
		{
			"bufferView":2,
			"componentType":5126,
			"count":1207,
			"type":"VEC2"
		},
		{
			"bufferView":3,
			"componentType":5123,
			"count":1902,
			"type":"SCALAR"
		}
	],
	"bufferViews":[
		{
			"buffer":0,
			"byteLength":14484,
			"byteOffset":0,
			"target":34962
		},
		{
			"buffer":0,
			"byteLength":14484,
			"byteOffset":14484,
			"target":34962
		},
		{
			"buffer":0,
			"byteLength":9656,
			"byteOffset":28968,
			"target":34962
		},
		{
			"buffer":0,
			"byteLength":3804,
			"byteOffset":38624,
			"target":34963
		}
	],
	"samplers":[
		{
			"magFilter":9729,
			"minFilter":9987
		}
	],
	"buffers":[
		{
			"byteLength":42428,
			"uri":"dark_SM_Prop_Flag_Light_01.bin"
		}
	]
}
