{
	"asset":{
		"generator":"Khronos glTF Blender I/O v4.4.55",
		"version":"2.0"
	},
	"extensionsUsed":[
		"EXT_texture_webp"
	],
	"extensionsRequired":[
		"EXT_texture_webp"
	],
	"scene":0,
	"scenes":[
		{
			"name":"Scene",
			"nodes":[
				0
			]
		}
	],
	"nodes":[
		{
			"mesh":0,
			"name":"SM_Bld_Wall_Ruin_01",
			"rotation":[
				0.7071068286895752,
				0,
				0,
				0.7071068286895752
			],
			"scale":[
				0.009999999776482582,
				0.009999999776482582,
				0.009999999776482582
			]
		}
	],
	"materials":[
		{
			"doubleSided":true,
			"name":"GOTHIC_MAT14",
			"pbrMetallicRoughness":{
				"baseColorTexture":{
					"index":0
				},
				"metallicFactor":0,
				"roughnessFactor":0.5527864098548889
			}
		},
		{
			"doubleSided":true,
			"name":"WALL_1_MAT",
			"pbrMetallicRoughness":{
				"baseColorTexture":{
					"index":1
				},
				"metallicFactor":0,
				"roughnessFactor":0.5527864098548889
			}
		},
		{
			"doubleSided":true,
			"name":"WALL_2_MAT",
			"pbrMetallicRoughness":{
				"baseColorTexture":{
					"index":2
				},
				"metallicFactor":0,
				"roughnessFactor":0.5527864098548889
			}
		}
	],
	"meshes":[
		{
			"name":"Mesh",
			"primitives":[
				{
					"attributes":{
						"POSITION":0,
						"NORMAL":1,
						"TEXCOORD_0":2
					},
					"indices":3,
					"material":0
				},
				{
					"attributes":{
						"POSITION":4,
						"NORMAL":5,
						"TEXCOORD_0":6
					},
					"indices":7,
					"material":1
				},
				{
					"attributes":{
						"POSITION":8,
						"NORMAL":9,
						"TEXCOORD_0":10
					},
					"indices":11,
					"material":2
				}
			]
		}
	],
	"textures":[
		{
			"extensions":{
				"EXT_texture_webp":{
					"source":0
				}
			},
			"sampler":0
		},
		{
			"extensions":{
				"EXT_texture_webp":{
					"source":1
				}
			},
			"sampler":0
		},
		{
			"extensions":{
				"EXT_texture_webp":{
					"source":2
				}
			},
			"sampler":0
		}
	],
	"images":[
		{
			"mimeType":"image/webp",
			"name":"PolygonDarkFantasy_Texture_01_A",
			"uri":"PolygonDarkFantasy_Texture_01_A.webp"
		},
		{
			"mimeType":"image/webp",
			"name":"Brick_Small_04",
			"uri":"Brick_Small_04.webp"
		},
		{
			"mimeType":"image/webp",
			"name":"Stucco_Brown_01",
			"uri":"Stucco_Brown_01.webp"
		}
	],
	"accessors":[
		{
			"bufferView":0,
			"componentType":5126,
			"count":530,
			"max":[
				210.6890869140625,
				11.25,
				-38.143001556396484
			],
			"min":[
				18.45947265625,
				-11.25,
				-262.45623779296875
			],
			"type":"VEC3"
		},
		{
			"bufferView":1,
			"componentType":5126,
			"count":530,
			"type":"VEC3"
		},
		{
			"bufferView":2,
			"componentType":5126,
			"count":530,
			"type":"VEC2"
		},
		{
			"bufferView":3,
			"componentType":5123,
			"count":840,
			"type":"SCALAR"
		},
		{
			"bufferView":4,
			"componentType":5126,
			"count":41,
			"max":[
				249.9991455078125,
				0,
				0
			],
			"min":[
				0,
				-11.25,
				-300.5742492675781
			],
			"type":"VEC3"
		},
		{
			"bufferView":5,
			"componentType":5126,
			"count":41,
			"type":"VEC3"
		},
		{
			"bufferView":6,
			"componentType":5126,
			"count":41,
			"type":"VEC2"
		},
		{
			"bufferView":7,
			"componentType":5123,
			"count":99,
			"type":"SCALAR"
		},
		{
			"bufferView":8,
			"componentType":5126,
			"count":41,
			"max":[
				249.9991455078125,
				11.25,
				0
			],
			"min":[
				0,
				0,
				-300.5742492675781
			],
			"type":"VEC3"
		},
		{
			"bufferView":9,
			"componentType":5126,
			"count":41,
			"type":"VEC3"
		},
		{
			"bufferView":10,
			"componentType":5126,
			"count":41,
			"type":"VEC2"
		},
		{
			"bufferView":11,
			"componentType":5123,
			"count":99,
			"type":"SCALAR"
		}
	],
	"bufferViews":[
		{
			"buffer":0,
			"byteLength":6360,
			"byteOffset":0,
			"target":34962
		},
		{
			"buffer":0,
			"byteLength":6360,
			"byteOffset":6360,
			"target":34962
		},
		{
			"buffer":0,
			"byteLength":4240,
			"byteOffset":12720,
			"target":34962
		},
		{
			"buffer":0,
			"byteLength":1680,
			"byteOffset":16960,
			"target":34963
		},
		{
			"buffer":0,
			"byteLength":492,
			"byteOffset":18640,
			"target":34962
		},
		{
			"buffer":0,
			"byteLength":492,
			"byteOffset":19132,
			"target":34962
		},
		{
			"buffer":0,
			"byteLength":328,
			"byteOffset":19624,
			"target":34962
		},
		{
			"buffer":0,
			"byteLength":198,
			"byteOffset":19952,
			"target":34963
		},
		{
			"buffer":0,
			"byteLength":492,
			"byteOffset":20152,
			"target":34962
		},
		{
			"buffer":0,
			"byteLength":492,
			"byteOffset":20644,
			"target":34962
		},
		{
			"buffer":0,
			"byteLength":328,
			"byteOffset":21136,
			"target":34962
		},
		{
			"buffer":0,
			"byteLength":198,
			"byteOffset":21464,
			"target":34963
		}
	],
	"samplers":[
		{
			"magFilter":9729,
			"minFilter":9987
		}
	],
	"buffers":[
		{
			"byteLength":21664,
			"uri":"dark_SM_Bld_Wall_Ruin_01.bin"
		}
	]
}
