{
	"asset":{
		"generator":"Khronos glTF Blender I/O v4.4.55",
		"version":"2.0"
	},
	"extensionsUsed":[
		"EXT_texture_webp"
	],
	"extensionsRequired":[
		"EXT_texture_webp"
	],
	"scene":0,
	"scenes":[
		{
			"name":"Scene",
			"nodes":[
				0
			]
		}
	],
	"nodes":[
		{
			"mesh":0,
			"name":"SM_Prop_Body_Burnt_03",
			"rotation":[
				0.7071068286895752,
				0,
				0,
				0.7071068286895752
			],
			"scale":[
				0.009999999776482582,
				0.009999999776482582,
				0.009999999776482582
			]
		}
	],
	"materials":[
		{
			"doubleSided":true,
			"name":"Gothicc23",
			"pbrMetallicRoughness":{
				"baseColorTexture":{
					"index":0
				},
				"metallicFactor":0,
				"roughnessFactor":0.5527864098548889
			}
		}
	],
	"meshes":[
		{
			"name":"Mesh",
			"primitives":[
				{
					"attributes":{
						"POSITION":0,
						"NORMAL":1,
						"TEXCOORD_0":2,
						"COLOR_0":3,
						"COLOR_1":4
					},
					"indices":5,
					"material":0
				}
			]
		}
	],
	"textures":[
		{
			"extensions":{
				"EXT_texture_webp":{
					"source":0
				}
			},
			"sampler":0
		}
	],
	"images":[
		{
			"mimeType":"image/webp",
			"name":"PolygonDarkFantasy_Texture_01_A",
			"uri":"PolygonDarkFantasy_Texture_01_A.webp"
		}
	],
	"accessors":[
		{
			"bufferView":0,
			"componentType":5126,
			"count":3228,
			"max":[
				84.51062774658203,
				87.2761459350586,
				1.945692777633667
			],
			"min":[
				-59.52311706542969,
				-87.80638885498047,
				-27.99453353881836
			],
			"type":"VEC3"
		},
		{
			"bufferView":1,
			"componentType":5126,
			"count":3228,
			"type":"VEC3"
		},
		{
			"bufferView":2,
			"componentType":5126,
			"count":3228,
			"type":"VEC2"
		},
		{
			"bufferView":3,
			"componentType":5121,
			"count":3228,
			"normalized":true,
			"type":"VEC4"
		},
		{
			"bufferView":4,
			"componentType":5123,
			"count":3228,
			"normalized":true,
			"type":"VEC4"
		},
		{
			"bufferView":5,
			"componentType":5123,
			"count":4308,
			"type":"SCALAR"
		}
	],
	"bufferViews":[
		{
			"buffer":0,
			"byteLength":38736,
			"byteOffset":0,
			"target":34962
		},
		{
			"buffer":0,
			"byteLength":38736,
			"byteOffset":38736,
			"target":34962
		},
		{
			"buffer":0,
			"byteLength":25824,
			"byteOffset":77472,
			"target":34962
		},
		{
			"buffer":0,
			"byteLength":12912,
			"byteOffset":103296,
			"target":34962
		},
		{
			"buffer":0,
			"byteLength":25824,
			"byteOffset":116208,
			"target":34962
		},
		{
			"buffer":0,
			"byteLength":8616,
			"byteOffset":142032,
			"target":34963
		}
	],
	"samplers":[
		{
			"magFilter":9729,
			"minFilter":9987
		}
	],
	"buffers":[
		{
			"byteLength":150648,
			"uri":"dark_SM_Prop_Body_Burnt_03.bin"
		}
	]
}
