{"asset":{"generator":"Khronos glTF Blender I/O v4.4.55","version":"2.0"},"extensionsUsed":["EXT_texture_webp"],"extensionsRequired":["EXT_texture_webp"],"scene":0,"scenes":[{"name":"Scene","nodes":[0]}],"nodes":[{"mesh":0,"name":"SM_Bld_Bridge_Railing_02","rotation":[0.7071068286895752,0,0,0.7071068286895752],"scale":[0.009999999776482582,0.009999999776482582,0.009999999776482582]}],"materials":[{"doubleSided":true,"name":"MAT_01A10","pbrMetallicRoughness":{"baseColorTexture":{"index":2},"metallicFactor":0,"roughnessFactor":0.5527864098548889}}],"meshes":[{"name":"Mesh","primitives":[{"attributes":{"POSITION":0,"NORMAL":1,"TEXCOORD_0":2,"TEXCOORD_1":3},"indices":4,"material":0}]}],"textures":[{"extensions":{},"sampler":0},{"extensions":{},"sampler":0},{"extensions":{"EXT_texture_webp":{"source":0}},"sampler":0}],"images":[{"mimeType":"image/webp","name":"PolygonDarkFantasy_Emissive_04_A","uri":"PolygonDarkFantasy_Emissive_04_A.webp"}],"accessors":[{"bufferView":0,"componentType":5126,"count":1759,"max":[251.08839416503906,34.74853515625,99.95696258544922],"min":[-1.19775390625,-55.708251953125,-64.40445709228516],"type":"VEC3"},{"bufferView":1,"componentType":5126,"count":1759,"type":"VEC3"},{"bufferView":2,"componentType":5126,"count":1759,"type":"VEC2"},{"bufferView":3,"componentType":5126,"count":1759,"type":"VEC2"},{"bufferView":4,"componentType":5123,"count":1998,"type":"SCALAR"}],"bufferViews":[{"buffer":0,"byteLength":21108,"byteOffset":0,"target":34962},{"buffer":0,"byteLength":21108,"byteOffset":21108,"target":34962},{"buffer":0,"byteLength":14072,"byteOffset":42216,"target":34962},{"buffer":0,"byteLength":14072,"byteOffset":56288,"target":34962},{"buffer":0,"byteLength":3996,"byteOffset":70360,"target":34963}],"samplers":[{"magFilter":9729,"minFilter":9987}],"buffers":[{"byteLength":74356,"uri":"dark_SM_Bld_Bridge_Railing_02.bin"}]}