{
	"asset":{
		"generator":"Khronos glTF Blender I/O v4.4.55",
		"version":"2.0"
	},
	"extensionsUsed":[
		"EXT_texture_webp"
	],
	"extensionsRequired":[
		"EXT_texture_webp"
	],
	"scene":0,
	"scenes":[
		{
			"name":"Scene",
			"nodes":[
				0
			]
		}
	],
	"nodes":[
		{
			"mesh":0,
			"name":"SM_Prop_Gargoyle_Statue_Alt_01",
			"rotation":[
				0.7071068286895752,
				0,
				0,
				0.7071068286895752
			],
			"scale":[
				0.009999999776482582,
				0.009999999776482582,
				0.009999999776482582
			]
		}
	],
	"materials":[
		{
			"doubleSided":true,
			"name":"Gothicc",
			"pbrMetallicRoughness":{
				"baseColorTexture":{
					"index":0
				},
				"metallicFactor":0,
				"roughnessFactor":0.5527864098548889
			}
		}
	],
	"meshes":[
		{
			"name":"Mesh",
			"primitives":[
				{
					"attributes":{
						"POSITION":0,
						"NORMAL":1,
						"TEXCOORD_0":2
					},
					"indices":3,
					"material":0
				}
			]
		}
	],
	"textures":[
		{
			"extensions":{
				"EXT_texture_webp":{
					"source":0
				}
			},
			"sampler":0
		}
	],
	"images":[
		{
			"mimeType":"image/webp",
			"name":"PolygonDarkFantasy_Texture_01_A",
			"uri":"PolygonDarkFantasy_Texture_01_A.webp"
		}
	],
	"accessors":[
		{
			"bufferView":0,
			"componentType":5126,
			"count":17188,
			"max":[
				122.86221313476562,
				61.211822509765625,
				-5.053526878356934
			],
			"min":[
				-122.06396484375,
				-45.96202087402344,
				-168.32284545898438
			],
			"type":"VEC3"
		},
		{
			"bufferView":1,
			"componentType":5126,
			"count":17188,
			"type":"VEC3"
		},
		{
			"bufferView":2,
			"componentType":5126,
			"count":17188,
			"type":"VEC2"
		},
		{
			"bufferView":3,
			"componentType":5123,
			"count":19854,
			"type":"SCALAR"
		}
	],
	"bufferViews":[
		{
			"buffer":0,
			"byteLength":206256,
			"byteOffset":0,
			"target":34962
		},
		{
			"buffer":0,
			"byteLength":206256,
			"byteOffset":206256,
			"target":34962
		},
		{
			"buffer":0,
			"byteLength":137504,
			"byteOffset":412512,
			"target":34962
		},
		{
			"buffer":0,
			"byteLength":39708,
			"byteOffset":550016,
			"target":34963
		}
	],
	"samplers":[
		{
			"magFilter":9729,
			"minFilter":9987
		}
	],
	"buffers":[
		{
			"byteLength":589724,
			"uri":"dark_SM_Prop_Gargoyle_Statue_Alt_01.bin"
		}
	]
}
