{"asset":{"generator":"Khronos glTF Blender I/O v4.4.55","version":"2.0"},"extensionsUsed":["EXT_texture_webp"],"extensionsRequired":["EXT_texture_webp"],"scene":0,"scenes":[{"name":"Scene","nodes":[1]}],"nodes":[{"mesh":0,"name":"SM_Bld_Wall_Window_Tall_02_Glass_01"},{"children":[0],"mesh":1,"name":"SM_Bld_Wall_Window_Tall_02","rotation":[0.7071068286895752,0,0,0.7071068286895752],"scale":[0.009999999776482582,0.009999999776482582,0.009999999776482582]}],"materials":[{"alphaMode":"MASK","doubleSided":true,"name":"Glass_MAT","pbrMetallicRoughness":{"baseColorFactor":[1,1,1,0.3095238208770752],"baseColorTexture":{"index":0},"metallicFactor":0,"roughnessFactor":0.5527864098548889},"alphaCutoff":0.5},{"doubleSided":true,"name":"lambert1701","pbrMetallicRoughness":{"baseColorTexture":{"index":1},"metallicFactor":0,"roughnessFactor":0.5527864098548889}},{"doubleSided":true,"name":"A_Wall35","pbrMetallicRoughness":{"baseColorTexture":{"index":2},"metallicFactor":0,"roughnessFactor":0.5527864098548889}},{"doubleSided":true,"name":"MAT_01A","pbrMetallicRoughness":{"baseColorTexture":{"index":5},"metallicFactor":0,"roughnessFactor":0.5527864098548889}}],"meshes":[{"name":"Mesh.001","primitives":[{"attributes":{"POSITION":0,"NORMAL":1,"TEXCOORD_0":2},"indices":3,"material":0}]},{"name":"Mesh","primitives":[{"attributes":{"POSITION":4,"NORMAL":5,"TEXCOORD_0":6},"indices":7,"material":1},{"attributes":{"POSITION":8,"NORMAL":9,"TEXCOORD_0":10},"indices":11,"material":2},{"attributes":{"POSITION":12,"NORMAL":13,"TEXCOORD_0":14},"indices":15,"material":3}]}],"textures":[{"extensions":{"EXT_texture_webp":{"source":0}},"sampler":0},{"extensions":{"EXT_texture_webp":{"source":0}},"sampler":0},{"extensions":{"EXT_texture_webp":{"source":0}},"sampler":0},{"extensions":{},"sampler":0},{"extensions":{},"sampler":0},{"extensions":{"EXT_texture_webp":{"source":1}},"sampler":0}],"images":[{"mimeType":"image/webp","name":"PolygonDarkFantasy_Texture_01_A","uri":"PolygonDarkFantasy_Texture_01_A.webp"},{"mimeType":"image/webp","name":"PolygonDarkFantasy_Emissive_04_A","uri":"PolygonDarkFantasy_Emissive_04_A.webp"}],"accessors":[{"bufferView":0,"componentType":5126,"count":8,"max":[191.5207977294922,2.9533867835998535,-58.14564514160156],"min":[58.478355407714844,-2.9533867835998535,-387.8864440917969],"type":"VEC3"},{"bufferView":1,"componentType":5126,"count":8,"type":"VEC3"},{"bufferView":2,"componentType":5126,"count":8,"type":"VEC2"},{"bufferView":3,"componentType":5123,"count":12,"type":"SCALAR"},{"bufferView":4,"componentType":5126,"count":28,"max":[249.9991455078125,0,-3.0517578125e-05],"min":[0,-11.250000953674316,-450.5741882324219],"type":"VEC3"},{"bufferView":5,"componentType":5126,"count":28,"type":"VEC3"},{"bufferView":6,"componentType":5126,"count":28,"type":"VEC2"},{"bufferView":7,"componentType":5123,"count":60,"type":"SCALAR"},{"bufferView":8,"componentType":5126,"count":28,"max":[249.9991455078125,11.250000953674316,-3.0517578125e-05],"min":[0,0,-450.5741882324219],"type":"VEC3"},{"bufferView":9,"componentType":5126,"count":28,"type":"VEC3"},{"bufferView":10,"componentType":5126,"count":28,"type":"VEC2"},{"bufferView":11,"componentType":5123,"count":60,"type":"SCALAR"},{"bufferView":12,"componentType":5126,"count":3664,"max":[191.7174072265625,34.800296783447266,-25.79345703125],"min":[58.581024169921875,-34.800296783447266,-397.0343017578125],"type":"VEC3"},{"bufferView":13,"componentType":5126,"count":3664,"type":"VEC3"},{"bufferView":14,"componentType":5126,"count":3664,"type":"VEC2"},{"bufferView":15,"componentType":5123,"count":6198,"type":"SCALAR"}],"bufferViews":[{"buffer":0,"byteLength":96,"byteOffset":0,"target":34962},{"buffer":0,"byteLength":96,"byteOffset":96,"target":34962},{"buffer":0,"byteLength":64,"byteOffset":192,"target":34962},{"buffer":0,"byteLength":24,"byteOffset":256,"target":34963},{"buffer":0,"byteLength":336,"byteOffset":280,"target":34962},{"buffer":0,"byteLength":336,"byteOffset":616,"target":34962},{"buffer":0,"byteLength":224,"byteOffset":952,"target":34962},{"buffer":0,"byteLength":120,"byteOffset":1176,"target":34963},{"buffer":0,"byteLength":336,"byteOffset":1296,"target":34962},{"buffer":0,"byteLength":336,"byteOffset":1632,"target":34962},{"buffer":0,"byteLength":224,"byteOffset":1968,"target":34962},{"buffer":0,"byteLength":120,"byteOffset":2192,"target":34963},{"buffer":0,"byteLength":43968,"byteOffset":2312,"target":34962},{"buffer":0,"byteLength":43968,"byteOffset":46280,"target":34962},{"buffer":0,"byteLength":29312,"byteOffset":90248,"target":34962},{"buffer":0,"byteLength":12396,"byteOffset":119560,"target":34963}],"samplers":[{"magFilter":9729,"minFilter":9987}],"buffers":[{"byteLength":131956,"uri":"dark_SM_Bld_Wall_Window_Tall_02.bin"}]}