{"asset":{"generator":"Khronos glTF Blender I/O v4.4.55","version":"2.0"},"extensionsUsed":["EXT_texture_webp","KHR_materials_specular"],"extensionsRequired":["EXT_texture_webp"],"scene":0,"scenes":[{"name":"Scene","nodes":[0]}],"nodes":[{"mesh":0,"name":"SM_Prop_Barricade_01_Insert_01","rotation":[0.7071068286895752,0,0,0.7071068286895752],"scale":[0.009999999776482582,0.009999999776482582,0.009999999776482582]}],"materials":[{"doubleSided":true,"extensions":{"KHR_materials_specular":{"specularColorFactor":[2.0,2.0,2.0]}},"name":"PolygonElven_MAT39","pbrMetallicRoughness":{"baseColorTexture":{"index":1},"metallicFactor":0.5,"roughnessFactor":0}}],"meshes":[{"name":"Mesh","primitives":[{"attributes":{"POSITION":0,"NORMAL":1,"TEXCOORD_0":2,"TEXCOORD_1":3},"indices":4,"material":0}]}],"textures":[{"extensions":{},"sampler":0},{"extensions":{"EXT_texture_webp":{"source":0}},"sampler":0}],"images":[{"mimeType":"image/webp","name":"PolygonDarkFantasy_Emissive_04_A","uri":"PolygonDarkFantasy_Emissive_04_A.webp"}],"accessors":[{"bufferView":0,"componentType":5126,"count":754,"max":[102.39567565917969,114.27365112304688,-50.60832977294922],"min":[-98.24288177490234,28.956268310546875,-233.14410400390625],"type":"VEC3"},{"bufferView":1,"componentType":5126,"count":754,"type":"VEC3"},{"bufferView":2,"componentType":5126,"count":754,"type":"VEC2"},{"bufferView":3,"componentType":5126,"count":754,"type":"VEC2"},{"bufferView":4,"componentType":5123,"count":1092,"type":"SCALAR"}],"bufferViews":[{"buffer":0,"byteLength":9048,"byteOffset":0,"target":34962},{"buffer":0,"byteLength":9048,"byteOffset":9048,"target":34962},{"buffer":0,"byteLength":6032,"byteOffset":18096,"target":34962},{"buffer":0,"byteLength":6032,"byteOffset":24128,"target":34962},{"buffer":0,"byteLength":2184,"byteOffset":30160,"target":34963}],"samplers":[{"magFilter":9729,"minFilter":9987}],"buffers":[{"byteLength":32344,"uri":"dark_SM_Prop_Barricade_01_Insert_01.bin"}]}