{"asset":{"generator":"Khronos glTF Blender I/O v4.4.55","version":"2.0"},"extensionsUsed":["EXT_texture_webp"],"extensionsRequired":["EXT_texture_webp"],"scene":0,"scenes":[{"name":"Scene","nodes":[1]}],"nodes":[{"mesh":0,"name":"SM_Bld_Wall_Window_02_Glass_01"},{"children":[0],"mesh":1,"name":"SM_Bld_Wall_Window_02","rotation":[0.7071068286895752,0,0,0.7071068286895752],"scale":[0.009999999776482582,0.009999999776482582,0.009999999776482582]}],"materials":[{"alphaMode":"MASK","doubleSided":true,"name":"Glass_MAT","pbrMetallicRoughness":{"baseColorFactor":[1,1,1,0.3095238208770752],"baseColorTexture":{"index":0},"metallicFactor":0,"roughnessFactor":0.5527864098548889},"alphaCutoff":0.5},{"doubleSided":true,"name":"MAT_01A","pbrMetallicRoughness":{"baseColorTexture":{"index":3},"metallicFactor":0,"roughnessFactor":0.5527864098548889}},{"doubleSided":true,"name":"lambert1699","pbrMetallicRoughness":{"baseColorTexture":{"index":4},"metallicFactor":0,"roughnessFactor":0.5527864098548889}},{"doubleSided":true,"name":"A_Wall33","pbrMetallicRoughness":{"baseColorTexture":{"index":5},"metallicFactor":0,"roughnessFactor":0.5527864098548889}}],"meshes":[{"name":"Mesh.001","primitives":[{"attributes":{"POSITION":0,"NORMAL":1,"TEXCOORD_0":2},"indices":3,"material":0}]},{"name":"Mesh","primitives":[{"attributes":{"POSITION":4,"NORMAL":5,"TEXCOORD_0":6},"indices":7,"material":1},{"attributes":{"POSITION":8,"NORMAL":9,"TEXCOORD_0":10},"indices":11,"material":2},{"attributes":{"POSITION":12,"NORMAL":13,"TEXCOORD_0":14},"indices":15,"material":3}]}],"textures":[{"extensions":{"EXT_texture_webp":{"source":0}},"sampler":0},{"extensions":{},"sampler":0},{"extensions":{},"sampler":0},{"extensions":{"EXT_texture_webp":{"source":1}},"sampler":0},{"extensions":{"EXT_texture_webp":{"source":0}},"sampler":0},{"extensions":{"EXT_texture_webp":{"source":0}},"sampler":0}],"images":[{"mimeType":"image/webp","name":"PolygonDarkFantasy_Texture_01_A","uri":"PolygonDarkFantasy_Texture_01_A.webp"},{"mimeType":"image/webp","name":"PolygonDarkFantasy_Emissive_04_A","uri":"PolygonDarkFantasy_Emissive_04_A.webp"}],"accessors":[{"bufferView":0,"componentType":5126,"count":8,"max":[214.2249298095703,2.9533867835998535,-60.63632583618164],"min":[35.49760055541992,-2.9533867835998535,-239.36349487304688],"type":"VEC3"},{"bufferView":1,"componentType":5126,"count":8,"type":"VEC3"},{"bufferView":2,"componentType":5126,"count":8,"type":"VEC2"},{"bufferView":3,"componentType":5123,"count":12,"type":"SCALAR"},{"bufferView":4,"componentType":5126,"count":6380,"max":[223.63819885253906,20.059326171875,-51.361297607421875],"min":[26.360939025878906,-20.059326171875,-248.63851928710938],"type":"VEC3"},{"bufferView":5,"componentType":5126,"count":6380,"type":"VEC3"},{"bufferView":6,"componentType":5126,"count":6380,"type":"VEC2"},{"bufferView":7,"componentType":5123,"count":10968,"type":"SCALAR"},{"bufferView":8,"componentType":5126,"count":40,"max":[249.9991455078125,0,0],"min":[0,-11.25,-300.57427978515625],"type":"VEC3"},{"bufferView":9,"componentType":5126,"count":40,"type":"VEC3"},{"bufferView":10,"componentType":5126,"count":40,"type":"VEC2"},{"bufferView":11,"componentType":5123,"count":96,"type":"SCALAR"},{"bufferView":12,"componentType":5126,"count":40,"max":[249.9991455078125,11.25,0],"min":[0,0,-300.57427978515625],"type":"VEC3"},{"bufferView":13,"componentType":5126,"count":40,"type":"VEC3"},{"bufferView":14,"componentType":5126,"count":40,"type":"VEC2"},{"bufferView":15,"componentType":5123,"count":96,"type":"SCALAR"}],"bufferViews":[{"buffer":0,"byteLength":96,"byteOffset":0,"target":34962},{"buffer":0,"byteLength":96,"byteOffset":96,"target":34962},{"buffer":0,"byteLength":64,"byteOffset":192,"target":34962},{"buffer":0,"byteLength":24,"byteOffset":256,"target":34963},{"buffer":0,"byteLength":76560,"byteOffset":280,"target":34962},{"buffer":0,"byteLength":76560,"byteOffset":76840,"target":34962},{"buffer":0,"byteLength":51040,"byteOffset":153400,"target":34962},{"buffer":0,"byteLength":21936,"byteOffset":204440,"target":34963},{"buffer":0,"byteLength":480,"byteOffset":226376,"target":34962},{"buffer":0,"byteLength":480,"byteOffset":226856,"target":34962},{"buffer":0,"byteLength":320,"byteOffset":227336,"target":34962},{"buffer":0,"byteLength":192,"byteOffset":227656,"target":34963},{"buffer":0,"byteLength":480,"byteOffset":227848,"target":34962},{"buffer":0,"byteLength":480,"byteOffset":228328,"target":34962},{"buffer":0,"byteLength":320,"byteOffset":228808,"target":34962},{"buffer":0,"byteLength":192,"byteOffset":229128,"target":34963}],"samplers":[{"magFilter":9729,"minFilter":9987}],"buffers":[{"byteLength":229320,"uri":"dark_SM_Bld_Wall_Window_02.bin"}]}