{"asset":{"generator":"Khronos glTF Blender I/O v4.4.55","version":"2.0"},"extensionsUsed":["EXT_texture_webp"],"extensionsRequired":["EXT_texture_webp"],"scene":0,"scenes":[{"name":"Scene","nodes":[0]}],"nodes":[{"mesh":0,"name":"SM_Env_Vine_10","rotation":[0.7071068286895752,0,0,0.7071068286895752],"scale":[0.009999999776482582,0.009999999776482582,0.009999999776482582]}],"materials":[{"alphaMode":"MASK","doubleSided":true,"name":"Vines","pbrMetallicRoughness":{"baseColorTexture":{"index":0},"metallicFactor":0,"roughnessFactor":0.5527864098548889},"alphaCutoff":0.5}],"meshes":[{"name":"Mesh","primitives":[{"attributes":{"POSITION":0,"NORMAL":1,"TEXCOORD_0":2},"indices":3,"material":0}]}],"textures":[{"extensions":{"EXT_texture_webp":{"source":0}},"sampler":0}],"images":[{"mimeType":"image/webp","name":"Vines_Diffuse","uri":"Vines_Diffuse.webp"}],"accessors":[{"bufferView":0,"componentType":5126,"count":116,"max":[210.9783477783203,16.8919677734375,115.87256622314453],"min":[-119.46389770507812,0.35557666420936584,-118.30526733398438],"type":"VEC3"},{"bufferView":1,"componentType":5126,"count":116,"type":"VEC3"},{"bufferView":2,"componentType":5126,"count":116,"type":"VEC2"},{"bufferView":3,"componentType":5123,"count":366,"type":"SCALAR"}],"bufferViews":[{"buffer":0,"byteLength":1392,"byteOffset":0,"target":34962},{"buffer":0,"byteLength":1392,"byteOffset":1392,"target":34962},{"buffer":0,"byteLength":928,"byteOffset":2784,"target":34962},{"buffer":0,"byteLength":732,"byteOffset":3712,"target":34963}],"samplers":[{"magFilter":9729,"minFilter":9987}],"buffers":[{"byteLength":4444,"uri":"dark_SM_Env_Vine_10.bin"}]}