{
	"asset":{
		"generator":"Khronos glTF Blender I/O v4.4.55",
		"version":"2.0"
	},
	"extensionsUsed":[
		"EXT_texture_webp"
	],
	"extensionsRequired":[
		"EXT_texture_webp"
	],
	"scene":0,
	"scenes":[
		{
			"name":"Scene",
			"nodes":[
				1
			]
		}
	],
	"nodes":[
		{
			"mesh":0,
			"name":"SM_Prop_Cage_Small_01_Gate_01"
		},
		{
			"children":[
				0
			],
			"mesh":1,
			"name":"SM_Prop_Cage_Small_01",
			"rotation":[
				0.7071068286895752,
				0,
				0,
				0.7071068286895752
			],
			"scale":[
				0.009999999776482582,
				0.009999999776482582,
				0.009999999776482582
			]
		}
	],
	"materials":[
		{
			"doubleSided":true,
			"name":"GOTHIC_MAT21",
			"pbrMetallicRoughness":{
				"baseColorTexture":{
					"index":0
				},
				"metallicFactor":0,
				"roughnessFactor":0.5527864098548889
			}
		}
	],
	"meshes":[
		{
			"name":"Mesh.001",
			"primitives":[
				{
					"attributes":{
						"POSITION":0,
						"NORMAL":1,
						"TEXCOORD_0":2
					},
					"indices":3,
					"material":0
				}
			]
		},
		{
			"name":"Mesh",
			"primitives":[
				{
					"attributes":{
						"POSITION":4,
						"NORMAL":5,
						"TEXCOORD_0":6
					},
					"indices":7,
					"material":0
				}
			]
		}
	],
	"textures":[
		{
			"extensions":{
				"EXT_texture_webp":{
					"source":0
				}
			},
			"sampler":0
		}
	],
	"images":[
		{
			"mimeType":"image/webp",
			"name":"PolygonDarkFantasy_Texture_01_A",
			"uri":"PolygonDarkFantasy_Texture_01_A.webp"
		}
	],
	"accessors":[
		{
			"bufferView":0,
			"componentType":5126,
			"count":918,
			"max":[
				58.12206268310547,
				70.21378326416016,
				-6.451483726501465
			],
			"min":[
				-58.57610321044922,
				49.676048278808594,
				-122.35989379882812
			],
			"type":"VEC3"
		},
		{
			"bufferView":1,
			"componentType":5126,
			"count":918,
			"type":"VEC3"
		},
		{
			"bufferView":2,
			"componentType":5126,
			"count":918,
			"type":"VEC2"
		},
		{
			"bufferView":3,
			"componentType":5123,
			"count":1518,
			"type":"SCALAR"
		},
		{
			"bufferView":4,
			"componentType":5126,
			"count":3005,
			"max":[
				62.80513000488281,
				71.10275268554688,
				-4.648229122161865
			],
			"min":[
				-62.80513000488281,
				-71.10275268554688,
				-125.88697814941406
			],
			"type":"VEC3"
		},
		{
			"bufferView":5,
			"componentType":5126,
			"count":3005,
			"type":"VEC3"
		},
		{
			"bufferView":6,
			"componentType":5126,
			"count":3005,
			"type":"VEC2"
		},
		{
			"bufferView":7,
			"componentType":5123,
			"count":4902,
			"type":"SCALAR"
		}
	],
	"bufferViews":[
		{
			"buffer":0,
			"byteLength":11016,
			"byteOffset":0,
			"target":34962
		},
		{
			"buffer":0,
			"byteLength":11016,
			"byteOffset":11016,
			"target":34962
		},
		{
			"buffer":0,
			"byteLength":7344,
			"byteOffset":22032,
			"target":34962
		},
		{
			"buffer":0,
			"byteLength":3036,
			"byteOffset":29376,
			"target":34963
		},
		{
			"buffer":0,
			"byteLength":36060,
			"byteOffset":32412,
			"target":34962
		},
		{
			"buffer":0,
			"byteLength":36060,
			"byteOffset":68472,
			"target":34962
		},
		{
			"buffer":0,
			"byteLength":24040,
			"byteOffset":104532,
			"target":34962
		},
		{
			"buffer":0,
			"byteLength":9804,
			"byteOffset":128572,
			"target":34963
		}
	],
	"samplers":[
		{
			"magFilter":9729,
			"minFilter":9987
		}
	],
	"buffers":[
		{
			"byteLength":138376,
			"uri":"dark_SM_Prop_Cage_Small_01.bin"
		}
	]
}
