{
	"asset":{
		"generator":"Khronos glTF Blender I/O v4.4.55",
		"version":"2.0"
	},
	"extensionsUsed":[
		"EXT_texture_webp"
	],
	"extensionsRequired":[
		"EXT_texture_webp"
	],
	"scene":0,
	"scenes":[
		{
			"name":"Scene",
			"nodes":[
				0
			]
		}
	],
	"nodes":[
		{
			"mesh":0,
			"name":"SM_Prop_Pyre_Stake_01_Burnt_01",
			"rotation":[
				0.7071068286895752,
				0,
				0,
				0.7071068286895752
			],
			"scale":[
				0.009999999776482582,
				0.009999999776482582,
				0.009999999776482582
			]
		}
	],
	"materials":[
		{
			"doubleSided":true,
			"name":"Gothicc1",
			"pbrMetallicRoughness":{
				"baseColorTexture":{
					"index":0
				},
				"metallicFactor":0,
				"roughnessFactor":0.5527864098548889
			}
		}
	],
	"meshes":[
		{
			"name":"Mesh",
			"primitives":[
				{
					"attributes":{
						"POSITION":0,
						"NORMAL":1,
						"TEXCOORD_0":2
					},
					"indices":3,
					"material":0
				}
			]
		}
	],
	"textures":[
		{
			"extensions":{
				"EXT_texture_webp":{
					"source":0
				}
			},
			"sampler":0
		}
	],
	"images":[
		{
			"mimeType":"image/webp",
			"name":"PolygonDarkFantasy_Texture_01_A",
			"uri":"PolygonDarkFantasy_Texture_01_A.webp"
		}
	],
	"accessors":[
		{
			"bufferView":0,
			"componentType":5126,
			"count":6253,
			"max":[
				190.89715576171875,
				40.4921875,
				25.016983032226562
			],
			"min":[
				-167.66958618164062,
				-89.67874908447266,
				-491.6898193359375
			],
			"type":"VEC3"
		},
		{
			"bufferView":1,
			"componentType":5126,
			"count":6253,
			"type":"VEC3"
		},
		{
			"bufferView":2,
			"componentType":5126,
			"count":6253,
			"type":"VEC2"
		},
		{
			"bufferView":3,
			"componentType":5123,
			"count":9483,
			"type":"SCALAR"
		}
	],
	"bufferViews":[
		{
			"buffer":0,
			"byteLength":75036,
			"byteOffset":0,
			"target":34962
		},
		{
			"buffer":0,
			"byteLength":75036,
			"byteOffset":75036,
			"target":34962
		},
		{
			"buffer":0,
			"byteLength":50024,
			"byteOffset":150072,
			"target":34962
		},
		{
			"buffer":0,
			"byteLength":18966,
			"byteOffset":200096,
			"target":34963
		}
	],
	"samplers":[
		{
			"magFilter":9729,
			"minFilter":9987
		}
	],
	"buffers":[
		{
			"byteLength":219064,
			"uri":"dark_SM_Prop_Pyre_Stake_01_Burnt_01.bin"
		}
	]
}
