{"asset":{"generator":"Khronos glTF Blender I/O v4.4.55","version":"2.0"},"extensionsUsed":["EXT_texture_webp","KHR_texture_transform"],"extensionsRequired":["EXT_texture_webp","KHR_texture_transform"],"scene":0,"scenes":[{"name":"Scene","nodes":[0]}],"nodes":[{"mesh":0,"name":"SM_Bld_Partition_01","rotation":[0.7071068286895752,0,0,0.7071068286895752],"scale":[0.009999999776482582,0.009999999776482582,0.009999999776482582]}],"materials":[{"doubleSided":true,"name":"Gothic","pbrMetallicRoughness":{"baseColorTexture":{"index":2},"metallicFactor":0,"roughnessFactor":0.5527864098548889}},{"alphaMode":"MASK","doubleSided":true,"name":"lambert1947","pbrMetallicRoughness":{"baseColorTexture":{"extensions":{"KHR_texture_transform":{"scale":[4,1]}},"index":3},"metallicFactor":0,"roughnessFactor":0.5527864098548889},"alphaCutoff":0.5}],"meshes":[{"name":"Mesh","primitives":[{"attributes":{"POSITION":0,"NORMAL":1,"TEXCOORD_0":2},"indices":3,"material":0},{"attributes":{"POSITION":4,"NORMAL":5,"TEXCOORD_0":6},"indices":7,"material":1}]}],"textures":[{"extensions":{},"sampler":0},{"extensions":{},"sampler":0},{"extensions":{"EXT_texture_webp":{"source":0}},"sampler":0},{"extensions":{"EXT_texture_webp":{"source":1}},"sampler":0}],"images":[{"mimeType":"image/webp","name":"PolygonDarkFantasy_Emissive_04_A","uri":"PolygonDarkFantasy_Emissive_04_A.webp"},{"mimeType":"image/webp","name":"DividerPattern_01","uri":"DividerPattern_01.webp"}],"accessors":[{"bufferView":0,"componentType":5126,"count":4554,"max":[250.3528594970703,7.959457874298096,0],"min":[-0.000702129676938057,-7.959457874298096,-258.0348205566406],"type":"VEC3"},{"bufferView":1,"componentType":5126,"count":4554,"type":"VEC3"},{"bufferView":2,"componentType":5126,"count":4554,"type":"VEC2"},{"bufferView":3,"componentType":5123,"count":6978,"type":"SCALAR"},{"bufferView":4,"componentType":5126,"count":8,"max":[247.4047393798828,0.5846751928329468,-216.43394470214844],"min":[2.3429811000823975,-0.5846753120422363,-246.01400756835938],"type":"VEC3"},{"bufferView":5,"componentType":5126,"count":8,"type":"VEC3"},{"bufferView":6,"componentType":5126,"count":8,"type":"VEC2"},{"bufferView":7,"componentType":5123,"count":12,"type":"SCALAR"}],"bufferViews":[{"buffer":0,"byteLength":54648,"byteOffset":0,"target":34962},{"buffer":0,"byteLength":54648,"byteOffset":54648,"target":34962},{"buffer":0,"byteLength":36432,"byteOffset":109296,"target":34962},{"buffer":0,"byteLength":13956,"byteOffset":145728,"target":34963},{"buffer":0,"byteLength":96,"byteOffset":159684,"target":34962},{"buffer":0,"byteLength":96,"byteOffset":159780,"target":34962},{"buffer":0,"byteLength":64,"byteOffset":159876,"target":34962},{"buffer":0,"byteLength":24,"byteOffset":159940,"target":34963}],"samplers":[{"magFilter":9729,"minFilter":9987}],"buffers":[{"byteLength":159964,"uri":"dark_SM_Bld_Partition_01.bin"}]}