{"asset":{"generator":"Khronos glTF Blender I/O v4.4.55","version":"2.0"},"extensionsUsed":["EXT_texture_webp"],"extensionsRequired":["EXT_texture_webp"],"scene":0,"scenes":[{"name":"Scene","nodes":[1]}],"nodes":[{"mesh":0,"name":"SM_Bld_Base_Wall_Window_01_Glass"},{"children":[0],"mesh":1,"name":"SM_Bld_Base_Wall_Window_01","rotation":[0.7071068286895752,0,0,0.7071068286895752],"scale":[0.009999999776482582,0.009999999776482582,0.009999999776482582]}],"materials":[{"alphaMode":"MASK","doubleSided":true,"name":"GlassSHD","pbrMetallicRoughness":{"baseColorFactor":[1,1,1,0.3612903356552124],"baseColorTexture":{"index":0},"metallicFactor":0,"roughnessFactor":0.5527864098548889},"alphaCutoff":0.5},{"doubleSided":true,"name":"HorrorSHD4","pbrMetallicRoughness":{"baseColorTexture":{"index":1},"metallicFactor":0,"roughnessFactor":0.5527864098548889}},{"doubleSided":true,"name":"lambert57","pbrMetallicRoughness":{"baseColorTexture":{"index":2},"metallicFactor":0,"roughnessFactor":0.5527864098548889}},{"doubleSided":true,"name":"A_Wall22","pbrMetallicRoughness":{"baseColorTexture":{"index":3},"metallicFactor":0,"roughnessFactor":0.5527864098548889}}],"meshes":[{"name":"Mesh.001","primitives":[{"attributes":{"POSITION":0,"NORMAL":1,"TEXCOORD_0":2},"indices":3,"material":0}]},{"name":"Mesh","primitives":[{"attributes":{"POSITION":4,"NORMAL":5,"TEXCOORD_0":6},"indices":7,"material":1},{"attributes":{"POSITION":8,"NORMAL":9,"TEXCOORD_0":10},"indices":11,"material":2},{"attributes":{"POSITION":12,"NORMAL":13,"TEXCOORD_0":14},"indices":15,"material":3}]}],"textures":[{"extensions":{"EXT_texture_webp":{"source":0}},"sampler":0},{"extensions":{"EXT_texture_webp":{"source":0}},"sampler":0},{"extensions":{"EXT_texture_webp":{"source":0}},"sampler":0},{"extensions":{"EXT_texture_webp":{"source":1}},"sampler":0}],"images":[{"mimeType":"image/webp","name":"PolygonDarkFantasy_Texture_01_A","uri":"PolygonDarkFantasy_Texture_01_A.webp"},{"mimeType":"image/webp","name":"Brick_Small_02","uri":"Brick_Small_02.webp"}],"accessors":[{"bufferView":0,"componentType":5126,"count":8,"max":[183.75201416015625,0,-68.00249481201172],"min":[66.24798583984375,0,-197.2561492919922],"type":"VEC3"},{"bufferView":1,"componentType":5126,"count":8,"type":"VEC3"},{"bufferView":2,"componentType":5126,"count":8,"type":"VEC2"},{"bufferView":3,"componentType":5123,"count":12,"type":"SCALAR"},{"bufferView":4,"componentType":5126,"count":72,"max":[188.87933349609375,12.78057861328125,-63.13566589355469],"min":[61.12066650390625,-12.78057861328125,-202.9008026123047],"type":"VEC3"},{"bufferView":5,"componentType":5126,"count":72,"type":"VEC3"},{"bufferView":6,"componentType":5126,"count":72,"type":"VEC2"},{"bufferView":7,"componentType":5123,"count":144,"type":"SCALAR"},{"bufferView":8,"componentType":5126,"count":24,"max":[249.999267578125,0,0],"min":[0,-11.249908447265625,-300.57427978515625],"type":"VEC3"},{"bufferView":9,"componentType":5126,"count":24,"type":"VEC3"},{"bufferView":10,"componentType":5126,"count":24,"type":"VEC2"},{"bufferView":11,"componentType":5123,"count":48,"type":"SCALAR"},{"bufferView":12,"componentType":5126,"count":24,"max":[249.999267578125,11.249908447265625,0],"min":[0,0,-300.57427978515625],"type":"VEC3"},{"bufferView":13,"componentType":5126,"count":24,"type":"VEC3"},{"bufferView":14,"componentType":5126,"count":24,"type":"VEC2"},{"bufferView":15,"componentType":5123,"count":48,"type":"SCALAR"}],"bufferViews":[{"buffer":0,"byteLength":96,"byteOffset":0,"target":34962},{"buffer":0,"byteLength":96,"byteOffset":96,"target":34962},{"buffer":0,"byteLength":64,"byteOffset":192,"target":34962},{"buffer":0,"byteLength":24,"byteOffset":256,"target":34963},{"buffer":0,"byteLength":864,"byteOffset":280,"target":34962},{"buffer":0,"byteLength":864,"byteOffset":1144,"target":34962},{"buffer":0,"byteLength":576,"byteOffset":2008,"target":34962},{"buffer":0,"byteLength":288,"byteOffset":2584,"target":34963},{"buffer":0,"byteLength":288,"byteOffset":2872,"target":34962},{"buffer":0,"byteLength":288,"byteOffset":3160,"target":34962},{"buffer":0,"byteLength":192,"byteOffset":3448,"target":34962},{"buffer":0,"byteLength":96,"byteOffset":3640,"target":34963},{"buffer":0,"byteLength":288,"byteOffset":3736,"target":34962},{"buffer":0,"byteLength":288,"byteOffset":4024,"target":34962},{"buffer":0,"byteLength":192,"byteOffset":4312,"target":34962},{"buffer":0,"byteLength":96,"byteOffset":4504,"target":34963}],"samplers":[{"magFilter":9729,"minFilter":9987}],"buffers":[{"byteLength":4600,"uri":"dark_SM_Bld_Base_Wall_Window_01.bin"}]}