{"asset":{"generator":"Khronos glTF Blender I/O v4.4.55","version":"2.0"},"extensionsUsed":["EXT_texture_webp"],"extensionsRequired":["EXT_texture_webp"],"scene":0,"scenes":[{"name":"Scene","nodes":[1]}],"nodes":[{"mesh":0,"name":"SM_Bld_Wall_Window_Tall_Double_03_Glass_01"},{"children":[0],"mesh":1,"name":"SM_Bld_Wall_Window_Tall_Double_03","rotation":[0.7071068286895752,0,0,0.7071068286895752],"scale":[0.009999999776482582,0.009999999776482582,0.009999999776482582]}],"materials":[{"alphaMode":"MASK","doubleSided":true,"name":"Glass_MAT","pbrMetallicRoughness":{"baseColorFactor":[1,1,1,0.3095238208770752],"baseColorTexture":{"index":0},"metallicFactor":0,"roughnessFactor":0.5527864098548889},"alphaCutoff":0.5},{"doubleSided":true,"name":"lambert3","pbrMetallicRoughness":{"baseColorTexture":{"index":1},"metallicFactor":0,"roughnessFactor":0.5527864098548889}},{"doubleSided":true,"name":"A_Wall01","pbrMetallicRoughness":{"baseColorTexture":{"index":2},"metallicFactor":0,"roughnessFactor":0.5527864098548889}},{"doubleSided":true,"name":"MAT_01A","pbrMetallicRoughness":{"baseColorTexture":{"index":5},"metallicFactor":0,"roughnessFactor":0.5527864098548889}}],"meshes":[{"name":"Mesh.001","primitives":[{"attributes":{"POSITION":0,"NORMAL":1,"TEXCOORD_0":2},"indices":3,"material":0}]},{"name":"Mesh","primitives":[{"attributes":{"POSITION":4,"NORMAL":5,"TEXCOORD_0":6},"indices":7,"material":1},{"attributes":{"POSITION":8,"NORMAL":9,"TEXCOORD_0":10},"indices":11,"material":2},{"attributes":{"POSITION":12,"NORMAL":13,"TEXCOORD_0":14},"indices":15,"material":3}]}],"textures":[{"extensions":{"EXT_texture_webp":{"source":0}},"sampler":0},{"extensions":{"EXT_texture_webp":{"source":0}},"sampler":0},{"extensions":{"EXT_texture_webp":{"source":0}},"sampler":0},{"extensions":{},"sampler":0},{"extensions":{},"sampler":0},{"extensions":{"EXT_texture_webp":{"source":1}},"sampler":0}],"images":[{"mimeType":"image/webp","name":"PolygonDarkFantasy_Texture_01_A","uri":"PolygonDarkFantasy_Texture_01_A.webp"},{"mimeType":"image/webp","name":"PolygonDarkFantasy_Emissive_04_A","uri":"PolygonDarkFantasy_Emissive_04_A.webp"}],"accessors":[{"bufferView":0,"componentType":5126,"count":8,"max":[229.906982421875,2.9533863067626953,-51.63285827636719],"min":[20.0921630859375,-2.9533867835998535,-530.9497680664062],"type":"VEC3"},{"bufferView":1,"componentType":5126,"count":8,"type":"VEC3"},{"bufferView":2,"componentType":5126,"count":8,"type":"VEC2"},{"bufferView":3,"componentType":5123,"count":12,"type":"SCALAR"},{"bufferView":4,"componentType":5126,"count":44,"max":[249.9991455078125,0,0],"min":[0,-11.25,-600.5740966796875],"type":"VEC3"},{"bufferView":5,"componentType":5126,"count":44,"type":"VEC3"},{"bufferView":6,"componentType":5126,"count":44,"type":"VEC2"},{"bufferView":7,"componentType":5123,"count":114,"type":"SCALAR"},{"bufferView":8,"componentType":5126,"count":44,"max":[249.9991455078125,11.25,0],"min":[0,0,-600.5740966796875],"type":"VEC3"},{"bufferView":9,"componentType":5126,"count":44,"type":"VEC3"},{"bufferView":10,"componentType":5126,"count":44,"type":"VEC2"},{"bufferView":11,"componentType":5123,"count":114,"type":"SCALAR"},{"bufferView":12,"componentType":5126,"count":1956,"max":[245.94192504882812,43.4671745300293,-27.92889404296875],"min":[3.2940468788146973,-15.889010429382324,-575.8802490234375],"type":"VEC3"},{"bufferView":13,"componentType":5126,"count":1956,"type":"VEC3"},{"bufferView":14,"componentType":5126,"count":1956,"type":"VEC2"},{"bufferView":15,"componentType":5123,"count":2964,"type":"SCALAR"}],"bufferViews":[{"buffer":0,"byteLength":96,"byteOffset":0,"target":34962},{"buffer":0,"byteLength":96,"byteOffset":96,"target":34962},{"buffer":0,"byteLength":64,"byteOffset":192,"target":34962},{"buffer":0,"byteLength":24,"byteOffset":256,"target":34963},{"buffer":0,"byteLength":528,"byteOffset":280,"target":34962},{"buffer":0,"byteLength":528,"byteOffset":808,"target":34962},{"buffer":0,"byteLength":352,"byteOffset":1336,"target":34962},{"buffer":0,"byteLength":228,"byteOffset":1688,"target":34963},{"buffer":0,"byteLength":528,"byteOffset":1916,"target":34962},{"buffer":0,"byteLength":528,"byteOffset":2444,"target":34962},{"buffer":0,"byteLength":352,"byteOffset":2972,"target":34962},{"buffer":0,"byteLength":228,"byteOffset":3324,"target":34963},{"buffer":0,"byteLength":23472,"byteOffset":3552,"target":34962},{"buffer":0,"byteLength":23472,"byteOffset":27024,"target":34962},{"buffer":0,"byteLength":15648,"byteOffset":50496,"target":34962},{"buffer":0,"byteLength":5928,"byteOffset":66144,"target":34963}],"samplers":[{"magFilter":9729,"minFilter":9987}],"buffers":[{"byteLength":72072,"uri":"dark_SM_Bld_Wall_Window_Tall_Double_03.bin"}]}