{"asset":{"generator":"Khronos glTF Blender I/O v4.4.55","version":"2.0"},"extensionsUsed":["EXT_texture_webp"],"extensionsRequired":["EXT_texture_webp"],"scene":0,"scenes":[{"name":"Scene","nodes":[0]}],"nodes":[{"mesh":0,"name":"SM_Bld_Bridge_Base_01","rotation":[0.7071068286895752,0,0,0.7071068286895752],"scale":[0.009999999776482582,0.009999999776482582,0.009999999776482582]}],"materials":[{"doubleSided":true,"name":"Concrete","pbrMetallicRoughness":{"baseColorTexture":{"index":0},"metallicFactor":0,"roughnessFactor":0.5527864098548889}},{"doubleSided":true,"emissiveFactor":[1,1,1],"name":"MAT_01A1","pbrMetallicRoughness":{"baseColorTexture":{"index":3},"metallicFactor":0,"roughnessFactor":0.5527864098548889}},{"doubleSided":true,"name":"A_Wall","pbrMetallicRoughness":{"baseColorTexture":{"index":4},"metallicFactor":0,"roughnessFactor":0.5527864098548889}},{"doubleSided":true,"name":"Brick_Small","pbrMetallicRoughness":{"baseColorTexture":{"index":5},"metallicFactor":0,"roughnessFactor":0.5527864098548889}},{"doubleSided":true,"name":"lambert2","pbrMetallicRoughness":{"baseColorTexture":{"index":6},"metallicFactor":0,"roughnessFactor":0.5527864098548889}}],"meshes":[{"name":"Mesh","primitives":[{"attributes":{"POSITION":0,"NORMAL":1,"TEXCOORD_0":2,"TEXCOORD_1":3},"indices":4,"material":0},{"attributes":{"POSITION":5,"NORMAL":6,"TEXCOORD_0":7,"TEXCOORD_1":8},"indices":9,"material":1},{"attributes":{"POSITION":10,"NORMAL":11,"TEXCOORD_0":12,"TEXCOORD_1":13},"indices":14,"material":2},{"attributes":{"POSITION":15,"NORMAL":16,"TEXCOORD_0":17,"TEXCOORD_1":18},"indices":19,"material":3},{"attributes":{"POSITION":20,"NORMAL":21,"TEXCOORD_0":22,"TEXCOORD_1":23},"indices":24,"material":4}]}],"textures":[{"extensions":{"EXT_texture_webp":{"source":0}},"sampler":0},{"extensions":{},"sampler":0},{"extensions":{},"sampler":0},{"extensions":{"EXT_texture_webp":{"source":1}},"sampler":0},{"extensions":{"EXT_texture_webp":{"source":0}},"sampler":0},{"extensions":{"EXT_texture_webp":{"source":2}},"sampler":0},{"extensions":{"EXT_texture_webp":{"source":0}},"sampler":0}],"images":[{"mimeType":"image/webp","name":"PolygonDarkFantasy_Texture_01_A","uri":"PolygonDarkFantasy_Texture_01_A.webp"},{"mimeType":"image/webp","name":"PolygonDarkFantasy_Emissive_04_A","uri":"PolygonDarkFantasy_Emissive_04_A.webp"},{"mimeType":"image/webp","name":"Brick_Small_01","uri":"Brick_Small_01.webp"}],"accessors":[{"bufferView":0,"componentType":5126,"count":3660,"max":[1000,256.82666015625,1550.0078125],"min":[-1.2096799256733348e-12,-753.361328125,-101.41168212890625],"type":"VEC3"},{"bufferView":1,"componentType":5126,"count":3660,"type":"VEC3"},{"bufferView":2,"componentType":5126,"count":3660,"type":"VEC2"},{"bufferView":3,"componentType":5126,"count":3660,"type":"VEC2"},{"bufferView":4,"componentType":5123,"count":5586,"type":"SCALAR"},{"bufferView":5,"componentType":5126,"count":1766,"max":[1001.08984375,346.88385009765625,1750.00048828125],"min":[-1.08984375,-842.735107421875,-108.47270965576172],"type":"VEC3"},{"bufferView":6,"componentType":5126,"count":1766,"type":"VEC3"},{"bufferView":7,"componentType":5126,"count":1766,"type":"VEC2"},{"bufferView":8,"componentType":5126,"count":1766,"type":"VEC2"},{"bufferView":9,"componentType":5123,"count":2652,"type":"SCALAR"},{"bufferView":10,"componentType":5126,"count":28,"max":[1000,0,5.351480045369785e-16],"min":[-1.1331055451563321e-12,-499.9990234375,-0.00018163025379180908],"type":"VEC3"},{"bufferView":11,"componentType":5126,"count":28,"type":"VEC3"},{"bufferView":12,"componentType":5126,"count":28,"type":"VEC2"},{"bufferView":13,"componentType":5126,"count":28,"type":"VEC2"},{"bufferView":14,"componentType":5123,"count":48,"type":"SCALAR"},{"bufferView":15,"componentType":5126,"count":44,"max":[1000,-5.665000261424746e-13,348.0886535644531],"min":[-1.1331039188530734e-12,-499.998291015625,29.8518009185791],"type":"VEC3"},{"bufferView":16,"componentType":5126,"count":44,"type":"VEC3"},{"bufferView":17,"componentType":5126,"count":44,"type":"VEC2"},{"bufferView":18,"componentType":5126,"count":44,"type":"VEC2"},{"bufferView":19,"componentType":5123,"count":96,"type":"SCALAR"},{"bufferView":20,"componentType":5126,"count":3,"max":[600,22.1414794921875,348.0886535644531],"min":[558.82666015625,-1.1331091230235013e-12,347.7013244628906],"type":"VEC3"},{"bufferView":21,"componentType":5126,"count":3,"type":"VEC3"},{"bufferView":22,"componentType":5126,"count":3,"type":"VEC2"},{"bufferView":23,"componentType":5126,"count":3,"type":"VEC2"},{"bufferView":24,"componentType":5123,"count":3,"type":"SCALAR"}],"bufferViews":[{"buffer":0,"byteLength":43920,"byteOffset":0,"target":34962},{"buffer":0,"byteLength":43920,"byteOffset":43920,"target":34962},{"buffer":0,"byteLength":29280,"byteOffset":87840,"target":34962},{"buffer":0,"byteLength":29280,"byteOffset":117120,"target":34962},{"buffer":0,"byteLength":11172,"byteOffset":146400,"target":34963},{"buffer":0,"byteLength":21192,"byteOffset":157572,"target":34962},{"buffer":0,"byteLength":21192,"byteOffset":178764,"target":34962},{"buffer":0,"byteLength":14128,"byteOffset":199956,"target":34962},{"buffer":0,"byteLength":14128,"byteOffset":214084,"target":34962},{"buffer":0,"byteLength":5304,"byteOffset":228212,"target":34963},{"buffer":0,"byteLength":336,"byteOffset":233516,"target":34962},{"buffer":0,"byteLength":336,"byteOffset":233852,"target":34962},{"buffer":0,"byteLength":224,"byteOffset":234188,"target":34962},{"buffer":0,"byteLength":224,"byteOffset":234412,"target":34962},{"buffer":0,"byteLength":96,"byteOffset":234636,"target":34963},{"buffer":0,"byteLength":528,"byteOffset":234732,"target":34962},{"buffer":0,"byteLength":528,"byteOffset":235260,"target":34962},{"buffer":0,"byteLength":352,"byteOffset":235788,"target":34962},{"buffer":0,"byteLength":352,"byteOffset":236140,"target":34962},{"buffer":0,"byteLength":192,"byteOffset":236492,"target":34963},{"buffer":0,"byteLength":36,"byteOffset":236684,"target":34962},{"buffer":0,"byteLength":36,"byteOffset":236720,"target":34962},{"buffer":0,"byteLength":24,"byteOffset":236756,"target":34962},{"buffer":0,"byteLength":24,"byteOffset":236780,"target":34962},{"buffer":0,"byteLength":6,"byteOffset":236804,"target":34963}],"samplers":[{"magFilter":9729,"minFilter":9987}],"buffers":[{"byteLength":236812,"uri":"dark_SM_Bld_Bridge_Base_01.bin"}]}