{"asset":{"generator":"Khronos glTF Blender I/O v4.4.55","version":"2.0"},"extensionsUsed":["EXT_texture_webp"],"extensionsRequired":["EXT_texture_webp"],"scene":0,"scenes":[{"name":"Scene","nodes":[0]}],"nodes":[{"mesh":0,"name":"SM_Bld_Bridge_Railing_01_Damaged_01","rotation":[0.7071068286895752,0,0,0.7071068286895752],"scale":[0.009999999776482582,0.009999999776482582,0.009999999776482582]}],"materials":[{"doubleSided":true,"name":"MAT_01A8","pbrMetallicRoughness":{"baseColorTexture":{"index":2},"metallicFactor":0,"roughnessFactor":0.5527864098548889}}],"meshes":[{"name":"Mesh","primitives":[{"attributes":{"POSITION":0,"NORMAL":1,"TEXCOORD_0":2,"TEXCOORD_1":3},"indices":4,"material":0}]}],"textures":[{"extensions":{},"sampler":0},{"extensions":{},"sampler":0},{"extensions":{"EXT_texture_webp":{"source":0}},"sampler":0}],"images":[{"mimeType":"image/webp","name":"PolygonDarkFantasy_Emissive_04_A","uri":"PolygonDarkFantasy_Emissive_04_A.webp"}],"accessors":[{"bufferView":0,"componentType":5126,"count":630,"max":[250.000244140625,23.200927734375,99.95695495605469],"min":[-7.034357905194577e-14,-55.7080078125,-63.78895568847656],"type":"VEC3"},{"bufferView":1,"componentType":5126,"count":630,"type":"VEC3"},{"bufferView":2,"componentType":5126,"count":630,"type":"VEC2"},{"bufferView":3,"componentType":5126,"count":630,"type":"VEC2"},{"bufferView":4,"componentType":5123,"count":852,"type":"SCALAR"}],"bufferViews":[{"buffer":0,"byteLength":7560,"byteOffset":0,"target":34962},{"buffer":0,"byteLength":7560,"byteOffset":7560,"target":34962},{"buffer":0,"byteLength":5040,"byteOffset":15120,"target":34962},{"buffer":0,"byteLength":5040,"byteOffset":20160,"target":34962},{"buffer":0,"byteLength":1704,"byteOffset":25200,"target":34963}],"samplers":[{"magFilter":9729,"minFilter":9987}],"buffers":[{"byteLength":26904,"uri":"dark_SM_Bld_Bridge_Railing_01_Damaged_01.bin"}]}