{"asset":{"generator":"Khronos glTF Blender I/O v4.4.55","version":"2.0"},"extensionsUsed":["EXT_texture_webp"],"extensionsRequired":["EXT_texture_webp"],"scene":0,"scenes":[{"name":"Scene","nodes":[0]}],"nodes":[{"mesh":0,"name":"SM_Prop_Candle_05","rotation":[0.7071068286895752,0,0,0.7071068286895752],"scale":[0.009999999776482582,0.009999999776482582,0.009999999776482582]}],"materials":[{"doubleSided":true,"name":"Gothic","pbrMetallicRoughness":{"baseColorTexture":{"index":2},"metallicFactor":0,"roughnessFactor":0.5527864098548889}}],"meshes":[{"name":"Mesh","primitives":[{"attributes":{"POSITION":0,"NORMAL":1,"TEXCOORD_0":2,"TEXCOORD_1":3},"indices":4,"material":0}]}],"textures":[{"extensions":{},"sampler":0},{"extensions":{},"sampler":0},{"extensions":{"EXT_texture_webp":{"source":0}},"sampler":0}],"images":[{"mimeType":"image/webp","name":"PolygonDarkFantasy_Emissive_04_A","uri":"PolygonDarkFantasy_Emissive_04_A.webp"}],"accessors":[{"bufferView":0,"componentType":5126,"count":479,"max":[5.4633941650390625,5.982994556427002,2.077510118484497],"min":[-5.463393211364746,-5.982994079589844,-32.658348083496094],"type":"VEC3"},{"bufferView":1,"componentType":5126,"count":479,"type":"VEC3"},{"bufferView":2,"componentType":5126,"count":479,"type":"VEC2"},{"bufferView":3,"componentType":5126,"count":479,"type":"VEC2"},{"bufferView":4,"componentType":5123,"count":666,"type":"SCALAR"}],"bufferViews":[{"buffer":0,"byteLength":5748,"byteOffset":0,"target":34962},{"buffer":0,"byteLength":5748,"byteOffset":5748,"target":34962},{"buffer":0,"byteLength":3832,"byteOffset":11496,"target":34962},{"buffer":0,"byteLength":3832,"byteOffset":15328,"target":34962},{"buffer":0,"byteLength":1332,"byteOffset":19160,"target":34963}],"samplers":[{"magFilter":9729,"minFilter":9987}],"buffers":[{"byteLength":20492,"uri":"dark_SM_Prop_Candle_05.bin"}]}