{"asset":{"generator":"Khronos glTF Blender I/O v4.4.55","version":"2.0"},"extensionsUsed":["EXT_texture_webp"],"extensionsRequired":["EXT_texture_webp"],"scene":0,"scenes":[{"name":"Scene","nodes":[0]}],"nodes":[{"mesh":0,"name":"SM_Prop_Gibbet_01","rotation":[0.7071068286895752,0,0,0.7071068286895752],"scale":[0.009999999776482582,0.009999999776482582,0.009999999776482582]}],"materials":[{"doubleSided":true,"name":"Gothic2","pbrMetallicRoughness":{"baseColorTexture":{"index":2},"metallicFactor":0,"roughnessFactor":0.5527864098548889}}],"meshes":[{"name":"Mesh","primitives":[{"attributes":{"POSITION":0,"NORMAL":1,"TEXCOORD_0":2},"indices":3,"material":0}]}],"textures":[{"extensions":{},"sampler":0},{"extensions":{},"sampler":0},{"extensions":{"EXT_texture_webp":{"source":0}},"sampler":0}],"images":[{"mimeType":"image/webp","name":"PolygonDarkFantasy_Emissive_04_A","uri":"PolygonDarkFantasy_Emissive_04_A.webp"}],"accessors":[{"bufferView":0,"componentType":5126,"count":1505,"max":[182.20718383789062,159.24459838867188,1.5193729400634766],"min":[-151.44073486328125,-161.947021484375,-479.31561279296875],"type":"VEC3"},{"bufferView":1,"componentType":5126,"count":1505,"type":"VEC3"},{"bufferView":2,"componentType":5126,"count":1505,"type":"VEC2"},{"bufferView":3,"componentType":5123,"count":2250,"type":"SCALAR"}],"bufferViews":[{"buffer":0,"byteLength":18060,"byteOffset":0,"target":34962},{"buffer":0,"byteLength":18060,"byteOffset":18060,"target":34962},{"buffer":0,"byteLength":12040,"byteOffset":36120,"target":34962},{"buffer":0,"byteLength":4500,"byteOffset":48160,"target":34963}],"samplers":[{"magFilter":9729,"minFilter":9987}],"buffers":[{"byteLength":52660,"uri":"dark_SM_Prop_Gibbet_01.bin"}]}