{"asset":{"generator":"Khronos glTF Blender I/O v4.4.55","version":"2.0"},"extensionsUsed":["EXT_texture_webp"],"extensionsRequired":["EXT_texture_webp"],"scene":0,"scenes":[{"name":"Scene","nodes":[0]}],"nodes":[{"mesh":0,"name":"SM_Prop_Chair_01_Damaged_01","rotation":[0.7071068286895752,0,0,0.7071068286895752],"scale":[0.009999999776482582,0.009999999776482582,0.009999999776482582]}],"materials":[{"doubleSided":true,"name":"Gothic","pbrMetallicRoughness":{"baseColorTexture":{"index":2},"metallicFactor":0,"roughnessFactor":0.5527864098548889}}],"meshes":[{"name":"Mesh","primitives":[{"attributes":{"POSITION":0,"NORMAL":1,"TEXCOORD_0":2,"TEXCOORD_1":3},"indices":4,"material":0}]}],"textures":[{"extensions":{},"sampler":0},{"extensions":{},"sampler":0},{"extensions":{"EXT_texture_webp":{"source":0}},"sampler":0}],"images":[{"mimeType":"image/webp","name":"PolygonDarkFantasy_Emissive_04_A","uri":"PolygonDarkFantasy_Emissive_04_A.webp"}],"accessors":[{"bufferView":0,"componentType":5126,"count":1552,"max":[57.26372528076172,42.6827507019043,3.4892919063568115],"min":[-57.26372528076172,-42.6827507019043,-98.0444107055664],"type":"VEC3"},{"bufferView":1,"componentType":5126,"count":1552,"type":"VEC3"},{"bufferView":2,"componentType":5126,"count":1552,"type":"VEC2"},{"bufferView":3,"componentType":5126,"count":1552,"type":"VEC2"},{"bufferView":4,"componentType":5123,"count":2328,"type":"SCALAR"}],"bufferViews":[{"buffer":0,"byteLength":18624,"byteOffset":0,"target":34962},{"buffer":0,"byteLength":18624,"byteOffset":18624,"target":34962},{"buffer":0,"byteLength":12416,"byteOffset":37248,"target":34962},{"buffer":0,"byteLength":12416,"byteOffset":49664,"target":34962},{"buffer":0,"byteLength":4656,"byteOffset":62080,"target":34963}],"samplers":[{"magFilter":9729,"minFilter":9987}],"buffers":[{"byteLength":66736,"uri":"dark_SM_Prop_Chair_01_Damaged_01.bin"}]}