{"asset":{"generator":"Khronos glTF Blender I/O v4.4.55","version":"2.0"},"extensionsUsed":["EXT_texture_webp"],"extensionsRequired":["EXT_texture_webp"],"scene":0,"scenes":[{"name":"Scene","nodes":[0]}],"nodes":[{"mesh":0,"name":"SM_Env_Cliff_Basalt_01","rotation":[0.7071068286895752,0,0,0.7071068286895752],"scale":[0.009999999776482582,0.009999999776482582,0.009999999776482582]}],"materials":[{"doubleSided":true,"name":"MAT_01A5","pbrMetallicRoughness":{"baseColorTexture":{"index":2},"metallicFactor":0,"roughnessFactor":0.5527864098548889}}],"meshes":[{"name":"Mesh","primitives":[{"attributes":{"POSITION":0,"NORMAL":1,"TEXCOORD_0":2},"indices":3,"material":0}]}],"textures":[{"extensions":{},"sampler":0},{"extensions":{},"sampler":0},{"extensions":{"EXT_texture_webp":{"source":0}},"sampler":0}],"images":[{"mimeType":"image/webp","name":"PolygonDarkFantasy_Emissive_04_A","uri":"PolygonDarkFantasy_Emissive_04_A.webp"}],"accessors":[{"bufferView":0,"componentType":5126,"count":8198,"max":[936.676513671875,359.54925537109375,1.1894333362579346],"min":[-936.4588623046875,-439.5982666015625,-1994.106201171875],"type":"VEC3"},{"bufferView":1,"componentType":5126,"count":8198,"type":"VEC3"},{"bufferView":2,"componentType":5126,"count":8198,"type":"VEC2"},{"bufferView":3,"componentType":5123,"count":8619,"type":"SCALAR"}],"bufferViews":[{"buffer":0,"byteLength":98376,"byteOffset":0,"target":34962},{"buffer":0,"byteLength":98376,"byteOffset":98376,"target":34962},{"buffer":0,"byteLength":65584,"byteOffset":196752,"target":34962},{"buffer":0,"byteLength":17238,"byteOffset":262336,"target":34963}],"samplers":[{"magFilter":9729,"minFilter":9987}],"buffers":[{"byteLength":279576,"uri":"dark_SM_Env_Cliff_Basalt_01.bin"}]}