{"asset":{"generator":"Khronos glTF Blender I/O v4.4.55","version":"2.0"},"extensionsUsed":["EXT_texture_webp"],"extensionsRequired":["EXT_texture_webp"],"scene":0,"scenes":[{"name":"Scene","nodes":[0]}],"nodes":[{"mesh":0,"name":"SM_Bld_Wall_Alcove_02","rotation":[0.7071068286895752,0,0,0.7071068286895752],"scale":[0.009999999776482582,0.009999999776482582,0.009999999776482582]}],"materials":[{"doubleSided":true,"name":"Gothic","pbrMetallicRoughness":{"baseColorTexture":{"index":2},"metallicFactor":0,"roughnessFactor":0.5527864098548889}},{"doubleSided":true,"name":"lambert38","pbrMetallicRoughness":{"baseColorTexture":{"index":3},"metallicFactor":0,"roughnessFactor":0.5527864098548889}},{"doubleSided":true,"name":"A_Wall31","pbrMetallicRoughness":{"baseColorTexture":{"index":4},"metallicFactor":0,"roughnessFactor":0.5527864098548889}}],"meshes":[{"name":"Mesh","primitives":[{"attributes":{"POSITION":0,"NORMAL":1,"TEXCOORD_0":2},"indices":3,"material":0},{"attributes":{"POSITION":4,"NORMAL":5,"TEXCOORD_0":6},"indices":7,"material":1},{"attributes":{"POSITION":8,"NORMAL":9,"TEXCOORD_0":10},"indices":11,"material":2}]}],"textures":[{"extensions":{},"sampler":0},{"extensions":{},"sampler":0},{"extensions":{"EXT_texture_webp":{"source":0}},"sampler":0},{"extensions":{"EXT_texture_webp":{"source":1}},"sampler":0},{"extensions":{"EXT_texture_webp":{"source":1}},"sampler":0}],"images":[{"mimeType":"image/webp","name":"PolygonDarkFantasy_Emissive_04_A","uri":"PolygonDarkFantasy_Emissive_04_A.webp"},{"mimeType":"image/webp","name":"PolygonDarkFantasy_Texture_01_A","uri":"PolygonDarkFantasy_Texture_01_A.webp"}],"accessors":[{"bufferView":0,"componentType":5126,"count":2975,"max":[249.9991455078125,71.19183349609375,1.9073486328125e-06],"min":[0,-56.217098236083984,-299.99981689453125],"type":"VEC3"},{"bufferView":1,"componentType":5126,"count":2975,"type":"VEC3"},{"bufferView":2,"componentType":5126,"count":2975,"type":"VEC2"},{"bufferView":3,"componentType":5123,"count":4608,"type":"SCALAR"},{"bufferView":4,"componentType":5126,"count":26,"max":[249.9991455078125,0,0],"min":[0,-11.249984741210938,-300.57427978515625],"type":"VEC3"},{"bufferView":5,"componentType":5126,"count":26,"type":"VEC3"},{"bufferView":6,"componentType":5126,"count":26,"type":"VEC2"},{"bufferView":7,"componentType":5123,"count":60,"type":"SCALAR"},{"bufferView":8,"componentType":5126,"count":58,"max":[249.9991455078125,11.250000953674316,1.9073486328125e-06],"min":[0,-11.249992370605469,-300.57427978515625],"type":"VEC3"},{"bufferView":9,"componentType":5126,"count":58,"type":"VEC3"},{"bufferView":10,"componentType":5126,"count":58,"type":"VEC2"},{"bufferView":11,"componentType":5123,"count":138,"type":"SCALAR"}],"bufferViews":[{"buffer":0,"byteLength":35700,"byteOffset":0,"target":34962},{"buffer":0,"byteLength":35700,"byteOffset":35700,"target":34962},{"buffer":0,"byteLength":23800,"byteOffset":71400,"target":34962},{"buffer":0,"byteLength":9216,"byteOffset":95200,"target":34963},{"buffer":0,"byteLength":312,"byteOffset":104416,"target":34962},{"buffer":0,"byteLength":312,"byteOffset":104728,"target":34962},{"buffer":0,"byteLength":208,"byteOffset":105040,"target":34962},{"buffer":0,"byteLength":120,"byteOffset":105248,"target":34963},{"buffer":0,"byteLength":696,"byteOffset":105368,"target":34962},{"buffer":0,"byteLength":696,"byteOffset":106064,"target":34962},{"buffer":0,"byteLength":464,"byteOffset":106760,"target":34962},{"buffer":0,"byteLength":276,"byteOffset":107224,"target":34963}],"samplers":[{"magFilter":9729,"minFilter":9987}],"buffers":[{"byteLength":107500,"uri":"dark_SM_Bld_Wall_Alcove_02.bin"}]}