{"asset":{"generator":"Khronos glTF Blender I/O v4.4.55","version":"2.0"},"extensionsUsed":["EXT_texture_webp"],"extensionsRequired":["EXT_texture_webp"],"scene":0,"scenes":[{"name":"Scene","nodes":[0]}],"nodes":[{"mesh":0,"name":"SM_Prop_Papers_01","rotation":[0.7071068286895752,0,0,0.7071068286895752],"scale":[0.009999999776482582,0.009999999776482582,0.009999999776482582]}],"materials":[{"doubleSided":true,"name":"MAT_01A15","pbrMetallicRoughness":{"baseColorTexture":{"index":2},"metallicFactor":0,"roughnessFactor":0.5527864098548889}}],"meshes":[{"name":"Mesh","primitives":[{"attributes":{"POSITION":0,"NORMAL":1,"TEXCOORD_0":2},"indices":3,"material":0}]}],"textures":[{"extensions":{},"sampler":0},{"extensions":{},"sampler":0},{"extensions":{"EXT_texture_webp":{"source":0}},"sampler":0}],"images":[{"mimeType":"image/webp","name":"PolygonDarkFantasy_Emissive_04_A","uri":"PolygonDarkFantasy_Emissive_04_A.webp"}],"accessors":[{"bufferView":0,"componentType":5126,"count":146,"max":[46.5926628112793,44.32085037231445,-0.31339794397354126],"min":[-46.682090759277344,-47.62712478637695,-1.04639732837677],"type":"VEC3"},{"bufferView":1,"componentType":5126,"count":146,"type":"VEC3"},{"bufferView":2,"componentType":5126,"count":146,"type":"VEC2"},{"bufferView":3,"componentType":5123,"count":228,"type":"SCALAR"}],"bufferViews":[{"buffer":0,"byteLength":1752,"byteOffset":0,"target":34962},{"buffer":0,"byteLength":1752,"byteOffset":1752,"target":34962},{"buffer":0,"byteLength":1168,"byteOffset":3504,"target":34962},{"buffer":0,"byteLength":456,"byteOffset":4672,"target":34963}],"samplers":[{"magFilter":9729,"minFilter":9987}],"buffers":[{"byteLength":5128,"uri":"dark_SM_Prop_Papers_01.bin"}]}