{"asset":{"generator":"Khronos glTF Blender I/O v4.4.55","version":"2.0"},"extensionsUsed":["EXT_texture_webp"],"extensionsRequired":["EXT_texture_webp"],"scene":0,"scenes":[{"name":"Scene","nodes":[0]}],"nodes":[{"mesh":0,"name":"SM_Bld_Decoration_01","rotation":[0.7071068286895752,0,0,0.7071068286895752],"scale":[0.009999999776482582,0.009999999776482582,0.009999999776482582]}],"materials":[{"doubleSided":true,"name":"MAT_01A","pbrMetallicRoughness":{"baseColorTexture":{"index":2},"metallicFactor":0,"roughnessFactor":0.5527864098548889}}],"meshes":[{"name":"Mesh","primitives":[{"attributes":{"POSITION":0,"NORMAL":1,"TEXCOORD_0":2},"indices":3,"material":0}]}],"textures":[{"extensions":{},"sampler":0},{"extensions":{},"sampler":0},{"extensions":{"EXT_texture_webp":{"source":0}},"sampler":0}],"images":[{"mimeType":"image/webp","name":"PolygonDarkFantasy_Emissive_04_A","uri":"PolygonDarkFantasy_Emissive_04_A.webp"}],"accessors":[{"bufferView":0,"componentType":5126,"count":2102,"max":[101.3187026977539,101.31871032714844,2.7092156410217285],"min":[-101.3187026977539,-101.3187026977539,-11.503284454345703],"type":"VEC3"},{"bufferView":1,"componentType":5126,"count":2102,"type":"VEC3"},{"bufferView":2,"componentType":5126,"count":2102,"type":"VEC2"},{"bufferView":3,"componentType":5123,"count":4170,"type":"SCALAR"}],"bufferViews":[{"buffer":0,"byteLength":25224,"byteOffset":0,"target":34962},{"buffer":0,"byteLength":25224,"byteOffset":25224,"target":34962},{"buffer":0,"byteLength":16816,"byteOffset":50448,"target":34962},{"buffer":0,"byteLength":8340,"byteOffset":67264,"target":34963}],"samplers":[{"magFilter":9729,"minFilter":9987}],"buffers":[{"byteLength":75604,"uri":"dark_SM_Bld_Decoration_01.bin"}]}