{"asset":{"generator":"Khronos glTF Blender I/O v4.4.55","version":"2.0"},"extensionsUsed":["EXT_texture_webp"],"extensionsRequired":["EXT_texture_webp"],"scene":0,"scenes":[{"name":"Scene","nodes":[0]}],"nodes":[{"mesh":0,"name":"SM_Env_Cliff_Basalt_03","rotation":[0.7071068286895752,0,0,0.7071068286895752],"scale":[0.009999999776482582,0.009999999776482582,0.009999999776482582]}],"materials":[{"doubleSided":true,"name":"MAT_01A7","pbrMetallicRoughness":{"baseColorTexture":{"index":2},"metallicFactor":0,"roughnessFactor":0.5527864098548889}}],"meshes":[{"name":"Mesh","primitives":[{"attributes":{"POSITION":0,"NORMAL":1,"TEXCOORD_0":2},"indices":3,"material":0}]}],"textures":[{"extensions":{},"sampler":0},{"extensions":{},"sampler":0},{"extensions":{"EXT_texture_webp":{"source":0}},"sampler":0}],"images":[{"mimeType":"image/webp","name":"PolygonDarkFantasy_Emissive_04_A","uri":"PolygonDarkFantasy_Emissive_04_A.webp"}],"accessors":[{"bufferView":0,"componentType":5126,"count":7688,"max":[914.8316650390625,354.34869384765625,1.1073417663574219],"min":[-915.6956176757812,-442.345458984375,-2217.16162109375],"type":"VEC3"},{"bufferView":1,"componentType":5126,"count":7688,"type":"VEC3"},{"bufferView":2,"componentType":5126,"count":7688,"type":"VEC2"},{"bufferView":3,"componentType":5123,"count":7914,"type":"SCALAR"}],"bufferViews":[{"buffer":0,"byteLength":92256,"byteOffset":0,"target":34962},{"buffer":0,"byteLength":92256,"byteOffset":92256,"target":34962},{"buffer":0,"byteLength":61504,"byteOffset":184512,"target":34962},{"buffer":0,"byteLength":15828,"byteOffset":246016,"target":34963}],"samplers":[{"magFilter":9729,"minFilter":9987}],"buffers":[{"byteLength":261844,"uri":"dark_SM_Env_Cliff_Basalt_03.bin"}]}