{
	"asset":{
		"generator":"Khronos glTF Blender I/O v4.4.55",
		"version":"2.0"
	},
	"extensionsUsed":[
		"EXT_texture_webp"
	],
	"extensionsRequired":[
		"EXT_texture_webp"
	],
	"scene":0,
	"scenes":[
		{
			"name":"Scene",
			"nodes":[
				2
			]
		}
	],
	"nodes":[
		{
			"mesh":0,
			"name":"SM_Bld_Window_Village_02_Shutter_L"
		},
		{
			"mesh":1,
			"name":"SM_Bld_Window_Village_02_Shutter_R"
		},
		{
			"children":[
				0,
				1
			],
			"mesh":2,
			"name":"SM_Bld_Window_Village_02",
			"rotation":[
				0.7071068286895752,
				0,
				0,
				0.7071068286895752
			],
			"scale":[
				0.009999999776482582,
				0.009999999776482582,
				0.009999999776482582
			]
		}
	],
	"materials":[
		{
			"doubleSided":true,
			"name":"GOTHIC_MAT14",
			"pbrMetallicRoughness":{
				"baseColorTexture":{
					"index":0
				},
				"metallicFactor":0,
				"roughnessFactor":0.5527864098548889
			}
		},
		{
			"doubleSided":true,
			"name":"WALL_2_MAT",
			"pbrMetallicRoughness":{
				"baseColorTexture":{
					"index":1
				},
				"metallicFactor":0,
				"roughnessFactor":0.5527864098548889
			}
		},
		{
			"doubleSided":true,
			"name":"WALL_1_MAT",
			"pbrMetallicRoughness":{
				"baseColorTexture":{
					"index":2
				},
				"metallicFactor":0,
				"roughnessFactor":0.5527864098548889
			}
		}
	],
	"meshes":[
		{
			"name":"Mesh.002",
			"primitives":[
				{
					"attributes":{
						"POSITION":0,
						"NORMAL":1,
						"TEXCOORD_0":2
					},
					"indices":3,
					"material":0
				}
			]
		},
		{
			"name":"Mesh.001",
			"primitives":[
				{
					"attributes":{
						"POSITION":4,
						"NORMAL":5,
						"TEXCOORD_0":6
					},
					"indices":7,
					"material":0
				}
			]
		},
		{
			"name":"Mesh",
			"primitives":[
				{
					"attributes":{
						"POSITION":8,
						"NORMAL":9,
						"TEXCOORD_0":10
					},
					"indices":11,
					"material":1
				},
				{
					"attributes":{
						"POSITION":12,
						"NORMAL":13,
						"TEXCOORD_0":14
					},
					"indices":15,
					"material":2
				},
				{
					"attributes":{
						"POSITION":16,
						"NORMAL":17,
						"TEXCOORD_0":18
					},
					"indices":19,
					"material":0
				}
			]
		}
	],
	"textures":[
		{
			"extensions":{
				"EXT_texture_webp":{
					"source":0
				}
			},
			"sampler":0
		},
		{
			"extensions":{
				"EXT_texture_webp":{
					"source":1
				}
			},
			"sampler":0
		},
		{
			"extensions":{
				"EXT_texture_webp":{
					"source":2
				}
			},
			"sampler":0
		}
	],
	"images":[
		{
			"mimeType":"image/webp",
			"name":"PolygonDarkFantasy_Texture_01_A",
			"uri":"PolygonDarkFantasy_Texture_01_A.webp"
		},
		{
			"mimeType":"image/webp",
			"name":"Stucco_Brown_01",
			"uri":"Stucco_Brown_01.webp"
		},
		{
			"mimeType":"image/webp",
			"name":"Brick_Small_04",
			"uri":"Brick_Small_04.webp"
		}
	],
	"accessors":[
		{
			"bufferView":0,
			"componentType":5126,
			"count":542,
			"max":[
				124.42581176757812,
				14.540043830871582,
				-71.8794937133789
			],
			"min":[
				64.79826354980469,
				6.596449851989746,
				-196.33169555664062
			],
			"type":"VEC3"
		},
		{
			"bufferView":1,
			"componentType":5126,
			"count":542,
			"type":"VEC3"
		},
		{
			"bufferView":2,
			"componentType":5126,
			"count":542,
			"type":"VEC2"
		},
		{
			"bufferView":3,
			"componentType":5123,
			"count":915,
			"type":"SCALAR"
		},
		{
			"bufferView":4,
			"componentType":5126,
			"count":564,
			"max":[
				186.21168518066406,
				14.540043830871582,
				-68.38514709472656
			],
			"min":[
				125.43086242675781,
				6.596449851989746,
				-196.57179260253906
			],
			"type":"VEC3"
		},
		{
			"bufferView":5,
			"componentType":5126,
			"count":564,
			"type":"VEC3"
		},
		{
			"bufferView":6,
			"componentType":5126,
			"count":564,
			"type":"VEC2"
		},
		{
			"bufferView":7,
			"componentType":5123,
			"count":948,
			"type":"SCALAR"
		},
		{
			"bufferView":8,
			"componentType":5126,
			"count":24,
			"max":[
				249.999267578125,
				0,
				0
			],
			"min":[
				0,
				-11.249908447265625,
				-300.57427978515625
			],
			"type":"VEC3"
		},
		{
			"bufferView":9,
			"componentType":5126,
			"count":24,
			"type":"VEC3"
		},
		{
			"bufferView":10,
			"componentType":5126,
			"count":24,
			"type":"VEC2"
		},
		{
			"bufferView":11,
			"componentType":5123,
			"count":48,
			"type":"SCALAR"
		},
		{
			"bufferView":12,
			"componentType":5126,
			"count":24,
			"max":[
				249.999267578125,
				11.249908447265625,
				0
			],
			"min":[
				0,
				0,
				-300.57427978515625
			],
			"type":"VEC3"
		},
		{
			"bufferView":13,
			"componentType":5126,
			"count":24,
			"type":"VEC3"
		},
		{
			"bufferView":14,
			"componentType":5126,
			"count":24,
			"type":"VEC2"
		},
		{
			"bufferView":15,
			"componentType":5123,
			"count":48,
			"type":"SCALAR"
		},
		{
			"bufferView":16,
			"componentType":5126,
			"count":455,
			"max":[
				198.66806030273438,
				22.569026947021484,
				-51.46897506713867
			],
			"min":[
				52.39901351928711,
				-19.662952423095703,
				-212.25497436523438
			],
			"type":"VEC3"
		},
		{
			"bufferView":17,
			"componentType":5126,
			"count":455,
			"type":"VEC3"
		},
		{
			"bufferView":18,
			"componentType":5126,
			"count":455,
			"type":"VEC2"
		},
		{
			"bufferView":19,
			"componentType":5123,
			"count":780,
			"type":"SCALAR"
		}
	],
	"bufferViews":[
		{
			"buffer":0,
			"byteLength":6504,
			"byteOffset":0,
			"target":34962
		},
		{
			"buffer":0,
			"byteLength":6504,
			"byteOffset":6504,
			"target":34962
		},
		{
			"buffer":0,
			"byteLength":4336,
			"byteOffset":13008,
			"target":34962
		},
		{
			"buffer":0,
			"byteLength":1830,
			"byteOffset":17344,
			"target":34963
		},
		{
			"buffer":0,
			"byteLength":6768,
			"byteOffset":19176,
			"target":34962
		},
		{
			"buffer":0,
			"byteLength":6768,
			"byteOffset":25944,
			"target":34962
		},
		{
			"buffer":0,
			"byteLength":4512,
			"byteOffset":32712,
			"target":34962
		},
		{
			"buffer":0,
			"byteLength":1896,
			"byteOffset":37224,
			"target":34963
		},
		{
			"buffer":0,
			"byteLength":288,
			"byteOffset":39120,
			"target":34962
		},
		{
			"buffer":0,
			"byteLength":288,
			"byteOffset":39408,
			"target":34962
		},
		{
			"buffer":0,
			"byteLength":192,
			"byteOffset":39696,
			"target":34962
		},
		{
			"buffer":0,
			"byteLength":96,
			"byteOffset":39888,
			"target":34963
		},
		{
			"buffer":0,
			"byteLength":288,
			"byteOffset":39984,
			"target":34962
		},
		{
			"buffer":0,
			"byteLength":288,
			"byteOffset":40272,
			"target":34962
		},
		{
			"buffer":0,
			"byteLength":192,
			"byteOffset":40560,
			"target":34962
		},
		{
			"buffer":0,
			"byteLength":96,
			"byteOffset":40752,
			"target":34963
		},
		{
			"buffer":0,
			"byteLength":5460,
			"byteOffset":40848,
			"target":34962
		},
		{
			"buffer":0,
			"byteLength":5460,
			"byteOffset":46308,
			"target":34962
		},
		{
			"buffer":0,
			"byteLength":3640,
			"byteOffset":51768,
			"target":34962
		},
		{
			"buffer":0,
			"byteLength":1560,
			"byteOffset":55408,
			"target":34963
		}
	],
	"samplers":[
		{
			"magFilter":9729,
			"minFilter":9987
		}
	],
	"buffers":[
		{
			"byteLength":56968,
			"uri":"dark_SM_Bld_Window_Village_02.bin"
		}
	]
}
