{"asset":{"generator":"Khronos glTF Blender I/O v4.4.55","version":"2.0"},"extensionsUsed":["EXT_texture_webp"],"extensionsRequired":["EXT_texture_webp"],"scene":0,"scenes":[{"name":"Scene","nodes":[2]}],"nodes":[{"mesh":0,"name":"SM_Prop_Lantern_02_Glow_01"},{"mesh":1,"name":"SM_Prop_Lantern_02_Handle_01"},{"children":[0,1],"mesh":2,"name":"SM_Prop_Lantern_02","rotation":[0.7071068286895752,0,0,0.7071068286895752],"scale":[0.009999999776482582,0.009999999776482582,0.009999999776482582]}],"materials":[{"doubleSided":true,"name":"Gothic","pbrMetallicRoughness":{"baseColorTexture":{"index":2},"metallicFactor":0,"roughnessFactor":0.5527864098548889}}],"meshes":[{"name":"Mesh.002","primitives":[{"attributes":{"POSITION":0,"NORMAL":1,"TEXCOORD_0":2},"indices":3,"material":0}]},{"name":"Mesh.001","primitives":[{"attributes":{"POSITION":4,"NORMAL":5,"TEXCOORD_0":6},"indices":7,"material":0}]},{"name":"Mesh","primitives":[{"attributes":{"POSITION":8,"NORMAL":9,"TEXCOORD_0":10},"indices":11,"material":0}]}],"textures":[{"extensions":{},"sampler":0},{"extensions":{},"sampler":0},{"extensions":{"EXT_texture_webp":{"source":0}},"sampler":0}],"images":[{"mimeType":"image/webp","name":"PolygonDarkFantasy_Emissive_04_A","uri":"PolygonDarkFantasy_Emissive_04_A.webp"}],"accessors":[{"bufferView":0,"componentType":5126,"count":96,"max":[11.514921188354492,11.431215286254883,-11.918119430541992],"min":[-11.606189727783203,-11.689891815185547,-35.819419860839844],"type":"VEC3"},{"bufferView":1,"componentType":5126,"count":96,"type":"VEC3"},{"bufferView":2,"componentType":5126,"count":96,"type":"VEC2"},{"bufferView":3,"componentType":5123,"count":144,"type":"SCALAR"},{"bufferView":4,"componentType":5126,"count":128,"max":[7.977894306182861,1.2766625881195068,-48.174766540527344],"min":[-7.97788667678833,-1.3409125804901123,-63.61615753173828],"type":"VEC3"},{"bufferView":5,"componentType":5126,"count":128,"type":"VEC3"},{"bufferView":6,"componentType":5126,"count":128,"type":"VEC2"},{"bufferView":7,"componentType":5123,"count":192,"type":"SCALAR"},{"bufferView":8,"componentType":5126,"count":961,"max":[13.780475616455078,13.78048324584961,0],"min":[-13.780475616455078,-13.78048324584961,-52.39704132080078],"type":"VEC3"},{"bufferView":9,"componentType":5126,"count":961,"type":"VEC3"},{"bufferView":10,"componentType":5126,"count":961,"type":"VEC2"},{"bufferView":11,"componentType":5123,"count":1500,"type":"SCALAR"}],"bufferViews":[{"buffer":0,"byteLength":1152,"byteOffset":0,"target":34962},{"buffer":0,"byteLength":1152,"byteOffset":1152,"target":34962},{"buffer":0,"byteLength":768,"byteOffset":2304,"target":34962},{"buffer":0,"byteLength":288,"byteOffset":3072,"target":34963},{"buffer":0,"byteLength":1536,"byteOffset":3360,"target":34962},{"buffer":0,"byteLength":1536,"byteOffset":4896,"target":34962},{"buffer":0,"byteLength":1024,"byteOffset":6432,"target":34962},{"buffer":0,"byteLength":384,"byteOffset":7456,"target":34963},{"buffer":0,"byteLength":11532,"byteOffset":7840,"target":34962},{"buffer":0,"byteLength":11532,"byteOffset":19372,"target":34962},{"buffer":0,"byteLength":7688,"byteOffset":30904,"target":34962},{"buffer":0,"byteLength":3000,"byteOffset":38592,"target":34963}],"samplers":[{"magFilter":9729,"minFilter":9987}],"buffers":[{"byteLength":41592,"uri":"dark_SM_Prop_Lantern_02.bin"}]}