{"asset":{"generator":"Khronos glTF Blender I/O v4.4.55","version":"2.0"},"extensionsUsed":["EXT_texture_webp"],"extensionsRequired":["EXT_texture_webp"],"scene":0,"scenes":[{"name":"Scene","nodes":[0]}],"nodes":[{"mesh":0,"name":"SM_Prop_Bowl_03","rotation":[0.7071068286895752,0,0,0.7071068286895752],"scale":[0.009999999776482582,0.009999999776482582,0.009999999776482582]}],"materials":[{"doubleSided":true,"name":"Gothic","pbrMetallicRoughness":{"baseColorTexture":{"index":2},"metallicFactor":0,"roughnessFactor":0.5527864098548889}}],"meshes":[{"name":"Mesh","primitives":[{"attributes":{"POSITION":0,"NORMAL":1,"TEXCOORD_0":2,"TEXCOORD_1":3},"indices":4,"material":0}]}],"textures":[{"extensions":{},"sampler":0},{"extensions":{},"sampler":0},{"extensions":{"EXT_texture_webp":{"source":0}},"sampler":0}],"images":[{"mimeType":"image/webp","name":"PolygonDarkFantasy_Emissive_04_A","uri":"PolygonDarkFantasy_Emissive_04_A.webp"}],"accessors":[{"bufferView":0,"componentType":5126,"count":2025,"max":[17.11407470703125,16.276477813720703,0],"min":[-17.11407470703125,-16.276477813720703,-15.895853996276855],"type":"VEC3"},{"bufferView":1,"componentType":5126,"count":2025,"type":"VEC3"},{"bufferView":2,"componentType":5126,"count":2025,"type":"VEC2"},{"bufferView":3,"componentType":5126,"count":2025,"type":"VEC2"},{"bufferView":4,"componentType":5123,"count":2880,"type":"SCALAR"}],"bufferViews":[{"buffer":0,"byteLength":24300,"byteOffset":0,"target":34962},{"buffer":0,"byteLength":24300,"byteOffset":24300,"target":34962},{"buffer":0,"byteLength":16200,"byteOffset":48600,"target":34962},{"buffer":0,"byteLength":16200,"byteOffset":64800,"target":34962},{"buffer":0,"byteLength":5760,"byteOffset":81000,"target":34963}],"samplers":[{"magFilter":9729,"minFilter":9987}],"buffers":[{"byteLength":86760,"uri":"dark_SM_Prop_Bowl_03.bin"}]}