{"asset":{"generator":"Khronos glTF Blender I/O v4.4.55","version":"2.0"},"extensionsUsed":["EXT_texture_webp"],"extensionsRequired":["EXT_texture_webp"],"scene":0,"scenes":[{"name":"Scene","nodes":[0]}],"nodes":[{"mesh":0,"name":"SM_Prop_Candelabra_01","rotation":[0.7071068286895752,0,0,0.7071068286895752],"scale":[0.009999999776482582,0.009999999776482582,0.009999999776482582]}],"materials":[{"doubleSided":true,"name":"Gothic","pbrMetallicRoughness":{"baseColorTexture":{"index":2},"metallicFactor":0,"roughnessFactor":0.5527864098548889}}],"meshes":[{"name":"Mesh","primitives":[{"attributes":{"POSITION":0,"NORMAL":1,"TEXCOORD_0":2,"TEXCOORD_1":3,"TEXCOORD_2":4},"indices":5,"material":0}]}],"textures":[{"extensions":{},"sampler":0},{"extensions":{},"sampler":0},{"extensions":{"EXT_texture_webp":{"source":0}},"sampler":0}],"images":[{"mimeType":"image/webp","name":"PolygonDarkFantasy_Emissive_04_A","uri":"PolygonDarkFantasy_Emissive_04_A.webp"}],"accessors":[{"bufferView":0,"componentType":5126,"count":3529,"max":[34.670372009277344,34.80653381347656,0],"min":[-34.670372009277344,-34.80653381347656,-176.02415466308594],"type":"VEC3"},{"bufferView":1,"componentType":5126,"count":3529,"type":"VEC3"},{"bufferView":2,"componentType":5126,"count":3529,"type":"VEC2"},{"bufferView":3,"componentType":5126,"count":3529,"type":"VEC2"},{"bufferView":4,"componentType":5126,"count":3529,"type":"VEC2"},{"bufferView":5,"componentType":5123,"count":5232,"type":"SCALAR"}],"bufferViews":[{"buffer":0,"byteLength":42348,"byteOffset":0,"target":34962},{"buffer":0,"byteLength":42348,"byteOffset":42348,"target":34962},{"buffer":0,"byteLength":28232,"byteOffset":84696,"target":34962},{"buffer":0,"byteLength":28232,"byteOffset":112928,"target":34962},{"buffer":0,"byteLength":28232,"byteOffset":141160,"target":34962},{"buffer":0,"byteLength":10464,"byteOffset":169392,"target":34963}],"samplers":[{"magFilter":9729,"minFilter":9987}],"buffers":[{"byteLength":179856,"uri":"dark_SM_Prop_Candelabra_01.bin"}]}