{
	"asset":{
		"generator":"Khronos glTF Blender I/O v4.4.55",
		"version":"2.0"
	},
	"extensionsUsed":[
		"EXT_texture_webp"
	],
	"extensionsRequired":[
		"EXT_texture_webp"
	],
	"scene":0,
	"scenes":[
		{
			"name":"Scene",
			"nodes":[
				0
			]
		}
	],
	"nodes":[
		{
			"mesh":0,
			"name":"SM_Prop_Gallows_01_Body_01",
			"rotation":[
				0.7071068286895752,
				0,
				0,
				0.7071068286895752
			],
			"scale":[
				0.009999999776482582,
				0.009999999776482582,
				0.009999999776482582
			]
		}
	],
	"materials":[
		{
			"doubleSided":true,
			"name":"Gothicc28",
			"pbrMetallicRoughness":{
				"baseColorTexture":{
					"index":0
				},
				"metallicFactor":0,
				"roughnessFactor":0.5527864098548889
			}
		}
	],
	"meshes":[
		{
			"name":"Mesh",
			"primitives":[
				{
					"attributes":{
						"POSITION":0,
						"NORMAL":1,
						"TEXCOORD_0":2,
						"COLOR_0":3,
						"COLOR_1":4
					},
					"indices":5,
					"material":0
				}
			]
		}
	],
	"textures":[
		{
			"extensions":{
				"EXT_texture_webp":{
					"source":0
				}
			},
			"sampler":0
		}
	],
	"images":[
		{
			"mimeType":"image/webp",
			"name":"PolygonDarkFantasy_Texture_01_A",
			"uri":"PolygonDarkFantasy_Texture_01_A.webp"
		}
	],
	"accessors":[
		{
			"bufferView":0,
			"componentType":5126,
			"count":3752,
			"max":[
				29.6500186920166,
				43.31062316894531,
				1.6702194213867188
			],
			"min":[
				-21.331771850585938,
				-10.05179214477539,
				-179.5662841796875
			],
			"type":"VEC3"
		},
		{
			"bufferView":1,
			"componentType":5126,
			"count":3752,
			"type":"VEC3"
		},
		{
			"bufferView":2,
			"componentType":5126,
			"count":3752,
			"type":"VEC2"
		},
		{
			"bufferView":3,
			"componentType":5121,
			"count":3752,
			"normalized":true,
			"type":"VEC4"
		},
		{
			"bufferView":4,
			"componentType":5123,
			"count":3752,
			"normalized":true,
			"type":"VEC4"
		},
		{
			"bufferView":5,
			"componentType":5123,
			"count":5100,
			"type":"SCALAR"
		}
	],
	"bufferViews":[
		{
			"buffer":0,
			"byteLength":45024,
			"byteOffset":0,
			"target":34962
		},
		{
			"buffer":0,
			"byteLength":45024,
			"byteOffset":45024,
			"target":34962
		},
		{
			"buffer":0,
			"byteLength":30016,
			"byteOffset":90048,
			"target":34962
		},
		{
			"buffer":0,
			"byteLength":15008,
			"byteOffset":120064,
			"target":34962
		},
		{
			"buffer":0,
			"byteLength":30016,
			"byteOffset":135072,
			"target":34962
		},
		{
			"buffer":0,
			"byteLength":10200,
			"byteOffset":165088,
			"target":34963
		}
	],
	"samplers":[
		{
			"magFilter":9729,
			"minFilter":9987
		}
	],
	"buffers":[
		{
			"byteLength":175288,
			"uri":"dark_SM_Prop_Gallows_01_Body_01.bin"
		}
	]
}
