{"asset":{"generator":"Khronos glTF Blender I/O v4.4.55","version":"2.0"},"extensionsUsed":["EXT_texture_webp"],"extensionsRequired":["EXT_texture_webp"],"scene":0,"scenes":[{"name":"Scene","nodes":[0]}],"nodes":[{"mesh":0,"name":"SM_Prop_Lamp_Hanging_01","rotation":[0.7071068286895752,0,0,0.7071068286895752],"scale":[0.009999999776482582,0.009999999776482582,0.009999999776482582]}],"materials":[{"doubleSided":true,"name":"Gothic","pbrMetallicRoughness":{"baseColorTexture":{"index":2},"metallicFactor":0,"roughnessFactor":0.5527864098548889}}],"meshes":[{"name":"Mesh","primitives":[{"attributes":{"POSITION":0,"NORMAL":1,"TEXCOORD_0":2},"indices":3,"material":0}]}],"textures":[{"extensions":{},"sampler":0},{"extensions":{},"sampler":0},{"extensions":{"EXT_texture_webp":{"source":0}},"sampler":0}],"images":[{"mimeType":"image/webp","name":"PolygonDarkFantasy_Emissive_04_A","uri":"PolygonDarkFantasy_Emissive_04_A.webp"}],"accessors":[{"bufferView":0,"componentType":5126,"count":1107,"max":[19.88715171813965,22.240623474121094,123.48326110839844],"min":[-19.88715171813965,-22.240623474121094,0],"type":"VEC3"},{"bufferView":1,"componentType":5126,"count":1107,"type":"VEC3"},{"bufferView":2,"componentType":5126,"count":1107,"type":"VEC2"},{"bufferView":3,"componentType":5123,"count":1758,"type":"SCALAR"}],"bufferViews":[{"buffer":0,"byteLength":13284,"byteOffset":0,"target":34962},{"buffer":0,"byteLength":13284,"byteOffset":13284,"target":34962},{"buffer":0,"byteLength":8856,"byteOffset":26568,"target":34962},{"buffer":0,"byteLength":3516,"byteOffset":35424,"target":34963}],"samplers":[{"magFilter":9729,"minFilter":9987}],"buffers":[{"byteLength":38940,"uri":"dark_SM_Prop_Lamp_Hanging_01.bin"}]}