{"asset":{"generator":"Khronos glTF Blender I/O v4.4.55","version":"2.0"},"extensionsUsed":["EXT_texture_webp"],"extensionsRequired":["EXT_texture_webp"],"scene":0,"scenes":[{"name":"Scene","nodes":[0]}],"nodes":[{"mesh":0,"name":"SM_Env_Rock_Cliff_03","rotation":[0.7071068286895752,0,0,0.7071068286895752],"scale":[0.009999999776482582,0.009999999776482582,0.009999999776482582]}],"materials":[{"doubleSided":true,"name":"MAT_01A19","pbrMetallicRoughness":{"baseColorTexture":{"index":2},"metallicFactor":0,"roughnessFactor":0.5527864098548889}}],"meshes":[{"name":"Mesh","primitives":[{"attributes":{"POSITION":0,"NORMAL":1,"TEXCOORD_0":2},"indices":3,"material":0}]}],"textures":[{"extensions":{},"sampler":0},{"extensions":{},"sampler":0},{"extensions":{"EXT_texture_webp":{"source":0}},"sampler":0}],"images":[{"mimeType":"image/webp","name":"PolygonDarkFantasy_Emissive_04_A","uri":"PolygonDarkFantasy_Emissive_04_A.webp"}],"accessors":[{"bufferView":0,"componentType":5126,"count":1298,"max":[486.2010498046875,689.203125,555.8203125],"min":[-441.95550537109375,-299.73834228515625,-461.3927307128906],"type":"VEC3"},{"bufferView":1,"componentType":5126,"count":1298,"type":"VEC3"},{"bufferView":2,"componentType":5126,"count":1298,"type":"VEC2"},{"bufferView":3,"componentType":5123,"count":1326,"type":"SCALAR"}],"bufferViews":[{"buffer":0,"byteLength":15576,"byteOffset":0,"target":34962},{"buffer":0,"byteLength":15576,"byteOffset":15576,"target":34962},{"buffer":0,"byteLength":10384,"byteOffset":31152,"target":34962},{"buffer":0,"byteLength":2652,"byteOffset":41536,"target":34963}],"samplers":[{"magFilter":9729,"minFilter":9987}],"buffers":[{"byteLength":44188,"uri":"dark_SM_Env_Rock_Cliff_03.bin"}]}