{
	"asset":{
		"generator":"Khronos glTF Blender I/O v4.4.55",
		"version":"2.0"
	},
	"scene":0,
	"scenes":[
		{
			"name":"Scene",
			"nodes":[
				0
			]
		}
	],
	"nodes":[
		{
			"mesh":0,
			"name":"SM_Env_Rocks_Spikes_Large_01",
			"rotation":[
				0.7071068286895752,
				0,
				0,
				0.7071068286895752
			],
			"scale":[
				0.009999999776482582,
				0.009999999776482582,
				0.009999999776482582
			]
		}
	],
	"materials":[
		{
			"doubleSided":true,
			"emissiveFactor":[
				0.5,
				0.5,
				0.5
			],
			"name":"MAT_01A",
			"pbrMetallicRoughness":{
				"metallicFactor":0
			}
		}
	],
	"meshes":[
		{
			"name":"Mesh",
			"primitives":[
				{
					"attributes":{
						"POSITION":0,
						"NORMAL":1,
						"TEXCOORD_0":2
					},
					"indices":3,
					"material":0
				}
			]
		}
	],
	"accessors":[
		{
			"bufferView":0,
			"componentType":5126,
			"count":2590,
			"max":[
				641.1875,
				343.9560546875,
				71.6763916015625
			],
			"min":[
				-641.18798828125,
				-343.9560546875,
				-958.6323852539062
			],
			"type":"VEC3"
		},
		{
			"bufferView":1,
			"componentType":5126,
			"count":2590,
			"type":"VEC3"
		},
		{
			"bufferView":2,
			"componentType":5126,
			"count":2590,
			"type":"VEC2"
		},
		{
			"bufferView":3,
			"componentType":5123,
			"count":2688,
			"type":"SCALAR"
		}
	],
	"bufferViews":[
		{
			"buffer":0,
			"byteLength":31080,
			"byteOffset":0,
			"target":34962
		},
		{
			"buffer":0,
			"byteLength":31080,
			"byteOffset":31080,
			"target":34962
		},
		{
			"buffer":0,
			"byteLength":20720,
			"byteOffset":62160,
			"target":34962
		},
		{
			"buffer":0,
			"byteLength":5376,
			"byteOffset":82880,
			"target":34963
		}
	],
	"buffers":[
		{
			"byteLength":88256,
			"uri":"desert_SM_Env_Rocks_Spikes_Large_01.bin"
		}
	]
}
