{"asset":{"generator":"Khronos glTF Blender I/O v4.4.55","version":"2.0"},"extensionsUsed":["EXT_texture_webp"],"extensionsRequired":["EXT_texture_webp"],"scene":0,"scenes":[{"name":"Scene","nodes":[0]}],"nodes":[{"mesh":0,"name":"SM_Env_Backrgound_Hill_02","rotation":[0.7071068286895752,0,0,0.7071068286895752],"scale":[0.009999999776482582,0.009999999776482582,0.009999999776482582]}],"materials":[{"doubleSided":true,"name":"MAT_01A","pbrMetallicRoughness":{"baseColorTexture":{"index":2},"metallicFactor":0}}],"meshes":[{"name":"Mesh","primitives":[{"attributes":{"POSITION":0,"NORMAL":1,"TEXCOORD_0":2},"indices":3,"material":0}]}],"textures":[{"extensions":{},"sampler":0},{"extensions":{},"sampler":0},{"extensions":{"EXT_texture_webp":{"source":0}},"sampler":0}],"images":[{"mimeType":"image/webp","name":"PolygonNatureBiomesS2_AridDesert_Texture_01","uri":"PolygonNatureBiomesS2_AridDesert_Texture_01.webp"}],"accessors":[{"bufferView":0,"componentType":5126,"count":7276,"max":[1109.401611328125,1178.353515625,0],"min":[-1117.30322265625,-1174.724609375,-288.8283386230469],"type":"VEC3"},{"bufferView":1,"componentType":5126,"count":7276,"type":"VEC3"},{"bufferView":2,"componentType":5126,"count":7276,"type":"VEC2"},{"bufferView":3,"componentType":5123,"count":7569,"type":"SCALAR"}],"bufferViews":[{"buffer":0,"byteLength":87312,"byteOffset":0,"target":34962},{"buffer":0,"byteLength":87312,"byteOffset":87312,"target":34962},{"buffer":0,"byteLength":58208,"byteOffset":174624,"target":34962},{"buffer":0,"byteLength":15138,"byteOffset":232832,"target":34963}],"samplers":[{"magFilter":9729,"minFilter":9987}],"buffers":[{"byteLength":247972,"uri":"desert_SM_Env_Backrgound_Hill_02.bin"}]}