{
	"asset":{
		"generator":"Khronos glTF Blender I/O v4.4.55",
		"version":"2.0"
	},
	"scene":0,
	"scenes":[
		{
			"name":"Scene",
			"nodes":[
				1
			]
		}
	],
	"nodes":[
		{
			"mesh":0,
			"name":"SM_Env_Sulphur_Pool_05_Water"
		},
		{
			"children":[
				0
			],
			"mesh":1,
			"name":"SM_Env_Sulphur_Pool_05",
			"rotation":[
				0.7071068286895752,
				0,
				0,
				0.7071068286895752
			],
			"scale":[
				0.009999999776482582,
				0.009999999776482582,
				0.009999999776482582
			]
		}
	],
	"materials":[
		{
			"doubleSided":true,
			"name":"lambert2024",
			"pbrMetallicRoughness":{
				"baseColorFactor":[
					0.5,
					0.5,
					0.5,
					1
				],
				"metallicFactor":0
			}
		},
		{
			"doubleSided":true,
			"emissiveFactor":[
				0.5,
				0.5,
				0.5
			],
			"name":"MAT_01A6",
			"pbrMetallicRoughness":{
				"metallicFactor":0
			}
		}
	],
	"meshes":[
		{
			"name":"Mesh.001",
			"primitives":[
				{
					"attributes":{
						"POSITION":0,
						"NORMAL":1,
						"TEXCOORD_0":2
					},
					"indices":3,
					"material":0
				}
			]
		},
		{
			"name":"Mesh",
			"primitives":[
				{
					"attributes":{
						"POSITION":4,
						"NORMAL":5,
						"TEXCOORD_0":6
					},
					"indices":7,
					"material":1
				}
			]
		}
	],
	"accessors":[
		{
			"bufferView":0,
			"componentType":5126,
			"count":18,
			"max":[
				361.63739013671875,
				299.28662109375,
				-109.85114288330078
			],
			"min":[
				-288.0653991699219,
				-366.2893981933594,
				-109.85114288330078
			],
			"type":"VEC3"
		},
		{
			"bufferView":1,
			"componentType":5126,
			"count":18,
			"type":"VEC3"
		},
		{
			"bufferView":2,
			"componentType":5126,
			"count":18,
			"type":"VEC2"
		},
		{
			"bufferView":3,
			"componentType":5123,
			"count":36,
			"type":"SCALAR"
		},
		{
			"bufferView":4,
			"componentType":5126,
			"count":2027,
			"max":[
				418.9365234375,
				371.318359375,
				0.8412095308303833
			],
			"min":[
				-376.966796875,
				-458.7890625,
				-133.32894897460938
			],
			"type":"VEC3"
		},
		{
			"bufferView":5,
			"componentType":5126,
			"count":2027,
			"type":"VEC3"
		},
		{
			"bufferView":6,
			"componentType":5126,
			"count":2027,
			"type":"VEC2"
		},
		{
			"bufferView":7,
			"componentType":5123,
			"count":2118,
			"type":"SCALAR"
		}
	],
	"bufferViews":[
		{
			"buffer":0,
			"byteLength":216,
			"byteOffset":0,
			"target":34962
		},
		{
			"buffer":0,
			"byteLength":216,
			"byteOffset":216,
			"target":34962
		},
		{
			"buffer":0,
			"byteLength":144,
			"byteOffset":432,
			"target":34962
		},
		{
			"buffer":0,
			"byteLength":72,
			"byteOffset":576,
			"target":34963
		},
		{
			"buffer":0,
			"byteLength":24324,
			"byteOffset":648,
			"target":34962
		},
		{
			"buffer":0,
			"byteLength":24324,
			"byteOffset":24972,
			"target":34962
		},
		{
			"buffer":0,
			"byteLength":16216,
			"byteOffset":49296,
			"target":34962
		},
		{
			"buffer":0,
			"byteLength":4236,
			"byteOffset":65512,
			"target":34963
		}
	],
	"buffers":[
		{
			"byteLength":69748,
			"uri":"desert_SM_Env_Sulphur_Pool_05.bin"
		}
	]
}
