{
	"asset":{
		"generator":"Khronos glTF Blender I/O v4.4.55",
		"version":"2.0"
	},
	"scene":0,
	"scenes":[
		{
			"name":"Scene",
			"nodes":[
				0
			]
		}
	],
	"nodes":[
		{
			"mesh":0,
			"name":"SM_Env_Rock_Cliff_13",
			"rotation":[
				0.7071068286895752,
				0,
				0,
				0.7071068286895752
			],
			"scale":[
				0.009999999776482582,
				0.009999999776482582,
				0.009999999776482582
			]
		}
	],
	"materials":[
		{
			"doubleSided":true,
			"emissiveFactor":[
				0.5,
				0.5,
				0.5
			],
			"name":"MAT_01A",
			"pbrMetallicRoughness":{
				"metallicFactor":0
			}
		}
	],
	"meshes":[
		{
			"name":"Mesh",
			"primitives":[
				{
					"attributes":{
						"POSITION":0,
						"NORMAL":1,
						"TEXCOORD_0":2,
						"TEXCOORD_1":3
					},
					"indices":4,
					"material":0
				}
			]
		}
	],
	"accessors":[
		{
			"bufferView":0,
			"componentType":5126,
			"count":5437,
			"max":[
				804.143798828125,
				656.595458984375,
				370.94610595703125
			],
			"min":[
				-804.143798828125,
				-656.595703125,
				-370.94647216796875
			],
			"type":"VEC3"
		},
		{
			"bufferView":1,
			"componentType":5126,
			"count":5437,
			"type":"VEC3"
		},
		{
			"bufferView":2,
			"componentType":5126,
			"count":5437,
			"type":"VEC2"
		},
		{
			"bufferView":3,
			"componentType":5126,
			"count":5437,
			"type":"VEC2"
		},
		{
			"bufferView":4,
			"componentType":5123,
			"count":5592,
			"type":"SCALAR"
		}
	],
	"bufferViews":[
		{
			"buffer":0,
			"byteLength":65244,
			"byteOffset":0,
			"target":34962
		},
		{
			"buffer":0,
			"byteLength":65244,
			"byteOffset":65244,
			"target":34962
		},
		{
			"buffer":0,
			"byteLength":43496,
			"byteOffset":130488,
			"target":34962
		},
		{
			"buffer":0,
			"byteLength":43496,
			"byteOffset":173984,
			"target":34962
		},
		{
			"buffer":0,
			"byteLength":11184,
			"byteOffset":217480,
			"target":34963
		}
	],
	"buffers":[
		{
			"byteLength":228664,
			"uri":"desert_SM_Env_Rock_Cliff_13.bin"
		}
	]
}
