{
	"asset":{
		"generator":"Khronos glTF Blender I/O v4.4.55",
		"version":"2.0"
	},
	"extensionsUsed":[
		"EXT_texture_webp"
	],
	"extensionsRequired":[
		"EXT_texture_webp"
	],
	"scene":0,
	"scenes":[
		{
			"name":"Scene",
			"nodes":[
				0
			]
		}
	],
	"nodes":[
		{
			"mesh":0,
			"name":"SM_Env_Rock_Cliff_16",
			"rotation":[
				0.7071068286895752,
				0,
				0,
				0.7071068286895752
			],
			"scale":[
				0.009999999776482582,
				0.009999999776482582,
				0.009999999776482582
			]
		}
	],
	"materials":[
		{
			"doubleSided":true,
			"name":"lambert1",
			"pbrMetallicRoughness":{
				"baseColorTexture":{
					"index":0
				},
				"metallicFactor":0
			}
		}
	],
	"meshes":[
		{
			"name":"Mesh",
			"primitives":[
				{
					"attributes":{
						"POSITION":0,
						"NORMAL":1,
						"TEXCOORD_0":2
					},
					"indices":3,
					"material":0
				}
			]
		}
	],
	"textures":[
		{
			"extensions":{
				"EXT_texture_webp":{
					"source":0
				}
			},
			"sampler":0
		}
	],
	"images":[
		{
			"mimeType":"image/webp",
			"name":"PolygonNatureBiomesS2_AridDesert_Texture_01",
			"uri":"PolygonNatureBiomesS2_AridDesert_Texture_01.webp"
		}
	],
	"accessors":[
		{
			"bufferView":0,
			"componentType":5126,
			"count":5290,
			"max":[
				1438.806640625,
				692.8685913085938,
				81.50080108642578
			],
			"min":[
				-1438.806640625,
				-692.8685913085938,
				-940.2599487304688
			],
			"type":"VEC3"
		},
		{
			"bufferView":1,
			"componentType":5126,
			"count":5290,
			"type":"VEC3"
		},
		{
			"bufferView":2,
			"componentType":5126,
			"count":5290,
			"type":"VEC2"
		},
		{
			"bufferView":3,
			"componentType":5123,
			"count":5292,
			"type":"SCALAR"
		}
	],
	"bufferViews":[
		{
			"buffer":0,
			"byteLength":63480,
			"byteOffset":0,
			"target":34962
		},
		{
			"buffer":0,
			"byteLength":63480,
			"byteOffset":63480,
			"target":34962
		},
		{
			"buffer":0,
			"byteLength":42320,
			"byteOffset":126960,
			"target":34962
		},
		{
			"buffer":0,
			"byteLength":10584,
			"byteOffset":169280,
			"target":34963
		}
	],
	"samplers":[
		{
			"magFilter":9729,
			"minFilter":9987
		}
	],
	"buffers":[
		{
			"byteLength":179864,
			"uri":"desert_SM_Env_Rock_Cliff_16.bin"
		}
	]
}
