{
	"asset":{
		"generator":"Khronos glTF Blender I/O v4.4.55",
		"version":"2.0"
	},
	"scene":0,
	"scenes":[
		{
			"name":"Scene",
			"nodes":[
				0
			]
		}
	],
	"nodes":[
		{
			"mesh":0,
			"name":"SM_Env_Rock_Cliff_10",
			"rotation":[
				0.7071068286895752,
				0,
				0,
				0.7071068286895752
			],
			"scale":[
				0.009999999776482582,
				0.009999999776482582,
				0.009999999776482582
			]
		}
	],
	"materials":[
		{
			"doubleSided":true,
			"emissiveFactor":[
				0.5,
				0.5,
				0.5
			],
			"name":"MAT_01A",
			"pbrMetallicRoughness":{
				"metallicFactor":0
			}
		}
	],
	"meshes":[
		{
			"name":"Mesh",
			"primitives":[
				{
					"attributes":{
						"POSITION":0,
						"NORMAL":1,
						"TEXCOORD_0":2
					},
					"indices":3,
					"material":0
				}
			]
		}
	],
	"accessors":[
		{
			"bufferView":0,
			"componentType":5126,
			"count":868,
			"max":[
				573.32421875,
				660.9842529296875,
				157.21218872070312
			],
			"min":[
				-573.323974609375,
				-660.9840087890625,
				-736.8187255859375
			],
			"type":"VEC3"
		},
		{
			"bufferView":1,
			"componentType":5126,
			"count":868,
			"type":"VEC3"
		},
		{
			"bufferView":2,
			"componentType":5126,
			"count":868,
			"type":"VEC2"
		},
		{
			"bufferView":3,
			"componentType":5123,
			"count":906,
			"type":"SCALAR"
		}
	],
	"bufferViews":[
		{
			"buffer":0,
			"byteLength":10416,
			"byteOffset":0,
			"target":34962
		},
		{
			"buffer":0,
			"byteLength":10416,
			"byteOffset":10416,
			"target":34962
		},
		{
			"buffer":0,
			"byteLength":6944,
			"byteOffset":20832,
			"target":34962
		},
		{
			"buffer":0,
			"byteLength":1812,
			"byteOffset":27776,
			"target":34963
		}
	],
	"buffers":[
		{
			"byteLength":29588,
			"uri":"desert_SM_Env_Rock_Cliff_10.bin"
		}
	]
}
