{"asset":{"generator":"Khronos glTF Blender I/O v4.4.55","version":"2.0"},"extensionsUsed":["EXT_texture_webp"],"extensionsRequired":["EXT_texture_webp"],"scene":0,"scenes":[{"name":"Scene","nodes":[0]}],"nodes":[{"mesh":0,"name":"SM_Env_Rocks_Spikey_02","rotation":[0.7071068286895752,0,0,0.7071068286895752],"scale":[0.009999999776482582,0.009999999776482582,0.009999999776482582],"translation":[-19.875850677490234,0,-24.0939884185791]}],"materials":[{"doubleSided":true,"name":"MAT_01A","pbrMetallicRoughness":{"baseColorTexture":{"index":2},"metallicFactor":0}}],"meshes":[{"name":"Mesh","primitives":[{"attributes":{"POSITION":0,"NORMAL":1,"TEXCOORD_0":2},"indices":3,"material":0}]}],"textures":[{"extensions":{},"sampler":0},{"extensions":{},"sampler":0},{"extensions":{"EXT_texture_webp":{"source":0}},"sampler":0}],"images":[{"mimeType":"image/webp","name":"PolygonNatureBiomesS2_AridDesert_Texture_01","uri":"PolygonNatureBiomesS2_AridDesert_Texture_01.webp"}],"accessors":[{"bufferView":0,"componentType":5126,"count":2636,"max":[2109.422119140625,2537.1318359375,35.279327392578125],"min":[1865.042236328125,2280.55224609375,-247.15428161621094],"type":"VEC3"},{"bufferView":1,"componentType":5126,"count":2636,"type":"VEC3"},{"bufferView":2,"componentType":5126,"count":2636,"type":"VEC2"},{"bufferView":3,"componentType":5123,"count":2700,"type":"SCALAR"}],"bufferViews":[{"buffer":0,"byteLength":31632,"byteOffset":0,"target":34962},{"buffer":0,"byteLength":31632,"byteOffset":31632,"target":34962},{"buffer":0,"byteLength":21088,"byteOffset":63264,"target":34962},{"buffer":0,"byteLength":5400,"byteOffset":84352,"target":34963}],"samplers":[{"magFilter":9729,"minFilter":9987}],"buffers":[{"byteLength":89752,"uri":"desert_SM_Env_Rocks_Spikey_02.bin"}]}