{"asset":{"generator":"Khronos glTF Blender I/O v4.4.55","version":"2.0"},"extensionsUsed":["EXT_texture_webp"],"extensionsRequired":["EXT_texture_webp"],"scene":0,"scenes":[{"name":"Scene","nodes":[0]}],"nodes":[{"mesh":0,"name":"SM_Env_Rock_Cliff_15","rotation":[0.7071068286895752,0,0,0.7071068286895752],"scale":[0.009999999776482582,0.009999999776482582,0.009999999776482582]}],"materials":[{"doubleSided":true,"name":"MAT_01A","pbrMetallicRoughness":{"baseColorTexture":{"index":2},"metallicFactor":0}}],"meshes":[{"name":"Mesh","primitives":[{"attributes":{"POSITION":0,"NORMAL":1,"TEXCOORD_0":2},"indices":3,"material":0}]}],"textures":[{"extensions":{},"sampler":0},{"extensions":{},"sampler":0},{"extensions":{"EXT_texture_webp":{"source":0}},"sampler":0}],"images":[{"mimeType":"image/webp","name":"PolygonNatureBiomesS2_AridDesert_Texture_01","uri":"PolygonNatureBiomesS2_AridDesert_Texture_01.webp"}],"accessors":[{"bufferView":0,"componentType":5126,"count":1446,"max":[607.45849609375,856.38037109375,149.24993896484375],"min":[-340.5927734375,-982.606689453125,-1081.7740478515625],"type":"VEC3"},{"bufferView":1,"componentType":5126,"count":1446,"type":"VEC3"},{"bufferView":2,"componentType":5126,"count":1446,"type":"VEC2"},{"bufferView":3,"componentType":5123,"count":1512,"type":"SCALAR"}],"bufferViews":[{"buffer":0,"byteLength":17352,"byteOffset":0,"target":34962},{"buffer":0,"byteLength":17352,"byteOffset":17352,"target":34962},{"buffer":0,"byteLength":11568,"byteOffset":34704,"target":34962},{"buffer":0,"byteLength":3024,"byteOffset":46272,"target":34963}],"samplers":[{"magFilter":9729,"minFilter":9987}],"buffers":[{"byteLength":49296,"uri":"desert_SM_Env_Rock_Cliff_15.bin"}]}