{
	"asset":{
		"generator":"Khronos glTF Blender I/O v4.4.55",
		"version":"2.0"
	},
	"scene":0,
	"scenes":[
		{
			"name":"Scene",
			"nodes":[
				0
			]
		}
	],
	"nodes":[
		{
			"mesh":0,
			"name":"SM_Env_Rock_09",
			"rotation":[
				0.7071068286895752,
				0,
				0,
				0.7071068286895752
			],
			"scale":[
				0.009999999776482582,
				0.009999999776482582,
				0.009999999776482582
			]
		}
	],
	"materials":[
		{
			"doubleSided":true,
			"emissiveFactor":[
				0.5,
				0.5,
				0.5
			],
			"name":"MAT_01A",
			"pbrMetallicRoughness":{
				"metallicFactor":0
			}
		}
	],
	"meshes":[
		{
			"name":"Mesh",
			"primitives":[
				{
					"attributes":{
						"POSITION":0,
						"NORMAL":1,
						"TEXCOORD_0":2,
						"TEXCOORD_1":3
					},
					"indices":4,
					"material":0
				}
			]
		}
	],
	"accessors":[
		{
			"bufferView":0,
			"componentType":5126,
			"count":346,
			"max":[
				187.53125,
				177.90234375,
				85.79804992675781
			],
			"min":[
				-187.53125,
				-177.90234375,
				-530.7337036132812
			],
			"type":"VEC3"
		},
		{
			"bufferView":1,
			"componentType":5126,
			"count":346,
			"type":"VEC3"
		},
		{
			"bufferView":2,
			"componentType":5126,
			"count":346,
			"type":"VEC2"
		},
		{
			"bufferView":3,
			"componentType":5126,
			"count":346,
			"type":"VEC2"
		},
		{
			"bufferView":4,
			"componentType":5123,
			"count":354,
			"type":"SCALAR"
		}
	],
	"bufferViews":[
		{
			"buffer":0,
			"byteLength":4152,
			"byteOffset":0,
			"target":34962
		},
		{
			"buffer":0,
			"byteLength":4152,
			"byteOffset":4152,
			"target":34962
		},
		{
			"buffer":0,
			"byteLength":2768,
			"byteOffset":8304,
			"target":34962
		},
		{
			"buffer":0,
			"byteLength":2768,
			"byteOffset":11072,
			"target":34962
		},
		{
			"buffer":0,
			"byteLength":708,
			"byteOffset":13840,
			"target":34963
		}
	],
	"buffers":[
		{
			"byteLength":14548,
			"uri":"desert_SM_Env_Rock_09.bin"
		}
	]
}
