{"asset":{"generator":"Khronos glTF Blender I/O v4.4.55","version":"2.0"},"extensionsUsed":["EXT_texture_webp"],"extensionsRequired":["EXT_texture_webp"],"scene":0,"scenes":[{"name":"Scene","nodes":[1]}],"nodes":[{"mesh":0,"name":"SM_Env_Sulphur_Pool_01_Water"},{"children":[0],"mesh":1,"name":"SM_Env_Sulphur_Pool_01","rotation":[0.7071068286895752,0,0,0.7071068286895752],"scale":[0.009999999776482582,0.009999999776482582,0.009999999776482582]}],"materials":[{"doubleSided":true,"name":"lambert2024","pbrMetallicRoughness":{"baseColorTexture":{"index":0},"metallicFactor":0}},{"alphaMode":"MASK","doubleSided":true,"name":"MAT_01A6","pbrMetallicRoughness":{"baseColorTexture":{"index":3},"metallicFactor":0},"alphaCutoff":0.5}],"meshes":[{"name":"Mesh.001","primitives":[{"attributes":{"POSITION":0,"NORMAL":1,"TEXCOORD_0":2},"indices":3,"material":0}]},{"name":"Mesh","primitives":[{"attributes":{"POSITION":4,"NORMAL":5,"TEXCOORD_0":6},"indices":7,"material":1}]}],"textures":[{"extensions":{"EXT_texture_webp":{"source":0}},"sampler":0},{"extensions":{},"sampler":0},{"extensions":{},"sampler":0},{"extensions":{"EXT_texture_webp":{"source":0}},"sampler":0}],"images":[{"mimeType":"image/webp","name":"PolygonNatureBiomesS2_AridDesert_Texture_01","uri":"PolygonNatureBiomesS2_AridDesert_Texture_01.webp"}],"accessors":[{"bufferView":0,"componentType":5126,"count":18,"max":[168.415283203125,180.2960968017578,-109.85114288330078],"min":[-168.34950256347656,-156.46868896484375,-109.85114288330078],"type":"VEC3"},{"bufferView":1,"componentType":5126,"count":18,"type":"VEC3"},{"bufferView":2,"componentType":5126,"count":18,"type":"VEC2"},{"bufferView":3,"componentType":5123,"count":36,"type":"SCALAR"},{"bufferView":4,"componentType":5126,"count":1674,"max":[250.15304565429688,250.28955078125,1.1348748207092285],"min":[-251.48355102539062,-232.86676025390625,-135.9864044189453],"type":"VEC3"},{"bufferView":5,"componentType":5126,"count":1674,"type":"VEC3"},{"bufferView":6,"componentType":5126,"count":1674,"type":"VEC2"},{"bufferView":7,"componentType":5123,"count":1710,"type":"SCALAR"}],"bufferViews":[{"buffer":0,"byteLength":216,"byteOffset":0,"target":34962},{"buffer":0,"byteLength":216,"byteOffset":216,"target":34962},{"buffer":0,"byteLength":144,"byteOffset":432,"target":34962},{"buffer":0,"byteLength":72,"byteOffset":576,"target":34963},{"buffer":0,"byteLength":20088,"byteOffset":648,"target":34962},{"buffer":0,"byteLength":20088,"byteOffset":20736,"target":34962},{"buffer":0,"byteLength":13392,"byteOffset":40824,"target":34962},{"buffer":0,"byteLength":3420,"byteOffset":54216,"target":34963}],"samplers":[{"magFilter":9729,"minFilter":9987}],"buffers":[{"byteLength":57636,"uri":"desert_SM_Env_Sulphur_Pool_01.bin"}]}