{
	"asset":{
		"generator":"Khronos glTF Blender I/O v4.4.55",
		"version":"2.0"
	},
	"scene":0,
	"scenes":[
		{
			"name":"Scene",
			"nodes":[
				0
			]
		}
	],
	"nodes":[
		{
			"mesh":0,
			"name":"SM_Env_Rocks_Spikes_Large_02",
			"rotation":[
				0.7071068286895752,
				0,
				0,
				0.7071068286895752
			],
			"scale":[
				0.009999999776482582,
				0.009999999776482582,
				0.009999999776482582
			]
		}
	],
	"materials":[
		{
			"doubleSided":true,
			"emissiveFactor":[
				0.5,
				0.5,
				0.5
			],
			"name":"MAT_01A",
			"pbrMetallicRoughness":{
				"metallicFactor":0
			}
		}
	],
	"meshes":[
		{
			"name":"Mesh",
			"primitives":[
				{
					"attributes":{
						"POSITION":0,
						"NORMAL":1,
						"TEXCOORD_0":2
					},
					"indices":3,
					"material":0
				}
			]
		}
	],
	"accessors":[
		{
			"bufferView":0,
			"componentType":5126,
			"count":2606,
			"max":[
				446.0654296875,
				291.03076171875,
				71.6763916015625
			],
			"min":[
				-446.0654296875,
				-291.03076171875,
				-799.3372802734375
			],
			"type":"VEC3"
		},
		{
			"bufferView":1,
			"componentType":5126,
			"count":2606,
			"type":"VEC3"
		},
		{
			"bufferView":2,
			"componentType":5126,
			"count":2606,
			"type":"VEC2"
		},
		{
			"bufferView":3,
			"componentType":5123,
			"count":2700,
			"type":"SCALAR"
		}
	],
	"bufferViews":[
		{
			"buffer":0,
			"byteLength":31272,
			"byteOffset":0,
			"target":34962
		},
		{
			"buffer":0,
			"byteLength":31272,
			"byteOffset":31272,
			"target":34962
		},
		{
			"buffer":0,
			"byteLength":20848,
			"byteOffset":62544,
			"target":34962
		},
		{
			"buffer":0,
			"byteLength":5400,
			"byteOffset":83392,
			"target":34963
		}
	],
	"buffers":[
		{
			"byteLength":88792,
			"uri":"desert_SM_Env_Rocks_Spikes_Large_02.bin"
		}
	]
}
