{
	"asset":{
		"generator":"Khronos glTF Blender I/O v4.4.55",
		"version":"2.0"
	},
	"scene":0,
	"scenes":[
		{
			"name":"Scene",
			"nodes":[
				0
			]
		}
	],
	"nodes":[
		{
			"mesh":0,
			"name":"SM_Env_Crater_03",
			"rotation":[
				0.7071068286895752,
				0,
				0,
				0.7071068286895752
			],
			"scale":[
				0.009999999776482582,
				0.009999999776482582,
				0.009999999776482582
			]
		}
	],
	"materials":[
		{
			"doubleSided":true,
			"emissiveFactor":[
				0.5,
				0.5,
				0.5
			],
			"name":"MAT_01A",
			"pbrMetallicRoughness":{
				"metallicFactor":0
			}
		}
	],
	"meshes":[
		{
			"name":"Mesh",
			"primitives":[
				{
					"attributes":{
						"POSITION":0,
						"NORMAL":1,
						"TEXCOORD_0":2
					},
					"indices":3,
					"material":0
				}
			]
		}
	],
	"accessors":[
		{
			"bufferView":0,
			"componentType":5126,
			"count":2875,
			"max":[
				359.5869140625,
				355.154296875,
				0.00011444091796875
			],
			"min":[
				-359.5869140625,
				-355.154296875,
				-298.23779296875
			],
			"type":"VEC3"
		},
		{
			"bufferView":1,
			"componentType":5126,
			"count":2875,
			"type":"VEC3"
		},
		{
			"bufferView":2,
			"componentType":5126,
			"count":2875,
			"type":"VEC2"
		},
		{
			"bufferView":3,
			"componentType":5123,
			"count":3000,
			"type":"SCALAR"
		}
	],
	"bufferViews":[
		{
			"buffer":0,
			"byteLength":34500,
			"byteOffset":0,
			"target":34962
		},
		{
			"buffer":0,
			"byteLength":34500,
			"byteOffset":34500,
			"target":34962
		},
		{
			"buffer":0,
			"byteLength":23000,
			"byteOffset":69000,
			"target":34962
		},
		{
			"buffer":0,
			"byteLength":6000,
			"byteOffset":92000,
			"target":34963
		}
	],
	"buffers":[
		{
			"byteLength":98000,
			"uri":"desert_SM_Env_Crater_03.bin"
		}
	]
}
