{
	"asset":{
		"generator":"Khronos glTF Blender I/O v4.4.55",
		"version":"2.0"
	},
	"scene":0,
	"scenes":[
		{
			"name":"Scene",
			"nodes":[
				0
			]
		}
	],
	"nodes":[
		{
			"mesh":0,
			"name":"SM_Prop_Hose_01",
			"rotation":[
				0.7071068286895752,
				0,
				0,
				0.7071068286895752
			],
			"scale":[
				0.009999999776482582,
				0.009999999776482582,
				0.009999999776482582
			]
		}
	],
	"materials":[
		{
			"doubleSided":true,
			"name":"MAT_01A",
			"pbrMetallicRoughness":{
				"metallicFactor":0
			}
		}
	],
	"meshes":[
		{
			"name":"Mesh",
			"primitives":[
				{
					"attributes":{
						"POSITION":0,
						"NORMAL":1,
						"TEXCOORD_0":2
					},
					"indices":3,
					"material":0
				}
			]
		}
	],
	"accessors":[
		{
			"bufferView":0,
			"componentType":5126,
			"count":2034,
			"max":[
				64.87408447265625,
				9.325520515441895,
				10.58124828338623
			],
			"min":[
				-49.27556228637695,
				-438.38470458984375,
				-10.581250190734863
			],
			"type":"VEC3"
		},
		{
			"bufferView":1,
			"componentType":5126,
			"count":2034,
			"type":"VEC3"
		},
		{
			"bufferView":2,
			"componentType":5126,
			"count":2034,
			"type":"VEC2"
		},
		{
			"bufferView":3,
			"componentType":5123,
			"count":3192,
			"type":"SCALAR"
		}
	],
	"bufferViews":[
		{
			"buffer":0,
			"byteLength":24408,
			"byteOffset":0,
			"target":34962
		},
		{
			"buffer":0,
			"byteLength":24408,
			"byteOffset":24408,
			"target":34962
		},
		{
			"buffer":0,
			"byteLength":16272,
			"byteOffset":48816,
			"target":34962
		},
		{
			"buffer":0,
			"byteLength":6384,
			"byteOffset":65088,
			"target":34963
		}
	],
	"buffers":[
		{
			"byteLength":71472,
			"uri":"desert_SM_Prop_Hose_01.bin"
		}
	]
}
