{
	"asset":{
		"generator":"Khronos glTF Blender I/O v4.4.55",
		"version":"2.0"
	},
	"scene":0,
	"scenes":[
		{
			"name":"Scene",
			"nodes":[
				0
			]
		}
	],
	"nodes":[
		{
			"mesh":0,
			"name":"SM_Env_Rocks_Spikey_03",
			"rotation":[
				0.7071068286895752,
				0,
				0,
				0.7071068286895752
			],
			"scale":[
				0.009999999776482582,
				0.009999999776482582,
				0.009999999776482582
			],
			"translation":[
				-22.732023239135742,
				0,
				-26.95516586303711
			]
		}
	],
	"materials":[
		{
			"doubleSided":true,
			"emissiveFactor":[
				0.5,
				0.5,
				0.5
			],
			"name":"MAT_01A",
			"pbrMetallicRoughness":{
				"metallicFactor":0
			}
		}
	],
	"meshes":[
		{
			"name":"Mesh",
			"primitives":[
				{
					"attributes":{
						"POSITION":0,
						"NORMAL":1,
						"TEXCOORD_0":2
					},
					"indices":3,
					"material":0
				}
			]
		}
	],
	"accessors":[
		{
			"bufferView":0,
			"componentType":5126,
			"count":2592,
			"max":[
				2397.166259765625,
				2787.83984375,
				28.6688289642334
			],
			"min":[
				2149.23828125,
				2603.193359375,
				-187.97886657714844
			],
			"type":"VEC3"
		},
		{
			"bufferView":1,
			"componentType":5126,
			"count":2592,
			"type":"VEC3"
		},
		{
			"bufferView":2,
			"componentType":5126,
			"count":2592,
			"type":"VEC2"
		},
		{
			"bufferView":3,
			"componentType":5123,
			"count":2700,
			"type":"SCALAR"
		}
	],
	"bufferViews":[
		{
			"buffer":0,
			"byteLength":31104,
			"byteOffset":0,
			"target":34962
		},
		{
			"buffer":0,
			"byteLength":31104,
			"byteOffset":31104,
			"target":34962
		},
		{
			"buffer":0,
			"byteLength":20736,
			"byteOffset":62208,
			"target":34962
		},
		{
			"buffer":0,
			"byteLength":5400,
			"byteOffset":82944,
			"target":34963
		}
	],
	"buffers":[
		{
			"byteLength":88344,
			"uri":"desert_SM_Env_Rocks_Spikey_03.bin"
		}
	]
}
