{"asset":{"generator":"Khronos glTF Blender I/O v4.4.55","version":"2.0"},"extensionsUsed":["EXT_texture_webp"],"extensionsRequired":["EXT_texture_webp"],"scene":0,"scenes":[{"name":"Scene","nodes":[0]}],"nodes":[{"mesh":0,"name":"SM_Env_Rock_Small_04","rotation":[0.7071068286895752,0,0,0.7071068286895752],"scale":[0.009999999776482582,0.009999999776482582,0.009999999776482582],"translation":[-9.741921424865723,0,-5.379804611206055]}],"materials":[{"doubleSided":true,"name":"MAT_01A","pbrMetallicRoughness":{"baseColorTexture":{"index":2},"metallicFactor":0}}],"meshes":[{"name":"Mesh","primitives":[{"attributes":{"POSITION":0,"NORMAL":1,"TEXCOORD_0":2},"indices":3,"material":0}]}],"textures":[{"extensions":{},"sampler":0},{"extensions":{},"sampler":0},{"extensions":{"EXT_texture_webp":{"source":0}},"sampler":0}],"images":[{"mimeType":"image/webp","name":"PolygonNatureBiomesS2_AridDesert_Texture_01","uri":"PolygonNatureBiomesS2_AridDesert_Texture_01.webp"}],"accessors":[{"bufferView":0,"componentType":5126,"count":320,"max":[1056.57275390625,603.4429321289062,3.300140380859375],"min":[891.8117065429688,472.51806640625,-64.9873046875],"type":"VEC3"},{"bufferView":1,"componentType":5126,"count":320,"type":"VEC3"},{"bufferView":2,"componentType":5126,"count":320,"type":"VEC2"},{"bufferView":3,"componentType":5123,"count":342,"type":"SCALAR"}],"bufferViews":[{"buffer":0,"byteLength":3840,"byteOffset":0,"target":34962},{"buffer":0,"byteLength":3840,"byteOffset":3840,"target":34962},{"buffer":0,"byteLength":2560,"byteOffset":7680,"target":34962},{"buffer":0,"byteLength":684,"byteOffset":10240,"target":34963}],"samplers":[{"magFilter":9729,"minFilter":9987}],"buffers":[{"byteLength":10924,"uri":"desert_SM_Env_Rock_Small_04.bin"}]}