{
	"asset":{
		"generator":"Khronos glTF Blender I/O v4.4.55",
		"version":"2.0"
	},
	"scene":0,
	"scenes":[
		{
			"name":"Scene",
			"nodes":[
				2
			]
		}
	],
	"nodes":[
		{
			"mesh":0,
			"name":"SM_Env_GroundCover_03_LOD0"
		},
		{
			"mesh":1,
			"name":"SM_Env_GroundCover_03_LOD1"
		},
		{
			"children":[
				0,
				1
			],
			"name":"SM_Env_GroundCover_03",
			"rotation":[
				0.7071068286895752,
				0,
				0,
				0.7071068286895752
			],
			"scale":[
				0.009999999776482582,
				0.009999999776482582,
				0.009999999776482582
			]
		}
	],
	"materials":[
		{
			"doubleSided":true,
			"name":"AridDesert_GroundCover_MAT2",
			"pbrMetallicRoughness":{
				"metallicFactor":0
			}
		}
	],
	"meshes":[
		{
			"name":"Mesh",
			"primitives":[
				{
					"attributes":{
						"POSITION":0,
						"NORMAL":1,
						"TEXCOORD_0":2,
						"COLOR_0":3,
						"COLOR_1":4
					},
					"indices":5,
					"material":0
				}
			]
		},
		{
			"name":"Mesh.001",
			"primitives":[
				{
					"attributes":{
						"POSITION":6,
						"NORMAL":7,
						"TEXCOORD_0":8,
						"COLOR_0":9,
						"COLOR_1":10
					},
					"indices":11,
					"material":0
				}
			]
		}
	],
	"accessors":[
		{
			"bufferView":0,
			"componentType":5126,
			"count":545,
			"max":[
				184.07986450195312,
				152.34828186035156,
				11.716056823730469
			],
			"min":[
				-180.58749389648438,
				-156.54312133789062,
				-96.57750701904297
			],
			"type":"VEC3"
		},
		{
			"bufferView":1,
			"componentType":5126,
			"count":545,
			"type":"VEC3"
		},
		{
			"bufferView":2,
			"componentType":5126,
			"count":545,
			"type":"VEC2"
		},
		{
			"bufferView":3,
			"componentType":5121,
			"count":545,
			"normalized":true,
			"type":"VEC4"
		},
		{
			"bufferView":4,
			"componentType":5123,
			"count":545,
			"normalized":true,
			"type":"VEC4"
		},
		{
			"bufferView":5,
			"componentType":5123,
			"count":1002,
			"type":"SCALAR"
		},
		{
			"bufferView":6,
			"componentType":5126,
			"count":292,
			"max":[
				171.6181182861328,
				152.34828186035156,
				11.603302001953125
			],
			"min":[
				-151.23654174804688,
				-149.53533935546875,
				-96.57750701904297
			],
			"type":"VEC3"
		},
		{
			"bufferView":7,
			"componentType":5126,
			"count":292,
			"type":"VEC3"
		},
		{
			"bufferView":8,
			"componentType":5126,
			"count":292,
			"type":"VEC2"
		},
		{
			"bufferView":9,
			"componentType":5121,
			"count":292,
			"normalized":true,
			"type":"VEC4"
		},
		{
			"bufferView":10,
			"componentType":5123,
			"count":292,
			"normalized":true,
			"type":"VEC4"
		},
		{
			"bufferView":11,
			"componentType":5123,
			"count":438,
			"type":"SCALAR"
		}
	],
	"bufferViews":[
		{
			"buffer":0,
			"byteLength":6540,
			"byteOffset":0,
			"target":34962
		},
		{
			"buffer":0,
			"byteLength":6540,
			"byteOffset":6540,
			"target":34962
		},
		{
			"buffer":0,
			"byteLength":4360,
			"byteOffset":13080,
			"target":34962
		},
		{
			"buffer":0,
			"byteLength":2180,
			"byteOffset":17440,
			"target":34962
		},
		{
			"buffer":0,
			"byteLength":4360,
			"byteOffset":19620,
			"target":34962
		},
		{
			"buffer":0,
			"byteLength":2004,
			"byteOffset":23980,
			"target":34963
		},
		{
			"buffer":0,
			"byteLength":3504,
			"byteOffset":25984,
			"target":34962
		},
		{
			"buffer":0,
			"byteLength":3504,
			"byteOffset":29488,
			"target":34962
		},
		{
			"buffer":0,
			"byteLength":2336,
			"byteOffset":32992,
			"target":34962
		},
		{
			"buffer":0,
			"byteLength":1168,
			"byteOffset":35328,
			"target":34962
		},
		{
			"buffer":0,
			"byteLength":2336,
			"byteOffset":36496,
			"target":34962
		},
		{
			"buffer":0,
			"byteLength":876,
			"byteOffset":38832,
			"target":34963
		}
	],
	"buffers":[
		{
			"byteLength":39708,
			"uri":"desert_SM_Env_GroundCover_03.bin"
		}
	]
}
