{"asset":{"generator":"Khronos glTF Blender I/O v4.4.55","version":"2.0"},"extensionsUsed":["EXT_texture_webp"],"extensionsRequired":["EXT_texture_webp"],"scene":0,"scenes":[{"name":"Scene","nodes":[5]}],"nodes":[{"mesh":0,"name":"SM_Prop_Satellite_01_Leg_01"},{"mesh":1,"name":"SM_Prop_Satellite_01_Leg_02","rotation":[0,0,0.8660253882408142,0.4999999701976776]},{"mesh":2,"name":"SM_Prop_Satellite_01_Leg_03","rotation":[0,0,-0.8660253882408142,0.4999999701976776]},{"mesh":3,"name":"SM_Prop_Satellite_01_Dish_01"},{"children":[3],"mesh":4,"name":"SM_Prop_Satellite_01_Swivel_01"},{"children":[0,1,2,4],"mesh":5,"name":"SM_Prop_Satellite_01","rotation":[0.7071068286895752,0,0,0.7071068286895752],"scale":[0.009999999776482582,0.009999999776482582,0.009999999776482582]}],"materials":[{"doubleSided":true,"name":"MAT_01A","pbrMetallicRoughness":{"baseColorTexture":{"index":1},"metallicFactor":0}}],"meshes":[{"name":"Mesh.001","primitives":[{"attributes":{"POSITION":0,"NORMAL":1,"TEXCOORD_0":2},"indices":3,"material":0}]},{"name":"Mesh.002","primitives":[{"attributes":{"POSITION":4,"NORMAL":5,"TEXCOORD_0":6},"indices":7,"material":0}]},{"name":"Mesh.003","primitives":[{"attributes":{"POSITION":8,"NORMAL":9,"TEXCOORD_0":10},"indices":7,"material":0}]},{"name":"Mesh.005","primitives":[{"attributes":{"POSITION":11,"NORMAL":12,"TEXCOORD_0":13},"indices":14,"material":0}]},{"name":"Mesh.004","primitives":[{"attributes":{"POSITION":15,"NORMAL":16,"TEXCOORD_0":17},"indices":18,"material":0}]},{"name":"Mesh","primitives":[{"attributes":{"POSITION":19,"NORMAL":20,"TEXCOORD_0":21},"indices":22,"material":0}]}],"textures":[{"extensions":{},"sampler":0},{"extensions":{"EXT_texture_webp":{"source":0}},"sampler":0}],"images":[{"mimeType":"image/webp","name":"PolygonNatureBiomesS2_AridDesert_Texture_01","uri":"PolygonNatureBiomesS2_AridDesert_Texture_01.webp"}],"accessors":[{"bufferView":0,"componentType":5126,"count":180,"max":[6.792563438415527,22.438697814941406,68.14026641845703],"min":[-6.792563438415527,14.749610900878906,-7.20237922668457],"type":"VEC3"},{"bufferView":1,"componentType":5126,"count":180,"type":"VEC3"},{"bufferView":2,"componentType":5126,"count":180,"type":"VEC2"},{"bufferView":3,"componentType":5123,"count":324,"type":"SCALAR"},{"bufferView":4,"componentType":5126,"count":180,"max":[6.79256534576416,22.438697814941406,68.14026641845703],"min":[-6.7925615310668945,14.749610900878906,-7.20237922668457],"type":"VEC3"},{"bufferView":5,"componentType":5126,"count":180,"type":"VEC3"},{"bufferView":6,"componentType":5126,"count":180,"type":"VEC2"},{"bufferView":7,"componentType":5123,"count":324,"type":"SCALAR"},{"bufferView":8,"componentType":5126,"count":180,"max":[6.79256534576416,22.438697814941406,68.14026641845703],"min":[-6.7925615310668945,14.749610900878906,-7.20237922668457],"type":"VEC3"},{"bufferView":9,"componentType":5126,"count":180,"type":"VEC3"},{"bufferView":10,"componentType":5126,"count":180,"type":"VEC2"},{"bufferView":11,"componentType":5126,"count":1367,"max":[63.394283294677734,105.56473541259766,-24.708757400512695],"min":[-63.394283294677734,-63.35015869140625,-143.56842041015625],"type":"VEC3"},{"bufferView":12,"componentType":5126,"count":1367,"type":"VEC3"},{"bufferView":13,"componentType":5126,"count":1367,"type":"VEC2"},{"bufferView":14,"componentType":5123,"count":2535,"type":"SCALAR"},{"bufferView":15,"componentType":5126,"count":288,"max":[8.912301063537598,7.540068626403809,-12.727645874023438],"min":[-8.912301063537598,-10.353883743286133,-42.23938751220703],"type":"VEC3"},{"bufferView":16,"componentType":5126,"count":288,"type":"VEC3"},{"bufferView":17,"componentType":5126,"count":288,"type":"VEC2"},{"bufferView":18,"componentType":5123,"count":492,"type":"SCALAR"},{"bufferView":19,"componentType":5126,"count":336,"max":[22.94784164428711,23.27157211303711,0.9201273918151855],"min":[-22.947851181030273,-16.475269317626953,-14.851387023925781],"type":"VEC3"},{"bufferView":20,"componentType":5126,"count":336,"type":"VEC3"},{"bufferView":21,"componentType":5126,"count":336,"type":"VEC2"},{"bufferView":22,"componentType":5123,"count":618,"type":"SCALAR"}],"bufferViews":[{"buffer":0,"byteLength":2160,"byteOffset":0,"target":34962},{"buffer":0,"byteLength":2160,"byteOffset":2160,"target":34962},{"buffer":0,"byteLength":1440,"byteOffset":4320,"target":34962},{"buffer":0,"byteLength":648,"byteOffset":5760,"target":34963},{"buffer":0,"byteLength":2160,"byteOffset":6408,"target":34962},{"buffer":0,"byteLength":2160,"byteOffset":8568,"target":34962},{"buffer":0,"byteLength":1440,"byteOffset":10728,"target":34962},{"buffer":0,"byteLength":648,"byteOffset":12168,"target":34963},{"buffer":0,"byteLength":2160,"byteOffset":12816,"target":34962},{"buffer":0,"byteLength":2160,"byteOffset":14976,"target":34962},{"buffer":0,"byteLength":1440,"byteOffset":17136,"target":34962},{"buffer":0,"byteLength":16404,"byteOffset":18576,"target":34962},{"buffer":0,"byteLength":16404,"byteOffset":34980,"target":34962},{"buffer":0,"byteLength":10936,"byteOffset":51384,"target":34962},{"buffer":0,"byteLength":5070,"byteOffset":62320,"target":34963},{"buffer":0,"byteLength":3456,"byteOffset":67392,"target":34962},{"buffer":0,"byteLength":3456,"byteOffset":70848,"target":34962},{"buffer":0,"byteLength":2304,"byteOffset":74304,"target":34962},{"buffer":0,"byteLength":984,"byteOffset":76608,"target":34963},{"buffer":0,"byteLength":4032,"byteOffset":77592,"target":34962},{"buffer":0,"byteLength":4032,"byteOffset":81624,"target":34962},{"buffer":0,"byteLength":2688,"byteOffset":85656,"target":34962},{"buffer":0,"byteLength":1236,"byteOffset":88344,"target":34963}],"samplers":[{"magFilter":9729,"minFilter":9987}],"buffers":[{"byteLength":89580,"uri":"desert_SM_Prop_Satellite_01.bin"}]}