{"asset":{"generator":"Khronos glTF Blender I/O v4.4.55","version":"2.0"},"extensionsUsed":["EXT_texture_webp"],"extensionsRequired":["EXT_texture_webp"],"scene":0,"scenes":[{"name":"Scene","nodes":[0]}],"nodes":[{"mesh":0,"name":"SM_Env_Rock_07","rotation":[0.7071068286895752,0,0,0.7071068286895752],"scale":[0.009999999776482582,0.009999999776482582,0.009999999776482582]}],"materials":[{"doubleSided":true,"name":"MAT_01A","pbrMetallicRoughness":{"baseColorTexture":{"index":2},"metallicFactor":0}}],"meshes":[{"name":"Mesh","primitives":[{"attributes":{"POSITION":0,"NORMAL":1,"TEXCOORD_0":2,"TEXCOORD_1":3},"indices":4,"material":0}]}],"textures":[{"extensions":{},"sampler":0},{"extensions":{},"sampler":0},{"extensions":{"EXT_texture_webp":{"source":0}},"sampler":0}],"images":[{"mimeType":"image/webp","name":"PolygonNatureBiomesS2_AridDesert_Texture_01","uri":"PolygonNatureBiomesS2_AridDesert_Texture_01.webp"}],"accessors":[{"bufferView":0,"componentType":5126,"count":712,"max":[329.68896484375,210.80615234375,85.79800415039062],"min":[-329.6884765625,-210.80615234375,-770.484619140625],"type":"VEC3"},{"bufferView":1,"componentType":5126,"count":712,"type":"VEC3"},{"bufferView":2,"componentType":5126,"count":712,"type":"VEC2"},{"bufferView":3,"componentType":5126,"count":712,"type":"VEC2"},{"bufferView":4,"componentType":5123,"count":732,"type":"SCALAR"}],"bufferViews":[{"buffer":0,"byteLength":8544,"byteOffset":0,"target":34962},{"buffer":0,"byteLength":8544,"byteOffset":8544,"target":34962},{"buffer":0,"byteLength":5696,"byteOffset":17088,"target":34962},{"buffer":0,"byteLength":5696,"byteOffset":22784,"target":34962},{"buffer":0,"byteLength":1464,"byteOffset":28480,"target":34963}],"samplers":[{"magFilter":9729,"minFilter":9987}],"buffers":[{"byteLength":29944,"uri":"desert_SM_Env_Rock_07.bin"}]}