{
	"asset":{
		"generator":"Khronos glTF Blender I/O v4.4.55",
		"version":"2.0"
	},
	"scene":0,
	"scenes":[
		{
			"name":"Scene",
			"nodes":[
				0
			]
		}
	],
	"nodes":[
		{
			"mesh":0,
			"name":"SM_Env_Ground_Mound_Large_01",
			"rotation":[
				0.7071068286895752,
				0,
				0,
				0.7071068286895752
			],
			"scale":[
				0.004019781481474638,
				0.004019781481474638,
				0.004019781481474638
			]
		}
	],
	"materials":[
		{
			"doubleSided":true,
			"name":"lambert1906",
			"pbrMetallicRoughness":{
				"metallicFactor":0
			}
		}
	],
	"meshes":[
		{
			"name":"Mesh",
			"primitives":[
				{
					"attributes":{
						"POSITION":0,
						"NORMAL":1,
						"TEXCOORD_0":2
					},
					"indices":3,
					"material":0
				}
			]
		}
	],
	"accessors":[
		{
			"bufferView":0,
			"componentType":5126,
			"count":519,
			"max":[
				1841.501953125,
				1812.2264404296875,
				308.9372253417969
			],
			"min":[
				-1822.979248046875,
				-1917.653564453125,
				-11.641569137573242
			],
			"type":"VEC3"
		},
		{
			"bufferView":1,
			"componentType":5126,
			"count":519,
			"type":"VEC3"
		},
		{
			"bufferView":2,
			"componentType":5126,
			"count":519,
			"type":"VEC2"
		},
		{
			"bufferView":3,
			"componentType":5123,
			"count":768,
			"type":"SCALAR"
		}
	],
	"bufferViews":[
		{
			"buffer":0,
			"byteLength":6228,
			"byteOffset":0,
			"target":34962
		},
		{
			"buffer":0,
			"byteLength":6228,
			"byteOffset":6228,
			"target":34962
		},
		{
			"buffer":0,
			"byteLength":4152,
			"byteOffset":12456,
			"target":34962
		},
		{
			"buffer":0,
			"byteLength":1536,
			"byteOffset":16608,
			"target":34963
		}
	],
	"buffers":[
		{
			"byteLength":18144,
			"uri":"desert_SM_Env_Ground_Mound_Large_01.bin"
		}
	]
}
