{
	"asset":{
		"generator":"Khronos glTF Blender I/O v4.4.55",
		"version":"2.0"
	},
	"scene":0,
	"scenes":[
		{
			"name":"Scene",
			"nodes":[
				0
			]
		}
	],
	"nodes":[
		{
			"mesh":0,
			"name":"SM_Env_Rock_Arch_Half_01",
			"rotation":[
				0.7071068286895752,
				0,
				0,
				0.7071068286895752
			],
			"scale":[
				0.009999999776482582,
				0.009999999776482582,
				0.009999999776482582
			]
		}
	],
	"materials":[
		{
			"doubleSided":true,
			"emissiveFactor":[
				0.5,
				0.5,
				0.5
			],
			"name":"MAT_01A",
			"pbrMetallicRoughness":{
				"metallicFactor":0
			}
		}
	],
	"meshes":[
		{
			"name":"Mesh",
			"primitives":[
				{
					"attributes":{
						"POSITION":0,
						"NORMAL":1,
						"TEXCOORD_0":2
					},
					"indices":3,
					"material":0
				}
			]
		}
	],
	"accessors":[
		{
			"bufferView":0,
			"componentType":5126,
			"count":4490,
			"max":[
				603.4490966796875,
				396.68756103515625,
				111.5326919555664
			],
			"min":[
				-361.4532470703125,
				-353.19573974609375,
				-795.8786010742188
			],
			"type":"VEC3"
		},
		{
			"bufferView":1,
			"componentType":5126,
			"count":4490,
			"type":"VEC3"
		},
		{
			"bufferView":2,
			"componentType":5126,
			"count":4490,
			"type":"VEC2"
		},
		{
			"bufferView":3,
			"componentType":5123,
			"count":4674,
			"type":"SCALAR"
		}
	],
	"bufferViews":[
		{
			"buffer":0,
			"byteLength":53880,
			"byteOffset":0,
			"target":34962
		},
		{
			"buffer":0,
			"byteLength":53880,
			"byteOffset":53880,
			"target":34962
		},
		{
			"buffer":0,
			"byteLength":35920,
			"byteOffset":107760,
			"target":34962
		},
		{
			"buffer":0,
			"byteLength":9348,
			"byteOffset":143680,
			"target":34963
		}
	],
	"buffers":[
		{
			"byteLength":153028,
			"uri":"desert_SM_Env_Rock_Arch_Half_01.bin"
		}
	]
}
