{
	"asset":{
		"generator":"Khronos glTF Blender I/O v4.4.55",
		"version":"2.0"
	},
	"scene":0,
	"scenes":[
		{
			"name":"Scene",
			"nodes":[
				0
			]
		}
	],
	"nodes":[
		{
			"mesh":0,
			"name":"SM_Env_Rock_Rough_01",
			"rotation":[
				0.7071068286895752,
				0,
				0,
				0.7071068286895752
			],
			"scale":[
				0.009999999776482582,
				0.009999999776482582,
				0.009999999776482582
			]
		}
	],
	"materials":[
		{
			"doubleSided":true,
			"emissiveFactor":[
				0.5,
				0.5,
				0.5
			],
			"name":"MAT_01A",
			"pbrMetallicRoughness":{
				"metallicFactor":0
			}
		}
	],
	"meshes":[
		{
			"name":"Mesh",
			"primitives":[
				{
					"attributes":{
						"POSITION":0,
						"NORMAL":1,
						"TEXCOORD_0":2
					},
					"indices":3,
					"material":0
				}
			]
		}
	],
	"accessors":[
		{
			"bufferView":0,
			"componentType":5126,
			"count":6533,
			"max":[
				444.2591247558594,
				376.88519287109375,
				206.35997009277344
			],
			"min":[
				-413.5852966308594,
				-445.9391174316406,
				-107.5866928100586
			],
			"type":"VEC3"
		},
		{
			"bufferView":1,
			"componentType":5126,
			"count":6533,
			"type":"VEC3"
		},
		{
			"bufferView":2,
			"componentType":5126,
			"count":6533,
			"type":"VEC2"
		},
		{
			"bufferView":3,
			"componentType":5123,
			"count":6990,
			"type":"SCALAR"
		}
	],
	"bufferViews":[
		{
			"buffer":0,
			"byteLength":78396,
			"byteOffset":0,
			"target":34962
		},
		{
			"buffer":0,
			"byteLength":78396,
			"byteOffset":78396,
			"target":34962
		},
		{
			"buffer":0,
			"byteLength":52264,
			"byteOffset":156792,
			"target":34962
		},
		{
			"buffer":0,
			"byteLength":13980,
			"byteOffset":209056,
			"target":34963
		}
	],
	"buffers":[
		{
			"byteLength":223036,
			"uri":"desert_SM_Env_Rock_Rough_01.bin"
		}
	]
}
