{
	"asset":{
		"generator":"Khronos glTF Blender I/O v4.4.55",
		"version":"2.0"
	},
	"extensionsUsed":[
		"EXT_texture_webp"
	],
	"extensionsRequired":[
		"EXT_texture_webp"
	],
	"scene":0,
	"scenes":[
		{
			"name":"Scene",
			"nodes":[
				0
			]
		}
	],
	"nodes":[
		{
			"mesh":0,
			"name":"SM_Env_Cloud_Ring_01",
			"rotation":[
				0.7071068286895752,
				0,
				0,
				0.7071068286895752
			],
			"scale":[
				0.009999999776482582,
				0.009999999776482582,
				0.009999999776482582
			]
		}
	],
	"materials":[
		{
			"doubleSided":true,
			"name":"NatureSHD",
			"pbrMetallicRoughness":{
				"baseColorTexture":{
					"index":0
				},
				"metallicFactor":0
			}
		}
	],
	"meshes":[
		{
			"name":"Mesh",
			"primitives":[
				{
					"attributes":{
						"POSITION":0,
						"NORMAL":1,
						"TEXCOORD_0":2
					},
					"indices":3,
					"material":0
				}
			]
		}
	],
	"textures":[
		{
			"extensions":{
				"EXT_texture_webp":{
					"source":0
				}
			},
			"sampler":0
		}
	],
	"images":[
		{
			"mimeType":"image/webp",
			"name":"PolygonNatureBiomesS2_AridDesert_Texture_01",
			"uri":"PolygonNatureBiomesS2_AridDesert_Texture_01.webp"
		}
	],
	"accessors":[
		{
			"bufferView":0,
			"componentType":5126,
			"count":16181,
			"max":[
				13204.02734375,
				12609.984375,
				-1975.21337890625
			],
			"min":[
				-14542.21875,
				-13332.4296875,
				-4581.365234375
			],
			"type":"VEC3"
		},
		{
			"bufferView":1,
			"componentType":5126,
			"count":16181,
			"type":"VEC3"
		},
		{
			"bufferView":2,
			"componentType":5126,
			"count":16181,
			"type":"VEC2"
		},
		{
			"bufferView":3,
			"componentType":5123,
			"count":43368,
			"type":"SCALAR"
		}
	],
	"bufferViews":[
		{
			"buffer":0,
			"byteLength":194172,
			"byteOffset":0,
			"target":34962
		},
		{
			"buffer":0,
			"byteLength":194172,
			"byteOffset":194172,
			"target":34962
		},
		{
			"buffer":0,
			"byteLength":129448,
			"byteOffset":388344,
			"target":34962
		},
		{
			"buffer":0,
			"byteLength":86736,
			"byteOffset":517792,
			"target":34963
		}
	],
	"samplers":[
		{
			"magFilter":9729,
			"minFilter":9987
		}
	],
	"buffers":[
		{
			"byteLength":604528,
			"uri":"desert_SM_Env_Cloud_Ring_01.bin"
		}
	]
}
