{
	"asset":{
		"generator":"Khronos glTF Blender I/O v4.4.55",
		"version":"2.0"
	},
	"extensionsUsed":[
		"EXT_texture_webp"
	],
	"extensionsRequired":[
		"EXT_texture_webp"
	],
	"scene":0,
	"scenes":[
		{
			"name":"Scene",
			"nodes":[
				0
			]
		}
	],
	"nodes":[
		{
			"mesh":0,
			"name":"SM_Prop_Bones_07",
			"rotation":[
				0.7071068286895752,
				0,
				0,
				0.7071068286895752
			],
			"scale":[
				0.009999999776482582,
				0.009999999776482582,
				0.009999999776482582
			]
		}
	],
	"materials":[
		{
			"doubleSided":true,
			"name":"txt6",
			"pbrMetallicRoughness":{
				"baseColorTexture":{
					"index":0
				},
				"metallicFactor":0
			}
		}
	],
	"meshes":[
		{
			"name":"Mesh",
			"primitives":[
				{
					"attributes":{
						"POSITION":0,
						"NORMAL":1,
						"TEXCOORD_0":2
					},
					"indices":3,
					"material":0
				}
			]
		}
	],
	"textures":[
		{
			"extensions":{
				"EXT_texture_webp":{
					"source":0
				}
			},
			"sampler":0
		}
	],
	"images":[
		{
			"mimeType":"image/webp",
			"name":"PolygonNatureBiomesS2_AridDesert_Texture_01",
			"uri":"PolygonNatureBiomesS2_AridDesert_Texture_01.webp"
		}
	],
	"accessors":[
		{
			"bufferView":0,
			"componentType":5126,
			"count":7551,
			"max":[
				85.92713165283203,
				81.4029769897461,
				1.8985379934310913
			],
			"min":[
				-93.85452270507812,
				-83.41693115234375,
				-33.32396697998047
			],
			"type":"VEC3"
		},
		{
			"bufferView":1,
			"componentType":5126,
			"count":7551,
			"type":"VEC3"
		},
		{
			"bufferView":2,
			"componentType":5126,
			"count":7551,
			"type":"VEC2"
		},
		{
			"bufferView":3,
			"componentType":5123,
			"count":10764,
			"type":"SCALAR"
		}
	],
	"bufferViews":[
		{
			"buffer":0,
			"byteLength":90612,
			"byteOffset":0,
			"target":34962
		},
		{
			"buffer":0,
			"byteLength":90612,
			"byteOffset":90612,
			"target":34962
		},
		{
			"buffer":0,
			"byteLength":60408,
			"byteOffset":181224,
			"target":34962
		},
		{
			"buffer":0,
			"byteLength":21528,
			"byteOffset":241632,
			"target":34963
		}
	],
	"samplers":[
		{
			"magFilter":9729,
			"minFilter":9987
		}
	],
	"buffers":[
		{
			"byteLength":263160,
			"uri":"desert_SM_Prop_Bones_07.bin"
		}
	]
}
