{
	"asset":{
		"generator":"Khronos glTF Blender I/O v4.4.55",
		"version":"2.0"
	},
	"extensionsUsed":[
		"EXT_texture_webp"
	],
	"extensionsRequired":[
		"EXT_texture_webp"
	],
	"scene":0,
	"scenes":[
		{
			"name":"Scene",
			"nodes":[
				0
			]
		}
	],
	"nodes":[
		{
			"mesh":0,
			"name":"SM_Env_Rock_12",
			"rotation":[
				0.7071068286895752,
				0,
				0,
				0.7071068286895752
			],
			"scale":[
				0.009999999776482582,
				0.009999999776482582,
				0.009999999776482582
			]
		}
	],
	"materials":[
		{
			"doubleSided":true,
			"emissiveFactor":[
				1,
				1,
				1
			],
			"emissiveTexture":{
				"index":0
			},
			"name":"MAT_01A",
			"normalTexture":{
				"index":1
			},
			"pbrMetallicRoughness":{
				"baseColorTexture":{
					"index":2
				},
				"metallicFactor":0
			}
		}
	],
	"meshes":[
		{
			"name":"Mesh",
			"primitives":[
				{
					"attributes":{
						"POSITION":0,
						"NORMAL":1,
						"TEXCOORD_0":2,
						"TEXCOORD_1":3
					},
					"indices":4,
					"material":0
				}
			]
		}
	],
	"textures":[
		{
			"extensions":{},
			"sampler":0
		},
		{
			"extensions":{},
			"sampler":0
		},
		{
			"extensions":{
				"EXT_texture_webp":{
					"source":0
				}
			},
			"sampler":0
		}
	],
	"images":[
		{
			"mimeType":"image/webp",
			"name":"PolygonNatureBiomesS2_AridDesert_Texture_01",
			"uri":"PolygonNatureBiomesS2_AridDesert_Texture_01.webp"
		}
	],
	"accessors":[
		{
			"bufferView":0,
			"componentType":5126,
			"count":194,
			"max":[
				112.9794921875,
				128.0283203125,
				85.79803466796875
			],
			"min":[
				-112.9794921875,
				-128.02880859375,
				-326.0511779785156
			],
			"type":"VEC3"
		},
		{
			"bufferView":1,
			"componentType":5126,
			"count":194,
			"type":"VEC3"
		},
		{
			"bufferView":2,
			"componentType":5126,
			"count":194,
			"type":"VEC2"
		},
		{
			"bufferView":3,
			"componentType":5126,
			"count":194,
			"type":"VEC2"
		},
		{
			"bufferView":4,
			"componentType":5123,
			"count":198,
			"type":"SCALAR"
		}
	],
	"bufferViews":[
		{
			"buffer":0,
			"byteLength":2328,
			"byteOffset":0,
			"target":34962
		},
		{
			"buffer":0,
			"byteLength":2328,
			"byteOffset":2328,
			"target":34962
		},
		{
			"buffer":0,
			"byteLength":1552,
			"byteOffset":4656,
			"target":34962
		},
		{
			"buffer":0,
			"byteLength":1552,
			"byteOffset":6208,
			"target":34962
		},
		{
			"buffer":0,
			"byteLength":396,
			"byteOffset":7760,
			"target":34963
		}
	],
	"samplers":[
		{
			"magFilter":9729,
			"minFilter":9987
		}
	],
	"buffers":[
		{
			"byteLength":8156,
			"uri":"desert_SM_Env_Rock_12.bin"
		}
	]
}
