{
	"asset":{
		"generator":"Khronos glTF Blender I/O v4.4.55",
		"version":"2.0"
	},
	"scene":0,
	"scenes":[
		{
			"name":"Scene",
			"nodes":[
				3
			]
		}
	],
	"nodes":[
		{
			"mesh":0,
			"name":"SM_Env_Grass_01_LOD0"
		},
		{
			"mesh":1,
			"name":"SM_Env_Grass_01_LOD1"
		},
		{
			"mesh":2,
			"name":"SM_Env_Grass_01_LOD2"
		},
		{
			"children":[
				0,
				1,
				2
			],
			"name":"SM_Env_Grass_01",
			"rotation":[
				0.7071068286895752,
				0,
				0,
				0.7071068286895752
			],
			"scale":[
				0.009999999776482582,
				0.009999999776482582,
				0.009999999776482582
			]
		}
	],
	"materials":[
		{
			"doubleSided":true,
			"name":"grassSHD",
			"pbrMetallicRoughness":{
				"metallicFactor":0
			}
		},
		{
			"doubleSided":true,
			"name":"grassSHD13",
			"pbrMetallicRoughness":{
				"metallicFactor":0
			}
		}
	],
	"meshes":[
		{
			"name":"Mesh",
			"primitives":[
				{
					"attributes":{
						"POSITION":0,
						"NORMAL":1,
						"TEXCOORD_0":2,
						"COLOR_0":3,
						"COLOR_1":4
					},
					"indices":5,
					"material":0
				}
			]
		},
		{
			"name":"Mesh.001",
			"primitives":[
				{
					"attributes":{
						"POSITION":6,
						"NORMAL":7,
						"TEXCOORD_0":8,
						"COLOR_0":9,
						"COLOR_1":10
					},
					"indices":11,
					"material":0
				}
			]
		},
		{
			"name":"Mesh.002",
			"primitives":[
				{
					"attributes":{
						"POSITION":12,
						"NORMAL":13,
						"TEXCOORD_0":14,
						"COLOR_0":15,
						"COLOR_1":16
					},
					"indices":17,
					"material":1
				}
			]
		}
	],
	"accessors":[
		{
			"bufferView":0,
			"componentType":5126,
			"count":52,
			"max":[
				83.64349365234375,
				95.13683319091797,
				5.507890701293945
			],
			"min":[
				-88.32183837890625,
				-78.27154541015625,
				-93.86012268066406
			],
			"type":"VEC3"
		},
		{
			"bufferView":1,
			"componentType":5126,
			"count":52,
			"type":"VEC3"
		},
		{
			"bufferView":2,
			"componentType":5126,
			"count":52,
			"type":"VEC2"
		},
		{
			"bufferView":3,
			"componentType":5121,
			"count":52,
			"normalized":true,
			"type":"VEC4"
		},
		{
			"bufferView":4,
			"componentType":5123,
			"count":52,
			"normalized":true,
			"type":"VEC4"
		},
		{
			"bufferView":5,
			"componentType":5123,
			"count":78,
			"type":"SCALAR"
		},
		{
			"bufferView":6,
			"componentType":5126,
			"count":32,
			"max":[
				83.64349365234375,
				95.13683319091797,
				5.507890701293945
			],
			"min":[
				-88.32183837890625,
				-72.41680145263672,
				-86.33283996582031
			],
			"type":"VEC3"
		},
		{
			"bufferView":7,
			"componentType":5126,
			"count":32,
			"type":"VEC3"
		},
		{
			"bufferView":8,
			"componentType":5126,
			"count":32,
			"type":"VEC2"
		},
		{
			"bufferView":9,
			"componentType":5121,
			"count":32,
			"normalized":true,
			"type":"VEC4"
		},
		{
			"bufferView":10,
			"componentType":5123,
			"count":32,
			"normalized":true,
			"type":"VEC4"
		},
		{
			"bufferView":11,
			"componentType":5123,
			"count":48,
			"type":"SCALAR"
		},
		{
			"bufferView":12,
			"componentType":5126,
			"count":16,
			"max":[
				94.45491790771484,
				94.45491790771484,
				2.686995267868042
			],
			"min":[
				-94.874755859375,
				-94.874755859375,
				-97.31300354003906
			],
			"type":"VEC3"
		},
		{
			"bufferView":13,
			"componentType":5126,
			"count":16,
			"type":"VEC3"
		},
		{
			"bufferView":14,
			"componentType":5126,
			"count":16,
			"type":"VEC2"
		},
		{
			"bufferView":15,
			"componentType":5121,
			"count":16,
			"normalized":true,
			"type":"VEC4"
		},
		{
			"bufferView":16,
			"componentType":5123,
			"count":16,
			"normalized":true,
			"type":"VEC4"
		},
		{
			"bufferView":17,
			"componentType":5123,
			"count":24,
			"type":"SCALAR"
		}
	],
	"bufferViews":[
		{
			"buffer":0,
			"byteLength":624,
			"byteOffset":0,
			"target":34962
		},
		{
			"buffer":0,
			"byteLength":624,
			"byteOffset":624,
			"target":34962
		},
		{
			"buffer":0,
			"byteLength":416,
			"byteOffset":1248,
			"target":34962
		},
		{
			"buffer":0,
			"byteLength":208,
			"byteOffset":1664,
			"target":34962
		},
		{
			"buffer":0,
			"byteLength":416,
			"byteOffset":1872,
			"target":34962
		},
		{
			"buffer":0,
			"byteLength":156,
			"byteOffset":2288,
			"target":34963
		},
		{
			"buffer":0,
			"byteLength":384,
			"byteOffset":2444,
			"target":34962
		},
		{
			"buffer":0,
			"byteLength":384,
			"byteOffset":2828,
			"target":34962
		},
		{
			"buffer":0,
			"byteLength":256,
			"byteOffset":3212,
			"target":34962
		},
		{
			"buffer":0,
			"byteLength":128,
			"byteOffset":3468,
			"target":34962
		},
		{
			"buffer":0,
			"byteLength":256,
			"byteOffset":3596,
			"target":34962
		},
		{
			"buffer":0,
			"byteLength":96,
			"byteOffset":3852,
			"target":34963
		},
		{
			"buffer":0,
			"byteLength":192,
			"byteOffset":3948,
			"target":34962
		},
		{
			"buffer":0,
			"byteLength":192,
			"byteOffset":4140,
			"target":34962
		},
		{
			"buffer":0,
			"byteLength":128,
			"byteOffset":4332,
			"target":34962
		},
		{
			"buffer":0,
			"byteLength":64,
			"byteOffset":4460,
			"target":34962
		},
		{
			"buffer":0,
			"byteLength":128,
			"byteOffset":4524,
			"target":34962
		},
		{
			"buffer":0,
			"byteLength":48,
			"byteOffset":4652,
			"target":34963
		}
	],
	"buffers":[
		{
			"byteLength":4700,
			"uri":"desert_SM_Env_Grass_01.bin"
		}
	]
}
