{
	"asset":{
		"generator":"Khronos glTF Blender I/O v4.4.55",
		"version":"2.0"
	},
	"scene":0,
	"scenes":[
		{
			"name":"Scene",
			"nodes":[
				0
			]
		}
	],
	"nodes":[
		{
			"mesh":0,
			"name":"SM_Env_Rock_04",
			"rotation":[
				0.7071068286895752,
				0,
				0,
				0.7071068286895752
			],
			"scale":[
				0.009999999776482582,
				0.009999999776482582,
				0.009999999776482582
			],
			"translation":[
				-20.346498489379883,
				0,
				-8.596688270568848
			]
		}
	],
	"materials":[
		{
			"doubleSided":true,
			"emissiveFactor":[
				0.5,
				0.5,
				0.5
			],
			"name":"MAT_01A",
			"pbrMetallicRoughness":{
				"metallicFactor":0
			}
		}
	],
	"meshes":[
		{
			"name":"Mesh",
			"primitives":[
				{
					"attributes":{
						"POSITION":0,
						"NORMAL":1,
						"TEXCOORD_0":2
					},
					"indices":3,
					"material":0
				}
			]
		}
	],
	"accessors":[
		{
			"bufferView":0,
			"componentType":5126,
			"count":1724,
			"max":[
				2164.7138671875,
				944.7747802734375,
				19.403884887695312
			],
			"min":[
				1904.5858154296875,
				774.5629272460938,
				-163.08993530273438
			],
			"type":"VEC3"
		},
		{
			"bufferView":1,
			"componentType":5126,
			"count":1724,
			"type":"VEC3"
		},
		{
			"bufferView":2,
			"componentType":5126,
			"count":1724,
			"type":"VEC2"
		},
		{
			"bufferView":3,
			"componentType":5123,
			"count":1788,
			"type":"SCALAR"
		}
	],
	"bufferViews":[
		{
			"buffer":0,
			"byteLength":20688,
			"byteOffset":0,
			"target":34962
		},
		{
			"buffer":0,
			"byteLength":20688,
			"byteOffset":20688,
			"target":34962
		},
		{
			"buffer":0,
			"byteLength":13792,
			"byteOffset":41376,
			"target":34962
		},
		{
			"buffer":0,
			"byteLength":3576,
			"byteOffset":55168,
			"target":34963
		}
	],
	"buffers":[
		{
			"byteLength":58744,
			"uri":"desert_SM_Env_Rock_04.bin"
		}
	]
}
