{
	"asset":{
		"generator":"Khronos glTF Blender I/O v4.4.55",
		"version":"2.0"
	},
	"scene":0,
	"scenes":[
		{
			"name":"Scene",
			"nodes":[
				0
			]
		}
	],
	"nodes":[
		{
			"mesh":0,
			"name":"SM_Env_Rock_Cliff_01",
			"rotation":[
				0.7071068286895752,
				0,
				0,
				0.7071068286895752
			],
			"scale":[
				0.009999999776482582,
				0.009999999776482582,
				0.009999999776482582
			]
		}
	],
	"materials":[
		{
			"doubleSided":true,
			"emissiveFactor":[
				0.5,
				0.5,
				0.5
			],
			"name":"MAT_01A",
			"pbrMetallicRoughness":{
				"metallicFactor":0
			}
		}
	],
	"meshes":[
		{
			"name":"Mesh",
			"primitives":[
				{
					"attributes":{
						"POSITION":0,
						"NORMAL":1,
						"TEXCOORD_0":2
					},
					"indices":3,
					"material":0
				}
			]
		}
	],
	"accessors":[
		{
			"bufferView":0,
			"componentType":5126,
			"count":3466,
			"max":[
				596.12744140625,
				448.4715576171875,
				130.09689331054688
			],
			"min":[
				-596.12744140625,
				-448.4718017578125,
				-840.6015625
			],
			"type":"VEC3"
		},
		{
			"bufferView":1,
			"componentType":5126,
			"count":3466,
			"type":"VEC3"
		},
		{
			"bufferView":2,
			"componentType":5126,
			"count":3466,
			"type":"VEC2"
		},
		{
			"bufferView":3,
			"componentType":5123,
			"count":3600,
			"type":"SCALAR"
		}
	],
	"bufferViews":[
		{
			"buffer":0,
			"byteLength":41592,
			"byteOffset":0,
			"target":34962
		},
		{
			"buffer":0,
			"byteLength":41592,
			"byteOffset":41592,
			"target":34962
		},
		{
			"buffer":0,
			"byteLength":27728,
			"byteOffset":83184,
			"target":34962
		},
		{
			"buffer":0,
			"byteLength":7200,
			"byteOffset":110912,
			"target":34963
		}
	],
	"buffers":[
		{
			"byteLength":118112,
			"uri":"desert_SM_Env_Rock_Cliff_01.bin"
		}
	]
}
