{
	"asset":{
		"generator":"Khronos glTF Blender I/O v4.4.55",
		"version":"2.0"
	},
	"extensionsUsed":[
		"EXT_texture_webp"
	],
	"extensionsRequired":[
		"EXT_texture_webp"
	],
	"scene":0,
	"scenes":[
		{
			"name":"Scene",
			"nodes":[
				0
			]
		}
	],
	"nodes":[
		{
			"mesh":0,
			"name":"SM_Env_Rocks_Spikey_01",
			"rotation":[
				0.7071068286895752,
				0,
				0,
				0.7071068286895752
			],
			"scale":[
				0.009999999776482582,
				0.009999999776482582,
				0.009999999776482582
			],
			"translation":[
				-23.48472785949707,
				0,
				-24.404409408569336
			]
		}
	],
	"materials":[
		{
			"doubleSided":true,
			"emissiveFactor":[
				1,
				1,
				1
			],
			"emissiveTexture":{
				"index":0
			},
			"name":"MAT_01A",
			"normalTexture":{
				"index":1
			},
			"pbrMetallicRoughness":{
				"baseColorTexture":{
					"index":2
				},
				"metallicFactor":0
			}
		}
	],
	"meshes":[
		{
			"name":"Mesh",
			"primitives":[
				{
					"attributes":{
						"POSITION":0,
						"NORMAL":1,
						"TEXCOORD_0":2
					},
					"indices":3,
					"material":0
				}
			]
		}
	],
	"textures":[
		{
			"extensions":{},
			"sampler":0
		},
		{
			"extensions":{},
			"sampler":0
		},
		{
			"extensions":{
				"EXT_texture_webp":{
					"source":0
				}
			},
			"sampler":0
		}
	],
	"images":[
		{
			"mimeType":"image/webp",
			"name":"PolygonNatureBiomesS2_AridDesert_Texture_01",
			"uri":"PolygonNatureBiomesS2_AridDesert_Texture_01.webp"
		}
	],
	"accessors":[
		{
			"bufferView":0,
			"componentType":5126,
			"count":3334,
			"max":[
				2527.104736328125,
				2565.742431640625,
				23.219940185546875
			],
			"min":[
				2169.8408203125,
				2315.139404296875,
				-296.3896179199219
			],
			"type":"VEC3"
		},
		{
			"bufferView":1,
			"componentType":5126,
			"count":3334,
			"type":"VEC3"
		},
		{
			"bufferView":2,
			"componentType":5126,
			"count":3334,
			"type":"VEC2"
		},
		{
			"bufferView":3,
			"componentType":5123,
			"count":3576,
			"type":"SCALAR"
		}
	],
	"bufferViews":[
		{
			"buffer":0,
			"byteLength":40008,
			"byteOffset":0,
			"target":34962
		},
		{
			"buffer":0,
			"byteLength":40008,
			"byteOffset":40008,
			"target":34962
		},
		{
			"buffer":0,
			"byteLength":26672,
			"byteOffset":80016,
			"target":34962
		},
		{
			"buffer":0,
			"byteLength":7152,
			"byteOffset":106688,
			"target":34963
		}
	],
	"samplers":[
		{
			"magFilter":9729,
			"minFilter":9987
		}
	],
	"buffers":[
		{
			"byteLength":113840,
			"uri":"desert_SM_Env_Rocks_Spikey_01.bin"
		}
	]
}
