{"asset":{"generator":"Khronos glTF Blender I/O v4.4.55","version":"2.0"},"extensionsUsed":["EXT_texture_webp"],"extensionsRequired":["EXT_texture_webp"],"scene":0,"scenes":[{"name":"Scene","nodes":[0]}],"nodes":[{"mesh":0,"name":"SM_Env_Rock_03","rotation":[0.7071068286895752,0,0,0.7071068286895752],"scale":[0.009999999776482582,0.009999999776482582,0.009999999776482582],"translation":[-16.23638343811035,0,-9.081501960754395]}],"materials":[{"doubleSided":true,"name":"MAT_01A","pbrMetallicRoughness":{"baseColorTexture":{"index":2},"metallicFactor":0}}],"meshes":[{"name":"Mesh","primitives":[{"attributes":{"POSITION":0,"NORMAL":1,"TEXCOORD_0":2},"indices":3,"material":0}]}],"textures":[{"extensions":{},"sampler":0},{"extensions":{},"sampler":0},{"extensions":{"EXT_texture_webp":{"source":0}},"sampler":0}],"images":[{"mimeType":"image/webp","name":"PolygonNatureBiomesS2_AridDesert_Texture_01","uri":"PolygonNatureBiomesS2_AridDesert_Texture_01.webp"}],"accessors":[{"bufferView":0,"componentType":5126,"count":1732,"max":[1842.6820068359375,1018.8743286132812,49.85420227050781],"min":[1404.5948486328125,776.01220703125,-196.19586181640625],"type":"VEC3"},{"bufferView":1,"componentType":5126,"count":1732,"type":"VEC3"},{"bufferView":2,"componentType":5126,"count":1732,"type":"VEC2"},{"bufferView":3,"componentType":5123,"count":1776,"type":"SCALAR"}],"bufferViews":[{"buffer":0,"byteLength":20784,"byteOffset":0,"target":34962},{"buffer":0,"byteLength":20784,"byteOffset":20784,"target":34962},{"buffer":0,"byteLength":13856,"byteOffset":41568,"target":34962},{"buffer":0,"byteLength":3552,"byteOffset":55424,"target":34963}],"samplers":[{"magFilter":9729,"minFilter":9987}],"buffers":[{"byteLength":58976,"uri":"desert_SM_Env_Rock_03.bin"}]}