{
	"asset":{
		"generator":"Khronos glTF Blender I/O v4.4.55",
		"version":"2.0"
	},
	"scene":0,
	"scenes":[
		{
			"name":"Scene",
			"nodes":[
				0
			]
		}
	],
	"nodes":[
		{
			"mesh":0,
			"name":"SM_Env_Crater_01",
			"rotation":[
				0.7071068286895752,
				0,
				0,
				0.7071068286895752
			],
			"scale":[
				0.009999999776482582,
				0.009999999776482582,
				0.009999999776482582
			]
		}
	],
	"materials":[
		{
			"doubleSided":true,
			"emissiveFactor":[
				0.5,
				0.5,
				0.5
			],
			"name":"MAT_01A1",
			"pbrMetallicRoughness":{
				"metallicFactor":0
			}
		}
	],
	"meshes":[
		{
			"name":"Mesh",
			"primitives":[
				{
					"attributes":{
						"POSITION":0,
						"NORMAL":1,
						"TEXCOORD_0":2
					},
					"indices":3,
					"material":0
				}
			]
		}
	],
	"accessors":[
		{
			"bufferView":0,
			"componentType":5126,
			"count":1725,
			"max":[
				347.9476318359375,
				343.48193359375,
				1.1348762512207031
			],
			"min":[
				-347.9476013183594,
				-343.48193359375,
				-135.9864044189453
			],
			"type":"VEC3"
		},
		{
			"bufferView":1,
			"componentType":5126,
			"count":1725,
			"type":"VEC3"
		},
		{
			"bufferView":2,
			"componentType":5126,
			"count":1725,
			"type":"VEC2"
		},
		{
			"bufferView":3,
			"componentType":5123,
			"count":1725,
			"type":"SCALAR"
		}
	],
	"bufferViews":[
		{
			"buffer":0,
			"byteLength":20700,
			"byteOffset":0,
			"target":34962
		},
		{
			"buffer":0,
			"byteLength":20700,
			"byteOffset":20700,
			"target":34962
		},
		{
			"buffer":0,
			"byteLength":13800,
			"byteOffset":41400,
			"target":34962
		},
		{
			"buffer":0,
			"byteLength":3450,
			"byteOffset":55200,
			"target":34963
		}
	],
	"buffers":[
		{
			"byteLength":58652,
			"uri":"desert_SM_Env_Crater_01.bin"
		}
	]
}
