{
	"asset":{
		"generator":"Khronos glTF Blender I/O v4.4.55",
		"version":"2.0"
	},
	"extensionsUsed":[
		"EXT_texture_webp"
	],
	"extensionsRequired":[
		"EXT_texture_webp"
	],
	"scene":0,
	"scenes":[
		{
			"name":"Scene",
			"nodes":[
				0
			]
		}
	],
	"nodes":[
		{
			"mesh":0,
			"name":"SM_Prop_Bones_04",
			"rotation":[
				0.7071068286895752,
				0,
				0,
				0.7071068286895752
			],
			"scale":[
				0.009999999776482582,
				0.009999999776482582,
				0.009999999776482582
			]
		}
	],
	"materials":[
		{
			"doubleSided":true,
			"name":"PolygonNatureBiomesS2_Alpine_Texture_01",
			"pbrMetallicRoughness":{
				"baseColorTexture":{
					"index":0
				},
				"metallicFactor":0
			}
		}
	],
	"meshes":[
		{
			"name":"Mesh",
			"primitives":[
				{
					"attributes":{
						"POSITION":0,
						"NORMAL":1,
						"TEXCOORD_0":2
					},
					"indices":3,
					"material":0
				}
			]
		}
	],
	"textures":[
		{
			"extensions":{
				"EXT_texture_webp":{
					"source":0
				}
			},
			"sampler":0
		}
	],
	"images":[
		{
			"mimeType":"image/webp",
			"name":"PolygonNatureBiomesS2_AridDesert_Texture_01",
			"uri":"PolygonNatureBiomesS2_AridDesert_Texture_01.webp"
		}
	],
	"accessors":[
		{
			"bufferView":0,
			"componentType":5126,
			"count":5916,
			"max":[
				50.917388916015625,
				84.18682098388672,
				77.43704986572266
			],
			"min":[
				-55.99959945678711,
				-87.13421630859375,
				-28.955394744873047
			],
			"type":"VEC3"
		},
		{
			"bufferView":1,
			"componentType":5126,
			"count":5916,
			"type":"VEC3"
		},
		{
			"bufferView":2,
			"componentType":5126,
			"count":5916,
			"type":"VEC2"
		},
		{
			"bufferView":3,
			"componentType":5123,
			"count":8544,
			"type":"SCALAR"
		}
	],
	"bufferViews":[
		{
			"buffer":0,
			"byteLength":70992,
			"byteOffset":0,
			"target":34962
		},
		{
			"buffer":0,
			"byteLength":70992,
			"byteOffset":70992,
			"target":34962
		},
		{
			"buffer":0,
			"byteLength":47328,
			"byteOffset":141984,
			"target":34962
		},
		{
			"buffer":0,
			"byteLength":17088,
			"byteOffset":189312,
			"target":34963
		}
	],
	"samplers":[
		{
			"magFilter":9729,
			"minFilter":9987
		}
	],
	"buffers":[
		{
			"byteLength":206400,
			"uri":"desert_SM_Prop_Bones_04.bin"
		}
	]
}
