{"asset":{"generator":"Khronos glTF Blender I/O v4.4.55","version":"2.0"},"extensionsUsed":["EXT_texture_webp"],"extensionsRequired":["EXT_texture_webp"],"scene":0,"scenes":[{"name":"Scene","nodes":[1]}],"nodes":[{"mesh":0,"name":"SM_Env_Sulphur_Pool_04_Water"},{"children":[0],"mesh":1,"name":"SM_Env_Sulphur_Pool_04","rotation":[0.7071068286895752,0,0,0.7071068286895752],"scale":[0.009999999776482582,0.009999999776482582,0.009999999776482582]}],"materials":[{"doubleSided":true,"name":"lambert2024","pbrMetallicRoughness":{"baseColorTexture":{"index":0},"metallicFactor":0}},{"alphaMode":"MASK","doubleSided":true,"name":"MAT_01A6","pbrMetallicRoughness":{"baseColorTexture":{"index":3},"metallicFactor":0},"alphaCutoff":0.5}],"meshes":[{"name":"Mesh.001","primitives":[{"attributes":{"POSITION":0,"NORMAL":1,"TEXCOORD_0":2},"indices":3,"material":0}]},{"name":"Mesh","primitives":[{"attributes":{"POSITION":4,"NORMAL":5,"TEXCOORD_0":6},"indices":7,"material":1}]}],"textures":[{"extensions":{"EXT_texture_webp":{"source":0}},"sampler":0},{"extensions":{},"sampler":0},{"extensions":{},"sampler":0},{"extensions":{"EXT_texture_webp":{"source":0}},"sampler":0}],"images":[{"mimeType":"image/webp","name":"PolygonNatureBiomesS2_AridDesert_Texture_01","uri":"PolygonNatureBiomesS2_AridDesert_Texture_01.webp"}],"accessors":[{"bufferView":0,"componentType":5126,"count":19,"max":[268.1083984375,378.7640380859375,-109.85114288330078],"min":[-380.9622802734375,-252.79891967773438,-109.85114288330078],"type":"VEC3"},{"bufferView":1,"componentType":5126,"count":19,"type":"VEC3"},{"bufferView":2,"componentType":5126,"count":19,"type":"VEC2"},{"bufferView":3,"componentType":5123,"count":39,"type":"SCALAR"},{"bufferView":4,"componentType":5126,"count":2950,"max":[367.81207275390625,461.7410888671875,0.46027567982673645],"min":[-394.54443359375,-293.49853515625,-131.2577667236328],"type":"VEC3"},{"bufferView":5,"componentType":5126,"count":2950,"type":"VEC3"},{"bufferView":6,"componentType":5126,"count":2950,"type":"VEC2"},{"bufferView":7,"componentType":5123,"count":2952,"type":"SCALAR"}],"bufferViews":[{"buffer":0,"byteLength":228,"byteOffset":0,"target":34962},{"buffer":0,"byteLength":228,"byteOffset":228,"target":34962},{"buffer":0,"byteLength":152,"byteOffset":456,"target":34962},{"buffer":0,"byteLength":78,"byteOffset":608,"target":34963},{"buffer":0,"byteLength":35400,"byteOffset":688,"target":34962},{"buffer":0,"byteLength":35400,"byteOffset":36088,"target":34962},{"buffer":0,"byteLength":23600,"byteOffset":71488,"target":34962},{"buffer":0,"byteLength":5904,"byteOffset":95088,"target":34963}],"samplers":[{"magFilter":9729,"minFilter":9987}],"buffers":[{"byteLength":100992,"uri":"desert_SM_Env_Sulphur_Pool_04.bin"}]}