{"asset":{"generator":"Khronos glTF Blender I/O v4.4.55","version":"2.0"},"extensionsUsed":["EXT_texture_webp"],"extensionsRequired":["EXT_texture_webp"],"scene":0,"scenes":[{"name":"Scene","nodes":[3]}],"nodes":[{"mesh":0,"name":"SM_Env_Succulent_01_LOD0"},{"mesh":1,"name":"SM_Env_Succulent_01_LOD1"},{"mesh":2,"name":"SM_Env_Succulent_01_LOD2"},{"children":[0,1,2],"name":"SM_Env_Succulent_01","rotation":[0.7071068286895752,0,0,0.7071068286895752],"scale":[0.009999999776482582,0.009999999776482582,0.009999999776482582]}],"materials":[{"doubleSided":true,"name":"MAT_01A1","pbrMetallicRoughness":{"baseColorTexture":{"index":2},"metallicFactor":0}},{"alphaMode":"BLEND","doubleSided":true,"name":"SucculentLeaves_MAT03","pbrMetallicRoughness":{"baseColorTexture":{"index":4},"metallicFactor":0}}],"meshes":[{"name":"Mesh","primitives":[{"attributes":{"POSITION":0,"NORMAL":1,"TEXCOORD_0":2},"indices":3,"material":0},{"attributes":{"POSITION":4,"NORMAL":5,"TEXCOORD_0":6},"indices":7,"material":1}]},{"name":"Mesh.001","primitives":[{"attributes":{"POSITION":8,"NORMAL":9,"TEXCOORD_0":10},"indices":11,"material":0},{"attributes":{"POSITION":12,"NORMAL":13,"TEXCOORD_0":14},"indices":15,"material":1}]},{"name":"Mesh.002","primitives":[{"attributes":{"POSITION":16,"NORMAL":17,"TEXCOORD_0":18},"indices":19,"material":0},{"attributes":{"POSITION":20,"NORMAL":21,"TEXCOORD_0":22},"indices":23,"material":1}]}],"textures":[{"extensions":{},"sampler":0},{"extensions":{},"sampler":0},{"extensions":{"EXT_texture_webp":{"source":0}},"sampler":0},{"extensions":{},"sampler":0},{"extensions":{"EXT_texture_webp":{"source":1}},"sampler":0}],"images":[{"mimeType":"image/webp","name":"PolygonNatureBiomesS2_AridDesert_Texture_01","uri":"PolygonNatureBiomesS2_AridDesert_Texture_01.webp"},{"mimeType":"image/webp","name":"Succulent_Leaves_03_","uri":"Succulent_Leaves_03_.webp"}],"accessors":[{"bufferView":0,"componentType":5126,"count":720,"max":[116.97714233398438,27.923723220825195,18.975860595703125],"min":[-107.27497100830078,-39.685184478759766,-16.115005493164062],"type":"VEC3"},{"bufferView":1,"componentType":5126,"count":720,"type":"VEC3"},{"bufferView":2,"componentType":5126,"count":720,"type":"VEC2"},{"bufferView":3,"componentType":5123,"count":1026,"type":"SCALAR"},{"bufferView":4,"componentType":5126,"count":1780,"max":[119.09041595458984,51.33498764038086,-1.2156308889389038],"min":[-113.56066131591797,-52.322593688964844,-34.708770751953125],"type":"VEC3"},{"bufferView":5,"componentType":5126,"count":1780,"type":"VEC3"},{"bufferView":6,"componentType":5126,"count":1780,"type":"VEC2"},{"bufferView":7,"componentType":5123,"count":5340,"type":"SCALAR"},{"bufferView":8,"componentType":5126,"count":560,"max":[116.97714233398438,27.923723220825195,18.975860595703125],"min":[-107.27497100830078,-39.685184478759766,-15.226543426513672],"type":"VEC3"},{"bufferView":9,"componentType":5126,"count":560,"type":"VEC3"},{"bufferView":10,"componentType":5126,"count":560,"type":"VEC2"},{"bufferView":11,"componentType":5123,"count":834,"type":"SCALAR"},{"bufferView":12,"componentType":5126,"count":1424,"max":[119.09041595458984,51.33498764038086,-1.6945841312408447],"min":[-113.56066131591797,-52.322593688964844,-34.708770751953125],"type":"VEC3"},{"bufferView":13,"componentType":5126,"count":1424,"type":"VEC3"},{"bufferView":14,"componentType":5126,"count":1424,"type":"VEC2"},{"bufferView":15,"componentType":5123,"count":3204,"type":"SCALAR"},{"bufferView":16,"componentType":5126,"count":216,"max":[116.97714233398438,27.923723220825195,17.479736328125],"min":[-107.27497100830078,-39.685184478759766,-15.062677383422852],"type":"VEC3"},{"bufferView":17,"componentType":5126,"count":216,"type":"VEC3"},{"bufferView":18,"componentType":5126,"count":216,"type":"VEC2"},{"bufferView":19,"componentType":5123,"count":324,"type":"SCALAR"},{"bufferView":20,"componentType":5126,"count":1068,"max":[119.09041595458984,51.33498764038086,-1.6945841312408447],"min":[-113.56066131591797,-52.322593688964844,-34.708770751953125],"type":"VEC3"},{"bufferView":21,"componentType":5126,"count":1068,"type":"VEC3"},{"bufferView":22,"componentType":5126,"count":1068,"type":"VEC2"},{"bufferView":23,"componentType":5123,"count":2136,"type":"SCALAR"}],"bufferViews":[{"buffer":0,"byteLength":8640,"byteOffset":0,"target":34962},{"buffer":0,"byteLength":8640,"byteOffset":8640,"target":34962},{"buffer":0,"byteLength":5760,"byteOffset":17280,"target":34962},{"buffer":0,"byteLength":2052,"byteOffset":23040,"target":34963},{"buffer":0,"byteLength":21360,"byteOffset":25092,"target":34962},{"buffer":0,"byteLength":21360,"byteOffset":46452,"target":34962},{"buffer":0,"byteLength":14240,"byteOffset":67812,"target":34962},{"buffer":0,"byteLength":10680,"byteOffset":82052,"target":34963},{"buffer":0,"byteLength":6720,"byteOffset":92732,"target":34962},{"buffer":0,"byteLength":6720,"byteOffset":99452,"target":34962},{"buffer":0,"byteLength":4480,"byteOffset":106172,"target":34962},{"buffer":0,"byteLength":1668,"byteOffset":110652,"target":34963},{"buffer":0,"byteLength":17088,"byteOffset":112320,"target":34962},{"buffer":0,"byteLength":17088,"byteOffset":129408,"target":34962},{"buffer":0,"byteLength":11392,"byteOffset":146496,"target":34962},{"buffer":0,"byteLength":6408,"byteOffset":157888,"target":34963},{"buffer":0,"byteLength":2592,"byteOffset":164296,"target":34962},{"buffer":0,"byteLength":2592,"byteOffset":166888,"target":34962},{"buffer":0,"byteLength":1728,"byteOffset":169480,"target":34962},{"buffer":0,"byteLength":648,"byteOffset":171208,"target":34963},{"buffer":0,"byteLength":12816,"byteOffset":171856,"target":34962},{"buffer":0,"byteLength":12816,"byteOffset":184672,"target":34962},{"buffer":0,"byteLength":8544,"byteOffset":197488,"target":34962},{"buffer":0,"byteLength":4272,"byteOffset":206032,"target":34963}],"samplers":[{"magFilter":9729,"minFilter":9987}],"buffers":[{"byteLength":210304,"uri":"desert_SM_Env_Succulent_01.bin"}]}