{
	"asset":{
		"generator":"Khronos glTF Blender I/O v4.4.55",
		"version":"2.0"
	},
	"extensionsUsed":[
		"EXT_texture_webp"
	],
	"extensionsRequired":[
		"EXT_texture_webp"
	],
	"scene":0,
	"scenes":[
		{
			"name":"Scene",
			"nodes":[
				0
			]
		}
	],
	"nodes":[
		{
			"mesh":0,
			"name":"SM_Env_Lava_River_02",
			"rotation":[
				0.7071068286895752,
				0,
				0,
				0.7071068286895752
			],
			"scale":[
				0.009999999776482582,
				0.009999999776482582,
				0.009999999776482582
			]
		}
	],
	"materials":[
		{
			"doubleSided":true,
			"name":"Lavawave",
			"pbrMetallicRoughness":{
				"baseColorTexture":{
					"index":0
				},
				"metallicFactor":0
			}
		}
	],
	"meshes":[
		{
			"name":"Mesh",
			"primitives":[
				{
					"attributes":{
						"POSITION":0,
						"NORMAL":1,
						"TEXCOORD_0":2
					},
					"indices":3,
					"material":0
				}
			]
		}
	],
	"textures":[
		{
			"extensions":{
				"EXT_texture_webp":{
					"source":0
				}
			},
			"sampler":0
		}
	],
	"images":[
		{
			"mimeType":"image/webp",
			"name":"Lavawave_Hot",
			"uri":"Lavawave_Hot.webp"
		}
	],
	"accessors":[
		{
			"bufferView":0,
			"componentType":5126,
			"count":191,
			"max":[
				550.0050659179688,
				3605.257568359375,
				70.8799057006836
			],
			"min":[
				-537.7649536132812,
				-72.07141876220703,
				-99.87454986572266
			],
			"type":"VEC3"
		},
		{
			"bufferView":1,
			"componentType":5126,
			"count":191,
			"type":"VEC3"
		},
		{
			"bufferView":2,
			"componentType":5126,
			"count":191,
			"type":"VEC2"
		},
		{
			"bufferView":3,
			"componentType":5123,
			"count":954,
			"type":"SCALAR"
		}
	],
	"bufferViews":[
		{
			"buffer":0,
			"byteLength":2292,
			"byteOffset":0,
			"target":34962
		},
		{
			"buffer":0,
			"byteLength":2292,
			"byteOffset":2292,
			"target":34962
		},
		{
			"buffer":0,
			"byteLength":1528,
			"byteOffset":4584,
			"target":34962
		},
		{
			"buffer":0,
			"byteLength":1908,
			"byteOffset":6112,
			"target":34963
		}
	],
	"samplers":[
		{
			"magFilter":9729,
			"minFilter":9987
		}
	],
	"buffers":[
		{
			"byteLength":8020,
			"uri":"desert_SM_Env_Lava_River_02.bin"
		}
	]
}
