{"asset":{"generator":"Khronos glTF Blender I/O v4.4.55","version":"2.0"},"extensionsUsed":["EXT_texture_webp"],"extensionsRequired":["EXT_texture_webp"],"scene":0,"scenes":[{"name":"Scene","nodes":[6]}],"nodes":[{"mesh":0,"name":"SM_Env_Succulent_05_Flowers_01_LOD0"},{"mesh":1,"name":"SM_Env_Succulent_05_Flowers_01_LOD1"},{"mesh":2,"name":"SM_Env_Succulent_05_Flowers_01_LOD2"},{"mesh":3,"name":"SM_Env_Succulent_05_LOD0"},{"mesh":4,"name":"SM_Env_Succulent_05_LOD1"},{"mesh":5,"name":"SM_Env_Succulent_05_LOD2"},{"children":[0,1,2,3,4,5],"name":"SM_Env_Succulent_05","rotation":[0.7071068286895752,0,0,0.7071068286895752],"scale":[0.009999999776482582,0.009999999776482582,0.009999999776482582]}],"materials":[{"doubleSided":true,"name":"MAT_01A11","pbrMetallicRoughness":{"baseColorTexture":{"index":2},"metallicFactor":0}},{"alphaMode":"BLEND","doubleSided":true,"name":"Succulent_Flowers_MAT","pbrMetallicRoughness":{"baseColorTexture":{"index":4},"metallicFactor":0}},{"doubleSided":true,"name":"lambert13","pbrMetallicRoughness":{"baseColorTexture":{"index":5},"metallicFactor":0}},{"alphaMode":"BLEND","doubleSided":true,"name":"SucculentLeaves_MAT02","pbrMetallicRoughness":{"baseColorTexture":{"index":6},"metallicFactor":0}}],"meshes":[{"name":"Mesh.003","primitives":[{"attributes":{"POSITION":0,"NORMAL":1,"TEXCOORD_0":2,"COLOR_0":3,"COLOR_1":4},"indices":5,"material":0},{"attributes":{"POSITION":6,"NORMAL":7,"TEXCOORD_0":8,"COLOR_0":9,"COLOR_1":10},"indices":11,"material":1}]},{"name":"Mesh.004","primitives":[{"attributes":{"POSITION":12,"NORMAL":13,"TEXCOORD_0":14,"COLOR_0":15,"COLOR_1":16},"indices":17,"material":0},{"attributes":{"POSITION":18,"NORMAL":19,"TEXCOORD_0":20,"COLOR_0":21,"COLOR_1":22},"indices":23,"material":1}]},{"name":"Mesh.005","primitives":[{"attributes":{"POSITION":24,"NORMAL":25,"TEXCOORD_0":26,"COLOR_0":27,"COLOR_1":28},"indices":29,"material":0},{"attributes":{"POSITION":30,"NORMAL":31,"TEXCOORD_0":32,"COLOR_0":33,"COLOR_1":34},"indices":35,"material":1}]},{"name":"Mesh","primitives":[{"attributes":{"POSITION":36,"NORMAL":37,"TEXCOORD_0":38,"COLOR_0":39,"COLOR_1":40},"indices":41,"material":2}]},{"name":"Mesh.001","primitives":[{"attributes":{"POSITION":42,"NORMAL":43,"TEXCOORD_0":44,"COLOR_0":45,"COLOR_1":46},"indices":47,"material":0},{"attributes":{"POSITION":48,"NORMAL":49,"TEXCOORD_0":50,"COLOR_0":51,"COLOR_1":52},"indices":53,"material":3}]},{"name":"Mesh.002","primitives":[{"attributes":{"POSITION":54,"NORMAL":55,"TEXCOORD_0":56,"COLOR_0":57,"COLOR_1":58},"indices":59,"material":0},{"attributes":{"POSITION":60,"NORMAL":61,"TEXCOORD_0":62,"COLOR_0":63,"COLOR_1":64},"indices":65,"material":3}]}],"textures":[{"extensions":{},"sampler":0},{"extensions":{},"sampler":0},{"extensions":{"EXT_texture_webp":{"source":0}},"sampler":0},{"extensions":{},"sampler":0},{"extensions":{"EXT_texture_webp":{"source":1}},"sampler":0},{"extensions":{"EXT_texture_webp":{"source":0}},"sampler":0},{"extensions":{"EXT_texture_webp":{"source":2}},"sampler":0}],"images":[{"mimeType":"image/webp","name":"PolygonNatureBiomesS2_AridDesert_Texture_01","uri":"PolygonNatureBiomesS2_AridDesert_Texture_01.webp"},{"mimeType":"image/webp","name":"Succulent_Flowers_01","uri":"Succulent_Flowers_01.webp"},{"mimeType":"image/webp","name":"Succulent_Leaves_Diffuse_PNGTEMP","uri":"Succulent_Leaves_Diffuse_PNGTEMP.webp"}],"accessors":[{"bufferView":0,"componentType":5126,"count":621,"max":[147.62469482421875,141.3059539794922,-16.777727127075195],"min":[-125.21509552001953,-159.98287963867188,-213.4002227783203],"type":"VEC3"},{"bufferView":1,"componentType":5126,"count":621,"type":"VEC3"},{"bufferView":2,"componentType":5126,"count":621,"type":"VEC2"},{"bufferView":3,"componentType":5121,"count":621,"normalized":true,"type":"VEC4"},{"bufferView":4,"componentType":5123,"count":621,"normalized":true,"type":"VEC4"},{"bufferView":5,"componentType":5123,"count":1032,"type":"SCALAR"},{"bufferView":6,"componentType":5126,"count":416,"max":[164.71575927734375,150.07550048828125,-57.00952911376953],"min":[-134.99270629882812,-168.7486572265625,-270.8185729980469],"type":"VEC3"},{"bufferView":7,"componentType":5126,"count":416,"type":"VEC3"},{"bufferView":8,"componentType":5126,"count":416,"type":"VEC2"},{"bufferView":9,"componentType":5121,"count":416,"normalized":true,"type":"VEC4"},{"bufferView":10,"componentType":5123,"count":416,"normalized":true,"type":"VEC4"},{"bufferView":11,"componentType":5123,"count":624,"type":"SCALAR"},{"bufferView":12,"componentType":5126,"count":424,"max":[147.62469482421875,141.3059539794922,-18.23751449584961],"min":[-125.21509552001953,-159.98287963867188,-213.4002227783203],"type":"VEC3"},{"bufferView":13,"componentType":5126,"count":424,"type":"VEC3"},{"bufferView":14,"componentType":5126,"count":424,"type":"VEC2"},{"bufferView":15,"componentType":5121,"count":424,"normalized":true,"type":"VEC4"},{"bufferView":16,"componentType":5123,"count":424,"normalized":true,"type":"VEC4"},{"bufferView":17,"componentType":5123,"count":660,"type":"SCALAR"},{"bufferView":18,"componentType":5126,"count":160,"max":[164.71575927734375,150.07550048828125,-57.00952911376953],"min":[-134.99270629882812,-168.7486572265625,-270.8185729980469],"type":"VEC3"},{"bufferView":19,"componentType":5126,"count":160,"type":"VEC3"},{"bufferView":20,"componentType":5126,"count":160,"type":"VEC2"},{"bufferView":21,"componentType":5121,"count":160,"normalized":true,"type":"VEC4"},{"bufferView":22,"componentType":5123,"count":160,"normalized":true,"type":"VEC4"},{"bufferView":23,"componentType":5123,"count":240,"type":"SCALAR"},{"bufferView":24,"componentType":5126,"count":228,"max":[146.16079711914062,140.71705627441406,-18.23751449584961],"min":[-124.11486053466797,-158.7924346923828,-213.4002227783203],"type":"VEC3"},{"bufferView":25,"componentType":5126,"count":228,"type":"VEC3"},{"bufferView":26,"componentType":5126,"count":228,"type":"VEC2"},{"bufferView":27,"componentType":5121,"count":228,"normalized":true,"type":"VEC4"},{"bufferView":28,"componentType":5123,"count":228,"normalized":true,"type":"VEC4"},{"bufferView":29,"componentType":5123,"count":240,"type":"SCALAR"},{"bufferView":30,"componentType":5126,"count":80,"max":[159.21890258789062,147.33697509765625,-57.00952911376953],"min":[-131.86312866210938,-165.88137817382812,-270.8185729980469],"type":"VEC3"},{"bufferView":31,"componentType":5126,"count":80,"type":"VEC3"},{"bufferView":32,"componentType":5126,"count":80,"type":"VEC2"},{"bufferView":33,"componentType":5121,"count":80,"normalized":true,"type":"VEC4"},{"bufferView":34,"componentType":5123,"count":80,"normalized":true,"type":"VEC4"},{"bufferView":35,"componentType":5123,"count":120,"type":"SCALAR"},{"bufferView":36,"componentType":5126,"count":6556,"max":[207.6838836669922,186.1068115234375,17.585689544677734],"min":[-183.38238525390625,-203.557373046875,-186.03189086914062],"type":"VEC3"},{"bufferView":37,"componentType":5126,"count":6556,"type":"VEC3"},{"bufferView":38,"componentType":5126,"count":6556,"type":"VEC2"},{"bufferView":39,"componentType":5121,"count":6556,"normalized":true,"type":"VEC4"},{"bufferView":40,"componentType":5123,"count":6556,"normalized":true,"type":"VEC4"},{"bufferView":41,"componentType":5123,"count":11676,"type":"SCALAR"},{"bufferView":42,"componentType":5126,"count":720,"max":[117.77725219726562,129.8413848876953,17.585689544677734],"min":[-104.43975830078125,-140.9869384765625,-129.1089630126953],"type":"VEC3"},{"bufferView":43,"componentType":5126,"count":720,"type":"VEC3"},{"bufferView":44,"componentType":5126,"count":720,"type":"VEC2"},{"bufferView":45,"componentType":5121,"count":720,"normalized":true,"type":"VEC4"},{"bufferView":46,"componentType":5123,"count":720,"normalized":true,"type":"VEC4"},{"bufferView":47,"componentType":5123,"count":1059,"type":"SCALAR"},{"bufferView":48,"componentType":5126,"count":4050,"max":[207.6838836669922,186.1068115234375,7.1528730392456055],"min":[-183.38238525390625,-203.557373046875,-186.03189086914062],"type":"VEC3"},{"bufferView":49,"componentType":5126,"count":4050,"type":"VEC3"},{"bufferView":50,"componentType":5126,"count":4050,"type":"VEC2"},{"bufferView":51,"componentType":5121,"count":4050,"normalized":true,"type":"VEC4"},{"bufferView":52,"componentType":5123,"count":4050,"normalized":true,"type":"VEC4"},{"bufferView":53,"componentType":5123,"count":7185,"type":"SCALAR"},{"bufferView":54,"componentType":5126,"count":469,"max":[117.09834289550781,129.8413848876953,17.585689544677734],"min":[-104.43975830078125,-138.9635009765625,-129.1089630126953],"type":"VEC3"},{"bufferView":55,"componentType":5126,"count":469,"type":"VEC3"},{"bufferView":56,"componentType":5126,"count":469,"type":"VEC2"},{"bufferView":57,"componentType":5121,"count":469,"normalized":true,"type":"VEC4"},{"bufferView":58,"componentType":5123,"count":469,"normalized":true,"type":"VEC4"},{"bufferView":59,"componentType":5123,"count":687,"type":"SCALAR"},{"bufferView":60,"componentType":5126,"count":1371,"max":[207.6838836669922,186.1068115234375,7.1528730392456055],"min":[-183.38238525390625,-203.557373046875,-185.0042266845703],"type":"VEC3"},{"bufferView":61,"componentType":5126,"count":1371,"type":"VEC3"},{"bufferView":62,"componentType":5126,"count":1371,"type":"VEC2"},{"bufferView":63,"componentType":5121,"count":1371,"normalized":true,"type":"VEC4"},{"bufferView":64,"componentType":5123,"count":1371,"normalized":true,"type":"VEC4"},{"bufferView":65,"componentType":5123,"count":2244,"type":"SCALAR"}],"bufferViews":[{"buffer":0,"byteLength":7452,"byteOffset":0,"target":34962},{"buffer":0,"byteLength":7452,"byteOffset":7452,"target":34962},{"buffer":0,"byteLength":4968,"byteOffset":14904,"target":34962},{"buffer":0,"byteLength":2484,"byteOffset":19872,"target":34962},{"buffer":0,"byteLength":4968,"byteOffset":22356,"target":34962},{"buffer":0,"byteLength":2064,"byteOffset":27324,"target":34963},{"buffer":0,"byteLength":4992,"byteOffset":29388,"target":34962},{"buffer":0,"byteLength":4992,"byteOffset":34380,"target":34962},{"buffer":0,"byteLength":3328,"byteOffset":39372,"target":34962},{"buffer":0,"byteLength":1664,"byteOffset":42700,"target":34962},{"buffer":0,"byteLength":3328,"byteOffset":44364,"target":34962},{"buffer":0,"byteLength":1248,"byteOffset":47692,"target":34963},{"buffer":0,"byteLength":5088,"byteOffset":48940,"target":34962},{"buffer":0,"byteLength":5088,"byteOffset":54028,"target":34962},{"buffer":0,"byteLength":3392,"byteOffset":59116,"target":34962},{"buffer":0,"byteLength":1696,"byteOffset":62508,"target":34962},{"buffer":0,"byteLength":3392,"byteOffset":64204,"target":34962},{"buffer":0,"byteLength":1320,"byteOffset":67596,"target":34963},{"buffer":0,"byteLength":1920,"byteOffset":68916,"target":34962},{"buffer":0,"byteLength":1920,"byteOffset":70836,"target":34962},{"buffer":0,"byteLength":1280,"byteOffset":72756,"target":34962},{"buffer":0,"byteLength":640,"byteOffset":74036,"target":34962},{"buffer":0,"byteLength":1280,"byteOffset":74676,"target":34962},{"buffer":0,"byteLength":480,"byteOffset":75956,"target":34963},{"buffer":0,"byteLength":2736,"byteOffset":76436,"target":34962},{"buffer":0,"byteLength":2736,"byteOffset":79172,"target":34962},{"buffer":0,"byteLength":1824,"byteOffset":81908,"target":34962},{"buffer":0,"byteLength":912,"byteOffset":83732,"target":34962},{"buffer":0,"byteLength":1824,"byteOffset":84644,"target":34962},{"buffer":0,"byteLength":480,"byteOffset":86468,"target":34963},{"buffer":0,"byteLength":960,"byteOffset":86948,"target":34962},{"buffer":0,"byteLength":960,"byteOffset":87908,"target":34962},{"buffer":0,"byteLength":640,"byteOffset":88868,"target":34962},{"buffer":0,"byteLength":320,"byteOffset":89508,"target":34962},{"buffer":0,"byteLength":640,"byteOffset":89828,"target":34962},{"buffer":0,"byteLength":240,"byteOffset":90468,"target":34963},{"buffer":0,"byteLength":78672,"byteOffset":90708,"target":34962},{"buffer":0,"byteLength":78672,"byteOffset":169380,"target":34962},{"buffer":0,"byteLength":52448,"byteOffset":248052,"target":34962},{"buffer":0,"byteLength":26224,"byteOffset":300500,"target":34962},{"buffer":0,"byteLength":52448,"byteOffset":326724,"target":34962},{"buffer":0,"byteLength":23352,"byteOffset":379172,"target":34963},{"buffer":0,"byteLength":8640,"byteOffset":402524,"target":34962},{"buffer":0,"byteLength":8640,"byteOffset":411164,"target":34962},{"buffer":0,"byteLength":5760,"byteOffset":419804,"target":34962},{"buffer":0,"byteLength":2880,"byteOffset":425564,"target":34962},{"buffer":0,"byteLength":5760,"byteOffset":428444,"target":34962},{"buffer":0,"byteLength":2118,"byteOffset":434204,"target":34963},{"buffer":0,"byteLength":48600,"byteOffset":436324,"target":34962},{"buffer":0,"byteLength":48600,"byteOffset":484924,"target":34962},{"buffer":0,"byteLength":32400,"byteOffset":533524,"target":34962},{"buffer":0,"byteLength":16200,"byteOffset":565924,"target":34962},{"buffer":0,"byteLength":32400,"byteOffset":582124,"target":34962},{"buffer":0,"byteLength":14370,"byteOffset":614524,"target":34963},{"buffer":0,"byteLength":5628,"byteOffset":628896,"target":34962},{"buffer":0,"byteLength":5628,"byteOffset":634524,"target":34962},{"buffer":0,"byteLength":3752,"byteOffset":640152,"target":34962},{"buffer":0,"byteLength":1876,"byteOffset":643904,"target":34962},{"buffer":0,"byteLength":3752,"byteOffset":645780,"target":34962},{"buffer":0,"byteLength":1374,"byteOffset":649532,"target":34963},{"buffer":0,"byteLength":16452,"byteOffset":650908,"target":34962},{"buffer":0,"byteLength":16452,"byteOffset":667360,"target":34962},{"buffer":0,"byteLength":10968,"byteOffset":683812,"target":34962},{"buffer":0,"byteLength":5484,"byteOffset":694780,"target":34962},{"buffer":0,"byteLength":10968,"byteOffset":700264,"target":34962},{"buffer":0,"byteLength":4488,"byteOffset":711232,"target":34963}],"samplers":[{"magFilter":9729,"minFilter":9987}],"buffers":[{"byteLength":715720,"uri":"desert_SM_Env_Succulent_05.bin"}]}