{
	"asset":{
		"generator":"Khronos glTF Blender I/O v4.4.55",
		"version":"2.0"
	},
	"scene":0,
	"scenes":[
		{
			"name":"Scene",
			"nodes":[
				3
			]
		}
	],
	"nodes":[
		{
			"mesh":0,
			"name":"SM_Env_Seaweed_01_LOD0"
		},
		{
			"mesh":1,
			"name":"SM_Env_Seaweed_01_LOD1"
		},
		{
			"mesh":2,
			"name":"SM_Env_Seaweed_01_LOD2"
		},
		{
			"children":[
				0,
				1,
				2
			],
			"name":"SM_Env_Seaweed_01",
			"rotation":[
				0.7071068286895752,
				0,
				0,
				0.7071068286895752
			],
			"scale":[
				0.009999999776482582,
				0.009999999776482582,
				0.009999999776482582
			]
		}
	],
	"materials":[
		{
			"doubleSided":true,
			"name":"seaweed",
			"pbrMetallicRoughness":{
				"metallicFactor":0
			}
		}
	],
	"meshes":[
		{
			"name":"Mesh.002",
			"primitives":[
				{
					"attributes":{
						"POSITION":0,
						"NORMAL":1,
						"TEXCOORD_0":2,
						"COLOR_0":3,
						"COLOR_1":4
					},
					"indices":5,
					"material":0
				}
			]
		},
		{
			"name":"Mesh",
			"primitives":[
				{
					"attributes":{
						"POSITION":6,
						"NORMAL":7,
						"TEXCOORD_0":8,
						"COLOR_0":9,
						"COLOR_1":10
					},
					"indices":11,
					"material":0
				}
			]
		},
		{
			"name":"Mesh.001",
			"primitives":[
				{
					"attributes":{
						"POSITION":12,
						"NORMAL":13,
						"TEXCOORD_0":14,
						"COLOR_0":15,
						"COLOR_1":16
					},
					"indices":17,
					"material":0
				}
			]
		}
	],
	"accessors":[
		{
			"bufferView":0,
			"componentType":5126,
			"count":54,
			"max":[
				57.33967590332031,
				53.18858337402344,
				0.7828992605209351
			],
			"min":[
				-65.41558837890625,
				-61.70793151855469,
				-219.49705505371094
			],
			"type":"VEC3"
		},
		{
			"bufferView":1,
			"componentType":5126,
			"count":54,
			"type":"VEC3"
		},
		{
			"bufferView":2,
			"componentType":5126,
			"count":54,
			"type":"VEC2"
		},
		{
			"bufferView":3,
			"componentType":5121,
			"count":54,
			"normalized":true,
			"type":"VEC4"
		},
		{
			"bufferView":4,
			"componentType":5123,
			"count":54,
			"normalized":true,
			"type":"VEC4"
		},
		{
			"bufferView":5,
			"componentType":5123,
			"count":180,
			"type":"SCALAR"
		},
		{
			"bufferView":6,
			"componentType":5126,
			"count":12,
			"max":[
				50.36082077026367,
				43.22862243652344,
				0.7828992605209351
			],
			"min":[
				-59.77915573120117,
				-52.1553955078125,
				-219.49705505371094
			],
			"type":"VEC3"
		},
		{
			"bufferView":7,
			"componentType":5126,
			"count":12,
			"type":"VEC3"
		},
		{
			"bufferView":8,
			"componentType":5126,
			"count":12,
			"type":"VEC2"
		},
		{
			"bufferView":9,
			"componentType":5121,
			"count":12,
			"normalized":true,
			"type":"VEC4"
		},
		{
			"bufferView":10,
			"componentType":5123,
			"count":12,
			"normalized":true,
			"type":"VEC4"
		},
		{
			"bufferView":11,
			"componentType":5123,
			"count":18,
			"type":"SCALAR"
		},
		{
			"bufferView":12,
			"componentType":5126,
			"count":8,
			"max":[
				42.98284149169922,
				43.22862243652344,
				0.7828992605209351
			],
			"min":[
				-52.40118408203125,
				-52.1553955078125,
				-219.49705505371094
			],
			"type":"VEC3"
		},
		{
			"bufferView":13,
			"componentType":5126,
			"count":8,
			"type":"VEC3"
		},
		{
			"bufferView":14,
			"componentType":5126,
			"count":8,
			"type":"VEC2"
		},
		{
			"bufferView":15,
			"componentType":5121,
			"count":8,
			"normalized":true,
			"type":"VEC4"
		},
		{
			"bufferView":16,
			"componentType":5123,
			"count":8,
			"normalized":true,
			"type":"VEC4"
		},
		{
			"bufferView":17,
			"componentType":5123,
			"count":12,
			"type":"SCALAR"
		}
	],
	"bufferViews":[
		{
			"buffer":0,
			"byteLength":648,
			"byteOffset":0,
			"target":34962
		},
		{
			"buffer":0,
			"byteLength":648,
			"byteOffset":648,
			"target":34962
		},
		{
			"buffer":0,
			"byteLength":432,
			"byteOffset":1296,
			"target":34962
		},
		{
			"buffer":0,
			"byteLength":216,
			"byteOffset":1728,
			"target":34962
		},
		{
			"buffer":0,
			"byteLength":432,
			"byteOffset":1944,
			"target":34962
		},
		{
			"buffer":0,
			"byteLength":360,
			"byteOffset":2376,
			"target":34963
		},
		{
			"buffer":0,
			"byteLength":144,
			"byteOffset":2736,
			"target":34962
		},
		{
			"buffer":0,
			"byteLength":144,
			"byteOffset":2880,
			"target":34962
		},
		{
			"buffer":0,
			"byteLength":96,
			"byteOffset":3024,
			"target":34962
		},
		{
			"buffer":0,
			"byteLength":48,
			"byteOffset":3120,
			"target":34962
		},
		{
			"buffer":0,
			"byteLength":96,
			"byteOffset":3168,
			"target":34962
		},
		{
			"buffer":0,
			"byteLength":36,
			"byteOffset":3264,
			"target":34963
		},
		{
			"buffer":0,
			"byteLength":96,
			"byteOffset":3300,
			"target":34962
		},
		{
			"buffer":0,
			"byteLength":96,
			"byteOffset":3396,
			"target":34962
		},
		{
			"buffer":0,
			"byteLength":64,
			"byteOffset":3492,
			"target":34962
		},
		{
			"buffer":0,
			"byteLength":32,
			"byteOffset":3556,
			"target":34962
		},
		{
			"buffer":0,
			"byteLength":64,
			"byteOffset":3588,
			"target":34962
		},
		{
			"buffer":0,
			"byteLength":24,
			"byteOffset":3652,
			"target":34963
		}
	],
	"buffers":[
		{
			"byteLength":3676,
			"uri":"jungle_SM_Env_Seaweed_01.bin"
		}
	]
}
