{
	"asset":{
		"generator":"Khronos glTF Blender I/O v4.4.55",
		"version":"2.0"
	},
	"scene":0,
	"scenes":[
		{
			"name":"Scene",
			"nodes":[
				3
			]
		}
	],
	"nodes":[
		{
			"mesh":0,
			"name":"SM_Env_Flower_Pitcher_02_LOD0"
		},
		{
			"mesh":1,
			"name":"SM_Env_Flower_Pitcher_02_LOD1"
		},
		{
			"mesh":2,
			"name":"SM_Env_Flower_Pitcher_02_LOD2"
		},
		{
			"children":[
				0,
				1,
				2
			],
			"name":"SM_Env_Flower_Pitcher_02",
			"rotation":[
				0.7071068286895752,
				0,
				0,
				0.7071068286895752
			],
			"scale":[
				0.009999999776482582,
				0.009999999776482582,
				0.009999999776482582
			]
		}
	],
	"materials":[
		{
			"doubleSided":true,
			"name":"NatureSHD",
			"pbrMetallicRoughness":{
				"metallicFactor":0
			}
		}
	],
	"meshes":[
		{
			"name":"Mesh",
			"primitives":[
				{
					"attributes":{
						"POSITION":0,
						"NORMAL":1,
						"TEXCOORD_0":2,
						"COLOR_0":3,
						"COLOR_1":4
					},
					"indices":5,
					"material":0
				}
			]
		},
		{
			"name":"Mesh.001",
			"primitives":[
				{
					"attributes":{
						"POSITION":6,
						"NORMAL":7,
						"TEXCOORD_0":8,
						"COLOR_0":9,
						"COLOR_1":10
					},
					"indices":11,
					"material":0
				}
			]
		},
		{
			"name":"Mesh.002",
			"primitives":[
				{
					"attributes":{
						"POSITION":12,
						"NORMAL":13,
						"TEXCOORD_0":14,
						"COLOR_0":15,
						"COLOR_1":16
					},
					"indices":17,
					"material":0
				}
			]
		}
	],
	"accessors":[
		{
			"bufferView":0,
			"componentType":5126,
			"count":1176,
			"max":[
				89.54536437988281,
				97.4968490600586,
				113.55948638916016
			],
			"min":[
				-89.4891586303711,
				-53.38835144042969,
				-41.93977355957031
			],
			"type":"VEC3"
		},
		{
			"bufferView":1,
			"componentType":5126,
			"count":1176,
			"type":"VEC3"
		},
		{
			"bufferView":2,
			"componentType":5126,
			"count":1176,
			"type":"VEC2"
		},
		{
			"bufferView":3,
			"componentType":5121,
			"count":1176,
			"normalized":true,
			"type":"VEC4"
		},
		{
			"bufferView":4,
			"componentType":5123,
			"count":1176,
			"normalized":true,
			"type":"VEC4"
		},
		{
			"bufferView":5,
			"componentType":5123,
			"count":2484,
			"type":"SCALAR"
		},
		{
			"bufferView":6,
			"componentType":5126,
			"count":940,
			"max":[
				90.15283203125,
				97.79409790039062,
				113.6107406616211
			],
			"min":[
				-88.8816909790039,
				-53.091102600097656,
				-41.888519287109375
			],
			"type":"VEC3"
		},
		{
			"bufferView":7,
			"componentType":5126,
			"count":940,
			"type":"VEC3"
		},
		{
			"bufferView":8,
			"componentType":5126,
			"count":940,
			"type":"VEC2"
		},
		{
			"bufferView":9,
			"componentType":5121,
			"count":940,
			"normalized":true,
			"type":"VEC4"
		},
		{
			"bufferView":10,
			"componentType":5123,
			"count":940,
			"normalized":true,
			"type":"VEC4"
		},
		{
			"bufferView":11,
			"componentType":5123,
			"count":1980,
			"type":"SCALAR"
		},
		{
			"bufferView":12,
			"componentType":5126,
			"count":440,
			"max":[
				82.24925231933594,
				91.68392944335938,
				112.4522705078125
			],
			"min":[
				-84.47504425048828,
				-53.24411392211914,
				-32.11997985839844
			],
			"type":"VEC3"
		},
		{
			"bufferView":13,
			"componentType":5126,
			"count":440,
			"type":"VEC3"
		},
		{
			"bufferView":14,
			"componentType":5126,
			"count":440,
			"type":"VEC2"
		},
		{
			"bufferView":15,
			"componentType":5121,
			"count":440,
			"normalized":true,
			"type":"VEC4"
		},
		{
			"bufferView":16,
			"componentType":5123,
			"count":440,
			"normalized":true,
			"type":"VEC4"
		},
		{
			"bufferView":17,
			"componentType":5123,
			"count":882,
			"type":"SCALAR"
		}
	],
	"bufferViews":[
		{
			"buffer":0,
			"byteLength":14112,
			"byteOffset":0,
			"target":34962
		},
		{
			"buffer":0,
			"byteLength":14112,
			"byteOffset":14112,
			"target":34962
		},
		{
			"buffer":0,
			"byteLength":9408,
			"byteOffset":28224,
			"target":34962
		},
		{
			"buffer":0,
			"byteLength":4704,
			"byteOffset":37632,
			"target":34962
		},
		{
			"buffer":0,
			"byteLength":9408,
			"byteOffset":42336,
			"target":34962
		},
		{
			"buffer":0,
			"byteLength":4968,
			"byteOffset":51744,
			"target":34963
		},
		{
			"buffer":0,
			"byteLength":11280,
			"byteOffset":56712,
			"target":34962
		},
		{
			"buffer":0,
			"byteLength":11280,
			"byteOffset":67992,
			"target":34962
		},
		{
			"buffer":0,
			"byteLength":7520,
			"byteOffset":79272,
			"target":34962
		},
		{
			"buffer":0,
			"byteLength":3760,
			"byteOffset":86792,
			"target":34962
		},
		{
			"buffer":0,
			"byteLength":7520,
			"byteOffset":90552,
			"target":34962
		},
		{
			"buffer":0,
			"byteLength":3960,
			"byteOffset":98072,
			"target":34963
		},
		{
			"buffer":0,
			"byteLength":5280,
			"byteOffset":102032,
			"target":34962
		},
		{
			"buffer":0,
			"byteLength":5280,
			"byteOffset":107312,
			"target":34962
		},
		{
			"buffer":0,
			"byteLength":3520,
			"byteOffset":112592,
			"target":34962
		},
		{
			"buffer":0,
			"byteLength":1760,
			"byteOffset":116112,
			"target":34962
		},
		{
			"buffer":0,
			"byteLength":3520,
			"byteOffset":117872,
			"target":34962
		},
		{
			"buffer":0,
			"byteLength":1764,
			"byteOffset":121392,
			"target":34963
		}
	],
	"buffers":[
		{
			"byteLength":123156,
			"uri":"jungle_SM_Env_Flower_Pitcher_02.bin"
		}
	]
}
