{
	"asset":{
		"generator":"Khronos glTF Blender I/O v4.4.55",
		"version":"2.0"
	},
	"scene":0,
	"scenes":[
		{
			"name":"Scene",
			"nodes":[
				3
			]
		}
	],
	"nodes":[
		{
			"mesh":0,
			"name":"SM_Env_Flowers_05_LOD0"
		},
		{
			"mesh":1,
			"name":"SM_Env_Flowers_05_LOD1"
		},
		{
			"mesh":2,
			"name":"SM_Env_Flowers_05_LOD2"
		},
		{
			"children":[
				0,
				1,
				2
			],
			"name":"SM_Env_Flowers_05",
			"rotation":[
				0.7071068286895752,
				0,
				0,
				0.7071068286895752
			],
			"scale":[
				0.009999999776482582,
				0.009999999776482582,
				0.009999999776482582
			]
		}
	],
	"materials":[
		{
			"doubleSided":true,
			"name":"Nature11",
			"pbrMetallicRoughness":{
				"metallicFactor":0
			}
		}
	],
	"meshes":[
		{
			"name":"Mesh",
			"primitives":[
				{
					"attributes":{
						"POSITION":0,
						"NORMAL":1,
						"TEXCOORD_0":2,
						"COLOR_0":3,
						"COLOR_1":4
					},
					"indices":5,
					"material":0
				}
			]
		},
		{
			"name":"Mesh.001",
			"primitives":[
				{
					"attributes":{
						"POSITION":6,
						"NORMAL":7,
						"TEXCOORD_0":8,
						"COLOR_0":9,
						"COLOR_1":10
					},
					"indices":11,
					"material":0
				}
			]
		},
		{
			"name":"Mesh.002",
			"primitives":[
				{
					"attributes":{
						"POSITION":12,
						"NORMAL":13,
						"TEXCOORD_0":14,
						"COLOR_0":15,
						"COLOR_1":16
					},
					"indices":17,
					"material":0
				}
			]
		}
	],
	"accessors":[
		{
			"bufferView":0,
			"componentType":5126,
			"count":1947,
			"max":[
				37.6125373840332,
				40.70951843261719,
				11.855825424194336
			],
			"min":[
				-33.719234466552734,
				-44.34908676147461,
				-166.27943420410156
			],
			"type":"VEC3"
		},
		{
			"bufferView":1,
			"componentType":5126,
			"count":1947,
			"type":"VEC3"
		},
		{
			"bufferView":2,
			"componentType":5126,
			"count":1947,
			"type":"VEC2"
		},
		{
			"bufferView":3,
			"componentType":5121,
			"count":1947,
			"normalized":true,
			"type":"VEC4"
		},
		{
			"bufferView":4,
			"componentType":5123,
			"count":1947,
			"normalized":true,
			"type":"VEC4"
		},
		{
			"bufferView":5,
			"componentType":5123,
			"count":3408,
			"type":"SCALAR"
		},
		{
			"bufferView":6,
			"componentType":5126,
			"count":898,
			"max":[
				37.6125373840332,
				40.70951843261719,
				11.855825424194336
			],
			"min":[
				-33.719234466552734,
				-44.34908676147461,
				-166.27943420410156
			],
			"type":"VEC3"
		},
		{
			"bufferView":7,
			"componentType":5126,
			"count":898,
			"type":"VEC3"
		},
		{
			"bufferView":8,
			"componentType":5126,
			"count":898,
			"type":"VEC2"
		},
		{
			"bufferView":9,
			"componentType":5121,
			"count":898,
			"normalized":true,
			"type":"VEC4"
		},
		{
			"bufferView":10,
			"componentType":5123,
			"count":898,
			"normalized":true,
			"type":"VEC4"
		},
		{
			"bufferView":11,
			"componentType":5123,
			"count":1392,
			"type":"SCALAR"
		},
		{
			"bufferView":12,
			"componentType":5126,
			"count":632,
			"max":[
				37.6125373840332,
				40.70951843261719,
				11.855825424194336
			],
			"min":[
				-33.719234466552734,
				-44.34908676147461,
				-166.27943420410156
			],
			"type":"VEC3"
		},
		{
			"bufferView":13,
			"componentType":5126,
			"count":632,
			"type":"VEC3"
		},
		{
			"bufferView":14,
			"componentType":5126,
			"count":632,
			"type":"VEC2"
		},
		{
			"bufferView":15,
			"componentType":5121,
			"count":632,
			"normalized":true,
			"type":"VEC4"
		},
		{
			"bufferView":16,
			"componentType":5123,
			"count":632,
			"normalized":true,
			"type":"VEC4"
		},
		{
			"bufferView":17,
			"componentType":5123,
			"count":912,
			"type":"SCALAR"
		}
	],
	"bufferViews":[
		{
			"buffer":0,
			"byteLength":23364,
			"byteOffset":0,
			"target":34962
		},
		{
			"buffer":0,
			"byteLength":23364,
			"byteOffset":23364,
			"target":34962
		},
		{
			"buffer":0,
			"byteLength":15576,
			"byteOffset":46728,
			"target":34962
		},
		{
			"buffer":0,
			"byteLength":7788,
			"byteOffset":62304,
			"target":34962
		},
		{
			"buffer":0,
			"byteLength":15576,
			"byteOffset":70092,
			"target":34962
		},
		{
			"buffer":0,
			"byteLength":6816,
			"byteOffset":85668,
			"target":34963
		},
		{
			"buffer":0,
			"byteLength":10776,
			"byteOffset":92484,
			"target":34962
		},
		{
			"buffer":0,
			"byteLength":10776,
			"byteOffset":103260,
			"target":34962
		},
		{
			"buffer":0,
			"byteLength":7184,
			"byteOffset":114036,
			"target":34962
		},
		{
			"buffer":0,
			"byteLength":3592,
			"byteOffset":121220,
			"target":34962
		},
		{
			"buffer":0,
			"byteLength":7184,
			"byteOffset":124812,
			"target":34962
		},
		{
			"buffer":0,
			"byteLength":2784,
			"byteOffset":131996,
			"target":34963
		},
		{
			"buffer":0,
			"byteLength":7584,
			"byteOffset":134780,
			"target":34962
		},
		{
			"buffer":0,
			"byteLength":7584,
			"byteOffset":142364,
			"target":34962
		},
		{
			"buffer":0,
			"byteLength":5056,
			"byteOffset":149948,
			"target":34962
		},
		{
			"buffer":0,
			"byteLength":2528,
			"byteOffset":155004,
			"target":34962
		},
		{
			"buffer":0,
			"byteLength":5056,
			"byteOffset":157532,
			"target":34962
		},
		{
			"buffer":0,
			"byteLength":1824,
			"byteOffset":162588,
			"target":34963
		}
	],
	"buffers":[
		{
			"byteLength":164412,
			"uri":"jungle_SM_Env_Flowers_05.bin"
		}
	]
}
