{
	"asset":{
		"generator":"Khronos glTF Blender I/O v4.4.55",
		"version":"2.0"
	},
	"scene":0,
	"scenes":[
		{
			"name":"Scene",
			"nodes":[
				0
			]
		}
	],
	"nodes":[
		{
			"mesh":0,
			"name":"SM_Env_Rock_Flat_01",
			"rotation":[
				0.7071068286895752,
				0,
				0,
				0.7071068286895752
			],
			"scale":[
				0.009999999776482582,
				0.009999999776482582,
				0.009999999776482582
			]
		}
	],
	"materials":[
		{
			"doubleSided":true,
			"name":"Nature23",
			"pbrMetallicRoughness":{
				"metallicFactor":0
			}
		}
	],
	"meshes":[
		{
			"name":"Mesh",
			"primitives":[
				{
					"attributes":{
						"POSITION":0,
						"NORMAL":1,
						"TEXCOORD_0":2
					},
					"indices":3,
					"material":0
				}
			]
		}
	],
	"accessors":[
		{
			"bufferView":0,
			"componentType":5126,
			"count":1482,
			"max":[
				133.9306640625,
				271.449462890625,
				26.17412567138672
			],
			"min":[
				-145.1558837890625,
				-277.3564453125,
				-106.92701721191406
			],
			"type":"VEC3"
		},
		{
			"bufferView":1,
			"componentType":5126,
			"count":1482,
			"type":"VEC3"
		},
		{
			"bufferView":2,
			"componentType":5126,
			"count":1482,
			"type":"VEC2"
		},
		{
			"bufferView":3,
			"componentType":5123,
			"count":1764,
			"type":"SCALAR"
		}
	],
	"bufferViews":[
		{
			"buffer":0,
			"byteLength":17784,
			"byteOffset":0,
			"target":34962
		},
		{
			"buffer":0,
			"byteLength":17784,
			"byteOffset":17784,
			"target":34962
		},
		{
			"buffer":0,
			"byteLength":11856,
			"byteOffset":35568,
			"target":34962
		},
		{
			"buffer":0,
			"byteLength":3528,
			"byteOffset":47424,
			"target":34963
		}
	],
	"buffers":[
		{
			"byteLength":50952,
			"uri":"jungle_SM_Env_Rock_Flat_01.bin"
		}
	]
}
