{"asset":{"generator":"Khronos glTF Blender I/O v4.4.55","version":"2.0"},"extensionsUsed":["EXT_texture_webp"],"extensionsRequired":["EXT_texture_webp"],"scene":0,"scenes":[{"name":"Scene","nodes":[3]}],"nodes":[{"mesh":0,"name":"SM_Env_Fern_01_LOD0"},{"mesh":1,"name":"SM_Env_Fern_01_LOD1"},{"mesh":2,"name":"SM_Env_Fern_01_LOD2"},{"children":[0,1,2],"name":"SM_Env_Fern_01","rotation":[0.7071068286895752,0,0,0.7071068286895752],"scale":[0.009999999776482582,0.009999999776482582,0.009999999776482582]}],"materials":[{"alphaMode":"MASK","doubleSided":true,"name":"Leaf8","pbrMetallicRoughness":{"baseColorTexture":{"index":1},"metallicFactor":0},"alphaCutoff":0.5}],"meshes":[{"name":"Mesh","primitives":[{"attributes":{"POSITION":0,"NORMAL":1,"TEXCOORD_0":2,"COLOR_0":3,"COLOR_1":4},"indices":5,"material":0}]},{"name":"Mesh.001","primitives":[{"attributes":{"POSITION":6,"NORMAL":7,"TEXCOORD_0":8,"COLOR_0":9,"COLOR_1":10},"indices":11,"material":0}]},{"name":"Mesh.002","primitives":[{"attributes":{"POSITION":12,"NORMAL":13,"TEXCOORD_0":14,"COLOR_0":15,"COLOR_1":16},"indices":17,"material":0}]}],"textures":[{"extensions":{},"sampler":0},{"extensions":{"EXT_texture_webp":{"source":0}},"sampler":0}],"images":[{"mimeType":"image/webp","name":"PolygonNatureBiomes_Tropical_Texture_01","uri":"PolygonNatureBiomes_Tropical_Texture_01.webp"}],"accessors":[{"bufferView":0,"componentType":5126,"count":468,"max":[140.93186950683594,127.33206939697266,19.73189353942871],"min":[-122.10453796386719,-114.35411071777344,-96.06623840332031],"type":"VEC3"},{"bufferView":1,"componentType":5126,"count":468,"type":"VEC3"},{"bufferView":2,"componentType":5126,"count":468,"type":"VEC2"},{"bufferView":3,"componentType":5121,"count":468,"normalized":true,"type":"VEC4"},{"bufferView":4,"componentType":5123,"count":468,"normalized":true,"type":"VEC4"},{"bufferView":5,"componentType":5123,"count":858,"type":"SCALAR"},{"bufferView":6,"componentType":5126,"count":306,"max":[140.93186950683594,127.33206939697266,19.73189353942871],"min":[-122.10453796386719,-114.35411071777344,-95.42562103271484],"type":"VEC3"},{"bufferView":7,"componentType":5126,"count":306,"type":"VEC3"},{"bufferView":8,"componentType":5126,"count":306,"type":"VEC2"},{"bufferView":9,"componentType":5121,"count":306,"normalized":true,"type":"VEC4"},{"bufferView":10,"componentType":5123,"count":306,"normalized":true,"type":"VEC4"},{"bufferView":11,"componentType":5123,"count":462,"type":"SCALAR"},{"bufferView":12,"componentType":5126,"count":219,"max":[140.93186950683594,127.33206939697266,19.73189353942871],"min":[-122.10453796386719,-114.35411071777344,-95.42562103271484],"type":"VEC3"},{"bufferView":13,"componentType":5126,"count":219,"type":"VEC3"},{"bufferView":14,"componentType":5126,"count":219,"type":"VEC2"},{"bufferView":15,"componentType":5121,"count":219,"normalized":true,"type":"VEC4"},{"bufferView":16,"componentType":5123,"count":219,"normalized":true,"type":"VEC4"},{"bufferView":17,"componentType":5123,"count":330,"type":"SCALAR"}],"bufferViews":[{"buffer":0,"byteLength":5616,"byteOffset":0,"target":34962},{"buffer":0,"byteLength":5616,"byteOffset":5616,"target":34962},{"buffer":0,"byteLength":3744,"byteOffset":11232,"target":34962},{"buffer":0,"byteLength":1872,"byteOffset":14976,"target":34962},{"buffer":0,"byteLength":3744,"byteOffset":16848,"target":34962},{"buffer":0,"byteLength":1716,"byteOffset":20592,"target":34963},{"buffer":0,"byteLength":3672,"byteOffset":22308,"target":34962},{"buffer":0,"byteLength":3672,"byteOffset":25980,"target":34962},{"buffer":0,"byteLength":2448,"byteOffset":29652,"target":34962},{"buffer":0,"byteLength":1224,"byteOffset":32100,"target":34962},{"buffer":0,"byteLength":2448,"byteOffset":33324,"target":34962},{"buffer":0,"byteLength":924,"byteOffset":35772,"target":34963},{"buffer":0,"byteLength":2628,"byteOffset":36696,"target":34962},{"buffer":0,"byteLength":2628,"byteOffset":39324,"target":34962},{"buffer":0,"byteLength":1752,"byteOffset":41952,"target":34962},{"buffer":0,"byteLength":876,"byteOffset":43704,"target":34962},{"buffer":0,"byteLength":1752,"byteOffset":44580,"target":34962},{"buffer":0,"byteLength":660,"byteOffset":46332,"target":34963}],"samplers":[{"magFilter":9729,"minFilter":9987}],"buffers":[{"byteLength":46992,"uri":"jungle_SM_Env_Fern_01.bin"}]}