{
	"asset":{
		"generator":"Khronos glTF Blender I/O v4.4.55",
		"version":"2.0"
	},
	"scene":0,
	"scenes":[
		{
			"name":"Scene",
			"nodes":[
				0
			]
		}
	],
	"nodes":[
		{
			"mesh":0,
			"name":"SM_Bld_Ruins_Wall_01",
			"rotation":[
				0.7071068286895752,
				0,
				0,
				0.7071068286895752
			],
			"scale":[
				0.009999999776482582,
				0.009999999776482582,
				0.009999999776482582
			]
		}
	],
	"materials":[
		{
			"doubleSided":true,
			"name":"Nature4",
			"pbrMetallicRoughness":{
				"metallicFactor":0
			}
		}
	],
	"meshes":[
		{
			"name":"Mesh",
			"primitives":[
				{
					"attributes":{
						"POSITION":0,
						"NORMAL":1,
						"TEXCOORD_0":2
					},
					"indices":3,
					"material":0
				}
			]
		}
	],
	"accessors":[
		{
			"bufferView":0,
			"componentType":5126,
			"count":6898,
			"max":[
				435.972900390625,
				58.0535888671875,
				0.057399261742830276
			],
			"min":[
				-436.0064697265625,
				-57.4312744140625,
				-480.8304748535156
			],
			"type":"VEC3"
		},
		{
			"bufferView":1,
			"componentType":5126,
			"count":6898,
			"type":"VEC3"
		},
		{
			"bufferView":2,
			"componentType":5126,
			"count":6898,
			"type":"VEC2"
		},
		{
			"bufferView":3,
			"componentType":5123,
			"count":7257,
			"type":"SCALAR"
		}
	],
	"bufferViews":[
		{
			"buffer":0,
			"byteLength":82776,
			"byteOffset":0,
			"target":34962
		},
		{
			"buffer":0,
			"byteLength":82776,
			"byteOffset":82776,
			"target":34962
		},
		{
			"buffer":0,
			"byteLength":55184,
			"byteOffset":165552,
			"target":34962
		},
		{
			"buffer":0,
			"byteLength":14514,
			"byteOffset":220736,
			"target":34963
		}
	],
	"buffers":[
		{
			"byteLength":235252,
			"uri":"jungle_SM_Bld_Ruins_Wall_01.bin"
		}
	]
}
