{
	"asset":{
		"generator":"Khronos glTF Blender I/O v4.4.55",
		"version":"2.0"
	},
	"scene":0,
	"scenes":[
		{
			"name":"Scene",
			"nodes":[
				0
			]
		}
	],
	"nodes":[
		{
			"mesh":0,
			"name":"SM_Env_Rock_Spikes_02",
			"rotation":[
				0.7071068286895752,
				0,
				0,
				0.7071068286895752
			],
			"scale":[
				0.009999999776482582,
				0.009999999776482582,
				0.009999999776482582
			]
		}
	],
	"materials":[
		{
			"doubleSided":true,
			"name":"Nature41",
			"pbrMetallicRoughness":{
				"metallicFactor":0
			}
		}
	],
	"meshes":[
		{
			"name":"Mesh",
			"primitives":[
				{
					"attributes":{
						"POSITION":0,
						"NORMAL":1,
						"TEXCOORD_0":2
					},
					"indices":3,
					"material":0
				}
			]
		}
	],
	"accessors":[
		{
			"bufferView":0,
			"componentType":5126,
			"count":4332,
			"max":[
				803.37939453125,
				562.61328125,
				146.27899169921875
			],
			"min":[
				-812.7978515625,
				-571.5400390625,
				-1321.8076171875
			],
			"type":"VEC3"
		},
		{
			"bufferView":1,
			"componentType":5126,
			"count":4332,
			"type":"VEC3"
		},
		{
			"bufferView":2,
			"componentType":5126,
			"count":4332,
			"type":"VEC2"
		},
		{
			"bufferView":3,
			"componentType":5123,
			"count":5760,
			"type":"SCALAR"
		}
	],
	"bufferViews":[
		{
			"buffer":0,
			"byteLength":51984,
			"byteOffset":0,
			"target":34962
		},
		{
			"buffer":0,
			"byteLength":51984,
			"byteOffset":51984,
			"target":34962
		},
		{
			"buffer":0,
			"byteLength":34656,
			"byteOffset":103968,
			"target":34962
		},
		{
			"buffer":0,
			"byteLength":11520,
			"byteOffset":138624,
			"target":34963
		}
	],
	"buffers":[
		{
			"byteLength":150144,
			"uri":"jungle_SM_Env_Rock_Spikes_02.bin"
		}
	]
}
