{"asset":{"generator":"Khronos glTF Blender I/O v4.4.55","version":"2.0"},"extensionsUsed":["EXT_texture_webp"],"extensionsRequired":["EXT_texture_webp"],"scene":0,"scenes":[{"name":"Scene","nodes":[3]}],"nodes":[{"mesh":0,"name":"SM_Env_Grass_Bush_01_LOD0"},{"mesh":1,"name":"SM_Env_Grass_Bush_01_LOD1"},{"mesh":2,"name":"SM_Env_Grass_Bush_01_LOD2"},{"children":[0,1,2],"name":"SM_Env_Grass_Bush_01","rotation":[0.7071068286895752,0,0,0.7071068286895752],"scale":[0.009999999776482582,0.009999999776482582,0.009999999776482582]}],"materials":[{"alphaMode":"MASK","doubleSided":true,"name":"grassSHD10","pbrMetallicRoughness":{"baseColorTexture":{"index":0},"metallicFactor":0},"alphaCutoff":0.5},{"alphaMode":"MASK","doubleSided":true,"name":"grassSHD8","pbrMetallicRoughness":{"baseColorTexture":{"index":1},"metallicFactor":0},"alphaCutoff":0.5}],"meshes":[{"name":"Mesh","primitives":[{"attributes":{"POSITION":0,"NORMAL":1,"TEXCOORD_0":2,"COLOR_0":3,"COLOR_1":4},"indices":5,"material":0}]},{"name":"Mesh.001","primitives":[{"attributes":{"POSITION":6,"NORMAL":7,"TEXCOORD_0":8,"COLOR_0":9,"COLOR_1":10},"indices":11,"material":0}]},{"name":"Mesh.002","primitives":[{"attributes":{"POSITION":12,"NORMAL":13,"TEXCOORD_0":14,"COLOR_0":15,"COLOR_1":16},"indices":17,"material":1}]}],"textures":[{"extensions":{"EXT_texture_webp":{"source":0}},"sampler":0},{"extensions":{"EXT_texture_webp":{"source":0}},"sampler":0}],"images":[{"mimeType":"image/webp","name":"Grass_01","uri":"Grass_01.webp"}],"accessors":[{"bufferView":0,"componentType":5126,"count":106,"max":[117.71370697021484,112.48932647705078,23.212379455566406],"min":[-109.85557556152344,-118.20502471923828,-96.9864273071289],"type":"VEC3"},{"bufferView":1,"componentType":5126,"count":106,"type":"VEC3"},{"bufferView":2,"componentType":5126,"count":106,"type":"VEC2"},{"bufferView":3,"componentType":5121,"count":106,"normalized":true,"type":"VEC4"},{"bufferView":4,"componentType":5123,"count":106,"normalized":true,"type":"VEC4"},{"bufferView":5,"componentType":5123,"count":234,"type":"SCALAR"},{"bufferView":6,"componentType":5126,"count":56,"max":[117.71370697021484,112.48932647705078,23.212379455566406],"min":[-109.85557556152344,-118.20502471923828,-96.9864273071289],"type":"VEC3"},{"bufferView":7,"componentType":5126,"count":56,"type":"VEC3"},{"bufferView":8,"componentType":5126,"count":56,"type":"VEC2"},{"bufferView":9,"componentType":5121,"count":56,"normalized":true,"type":"VEC4"},{"bufferView":10,"componentType":5123,"count":56,"normalized":true,"type":"VEC4"},{"bufferView":11,"componentType":5123,"count":84,"type":"SCALAR"},{"bufferView":12,"componentType":5126,"count":8,"max":[49.045982360839844,48.78577423095703,2.686995267868042],"min":[-50.954017639160156,-51.21422576904297,-97.31300354003906],"type":"VEC3"},{"bufferView":13,"componentType":5126,"count":8,"type":"VEC3"},{"bufferView":14,"componentType":5126,"count":8,"type":"VEC2"},{"bufferView":15,"componentType":5121,"count":8,"normalized":true,"type":"VEC4"},{"bufferView":16,"componentType":5123,"count":8,"normalized":true,"type":"VEC4"},{"bufferView":17,"componentType":5123,"count":12,"type":"SCALAR"}],"bufferViews":[{"buffer":0,"byteLength":1272,"byteOffset":0,"target":34962},{"buffer":0,"byteLength":1272,"byteOffset":1272,"target":34962},{"buffer":0,"byteLength":848,"byteOffset":2544,"target":34962},{"buffer":0,"byteLength":424,"byteOffset":3392,"target":34962},{"buffer":0,"byteLength":848,"byteOffset":3816,"target":34962},{"buffer":0,"byteLength":468,"byteOffset":4664,"target":34963},{"buffer":0,"byteLength":672,"byteOffset":5132,"target":34962},{"buffer":0,"byteLength":672,"byteOffset":5804,"target":34962},{"buffer":0,"byteLength":448,"byteOffset":6476,"target":34962},{"buffer":0,"byteLength":224,"byteOffset":6924,"target":34962},{"buffer":0,"byteLength":448,"byteOffset":7148,"target":34962},{"buffer":0,"byteLength":168,"byteOffset":7596,"target":34963},{"buffer":0,"byteLength":96,"byteOffset":7764,"target":34962},{"buffer":0,"byteLength":96,"byteOffset":7860,"target":34962},{"buffer":0,"byteLength":64,"byteOffset":7956,"target":34962},{"buffer":0,"byteLength":32,"byteOffset":8020,"target":34962},{"buffer":0,"byteLength":64,"byteOffset":8052,"target":34962},{"buffer":0,"byteLength":24,"byteOffset":8116,"target":34963}],"samplers":[{"magFilter":9729,"minFilter":9987}],"buffers":[{"byteLength":8140,"uri":"jungle_SM_Env_Grass_Bush_01.bin"}]}