{
	"asset":{
		"generator":"Khronos glTF Blender I/O v4.4.55",
		"version":"2.0"
	},
	"scene":0,
	"scenes":[
		{
			"name":"Scene",
			"nodes":[
				3
			]
		}
	],
	"nodes":[
		{
			"mesh":0,
			"name":"SM_Env_Flowers_01_LOD0"
		},
		{
			"mesh":1,
			"name":"SM_Env_Flowers_01_LOD1"
		},
		{
			"mesh":2,
			"name":"SM_Env_Flowers_01_LOD2"
		},
		{
			"children":[
				0,
				1,
				2
			],
			"name":"SM_Env_Flowers_01",
			"rotation":[
				0.7071068286895752,
				0,
				0,
				0.7071068286895752
			],
			"scale":[
				0.009999999776482582,
				0.009999999776482582,
				0.009999999776482582
			]
		}
	],
	"materials":[
		{
			"doubleSided":true,
			"name":"Nature7",
			"pbrMetallicRoughness":{
				"metallicFactor":0
			}
		}
	],
	"meshes":[
		{
			"name":"Mesh",
			"primitives":[
				{
					"attributes":{
						"POSITION":0,
						"NORMAL":1,
						"TEXCOORD_0":2,
						"COLOR_0":3,
						"COLOR_1":4
					},
					"indices":5,
					"material":0
				}
			]
		},
		{
			"name":"Mesh.001",
			"primitives":[
				{
					"attributes":{
						"POSITION":6,
						"NORMAL":7,
						"TEXCOORD_0":8,
						"COLOR_0":9,
						"COLOR_1":10
					},
					"indices":11,
					"material":0
				}
			]
		},
		{
			"name":"Mesh.002",
			"primitives":[
				{
					"attributes":{
						"POSITION":12,
						"NORMAL":13,
						"TEXCOORD_0":14,
						"COLOR_0":15,
						"COLOR_1":16
					},
					"indices":17,
					"material":0
				}
			]
		}
	],
	"accessors":[
		{
			"bufferView":0,
			"componentType":5126,
			"count":655,
			"max":[
				30.17518424987793,
				35.75227737426758,
				15.246881484985352
			],
			"min":[
				-25.420034408569336,
				-20.006610870361328,
				-73.03169250488281
			],
			"type":"VEC3"
		},
		{
			"bufferView":1,
			"componentType":5126,
			"count":655,
			"type":"VEC3"
		},
		{
			"bufferView":2,
			"componentType":5126,
			"count":655,
			"type":"VEC2"
		},
		{
			"bufferView":3,
			"componentType":5121,
			"count":655,
			"normalized":true,
			"type":"VEC4"
		},
		{
			"bufferView":4,
			"componentType":5123,
			"count":655,
			"normalized":true,
			"type":"VEC4"
		},
		{
			"bufferView":5,
			"componentType":5123,
			"count":1290,
			"type":"SCALAR"
		},
		{
			"bufferView":6,
			"componentType":5126,
			"count":408,
			"max":[
				30.17518424987793,
				35.75227737426758,
				15.246881484985352
			],
			"min":[
				-25.420034408569336,
				-20.006610870361328,
				-72.9915771484375
			],
			"type":"VEC3"
		},
		{
			"bufferView":7,
			"componentType":5126,
			"count":408,
			"type":"VEC3"
		},
		{
			"bufferView":8,
			"componentType":5126,
			"count":408,
			"type":"VEC2"
		},
		{
			"bufferView":9,
			"componentType":5121,
			"count":408,
			"normalized":true,
			"type":"VEC4"
		},
		{
			"bufferView":10,
			"componentType":5123,
			"count":408,
			"normalized":true,
			"type":"VEC4"
		},
		{
			"bufferView":11,
			"componentType":5123,
			"count":720,
			"type":"SCALAR"
		},
		{
			"bufferView":12,
			"componentType":5126,
			"count":257,
			"max":[
				32.2830696105957,
				37.60888671875,
				15.246881484985352
			],
			"min":[
				-27.573850631713867,
				-18.87194061279297,
				-73.48139190673828
			],
			"type":"VEC3"
		},
		{
			"bufferView":13,
			"componentType":5126,
			"count":257,
			"type":"VEC3"
		},
		{
			"bufferView":14,
			"componentType":5126,
			"count":257,
			"type":"VEC2"
		},
		{
			"bufferView":15,
			"componentType":5121,
			"count":257,
			"normalized":true,
			"type":"VEC4"
		},
		{
			"bufferView":16,
			"componentType":5123,
			"count":257,
			"normalized":true,
			"type":"VEC4"
		},
		{
			"bufferView":17,
			"componentType":5123,
			"count":450,
			"type":"SCALAR"
		}
	],
	"bufferViews":[
		{
			"buffer":0,
			"byteLength":7860,
			"byteOffset":0,
			"target":34962
		},
		{
			"buffer":0,
			"byteLength":7860,
			"byteOffset":7860,
			"target":34962
		},
		{
			"buffer":0,
			"byteLength":5240,
			"byteOffset":15720,
			"target":34962
		},
		{
			"buffer":0,
			"byteLength":2620,
			"byteOffset":20960,
			"target":34962
		},
		{
			"buffer":0,
			"byteLength":5240,
			"byteOffset":23580,
			"target":34962
		},
		{
			"buffer":0,
			"byteLength":2580,
			"byteOffset":28820,
			"target":34963
		},
		{
			"buffer":0,
			"byteLength":4896,
			"byteOffset":31400,
			"target":34962
		},
		{
			"buffer":0,
			"byteLength":4896,
			"byteOffset":36296,
			"target":34962
		},
		{
			"buffer":0,
			"byteLength":3264,
			"byteOffset":41192,
			"target":34962
		},
		{
			"buffer":0,
			"byteLength":1632,
			"byteOffset":44456,
			"target":34962
		},
		{
			"buffer":0,
			"byteLength":3264,
			"byteOffset":46088,
			"target":34962
		},
		{
			"buffer":0,
			"byteLength":1440,
			"byteOffset":49352,
			"target":34963
		},
		{
			"buffer":0,
			"byteLength":3084,
			"byteOffset":50792,
			"target":34962
		},
		{
			"buffer":0,
			"byteLength":3084,
			"byteOffset":53876,
			"target":34962
		},
		{
			"buffer":0,
			"byteLength":2056,
			"byteOffset":56960,
			"target":34962
		},
		{
			"buffer":0,
			"byteLength":1028,
			"byteOffset":59016,
			"target":34962
		},
		{
			"buffer":0,
			"byteLength":2056,
			"byteOffset":60044,
			"target":34962
		},
		{
			"buffer":0,
			"byteLength":900,
			"byteOffset":62100,
			"target":34963
		}
	],
	"buffers":[
		{
			"byteLength":63000,
			"uri":"jungle_SM_Env_Flowers_01.bin"
		}
	]
}
