{
	"asset":{
		"generator":"Khronos glTF Blender I/O v4.4.55",
		"version":"2.0"
	},
	"scene":0,
	"scenes":[
		{
			"name":"Scene",
			"nodes":[
				0
			]
		}
	],
	"nodes":[
		{
			"mesh":0,
			"name":"SM_Prop_Barrel_Broken_02",
			"rotation":[
				0.7071068286895752,
				0,
				0,
				0.7071068286895752
			],
			"scale":[
				0.009999999776482582,
				0.009999999776482582,
				0.009999999776482582
			]
		}
	],
	"materials":[
		{
			"doubleSided":true,
			"name":"Explorer_MAT14",
			"pbrMetallicRoughness":{
				"metallicFactor":0
			}
		}
	],
	"meshes":[
		{
			"name":"Mesh",
			"primitives":[
				{
					"attributes":{
						"POSITION":0,
						"NORMAL":1,
						"TEXCOORD_0":2
					},
					"indices":3,
					"material":0
				}
			]
		}
	],
	"accessors":[
		{
			"bufferView":0,
			"componentType":5126,
			"count":1546,
			"max":[
				67.44466400146484,
				140.56639099121094,
				2.435237169265747
			],
			"min":[
				-120.28092956542969,
				-75.38043212890625,
				-64.88704681396484
			],
			"type":"VEC3"
		},
		{
			"bufferView":1,
			"componentType":5126,
			"count":1546,
			"type":"VEC3"
		},
		{
			"bufferView":2,
			"componentType":5126,
			"count":1546,
			"type":"VEC2"
		},
		{
			"bufferView":3,
			"componentType":5123,
			"count":2394,
			"type":"SCALAR"
		}
	],
	"bufferViews":[
		{
			"buffer":0,
			"byteLength":18552,
			"byteOffset":0,
			"target":34962
		},
		{
			"buffer":0,
			"byteLength":18552,
			"byteOffset":18552,
			"target":34962
		},
		{
			"buffer":0,
			"byteLength":12368,
			"byteOffset":37104,
			"target":34962
		},
		{
			"buffer":0,
			"byteLength":4788,
			"byteOffset":49472,
			"target":34963
		}
	],
	"buffers":[
		{
			"byteLength":54260,
			"uri":"jungle_SM_Prop_Barrel_Broken_02.bin"
		}
	]
}
