{
	"asset":{
		"generator":"Khronos glTF Blender I/O v4.4.55",
		"version":"2.0"
	},
	"scene":0,
	"scenes":[
		{
			"name":"Scene",
			"nodes":[
				0
			]
		}
	],
	"nodes":[
		{
			"mesh":0,
			"name":"SM_Prop_Coral_04",
			"rotation":[
				0.7071068286895752,
				0,
				0,
				0.7071068286895752
			],
			"scale":[
				0.009999999776482582,
				0.009999999776482582,
				0.009999999776482582
			]
		}
	],
	"materials":[
		{
			"doubleSided":true,
			"name":"Explorer_MAT21",
			"pbrMetallicRoughness":{
				"metallicFactor":0
			}
		}
	],
	"meshes":[
		{
			"name":"Mesh",
			"primitives":[
				{
					"attributes":{
						"POSITION":0,
						"NORMAL":1,
						"TEXCOORD_0":2
					},
					"indices":3,
					"material":0
				}
			]
		}
	],
	"accessors":[
		{
			"bufferView":0,
			"componentType":5126,
			"count":1410,
			"max":[
				24.022369384765625,
				5.191874027252197,
				1.3533282279968262
			],
			"min":[
				-24.101974487304688,
				-5.354975700378418,
				-42.161277770996094
			],
			"type":"VEC3"
		},
		{
			"bufferView":1,
			"componentType":5126,
			"count":1410,
			"type":"VEC3"
		},
		{
			"bufferView":2,
			"componentType":5126,
			"count":1410,
			"type":"VEC2"
		},
		{
			"bufferView":3,
			"componentType":5123,
			"count":2064,
			"type":"SCALAR"
		}
	],
	"bufferViews":[
		{
			"buffer":0,
			"byteLength":16920,
			"byteOffset":0,
			"target":34962
		},
		{
			"buffer":0,
			"byteLength":16920,
			"byteOffset":16920,
			"target":34962
		},
		{
			"buffer":0,
			"byteLength":11280,
			"byteOffset":33840,
			"target":34962
		},
		{
			"buffer":0,
			"byteLength":4128,
			"byteOffset":45120,
			"target":34963
		}
	],
	"buffers":[
		{
			"byteLength":49248,
			"uri":"jungle_SM_Prop_Coral_04.bin"
		}
	]
}
