{
	"asset":{
		"generator":"Khronos glTF Blender I/O v4.4.55",
		"version":"2.0"
	},
	"scene":0,
	"scenes":[
		{
			"name":"Scene",
			"nodes":[
				5
			]
		}
	],
	"nodes":[
		{
			"mesh":0,
			"name":"SM_Env_Tree_Pohutukawa_01_Branches_LOD0"
		},
		{
			"mesh":1,
			"name":"SM_Env_Tree_Pohutukawa_01_Branches_LOD1"
		},
		{
			"mesh":2,
			"name":"SM_Env_Tree_Pohutukawa_01_LOD0"
		},
		{
			"mesh":3,
			"name":"SM_Env_Tree_Pohutukawa_01_LOD1"
		},
		{
			"mesh":4,
			"name":"SM_Env_Tree_Pohutukawa_01_LOD2"
		},
		{
			"children":[
				0,
				1,
				2,
				3,
				4
			],
			"name":"SM_Env_Tree_Pohutukawa_01",
			"rotation":[
				0.7071068286895752,
				0,
				0,
				0.7071068286895752
			],
			"scale":[
				0.009999999776482582,
				0.009999999776482582,
				0.009999999776482582
			]
		}
	],
	"materials":[
		{
			"doubleSided":true,
			"name":"lambert31",
			"pbrMetallicRoughness":{
				"baseColorFactor":[
					0.5,
					0.5,
					0.5,
					1
				],
				"metallicFactor":0
			}
		}
	],
	"meshes":[
		{
			"name":"Mesh",
			"primitives":[
				{
					"attributes":{
						"POSITION":0,
						"NORMAL":1,
						"TEXCOORD_0":2,
						"COLOR_0":3,
						"COLOR_1":4
					},
					"indices":5,
					"material":0
				}
			]
		},
		{
			"name":"Mesh.001",
			"primitives":[
				{
					"attributes":{
						"POSITION":6,
						"NORMAL":7,
						"TEXCOORD_0":8,
						"COLOR_0":9,
						"COLOR_1":10
					},
					"indices":11,
					"material":0
				}
			]
		},
		{
			"name":"Mesh.002",
			"primitives":[
				{
					"attributes":{
						"POSITION":12,
						"NORMAL":13,
						"TEXCOORD_0":14,
						"COLOR_0":15,
						"COLOR_1":16
					},
					"indices":17,
					"material":0
				}
			]
		},
		{
			"name":"Mesh.003",
			"primitives":[
				{
					"attributes":{
						"POSITION":18,
						"NORMAL":19,
						"TEXCOORD_0":20,
						"COLOR_0":21,
						"COLOR_1":22
					},
					"indices":23,
					"material":0
				}
			]
		},
		{
			"name":"Mesh.004",
			"primitives":[
				{
					"attributes":{
						"POSITION":24,
						"NORMAL":25,
						"TEXCOORD_0":26,
						"COLOR_0":27,
						"COLOR_1":28
					},
					"indices":29,
					"material":0
				}
			]
		}
	],
	"accessors":[
		{
			"bufferView":0,
			"componentType":5126,
			"count":189,
			"max":[
				372.61517333984375,
				290.3690185546875,
				-246.62277221679688
			],
			"min":[
				-406.4962463378906,
				-284.3124084472656,
				-607.249755859375
			],
			"type":"VEC3"
		},
		{
			"bufferView":1,
			"componentType":5126,
			"count":189,
			"type":"VEC3"
		},
		{
			"bufferView":2,
			"componentType":5126,
			"count":189,
			"type":"VEC2"
		},
		{
			"bufferView":3,
			"componentType":5121,
			"count":189,
			"normalized":true,
			"type":"VEC4"
		},
		{
			"bufferView":4,
			"componentType":5123,
			"count":189,
			"normalized":true,
			"type":"VEC4"
		},
		{
			"bufferView":5,
			"componentType":5123,
			"count":630,
			"type":"SCALAR"
		},
		{
			"bufferView":6,
			"componentType":5126,
			"count":126,
			"max":[
				372.61517333984375,
				290.3690185546875,
				-246.62277221679688
			],
			"min":[
				-406.4962463378906,
				-284.3124084472656,
				-607.249755859375
			],
			"type":"VEC3"
		},
		{
			"bufferView":7,
			"componentType":5126,
			"count":126,
			"type":"VEC3"
		},
		{
			"bufferView":8,
			"componentType":5126,
			"count":126,
			"type":"VEC2"
		},
		{
			"bufferView":9,
			"componentType":5121,
			"count":126,
			"normalized":true,
			"type":"VEC4"
		},
		{
			"bufferView":10,
			"componentType":5123,
			"count":126,
			"normalized":true,
			"type":"VEC4"
		},
		{
			"bufferView":11,
			"componentType":5123,
			"count":252,
			"type":"SCALAR"
		},
		{
			"bufferView":12,
			"componentType":5126,
			"count":24054,
			"max":[
				450.2196960449219,
				389.5188293457031,
				41.49437713623047
			],
			"min":[
				-493.5171203613281,
				-349.22491455078125,
				-691.0682373046875
			],
			"type":"VEC3"
		},
		{
			"bufferView":13,
			"componentType":5126,
			"count":24054,
			"type":"VEC3"
		},
		{
			"bufferView":14,
			"componentType":5126,
			"count":24054,
			"type":"VEC2"
		},
		{
			"bufferView":15,
			"componentType":5121,
			"count":24054,
			"normalized":true,
			"type":"VEC4"
		},
		{
			"bufferView":16,
			"componentType":5123,
			"count":24054,
			"normalized":true,
			"type":"VEC4"
		},
		{
			"bufferView":17,
			"componentType":5123,
			"count":35949,
			"type":"SCALAR"
		},
		{
			"bufferView":18,
			"componentType":5126,
			"count":13940,
			"max":[
				470.2611389160156,
				404.0343017578125,
				41.49437713623047
			],
			"min":[
				-495.571533203125,
				-362.4931945800781,
				-711.064453125
			],
			"type":"VEC3"
		},
		{
			"bufferView":19,
			"componentType":5126,
			"count":13940,
			"type":"VEC3"
		},
		{
			"bufferView":20,
			"componentType":5126,
			"count":13940,
			"type":"VEC2"
		},
		{
			"bufferView":21,
			"componentType":5121,
			"count":13940,
			"normalized":true,
			"type":"VEC4"
		},
		{
			"bufferView":22,
			"componentType":5123,
			"count":13940,
			"normalized":true,
			"type":"VEC4"
		},
		{
			"bufferView":23,
			"componentType":5123,
			"count":20775,
			"type":"SCALAR"
		},
		{
			"bufferView":24,
			"componentType":5126,
			"count":16,
			"max":[
				456.034423828125,
				402.44268798828125,
				55.308021545410156
			],
			"min":[
				-503.7720031738281,
				-357.2852478027344,
				-696.611328125
			],
			"type":"VEC3"
		},
		{
			"bufferView":25,
			"componentType":5126,
			"count":16,
			"type":"VEC3"
		},
		{
			"bufferView":26,
			"componentType":5126,
			"count":16,
			"type":"VEC2"
		},
		{
			"bufferView":27,
			"componentType":5121,
			"count":16,
			"normalized":true,
			"type":"VEC4"
		},
		{
			"bufferView":28,
			"componentType":5123,
			"count":16,
			"normalized":true,
			"type":"VEC4"
		},
		{
			"bufferView":29,
			"componentType":5123,
			"count":24,
			"type":"SCALAR"
		}
	],
	"bufferViews":[
		{
			"buffer":0,
			"byteLength":2268,
			"byteOffset":0,
			"target":34962
		},
		{
			"buffer":0,
			"byteLength":2268,
			"byteOffset":2268,
			"target":34962
		},
		{
			"buffer":0,
			"byteLength":1512,
			"byteOffset":4536,
			"target":34962
		},
		{
			"buffer":0,
			"byteLength":756,
			"byteOffset":6048,
			"target":34962
		},
		{
			"buffer":0,
			"byteLength":1512,
			"byteOffset":6804,
			"target":34962
		},
		{
			"buffer":0,
			"byteLength":1260,
			"byteOffset":8316,
			"target":34963
		},
		{
			"buffer":0,
			"byteLength":1512,
			"byteOffset":9576,
			"target":34962
		},
		{
			"buffer":0,
			"byteLength":1512,
			"byteOffset":11088,
			"target":34962
		},
		{
			"buffer":0,
			"byteLength":1008,
			"byteOffset":12600,
			"target":34962
		},
		{
			"buffer":0,
			"byteLength":504,
			"byteOffset":13608,
			"target":34962
		},
		{
			"buffer":0,
			"byteLength":1008,
			"byteOffset":14112,
			"target":34962
		},
		{
			"buffer":0,
			"byteLength":504,
			"byteOffset":15120,
			"target":34963
		},
		{
			"buffer":0,
			"byteLength":288648,
			"byteOffset":15624,
			"target":34962
		},
		{
			"buffer":0,
			"byteLength":288648,
			"byteOffset":304272,
			"target":34962
		},
		{
			"buffer":0,
			"byteLength":192432,
			"byteOffset":592920,
			"target":34962
		},
		{
			"buffer":0,
			"byteLength":96216,
			"byteOffset":785352,
			"target":34962
		},
		{
			"buffer":0,
			"byteLength":192432,
			"byteOffset":881568,
			"target":34962
		},
		{
			"buffer":0,
			"byteLength":71898,
			"byteOffset":1074000,
			"target":34963
		},
		{
			"buffer":0,
			"byteLength":167280,
			"byteOffset":1145900,
			"target":34962
		},
		{
			"buffer":0,
			"byteLength":167280,
			"byteOffset":1313180,
			"target":34962
		},
		{
			"buffer":0,
			"byteLength":111520,
			"byteOffset":1480460,
			"target":34962
		},
		{
			"buffer":0,
			"byteLength":55760,
			"byteOffset":1591980,
			"target":34962
		},
		{
			"buffer":0,
			"byteLength":111520,
			"byteOffset":1647740,
			"target":34962
		},
		{
			"buffer":0,
			"byteLength":41550,
			"byteOffset":1759260,
			"target":34963
		},
		{
			"buffer":0,
			"byteLength":192,
			"byteOffset":1800812,
			"target":34962
		},
		{
			"buffer":0,
			"byteLength":192,
			"byteOffset":1801004,
			"target":34962
		},
		{
			"buffer":0,
			"byteLength":128,
			"byteOffset":1801196,
			"target":34962
		},
		{
			"buffer":0,
			"byteLength":64,
			"byteOffset":1801324,
			"target":34962
		},
		{
			"buffer":0,
			"byteLength":128,
			"byteOffset":1801388,
			"target":34962
		},
		{
			"buffer":0,
			"byteLength":48,
			"byteOffset":1801516,
			"target":34963
		}
	],
	"buffers":[
		{
			"byteLength":1801564,
			"uri":"jungle_SM_Env_Tree_Pohutukawa_01.bin"
		}
	]
}
