{
	"asset":{
		"generator":"Khronos glTF Blender I/O v4.4.55",
		"version":"2.0"
	},
	"scene":0,
	"scenes":[
		{
			"name":"Scene",
			"nodes":[
				0
			]
		}
	],
	"nodes":[
		{
			"mesh":0,
			"name":"SM_Bld_Ruins_Column_01",
			"rotation":[
				0.7071068286895752,
				0,
				0,
				0.7071068286895752
			],
			"scale":[
				0.009999999776482582,
				0.009999999776482582,
				0.009999999776482582
			]
		}
	],
	"materials":[
		{
			"doubleSided":true,
			"name":"Nature1",
			"pbrMetallicRoughness":{
				"metallicFactor":0
			}
		}
	],
	"meshes":[
		{
			"name":"Mesh",
			"primitives":[
				{
					"attributes":{
						"POSITION":0,
						"NORMAL":1,
						"TEXCOORD_0":2
					},
					"indices":3,
					"material":0
				}
			]
		}
	],
	"accessors":[
		{
			"bufferView":0,
			"componentType":5126,
			"count":1364,
			"max":[
				79.227783203125,
				75.29248046875,
				24.057241439819336
			],
			"min":[
				-79.227783203125,
				-75.3267822265625,
				-504.7000732421875
			],
			"type":"VEC3"
		},
		{
			"bufferView":1,
			"componentType":5126,
			"count":1364,
			"type":"VEC3"
		},
		{
			"bufferView":2,
			"componentType":5126,
			"count":1364,
			"type":"VEC2"
		},
		{
			"bufferView":3,
			"componentType":5123,
			"count":1758,
			"type":"SCALAR"
		}
	],
	"bufferViews":[
		{
			"buffer":0,
			"byteLength":16368,
			"byteOffset":0,
			"target":34962
		},
		{
			"buffer":0,
			"byteLength":16368,
			"byteOffset":16368,
			"target":34962
		},
		{
			"buffer":0,
			"byteLength":10912,
			"byteOffset":32736,
			"target":34962
		},
		{
			"buffer":0,
			"byteLength":3516,
			"byteOffset":43648,
			"target":34963
		}
	],
	"buffers":[
		{
			"byteLength":47164,
			"uri":"jungle_SM_Bld_Ruins_Column_01.bin"
		}
	]
}
