{
	"asset":{
		"generator":"Khronos glTF Blender I/O v4.4.55",
		"version":"2.0"
	},
	"scene":0,
	"scenes":[
		{
			"name":"Scene",
			"nodes":[
				0
			]
		}
	],
	"nodes":[
		{
			"mesh":0,
			"name":"SM_Env_Seaweed_Beach_01",
			"rotation":[
				0.7071068286895752,
				0,
				0,
				0.7071068286895752
			],
			"scale":[
				0.009999999776482582,
				0.009999999776482582,
				0.009999999776482582
			]
		}
	],
	"materials":[
		{
			"doubleSided":true,
			"name":"lambert20",
			"pbrMetallicRoughness":{
				"metallicFactor":0
			}
		}
	],
	"meshes":[
		{
			"name":"Mesh",
			"primitives":[
				{
					"attributes":{
						"POSITION":0,
						"NORMAL":1,
						"TEXCOORD_0":2
					},
					"indices":3,
					"material":0
				}
			]
		}
	],
	"accessors":[
		{
			"bufferView":0,
			"componentType":5126,
			"count":626,
			"max":[
				80.62991333007812,
				61.393489837646484,
				1.7832965850830078
			],
			"min":[
				-85.5826416015625,
				-86.82093811035156,
				-8.64041519165039
			],
			"type":"VEC3"
		},
		{
			"bufferView":1,
			"componentType":5126,
			"count":626,
			"type":"VEC3"
		},
		{
			"bufferView":2,
			"componentType":5126,
			"count":626,
			"type":"VEC2"
		},
		{
			"bufferView":3,
			"componentType":5123,
			"count":1224,
			"type":"SCALAR"
		}
	],
	"bufferViews":[
		{
			"buffer":0,
			"byteLength":7512,
			"byteOffset":0,
			"target":34962
		},
		{
			"buffer":0,
			"byteLength":7512,
			"byteOffset":7512,
			"target":34962
		},
		{
			"buffer":0,
			"byteLength":5008,
			"byteOffset":15024,
			"target":34962
		},
		{
			"buffer":0,
			"byteLength":2448,
			"byteOffset":20032,
			"target":34963
		}
	],
	"buffers":[
		{
			"byteLength":22480,
			"uri":"jungle_SM_Env_Seaweed_Beach_01.bin"
		}
	]
}
