{
	"asset":{
		"generator":"Khronos glTF Blender I/O v4.4.55",
		"version":"2.0"
	},
	"scene":0,
	"scenes":[
		{
			"name":"Scene",
			"nodes":[
				0
			]
		}
	],
	"nodes":[
		{
			"mesh":0,
			"name":"SM_Prop_Whale_Skeleton_Tail_01",
			"rotation":[
				0.7071068286895752,
				0,
				0,
				0.7071068286895752
			],
			"scale":[
				0.009999999776482582,
				0.009999999776482582,
				0.009999999776482582
			]
		}
	],
	"materials":[
		{
			"doubleSided":true,
			"name":"Nature_Base_Mat15",
			"pbrMetallicRoughness":{
				"metallicFactor":0
			}
		}
	],
	"meshes":[
		{
			"name":"Mesh",
			"primitives":[
				{
					"attributes":{
						"POSITION":0,
						"NORMAL":1,
						"TEXCOORD_0":2
					},
					"indices":3,
					"material":0
				}
			]
		}
	],
	"accessors":[
		{
			"bufferView":0,
			"componentType":5126,
			"count":2317,
			"max":[
				509.88671875,
				458.94720458984375,
				0
			],
			"min":[
				-283.8603515625,
				-651.787353515625,
				-269.4172058105469
			],
			"type":"VEC3"
		},
		{
			"bufferView":1,
			"componentType":5126,
			"count":2317,
			"type":"VEC3"
		},
		{
			"bufferView":2,
			"componentType":5126,
			"count":2317,
			"type":"VEC2"
		},
		{
			"bufferView":3,
			"componentType":5123,
			"count":3006,
			"type":"SCALAR"
		}
	],
	"bufferViews":[
		{
			"buffer":0,
			"byteLength":27804,
			"byteOffset":0,
			"target":34962
		},
		{
			"buffer":0,
			"byteLength":27804,
			"byteOffset":27804,
			"target":34962
		},
		{
			"buffer":0,
			"byteLength":18536,
			"byteOffset":55608,
			"target":34962
		},
		{
			"buffer":0,
			"byteLength":6012,
			"byteOffset":74144,
			"target":34963
		}
	],
	"buffers":[
		{
			"byteLength":80156,
			"uri":"jungle_SM_Prop_Whale_Skeleton_Tail_01.bin"
		}
	]
}
