{
	"asset":{
		"generator":"Khronos glTF Blender I/O v4.4.55",
		"version":"2.0"
	},
	"extensionsUsed":[
		"EXT_texture_webp"
	],
	"extensionsRequired":[
		"EXT_texture_webp"
	],
	"scene":0,
	"scenes":[
		{
			"name":"Scene",
			"nodes":[
				0
			]
		}
	],
	"nodes":[
		{
			"mesh":0,
			"name":"SM_Env_Vines_05",
			"rotation":[
				0.7071068286895752,
				0,
				0,
				0.7071068286895752
			],
			"scale":[
				0.009999999776482582,
				0.009999999776482582,
				0.009999999776482582
			]
		}
	],
	"materials":[
		{
			"doubleSided":true,
			"name":"Nature45",
			"pbrMetallicRoughness":{
				"baseColorTexture":{
					"index":0
				},
				"metallicFactor":0
			}
		}
	],
	"meshes":[
		{
			"name":"Mesh",
			"primitives":[
				{
					"attributes":{
						"POSITION":0,
						"NORMAL":1,
						"TEXCOORD_0":2,
						"COLOR_0":3,
						"COLOR_1":4
					},
					"indices":5,
					"material":0
				}
			]
		}
	],
	"textures":[
		{
			"extensions":{
				"EXT_texture_webp":{
					"source":0
				}
			},
			"sampler":0
		}
	],
	"images":[
		{
			"mimeType":"image/webp",
			"name":"PolygonNatureBiomes_Tropical_Texture_01",
			"uri":"PolygonNatureBiomes_Tropical_Texture_01.webp"
		}
	],
	"accessors":[
		{
			"bufferView":0,
			"componentType":5126,
			"count":855,
			"max":[
				12.849517822265625,
				490.68023681640625,
				115.18087005615234
			],
			"min":[
				-12.615217208862305,
				-3.5177648067474365,
				-6.561895847320557
			],
			"type":"VEC3"
		},
		{
			"bufferView":1,
			"componentType":5126,
			"count":855,
			"type":"VEC3"
		},
		{
			"bufferView":2,
			"componentType":5126,
			"count":855,
			"type":"VEC2"
		},
		{
			"bufferView":3,
			"componentType":5121,
			"count":855,
			"normalized":true,
			"type":"VEC4"
		},
		{
			"bufferView":4,
			"componentType":5123,
			"count":855,
			"normalized":true,
			"type":"VEC4"
		},
		{
			"bufferView":5,
			"componentType":5123,
			"count":1422,
			"type":"SCALAR"
		}
	],
	"bufferViews":[
		{
			"buffer":0,
			"byteLength":10260,
			"byteOffset":0,
			"target":34962
		},
		{
			"buffer":0,
			"byteLength":10260,
			"byteOffset":10260,
			"target":34962
		},
		{
			"buffer":0,
			"byteLength":6840,
			"byteOffset":20520,
			"target":34962
		},
		{
			"buffer":0,
			"byteLength":3420,
			"byteOffset":27360,
			"target":34962
		},
		{
			"buffer":0,
			"byteLength":6840,
			"byteOffset":30780,
			"target":34962
		},
		{
			"buffer":0,
			"byteLength":2844,
			"byteOffset":37620,
			"target":34963
		}
	],
	"samplers":[
		{
			"magFilter":9729,
			"minFilter":9987
		}
	],
	"buffers":[
		{
			"byteLength":40464,
			"uri":"jungle_SM_Env_Vines_05.bin"
		}
	]
}
