{
	"asset":{
		"generator":"Khronos glTF Blender I/O v4.4.55",
		"version":"2.0"
	},
	"extensionsUsed":[
		"EXT_texture_webp"
	],
	"extensionsRequired":[
		"EXT_texture_webp"
	],
	"scene":0,
	"scenes":[
		{
			"name":"Scene",
			"nodes":[
				2
			]
		}
	],
	"nodes":[
		{
			"mesh":0,
			"name":"SM_Env_Flowers_03_LOD0"
		},
		{
			"mesh":1,
			"name":"SM_Env_Flowers_03_LOD1"
		},
		{
			"children":[
				0,
				1
			],
			"name":"SM_Env_Flowers_03",
			"rotation":[
				0.7071068286895752,
				0,
				0,
				0.7071068286895752
			],
			"scale":[
				0.009999999776482582,
				0.009999999776482582,
				0.009999999776482582
			]
		}
	],
	"materials":[
		{
			"doubleSided":true,
			"name":"Nature9",
			"pbrMetallicRoughness":{
				"baseColorTexture":{
					"index":0
				},
				"metallicFactor":0
			}
		}
	],
	"meshes":[
		{
			"name":"Mesh",
			"primitives":[
				{
					"attributes":{
						"POSITION":0,
						"NORMAL":1,
						"TEXCOORD_0":2,
						"COLOR_0":3,
						"COLOR_1":4
					},
					"indices":5,
					"material":0
				}
			]
		},
		{
			"name":"Mesh.001",
			"primitives":[
				{
					"attributes":{
						"POSITION":6,
						"NORMAL":7,
						"TEXCOORD_0":8,
						"COLOR_0":9,
						"COLOR_1":10
					},
					"indices":11,
					"material":0
				}
			]
		}
	],
	"textures":[
		{
			"extensions":{
				"EXT_texture_webp":{
					"source":0
				}
			},
			"sampler":0
		}
	],
	"images":[
		{
			"mimeType":"image/webp",
			"name":"PolygonNatureBiomes_Tropical_Texture_01",
			"uri":"PolygonNatureBiomes_Tropical_Texture_01.webp"
		}
	],
	"accessors":[
		{
			"bufferView":0,
			"componentType":5126,
			"count":860,
			"max":[
				43.91837692260742,
				65.49754333496094,
				2.227261781692505
			],
			"min":[
				-75.30755615234375,
				-57.17975616455078,
				-126.11511993408203
			],
			"type":"VEC3"
		},
		{
			"bufferView":1,
			"componentType":5126,
			"count":860,
			"type":"VEC3"
		},
		{
			"bufferView":2,
			"componentType":5126,
			"count":860,
			"type":"VEC2"
		},
		{
			"bufferView":3,
			"componentType":5121,
			"count":860,
			"normalized":true,
			"type":"VEC4"
		},
		{
			"bufferView":4,
			"componentType":5123,
			"count":860,
			"normalized":true,
			"type":"VEC4"
		},
		{
			"bufferView":5,
			"componentType":5123,
			"count":1620,
			"type":"SCALAR"
		},
		{
			"bufferView":6,
			"componentType":5126,
			"count":587,
			"max":[
				44.126304626464844,
				65.17514038085938,
				2.4481868743896484
			],
			"min":[
				-75.48186492919922,
				-57.16788101196289,
				-126.33045959472656
			],
			"type":"VEC3"
		},
		{
			"bufferView":7,
			"componentType":5126,
			"count":587,
			"type":"VEC3"
		},
		{
			"bufferView":8,
			"componentType":5126,
			"count":587,
			"type":"VEC2"
		},
		{
			"bufferView":9,
			"componentType":5121,
			"count":587,
			"normalized":true,
			"type":"VEC4"
		},
		{
			"bufferView":10,
			"componentType":5123,
			"count":587,
			"normalized":true,
			"type":"VEC4"
		},
		{
			"bufferView":11,
			"componentType":5123,
			"count":1080,
			"type":"SCALAR"
		}
	],
	"bufferViews":[
		{
			"buffer":0,
			"byteLength":10320,
			"byteOffset":0,
			"target":34962
		},
		{
			"buffer":0,
			"byteLength":10320,
			"byteOffset":10320,
			"target":34962
		},
		{
			"buffer":0,
			"byteLength":6880,
			"byteOffset":20640,
			"target":34962
		},
		{
			"buffer":0,
			"byteLength":3440,
			"byteOffset":27520,
			"target":34962
		},
		{
			"buffer":0,
			"byteLength":6880,
			"byteOffset":30960,
			"target":34962
		},
		{
			"buffer":0,
			"byteLength":3240,
			"byteOffset":37840,
			"target":34963
		},
		{
			"buffer":0,
			"byteLength":7044,
			"byteOffset":41080,
			"target":34962
		},
		{
			"buffer":0,
			"byteLength":7044,
			"byteOffset":48124,
			"target":34962
		},
		{
			"buffer":0,
			"byteLength":4696,
			"byteOffset":55168,
			"target":34962
		},
		{
			"buffer":0,
			"byteLength":2348,
			"byteOffset":59864,
			"target":34962
		},
		{
			"buffer":0,
			"byteLength":4696,
			"byteOffset":62212,
			"target":34962
		},
		{
			"buffer":0,
			"byteLength":2160,
			"byteOffset":66908,
			"target":34963
		}
	],
	"samplers":[
		{
			"magFilter":9729,
			"minFilter":9987
		}
	],
	"buffers":[
		{
			"byteLength":69068,
			"uri":"jungle_SM_Env_Flowers_03.bin"
		}
	]
}
