{
	"asset":{
		"generator":"Khronos glTF Blender I/O v4.4.55",
		"version":"2.0"
	},
	"extensionsUsed":[
		"EXT_texture_webp"
	],
	"extensionsRequired":[
		"EXT_texture_webp"
	],
	"scene":0,
	"scenes":[
		{
			"name":"Scene",
			"nodes":[
				0
			]
		}
	],
	"nodes":[
		{
			"mesh":0,
			"name":"SM_Env_Rock_Ramp_02",
			"rotation":[
				0.7071068286895752,
				0,
				0,
				0.7071068286895752
			],
			"scale":[
				0.009999999776482582,
				0.009999999776482582,
				0.009999999776482582
			]
		}
	],
	"materials":[
		{
			"doubleSided":true,
			"name":"Nature35",
			"pbrMetallicRoughness":{
				"baseColorTexture":{
					"index":0
				},
				"metallicFactor":0
			}
		}
	],
	"meshes":[
		{
			"name":"Mesh",
			"primitives":[
				{
					"attributes":{
						"POSITION":0,
						"NORMAL":1,
						"TEXCOORD_0":2
					},
					"indices":3,
					"material":0
				}
			]
		}
	],
	"textures":[
		{
			"extensions":{
				"EXT_texture_webp":{
					"source":0
				}
			},
			"sampler":0
		}
	],
	"images":[
		{
			"mimeType":"image/webp",
			"name":"PolygonNatureBiomes_Tropical_Texture_01",
			"uri":"PolygonNatureBiomes_Tropical_Texture_01.webp"
		}
	],
	"accessors":[
		{
			"bufferView":0,
			"componentType":5126,
			"count":4630,
			"max":[
				1009.5859375,
				467.9462890625,
				293.10784912109375
			],
			"min":[
				-1019.0048828125,
				-476.87353515625,
				-628.1602172851562
			],
			"type":"VEC3"
		},
		{
			"bufferView":1,
			"componentType":5126,
			"count":4630,
			"type":"VEC3"
		},
		{
			"bufferView":2,
			"componentType":5126,
			"count":4630,
			"type":"VEC2"
		},
		{
			"bufferView":3,
			"componentType":5123,
			"count":5550,
			"type":"SCALAR"
		}
	],
	"bufferViews":[
		{
			"buffer":0,
			"byteLength":55560,
			"byteOffset":0,
			"target":34962
		},
		{
			"buffer":0,
			"byteLength":55560,
			"byteOffset":55560,
			"target":34962
		},
		{
			"buffer":0,
			"byteLength":37040,
			"byteOffset":111120,
			"target":34962
		},
		{
			"buffer":0,
			"byteLength":11100,
			"byteOffset":148160,
			"target":34963
		}
	],
	"samplers":[
		{
			"magFilter":9729,
			"minFilter":9987
		}
	],
	"buffers":[
		{
			"byteLength":159260,
			"uri":"jungle_SM_Env_Rock_Ramp_02.bin"
		}
	]
}
