{
	"asset":{
		"generator":"Khronos glTF Blender I/O v4.4.55",
		"version":"2.0"
	},
	"extensionsUsed":[
		"EXT_texture_webp"
	],
	"extensionsRequired":[
		"EXT_texture_webp"
	],
	"scene":0,
	"scenes":[
		{
			"name":"Scene",
			"nodes":[
				2
			]
		}
	],
	"nodes":[
		{
			"mesh":0,
			"name":"SM_Env_Flowers_04_LOD0"
		},
		{
			"mesh":1,
			"name":"SM_Env_Flowers_04_LOD1"
		},
		{
			"children":[
				0,
				1
			],
			"name":"SM_Env_Flowers_04",
			"rotation":[
				0.7071068286895752,
				0,
				0,
				0.7071068286895752
			],
			"scale":[
				0.009999999776482582,
				0.009999999776482582,
				0.009999999776482582
			]
		}
	],
	"materials":[
		{
			"doubleSided":true,
			"name":"Nature10",
			"pbrMetallicRoughness":{
				"baseColorTexture":{
					"index":0
				},
				"metallicFactor":0
			}
		}
	],
	"meshes":[
		{
			"name":"Mesh",
			"primitives":[
				{
					"attributes":{
						"POSITION":0,
						"NORMAL":1,
						"TEXCOORD_0":2,
						"COLOR_0":3,
						"COLOR_1":4
					},
					"indices":5,
					"material":0
				}
			]
		},
		{
			"name":"Mesh.001",
			"primitives":[
				{
					"attributes":{
						"POSITION":6,
						"NORMAL":7,
						"TEXCOORD_0":8,
						"COLOR_0":9,
						"COLOR_1":10
					},
					"indices":11,
					"material":0
				}
			]
		}
	],
	"textures":[
		{
			"extensions":{
				"EXT_texture_webp":{
					"source":0
				}
			},
			"sampler":0
		}
	],
	"images":[
		{
			"mimeType":"image/webp",
			"name":"PolygonNatureBiomes_Tropical_Texture_01",
			"uri":"PolygonNatureBiomes_Tropical_Texture_01.webp"
		}
	],
	"accessors":[
		{
			"bufferView":0,
			"componentType":5126,
			"count":1975,
			"max":[
				68.52626037597656,
				60.17687225341797,
				4.2283148765563965
			],
			"min":[
				-54.650428771972656,
				-72.12998962402344,
				-177.51239013671875
			],
			"type":"VEC3"
		},
		{
			"bufferView":1,
			"componentType":5126,
			"count":1975,
			"type":"VEC3"
		},
		{
			"bufferView":2,
			"componentType":5126,
			"count":1975,
			"type":"VEC2"
		},
		{
			"bufferView":3,
			"componentType":5121,
			"count":1975,
			"normalized":true,
			"type":"VEC4"
		},
		{
			"bufferView":4,
			"componentType":5123,
			"count":1975,
			"normalized":true,
			"type":"VEC4"
		},
		{
			"bufferView":5,
			"componentType":5123,
			"count":3960,
			"type":"SCALAR"
		},
		{
			"bufferView":6,
			"componentType":5126,
			"count":966,
			"max":[
				68.52626037597656,
				60.17687225341797,
				4.73892068862915
			],
			"min":[
				-54.650428771972656,
				-72.12998962402344,
				-177.51239013671875
			],
			"type":"VEC3"
		},
		{
			"bufferView":7,
			"componentType":5126,
			"count":966,
			"type":"VEC3"
		},
		{
			"bufferView":8,
			"componentType":5126,
			"count":966,
			"type":"VEC2"
		},
		{
			"bufferView":9,
			"componentType":5121,
			"count":966,
			"normalized":true,
			"type":"VEC4"
		},
		{
			"bufferView":10,
			"componentType":5123,
			"count":966,
			"normalized":true,
			"type":"VEC4"
		},
		{
			"bufferView":11,
			"componentType":5123,
			"count":1800,
			"type":"SCALAR"
		}
	],
	"bufferViews":[
		{
			"buffer":0,
			"byteLength":23700,
			"byteOffset":0,
			"target":34962
		},
		{
			"buffer":0,
			"byteLength":23700,
			"byteOffset":23700,
			"target":34962
		},
		{
			"buffer":0,
			"byteLength":15800,
			"byteOffset":47400,
			"target":34962
		},
		{
			"buffer":0,
			"byteLength":7900,
			"byteOffset":63200,
			"target":34962
		},
		{
			"buffer":0,
			"byteLength":15800,
			"byteOffset":71100,
			"target":34962
		},
		{
			"buffer":0,
			"byteLength":7920,
			"byteOffset":86900,
			"target":34963
		},
		{
			"buffer":0,
			"byteLength":11592,
			"byteOffset":94820,
			"target":34962
		},
		{
			"buffer":0,
			"byteLength":11592,
			"byteOffset":106412,
			"target":34962
		},
		{
			"buffer":0,
			"byteLength":7728,
			"byteOffset":118004,
			"target":34962
		},
		{
			"buffer":0,
			"byteLength":3864,
			"byteOffset":125732,
			"target":34962
		},
		{
			"buffer":0,
			"byteLength":7728,
			"byteOffset":129596,
			"target":34962
		},
		{
			"buffer":0,
			"byteLength":3600,
			"byteOffset":137324,
			"target":34963
		}
	],
	"samplers":[
		{
			"magFilter":9729,
			"minFilter":9987
		}
	],
	"buffers":[
		{
			"byteLength":140924,
			"uri":"jungle_SM_Env_Flowers_04.bin"
		}
	]
}
