{
	"asset":{
		"generator":"Khronos glTF Blender I/O v4.4.55",
		"version":"2.0"
	},
	"extensionsUsed":[
		"EXT_texture_webp"
	],
	"extensionsRequired":[
		"EXT_texture_webp"
	],
	"scene":0,
	"scenes":[
		{
			"name":"Scene",
			"nodes":[
				0
			]
		}
	],
	"nodes":[
		{
			"mesh":0,
			"name":"SM_Env_Rock_Arch_01",
			"rotation":[
				0.7071068286895752,
				0,
				0,
				0.7071068286895752
			],
			"scale":[
				0.009999999776482582,
				0.009999999776482582,
				0.009999999776482582
			],
			"translation":[
				0.045768480747938156,
				0.1388595551252365,
				0.012414567172527313
			]
		}
	],
	"materials":[
		{
			"doubleSided":true,
			"name":"Nature19",
			"pbrMetallicRoughness":{
				"baseColorTexture":{
					"index":0
				},
				"metallicFactor":0
			}
		}
	],
	"meshes":[
		{
			"name":"Mesh",
			"primitives":[
				{
					"attributes":{
						"POSITION":0,
						"NORMAL":1,
						"TEXCOORD_0":2
					},
					"indices":3,
					"material":0
				}
			]
		}
	],
	"textures":[
		{
			"extensions":{
				"EXT_texture_webp":{
					"source":0
				}
			},
			"sampler":0
		}
	],
	"images":[
		{
			"mimeType":"image/webp",
			"name":"PolygonNatureBiomes_Tropical_Texture_01",
			"uri":"PolygonNatureBiomes_Tropical_Texture_01.webp"
		}
	],
	"accessors":[
		{
			"bufferView":0,
			"componentType":5126,
			"count":4576,
			"max":[
				1435.373046875,
				690.3877563476562,
				177.46847534179688
			],
			"min":[
				-1444.791015625,
				-773.9584350585938,
				-1144.8582763671875
			],
			"type":"VEC3"
		},
		{
			"bufferView":1,
			"componentType":5126,
			"count":4576,
			"type":"VEC3"
		},
		{
			"bufferView":2,
			"componentType":5126,
			"count":4576,
			"type":"VEC2"
		},
		{
			"bufferView":3,
			"componentType":5123,
			"count":4608,
			"type":"SCALAR"
		}
	],
	"bufferViews":[
		{
			"buffer":0,
			"byteLength":54912,
			"byteOffset":0,
			"target":34962
		},
		{
			"buffer":0,
			"byteLength":54912,
			"byteOffset":54912,
			"target":34962
		},
		{
			"buffer":0,
			"byteLength":36608,
			"byteOffset":109824,
			"target":34962
		},
		{
			"buffer":0,
			"byteLength":9216,
			"byteOffset":146432,
			"target":34963
		}
	],
	"samplers":[
		{
			"magFilter":9729,
			"minFilter":9987
		}
	],
	"buffers":[
		{
			"byteLength":155648,
			"uri":"jungle_SM_Env_Rock_Arch_01.bin"
		}
	]
}
