{"asset":{"generator":"Khronos glTF Blender I/O v4.4.55","version":"2.0"},"extensionsUsed":["EXT_texture_webp"],"extensionsRequired":["EXT_texture_webp"],"scene":0,"scenes":[{"name":"Scene","nodes":[0]}],"nodes":[{"mesh":0,"name":"SM_Prop_Coral_05","rotation":[0.7071068286895752,0,0,0.7071068286895752],"scale":[0.009999999776482582,0.009999999776482582,0.009999999776482582]}],"materials":[{"alphaMode":"MASK","doubleSided":true,"name":"Explorer_MAT22","pbrMetallicRoughness":{"baseColorTexture":{"index":0},"metallicFactor":0},"alphaCutoff":0.5}],"meshes":[{"name":"Mesh","primitives":[{"attributes":{"POSITION":0,"NORMAL":1,"TEXCOORD_0":2},"indices":3,"material":0}]}],"textures":[{"extensions":{"EXT_texture_webp":{"source":0}},"sampler":0}],"images":[{"mimeType":"image/webp","name":"PolygonNatureBiomes_Tropical_Texture_01","uri":"PolygonNatureBiomes_Tropical_Texture_01.webp"}],"accessors":[{"bufferView":0,"componentType":5126,"count":2602,"max":[24.47818374633789,23.67570686340332,8.58306884765625e-06],"min":[-25.333328247070312,-21.335941314697266,-44.51817321777344],"type":"VEC3"},{"bufferView":1,"componentType":5126,"count":2602,"type":"VEC3"},{"bufferView":2,"componentType":5126,"count":2602,"type":"VEC2"},{"bufferView":3,"componentType":5123,"count":3798,"type":"SCALAR"}],"bufferViews":[{"buffer":0,"byteLength":31224,"byteOffset":0,"target":34962},{"buffer":0,"byteLength":31224,"byteOffset":31224,"target":34962},{"buffer":0,"byteLength":20816,"byteOffset":62448,"target":34962},{"buffer":0,"byteLength":7596,"byteOffset":83264,"target":34963}],"samplers":[{"magFilter":9729,"minFilter":9987}],"buffers":[{"byteLength":90860,"uri":"jungle_SM_Prop_Coral_05.bin"}]}