{
	"asset":{
		"generator":"Khronos glTF Blender I/O v4.4.55",
		"version":"2.0"
	},
	"extensionsUsed":[
		"EXT_texture_webp"
	],
	"extensionsRequired":[
		"EXT_texture_webp"
	],
	"scene":0,
	"scenes":[
		{
			"name":"Scene",
			"nodes":[
				0
			]
		}
	],
	"nodes":[
		{
			"mesh":0,
			"name":"SM_Env_Rock_Cliff_03",
			"rotation":[
				0.7071068286895752,
				0,
				0,
				0.7071068286895752
			],
			"scale":[
				0.009999999776482582,
				0.009999999776482582,
				0.009999999776482582
			]
		}
	],
	"materials":[
		{
			"doubleSided":true,
			"name":"Nature22",
			"pbrMetallicRoughness":{
				"baseColorTexture":{
					"index":0
				},
				"metallicFactor":0
			}
		}
	],
	"meshes":[
		{
			"name":"Mesh",
			"primitives":[
				{
					"attributes":{
						"POSITION":0,
						"NORMAL":1,
						"TEXCOORD_0":2
					},
					"indices":3,
					"material":0
				}
			]
		}
	],
	"textures":[
		{
			"extensions":{
				"EXT_texture_webp":{
					"source":0
				}
			},
			"sampler":0
		}
	],
	"images":[
		{
			"mimeType":"image/webp",
			"name":"PolygonNatureBiomes_Tropical_Texture_01",
			"uri":"PolygonNatureBiomes_Tropical_Texture_01.webp"
		}
	],
	"accessors":[
		{
			"bufferView":0,
			"componentType":5126,
			"count":6788,
			"max":[
				1109.0048828125,
				452.61962890625,
				153.30491638183594
			],
			"min":[
				-1118.4228515625,
				-461.54638671875,
				-869.3621215820312
			],
			"type":"VEC3"
		},
		{
			"bufferView":1,
			"componentType":5126,
			"count":6788,
			"type":"VEC3"
		},
		{
			"bufferView":2,
			"componentType":5126,
			"count":6788,
			"type":"VEC2"
		},
		{
			"bufferView":3,
			"componentType":5123,
			"count":9588,
			"type":"SCALAR"
		}
	],
	"bufferViews":[
		{
			"buffer":0,
			"byteLength":81456,
			"byteOffset":0,
			"target":34962
		},
		{
			"buffer":0,
			"byteLength":81456,
			"byteOffset":81456,
			"target":34962
		},
		{
			"buffer":0,
			"byteLength":54304,
			"byteOffset":162912,
			"target":34962
		},
		{
			"buffer":0,
			"byteLength":19176,
			"byteOffset":217216,
			"target":34963
		}
	],
	"samplers":[
		{
			"magFilter":9729,
			"minFilter":9987
		}
	],
	"buffers":[
		{
			"byteLength":236392,
			"uri":"jungle_SM_Env_Rock_Cliff_03.bin"
		}
	]
}
