{"asset":{"generator":"Khronos glTF Blender I/O v4.4.55","version":"2.0"},"extensionsUsed":["EXT_texture_webp"],"extensionsRequired":["EXT_texture_webp"],"scene":0,"scenes":[{"name":"Scene","nodes":[6]}],"nodes":[{"mesh":0,"name":"SM_Env_Tree_Banana_01_Leaves_LOD0"},{"mesh":1,"name":"SM_Env_Tree_Banana_01_Leaves_LOD1"},{"mesh":2,"name":"SM_Env_Tree_Banana_01_Leaves_LOD2"},{"mesh":3,"name":"SM_Env_Tree_Banana_01_LOD0"},{"mesh":4,"name":"SM_Env_Tree_Banana_01_LOD1"},{"mesh":5,"name":"SM_Env_Tree_Banana_01_LOD2"},{"children":[0,1,2,3,4,5],"name":"SM_Env_Tree_Banana_01","rotation":[0.7071068286895752,0,0,0.7071068286895752],"scale":[0.009999999776482582,0.009999999776482582,0.009999999776482582]}],"materials":[{"doubleSided":true,"name":"Leaf5","pbrMetallicRoughness":{"baseColorTexture":{"index":1},"metallicFactor":0}},{"alphaMode":"BLEND","doubleSided":true,"name":"CardSHD","pbrMetallicRoughness":{"baseColorTexture":{"index":2},"metallicFactor":0}},{"doubleSided":true,"name":"lambert21","pbrMetallicRoughness":{"baseColorTexture":{"index":3},"metallicFactor":0}}],"meshes":[{"name":"Mesh.003","primitives":[{"attributes":{"POSITION":0,"NORMAL":1,"TEXCOORD_0":2,"TEXCOORD_1":3,"COLOR_0":4,"COLOR_1":5},"indices":6,"material":0}]},{"name":"Mesh.004","primitives":[{"attributes":{"POSITION":7,"NORMAL":8,"TEXCOORD_0":9,"TEXCOORD_1":10,"COLOR_0":11,"COLOR_1":12},"indices":13,"material":0}]},{"name":"Mesh.005","primitives":[{"attributes":{"POSITION":14,"NORMAL":15,"TEXCOORD_0":16,"COLOR_0":17,"COLOR_1":18},"indices":19,"material":1}]},{"name":"Mesh","primitives":[{"attributes":{"POSITION":20,"NORMAL":21,"TEXCOORD_0":22,"TEXCOORD_1":23,"COLOR_0":24,"COLOR_1":25},"indices":26,"material":2}]},{"name":"Mesh.001","primitives":[{"attributes":{"POSITION":27,"NORMAL":28,"TEXCOORD_0":29,"TEXCOORD_1":30,"COLOR_0":31,"COLOR_1":32},"indices":33,"material":2}]},{"name":"Mesh.002","primitives":[{"attributes":{"POSITION":34,"NORMAL":35,"TEXCOORD_0":36,"COLOR_0":37,"COLOR_1":38},"indices":39,"material":2}]}],"textures":[{"extensions":{},"sampler":0},{"extensions":{"EXT_texture_webp":{"source":0}},"sampler":0},{"extensions":{"EXT_texture_webp":{"source":1}},"sampler":0},{"extensions":{"EXT_texture_webp":{"source":0}},"sampler":0}],"images":[{"mimeType":"image/webp","name":"PolygonNatureBiomes_Tropical_Texture_01","uri":"PolygonNatureBiomes_Tropical_Texture_01.webp"},{"mimeType":"image/webp","name":"treeBanana_01","uri":"treeBanana_01.webp"}],"accessors":[{"bufferView":0,"componentType":5126,"count":681,"max":[274.9779357910156,270.8690490722656,-274.1519775390625],"min":[-218.8441162109375,-237.00039672851562,-554.469482421875],"type":"VEC3"},{"bufferView":1,"componentType":5126,"count":681,"type":"VEC3"},{"bufferView":2,"componentType":5126,"count":681,"type":"VEC2"},{"bufferView":3,"componentType":5126,"count":681,"type":"VEC2"},{"bufferView":4,"componentType":5121,"count":681,"normalized":true,"type":"VEC4"},{"bufferView":5,"componentType":5123,"count":681,"normalized":true,"type":"VEC4"},{"bufferView":6,"componentType":5123,"count":1224,"type":"SCALAR"},{"bufferView":7,"componentType":5126,"count":459,"max":[274.9779357910156,270.8690490722656,-274.1519775390625],"min":[-218.8441162109375,-237.00039672851562,-550.411376953125],"type":"VEC3"},{"bufferView":8,"componentType":5126,"count":459,"type":"VEC3"},{"bufferView":9,"componentType":5126,"count":459,"type":"VEC2"},{"bufferView":10,"componentType":5126,"count":459,"type":"VEC2"},{"bufferView":11,"componentType":5121,"count":459,"normalized":true,"type":"VEC4"},{"bufferView":12,"componentType":5123,"count":459,"normalized":true,"type":"VEC4"},{"bufferView":13,"componentType":5123,"count":660,"type":"SCALAR"},{"bufferView":14,"componentType":5126,"count":8,"max":[281.55950927734375,279.6976623535156,-269.5237121582031],"min":[-234.07733154296875,-244.53317260742188,-564.7821655273438],"type":"VEC3"},{"bufferView":15,"componentType":5126,"count":8,"type":"VEC3"},{"bufferView":16,"componentType":5126,"count":8,"type":"VEC2"},{"bufferView":17,"componentType":5121,"count":8,"normalized":true,"type":"VEC4"},{"bufferView":18,"componentType":5123,"count":8,"normalized":true,"type":"VEC4"},{"bufferView":19,"componentType":5123,"count":12,"type":"SCALAR"},{"bufferView":20,"componentType":5126,"count":912,"max":[274.9779357910156,270.8690490722656,32.90586853027344],"min":[-218.8441162109375,-237.00039672851562,-554.469482421875],"type":"VEC3"},{"bufferView":21,"componentType":5126,"count":912,"type":"VEC3"},{"bufferView":22,"componentType":5126,"count":912,"type":"VEC2"},{"bufferView":23,"componentType":5126,"count":912,"type":"VEC2"},{"bufferView":24,"componentType":5121,"count":912,"normalized":true,"type":"VEC4"},{"bufferView":25,"componentType":5123,"count":912,"normalized":true,"type":"VEC4"},{"bufferView":26,"componentType":5123,"count":1548,"type":"SCALAR"},{"bufferView":27,"componentType":5126,"count":590,"max":[274.9779357910156,270.8690490722656,32.90586853027344],"min":[-218.8441162109375,-237.00039672851562,-550.411376953125],"type":"VEC3"},{"bufferView":28,"componentType":5126,"count":590,"type":"VEC3"},{"bufferView":29,"componentType":5126,"count":590,"type":"VEC2"},{"bufferView":30,"componentType":5126,"count":590,"type":"VEC2"},{"bufferView":31,"componentType":5121,"count":590,"normalized":true,"type":"VEC4"},{"bufferView":32,"componentType":5123,"count":590,"normalized":true,"type":"VEC4"},{"bufferView":33,"componentType":5123,"count":846,"type":"SCALAR"},{"bufferView":34,"componentType":5126,"count":16,"max":[281.55950927734375,279.6976623535156,42.23769760131836],"min":[-234.07733154296875,-244.53317260742188,-564.7821655273438],"type":"VEC3"},{"bufferView":35,"componentType":5126,"count":16,"type":"VEC3"},{"bufferView":36,"componentType":5126,"count":16,"type":"VEC2"},{"bufferView":37,"componentType":5121,"count":16,"normalized":true,"type":"VEC4"},{"bufferView":38,"componentType":5123,"count":16,"normalized":true,"type":"VEC4"},{"bufferView":39,"componentType":5123,"count":24,"type":"SCALAR"}],"bufferViews":[{"buffer":0,"byteLength":8172,"byteOffset":0,"target":34962},{"buffer":0,"byteLength":8172,"byteOffset":8172,"target":34962},{"buffer":0,"byteLength":5448,"byteOffset":16344,"target":34962},{"buffer":0,"byteLength":5448,"byteOffset":21792,"target":34962},{"buffer":0,"byteLength":2724,"byteOffset":27240,"target":34962},{"buffer":0,"byteLength":5448,"byteOffset":29964,"target":34962},{"buffer":0,"byteLength":2448,"byteOffset":35412,"target":34963},{"buffer":0,"byteLength":5508,"byteOffset":37860,"target":34962},{"buffer":0,"byteLength":5508,"byteOffset":43368,"target":34962},{"buffer":0,"byteLength":3672,"byteOffset":48876,"target":34962},{"buffer":0,"byteLength":3672,"byteOffset":52548,"target":34962},{"buffer":0,"byteLength":1836,"byteOffset":56220,"target":34962},{"buffer":0,"byteLength":3672,"byteOffset":58056,"target":34962},{"buffer":0,"byteLength":1320,"byteOffset":61728,"target":34963},{"buffer":0,"byteLength":96,"byteOffset":63048,"target":34962},{"buffer":0,"byteLength":96,"byteOffset":63144,"target":34962},{"buffer":0,"byteLength":64,"byteOffset":63240,"target":34962},{"buffer":0,"byteLength":32,"byteOffset":63304,"target":34962},{"buffer":0,"byteLength":64,"byteOffset":63336,"target":34962},{"buffer":0,"byteLength":24,"byteOffset":63400,"target":34963},{"buffer":0,"byteLength":10944,"byteOffset":63424,"target":34962},{"buffer":0,"byteLength":10944,"byteOffset":74368,"target":34962},{"buffer":0,"byteLength":7296,"byteOffset":85312,"target":34962},{"buffer":0,"byteLength":7296,"byteOffset":92608,"target":34962},{"buffer":0,"byteLength":3648,"byteOffset":99904,"target":34962},{"buffer":0,"byteLength":7296,"byteOffset":103552,"target":34962},{"buffer":0,"byteLength":3096,"byteOffset":110848,"target":34963},{"buffer":0,"byteLength":7080,"byteOffset":113944,"target":34962},{"buffer":0,"byteLength":7080,"byteOffset":121024,"target":34962},{"buffer":0,"byteLength":4720,"byteOffset":128104,"target":34962},{"buffer":0,"byteLength":4720,"byteOffset":132824,"target":34962},{"buffer":0,"byteLength":2360,"byteOffset":137544,"target":34962},{"buffer":0,"byteLength":4720,"byteOffset":139904,"target":34962},{"buffer":0,"byteLength":1692,"byteOffset":144624,"target":34963},{"buffer":0,"byteLength":192,"byteOffset":146316,"target":34962},{"buffer":0,"byteLength":192,"byteOffset":146508,"target":34962},{"buffer":0,"byteLength":128,"byteOffset":146700,"target":34962},{"buffer":0,"byteLength":64,"byteOffset":146828,"target":34962},{"buffer":0,"byteLength":128,"byteOffset":146892,"target":34962},{"buffer":0,"byteLength":48,"byteOffset":147020,"target":34963}],"samplers":[{"magFilter":9729,"minFilter":9987}],"buffers":[{"byteLength":147068,"uri":"jungle_SM_Env_Tree_Banana_01.bin"}]}