{
	"asset":{
		"generator":"Khronos glTF Blender I/O v4.4.55",
		"version":"2.0"
	},
	"extensionsUsed":[
		"EXT_texture_webp"
	],
	"extensionsRequired":[
		"EXT_texture_webp"
	],
	"scene":0,
	"scenes":[
		{
			"name":"Scene",
			"nodes":[
				2
			]
		}
	],
	"nodes":[
		{
			"mesh":0,
			"name":"SM_Env_Bush_Tropical_01_LOD0"
		},
		{
			"mesh":1,
			"name":"SM_Env_Bush_Tropical_01_LOD1"
		},
		{
			"children":[
				0,
				1
			],
			"name":"SM_Env_Bush_Tropical_01",
			"rotation":[
				0.7071068286895752,
				0,
				0,
				0.7071068286895752
			],
			"scale":[
				0.009999999776482582,
				0.009999999776482582,
				0.009999999776482582
			]
		}
	],
	"materials":[
		{
			"doubleSided":true,
			"name":"lambert11",
			"pbrMetallicRoughness":{
				"baseColorTexture":{
					"index":0
				},
				"metallicFactor":0
			}
		}
	],
	"meshes":[
		{
			"name":"Mesh",
			"primitives":[
				{
					"attributes":{
						"POSITION":0,
						"NORMAL":1,
						"TEXCOORD_0":2,
						"COLOR_0":3,
						"COLOR_1":4
					},
					"indices":5,
					"material":0
				}
			]
		},
		{
			"name":"Mesh.001",
			"primitives":[
				{
					"attributes":{
						"POSITION":6,
						"NORMAL":7,
						"TEXCOORD_0":8,
						"COLOR_0":9,
						"COLOR_1":10
					},
					"indices":11,
					"material":0
				}
			]
		}
	],
	"textures":[
		{
			"extensions":{
				"EXT_texture_webp":{
					"source":0
				}
			},
			"sampler":0
		}
	],
	"images":[
		{
			"mimeType":"image/webp",
			"name":"PolygonNatureBiomes_Tropical_Texture_01",
			"uri":"PolygonNatureBiomes_Tropical_Texture_01.webp"
		}
	],
	"accessors":[
		{
			"bufferView":0,
			"componentType":5126,
			"count":2430,
			"max":[
				114.82000732421875,
				106.02876281738281,
				8.600526809692383
			],
			"min":[
				-109.62101745605469,
				-93.16968536376953,
				-185.08395385742188
			],
			"type":"VEC3"
		},
		{
			"bufferView":1,
			"componentType":5126,
			"count":2430,
			"type":"VEC3"
		},
		{
			"bufferView":2,
			"componentType":5126,
			"count":2430,
			"type":"VEC2"
		},
		{
			"bufferView":3,
			"componentType":5121,
			"count":2430,
			"normalized":true,
			"type":"VEC4"
		},
		{
			"bufferView":4,
			"componentType":5123,
			"count":2430,
			"normalized":true,
			"type":"VEC4"
		},
		{
			"bufferView":5,
			"componentType":5123,
			"count":4152,
			"type":"SCALAR"
		},
		{
			"bufferView":6,
			"componentType":5126,
			"count":1696,
			"max":[
				109.18347930908203,
				106.5155029296875,
				6.86668062210083
			],
			"min":[
				-99.52867126464844,
				-91.09841918945312,
				-172.52316284179688
			],
			"type":"VEC3"
		},
		{
			"bufferView":7,
			"componentType":5126,
			"count":1696,
			"type":"VEC3"
		},
		{
			"bufferView":8,
			"componentType":5126,
			"count":1696,
			"type":"VEC2"
		},
		{
			"bufferView":9,
			"componentType":5121,
			"count":1696,
			"normalized":true,
			"type":"VEC4"
		},
		{
			"bufferView":10,
			"componentType":5123,
			"count":1696,
			"normalized":true,
			"type":"VEC4"
		},
		{
			"bufferView":11,
			"componentType":5123,
			"count":2712,
			"type":"SCALAR"
		}
	],
	"bufferViews":[
		{
			"buffer":0,
			"byteLength":29160,
			"byteOffset":0,
			"target":34962
		},
		{
			"buffer":0,
			"byteLength":29160,
			"byteOffset":29160,
			"target":34962
		},
		{
			"buffer":0,
			"byteLength":19440,
			"byteOffset":58320,
			"target":34962
		},
		{
			"buffer":0,
			"byteLength":9720,
			"byteOffset":77760,
			"target":34962
		},
		{
			"buffer":0,
			"byteLength":19440,
			"byteOffset":87480,
			"target":34962
		},
		{
			"buffer":0,
			"byteLength":8304,
			"byteOffset":106920,
			"target":34963
		},
		{
			"buffer":0,
			"byteLength":20352,
			"byteOffset":115224,
			"target":34962
		},
		{
			"buffer":0,
			"byteLength":20352,
			"byteOffset":135576,
			"target":34962
		},
		{
			"buffer":0,
			"byteLength":13568,
			"byteOffset":155928,
			"target":34962
		},
		{
			"buffer":0,
			"byteLength":6784,
			"byteOffset":169496,
			"target":34962
		},
		{
			"buffer":0,
			"byteLength":13568,
			"byteOffset":176280,
			"target":34962
		},
		{
			"buffer":0,
			"byteLength":5424,
			"byteOffset":189848,
			"target":34963
		}
	],
	"samplers":[
		{
			"magFilter":9729,
			"minFilter":9987
		}
	],
	"buffers":[
		{
			"byteLength":195272,
			"uri":"jungle_SM_Env_Bush_Tropical_01.bin"
		}
	]
}
