{
	"asset":{
		"generator":"Khronos glTF Blender I/O v4.4.55",
		"version":"2.0"
	},
	"scene":0,
	"scenes":[
		{
			"name":"Scene",
			"nodes":[
				0
			]
		}
	],
	"nodes":[
		{
			"mesh":0,
			"name":"SM_Env_Rock_Ramp_01",
			"rotation":[
				0.7071068286895752,
				0,
				0,
				0.7071068286895752
			],
			"scale":[
				0.009999999776482582,
				0.009999999776482582,
				0.009999999776482582
			]
		}
	],
	"materials":[
		{
			"doubleSided":true,
			"name":"Nature34",
			"pbrMetallicRoughness":{
				"metallicFactor":0
			}
		}
	],
	"meshes":[
		{
			"name":"Mesh",
			"primitives":[
				{
					"attributes":{
						"POSITION":0,
						"NORMAL":1,
						"TEXCOORD_0":2
					},
					"indices":3,
					"material":0
				}
			]
		}
	],
	"accessors":[
		{
			"bufferView":0,
			"componentType":5126,
			"count":2859,
			"max":[
				426.869140625,
				298.44580078125,
				135.63790893554688
			],
			"min":[
				-436.287109375,
				-307.373046875,
				-423.54779052734375
			],
			"type":"VEC3"
		},
		{
			"bufferView":1,
			"componentType":5126,
			"count":2859,
			"type":"VEC3"
		},
		{
			"bufferView":2,
			"componentType":5126,
			"count":2859,
			"type":"VEC2"
		},
		{
			"bufferView":3,
			"componentType":5123,
			"count":3954,
			"type":"SCALAR"
		}
	],
	"bufferViews":[
		{
			"buffer":0,
			"byteLength":34308,
			"byteOffset":0,
			"target":34962
		},
		{
			"buffer":0,
			"byteLength":34308,
			"byteOffset":34308,
			"target":34962
		},
		{
			"buffer":0,
			"byteLength":22872,
			"byteOffset":68616,
			"target":34962
		},
		{
			"buffer":0,
			"byteLength":7908,
			"byteOffset":91488,
			"target":34963
		}
	],
	"buffers":[
		{
			"byteLength":99396,
			"uri":"jungle_SM_Env_Rock_Ramp_01.bin"
		}
	]
}
