{
	"asset":{
		"generator":"Khronos glTF Blender I/O v4.4.55",
		"version":"2.0"
	},
	"scene":0,
	"scenes":[
		{
			"name":"Scene",
			"nodes":[
				0
			]
		}
	],
	"nodes":[
		{
			"mesh":0,
			"name":"SM_Env_Rock_Ground_02",
			"rotation":[
				0.7071068286895752,
				0,
				0,
				0.7071068286895752
			],
			"scale":[
				0.009999999776482582,
				0.009999999776482582,
				0.009999999776482582
			]
		}
	],
	"materials":[
		{
			"doubleSided":true,
			"name":"Nature26",
			"pbrMetallicRoughness":{
				"metallicFactor":0
			}
		}
	],
	"meshes":[
		{
			"name":"Mesh",
			"primitives":[
				{
					"attributes":{
						"POSITION":0,
						"NORMAL":1,
						"TEXCOORD_0":2
					},
					"indices":3,
					"material":0
				}
			]
		}
	],
	"accessors":[
		{
			"bufferView":0,
			"componentType":5126,
			"count":1158,
			"max":[
				587.4716796875,
				298.22412109375,
				62.50627899169922
			],
			"min":[
				-614.603515625,
				-328.90478515625,
				-115.57793426513672
			],
			"type":"VEC3"
		},
		{
			"bufferView":1,
			"componentType":5126,
			"count":1158,
			"type":"VEC3"
		},
		{
			"bufferView":2,
			"componentType":5126,
			"count":1158,
			"type":"VEC2"
		},
		{
			"bufferView":3,
			"componentType":5123,
			"count":1176,
			"type":"SCALAR"
		}
	],
	"bufferViews":[
		{
			"buffer":0,
			"byteLength":13896,
			"byteOffset":0,
			"target":34962
		},
		{
			"buffer":0,
			"byteLength":13896,
			"byteOffset":13896,
			"target":34962
		},
		{
			"buffer":0,
			"byteLength":9264,
			"byteOffset":27792,
			"target":34962
		},
		{
			"buffer":0,
			"byteLength":2352,
			"byteOffset":37056,
			"target":34963
		}
	],
	"buffers":[
		{
			"byteLength":39408,
			"uri":"jungle_SM_Env_Rock_Ground_02.bin"
		}
	]
}
