{
	"asset":{
		"generator":"Khronos glTF Blender I/O v4.4.55",
		"version":"2.0"
	},
	"scene":0,
	"scenes":[
		{
			"name":"Scene",
			"nodes":[
				6
			]
		}
	],
	"nodes":[
		{
			"mesh":0,
			"name":"SM_Env_Tree_Forest_01_Branches_LOD0"
		},
		{
			"mesh":1,
			"name":"SM_Env_Tree_Forest_01_Branches_LOD1"
		},
		{
			"mesh":2,
			"name":"SM_Env_Tree_Forest_01_LOD0"
		},
		{
			"mesh":3,
			"name":"SM_Env_Tree_Forest_01_LOD1"
		},
		{
			"mesh":4,
			"name":"SM_Env_Tree_Forest_01_LOD2"
		},
		{
			"mesh":5,
			"name":"SM_Env_Tree_Forest_01_LOD3"
		},
		{
			"children":[
				0,
				1,
				2,
				3,
				4,
				5
			],
			"name":"SM_Env_Tree_Forest_01",
			"rotation":[
				0.7071068286895752,
				0,
				0,
				0.7071068286895752
			],
			"scale":[
				0.009999999776482582,
				0.009999999776482582,
				0.009999999776482582
			]
		}
	],
	"materials":[
		{
			"doubleSided":true,
			"name":"lambert24",
			"pbrMetallicRoughness":{
				"baseColorFactor":[
					0.5,
					0.5,
					0.5,
					1
				],
				"metallicFactor":0
			}
		}
	],
	"meshes":[
		{
			"name":"Mesh",
			"primitives":[
				{
					"attributes":{
						"POSITION":0,
						"NORMAL":1,
						"TEXCOORD_0":2,
						"COLOR_0":3,
						"COLOR_1":4
					},
					"indices":5,
					"material":0
				}
			]
		},
		{
			"name":"Mesh.001",
			"primitives":[
				{
					"attributes":{
						"POSITION":6,
						"NORMAL":7,
						"TEXCOORD_0":8,
						"COLOR_0":9,
						"COLOR_1":10
					},
					"indices":11,
					"material":0
				}
			]
		},
		{
			"name":"Mesh.002",
			"primitives":[
				{
					"attributes":{
						"POSITION":12,
						"NORMAL":13,
						"TEXCOORD_0":14,
						"COLOR_0":15,
						"COLOR_1":16
					},
					"indices":17,
					"material":0
				}
			]
		},
		{
			"name":"Mesh.003",
			"primitives":[
				{
					"attributes":{
						"POSITION":18,
						"NORMAL":19,
						"TEXCOORD_0":20,
						"COLOR_0":21,
						"COLOR_1":22
					},
					"indices":23,
					"material":0
				}
			]
		},
		{
			"name":"Mesh.004",
			"primitives":[
				{
					"attributes":{
						"POSITION":24,
						"NORMAL":25,
						"TEXCOORD_0":26,
						"COLOR_0":27,
						"COLOR_1":28
					},
					"indices":29,
					"material":0
				}
			]
		},
		{
			"name":"Mesh.005",
			"primitives":[
				{
					"attributes":{
						"POSITION":30,
						"NORMAL":31,
						"TEXCOORD_0":32,
						"COLOR_0":33,
						"COLOR_1":34
					},
					"indices":35,
					"material":0
				}
			]
		}
	],
	"accessors":[
		{
			"bufferView":0,
			"componentType":5126,
			"count":4248,
			"max":[
				713.3493041992188,
				830.8756713867188,
				-789.234130859375
			],
			"min":[
				-821.5615234375,
				-626.0097045898438,
				-1511.5589599609375
			],
			"type":"VEC3"
		},
		{
			"bufferView":1,
			"componentType":5126,
			"count":4248,
			"type":"VEC3"
		},
		{
			"bufferView":2,
			"componentType":5126,
			"count":4248,
			"type":"VEC2"
		},
		{
			"bufferView":3,
			"componentType":5121,
			"count":4248,
			"normalized":true,
			"type":"VEC4"
		},
		{
			"bufferView":4,
			"componentType":5123,
			"count":4248,
			"normalized":true,
			"type":"VEC4"
		},
		{
			"bufferView":5,
			"componentType":5123,
			"count":6612,
			"type":"SCALAR"
		},
		{
			"bufferView":6,
			"componentType":5126,
			"count":522,
			"max":[
				713.3493041992188,
				830.8756713867188,
				-789.234130859375
			],
			"min":[
				-821.5615234375,
				-626.0097045898438,
				-1511.5589599609375
			],
			"type":"VEC3"
		},
		{
			"bufferView":7,
			"componentType":5126,
			"count":522,
			"type":"VEC3"
		},
		{
			"bufferView":8,
			"componentType":5126,
			"count":522,
			"type":"VEC2"
		},
		{
			"bufferView":9,
			"componentType":5121,
			"count":522,
			"normalized":true,
			"type":"VEC4"
		},
		{
			"bufferView":10,
			"componentType":5123,
			"count":522,
			"normalized":true,
			"type":"VEC4"
		},
		{
			"bufferView":11,
			"componentType":5123,
			"count":1740,
			"type":"SCALAR"
		},
		{
			"bufferView":12,
			"componentType":5126,
			"count":35814,
			"max":[
				849.9182739257812,
				904.1201171875,
				109.79271697998047
			],
			"min":[
				-856.83154296875,
				-790.6010131835938,
				-1685.1151123046875
			],
			"type":"VEC3"
		},
		{
			"bufferView":13,
			"componentType":5126,
			"count":35814,
			"type":"VEC3"
		},
		{
			"bufferView":14,
			"componentType":5126,
			"count":35814,
			"type":"VEC2"
		},
		{
			"bufferView":15,
			"componentType":5121,
			"count":35814,
			"normalized":true,
			"type":"VEC4"
		},
		{
			"bufferView":16,
			"componentType":5123,
			"count":35814,
			"normalized":true,
			"type":"VEC4"
		},
		{
			"bufferView":17,
			"componentType":5123,
			"count":53514,
			"type":"SCALAR"
		},
		{
			"bufferView":18,
			"componentType":5126,
			"count":19162,
			"max":[
				835.137939453125,
				816.30712890625,
				109.79271697998047
			],
			"min":[
				-833.1129760742188,
				-787.0997314453125,
				-1697.5618896484375
			],
			"type":"VEC3"
		},
		{
			"bufferView":19,
			"componentType":5126,
			"count":19162,
			"type":"VEC3"
		},
		{
			"bufferView":20,
			"componentType":5126,
			"count":19162,
			"type":"VEC2"
		},
		{
			"bufferView":21,
			"componentType":5121,
			"count":19162,
			"normalized":true,
			"type":"VEC4"
		},
		{
			"bufferView":22,
			"componentType":5123,
			"count":19162,
			"normalized":true,
			"type":"VEC4"
		},
		{
			"bufferView":23,
			"componentType":5123,
			"count":28554,
			"type":"SCALAR"
		},
		{
			"bufferView":24,
			"componentType":5126,
			"count":10563,
			"max":[
				836.5099487304688,
				816.8132934570312,
				91.84034729003906
			],
			"min":[
				-842.6551513671875,
				-736.7904663085938,
				-1716.9622802734375
			],
			"type":"VEC3"
		},
		{
			"bufferView":25,
			"componentType":5126,
			"count":10563,
			"type":"VEC3"
		},
		{
			"bufferView":26,
			"componentType":5126,
			"count":10563,
			"type":"VEC2"
		},
		{
			"bufferView":27,
			"componentType":5121,
			"count":10563,
			"normalized":true,
			"type":"VEC4"
		},
		{
			"bufferView":28,
			"componentType":5123,
			"count":10563,
			"normalized":true,
			"type":"VEC4"
		},
		{
			"bufferView":29,
			"componentType":5123,
			"count":15546,
			"type":"SCALAR"
		},
		{
			"bufferView":30,
			"componentType":5126,
			"count":20,
			"max":[
				861.3040161132812,
				924.365478515625,
				124.76758575439453
			],
			"min":[
				-874.45947265625,
				-804.1395263671875,
				-1701.3636474609375
			],
			"type":"VEC3"
		},
		{
			"bufferView":31,
			"componentType":5126,
			"count":20,
			"type":"VEC3"
		},
		{
			"bufferView":32,
			"componentType":5126,
			"count":20,
			"type":"VEC2"
		},
		{
			"bufferView":33,
			"componentType":5121,
			"count":20,
			"normalized":true,
			"type":"VEC4"
		},
		{
			"bufferView":34,
			"componentType":5123,
			"count":20,
			"normalized":true,
			"type":"VEC4"
		},
		{
			"bufferView":35,
			"componentType":5123,
			"count":36,
			"type":"SCALAR"
		}
	],
	"bufferViews":[
		{
			"buffer":0,
			"byteLength":50976,
			"byteOffset":0,
			"target":34962
		},
		{
			"buffer":0,
			"byteLength":50976,
			"byteOffset":50976,
			"target":34962
		},
		{
			"buffer":0,
			"byteLength":33984,
			"byteOffset":101952,
			"target":34962
		},
		{
			"buffer":0,
			"byteLength":16992,
			"byteOffset":135936,
			"target":34962
		},
		{
			"buffer":0,
			"byteLength":33984,
			"byteOffset":152928,
			"target":34962
		},
		{
			"buffer":0,
			"byteLength":13224,
			"byteOffset":186912,
			"target":34963
		},
		{
			"buffer":0,
			"byteLength":6264,
			"byteOffset":200136,
			"target":34962
		},
		{
			"buffer":0,
			"byteLength":6264,
			"byteOffset":206400,
			"target":34962
		},
		{
			"buffer":0,
			"byteLength":4176,
			"byteOffset":212664,
			"target":34962
		},
		{
			"buffer":0,
			"byteLength":2088,
			"byteOffset":216840,
			"target":34962
		},
		{
			"buffer":0,
			"byteLength":4176,
			"byteOffset":218928,
			"target":34962
		},
		{
			"buffer":0,
			"byteLength":3480,
			"byteOffset":223104,
			"target":34963
		},
		{
			"buffer":0,
			"byteLength":429768,
			"byteOffset":226584,
			"target":34962
		},
		{
			"buffer":0,
			"byteLength":429768,
			"byteOffset":656352,
			"target":34962
		},
		{
			"buffer":0,
			"byteLength":286512,
			"byteOffset":1086120,
			"target":34962
		},
		{
			"buffer":0,
			"byteLength":143256,
			"byteOffset":1372632,
			"target":34962
		},
		{
			"buffer":0,
			"byteLength":286512,
			"byteOffset":1515888,
			"target":34962
		},
		{
			"buffer":0,
			"byteLength":107028,
			"byteOffset":1802400,
			"target":34963
		},
		{
			"buffer":0,
			"byteLength":229944,
			"byteOffset":1909428,
			"target":34962
		},
		{
			"buffer":0,
			"byteLength":229944,
			"byteOffset":2139372,
			"target":34962
		},
		{
			"buffer":0,
			"byteLength":153296,
			"byteOffset":2369316,
			"target":34962
		},
		{
			"buffer":0,
			"byteLength":76648,
			"byteOffset":2522612,
			"target":34962
		},
		{
			"buffer":0,
			"byteLength":153296,
			"byteOffset":2599260,
			"target":34962
		},
		{
			"buffer":0,
			"byteLength":57108,
			"byteOffset":2752556,
			"target":34963
		},
		{
			"buffer":0,
			"byteLength":126756,
			"byteOffset":2809664,
			"target":34962
		},
		{
			"buffer":0,
			"byteLength":126756,
			"byteOffset":2936420,
			"target":34962
		},
		{
			"buffer":0,
			"byteLength":84504,
			"byteOffset":3063176,
			"target":34962
		},
		{
			"buffer":0,
			"byteLength":42252,
			"byteOffset":3147680,
			"target":34962
		},
		{
			"buffer":0,
			"byteLength":84504,
			"byteOffset":3189932,
			"target":34962
		},
		{
			"buffer":0,
			"byteLength":31092,
			"byteOffset":3274436,
			"target":34963
		},
		{
			"buffer":0,
			"byteLength":240,
			"byteOffset":3305528,
			"target":34962
		},
		{
			"buffer":0,
			"byteLength":240,
			"byteOffset":3305768,
			"target":34962
		},
		{
			"buffer":0,
			"byteLength":160,
			"byteOffset":3306008,
			"target":34962
		},
		{
			"buffer":0,
			"byteLength":80,
			"byteOffset":3306168,
			"target":34962
		},
		{
			"buffer":0,
			"byteLength":160,
			"byteOffset":3306248,
			"target":34962
		},
		{
			"buffer":0,
			"byteLength":72,
			"byteOffset":3306408,
			"target":34963
		}
	],
	"buffers":[
		{
			"byteLength":3306480,
			"uri":"jungle_SM_Env_Tree_Forest_01.bin"
		}
	]
}
