{
	"asset":{
		"generator":"Khronos glTF Blender I/O v4.4.55",
		"version":"2.0"
	},
	"scene":0,
	"scenes":[
		{
			"name":"Scene",
			"nodes":[
				0
			]
		}
	],
	"nodes":[
		{
			"mesh":0,
			"name":"SM_Bld_Shack_Pirate_01",
			"rotation":[
				0.7071068286895752,
				0,
				0,
				0.7071068286895752
			],
			"scale":[
				0.009999999776482582,
				0.009999999776482582,
				0.009999999776482582
			]
		}
	],
	"materials":[
		{
			"doubleSided":true,
			"name":"lambert3",
			"pbrMetallicRoughness":{
				"metallicFactor":0
			}
		}
	],
	"meshes":[
		{
			"name":"Mesh",
			"primitives":[
				{
					"attributes":{
						"POSITION":0,
						"NORMAL":1,
						"TEXCOORD_0":2,
						"TEXCOORD_1":3
					},
					"indices":4,
					"material":0
				}
			]
		}
	],
	"accessors":[
		{
			"bufferView":0,
			"componentType":5126,
			"count":22877,
			"max":[
				491.9990539550781,
				527.8515625,
				45.624717712402344
			],
			"min":[
				-491.99908447265625,
				-527.8515625,
				-503.2022705078125
			],
			"type":"VEC3"
		},
		{
			"bufferView":1,
			"componentType":5126,
			"count":22877,
			"type":"VEC3"
		},
		{
			"bufferView":2,
			"componentType":5126,
			"count":22877,
			"type":"VEC2"
		},
		{
			"bufferView":3,
			"componentType":5126,
			"count":22877,
			"type":"VEC2"
		},
		{
			"bufferView":4,
			"componentType":5123,
			"count":33774,
			"type":"SCALAR"
		}
	],
	"bufferViews":[
		{
			"buffer":0,
			"byteLength":274524,
			"byteOffset":0,
			"target":34962
		},
		{
			"buffer":0,
			"byteLength":274524,
			"byteOffset":274524,
			"target":34962
		},
		{
			"buffer":0,
			"byteLength":183016,
			"byteOffset":549048,
			"target":34962
		},
		{
			"buffer":0,
			"byteLength":183016,
			"byteOffset":732064,
			"target":34962
		},
		{
			"buffer":0,
			"byteLength":67548,
			"byteOffset":915080,
			"target":34963
		}
	],
	"buffers":[
		{
			"byteLength":982628,
			"uri":"jungle_SM_Bld_Shack_Pirate_01.bin"
		}
	]
}
