{"asset":{"generator":"Khronos glTF Blender I/O v4.4.55","version":"2.0"},"extensionsUsed":["EXT_texture_webp"],"extensionsRequired":["EXT_texture_webp"],"scene":0,"scenes":[{"name":"Scene","nodes":[2]}],"nodes":[{"mesh":0,"name":"SM_Env_Fern_Part_04_LOD0"},{"mesh":1,"name":"SM_Env_Fern_Part_04_LOD1"},{"children":[0,1],"name":"SM_Env_Fern_Part_04","rotation":[0.7071068286895752,0,0,0.7071068286895752],"scale":[0.009999999776482582,0.009999999776482582,0.009999999776482582]}],"materials":[{"doubleSided":true,"name":"Leaf13","pbrMetallicRoughness":{"baseColorTexture":{"index":1},"metallicFactor":0}}],"meshes":[{"name":"Mesh","primitives":[{"attributes":{"POSITION":0,"NORMAL":1,"TEXCOORD_0":2,"COLOR_0":3,"COLOR_1":4},"indices":5,"material":0}]},{"name":"Mesh.001","primitives":[{"attributes":{"POSITION":6,"NORMAL":7,"TEXCOORD_0":8,"COLOR_0":9,"COLOR_1":10},"indices":11,"material":0}]}],"textures":[{"extensions":{},"sampler":0},{"extensions":{"EXT_texture_webp":{"source":0}},"sampler":0}],"images":[{"mimeType":"image/webp","name":"PolygonNatureBiomes_Tropical_Texture_01","uri":"PolygonNatureBiomes_Tropical_Texture_01.webp"}],"accessors":[{"bufferView":0,"componentType":5126,"count":41,"max":[22.256912231445312,116.97391510009766,14.355307579040527],"min":[-29.847274780273438,-10.436656951904297,-96.74742889404297],"type":"VEC3"},{"bufferView":1,"componentType":5126,"count":41,"type":"VEC3"},{"bufferView":2,"componentType":5126,"count":41,"type":"VEC2"},{"bufferView":3,"componentType":5121,"count":41,"normalized":true,"type":"VEC4"},{"bufferView":4,"componentType":5123,"count":41,"normalized":true,"type":"VEC4"},{"bufferView":5,"componentType":5123,"count":78,"type":"SCALAR"},{"bufferView":6,"componentType":5126,"count":24,"max":[21.52376365661621,116.97391510009766,14.355307579040527],"min":[-26.495336532592773,-10.436656951904297,-92.29570770263672],"type":"VEC3"},{"bufferView":7,"componentType":5126,"count":24,"type":"VEC3"},{"bufferView":8,"componentType":5126,"count":24,"type":"VEC2"},{"bufferView":9,"componentType":5121,"count":24,"normalized":true,"type":"VEC4"},{"bufferView":10,"componentType":5123,"count":24,"normalized":true,"type":"VEC4"},{"bufferView":11,"componentType":5123,"count":42,"type":"SCALAR"}],"bufferViews":[{"buffer":0,"byteLength":492,"byteOffset":0,"target":34962},{"buffer":0,"byteLength":492,"byteOffset":492,"target":34962},{"buffer":0,"byteLength":328,"byteOffset":984,"target":34962},{"buffer":0,"byteLength":164,"byteOffset":1312,"target":34962},{"buffer":0,"byteLength":328,"byteOffset":1476,"target":34962},{"buffer":0,"byteLength":156,"byteOffset":1804,"target":34963},{"buffer":0,"byteLength":288,"byteOffset":1960,"target":34962},{"buffer":0,"byteLength":288,"byteOffset":2248,"target":34962},{"buffer":0,"byteLength":192,"byteOffset":2536,"target":34962},{"buffer":0,"byteLength":96,"byteOffset":2728,"target":34962},{"buffer":0,"byteLength":192,"byteOffset":2824,"target":34962},{"buffer":0,"byteLength":84,"byteOffset":3016,"target":34963}],"samplers":[{"magFilter":9729,"minFilter":9987}],"buffers":[{"byteLength":3100,"uri":"jungle_SM_Env_Fern_Part_04.bin"}]}