{
	"asset":{
		"generator":"Khronos glTF Blender I/O v4.4.55",
		"version":"2.0"
	},
	"scene":0,
	"scenes":[
		{
			"name":"Scene",
			"nodes":[
				4
			]
		}
	],
	"nodes":[
		{
			"mesh":0,
			"name":"SM_Env_Tree_Palm_03_LOD0"
		},
		{
			"mesh":1,
			"name":"SM_Env_Tree_Palm_03_LOD1"
		},
		{
			"mesh":2,
			"name":"SM_Env_Tree_Palm_03_LOD2"
		},
		{
			"mesh":3,
			"name":"SM_Env_Tree_Palm_03_LOD3"
		},
		{
			"children":[
				0,
				1,
				2,
				3
			],
			"name":"SM_Env_Tree_Palm_03",
			"rotation":[
				0.7071068286895752,
				0,
				0,
				0.7071068286895752
			],
			"scale":[
				0.009999999776482582,
				0.009999999776482582,
				0.009999999776482582
			]
		}
	],
	"materials":[
		{
			"doubleSided":true,
			"name":"trunk1",
			"pbrMetallicRoughness":{
				"metallicFactor":0
			}
		},
		{
			"doubleSided":true,
			"name":"lambert29",
			"pbrMetallicRoughness":{
				"baseColorFactor":[
					0.5,
					0.5,
					0.5,
					1
				],
				"metallicFactor":0
			}
		}
	],
	"meshes":[
		{
			"name":"Mesh",
			"primitives":[
				{
					"attributes":{
						"POSITION":0,
						"NORMAL":1,
						"TEXCOORD_0":2,
						"COLOR_0":3,
						"COLOR_1":4
					},
					"indices":5,
					"material":0
				}
			]
		},
		{
			"name":"Mesh.001",
			"primitives":[
				{
					"attributes":{
						"POSITION":6,
						"NORMAL":7,
						"TEXCOORD_0":8,
						"COLOR_0":9,
						"COLOR_1":10,
						"COLOR_2":11
					},
					"indices":12,
					"material":0
				}
			]
		},
		{
			"name":"Mesh.002",
			"primitives":[
				{
					"attributes":{
						"POSITION":13,
						"NORMAL":14,
						"TEXCOORD_0":15,
						"COLOR_0":16,
						"COLOR_1":17,
						"COLOR_2":18
					},
					"indices":19,
					"material":0
				}
			]
		},
		{
			"name":"Mesh.003",
			"primitives":[
				{
					"attributes":{
						"POSITION":20,
						"NORMAL":21,
						"TEXCOORD_0":22,
						"COLOR_0":23,
						"COLOR_1":24
					},
					"indices":25,
					"material":1
				}
			]
		}
	],
	"accessors":[
		{
			"bufferView":0,
			"componentType":5126,
			"count":1008,
			"max":[
				278.378173828125,
				264.6822814941406,
				40.84968185424805
			],
			"min":[
				-241.58892822265625,
				-241.29486083984375,
				-1155.386474609375
			],
			"type":"VEC3"
		},
		{
			"bufferView":1,
			"componentType":5126,
			"count":1008,
			"type":"VEC3"
		},
		{
			"bufferView":2,
			"componentType":5126,
			"count":1008,
			"type":"VEC2"
		},
		{
			"bufferView":3,
			"componentType":5121,
			"count":1008,
			"normalized":true,
			"type":"VEC4"
		},
		{
			"bufferView":4,
			"componentType":5123,
			"count":1008,
			"normalized":true,
			"type":"VEC4"
		},
		{
			"bufferView":5,
			"componentType":5123,
			"count":1956,
			"type":"SCALAR"
		},
		{
			"bufferView":6,
			"componentType":5126,
			"count":801,
			"max":[
				278.378173828125,
				264.6822814941406,
				40.84968185424805
			],
			"min":[
				-241.58892822265625,
				-241.29486083984375,
				-1153.907470703125
			],
			"type":"VEC3"
		},
		{
			"bufferView":7,
			"componentType":5126,
			"count":801,
			"type":"VEC3"
		},
		{
			"bufferView":8,
			"componentType":5126,
			"count":801,
			"type":"VEC2"
		},
		{
			"bufferView":9,
			"componentType":5121,
			"count":801,
			"normalized":true,
			"type":"VEC4"
		},
		{
			"bufferView":10,
			"componentType":5123,
			"count":801,
			"normalized":true,
			"type":"VEC4"
		},
		{
			"bufferView":11,
			"componentType":5123,
			"count":801,
			"normalized":true,
			"type":"VEC4"
		},
		{
			"bufferView":12,
			"componentType":5123,
			"count":1344,
			"type":"SCALAR"
		},
		{
			"bufferView":13,
			"componentType":5126,
			"count":561,
			"max":[
				278.378173828125,
				264.6822814941406,
				40.84968185424805
			],
			"min":[
				-241.58892822265625,
				-241.29486083984375,
				-1139.9197998046875
			],
			"type":"VEC3"
		},
		{
			"bufferView":14,
			"componentType":5126,
			"count":561,
			"type":"VEC3"
		},
		{
			"bufferView":15,
			"componentType":5126,
			"count":561,
			"type":"VEC2"
		},
		{
			"bufferView":16,
			"componentType":5121,
			"count":561,
			"normalized":true,
			"type":"VEC4"
		},
		{
			"bufferView":17,
			"componentType":5123,
			"count":561,
			"normalized":true,
			"type":"VEC4"
		},
		{
			"bufferView":18,
			"componentType":5123,
			"count":561,
			"normalized":true,
			"type":"VEC4"
		},
		{
			"bufferView":19,
			"componentType":5123,
			"count":852,
			"type":"SCALAR"
		},
		{
			"bufferView":20,
			"componentType":5126,
			"count":32,
			"max":[
				287.64453125,
				304.7384338378906,
				46.083194732666016
			],
			"min":[
				-276.5599670410156,
				-295.1405334472656,
				-1185.0028076171875
			],
			"type":"VEC3"
		},
		{
			"bufferView":21,
			"componentType":5126,
			"count":32,
			"type":"VEC3"
		},
		{
			"bufferView":22,
			"componentType":5126,
			"count":32,
			"type":"VEC2"
		},
		{
			"bufferView":23,
			"componentType":5121,
			"count":32,
			"normalized":true,
			"type":"VEC4"
		},
		{
			"bufferView":24,
			"componentType":5123,
			"count":32,
			"normalized":true,
			"type":"VEC4"
		},
		{
			"bufferView":25,
			"componentType":5123,
			"count":48,
			"type":"SCALAR"
		}
	],
	"bufferViews":[
		{
			"buffer":0,
			"byteLength":12096,
			"byteOffset":0,
			"target":34962
		},
		{
			"buffer":0,
			"byteLength":12096,
			"byteOffset":12096,
			"target":34962
		},
		{
			"buffer":0,
			"byteLength":8064,
			"byteOffset":24192,
			"target":34962
		},
		{
			"buffer":0,
			"byteLength":4032,
			"byteOffset":32256,
			"target":34962
		},
		{
			"buffer":0,
			"byteLength":8064,
			"byteOffset":36288,
			"target":34962
		},
		{
			"buffer":0,
			"byteLength":3912,
			"byteOffset":44352,
			"target":34963
		},
		{
			"buffer":0,
			"byteLength":9612,
			"byteOffset":48264,
			"target":34962
		},
		{
			"buffer":0,
			"byteLength":9612,
			"byteOffset":57876,
			"target":34962
		},
		{
			"buffer":0,
			"byteLength":6408,
			"byteOffset":67488,
			"target":34962
		},
		{
			"buffer":0,
			"byteLength":3204,
			"byteOffset":73896,
			"target":34962
		},
		{
			"buffer":0,
			"byteLength":6408,
			"byteOffset":77100,
			"target":34962
		},
		{
			"buffer":0,
			"byteLength":6408,
			"byteOffset":83508,
			"target":34962
		},
		{
			"buffer":0,
			"byteLength":2688,
			"byteOffset":89916,
			"target":34963
		},
		{
			"buffer":0,
			"byteLength":6732,
			"byteOffset":92604,
			"target":34962
		},
		{
			"buffer":0,
			"byteLength":6732,
			"byteOffset":99336,
			"target":34962
		},
		{
			"buffer":0,
			"byteLength":4488,
			"byteOffset":106068,
			"target":34962
		},
		{
			"buffer":0,
			"byteLength":2244,
			"byteOffset":110556,
			"target":34962
		},
		{
			"buffer":0,
			"byteLength":4488,
			"byteOffset":112800,
			"target":34962
		},
		{
			"buffer":0,
			"byteLength":4488,
			"byteOffset":117288,
			"target":34962
		},
		{
			"buffer":0,
			"byteLength":1704,
			"byteOffset":121776,
			"target":34963
		},
		{
			"buffer":0,
			"byteLength":384,
			"byteOffset":123480,
			"target":34962
		},
		{
			"buffer":0,
			"byteLength":384,
			"byteOffset":123864,
			"target":34962
		},
		{
			"buffer":0,
			"byteLength":256,
			"byteOffset":124248,
			"target":34962
		},
		{
			"buffer":0,
			"byteLength":128,
			"byteOffset":124504,
			"target":34962
		},
		{
			"buffer":0,
			"byteLength":256,
			"byteOffset":124632,
			"target":34962
		},
		{
			"buffer":0,
			"byteLength":96,
			"byteOffset":124888,
			"target":34963
		}
	],
	"buffers":[
		{
			"byteLength":124984,
			"uri":"jungle_SM_Env_Tree_Palm_03.bin"
		}
	]
}
