{
	"asset":{
		"generator":"Khronos glTF Blender I/O v4.4.55",
		"version":"2.0"
	},
	"extensionsUsed":[
		"EXT_texture_webp"
	],
	"extensionsRequired":[
		"EXT_texture_webp"
	],
	"scene":0,
	"scenes":[
		{
			"name":"Scene",
			"nodes":[
				0
			]
		}
	],
	"nodes":[
		{
			"mesh":0,
			"name":"SM_Bld_Ruins_Wall_02",
			"rotation":[
				0.7071068286895752,
				0,
				0,
				0.7071068286895752
			],
			"scale":[
				0.009999999776482582,
				0.009999999776482582,
				0.009999999776482582
			]
		}
	],
	"materials":[
		{
			"doubleSided":true,
			"name":"Nature5",
			"pbrMetallicRoughness":{
				"baseColorTexture":{
					"index":0
				},
				"metallicFactor":0
			}
		}
	],
	"meshes":[
		{
			"name":"Mesh",
			"primitives":[
				{
					"attributes":{
						"POSITION":0,
						"NORMAL":1,
						"TEXCOORD_0":2
					},
					"indices":3,
					"material":0
				}
			]
		}
	],
	"textures":[
		{
			"extensions":{
				"EXT_texture_webp":{
					"source":0
				}
			},
			"sampler":0
		}
	],
	"images":[
		{
			"mimeType":"image/webp",
			"name":"PolygonNatureBiomes_Tropical_Texture_01",
			"uri":"PolygonNatureBiomes_Tropical_Texture_01.webp"
		}
	],
	"accessors":[
		{
			"bufferView":0,
			"componentType":5126,
			"count":12043,
			"max":[
				578.3267822265625,
				93.10791015625,
				13.728582382202148
			],
			"min":[
				-579.5203857421875,
				-93.1441650390625,
				-555.7376708984375
			],
			"type":"VEC3"
		},
		{
			"bufferView":1,
			"componentType":5126,
			"count":12043,
			"type":"VEC3"
		},
		{
			"bufferView":2,
			"componentType":5126,
			"count":12043,
			"type":"VEC2"
		},
		{
			"bufferView":3,
			"componentType":5123,
			"count":12624,
			"type":"SCALAR"
		}
	],
	"bufferViews":[
		{
			"buffer":0,
			"byteLength":144516,
			"byteOffset":0,
			"target":34962
		},
		{
			"buffer":0,
			"byteLength":144516,
			"byteOffset":144516,
			"target":34962
		},
		{
			"buffer":0,
			"byteLength":96344,
			"byteOffset":289032,
			"target":34962
		},
		{
			"buffer":0,
			"byteLength":25248,
			"byteOffset":385376,
			"target":34963
		}
	],
	"samplers":[
		{
			"magFilter":9729,
			"minFilter":9987
		}
	],
	"buffers":[
		{
			"byteLength":410624,
			"uri":"jungle_SM_Bld_Ruins_Wall_02.bin"
		}
	]
}
