{
	"asset":{
		"generator":"Khronos glTF Blender I/O v4.4.55",
		"version":"2.0"
	},
	"extensionsUsed":[
		"EXT_texture_webp"
	],
	"extensionsRequired":[
		"EXT_texture_webp"
	],
	"scene":0,
	"scenes":[
		{
			"name":"Scene",
			"nodes":[
				2
			]
		}
	],
	"nodes":[
		{
			"mesh":0,
			"name":"SM_Env_Bush_01_LOD0"
		},
		{
			"mesh":1,
			"name":"SM_Env_Bush_01_LOD1"
		},
		{
			"children":[
				0,
				1
			],
			"name":"SM_Env_Bush_01",
			"rotation":[
				0.7071068286895752,
				0,
				0,
				0.7071068286895752
			],
			"scale":[
				0.009999999776482582,
				0.009999999776482582,
				0.009999999776482582
			]
		}
	],
	"materials":[
		{
			"doubleSided":true,
			"name":"lambert4",
			"pbrMetallicRoughness":{
				"baseColorTexture":{
					"index":0
				},
				"metallicFactor":0
			}
		}
	],
	"meshes":[
		{
			"name":"Mesh",
			"primitives":[
				{
					"attributes":{
						"POSITION":0,
						"NORMAL":1,
						"TEXCOORD_0":2,
						"COLOR_0":3,
						"COLOR_1":4
					},
					"indices":5,
					"material":0
				}
			]
		},
		{
			"name":"Mesh.001",
			"primitives":[
				{
					"attributes":{
						"POSITION":6,
						"NORMAL":7,
						"TEXCOORD_0":8,
						"COLOR_0":9,
						"COLOR_1":10
					},
					"indices":11,
					"material":0
				}
			]
		}
	],
	"textures":[
		{
			"extensions":{
				"EXT_texture_webp":{
					"source":0
				}
			},
			"sampler":0
		}
	],
	"images":[
		{
			"mimeType":"image/webp",
			"name":"PolygonNatureBiomes_Tropical_Texture_01",
			"uri":"PolygonNatureBiomes_Tropical_Texture_01.webp"
		}
	],
	"accessors":[
		{
			"bufferView":0,
			"componentType":5126,
			"count":4584,
			"max":[
				123.97754669189453,
				113.34664916992188,
				3.6245639324188232
			],
			"min":[
				-143.65402221679688,
				-130.48916625976562,
				-284.7999267578125
			],
			"type":"VEC3"
		},
		{
			"bufferView":1,
			"componentType":5126,
			"count":4584,
			"type":"VEC3"
		},
		{
			"bufferView":2,
			"componentType":5126,
			"count":4584,
			"type":"VEC2"
		},
		{
			"bufferView":3,
			"componentType":5121,
			"count":4584,
			"normalized":true,
			"type":"VEC4"
		},
		{
			"bufferView":4,
			"componentType":5123,
			"count":4584,
			"normalized":true,
			"type":"VEC4"
		},
		{
			"bufferView":5,
			"componentType":5123,
			"count":6828,
			"type":"SCALAR"
		},
		{
			"bufferView":6,
			"componentType":5126,
			"count":2818,
			"max":[
				120.86540985107422,
				106.18885803222656,
				3.6245639324188232
			],
			"min":[
				-132.60470581054688,
				-127.77684783935547,
				-273.1835021972656
			],
			"type":"VEC3"
		},
		{
			"bufferView":7,
			"componentType":5126,
			"count":2818,
			"type":"VEC3"
		},
		{
			"bufferView":8,
			"componentType":5126,
			"count":2818,
			"type":"VEC2"
		},
		{
			"bufferView":9,
			"componentType":5121,
			"count":2818,
			"normalized":true,
			"type":"VEC4"
		},
		{
			"bufferView":10,
			"componentType":5123,
			"count":2818,
			"normalized":true,
			"type":"VEC4"
		},
		{
			"bufferView":11,
			"componentType":5123,
			"count":4098,
			"type":"SCALAR"
		}
	],
	"bufferViews":[
		{
			"buffer":0,
			"byteLength":55008,
			"byteOffset":0,
			"target":34962
		},
		{
			"buffer":0,
			"byteLength":55008,
			"byteOffset":55008,
			"target":34962
		},
		{
			"buffer":0,
			"byteLength":36672,
			"byteOffset":110016,
			"target":34962
		},
		{
			"buffer":0,
			"byteLength":18336,
			"byteOffset":146688,
			"target":34962
		},
		{
			"buffer":0,
			"byteLength":36672,
			"byteOffset":165024,
			"target":34962
		},
		{
			"buffer":0,
			"byteLength":13656,
			"byteOffset":201696,
			"target":34963
		},
		{
			"buffer":0,
			"byteLength":33816,
			"byteOffset":215352,
			"target":34962
		},
		{
			"buffer":0,
			"byteLength":33816,
			"byteOffset":249168,
			"target":34962
		},
		{
			"buffer":0,
			"byteLength":22544,
			"byteOffset":282984,
			"target":34962
		},
		{
			"buffer":0,
			"byteLength":11272,
			"byteOffset":305528,
			"target":34962
		},
		{
			"buffer":0,
			"byteLength":22544,
			"byteOffset":316800,
			"target":34962
		},
		{
			"buffer":0,
			"byteLength":8196,
			"byteOffset":339344,
			"target":34963
		}
	],
	"samplers":[
		{
			"magFilter":9729,
			"minFilter":9987
		}
	],
	"buffers":[
		{
			"byteLength":347540,
			"uri":"jungle_SM_Env_Bush_01.bin"
		}
	]
}
