{
	"asset":{
		"generator":"Khronos glTF Blender I/O v4.4.55",
		"version":"2.0"
	},
	"scene":0,
	"scenes":[
		{
			"name":"Scene",
			"nodes":[
				0
			]
		}
	],
	"nodes":[
		{
			"mesh":0,
			"name":"SM_Prop_PirateFlag_01",
			"rotation":[
				0.7071068286895752,
				0,
				0,
				0.7071068286895752
			],
			"scale":[
				0.009999999776482582,
				0.009999999776482582,
				0.009999999776482582
			]
		}
	],
	"materials":[
		{
			"doubleSided":true,
			"name":"Explorer_MAT30",
			"pbrMetallicRoughness":{
				"metallicFactor":0
			}
		}
	],
	"meshes":[
		{
			"name":"Mesh",
			"primitives":[
				{
					"attributes":{
						"POSITION":0,
						"NORMAL":1,
						"TEXCOORD_0":2,
						"TEXCOORD_1":3,
						"COLOR_0":4,
						"COLOR_1":5
					},
					"indices":6,
					"material":0
				}
			]
		}
	],
	"accessors":[
		{
			"bufferView":0,
			"componentType":5126,
			"count":6605,
			"max":[
				169.47769165039062,
				142.2713623046875,
				2.25323486328125
			],
			"min":[
				-129.17494201660156,
				-131.039794921875,
				-538.8917846679688
			],
			"type":"VEC3"
		},
		{
			"bufferView":1,
			"componentType":5126,
			"count":6605,
			"type":"VEC3"
		},
		{
			"bufferView":2,
			"componentType":5126,
			"count":6605,
			"type":"VEC2"
		},
		{
			"bufferView":3,
			"componentType":5126,
			"count":6605,
			"type":"VEC2"
		},
		{
			"bufferView":4,
			"componentType":5121,
			"count":6605,
			"normalized":true,
			"type":"VEC4"
		},
		{
			"bufferView":5,
			"componentType":5123,
			"count":6605,
			"normalized":true,
			"type":"VEC4"
		},
		{
			"bufferView":6,
			"componentType":5123,
			"count":11103,
			"type":"SCALAR"
		}
	],
	"bufferViews":[
		{
			"buffer":0,
			"byteLength":79260,
			"byteOffset":0,
			"target":34962
		},
		{
			"buffer":0,
			"byteLength":79260,
			"byteOffset":79260,
			"target":34962
		},
		{
			"buffer":0,
			"byteLength":52840,
			"byteOffset":158520,
			"target":34962
		},
		{
			"buffer":0,
			"byteLength":52840,
			"byteOffset":211360,
			"target":34962
		},
		{
			"buffer":0,
			"byteLength":26420,
			"byteOffset":264200,
			"target":34962
		},
		{
			"buffer":0,
			"byteLength":52840,
			"byteOffset":290620,
			"target":34962
		},
		{
			"buffer":0,
			"byteLength":22206,
			"byteOffset":343460,
			"target":34963
		}
	],
	"buffers":[
		{
			"byteLength":365668,
			"uri":"jungle_SM_Prop_PirateFlag_01.bin"
		}
	]
}
