{
	"asset":{
		"generator":"Khronos glTF Blender I/O v4.4.55",
		"version":"2.0"
	},
	"scene":0,
	"scenes":[
		{
			"name":"Scene",
			"nodes":[
				0
			]
		}
	],
	"nodes":[
		{
			"mesh":0,
			"name":"SM_Prop_Sign_03",
			"rotation":[
				0.7071068286895752,
				0,
				0,
				0.7071068286895752
			],
			"scale":[
				0.009999999776482582,
				0.009999999776482582,
				0.009999999776482582
			]
		}
	],
	"materials":[
		{
			"doubleSided":true,
			"name":"Explorer_MAT33",
			"pbrMetallicRoughness":{
				"metallicFactor":0
			}
		}
	],
	"meshes":[
		{
			"name":"Mesh",
			"primitives":[
				{
					"attributes":{
						"POSITION":0,
						"NORMAL":1,
						"TEXCOORD_0":2
					},
					"indices":3,
					"material":0
				}
			]
		}
	],
	"accessors":[
		{
			"bufferView":0,
			"componentType":5126,
			"count":781,
			"max":[
				48.214534759521484,
				34.74272918701172,
				8.005524635314941
			],
			"min":[
				-49.96333694458008,
				-34.46061706542969,
				-287.5000915527344
			],
			"type":"VEC3"
		},
		{
			"bufferView":1,
			"componentType":5126,
			"count":781,
			"type":"VEC3"
		},
		{
			"bufferView":2,
			"componentType":5126,
			"count":781,
			"type":"VEC2"
		},
		{
			"bufferView":3,
			"componentType":5123,
			"count":1290,
			"type":"SCALAR"
		}
	],
	"bufferViews":[
		{
			"buffer":0,
			"byteLength":9372,
			"byteOffset":0,
			"target":34962
		},
		{
			"buffer":0,
			"byteLength":9372,
			"byteOffset":9372,
			"target":34962
		},
		{
			"buffer":0,
			"byteLength":6248,
			"byteOffset":18744,
			"target":34962
		},
		{
			"buffer":0,
			"byteLength":2580,
			"byteOffset":24992,
			"target":34963
		}
	],
	"buffers":[
		{
			"byteLength":27572,
			"uri":"meadow_SM_Prop_Sign_03.bin"
		}
	]
}
