{
	"asset":{
		"generator":"Khronos glTF Blender I/O v4.4.55",
		"version":"2.0"
	},
	"scene":0,
	"scenes":[
		{
			"name":"Scene",
			"nodes":[
				0
			]
		}
	],
	"nodes":[
		{
			"mesh":0,
			"name":"SM_Prop_Leaves_Branch_01",
			"rotation":[
				0.7071068286895752,
				0,
				0,
				0.7071068286895752
			],
			"scale":[
				0.009999999776482582,
				0.009999999776482582,
				0.009999999776482582
			]
		}
	],
	"materials":[
		{
			"doubleSided":true,
			"name":"lambert2064",
			"pbrMetallicRoughness":{
				"metallicFactor":0
			}
		}
	],
	"meshes":[
		{
			"name":"Mesh",
			"primitives":[
				{
					"attributes":{
						"POSITION":0,
						"NORMAL":1,
						"TEXCOORD_0":2
					},
					"indices":3,
					"material":0
				}
			]
		}
	],
	"accessors":[
		{
			"bufferView":0,
			"componentType":5126,
			"count":467,
			"max":[
				15.171875,
				66.7998046875,
				5.246915817260742
			],
			"min":[
				-24.5908203125,
				-75.7265625,
				-13.382041931152344
			],
			"type":"VEC3"
		},
		{
			"bufferView":1,
			"componentType":5126,
			"count":467,
			"type":"VEC3"
		},
		{
			"bufferView":2,
			"componentType":5126,
			"count":467,
			"type":"VEC2"
		},
		{
			"bufferView":3,
			"componentType":5123,
			"count":612,
			"type":"SCALAR"
		}
	],
	"bufferViews":[
		{
			"buffer":0,
			"byteLength":5604,
			"byteOffset":0,
			"target":34962
		},
		{
			"buffer":0,
			"byteLength":5604,
			"byteOffset":5604,
			"target":34962
		},
		{
			"buffer":0,
			"byteLength":3736,
			"byteOffset":11208,
			"target":34962
		},
		{
			"buffer":0,
			"byteLength":1224,
			"byteOffset":14944,
			"target":34963
		}
	],
	"buffers":[
		{
			"byteLength":16168,
			"uri":"meadow_SM_Prop_Leaves_Branch_01.bin"
		}
	]
}
