{
	"asset":{
		"generator":"Khronos glTF Blender I/O v4.4.55",
		"version":"2.0"
	},
	"scene":0,
	"scenes":[
		{
			"name":"Scene",
			"nodes":[
				2
			]
		}
	],
	"nodes":[
		{
			"mesh":0,
			"name":"SM_Prop_WaterWheel_01_Cog_01",
			"translation":[
				-7032.00927734375,
				0,
				0
			]
		},
		{
			"mesh":1,
			"name":"SM_Prop_WaterWheel_01_Wheel_01"
		},
		{
			"children":[
				0,
				1
			],
			"mesh":2,
			"name":"SM_Prop_WaterWheel_01",
			"rotation":[
				0.7071068286895752,
				0,
				0,
				0.7071068286895752
			],
			"scale":[
				0.009999999776482582,
				0.009999999776482582,
				0.009999999776482582
			]
		}
	],
	"materials":[
		{
			"doubleSided":true,
			"name":"Explorer_MAT47",
			"pbrMetallicRoughness":{
				"metallicFactor":0
			}
		}
	],
	"meshes":[
		{
			"name":"Mesh.002",
			"primitives":[
				{
					"attributes":{
						"POSITION":0,
						"NORMAL":1,
						"TEXCOORD_0":2
					},
					"indices":3,
					"material":0
				}
			]
		},
		{
			"name":"Mesh.001",
			"primitives":[
				{
					"attributes":{
						"POSITION":4,
						"NORMAL":5,
						"TEXCOORD_0":6
					},
					"indices":7,
					"material":0
				}
			]
		},
		{
			"name":"Mesh",
			"primitives":[
				{
					"attributes":{
						"POSITION":8,
						"NORMAL":9,
						"TEXCOORD_0":10
					},
					"indices":11,
					"material":0
				}
			]
		}
	],
	"accessors":[
		{
			"bufferView":0,
			"componentType":5126,
			"count":400,
			"max":[
				7064.244140625,
				28.49365234375,
				-63.56141662597656
			],
			"min":[
				7007.25732421875,
				-28.493637084960938,
				-149.60177612304688
			],
			"type":"VEC3"
		},
		{
			"bufferView":1,
			"componentType":5126,
			"count":400,
			"type":"VEC3"
		},
		{
			"bufferView":2,
			"componentType":5126,
			"count":400,
			"type":"VEC2"
		},
		{
			"bufferView":3,
			"componentType":5123,
			"count":678,
			"type":"SCALAR"
		},
		{
			"bufferView":4,
			"componentType":5126,
			"count":4484,
			"max":[
				2.3994598388671875,
				180.27963256835938,
				11.299148559570312
			],
			"min":[
				-237.75439453125,
				-180.27963256835938,
				-348.80059814453125
			],
			"type":"VEC3"
		},
		{
			"bufferView":5,
			"componentType":5126,
			"count":4484,
			"type":"VEC3"
		},
		{
			"bufferView":6,
			"componentType":5126,
			"count":4484,
			"type":"VEC2"
		},
		{
			"bufferView":7,
			"componentType":5123,
			"count":7512,
			"type":"SCALAR"
		},
		{
			"bufferView":8,
			"componentType":5126,
			"count":4911,
			"max":[
				64.6844482421875,
				82.58373260498047,
				0.7427825927734375
			],
			"min":[
				-64.68444061279297,
				-77.75723266601562,
				-235.83209228515625
			],
			"type":"VEC3"
		},
		{
			"bufferView":9,
			"componentType":5126,
			"count":4911,
			"type":"VEC3"
		},
		{
			"bufferView":10,
			"componentType":5126,
			"count":4911,
			"type":"VEC2"
		},
		{
			"bufferView":11,
			"componentType":5123,
			"count":4953,
			"type":"SCALAR"
		}
	],
	"bufferViews":[
		{
			"buffer":0,
			"byteLength":4800,
			"byteOffset":0,
			"target":34962
		},
		{
			"buffer":0,
			"byteLength":4800,
			"byteOffset":4800,
			"target":34962
		},
		{
			"buffer":0,
			"byteLength":3200,
			"byteOffset":9600,
			"target":34962
		},
		{
			"buffer":0,
			"byteLength":1356,
			"byteOffset":12800,
			"target":34963
		},
		{
			"buffer":0,
			"byteLength":53808,
			"byteOffset":14156,
			"target":34962
		},
		{
			"buffer":0,
			"byteLength":53808,
			"byteOffset":67964,
			"target":34962
		},
		{
			"buffer":0,
			"byteLength":35872,
			"byteOffset":121772,
			"target":34962
		},
		{
			"buffer":0,
			"byteLength":15024,
			"byteOffset":157644,
			"target":34963
		},
		{
			"buffer":0,
			"byteLength":58932,
			"byteOffset":172668,
			"target":34962
		},
		{
			"buffer":0,
			"byteLength":58932,
			"byteOffset":231600,
			"target":34962
		},
		{
			"buffer":0,
			"byteLength":39288,
			"byteOffset":290532,
			"target":34962
		},
		{
			"buffer":0,
			"byteLength":9906,
			"byteOffset":329820,
			"target":34963
		}
	],
	"buffers":[
		{
			"byteLength":339728,
			"uri":"meadow_SM_Prop_WaterWheel_01.bin"
		}
	]
}
