{
	"asset":{
		"generator":"Khronos glTF Blender I/O v4.4.55",
		"version":"2.0"
	},
	"extensionsUsed":[
		"EXT_texture_webp"
	],
	"extensionsRequired":[
		"EXT_texture_webp"
	],
	"scene":0,
	"scenes":[
		{
			"name":"Scene",
			"nodes":[
				0
			]
		}
	],
	"nodes":[
		{
			"mesh":0,
			"name":"SM_Prop_StonePile_01",
			"rotation":[
				0.7071068286895752,
				0,
				0,
				0.7071068286895752
			],
			"scale":[
				0.009999999776482582,
				0.009999999776482582,
				0.009999999776482582
			]
		}
	],
	"materials":[
		{
			"doubleSided":true,
			"name":"Explorer_MAT36",
			"pbrMetallicRoughness":{
				"baseColorTexture":{
					"index":0
				},
				"metallicFactor":0
			}
		}
	],
	"meshes":[
		{
			"name":"Mesh",
			"primitives":[
				{
					"attributes":{
						"POSITION":0,
						"NORMAL":1,
						"TEXCOORD_0":2
					},
					"indices":3,
					"material":0
				}
			]
		}
	],
	"textures":[
		{
			"extensions":{
				"EXT_texture_webp":{
					"source":0
				}
			},
			"sampler":0
		}
	],
	"images":[
		{
			"mimeType":"image/webp",
			"name":"PolygonNatureBiomes_Meadow_Texture_01",
			"uri":"PolygonNatureBiomes_Meadow_Texture_01.webp"
		}
	],
	"accessors":[
		{
			"bufferView":0,
			"componentType":5126,
			"count":3432,
			"max":[
				43.87812042236328,
				35.30183029174805,
				-0.09616744518280029
			],
			"min":[
				-43.87812423706055,
				-37.892066955566406,
				-148.53021240234375
			],
			"type":"VEC3"
		},
		{
			"bufferView":1,
			"componentType":5126,
			"count":3432,
			"type":"VEC3"
		},
		{
			"bufferView":2,
			"componentType":5126,
			"count":3432,
			"type":"VEC2"
		},
		{
			"bufferView":3,
			"componentType":5123,
			"count":3432,
			"type":"SCALAR"
		}
	],
	"bufferViews":[
		{
			"buffer":0,
			"byteLength":41184,
			"byteOffset":0,
			"target":34962
		},
		{
			"buffer":0,
			"byteLength":41184,
			"byteOffset":41184,
			"target":34962
		},
		{
			"buffer":0,
			"byteLength":27456,
			"byteOffset":82368,
			"target":34962
		},
		{
			"buffer":0,
			"byteLength":6864,
			"byteOffset":109824,
			"target":34963
		}
	],
	"samplers":[
		{
			"magFilter":9729,
			"minFilter":9987
		}
	],
	"buffers":[
		{
			"byteLength":116688,
			"uri":"meadow_SM_Prop_StonePile_01.bin"
		}
	]
}
