{
	"asset":{
		"generator":"Khronos glTF Blender I/O v4.4.55",
		"version":"2.0"
	},
	"scene":0,
	"scenes":[
		{
			"name":"Scene",
			"nodes":[
				3
			]
		}
	],
	"nodes":[
		{
			"mesh":0,
			"name":"SM_Env_Ground_Cover_03_LOD0"
		},
		{
			"mesh":1,
			"name":"SM_Env_Ground_Cover_03_LOD1"
		},
		{
			"mesh":2,
			"name":"SM_Env_Ground_Cover_03_LOD2"
		},
		{
			"children":[
				0,
				1,
				2
			],
			"name":"SM_Env_Ground_Cover_03",
			"rotation":[
				0.7071068286895752,
				0,
				0,
				0.7071068286895752
			],
			"scale":[
				0.009999999776482582,
				0.009999999776482582,
				0.009999999776482582
			]
		}
	],
	"materials":[
		{
			"doubleSided":true,
			"name":"pasted__groundCoverSHD2",
			"pbrMetallicRoughness":{
				"metallicFactor":0
			}
		}
	],
	"meshes":[
		{
			"name":"Mesh",
			"primitives":[
				{
					"attributes":{
						"POSITION":0,
						"NORMAL":1,
						"TEXCOORD_0":2,
						"COLOR_0":3,
						"COLOR_1":4
					},
					"indices":5,
					"material":0
				}
			]
		},
		{
			"name":"Mesh.001",
			"primitives":[
				{
					"attributes":{
						"POSITION":6,
						"NORMAL":7,
						"TEXCOORD_0":8,
						"COLOR_0":9,
						"COLOR_1":10
					},
					"indices":11,
					"material":0
				}
			]
		},
		{
			"name":"Mesh.002",
			"primitives":[
				{
					"attributes":{
						"POSITION":12,
						"NORMAL":13,
						"TEXCOORD_0":14,
						"COLOR_0":15,
						"COLOR_1":16
					},
					"indices":17,
					"material":0
				}
			]
		}
	],
	"accessors":[
		{
			"bufferView":0,
			"componentType":5126,
			"count":138,
			"max":[
				113.50433349609375,
				81.64669799804688,
				11.222363471984863
			],
			"min":[
				-94.71056365966797,
				-79.53347778320312,
				-149.19256591796875
			],
			"type":"VEC3"
		},
		{
			"bufferView":1,
			"componentType":5126,
			"count":138,
			"type":"VEC3"
		},
		{
			"bufferView":2,
			"componentType":5126,
			"count":138,
			"type":"VEC2"
		},
		{
			"bufferView":3,
			"componentType":5121,
			"count":138,
			"normalized":true,
			"type":"VEC4"
		},
		{
			"bufferView":4,
			"componentType":5123,
			"count":138,
			"normalized":true,
			"type":"VEC4"
		},
		{
			"bufferView":5,
			"componentType":5123,
			"count":240,
			"type":"SCALAR"
		},
		{
			"bufferView":6,
			"componentType":5126,
			"count":28,
			"max":[
				98.45751953125,
				67.64547729492188,
				0
			],
			"min":[
				-100.95008850097656,
				-68.17151641845703,
				-149.19256591796875
			],
			"type":"VEC3"
		},
		{
			"bufferView":7,
			"componentType":5126,
			"count":28,
			"type":"VEC3"
		},
		{
			"bufferView":8,
			"componentType":5126,
			"count":28,
			"type":"VEC2"
		},
		{
			"bufferView":9,
			"componentType":5121,
			"count":28,
			"normalized":true,
			"type":"VEC4"
		},
		{
			"bufferView":10,
			"componentType":5123,
			"count":28,
			"normalized":true,
			"type":"VEC4"
		},
		{
			"bufferView":11,
			"componentType":5123,
			"count":42,
			"type":"SCALAR"
		},
		{
			"bufferView":12,
			"componentType":5126,
			"count":12,
			"max":[
				57.2120246887207,
				64.42068481445312,
				0
			],
			"min":[
				-44.657188415527344,
				-68.17151641845703,
				-149.19256591796875
			],
			"type":"VEC3"
		},
		{
			"bufferView":13,
			"componentType":5126,
			"count":12,
			"type":"VEC3"
		},
		{
			"bufferView":14,
			"componentType":5126,
			"count":12,
			"type":"VEC2"
		},
		{
			"bufferView":15,
			"componentType":5121,
			"count":12,
			"normalized":true,
			"type":"VEC4"
		},
		{
			"bufferView":16,
			"componentType":5123,
			"count":12,
			"normalized":true,
			"type":"VEC4"
		},
		{
			"bufferView":17,
			"componentType":5123,
			"count":18,
			"type":"SCALAR"
		}
	],
	"bufferViews":[
		{
			"buffer":0,
			"byteLength":1656,
			"byteOffset":0,
			"target":34962
		},
		{
			"buffer":0,
			"byteLength":1656,
			"byteOffset":1656,
			"target":34962
		},
		{
			"buffer":0,
			"byteLength":1104,
			"byteOffset":3312,
			"target":34962
		},
		{
			"buffer":0,
			"byteLength":552,
			"byteOffset":4416,
			"target":34962
		},
		{
			"buffer":0,
			"byteLength":1104,
			"byteOffset":4968,
			"target":34962
		},
		{
			"buffer":0,
			"byteLength":480,
			"byteOffset":6072,
			"target":34963
		},
		{
			"buffer":0,
			"byteLength":336,
			"byteOffset":6552,
			"target":34962
		},
		{
			"buffer":0,
			"byteLength":336,
			"byteOffset":6888,
			"target":34962
		},
		{
			"buffer":0,
			"byteLength":224,
			"byteOffset":7224,
			"target":34962
		},
		{
			"buffer":0,
			"byteLength":112,
			"byteOffset":7448,
			"target":34962
		},
		{
			"buffer":0,
			"byteLength":224,
			"byteOffset":7560,
			"target":34962
		},
		{
			"buffer":0,
			"byteLength":84,
			"byteOffset":7784,
			"target":34963
		},
		{
			"buffer":0,
			"byteLength":144,
			"byteOffset":7868,
			"target":34962
		},
		{
			"buffer":0,
			"byteLength":144,
			"byteOffset":8012,
			"target":34962
		},
		{
			"buffer":0,
			"byteLength":96,
			"byteOffset":8156,
			"target":34962
		},
		{
			"buffer":0,
			"byteLength":48,
			"byteOffset":8252,
			"target":34962
		},
		{
			"buffer":0,
			"byteLength":96,
			"byteOffset":8300,
			"target":34962
		},
		{
			"buffer":0,
			"byteLength":36,
			"byteOffset":8396,
			"target":34963
		}
	],
	"buffers":[
		{
			"byteLength":8432,
			"uri":"meadow_SM_Env_Ground_Cover_03.bin"
		}
	]
}
