{
	"asset":{
		"generator":"Khronos glTF Blender I/O v4.4.55",
		"version":"2.0"
	},
	"scene":0,
	"scenes":[
		{
			"name":"Scene",
			"nodes":[
				4
			]
		}
	],
	"nodes":[
		{
			"mesh":0,
			"name":"SM_Env_Bush_03_Branches_LOD0"
		},
		{
			"mesh":1,
			"name":"SM_Env_Bush_03_LOD0"
		},
		{
			"mesh":2,
			"name":"SM_Env_Bush_03_LOD1"
		},
		{
			"mesh":3,
			"name":"SM_Env_Bush_03_LOD2"
		},
		{
			"children":[
				0,
				1,
				2,
				3
			],
			"name":"SM_Env_Bush_03",
			"rotation":[
				0.7071068286895752,
				0,
				0,
				0.7071068286895752
			],
			"scale":[
				0.009999999776482582,
				0.009999999776482582,
				0.009999999776482582
			]
		}
	],
	"materials":[
		{
			"doubleSided":true,
			"name":"tomTreeGeneric_04:Base_Tree_Branches1",
			"pbrMetallicRoughness":{
				"metallicFactor":0
			}
		},
		{
			"doubleSided":true,
			"name":"lambert4",
			"pbrMetallicRoughness":{
				"baseColorFactor":[
					0.5,
					0.5,
					0.5,
					1
				],
				"metallicFactor":0
			}
		}
	],
	"meshes":[
		{
			"name":"Mesh.001",
			"primitives":[
				{
					"attributes":{
						"POSITION":0,
						"NORMAL":1,
						"TEXCOORD_0":2,
						"COLOR_0":3,
						"COLOR_1":4
					},
					"indices":5,
					"material":0
				}
			]
		},
		{
			"name":"Mesh",
			"primitives":[
				{
					"attributes":{
						"POSITION":6,
						"NORMAL":7,
						"TEXCOORD_0":8,
						"COLOR_0":9,
						"COLOR_1":10
					},
					"indices":11,
					"material":1
				}
			]
		},
		{
			"name":"Mesh.002",
			"primitives":[
				{
					"attributes":{
						"POSITION":12,
						"NORMAL":13,
						"TEXCOORD_0":14,
						"COLOR_0":15,
						"COLOR_1":16
					},
					"indices":17,
					"material":1
				}
			]
		},
		{
			"name":"Mesh.003",
			"primitives":[
				{
					"attributes":{
						"POSITION":18,
						"NORMAL":19,
						"TEXCOORD_0":20,
						"COLOR_0":21,
						"COLOR_1":22
					},
					"indices":23,
					"material":1
				}
			]
		}
	],
	"accessors":[
		{
			"bufferView":0,
			"componentType":5126,
			"count":42,
			"max":[
				210.48806762695312,
				114.3223876953125,
				20.774227142333984
			],
			"min":[
				-193.85263061523438,
				-122.91497802734375,
				-266.8989562988281
			],
			"type":"VEC3"
		},
		{
			"bufferView":1,
			"componentType":5126,
			"count":42,
			"type":"VEC3"
		},
		{
			"bufferView":2,
			"componentType":5126,
			"count":42,
			"type":"VEC2"
		},
		{
			"bufferView":3,
			"componentType":5121,
			"count":42,
			"normalized":true,
			"type":"VEC4"
		},
		{
			"bufferView":4,
			"componentType":5123,
			"count":42,
			"normalized":true,
			"type":"VEC4"
		},
		{
			"bufferView":5,
			"componentType":5123,
			"count":84,
			"type":"SCALAR"
		},
		{
			"bufferView":6,
			"componentType":5126,
			"count":11732,
			"max":[
				281.9297790527344,
				189.70401000976562,
				12.003158569335938
			],
			"min":[
				-300.9021911621094,
				-218.64157104492188,
				-307.9530029296875
			],
			"type":"VEC3"
		},
		{
			"bufferView":7,
			"componentType":5126,
			"count":11732,
			"type":"VEC3"
		},
		{
			"bufferView":8,
			"componentType":5126,
			"count":11732,
			"type":"VEC2"
		},
		{
			"bufferView":9,
			"componentType":5121,
			"count":11732,
			"normalized":true,
			"type":"VEC4"
		},
		{
			"bufferView":10,
			"componentType":5123,
			"count":11732,
			"normalized":true,
			"type":"VEC4"
		},
		{
			"bufferView":11,
			"componentType":5123,
			"count":17598,
			"type":"SCALAR"
		},
		{
			"bufferView":12,
			"componentType":5126,
			"count":5828,
			"max":[
				277.9262390136719,
				191.95242309570312,
				19.266883850097656
			],
			"min":[
				-283.4952697753906,
				-215.58648681640625,
				-308.5091552734375
			],
			"type":"VEC3"
		},
		{
			"bufferView":13,
			"componentType":5126,
			"count":5828,
			"type":"VEC3"
		},
		{
			"bufferView":14,
			"componentType":5126,
			"count":5828,
			"type":"VEC2"
		},
		{
			"bufferView":15,
			"componentType":5121,
			"count":5828,
			"normalized":true,
			"type":"VEC4"
		},
		{
			"bufferView":16,
			"componentType":5123,
			"count":5828,
			"normalized":true,
			"type":"VEC4"
		},
		{
			"bufferView":17,
			"componentType":5123,
			"count":8742,
			"type":"SCALAR"
		},
		{
			"bufferView":18,
			"componentType":5126,
			"count":2912,
			"max":[
				291.0093688964844,
				188.35069274902344,
				34.257530212402344
			],
			"min":[
				-285.13922119140625,
				-213.3067626953125,
				-306.516357421875
			],
			"type":"VEC3"
		},
		{
			"bufferView":19,
			"componentType":5126,
			"count":2912,
			"type":"VEC3"
		},
		{
			"bufferView":20,
			"componentType":5126,
			"count":2912,
			"type":"VEC2"
		},
		{
			"bufferView":21,
			"componentType":5121,
			"count":2912,
			"normalized":true,
			"type":"VEC4"
		},
		{
			"bufferView":22,
			"componentType":5123,
			"count":2912,
			"normalized":true,
			"type":"VEC4"
		},
		{
			"bufferView":23,
			"componentType":5123,
			"count":4368,
			"type":"SCALAR"
		}
	],
	"bufferViews":[
		{
			"buffer":0,
			"byteLength":504,
			"byteOffset":0,
			"target":34962
		},
		{
			"buffer":0,
			"byteLength":504,
			"byteOffset":504,
			"target":34962
		},
		{
			"buffer":0,
			"byteLength":336,
			"byteOffset":1008,
			"target":34962
		},
		{
			"buffer":0,
			"byteLength":168,
			"byteOffset":1344,
			"target":34962
		},
		{
			"buffer":0,
			"byteLength":336,
			"byteOffset":1512,
			"target":34962
		},
		{
			"buffer":0,
			"byteLength":168,
			"byteOffset":1848,
			"target":34963
		},
		{
			"buffer":0,
			"byteLength":140784,
			"byteOffset":2016,
			"target":34962
		},
		{
			"buffer":0,
			"byteLength":140784,
			"byteOffset":142800,
			"target":34962
		},
		{
			"buffer":0,
			"byteLength":93856,
			"byteOffset":283584,
			"target":34962
		},
		{
			"buffer":0,
			"byteLength":46928,
			"byteOffset":377440,
			"target":34962
		},
		{
			"buffer":0,
			"byteLength":93856,
			"byteOffset":424368,
			"target":34962
		},
		{
			"buffer":0,
			"byteLength":35196,
			"byteOffset":518224,
			"target":34963
		},
		{
			"buffer":0,
			"byteLength":69936,
			"byteOffset":553420,
			"target":34962
		},
		{
			"buffer":0,
			"byteLength":69936,
			"byteOffset":623356,
			"target":34962
		},
		{
			"buffer":0,
			"byteLength":46624,
			"byteOffset":693292,
			"target":34962
		},
		{
			"buffer":0,
			"byteLength":23312,
			"byteOffset":739916,
			"target":34962
		},
		{
			"buffer":0,
			"byteLength":46624,
			"byteOffset":763228,
			"target":34962
		},
		{
			"buffer":0,
			"byteLength":17484,
			"byteOffset":809852,
			"target":34963
		},
		{
			"buffer":0,
			"byteLength":34944,
			"byteOffset":827336,
			"target":34962
		},
		{
			"buffer":0,
			"byteLength":34944,
			"byteOffset":862280,
			"target":34962
		},
		{
			"buffer":0,
			"byteLength":23296,
			"byteOffset":897224,
			"target":34962
		},
		{
			"buffer":0,
			"byteLength":11648,
			"byteOffset":920520,
			"target":34962
		},
		{
			"buffer":0,
			"byteLength":23296,
			"byteOffset":932168,
			"target":34962
		},
		{
			"buffer":0,
			"byteLength":8736,
			"byteOffset":955464,
			"target":34963
		}
	],
	"buffers":[
		{
			"byteLength":964200,
			"uri":"meadow_SM_Env_Bush_03.bin"
		}
	]
}
