{
	"asset":{
		"generator":"Khronos glTF Blender I/O v4.4.55",
		"version":"2.0"
	},
	"scene":0,
	"scenes":[
		{
			"name":"Scene",
			"nodes":[
				0
			]
		}
	],
	"nodes":[
		{
			"mesh":0,
			"name":"SM_Prop_Wagon_Broken_01",
			"rotation":[
				0.7071068286895752,
				0,
				0,
				0.7071068286895752
			],
			"scale":[
				0.009999999776482582,
				0.009999999776482582,
				0.009999999776482582
			]
		}
	],
	"materials":[
		{
			"doubleSided":true,
			"name":"Explorer_MAT46",
			"pbrMetallicRoughness":{
				"metallicFactor":0
			}
		}
	],
	"meshes":[
		{
			"name":"Mesh",
			"primitives":[
				{
					"attributes":{
						"POSITION":0,
						"NORMAL":1,
						"TEXCOORD_0":2
					},
					"indices":3,
					"material":0
				}
			]
		}
	],
	"accessors":[
		{
			"bufferView":0,
			"componentType":5126,
			"count":7077,
			"max":[
				188.86956787109375,
				303.90557861328125,
				14.003898620605469
			],
			"min":[
				-151.2008056640625,
				-228.08566284179688,
				-224.99049377441406
			],
			"type":"VEC3"
		},
		{
			"bufferView":1,
			"componentType":5126,
			"count":7077,
			"type":"VEC3"
		},
		{
			"bufferView":2,
			"componentType":5126,
			"count":7077,
			"type":"VEC2"
		},
		{
			"bufferView":3,
			"componentType":5123,
			"count":11742,
			"type":"SCALAR"
		}
	],
	"bufferViews":[
		{
			"buffer":0,
			"byteLength":84924,
			"byteOffset":0,
			"target":34962
		},
		{
			"buffer":0,
			"byteLength":84924,
			"byteOffset":84924,
			"target":34962
		},
		{
			"buffer":0,
			"byteLength":56616,
			"byteOffset":169848,
			"target":34962
		},
		{
			"buffer":0,
			"byteLength":23484,
			"byteOffset":226464,
			"target":34963
		}
	],
	"buffers":[
		{
			"byteLength":249948,
			"uri":"meadow_SM_Prop_Wagon_Broken_01.bin"
		}
	]
}
