{"asset":{"generator":"Khronos glTF Blender I/O v4.4.55","version":"2.0"},"extensionsUsed":["EXT_texture_webp"],"extensionsRequired":["EXT_texture_webp"],"scene":0,"scenes":[{"name":"Scene","nodes":[3]}],"nodes":[{"mesh":0,"name":"SM_Env_Wildflowers_03_LOD0"},{"mesh":1,"name":"SM_Env_Wildflowers_03_LOD1"},{"mesh":2,"name":"SM_Env_Wildflowers_03_LOD2"},{"children":[0,1,2],"name":"SM_Env_Wildflowers_03","rotation":[0.7071068286895752,0,0,0.7071068286895752],"scale":[0.009999999776482582,0.009999999776482582,0.009999999776482582]}],"materials":[{"doubleSided":true,"name":"lambert2017","pbrMetallicRoughness":{"baseColorTexture":{"index":0},"metallicFactor":0}},{"alphaMode":"MASK","doubleSided":true,"name":"lambert2061","pbrMetallicRoughness":{"baseColorTexture":{"index":1},"metallicFactor":0},"alphaCutoff":0.5}],"meshes":[{"name":"Mesh","primitives":[{"attributes":{"POSITION":0,"NORMAL":1,"TEXCOORD_0":2,"COLOR_0":3,"COLOR_1":4},"indices":5,"material":0}]},{"name":"Mesh.001","primitives":[{"attributes":{"POSITION":6,"NORMAL":7,"TEXCOORD_0":8,"COLOR_0":9,"COLOR_1":10},"indices":11,"material":0}]},{"name":"Mesh.002","primitives":[{"attributes":{"POSITION":12,"NORMAL":13,"TEXCOORD_0":14,"COLOR_0":15,"COLOR_1":16},"indices":17,"material":1}]}],"textures":[{"extensions":{"EXT_texture_webp":{"source":0}},"sampler":0},{"extensions":{"EXT_texture_webp":{"source":1}},"sampler":0}],"images":[{"mimeType":"image/webp","name":"PolygonNatureBiomes_Meadow_Texture_01","uri":"PolygonNatureBiomes_Meadow_Texture_01.webp"},{"mimeType":"image/webp","name":"WildFlowers_03","uri":"WildFlowers_03.webp"}],"accessors":[{"bufferView":0,"componentType":5126,"count":4959,"max":[36.270851135253906,27.9796142578125,4.3565874099731445],"min":[-40.347923278808594,-30.82590103149414,-59.43480682373047],"type":"VEC3"},{"bufferView":1,"componentType":5126,"count":4959,"type":"VEC3"},{"bufferView":2,"componentType":5126,"count":4959,"type":"VEC2"},{"bufferView":3,"componentType":5121,"count":4959,"normalized":true,"type":"VEC4"},{"bufferView":4,"componentType":5123,"count":4959,"normalized":true,"type":"VEC4"},{"bufferView":5,"componentType":5123,"count":9564,"type":"SCALAR"},{"bufferView":6,"componentType":5126,"count":2071,"max":[36.268898010253906,28.034658432006836,4.3565874099731445],"min":[-40.349876403808594,-30.770858764648438,-59.43480682373047],"type":"VEC3"},{"bufferView":7,"componentType":5126,"count":2071,"type":"VEC3"},{"bufferView":8,"componentType":5126,"count":2071,"type":"VEC2"},{"bufferView":9,"componentType":5121,"count":2071,"normalized":true,"type":"VEC4"},{"bufferView":10,"componentType":5123,"count":2071,"normalized":true,"type":"VEC4"},{"bufferView":11,"componentType":5123,"count":3546,"type":"SCALAR"},{"bufferView":12,"componentType":5126,"count":24,"max":[32.559906005859375,42.38736343383789,6.7528886795043945],"min":[-42.81230926513672,-31.876075744628906,-63.52851486206055],"type":"VEC3"},{"bufferView":13,"componentType":5126,"count":24,"type":"VEC3"},{"bufferView":14,"componentType":5126,"count":24,"type":"VEC2"},{"bufferView":15,"componentType":5121,"count":24,"normalized":true,"type":"VEC4"},{"bufferView":16,"componentType":5123,"count":24,"normalized":true,"type":"VEC4"},{"bufferView":17,"componentType":5123,"count":36,"type":"SCALAR"}],"bufferViews":[{"buffer":0,"byteLength":59508,"byteOffset":0,"target":34962},{"buffer":0,"byteLength":59508,"byteOffset":59508,"target":34962},{"buffer":0,"byteLength":39672,"byteOffset":119016,"target":34962},{"buffer":0,"byteLength":19836,"byteOffset":158688,"target":34962},{"buffer":0,"byteLength":39672,"byteOffset":178524,"target":34962},{"buffer":0,"byteLength":19128,"byteOffset":218196,"target":34963},{"buffer":0,"byteLength":24852,"byteOffset":237324,"target":34962},{"buffer":0,"byteLength":24852,"byteOffset":262176,"target":34962},{"buffer":0,"byteLength":16568,"byteOffset":287028,"target":34962},{"buffer":0,"byteLength":8284,"byteOffset":303596,"target":34962},{"buffer":0,"byteLength":16568,"byteOffset":311880,"target":34962},{"buffer":0,"byteLength":7092,"byteOffset":328448,"target":34963},{"buffer":0,"byteLength":288,"byteOffset":335540,"target":34962},{"buffer":0,"byteLength":288,"byteOffset":335828,"target":34962},{"buffer":0,"byteLength":192,"byteOffset":336116,"target":34962},{"buffer":0,"byteLength":96,"byteOffset":336308,"target":34962},{"buffer":0,"byteLength":192,"byteOffset":336404,"target":34962},{"buffer":0,"byteLength":72,"byteOffset":336596,"target":34963}],"samplers":[{"magFilter":9729,"minFilter":9987}],"buffers":[{"byteLength":336668,"uri":"meadow_SM_Env_Wildflowers_03.bin"}]}