{
	"asset":{
		"generator":"Khronos glTF Blender I/O v4.4.55",
		"version":"2.0"
	},
	"scene":0,
	"scenes":[
		{
			"name":"Scene",
			"nodes":[
				0
			]
		}
	],
	"nodes":[
		{
			"mesh":0,
			"name":"SM_Prop_Sign_01",
			"rotation":[
				0.7071068286895752,
				0,
				0,
				0.7071068286895752
			],
			"scale":[
				0.009999999776482582,
				0.009999999776482582,
				0.009999999776482582
			]
		}
	],
	"materials":[
		{
			"doubleSided":true,
			"name":"Explorer_MAT31",
			"pbrMetallicRoughness":{
				"metallicFactor":0
			}
		}
	],
	"meshes":[
		{
			"name":"Mesh",
			"primitives":[
				{
					"attributes":{
						"POSITION":0,
						"NORMAL":1,
						"TEXCOORD_0":2
					},
					"indices":3,
					"material":0
				}
			]
		}
	],
	"accessors":[
		{
			"bufferView":0,
			"componentType":5126,
			"count":1233,
			"max":[
				56.90101623535156,
				59.06603240966797,
				8.005524635314941
			],
			"min":[
				-49.351402282714844,
				-37.271705627441406,
				-287.5000915527344
			],
			"type":"VEC3"
		},
		{
			"bufferView":1,
			"componentType":5126,
			"count":1233,
			"type":"VEC3"
		},
		{
			"bufferView":2,
			"componentType":5126,
			"count":1233,
			"type":"VEC2"
		},
		{
			"bufferView":3,
			"componentType":5123,
			"count":2106,
			"type":"SCALAR"
		}
	],
	"bufferViews":[
		{
			"buffer":0,
			"byteLength":14796,
			"byteOffset":0,
			"target":34962
		},
		{
			"buffer":0,
			"byteLength":14796,
			"byteOffset":14796,
			"target":34962
		},
		{
			"buffer":0,
			"byteLength":9864,
			"byteOffset":29592,
			"target":34962
		},
		{
			"buffer":0,
			"byteLength":4212,
			"byteOffset":39456,
			"target":34963
		}
	],
	"buffers":[
		{
			"byteLength":43668,
			"uri":"meadow_SM_Prop_Sign_01.bin"
		}
	]
}
