{
	"asset":{
		"generator":"Khronos glTF Blender I/O v4.4.55",
		"version":"2.0"
	},
	"scene":0,
	"scenes":[
		{
			"name":"Scene",
			"nodes":[
				0
			]
		}
	],
	"nodes":[
		{
			"mesh":0,
			"name":"SM_Prop_Mushroom_Group_04",
			"rotation":[
				0.7071068286895752,
				0,
				0,
				0.7071068286895752
			],
			"scale":[
				0.009999999776482582,
				0.009999999776482582,
				0.009999999776482582
			]
		}
	],
	"materials":[
		{
			"doubleSided":true,
			"name":"Explorer_MAT17",
			"pbrMetallicRoughness":{
				"metallicFactor":0
			}
		}
	],
	"meshes":[
		{
			"name":"Mesh",
			"primitives":[
				{
					"attributes":{
						"POSITION":0,
						"NORMAL":1,
						"TEXCOORD_0":2
					},
					"indices":3,
					"material":0
				}
			]
		}
	],
	"accessors":[
		{
			"bufferView":0,
			"componentType":5126,
			"count":626,
			"max":[
				12.428146362304688,
				15.36976432800293,
				5.985822677612305
			],
			"min":[
				-13.3575439453125,
				-15.208793640136719,
				-19.4012393951416
			],
			"type":"VEC3"
		},
		{
			"bufferView":1,
			"componentType":5126,
			"count":626,
			"type":"VEC3"
		},
		{
			"bufferView":2,
			"componentType":5126,
			"count":626,
			"type":"VEC2"
		},
		{
			"bufferView":3,
			"componentType":5123,
			"count":870,
			"type":"SCALAR"
		}
	],
	"bufferViews":[
		{
			"buffer":0,
			"byteLength":7512,
			"byteOffset":0,
			"target":34962
		},
		{
			"buffer":0,
			"byteLength":7512,
			"byteOffset":7512,
			"target":34962
		},
		{
			"buffer":0,
			"byteLength":5008,
			"byteOffset":15024,
			"target":34962
		},
		{
			"buffer":0,
			"byteLength":1740,
			"byteOffset":20032,
			"target":34963
		}
	],
	"buffers":[
		{
			"byteLength":21772,
			"uri":"meadow_SM_Prop_Mushroom_Group_04.bin"
		}
	]
}
