{"asset":{"generator":"Khronos glTF Blender I/O v4.4.55","version":"2.0"},"extensionsUsed":["EXT_texture_webp"],"extensionsRequired":["EXT_texture_webp"],"scene":0,"scenes":[{"name":"Scene","nodes":[2]}],"nodes":[{"mesh":0,"name":"SM_Env_Wildflowers_Patch_03_LOD0"},{"mesh":1,"name":"SM_Env_Wildflowers_Patch_03_LOD1"},{"children":[0,1],"name":"SM_Env_Wildflowers_Patch_03","rotation":[0.7071068286895752,0,0,0.7071068286895752],"scale":[0.009999999776482582,0.009999999776482582,0.009999999776482582]}],"materials":[{"doubleSided":true,"name":"lambert2062","pbrMetallicRoughness":{"baseColorTexture":{"index":0},"metallicFactor":0}},{"alphaMode":"MASK","doubleSided":true,"name":"lambert2063","pbrMetallicRoughness":{"baseColorTexture":{"index":1},"metallicFactor":0},"alphaCutoff":0.5}],"meshes":[{"name":"Mesh","primitives":[{"attributes":{"POSITION":0,"NORMAL":1,"TEXCOORD_0":2,"COLOR_0":3,"COLOR_1":4},"indices":5,"material":0}]},{"name":"Mesh.001","primitives":[{"attributes":{"POSITION":6,"NORMAL":7,"TEXCOORD_0":8,"COLOR_0":9,"COLOR_1":10},"indices":11,"material":1}]}],"textures":[{"extensions":{"EXT_texture_webp":{"source":0}},"sampler":0},{"extensions":{"EXT_texture_webp":{"source":1}},"sampler":0}],"images":[{"mimeType":"image/webp","name":"PolygonNatureBiomes_Meadow_Texture_01","uri":"PolygonNatureBiomes_Meadow_Texture_01.webp"},{"mimeType":"image/webp","name":"WildFlowers_03","uri":"WildFlowers_03.webp"}],"accessors":[{"bufferView":0,"componentType":5126,"count":365360,"max":[929.885009765625,925.4461669921875,4.3565874099731445],"min":[-902.4647827148438,-930.1170043945312,-59.43480682373047],"type":"VEC3"},{"bufferView":1,"componentType":5126,"count":365360,"type":"VEC3"},{"bufferView":2,"componentType":5126,"count":365360,"type":"VEC2"},{"bufferView":3,"componentType":5121,"count":365360,"normalized":true,"type":"VEC4"},{"bufferView":4,"componentType":5123,"count":365360,"normalized":true,"type":"VEC4"},{"bufferView":5,"componentType":5125,"count":627642,"type":"SCALAR"},{"bufferView":6,"componentType":5126,"count":4248,"max":[928.7381591796875,921.6897583007812,6.7528886795043945],"min":[-908.7972412109375,-935.0523071289062,-63.52851486206055],"type":"VEC3"},{"bufferView":7,"componentType":5126,"count":4248,"type":"VEC3"},{"bufferView":8,"componentType":5126,"count":4248,"type":"VEC2"},{"bufferView":9,"componentType":5121,"count":4248,"normalized":true,"type":"VEC4"},{"bufferView":10,"componentType":5123,"count":4248,"normalized":true,"type":"VEC4"},{"bufferView":11,"componentType":5123,"count":6372,"type":"SCALAR"}],"bufferViews":[{"buffer":0,"byteLength":4384320,"byteOffset":0,"target":34962},{"buffer":0,"byteLength":4384320,"byteOffset":4384320,"target":34962},{"buffer":0,"byteLength":2922880,"byteOffset":8768640,"target":34962},{"buffer":0,"byteLength":1461440,"byteOffset":11691520,"target":34962},{"buffer":0,"byteLength":2922880,"byteOffset":13152960,"target":34962},{"buffer":0,"byteLength":2510568,"byteOffset":16075840,"target":34963},{"buffer":0,"byteLength":50976,"byteOffset":18586408,"target":34962},{"buffer":0,"byteLength":50976,"byteOffset":18637384,"target":34962},{"buffer":0,"byteLength":33984,"byteOffset":18688360,"target":34962},{"buffer":0,"byteLength":16992,"byteOffset":18722344,"target":34962},{"buffer":0,"byteLength":33984,"byteOffset":18739336,"target":34962},{"buffer":0,"byteLength":12744,"byteOffset":18773320,"target":34963}],"samplers":[{"magFilter":9729,"minFilter":9987}],"buffers":[{"byteLength":18786064,"uri":"meadow_SM_Env_Wildflowers_Patch_03.bin"}]}