{"asset":{"generator":"Khronos glTF Blender I/O v4.4.55","version":"2.0"},"extensionsUsed":["EXT_texture_webp"],"extensionsRequired":["EXT_texture_webp"],"scene":0,"scenes":[{"name":"Scene","nodes":[3]}],"nodes":[{"mesh":0,"name":"SM_Env_Grass_Large_02_LOD0"},{"mesh":1,"name":"SM_Env_Grass_Large_02_LOD1"},{"mesh":2,"name":"SM_Env_Grass_Large_02_LOD2"},{"children":[0,1,2],"name":"SM_Env_Grass_Large_02","rotation":[0.7071068286895752,0,0,0.7071068286895752],"scale":[0.009999999776482582,0.009999999776482582,0.009999999776482582]}],"materials":[{"alphaMode":"MASK","doubleSided":true,"name":"grassSHD11","pbrMetallicRoughness":{"baseColorTexture":{"index":0},"metallicFactor":0},"alphaCutoff":0.5}],"meshes":[{"name":"Mesh","primitives":[{"attributes":{"POSITION":0,"NORMAL":1,"TEXCOORD_0":2,"COLOR_0":3,"COLOR_1":4},"indices":5,"material":0}]},{"name":"Mesh.001","primitives":[{"attributes":{"POSITION":6,"NORMAL":7,"TEXCOORD_0":8,"COLOR_0":9,"COLOR_1":10},"indices":11,"material":0}]},{"name":"Mesh.002","primitives":[{"attributes":{"POSITION":12,"NORMAL":13,"TEXCOORD_0":14,"COLOR_0":15,"COLOR_1":16},"indices":17,"material":0}]}],"textures":[{"extensions":{"EXT_texture_webp":{"source":0}},"sampler":0}],"images":[{"mimeType":"image/webp","name":"Dirt_Cracked_Leaves_Heavy_Texture_01","uri":"Dirt_Cracked_Leaves_Heavy_Texture_01.webp"}],"accessors":[{"bufferView":0,"componentType":5126,"count":33896,"max":[1671.2191162109375,1731.541259765625,37.4190673828125],"min":[-1638.5894775390625,-1697.8707275390625,-299.7099609375],"type":"VEC3"},{"bufferView":1,"componentType":5126,"count":33896,"type":"VEC3"},{"bufferView":2,"componentType":5126,"count":33896,"type":"VEC2"},{"bufferView":3,"componentType":5121,"count":33896,"normalized":true,"type":"VEC4"},{"bufferView":4,"componentType":5123,"count":33896,"normalized":true,"type":"VEC4"},{"bufferView":5,"componentType":5123,"count":50844,"type":"SCALAR"},{"bufferView":6,"componentType":5126,"count":26068,"max":[1678.089599609375,1748.5025634765625,39.14104461669922],"min":[-1626.252685546875,-1706.784912109375,-292.4562072753906],"type":"VEC3"},{"bufferView":7,"componentType":5126,"count":26068,"type":"VEC3"},{"bufferView":8,"componentType":5126,"count":26068,"type":"VEC2"},{"bufferView":9,"componentType":5121,"count":26068,"normalized":true,"type":"VEC4"},{"bufferView":10,"componentType":5123,"count":26068,"normalized":true,"type":"VEC4"},{"bufferView":11,"componentType":5123,"count":39102,"type":"SCALAR"},{"bufferView":12,"componentType":5126,"count":10436,"max":[1681.651123046875,1751.8695068359375,40.08140563964844],"min":[-1625.022705078125,-1707.032958984375,-306.0906677246094],"type":"VEC3"},{"bufferView":13,"componentType":5126,"count":10436,"type":"VEC3"},{"bufferView":14,"componentType":5126,"count":10436,"type":"VEC2"},{"bufferView":15,"componentType":5121,"count":10436,"normalized":true,"type":"VEC4"},{"bufferView":16,"componentType":5123,"count":10436,"normalized":true,"type":"VEC4"},{"bufferView":17,"componentType":5123,"count":15654,"type":"SCALAR"}],"bufferViews":[{"buffer":0,"byteLength":406752,"byteOffset":0,"target":34962},{"buffer":0,"byteLength":406752,"byteOffset":406752,"target":34962},{"buffer":0,"byteLength":271168,"byteOffset":813504,"target":34962},{"buffer":0,"byteLength":135584,"byteOffset":1084672,"target":34962},{"buffer":0,"byteLength":271168,"byteOffset":1220256,"target":34962},{"buffer":0,"byteLength":101688,"byteOffset":1491424,"target":34963},{"buffer":0,"byteLength":312816,"byteOffset":1593112,"target":34962},{"buffer":0,"byteLength":312816,"byteOffset":1905928,"target":34962},{"buffer":0,"byteLength":208544,"byteOffset":2218744,"target":34962},{"buffer":0,"byteLength":104272,"byteOffset":2427288,"target":34962},{"buffer":0,"byteLength":208544,"byteOffset":2531560,"target":34962},{"buffer":0,"byteLength":78204,"byteOffset":2740104,"target":34963},{"buffer":0,"byteLength":125232,"byteOffset":2818308,"target":34962},{"buffer":0,"byteLength":125232,"byteOffset":2943540,"target":34962},{"buffer":0,"byteLength":83488,"byteOffset":3068772,"target":34962},{"buffer":0,"byteLength":41744,"byteOffset":3152260,"target":34962},{"buffer":0,"byteLength":83488,"byteOffset":3194004,"target":34962},{"buffer":0,"byteLength":31308,"byteOffset":3277492,"target":34963}],"samplers":[{"magFilter":9729,"minFilter":9987}],"buffers":[{"byteLength":3308800,"uri":"meadow_SM_Env_Grass_Large_02.bin"}]}