{
	"asset":{
		"generator":"Khronos glTF Blender I/O v4.4.55",
		"version":"2.0"
	},
	"extensionsUsed":[
		"EXT_texture_webp"
	],
	"extensionsRequired":[
		"EXT_texture_webp"
	],
	"scene":0,
	"scenes":[
		{
			"name":"Scene",
			"nodes":[
				3
			]
		}
	],
	"nodes":[
		{
			"mesh":0,
			"name":"SM_Env_Grass_Tall_Clump_04_LOD0"
		},
		{
			"mesh":1,
			"name":"SM_Env_Grass_Tall_Clump_04_LOD1"
		},
		{
			"mesh":2,
			"name":"SM_Env_Grass_Tall_Clump_04_LOD2"
		},
		{
			"children":[
				0,
				1,
				2
			],
			"name":"SM_Env_Grass_Tall_Clump_04",
			"rotation":[
				0.7071068286895752,
				0,
				0,
				0.7071068286895752
			],
			"scale":[
				0.009999999776482582,
				0.009999999776482582,
				0.009999999776482582
			]
		}
	],
	"materials":[
		{
			"alphaMode":"BLEND",
			"doubleSided":true,
			"name":"grassSHD17",
			"pbrMetallicRoughness":{
				"baseColorTexture":{
					"index":0
				},
				"metallicFactor":0
			}
		}
	],
	"meshes":[
		{
			"name":"Mesh",
			"primitives":[
				{
					"attributes":{
						"POSITION":0,
						"NORMAL":1,
						"TEXCOORD_0":2,
						"COLOR_0":3,
						"COLOR_1":4
					},
					"indices":5,
					"material":0
				}
			]
		},
		{
			"name":"Mesh.001",
			"primitives":[
				{
					"attributes":{
						"POSITION":6,
						"NORMAL":7,
						"TEXCOORD_0":8,
						"COLOR_0":9,
						"COLOR_1":10
					},
					"indices":11,
					"material":0
				}
			]
		},
		{
			"name":"Mesh.002",
			"primitives":[
				{
					"attributes":{
						"POSITION":12,
						"NORMAL":13,
						"TEXCOORD_0":14,
						"COLOR_0":15,
						"COLOR_1":16
					},
					"indices":17,
					"material":0
				}
			]
		}
	],
	"textures":[
		{
			"extensions":{
				"EXT_texture_webp":{
					"source":0
				}
			},
			"sampler":0
		}
	],
	"images":[
		{
			"mimeType":"image/webp",
			"name":"Grass_01",
			"uri":"Grass_01.webp"
		}
	],
	"accessors":[
		{
			"bufferView":0,
			"componentType":5126,
			"count":364,
			"max":[
				203.300537109375,
				235.80535888671875,
				5.507890701293945
			],
			"min":[
				-209.76864624023438,
				-226.09927368164062,
				-93.86012268066406
			],
			"type":"VEC3"
		},
		{
			"bufferView":1,
			"componentType":5126,
			"count":364,
			"type":"VEC3"
		},
		{
			"bufferView":2,
			"componentType":5126,
			"count":364,
			"type":"VEC2"
		},
		{
			"bufferView":3,
			"componentType":5121,
			"count":364,
			"normalized":true,
			"type":"VEC4"
		},
		{
			"bufferView":4,
			"componentType":5123,
			"count":364,
			"normalized":true,
			"type":"VEC4"
		},
		{
			"bufferView":5,
			"componentType":5123,
			"count":546,
			"type":"SCALAR"
		},
		{
			"bufferView":6,
			"componentType":5126,
			"count":280,
			"max":[
				212.73858642578125,
				222.75257873535156,
				5.507890701293945
			],
			"min":[
				-213.28652954101562,
				-230.11508178710938,
				-86.33283996582031
			],
			"type":"VEC3"
		},
		{
			"bufferView":7,
			"componentType":5126,
			"count":280,
			"type":"VEC3"
		},
		{
			"bufferView":8,
			"componentType":5126,
			"count":280,
			"type":"VEC2"
		},
		{
			"bufferView":9,
			"componentType":5121,
			"count":280,
			"normalized":true,
			"type":"VEC4"
		},
		{
			"bufferView":10,
			"componentType":5123,
			"count":280,
			"normalized":true,
			"type":"VEC4"
		},
		{
			"bufferView":11,
			"componentType":5123,
			"count":420,
			"type":"SCALAR"
		},
		{
			"bufferView":12,
			"componentType":5126,
			"count":112,
			"max":[
				211.38600158691406,
				226.6450958251953,
				2.686995267868042
			],
			"min":[
				-215.72445678710938,
				-232.38380432128906,
				-97.31300354003906
			],
			"type":"VEC3"
		},
		{
			"bufferView":13,
			"componentType":5126,
			"count":112,
			"type":"VEC3"
		},
		{
			"bufferView":14,
			"componentType":5126,
			"count":112,
			"type":"VEC2"
		},
		{
			"bufferView":15,
			"componentType":5121,
			"count":112,
			"normalized":true,
			"type":"VEC4"
		},
		{
			"bufferView":16,
			"componentType":5123,
			"count":112,
			"normalized":true,
			"type":"VEC4"
		},
		{
			"bufferView":17,
			"componentType":5123,
			"count":168,
			"type":"SCALAR"
		}
	],
	"bufferViews":[
		{
			"buffer":0,
			"byteLength":4368,
			"byteOffset":0,
			"target":34962
		},
		{
			"buffer":0,
			"byteLength":4368,
			"byteOffset":4368,
			"target":34962
		},
		{
			"buffer":0,
			"byteLength":2912,
			"byteOffset":8736,
			"target":34962
		},
		{
			"buffer":0,
			"byteLength":1456,
			"byteOffset":11648,
			"target":34962
		},
		{
			"buffer":0,
			"byteLength":2912,
			"byteOffset":13104,
			"target":34962
		},
		{
			"buffer":0,
			"byteLength":1092,
			"byteOffset":16016,
			"target":34963
		},
		{
			"buffer":0,
			"byteLength":3360,
			"byteOffset":17108,
			"target":34962
		},
		{
			"buffer":0,
			"byteLength":3360,
			"byteOffset":20468,
			"target":34962
		},
		{
			"buffer":0,
			"byteLength":2240,
			"byteOffset":23828,
			"target":34962
		},
		{
			"buffer":0,
			"byteLength":1120,
			"byteOffset":26068,
			"target":34962
		},
		{
			"buffer":0,
			"byteLength":2240,
			"byteOffset":27188,
			"target":34962
		},
		{
			"buffer":0,
			"byteLength":840,
			"byteOffset":29428,
			"target":34963
		},
		{
			"buffer":0,
			"byteLength":1344,
			"byteOffset":30268,
			"target":34962
		},
		{
			"buffer":0,
			"byteLength":1344,
			"byteOffset":31612,
			"target":34962
		},
		{
			"buffer":0,
			"byteLength":896,
			"byteOffset":32956,
			"target":34962
		},
		{
			"buffer":0,
			"byteLength":448,
			"byteOffset":33852,
			"target":34962
		},
		{
			"buffer":0,
			"byteLength":896,
			"byteOffset":34300,
			"target":34962
		},
		{
			"buffer":0,
			"byteLength":336,
			"byteOffset":35196,
			"target":34963
		}
	],
	"samplers":[
		{
			"magFilter":9729,
			"minFilter":9987
		}
	],
	"buffers":[
		{
			"byteLength":35532,
			"uri":"meadow_SM_Env_Grass_Tall_Clump_04.bin"
		}
	]
}
