{
	"asset":{
		"generator":"Khronos glTF Blender I/O v4.4.55",
		"version":"2.0"
	},
	"extensionsUsed":[
		"EXT_texture_webp"
	],
	"extensionsRequired":[
		"EXT_texture_webp"
	],
	"scene":0,
	"scenes":[
		{
			"name":"Scene",
			"nodes":[
				3
			]
		}
	],
	"nodes":[
		{
			"mesh":0,
			"name":"SM_Env_Wildflowers_02_LOD0"
		},
		{
			"mesh":1,
			"name":"SM_Env_Wildflowers_02_LOD1"
		},
		{
			"mesh":2,
			"name":"SM_Env_Wildflowers_02_LOD2"
		},
		{
			"children":[
				0,
				1,
				2
			],
			"name":"SM_Env_Wildflowers_02",
			"rotation":[
				0.7071068286895752,
				0,
				0,
				0.7071068286895752
			],
			"scale":[
				0.009999999776482582,
				0.009999999776482582,
				0.009999999776482582
			]
		}
	],
	"materials":[
		{
			"doubleSided":true,
			"name":"pasted__lambert2001",
			"pbrMetallicRoughness":{
				"baseColorTexture":{
					"index":0
				},
				"metallicFactor":0
			}
		},
		{
			"alphaMode":"BLEND",
			"doubleSided":true,
			"name":"pasted__grassSHD3",
			"pbrMetallicRoughness":{
				"baseColorTexture":{
					"index":1
				},
				"metallicFactor":0
			}
		}
	],
	"meshes":[
		{
			"name":"Mesh",
			"primitives":[
				{
					"attributes":{
						"POSITION":0,
						"NORMAL":1,
						"TEXCOORD_0":2,
						"COLOR_0":3,
						"COLOR_1":4
					},
					"indices":5,
					"material":0
				}
			]
		},
		{
			"name":"Mesh.001",
			"primitives":[
				{
					"attributes":{
						"POSITION":6,
						"NORMAL":7,
						"TEXCOORD_0":8,
						"COLOR_0":9,
						"COLOR_1":10
					},
					"indices":11,
					"material":0
				}
			]
		},
		{
			"name":"Mesh.002",
			"primitives":[
				{
					"attributes":{
						"POSITION":12,
						"NORMAL":13,
						"TEXCOORD_0":14,
						"COLOR_0":15,
						"COLOR_1":16
					},
					"indices":17,
					"material":1
				}
			]
		}
	],
	"textures":[
		{
			"extensions":{
				"EXT_texture_webp":{
					"source":0
				}
			},
			"sampler":0
		},
		{
			"extensions":{
				"EXT_texture_webp":{
					"source":1
				}
			},
			"sampler":0
		}
	],
	"images":[
		{
			"mimeType":"image/webp",
			"name":"PolygonNatureBiomes_Meadow_Texture_01",
			"uri":"PolygonNatureBiomes_Meadow_Texture_01.webp"
		},
		{
			"mimeType":"image/webp",
			"name":"Grass_01",
			"uri":"Grass_01.webp"
		}
	],
	"accessors":[
		{
			"bufferView":0,
			"componentType":5126,
			"count":3304,
			"max":[
				42.019344329833984,
				38.343082427978516,
				5.75851583480835
			],
			"min":[
				-31.617115020751953,
				-33.6922721862793,
				-57.4924430847168
			],
			"type":"VEC3"
		},
		{
			"bufferView":1,
			"componentType":5126,
			"count":3304,
			"type":"VEC3"
		},
		{
			"bufferView":2,
			"componentType":5126,
			"count":3304,
			"type":"VEC2"
		},
		{
			"bufferView":3,
			"componentType":5121,
			"count":3304,
			"normalized":true,
			"type":"VEC4"
		},
		{
			"bufferView":4,
			"componentType":5123,
			"count":3304,
			"normalized":true,
			"type":"VEC4"
		},
		{
			"bufferView":5,
			"componentType":5123,
			"count":6816,
			"type":"SCALAR"
		},
		{
			"bufferView":6,
			"componentType":5126,
			"count":1515,
			"max":[
				42.019344329833984,
				38.343082427978516,
				5.75851583480835
			],
			"min":[
				-31.617115020751953,
				-33.6922721862793,
				-57.63141632080078
			],
			"type":"VEC3"
		},
		{
			"bufferView":7,
			"componentType":5126,
			"count":1515,
			"type":"VEC3"
		},
		{
			"bufferView":8,
			"componentType":5126,
			"count":1515,
			"type":"VEC2"
		},
		{
			"bufferView":9,
			"componentType":5121,
			"count":1515,
			"normalized":true,
			"type":"VEC4"
		},
		{
			"bufferView":10,
			"componentType":5123,
			"count":1515,
			"normalized":true,
			"type":"VEC4"
		},
		{
			"bufferView":11,
			"componentType":5123,
			"count":2859,
			"type":"SCALAR"
		},
		{
			"bufferView":12,
			"componentType":5126,
			"count":12,
			"max":[
				42.58213806152344,
				36.74930953979492,
				6.7528886795043945
			],
			"min":[
				-36.394248962402344,
				-23.005718231201172,
				-63.52851486206055
			],
			"type":"VEC3"
		},
		{
			"bufferView":13,
			"componentType":5126,
			"count":12,
			"type":"VEC3"
		},
		{
			"bufferView":14,
			"componentType":5126,
			"count":12,
			"type":"VEC2"
		},
		{
			"bufferView":15,
			"componentType":5121,
			"count":12,
			"normalized":true,
			"type":"VEC4"
		},
		{
			"bufferView":16,
			"componentType":5123,
			"count":12,
			"normalized":true,
			"type":"VEC4"
		},
		{
			"bufferView":17,
			"componentType":5123,
			"count":18,
			"type":"SCALAR"
		}
	],
	"bufferViews":[
		{
			"buffer":0,
			"byteLength":39648,
			"byteOffset":0,
			"target":34962
		},
		{
			"buffer":0,
			"byteLength":39648,
			"byteOffset":39648,
			"target":34962
		},
		{
			"buffer":0,
			"byteLength":26432,
			"byteOffset":79296,
			"target":34962
		},
		{
			"buffer":0,
			"byteLength":13216,
			"byteOffset":105728,
			"target":34962
		},
		{
			"buffer":0,
			"byteLength":26432,
			"byteOffset":118944,
			"target":34962
		},
		{
			"buffer":0,
			"byteLength":13632,
			"byteOffset":145376,
			"target":34963
		},
		{
			"buffer":0,
			"byteLength":18180,
			"byteOffset":159008,
			"target":34962
		},
		{
			"buffer":0,
			"byteLength":18180,
			"byteOffset":177188,
			"target":34962
		},
		{
			"buffer":0,
			"byteLength":12120,
			"byteOffset":195368,
			"target":34962
		},
		{
			"buffer":0,
			"byteLength":6060,
			"byteOffset":207488,
			"target":34962
		},
		{
			"buffer":0,
			"byteLength":12120,
			"byteOffset":213548,
			"target":34962
		},
		{
			"buffer":0,
			"byteLength":5718,
			"byteOffset":225668,
			"target":34963
		},
		{
			"buffer":0,
			"byteLength":144,
			"byteOffset":231388,
			"target":34962
		},
		{
			"buffer":0,
			"byteLength":144,
			"byteOffset":231532,
			"target":34962
		},
		{
			"buffer":0,
			"byteLength":96,
			"byteOffset":231676,
			"target":34962
		},
		{
			"buffer":0,
			"byteLength":48,
			"byteOffset":231772,
			"target":34962
		},
		{
			"buffer":0,
			"byteLength":96,
			"byteOffset":231820,
			"target":34962
		},
		{
			"buffer":0,
			"byteLength":36,
			"byteOffset":231916,
			"target":34963
		}
	],
	"samplers":[
		{
			"magFilter":9729,
			"minFilter":9987
		}
	],
	"buffers":[
		{
			"byteLength":231952,
			"uri":"meadow_SM_Env_Wildflowers_02.bin"
		}
	]
}
