{
	"asset":{
		"generator":"Khronos glTF Blender I/O v4.4.55",
		"version":"2.0"
	},
	"scene":0,
	"scenes":[
		{
			"name":"Scene",
			"nodes":[
				0
			]
		}
	],
	"nodes":[
		{
			"mesh":0,
			"name":"SM_Prop_SciFiCable_02",
			"rotation":[
				0.7071068286895752,
				0,
				0,
				0.7071068286895752
			],
			"scale":[
				0.009999999776482582,
				0.009999999776482582,
				0.009999999776482582
			]
		}
	],
	"materials":[
		{
			"doubleSided":true,
			"name":"Explorer_MAT28",
			"pbrMetallicRoughness":{
				"metallicFactor":0
			}
		}
	],
	"meshes":[
		{
			"name":"Mesh",
			"primitives":[
				{
					"attributes":{
						"POSITION":0,
						"NORMAL":1,
						"TEXCOORD_0":2
					},
					"indices":3,
					"material":0
				}
			]
		}
	],
	"accessors":[
		{
			"bufferView":0,
			"componentType":5126,
			"count":1820,
			"max":[
				121.349609375,
				112.80990600585938,
				0
			],
			"min":[
				-121.349609375,
				-112.80990600585938,
				-49.53379821777344
			],
			"type":"VEC3"
		},
		{
			"bufferView":1,
			"componentType":5126,
			"count":1820,
			"type":"VEC3"
		},
		{
			"bufferView":2,
			"componentType":5126,
			"count":1820,
			"type":"VEC2"
		},
		{
			"bufferView":3,
			"componentType":5123,
			"count":3072,
			"type":"SCALAR"
		}
	],
	"bufferViews":[
		{
			"buffer":0,
			"byteLength":21840,
			"byteOffset":0,
			"target":34962
		},
		{
			"buffer":0,
			"byteLength":21840,
			"byteOffset":21840,
			"target":34962
		},
		{
			"buffer":0,
			"byteLength":14560,
			"byteOffset":43680,
			"target":34962
		},
		{
			"buffer":0,
			"byteLength":6144,
			"byteOffset":58240,
			"target":34963
		}
	],
	"buffers":[
		{
			"byteLength":64384,
			"uri":"meadow_SM_Prop_SciFiCable_02.bin"
		}
	]
}
