{
	"asset":{
		"generator":"Khronos glTF Blender I/O v4.4.55",
		"version":"2.0"
	},
	"scene":0,
	"scenes":[
		{
			"name":"Scene",
			"nodes":[
				0
			]
		}
	],
	"nodes":[
		{
			"mesh":0,
			"name":"SM_Prop_Camp_Tent_01",
			"rotation":[
				0.7071068286895752,
				0,
				0,
				0.7071068286895752
			],
			"scale":[
				0.009999999776482582,
				0.009999999776482582,
				0.009999999776482582
			]
		}
	],
	"materials":[
		{
			"doubleSided":true,
			"name":"Nature_Base_Mat11",
			"pbrMetallicRoughness":{
				"metallicFactor":0
			}
		}
	],
	"meshes":[
		{
			"name":"Mesh",
			"primitives":[
				{
					"attributes":{
						"POSITION":0,
						"NORMAL":1,
						"TEXCOORD_0":2
					},
					"indices":3,
					"material":0
				}
			]
		}
	],
	"accessors":[
		{
			"bufferView":0,
			"componentType":5126,
			"count":1530,
			"max":[
				99.98211669921875,
				133.8944091796875,
				6.874771595001221
			],
			"min":[
				-99.9820556640625,
				-133.8944091796875,
				-145.22119140625
			],
			"type":"VEC3"
		},
		{
			"bufferView":1,
			"componentType":5126,
			"count":1530,
			"type":"VEC3"
		},
		{
			"bufferView":2,
			"componentType":5126,
			"count":1530,
			"type":"VEC2"
		},
		{
			"bufferView":3,
			"componentType":5123,
			"count":2166,
			"type":"SCALAR"
		}
	],
	"bufferViews":[
		{
			"buffer":0,
			"byteLength":18360,
			"byteOffset":0,
			"target":34962
		},
		{
			"buffer":0,
			"byteLength":18360,
			"byteOffset":18360,
			"target":34962
		},
		{
			"buffer":0,
			"byteLength":12240,
			"byteOffset":36720,
			"target":34962
		},
		{
			"buffer":0,
			"byteLength":4332,
			"byteOffset":48960,
			"target":34963
		}
	],
	"buffers":[
		{
			"byteLength":53292,
			"uri":"meadow_SM_Prop_Camp_Tent_01.bin"
		}
	]
}
