{
	"asset":{
		"generator":"Khronos glTF Blender I/O v4.4.55",
		"version":"2.0"
	},
	"scene":0,
	"scenes":[
		{
			"name":"Scene",
			"nodes":[
				0
			]
		}
	],
	"nodes":[
		{
			"mesh":0,
			"name":"SM_Prop_Sword_Stone_01",
			"rotation":[
				0.7071068286895752,
				0,
				0,
				0.7071068286895752
			],
			"scale":[
				0.009999999776482582,
				0.009999999776482582,
				0.009999999776482582
			]
		}
	],
	"materials":[
		{
			"doubleSided":true,
			"name":"Explorer_MAT45",
			"pbrMetallicRoughness":{
				"metallicFactor":0
			}
		}
	],
	"meshes":[
		{
			"name":"Mesh",
			"primitives":[
				{
					"attributes":{
						"POSITION":0,
						"NORMAL":1,
						"TEXCOORD_0":2
					},
					"indices":3,
					"material":0
				}
			]
		}
	],
	"accessors":[
		{
			"bufferView":0,
			"componentType":5126,
			"count":1518,
			"max":[
				73.432373046875,
				83.8162841796875,
				0.0851898193359375
			],
			"min":[
				-109.68492126464844,
				-116.18147277832031,
				-145.21725463867188
			],
			"type":"VEC3"
		},
		{
			"bufferView":1,
			"componentType":5126,
			"count":1518,
			"type":"VEC3"
		},
		{
			"bufferView":2,
			"componentType":5126,
			"count":1518,
			"type":"VEC2"
		},
		{
			"bufferView":3,
			"componentType":5123,
			"count":1530,
			"type":"SCALAR"
		}
	],
	"bufferViews":[
		{
			"buffer":0,
			"byteLength":18216,
			"byteOffset":0,
			"target":34962
		},
		{
			"buffer":0,
			"byteLength":18216,
			"byteOffset":18216,
			"target":34962
		},
		{
			"buffer":0,
			"byteLength":12144,
			"byteOffset":36432,
			"target":34962
		},
		{
			"buffer":0,
			"byteLength":3060,
			"byteOffset":48576,
			"target":34963
		}
	],
	"buffers":[
		{
			"byteLength":51636,
			"uri":"meadow_SM_Prop_Sword_Stone_01.bin"
		}
	]
}
