{
	"asset":{
		"generator":"Khronos glTF Blender I/O v4.4.55",
		"version":"2.0"
	},
	"extensionsUsed":[
		"EXT_texture_webp"
	],
	"extensionsRequired":[
		"EXT_texture_webp"
	],
	"scene":0,
	"scenes":[
		{
			"name":"Scene",
			"nodes":[
				3
			]
		}
	],
	"nodes":[
		{
			"mesh":0,
			"name":"SM_Prop_Stonewall_Small_01_LOD0"
		},
		{
			"mesh":1,
			"name":"SM_Prop_Stonewall_Small_01_LOD1"
		},
		{
			"mesh":2,
			"name":"SM_Prop_Stonewall_Small_01_LOD2"
		},
		{
			"children":[
				0,
				1,
				2
			],
			"name":"SM_Prop_Stonewall_Small_01",
			"rotation":[
				0.7071068286895752,
				0,
				0,
				0.7071068286895752
			],
			"scale":[
				0.009999999776482582,
				0.009999999776482582,
				0.009999999776482582
			]
		}
	],
	"materials":[
		{
			"doubleSided":true,
			"name":"Nature31",
			"pbrMetallicRoughness":{
				"baseColorTexture":{
					"index":0
				},
				"metallicFactor":0
			}
		}
	],
	"meshes":[
		{
			"name":"Mesh.001",
			"primitives":[
				{
					"attributes":{
						"POSITION":0,
						"NORMAL":1,
						"TEXCOORD_0":2
					},
					"indices":3,
					"material":0
				}
			]
		},
		{
			"name":"Mesh",
			"primitives":[
				{
					"attributes":{
						"POSITION":4,
						"NORMAL":5,
						"TEXCOORD_0":6
					},
					"indices":7,
					"material":0
				}
			]
		},
		{
			"name":"Mesh.002",
			"primitives":[
				{
					"attributes":{
						"POSITION":8,
						"NORMAL":9,
						"TEXCOORD_0":10
					},
					"indices":11,
					"material":0
				}
			]
		}
	],
	"textures":[
		{
			"extensions":{
				"EXT_texture_webp":{
					"source":0
				}
			},
			"sampler":0
		}
	],
	"images":[
		{
			"mimeType":"image/webp",
			"name":"PolygonNatureBiomes_Meadow_Texture_01",
			"uri":"PolygonNatureBiomes_Meadow_Texture_01.webp"
		}
	],
	"accessors":[
		{
			"bufferView":0,
			"componentType":5126,
			"count":3978,
			"max":[
				19.43695068359375,
				37.91949462890625,
				7.713296890258789
			],
			"min":[
				-265.1993713378906,
				-38.227874755859375,
				-123.13739013671875
			],
			"type":"VEC3"
		},
		{
			"bufferView":1,
			"componentType":5126,
			"count":3978,
			"type":"VEC3"
		},
		{
			"bufferView":2,
			"componentType":5126,
			"count":3978,
			"type":"VEC2"
		},
		{
			"bufferView":3,
			"componentType":5123,
			"count":3978,
			"type":"SCALAR"
		},
		{
			"bufferView":4,
			"componentType":5126,
			"count":2530,
			"max":[
				16.624011993408203,
				37.373199462890625,
				6.514334201812744
			],
			"min":[
				-265.5543518066406,
				-33.88250732421875,
				-122.04026794433594
			],
			"type":"VEC3"
		},
		{
			"bufferView":5,
			"componentType":5126,
			"count":2530,
			"type":"VEC3"
		},
		{
			"bufferView":6,
			"componentType":5126,
			"count":2530,
			"type":"VEC2"
		},
		{
			"bufferView":7,
			"componentType":5123,
			"count":2532,
			"type":"SCALAR"
		},
		{
			"bufferView":8,
			"componentType":5126,
			"count":1284,
			"max":[
				12.732937812805176,
				37.373199462890625,
				6.514334201812744
			],
			"min":[
				-265.55426025390625,
				-32.020599365234375,
				-120.14851379394531
			],
			"type":"VEC3"
		},
		{
			"bufferView":9,
			"componentType":5126,
			"count":1284,
			"type":"VEC3"
		},
		{
			"bufferView":10,
			"componentType":5126,
			"count":1284,
			"type":"VEC2"
		},
		{
			"bufferView":11,
			"componentType":5123,
			"count":1284,
			"type":"SCALAR"
		}
	],
	"bufferViews":[
		{
			"buffer":0,
			"byteLength":47736,
			"byteOffset":0,
			"target":34962
		},
		{
			"buffer":0,
			"byteLength":47736,
			"byteOffset":47736,
			"target":34962
		},
		{
			"buffer":0,
			"byteLength":31824,
			"byteOffset":95472,
			"target":34962
		},
		{
			"buffer":0,
			"byteLength":7956,
			"byteOffset":127296,
			"target":34963
		},
		{
			"buffer":0,
			"byteLength":30360,
			"byteOffset":135252,
			"target":34962
		},
		{
			"buffer":0,
			"byteLength":30360,
			"byteOffset":165612,
			"target":34962
		},
		{
			"buffer":0,
			"byteLength":20240,
			"byteOffset":195972,
			"target":34962
		},
		{
			"buffer":0,
			"byteLength":5064,
			"byteOffset":216212,
			"target":34963
		},
		{
			"buffer":0,
			"byteLength":15408,
			"byteOffset":221276,
			"target":34962
		},
		{
			"buffer":0,
			"byteLength":15408,
			"byteOffset":236684,
			"target":34962
		},
		{
			"buffer":0,
			"byteLength":10272,
			"byteOffset":252092,
			"target":34962
		},
		{
			"buffer":0,
			"byteLength":2568,
			"byteOffset":262364,
			"target":34963
		}
	],
	"samplers":[
		{
			"magFilter":9729,
			"minFilter":9987
		}
	],
	"buffers":[
		{
			"byteLength":264932,
			"uri":"meadow_SM_Prop_Stonewall_Small_01.bin"
		}
	]
}
