{
	"asset":{
		"generator":"Khronos glTF Blender I/O v4.4.55",
		"version":"2.0"
	},
	"extensionsUsed":[
		"EXT_texture_webp"
	],
	"extensionsRequired":[
		"EXT_texture_webp"
	],
	"scene":0,
	"scenes":[
		{
			"name":"Scene",
			"nodes":[
				1
			]
		}
	],
	"nodes":[
		{
			"mesh":0,
			"name":"SM_Bld_Windmill_01_Blades_01"
		},
		{
			"children":[
				0
			],
			"mesh":1,
			"name":"SM_Bld_Windmill_01",
			"rotation":[
				0.7071068286895752,
				0,
				0,
				0.7071068286895752
			],
			"scale":[
				0.009999999776482582,
				0.009999999776482582,
				0.009999999776482582
			]
		}
	],
	"materials":[
		{
			"doubleSided":true,
			"name":"Explorer_MAT2",
			"pbrMetallicRoughness":{
				"baseColorTexture":{
					"index":0
				},
				"metallicFactor":0
			}
		}
	],
	"meshes":[
		{
			"name":"Mesh.001",
			"primitives":[
				{
					"attributes":{
						"POSITION":0,
						"NORMAL":1,
						"TEXCOORD_0":2
					},
					"indices":3,
					"material":0
				}
			]
		},
		{
			"name":"Mesh",
			"primitives":[
				{
					"attributes":{
						"POSITION":4,
						"NORMAL":5,
						"TEXCOORD_0":6
					},
					"indices":7,
					"material":0
				}
			]
		}
	],
	"textures":[
		{
			"extensions":{
				"EXT_texture_webp":{
					"source":0
				}
			},
			"sampler":0
		}
	],
	"images":[
		{
			"mimeType":"image/webp",
			"name":"PolygonNatureBiomes_Meadow_Texture_01",
			"uri":"PolygonNatureBiomes_Meadow_Texture_01.webp"
		}
	],
	"accessors":[
		{
			"bufferView":0,
			"componentType":5126,
			"count":5419,
			"max":[
				472.31231689453125,
				308.7227478027344,
				-139.01901245117188
			],
			"min":[
				-475.3641357421875,
				139.92990112304688,
				-1097.7725830078125
			],
			"type":"VEC3"
		},
		{
			"bufferView":1,
			"componentType":5126,
			"count":5419,
			"type":"VEC3"
		},
		{
			"bufferView":2,
			"componentType":5126,
			"count":5419,
			"type":"VEC2"
		},
		{
			"bufferView":3,
			"componentType":5123,
			"count":8472,
			"type":"SCALAR"
		},
		{
			"bufferView":4,
			"componentType":5126,
			"count":12119,
			"max":[
				285.8841552734375,
				213.25137329101562,
				197.707275390625
			],
			"min":[
				-287.9869384765625,
				-470.42974853515625,
				-831.4907836914062
			],
			"type":"VEC3"
		},
		{
			"bufferView":5,
			"componentType":5126,
			"count":12119,
			"type":"VEC3"
		},
		{
			"bufferView":6,
			"componentType":5126,
			"count":12119,
			"type":"VEC2"
		},
		{
			"bufferView":7,
			"componentType":5123,
			"count":18285,
			"type":"SCALAR"
		}
	],
	"bufferViews":[
		{
			"buffer":0,
			"byteLength":65028,
			"byteOffset":0,
			"target":34962
		},
		{
			"buffer":0,
			"byteLength":65028,
			"byteOffset":65028,
			"target":34962
		},
		{
			"buffer":0,
			"byteLength":43352,
			"byteOffset":130056,
			"target":34962
		},
		{
			"buffer":0,
			"byteLength":16944,
			"byteOffset":173408,
			"target":34963
		},
		{
			"buffer":0,
			"byteLength":145428,
			"byteOffset":190352,
			"target":34962
		},
		{
			"buffer":0,
			"byteLength":145428,
			"byteOffset":335780,
			"target":34962
		},
		{
			"buffer":0,
			"byteLength":96952,
			"byteOffset":481208,
			"target":34962
		},
		{
			"buffer":0,
			"byteLength":36570,
			"byteOffset":578160,
			"target":34963
		}
	],
	"samplers":[
		{
			"magFilter":9729,
			"minFilter":9987
		}
	],
	"buffers":[
		{
			"byteLength":614732,
			"uri":"meadow_SM_Bld_Windmill_01.bin"
		}
	]
}
