{
	"asset":{
		"generator":"Khronos glTF Blender I/O v4.4.55",
		"version":"2.0"
	},
	"extensionsUsed":[
		"EXT_texture_webp"
	],
	"extensionsRequired":[
		"EXT_texture_webp"
	],
	"scene":0,
	"scenes":[
		{
			"name":"Scene",
			"nodes":[
				0
			]
		}
	],
	"nodes":[
		{
			"mesh":0,
			"name":"SM_Prop_Kite_03",
			"rotation":[
				0.7071068286895752,
				0,
				0,
				0.7071068286895752
			],
			"scale":[
				0.009999999776482582,
				0.009999999776482582,
				0.009999999776482582
			]
		}
	],
	"materials":[
		{
			"doubleSided":true,
			"name":"NatureSHD3",
			"pbrMetallicRoughness":{
				"baseColorTexture":{
					"index":0
				},
				"metallicFactor":0
			}
		}
	],
	"meshes":[
		{
			"name":"Mesh",
			"primitives":[
				{
					"attributes":{
						"POSITION":0,
						"NORMAL":1,
						"TEXCOORD_0":2,
						"COLOR_0":3,
						"COLOR_1":4
					},
					"indices":5,
					"material":0
				}
			]
		}
	],
	"textures":[
		{
			"extensions":{
				"EXT_texture_webp":{
					"source":0
				}
			},
			"sampler":0
		}
	],
	"images":[
		{
			"mimeType":"image/webp",
			"name":"PolygonNatureBiomes_Meadow_Texture_01",
			"uri":"PolygonNatureBiomes_Meadow_Texture_01.webp"
		}
	],
	"accessors":[
		{
			"bufferView":0,
			"componentType":5126,
			"count":1583,
			"max":[
				123.38441467285156,
				38.27533721923828,
				0
			],
			"min":[
				-123.38441467285156,
				-73.34818267822266,
				-1523.74267578125
			],
			"type":"VEC3"
		},
		{
			"bufferView":1,
			"componentType":5126,
			"count":1583,
			"type":"VEC3"
		},
		{
			"bufferView":2,
			"componentType":5126,
			"count":1583,
			"type":"VEC2"
		},
		{
			"bufferView":3,
			"componentType":5121,
			"count":1583,
			"normalized":true,
			"type":"VEC4"
		},
		{
			"bufferView":4,
			"componentType":5123,
			"count":1583,
			"normalized":true,
			"type":"VEC4"
		},
		{
			"bufferView":5,
			"componentType":5123,
			"count":2262,
			"type":"SCALAR"
		}
	],
	"bufferViews":[
		{
			"buffer":0,
			"byteLength":18996,
			"byteOffset":0,
			"target":34962
		},
		{
			"buffer":0,
			"byteLength":18996,
			"byteOffset":18996,
			"target":34962
		},
		{
			"buffer":0,
			"byteLength":12664,
			"byteOffset":37992,
			"target":34962
		},
		{
			"buffer":0,
			"byteLength":6332,
			"byteOffset":50656,
			"target":34962
		},
		{
			"buffer":0,
			"byteLength":12664,
			"byteOffset":56988,
			"target":34962
		},
		{
			"buffer":0,
			"byteLength":4524,
			"byteOffset":69652,
			"target":34963
		}
	],
	"samplers":[
		{
			"magFilter":9729,
			"minFilter":9987
		}
	],
	"buffers":[
		{
			"byteLength":74176,
			"uri":"meadow_SM_Prop_Kite_03.bin"
		}
	]
}
