{
	"asset":{
		"generator":"Khronos glTF Blender I/O v4.4.55",
		"version":"2.0"
	},
	"scene":0,
	"scenes":[
		{
			"name":"Scene",
			"nodes":[
				0
			]
		}
	],
	"nodes":[
		{
			"mesh":0,
			"name":"SM_Env_Rock_01",
			"rotation":[
				0.7071068286895752,
				0,
				0,
				0.7071068286895752
			],
			"scale":[
				0.009999999776482582,
				0.009999999776482582,
				0.009999999776482582
			]
		}
	],
	"materials":[
		{
			"doubleSided":true,
			"name":"Nature5",
			"pbrMetallicRoughness":{
				"metallicFactor":0
			}
		}
	],
	"meshes":[
		{
			"name":"Mesh",
			"primitives":[
				{
					"attributes":{
						"POSITION":0,
						"NORMAL":1,
						"TEXCOORD_0":2
					},
					"indices":3,
					"material":0
				}
			]
		}
	],
	"accessors":[
		{
			"bufferView":0,
			"componentType":5126,
			"count":571,
			"max":[
				108.130859375,
				82.0712890625,
				5.9764299392700195
			],
			"min":[
				-117.5498046875,
				-90.7459716796875,
				-98.01853942871094
			],
			"type":"VEC3"
		},
		{
			"bufferView":1,
			"componentType":5126,
			"count":571,
			"type":"VEC3"
		},
		{
			"bufferView":2,
			"componentType":5126,
			"count":571,
			"type":"VEC2"
		},
		{
			"bufferView":3,
			"componentType":5123,
			"count":588,
			"type":"SCALAR"
		}
	],
	"bufferViews":[
		{
			"buffer":0,
			"byteLength":6852,
			"byteOffset":0,
			"target":34962
		},
		{
			"buffer":0,
			"byteLength":6852,
			"byteOffset":6852,
			"target":34962
		},
		{
			"buffer":0,
			"byteLength":4568,
			"byteOffset":13704,
			"target":34962
		},
		{
			"buffer":0,
			"byteLength":1176,
			"byteOffset":18272,
			"target":34963
		}
	],
	"buffers":[
		{
			"byteLength":19448,
			"uri":"meadow_SM_Env_Rock_01.bin"
		}
	]
}
