{
	"asset":{
		"generator":"Khronos glTF Blender I/O v4.4.55",
		"version":"2.0"
	},
	"scene":0,
	"scenes":[
		{
			"name":"Scene",
			"nodes":[
				7
			]
		}
	],
	"nodes":[
		{
			"mesh":0,
			"name":"SM_Env_Tree_Birch_01_Branches_LOD0"
		},
		{
			"mesh":1,
			"name":"SM_Env_Tree_Birch_01_Branches_LOD1"
		},
		{
			"mesh":2,
			"name":"SM_Env_Tree_Birch_01_Branches_LOD2"
		},
		{
			"mesh":3,
			"name":"SM_Env_Tree_Birch_01_LOD0"
		},
		{
			"mesh":4,
			"name":"SM_Env_Tree_Birch_01_LOD1"
		},
		{
			"mesh":5,
			"name":"SM_Env_Tree_Birch_01_LOD2"
		},
		{
			"mesh":6,
			"name":"SM_Env_Tree_Birch_01_LOD3"
		},
		{
			"children":[
				0,
				1,
				2,
				3,
				4,
				5,
				6
			],
			"name":"SM_Env_Tree_Birch_01",
			"rotation":[
				0.7071068286895752,
				0,
				0,
				0.7071068286895752
			],
			"scale":[
				0.009999999776482582,
				0.009999999776482582,
				0.009999999776482582
			]
		}
	],
	"materials":[
		{
			"doubleSided":true,
			"name":"lambert2051",
			"pbrMetallicRoughness":{
				"baseColorFactor":[
					0.5,
					0.5,
					0.5,
					1
				],
				"metallicFactor":0
			}
		}
	],
	"meshes":[
		{
			"name":"Mesh",
			"primitives":[
				{
					"attributes":{
						"POSITION":0,
						"NORMAL":1,
						"TEXCOORD_0":2,
						"COLOR_0":3,
						"COLOR_1":4
					},
					"indices":5,
					"material":0
				}
			]
		},
		{
			"name":"Mesh.001",
			"primitives":[
				{
					"attributes":{
						"POSITION":6,
						"NORMAL":7,
						"TEXCOORD_0":8,
						"COLOR_0":9,
						"COLOR_1":10
					},
					"indices":11,
					"material":0
				}
			]
		},
		{
			"name":"Mesh.002",
			"primitives":[
				{
					"attributes":{
						"POSITION":12,
						"NORMAL":13,
						"TEXCOORD_0":14,
						"COLOR_0":15,
						"COLOR_1":16
					},
					"indices":17,
					"material":0
				}
			]
		},
		{
			"name":"Mesh.003",
			"primitives":[
				{
					"attributes":{
						"POSITION":18,
						"NORMAL":19,
						"TEXCOORD_0":20,
						"COLOR_0":21,
						"COLOR_1":22
					},
					"indices":23,
					"material":0
				}
			]
		},
		{
			"name":"Mesh.004",
			"primitives":[
				{
					"attributes":{
						"POSITION":24,
						"NORMAL":25,
						"TEXCOORD_0":26,
						"COLOR_0":27,
						"COLOR_1":28
					},
					"indices":29,
					"material":0
				}
			]
		},
		{
			"name":"Mesh.005",
			"primitives":[
				{
					"attributes":{
						"POSITION":30,
						"NORMAL":31,
						"TEXCOORD_0":32,
						"COLOR_0":33,
						"COLOR_1":34
					},
					"indices":35,
					"material":0
				}
			]
		},
		{
			"name":"Mesh.006",
			"primitives":[
				{
					"attributes":{
						"POSITION":36,
						"NORMAL":37,
						"TEXCOORD_0":38,
						"COLOR_0":39,
						"COLOR_1":40
					},
					"indices":41,
					"material":0
				}
			]
		}
	],
	"accessors":[
		{
			"bufferView":0,
			"componentType":5126,
			"count":1967,
			"max":[
				179.042236328125,
				203.654052734375,
				-299.6009826660156
			],
			"min":[
				-191.9320068359375,
				-217.5994873046875,
				-799.5990600585938
			],
			"type":"VEC3"
		},
		{
			"bufferView":1,
			"componentType":5126,
			"count":1967,
			"type":"VEC3"
		},
		{
			"bufferView":2,
			"componentType":5126,
			"count":1967,
			"type":"VEC2"
		},
		{
			"bufferView":3,
			"componentType":5121,
			"count":1967,
			"normalized":true,
			"type":"VEC4"
		},
		{
			"bufferView":4,
			"componentType":5123,
			"count":1967,
			"normalized":true,
			"type":"VEC4"
		},
		{
			"bufferView":5,
			"componentType":5123,
			"count":3078,
			"type":"SCALAR"
		},
		{
			"bufferView":6,
			"componentType":5126,
			"count":243,
			"max":[
				179.042236328125,
				203.654052734375,
				-300.2413330078125
			],
			"min":[
				-191.9320068359375,
				-217.5994873046875,
				-799.5990600585938
			],
			"type":"VEC3"
		},
		{
			"bufferView":7,
			"componentType":5126,
			"count":243,
			"type":"VEC3"
		},
		{
			"bufferView":8,
			"componentType":5126,
			"count":243,
			"type":"VEC2"
		},
		{
			"bufferView":9,
			"componentType":5121,
			"count":243,
			"normalized":true,
			"type":"VEC4"
		},
		{
			"bufferView":10,
			"componentType":5123,
			"count":243,
			"normalized":true,
			"type":"VEC4"
		},
		{
			"bufferView":11,
			"componentType":5123,
			"count":810,
			"type":"SCALAR"
		},
		{
			"bufferView":12,
			"componentType":5126,
			"count":162,
			"max":[
				179.042236328125,
				203.654052734375,
				-300.2413330078125
			],
			"min":[
				-191.9320068359375,
				-217.5994873046875,
				-799.5990600585938
			],
			"type":"VEC3"
		},
		{
			"bufferView":13,
			"componentType":5126,
			"count":162,
			"type":"VEC3"
		},
		{
			"bufferView":14,
			"componentType":5126,
			"count":162,
			"type":"VEC2"
		},
		{
			"bufferView":15,
			"componentType":5121,
			"count":162,
			"normalized":true,
			"type":"VEC4"
		},
		{
			"bufferView":16,
			"componentType":5123,
			"count":162,
			"normalized":true,
			"type":"VEC4"
		},
		{
			"bufferView":17,
			"componentType":5123,
			"count":324,
			"type":"SCALAR"
		},
		{
			"bufferView":18,
			"componentType":5126,
			"count":20362,
			"max":[
				230.0933837890625,
				241.8884735107422,
				100.65890502929688
			],
			"min":[
				-241.54611206054688,
				-252.69735717773438,
				-923.1220703125
			],
			"type":"VEC3"
		},
		{
			"bufferView":19,
			"componentType":5126,
			"count":20362,
			"type":"VEC3"
		},
		{
			"bufferView":20,
			"componentType":5126,
			"count":20362,
			"type":"VEC2"
		},
		{
			"bufferView":21,
			"componentType":5121,
			"count":20362,
			"normalized":true,
			"type":"VEC4"
		},
		{
			"bufferView":22,
			"componentType":5123,
			"count":20362,
			"normalized":true,
			"type":"VEC4"
		},
		{
			"bufferView":23,
			"componentType":5123,
			"count":30408,
			"type":"SCALAR"
		},
		{
			"bufferView":24,
			"componentType":5126,
			"count":10981,
			"max":[
				228.21768188476562,
				235.2890167236328,
				100.74240112304688
			],
			"min":[
				-231.198974609375,
				-252.92849731445312,
				-920.2606811523438
			],
			"type":"VEC3"
		},
		{
			"bufferView":25,
			"componentType":5126,
			"count":10981,
			"type":"VEC3"
		},
		{
			"bufferView":26,
			"componentType":5126,
			"count":10981,
			"type":"VEC2"
		},
		{
			"bufferView":27,
			"componentType":5121,
			"count":10981,
			"normalized":true,
			"type":"VEC4"
		},
		{
			"bufferView":28,
			"componentType":5123,
			"count":10981,
			"normalized":true,
			"type":"VEC4"
		},
		{
			"bufferView":29,
			"componentType":5123,
			"count":16320,
			"type":"SCALAR"
		},
		{
			"bufferView":30,
			"componentType":5126,
			"count":5751,
			"max":[
				234.11358642578125,
				229.2892608642578,
				99.80364990234375
			],
			"min":[
				-227.09019470214844,
				-253.53717041015625,
				-924.1098022460938
			],
			"type":"VEC3"
		},
		{
			"bufferView":31,
			"componentType":5126,
			"count":5751,
			"type":"VEC3"
		},
		{
			"bufferView":32,
			"componentType":5126,
			"count":5751,
			"type":"VEC2"
		},
		{
			"bufferView":33,
			"componentType":5121,
			"count":5751,
			"normalized":true,
			"type":"VEC4"
		},
		{
			"bufferView":34,
			"componentType":5123,
			"count":5751,
			"normalized":true,
			"type":"VEC4"
		},
		{
			"bufferView":35,
			"componentType":5123,
			"count":8352,
			"type":"SCALAR"
		},
		{
			"bufferView":36,
			"componentType":5126,
			"count":20,
			"max":[
				247.2474365234375,
				257.27276611328125,
				106.7734146118164
			],
			"min":[
				-259.8148193359375,
				-266.0779724121094,
				-949.5980224609375
			],
			"type":"VEC3"
		},
		{
			"bufferView":37,
			"componentType":5126,
			"count":20,
			"type":"VEC3"
		},
		{
			"bufferView":38,
			"componentType":5126,
			"count":20,
			"type":"VEC2"
		},
		{
			"bufferView":39,
			"componentType":5121,
			"count":20,
			"normalized":true,
			"type":"VEC4"
		},
		{
			"bufferView":40,
			"componentType":5123,
			"count":20,
			"normalized":true,
			"type":"VEC4"
		},
		{
			"bufferView":41,
			"componentType":5123,
			"count":36,
			"type":"SCALAR"
		}
	],
	"bufferViews":[
		{
			"buffer":0,
			"byteLength":23604,
			"byteOffset":0,
			"target":34962
		},
		{
			"buffer":0,
			"byteLength":23604,
			"byteOffset":23604,
			"target":34962
		},
		{
			"buffer":0,
			"byteLength":15736,
			"byteOffset":47208,
			"target":34962
		},
		{
			"buffer":0,
			"byteLength":7868,
			"byteOffset":62944,
			"target":34962
		},
		{
			"buffer":0,
			"byteLength":15736,
			"byteOffset":70812,
			"target":34962
		},
		{
			"buffer":0,
			"byteLength":6156,
			"byteOffset":86548,
			"target":34963
		},
		{
			"buffer":0,
			"byteLength":2916,
			"byteOffset":92704,
			"target":34962
		},
		{
			"buffer":0,
			"byteLength":2916,
			"byteOffset":95620,
			"target":34962
		},
		{
			"buffer":0,
			"byteLength":1944,
			"byteOffset":98536,
			"target":34962
		},
		{
			"buffer":0,
			"byteLength":972,
			"byteOffset":100480,
			"target":34962
		},
		{
			"buffer":0,
			"byteLength":1944,
			"byteOffset":101452,
			"target":34962
		},
		{
			"buffer":0,
			"byteLength":1620,
			"byteOffset":103396,
			"target":34963
		},
		{
			"buffer":0,
			"byteLength":1944,
			"byteOffset":105016,
			"target":34962
		},
		{
			"buffer":0,
			"byteLength":1944,
			"byteOffset":106960,
			"target":34962
		},
		{
			"buffer":0,
			"byteLength":1296,
			"byteOffset":108904,
			"target":34962
		},
		{
			"buffer":0,
			"byteLength":648,
			"byteOffset":110200,
			"target":34962
		},
		{
			"buffer":0,
			"byteLength":1296,
			"byteOffset":110848,
			"target":34962
		},
		{
			"buffer":0,
			"byteLength":648,
			"byteOffset":112144,
			"target":34963
		},
		{
			"buffer":0,
			"byteLength":244344,
			"byteOffset":112792,
			"target":34962
		},
		{
			"buffer":0,
			"byteLength":244344,
			"byteOffset":357136,
			"target":34962
		},
		{
			"buffer":0,
			"byteLength":162896,
			"byteOffset":601480,
			"target":34962
		},
		{
			"buffer":0,
			"byteLength":81448,
			"byteOffset":764376,
			"target":34962
		},
		{
			"buffer":0,
			"byteLength":162896,
			"byteOffset":845824,
			"target":34962
		},
		{
			"buffer":0,
			"byteLength":60816,
			"byteOffset":1008720,
			"target":34963
		},
		{
			"buffer":0,
			"byteLength":131772,
			"byteOffset":1069536,
			"target":34962
		},
		{
			"buffer":0,
			"byteLength":131772,
			"byteOffset":1201308,
			"target":34962
		},
		{
			"buffer":0,
			"byteLength":87848,
			"byteOffset":1333080,
			"target":34962
		},
		{
			"buffer":0,
			"byteLength":43924,
			"byteOffset":1420928,
			"target":34962
		},
		{
			"buffer":0,
			"byteLength":87848,
			"byteOffset":1464852,
			"target":34962
		},
		{
			"buffer":0,
			"byteLength":32640,
			"byteOffset":1552700,
			"target":34963
		},
		{
			"buffer":0,
			"byteLength":69012,
			"byteOffset":1585340,
			"target":34962
		},
		{
			"buffer":0,
			"byteLength":69012,
			"byteOffset":1654352,
			"target":34962
		},
		{
			"buffer":0,
			"byteLength":46008,
			"byteOffset":1723364,
			"target":34962
		},
		{
			"buffer":0,
			"byteLength":23004,
			"byteOffset":1769372,
			"target":34962
		},
		{
			"buffer":0,
			"byteLength":46008,
			"byteOffset":1792376,
			"target":34962
		},
		{
			"buffer":0,
			"byteLength":16704,
			"byteOffset":1838384,
			"target":34963
		},
		{
			"buffer":0,
			"byteLength":240,
			"byteOffset":1855088,
			"target":34962
		},
		{
			"buffer":0,
			"byteLength":240,
			"byteOffset":1855328,
			"target":34962
		},
		{
			"buffer":0,
			"byteLength":160,
			"byteOffset":1855568,
			"target":34962
		},
		{
			"buffer":0,
			"byteLength":80,
			"byteOffset":1855728,
			"target":34962
		},
		{
			"buffer":0,
			"byteLength":160,
			"byteOffset":1855808,
			"target":34962
		},
		{
			"buffer":0,
			"byteLength":72,
			"byteOffset":1855968,
			"target":34963
		}
	],
	"buffers":[
		{
			"byteLength":1856040,
			"uri":"meadow_SM_Env_Tree_Birch_01.bin"
		}
	]
}
