{"asset":{"generator":"Khronos glTF Blender I/O v4.4.55","version":"2.0"},"extensionsUsed":["EXT_texture_webp"],"extensionsRequired":["EXT_texture_webp"],"scene":0,"scenes":[{"name":"Scene","nodes":[3]}],"nodes":[{"mesh":0,"name":"SM_Env_Grass_Large_04_LOD0"},{"mesh":1,"name":"SM_Env_Grass_Large_04_LOD1"},{"mesh":2,"name":"SM_Env_Grass_Large_04_LOD2"},{"children":[0,1,2],"name":"SM_Env_Grass_Large_04","rotation":[0.7071068286895752,0,0,0.7071068286895752],"scale":[0.009999999776482582,0.009999999776482582,0.009999999776482582]}],"materials":[{"alphaMode":"MASK","doubleSided":true,"name":"grassSHD12","pbrMetallicRoughness":{"baseColorTexture":{"index":0},"metallicFactor":0},"alphaCutoff":0.5}],"meshes":[{"name":"Mesh","primitives":[{"attributes":{"POSITION":0,"NORMAL":1,"TEXCOORD_0":2,"COLOR_0":3,"COLOR_1":4},"indices":5,"material":0}]},{"name":"Mesh.001","primitives":[{"attributes":{"POSITION":6,"NORMAL":7,"TEXCOORD_0":8,"COLOR_0":9,"COLOR_1":10},"indices":11,"material":0}]},{"name":"Mesh.002","primitives":[{"attributes":{"POSITION":12,"NORMAL":13,"TEXCOORD_0":14,"COLOR_0":15,"COLOR_1":16},"indices":17,"material":0}]}],"textures":[{"extensions":{"EXT_texture_webp":{"source":0}},"sampler":0}],"images":[{"mimeType":"image/webp","name":"Dirt_Cracked_Leaves_Heavy_Texture_01","uri":"Dirt_Cracked_Leaves_Heavy_Texture_01.webp"}],"accessors":[{"bufferView":0,"componentType":5126,"count":36036,"max":[1693.73779296875,1662.2965087890625,71.17936706542969],"min":[-1698.8055419921875,-1760.5372314453125,-263.37176513671875],"type":"VEC3"},{"bufferView":1,"componentType":5126,"count":36036,"type":"VEC3"},{"bufferView":2,"componentType":5126,"count":36036,"type":"VEC2"},{"bufferView":3,"componentType":5121,"count":36036,"normalized":true,"type":"VEC4"},{"bufferView":4,"componentType":5123,"count":36036,"normalized":true,"type":"VEC4"},{"bufferView":5,"componentType":5123,"count":54054,"type":"SCALAR"},{"bufferView":6,"componentType":5126,"count":27720,"max":[1702.205078125,1646.553955078125,68.04763793945312],"min":[-1685.3597412109375,-1761.658203125,-259.2809143066406],"type":"VEC3"},{"bufferView":7,"componentType":5126,"count":27720,"type":"VEC3"},{"bufferView":8,"componentType":5126,"count":27720,"type":"VEC2"},{"bufferView":9,"componentType":5121,"count":27720,"normalized":true,"type":"VEC4"},{"bufferView":10,"componentType":5123,"count":27720,"normalized":true,"type":"VEC4"},{"bufferView":11,"componentType":5123,"count":41580,"type":"SCALAR"},{"bufferView":12,"componentType":5126,"count":11088,"max":[1701.060546875,1648.71533203125,59.113555908203125],"min":[-1685.8575439453125,-1761.0133056640625,-270.6949768066406],"type":"VEC3"},{"bufferView":13,"componentType":5126,"count":11088,"type":"VEC3"},{"bufferView":14,"componentType":5126,"count":11088,"type":"VEC2"},{"bufferView":15,"componentType":5121,"count":11088,"normalized":true,"type":"VEC4"},{"bufferView":16,"componentType":5123,"count":11088,"normalized":true,"type":"VEC4"},{"bufferView":17,"componentType":5123,"count":16632,"type":"SCALAR"}],"bufferViews":[{"buffer":0,"byteLength":432432,"byteOffset":0,"target":34962},{"buffer":0,"byteLength":432432,"byteOffset":432432,"target":34962},{"buffer":0,"byteLength":288288,"byteOffset":864864,"target":34962},{"buffer":0,"byteLength":144144,"byteOffset":1153152,"target":34962},{"buffer":0,"byteLength":288288,"byteOffset":1297296,"target":34962},{"buffer":0,"byteLength":108108,"byteOffset":1585584,"target":34963},{"buffer":0,"byteLength":332640,"byteOffset":1693692,"target":34962},{"buffer":0,"byteLength":332640,"byteOffset":2026332,"target":34962},{"buffer":0,"byteLength":221760,"byteOffset":2358972,"target":34962},{"buffer":0,"byteLength":110880,"byteOffset":2580732,"target":34962},{"buffer":0,"byteLength":221760,"byteOffset":2691612,"target":34962},{"buffer":0,"byteLength":83160,"byteOffset":2913372,"target":34963},{"buffer":0,"byteLength":133056,"byteOffset":2996532,"target":34962},{"buffer":0,"byteLength":133056,"byteOffset":3129588,"target":34962},{"buffer":0,"byteLength":88704,"byteOffset":3262644,"target":34962},{"buffer":0,"byteLength":44352,"byteOffset":3351348,"target":34962},{"buffer":0,"byteLength":88704,"byteOffset":3395700,"target":34962},{"buffer":0,"byteLength":33264,"byteOffset":3484404,"target":34963}],"samplers":[{"magFilter":9729,"minFilter":9987}],"buffers":[{"byteLength":3517668,"uri":"meadow_SM_Env_Grass_Large_04.bin"}]}