{
	"asset":{
		"generator":"Khronos glTF Blender I/O v4.4.55",
		"version":"2.0"
	},
	"scene":0,
	"scenes":[
		{
			"name":"Scene",
			"nodes":[
				3
			]
		}
	],
	"nodes":[
		{
			"mesh":0,
			"name":"SM_Prop_Stonewall_Pillar_01_LOD0"
		},
		{
			"mesh":1,
			"name":"SM_Prop_Stonewall_Pillar_01_LOD1"
		},
		{
			"mesh":2,
			"name":"SM_Prop_Stonewall_Pillar_01_LOD2"
		},
		{
			"children":[
				0,
				1,
				2
			],
			"name":"SM_Prop_Stonewall_Pillar_01",
			"rotation":[
				0.7071068286895752,
				0,
				0,
				0.7071068286895752
			],
			"scale":[
				0.009999999776482582,
				0.009999999776482582,
				0.009999999776482582
			]
		}
	],
	"materials":[
		{
			"doubleSided":true,
			"name":"Nature29",
			"pbrMetallicRoughness":{
				"metallicFactor":0
			}
		}
	],
	"meshes":[
		{
			"name":"Mesh.001",
			"primitives":[
				{
					"attributes":{
						"POSITION":0,
						"NORMAL":1,
						"TEXCOORD_0":2
					},
					"indices":3,
					"material":0
				}
			]
		},
		{
			"name":"Mesh.002",
			"primitives":[
				{
					"attributes":{
						"POSITION":4,
						"NORMAL":5,
						"TEXCOORD_0":6
					},
					"indices":7,
					"material":0
				}
			]
		},
		{
			"name":"Mesh",
			"primitives":[
				{
					"attributes":{
						"POSITION":8,
						"NORMAL":9,
						"TEXCOORD_0":10
					},
					"indices":11,
					"material":0
				}
			]
		}
	],
	"accessors":[
		{
			"bufferView":0,
			"componentType":5126,
			"count":984,
			"max":[
				40.883575439453125,
				49.865509033203125,
				-0.07087516784667969
			],
			"min":[
				-40.883697509765625,
				-49.865570068359375,
				-137.94601440429688
			],
			"type":"VEC3"
		},
		{
			"bufferView":1,
			"componentType":5126,
			"count":984,
			"type":"VEC3"
		},
		{
			"bufferView":2,
			"componentType":5126,
			"count":984,
			"type":"VEC2"
		},
		{
			"bufferView":3,
			"componentType":5123,
			"count":984,
			"type":"SCALAR"
		},
		{
			"bufferView":4,
			"componentType":5126,
			"count":492,
			"max":[
				38.83502197265625,
				49.298004150390625,
				-1.2361162900924683
			],
			"min":[
				-39.77801513671875,
				-46.10435485839844,
				-136.53204345703125
			],
			"type":"VEC3"
		},
		{
			"bufferView":5,
			"componentType":5126,
			"count":492,
			"type":"VEC3"
		},
		{
			"bufferView":6,
			"componentType":5126,
			"count":492,
			"type":"VEC2"
		},
		{
			"bufferView":7,
			"componentType":5123,
			"count":492,
			"type":"SCALAR"
		},
		{
			"bufferView":8,
			"componentType":5126,
			"count":246,
			"max":[
				38.834964752197266,
				46.30555725097656,
				-3.390702962875366
			],
			"min":[
				-39.77803421020508,
				-40.65876770019531,
				-131.5526885986328
			],
			"type":"VEC3"
		},
		{
			"bufferView":9,
			"componentType":5126,
			"count":246,
			"type":"VEC3"
		},
		{
			"bufferView":10,
			"componentType":5126,
			"count":246,
			"type":"VEC2"
		},
		{
			"bufferView":11,
			"componentType":5123,
			"count":246,
			"type":"SCALAR"
		}
	],
	"bufferViews":[
		{
			"buffer":0,
			"byteLength":11808,
			"byteOffset":0,
			"target":34962
		},
		{
			"buffer":0,
			"byteLength":11808,
			"byteOffset":11808,
			"target":34962
		},
		{
			"buffer":0,
			"byteLength":7872,
			"byteOffset":23616,
			"target":34962
		},
		{
			"buffer":0,
			"byteLength":1968,
			"byteOffset":31488,
			"target":34963
		},
		{
			"buffer":0,
			"byteLength":5904,
			"byteOffset":33456,
			"target":34962
		},
		{
			"buffer":0,
			"byteLength":5904,
			"byteOffset":39360,
			"target":34962
		},
		{
			"buffer":0,
			"byteLength":3936,
			"byteOffset":45264,
			"target":34962
		},
		{
			"buffer":0,
			"byteLength":984,
			"byteOffset":49200,
			"target":34963
		},
		{
			"buffer":0,
			"byteLength":2952,
			"byteOffset":50184,
			"target":34962
		},
		{
			"buffer":0,
			"byteLength":2952,
			"byteOffset":53136,
			"target":34962
		},
		{
			"buffer":0,
			"byteLength":1968,
			"byteOffset":56088,
			"target":34962
		},
		{
			"buffer":0,
			"byteLength":492,
			"byteOffset":58056,
			"target":34963
		}
	],
	"buffers":[
		{
			"byteLength":58548,
			"uri":"meadow_SM_Prop_Stonewall_Pillar_01.bin"
		}
	]
}
