{
	"asset":{
		"generator":"Khronos glTF Blender I/O v4.4.55",
		"version":"2.0"
	},
	"scene":0,
	"scenes":[
		{
			"name":"Scene",
			"nodes":[
				0
			]
		}
	],
	"nodes":[
		{
			"mesh":0,
			"name":"SM_Env_Rock_02",
			"rotation":[
				0.7071068286895752,
				0,
				0,
				0.7071068286895752
			],
			"scale":[
				0.009999999776482582,
				0.009999999776482582,
				0.009999999776482582
			]
		}
	],
	"materials":[
		{
			"doubleSided":true,
			"name":"Nature6",
			"pbrMetallicRoughness":{
				"metallicFactor":0
			}
		}
	],
	"meshes":[
		{
			"name":"Mesh",
			"primitives":[
				{
					"attributes":{
						"POSITION":0,
						"NORMAL":1,
						"TEXCOORD_0":2
					},
					"indices":3,
					"material":0
				}
			]
		}
	],
	"accessors":[
		{
			"bufferView":0,
			"componentType":5126,
			"count":623,
			"max":[
				118.6640625,
				95.2454833984375,
				13.466217994689941
			],
			"min":[
				-125.619140625,
				-104.628173828125,
				-135.44009399414062
			],
			"type":"VEC3"
		},
		{
			"bufferView":1,
			"componentType":5126,
			"count":623,
			"type":"VEC3"
		},
		{
			"bufferView":2,
			"componentType":5126,
			"count":623,
			"type":"VEC2"
		},
		{
			"bufferView":3,
			"componentType":5123,
			"count":642,
			"type":"SCALAR"
		}
	],
	"bufferViews":[
		{
			"buffer":0,
			"byteLength":7476,
			"byteOffset":0,
			"target":34962
		},
		{
			"buffer":0,
			"byteLength":7476,
			"byteOffset":7476,
			"target":34962
		},
		{
			"buffer":0,
			"byteLength":4984,
			"byteOffset":14952,
			"target":34962
		},
		{
			"buffer":0,
			"byteLength":1284,
			"byteOffset":19936,
			"target":34963
		}
	],
	"buffers":[
		{
			"byteLength":21220,
			"uri":"meadow_SM_Env_Rock_02.bin"
		}
	]
}
