{
	"asset":{
		"generator":"Khronos glTF Blender I/O v4.4.55",
		"version":"2.0"
	},
	"extensionsUsed":[
		"EXT_texture_webp"
	],
	"extensionsRequired":[
		"EXT_texture_webp"
	],
	"scene":0,
	"scenes":[
		{
			"name":"Scene",
			"nodes":[
				3
			]
		}
	],
	"nodes":[
		{
			"mesh":0,
			"name":"SM_Env_Bush_02_Branches_LOD0"
		},
		{
			"mesh":1,
			"name":"SM_Env_Bush_02_Leaves_LOD0"
		},
		{
			"mesh":2,
			"name":"SM_Env_Bush_02_Leaves_LOD1"
		},
		{
			"children":[
				0,
				1,
				2
			],
			"name":"SM_Env_Bush_02",
			"rotation":[
				0.7071068286895752,
				0,
				0,
				0.7071068286895752
			],
			"scale":[
				0.009999999776482582,
				0.009999999776482582,
				0.009999999776482582
			]
		}
	],
	"materials":[
		{
			"alphaMode":"BLEND",
			"doubleSided":true,
			"name":"tomTreeGeneric_04:Base_Tree_Branches",
			"pbrMetallicRoughness":{
				"baseColorTexture":{
					"index":0
				},
				"metallicFactor":0
			}
		},
		{
			"doubleSided":true,
			"name":"lambert3",
			"pbrMetallicRoughness":{
				"baseColorTexture":{
					"index":1
				},
				"metallicFactor":0
			}
		}
	],
	"meshes":[
		{
			"name":"Mesh",
			"primitives":[
				{
					"attributes":{
						"POSITION":0,
						"NORMAL":1,
						"TEXCOORD_0":2,
						"COLOR_0":3,
						"COLOR_1":4
					},
					"indices":5,
					"material":0
				}
			]
		},
		{
			"name":"Mesh.001",
			"primitives":[
				{
					"attributes":{
						"POSITION":6,
						"NORMAL":7,
						"TEXCOORD_0":8,
						"COLOR_0":9,
						"COLOR_1":10
					},
					"indices":11,
					"material":1
				}
			]
		},
		{
			"name":"Mesh.002",
			"primitives":[
				{
					"attributes":{
						"POSITION":12,
						"NORMAL":13,
						"TEXCOORD_0":14,
						"COLOR_0":15,
						"COLOR_1":16
					},
					"indices":17,
					"material":1
				}
			]
		}
	],
	"textures":[
		{
			"extensions":{
				"EXT_texture_webp":{
					"source":0
				}
			},
			"sampler":0
		},
		{
			"extensions":{
				"EXT_texture_webp":{
					"source":0
				}
			},
			"sampler":0
		}
	],
	"images":[
		{
			"mimeType":"image/webp",
			"name":"PolygonNatureBiomes_Meadow_Texture_01",
			"uri":"PolygonNatureBiomes_Meadow_Texture_01.webp"
		}
	],
	"accessors":[
		{
			"bufferView":0,
			"componentType":5126,
			"count":42,
			"max":[
				160.76425170898438,
				116.2774658203125,
				23.886146545410156
			],
			"min":[
				-143.41705322265625,
				-157.8964385986328,
				-158.4859619140625
			],
			"type":"VEC3"
		},
		{
			"bufferView":1,
			"componentType":5126,
			"count":42,
			"type":"VEC3"
		},
		{
			"bufferView":2,
			"componentType":5126,
			"count":42,
			"type":"VEC2"
		},
		{
			"bufferView":3,
			"componentType":5121,
			"count":42,
			"normalized":true,
			"type":"VEC4"
		},
		{
			"bufferView":4,
			"componentType":5123,
			"count":42,
			"normalized":true,
			"type":"VEC4"
		},
		{
			"bufferView":5,
			"componentType":5123,
			"count":84,
			"type":"SCALAR"
		},
		{
			"bufferView":6,
			"componentType":5126,
			"count":4596,
			"max":[
				256.27288818359375,
				213.70130920410156,
				49.83345413208008
			],
			"min":[
				-238.55380249023438,
				-255.81968688964844,
				-183.1717987060547
			],
			"type":"VEC3"
		},
		{
			"bufferView":7,
			"componentType":5126,
			"count":4596,
			"type":"VEC3"
		},
		{
			"bufferView":8,
			"componentType":5126,
			"count":4596,
			"type":"VEC2"
		},
		{
			"bufferView":9,
			"componentType":5121,
			"count":4596,
			"normalized":true,
			"type":"VEC4"
		},
		{
			"bufferView":10,
			"componentType":5123,
			"count":4596,
			"normalized":true,
			"type":"VEC4"
		},
		{
			"bufferView":11,
			"componentType":5123,
			"count":6894,
			"type":"SCALAR"
		},
		{
			"bufferView":12,
			"componentType":5126,
			"count":2976,
			"max":[
				261.51898193359375,
				220.86009216308594,
				62.498817443847656
			],
			"min":[
				-240.70220947265625,
				-266.50592041015625,
				-194.5657958984375
			],
			"type":"VEC3"
		},
		{
			"bufferView":13,
			"componentType":5126,
			"count":2976,
			"type":"VEC3"
		},
		{
			"bufferView":14,
			"componentType":5126,
			"count":2976,
			"type":"VEC2"
		},
		{
			"bufferView":15,
			"componentType":5121,
			"count":2976,
			"normalized":true,
			"type":"VEC4"
		},
		{
			"bufferView":16,
			"componentType":5123,
			"count":2976,
			"normalized":true,
			"type":"VEC4"
		},
		{
			"bufferView":17,
			"componentType":5123,
			"count":4464,
			"type":"SCALAR"
		}
	],
	"bufferViews":[
		{
			"buffer":0,
			"byteLength":504,
			"byteOffset":0,
			"target":34962
		},
		{
			"buffer":0,
			"byteLength":504,
			"byteOffset":504,
			"target":34962
		},
		{
			"buffer":0,
			"byteLength":336,
			"byteOffset":1008,
			"target":34962
		},
		{
			"buffer":0,
			"byteLength":168,
			"byteOffset":1344,
			"target":34962
		},
		{
			"buffer":0,
			"byteLength":336,
			"byteOffset":1512,
			"target":34962
		},
		{
			"buffer":0,
			"byteLength":168,
			"byteOffset":1848,
			"target":34963
		},
		{
			"buffer":0,
			"byteLength":55152,
			"byteOffset":2016,
			"target":34962
		},
		{
			"buffer":0,
			"byteLength":55152,
			"byteOffset":57168,
			"target":34962
		},
		{
			"buffer":0,
			"byteLength":36768,
			"byteOffset":112320,
			"target":34962
		},
		{
			"buffer":0,
			"byteLength":18384,
			"byteOffset":149088,
			"target":34962
		},
		{
			"buffer":0,
			"byteLength":36768,
			"byteOffset":167472,
			"target":34962
		},
		{
			"buffer":0,
			"byteLength":13788,
			"byteOffset":204240,
			"target":34963
		},
		{
			"buffer":0,
			"byteLength":35712,
			"byteOffset":218028,
			"target":34962
		},
		{
			"buffer":0,
			"byteLength":35712,
			"byteOffset":253740,
			"target":34962
		},
		{
			"buffer":0,
			"byteLength":23808,
			"byteOffset":289452,
			"target":34962
		},
		{
			"buffer":0,
			"byteLength":11904,
			"byteOffset":313260,
			"target":34962
		},
		{
			"buffer":0,
			"byteLength":23808,
			"byteOffset":325164,
			"target":34962
		},
		{
			"buffer":0,
			"byteLength":8928,
			"byteOffset":348972,
			"target":34963
		}
	],
	"samplers":[
		{
			"magFilter":9729,
			"minFilter":9987
		}
	],
	"buffers":[
		{
			"byteLength":357900,
			"uri":"meadow_SM_Env_Bush_02.bin"
		}
	]
}
