{
	"asset":{
		"generator":"Khronos glTF Blender I/O v4.4.55",
		"version":"2.0"
	},
	"extensionsUsed":[
		"EXT_texture_webp"
	],
	"extensionsRequired":[
		"EXT_texture_webp"
	],
	"scene":0,
	"scenes":[
		{
			"name":"Scene",
			"nodes":[
				0
			]
		}
	],
	"nodes":[
		{
			"mesh":0,
			"name":"SM_Prop_WindChime_01",
			"rotation":[
				0.7071068286895752,
				0,
				0,
				0.7071068286895752
			],
			"scale":[
				0.009999999776482582,
				0.009999999776482582,
				0.009999999776482582
			]
		}
	],
	"materials":[
		{
			"doubleSided":true,
			"name":"Explorer_MAT49",
			"pbrMetallicRoughness":{
				"baseColorTexture":{
					"index":0
				},
				"metallicFactor":0
			}
		}
	],
	"meshes":[
		{
			"name":"Mesh",
			"primitives":[
				{
					"attributes":{
						"POSITION":0,
						"NORMAL":1,
						"TEXCOORD_0":2
					},
					"indices":3,
					"material":0
				}
			]
		}
	],
	"textures":[
		{
			"extensions":{
				"EXT_texture_webp":{
					"source":0
				}
			},
			"sampler":0
		}
	],
	"images":[
		{
			"mimeType":"image/webp",
			"name":"PolygonNatureBiomes_Meadow_Texture_01",
			"uri":"PolygonNatureBiomes_Meadow_Texture_01.webp"
		}
	],
	"accessors":[
		{
			"bufferView":0,
			"componentType":5126,
			"count":1631,
			"max":[
				14.186599731445312,
				15.069768905639648,
				144.25656127929688
			],
			"min":[
				-15.990840911865234,
				-15.811624526977539,
				-1.2304115295410156
			],
			"type":"VEC3"
		},
		{
			"bufferView":1,
			"componentType":5126,
			"count":1631,
			"type":"VEC3"
		},
		{
			"bufferView":2,
			"componentType":5126,
			"count":1631,
			"type":"VEC2"
		},
		{
			"bufferView":3,
			"componentType":5123,
			"count":2553,
			"type":"SCALAR"
		}
	],
	"bufferViews":[
		{
			"buffer":0,
			"byteLength":19572,
			"byteOffset":0,
			"target":34962
		},
		{
			"buffer":0,
			"byteLength":19572,
			"byteOffset":19572,
			"target":34962
		},
		{
			"buffer":0,
			"byteLength":13048,
			"byteOffset":39144,
			"target":34962
		},
		{
			"buffer":0,
			"byteLength":5106,
			"byteOffset":52192,
			"target":34963
		}
	],
	"samplers":[
		{
			"magFilter":9729,
			"minFilter":9987
		}
	],
	"buffers":[
		{
			"byteLength":57300,
			"uri":"meadow_SM_Prop_WindChime_01.bin"
		}
	]
}
