{
	"asset":{
		"generator":"Khronos glTF Blender I/O v4.4.55",
		"version":"2.0"
	},
	"scene":0,
	"scenes":[
		{
			"name":"Scene",
			"nodes":[
				0
			]
		}
	],
	"nodes":[
		{
			"mesh":0,
			"name":"SM_Env_Rock_Pile_02",
			"rotation":[
				0.7071068286895752,
				0,
				0,
				0.7071068286895752
			],
			"scale":[
				0.009999999776482582,
				0.009999999776482582,
				0.009999999776482582
			]
		}
	],
	"materials":[
		{
			"doubleSided":true,
			"name":"Nature17",
			"pbrMetallicRoughness":{
				"metallicFactor":0
			}
		}
	],
	"meshes":[
		{
			"name":"Mesh",
			"primitives":[
				{
					"attributes":{
						"POSITION":0,
						"NORMAL":1,
						"TEXCOORD_0":2
					},
					"indices":3,
					"material":0
				}
			]
		}
	],
	"accessors":[
		{
			"bufferView":0,
			"componentType":5126,
			"count":2140,
			"max":[
				434.1787109375,
				366.43896484375,
				10.77913761138916
			],
			"min":[
				-443.5966796875,
				-375.3662109375,
				-249.22311401367188
			],
			"type":"VEC3"
		},
		{
			"bufferView":1,
			"componentType":5126,
			"count":2140,
			"type":"VEC3"
		},
		{
			"bufferView":2,
			"componentType":5126,
			"count":2140,
			"type":"VEC2"
		},
		{
			"bufferView":3,
			"componentType":5123,
			"count":2904,
			"type":"SCALAR"
		}
	],
	"bufferViews":[
		{
			"buffer":0,
			"byteLength":25680,
			"byteOffset":0,
			"target":34962
		},
		{
			"buffer":0,
			"byteLength":25680,
			"byteOffset":25680,
			"target":34962
		},
		{
			"buffer":0,
			"byteLength":17120,
			"byteOffset":51360,
			"target":34962
		},
		{
			"buffer":0,
			"byteLength":5808,
			"byteOffset":68480,
			"target":34963
		}
	],
	"buffers":[
		{
			"byteLength":74288,
			"uri":"meadow_SM_Env_Rock_Pile_02.bin"
		}
	]
}
