{
	"asset":{
		"generator":"Khronos glTF Blender I/O v4.4.55",
		"version":"2.0"
	},
	"scene":0,
	"scenes":[
		{
			"name":"Scene",
			"nodes":[
				0
			]
		}
	],
	"nodes":[
		{
			"mesh":0,
			"name":"SM_Prop_Leaves_Pile_01",
			"rotation":[
				0.7071068286895752,
				0,
				0,
				0.7071068286895752
			],
			"scale":[
				0.009999999776482582,
				0.009999999776482582,
				0.009999999776482582
			]
		}
	],
	"materials":[
		{
			"doubleSided":true,
			"name":"lambert2065",
			"pbrMetallicRoughness":{
				"metallicFactor":0
			}
		}
	],
	"meshes":[
		{
			"name":"Mesh",
			"primitives":[
				{
					"attributes":{
						"POSITION":0,
						"NORMAL":1,
						"TEXCOORD_0":2
					},
					"indices":3,
					"material":0
				}
			]
		}
	],
	"accessors":[
		{
			"bufferView":0,
			"componentType":5126,
			"count":917,
			"max":[
				79.0087890625,
				111.248046875,
				-2.35076904296875
			],
			"min":[
				-114.576171875,
				-165.4365234375,
				-14.806549072265625
			],
			"type":"VEC3"
		},
		{
			"bufferView":1,
			"componentType":5126,
			"count":917,
			"type":"VEC3"
		},
		{
			"bufferView":2,
			"componentType":5126,
			"count":917,
			"type":"VEC2"
		},
		{
			"bufferView":3,
			"componentType":5123,
			"count":1065,
			"type":"SCALAR"
		}
	],
	"bufferViews":[
		{
			"buffer":0,
			"byteLength":11004,
			"byteOffset":0,
			"target":34962
		},
		{
			"buffer":0,
			"byteLength":11004,
			"byteOffset":11004,
			"target":34962
		},
		{
			"buffer":0,
			"byteLength":7336,
			"byteOffset":22008,
			"target":34962
		},
		{
			"buffer":0,
			"byteLength":2130,
			"byteOffset":29344,
			"target":34963
		}
	],
	"buffers":[
		{
			"byteLength":31476,
			"uri":"meadow_SM_Prop_Leaves_Pile_01.bin"
		}
	]
}
