{
	"asset":{
		"generator":"Khronos glTF Blender I/O v4.4.55",
		"version":"2.0"
	},
	"scene":0,
	"scenes":[
		{
			"name":"Scene",
			"nodes":[
				2
			]
		}
	],
	"nodes":[
		{
			"mesh":0,
			"name":"SM_Env_Lillies_01_LOD0"
		},
		{
			"mesh":1,
			"name":"SM_Env_Lillies_01_LOD1"
		},
		{
			"children":[
				0,
				1
			],
			"name":"SM_Env_Lillies_01",
			"rotation":[
				0.7071068286895752,
				0,
				0,
				0.7071068286895752
			],
			"scale":[
				0.009999999776482582,
				0.009999999776482582,
				0.009999999776482582
			]
		}
	],
	"materials":[
		{
			"doubleSided":true,
			"name":"Nature2",
			"pbrMetallicRoughness":{
				"metallicFactor":0
			}
		},
		{
			"doubleSided":true,
			"name":"lambert2045",
			"pbrMetallicRoughness":{
				"metallicFactor":0
			}
		}
	],
	"meshes":[
		{
			"name":"Mesh.001",
			"primitives":[
				{
					"attributes":{
						"POSITION":0,
						"NORMAL":1,
						"TEXCOORD_0":2
					},
					"indices":3,
					"material":0
				}
			]
		},
		{
			"name":"Mesh",
			"primitives":[
				{
					"attributes":{
						"POSITION":4,
						"NORMAL":5,
						"TEXCOORD_0":6
					},
					"indices":7,
					"material":1
				}
			]
		}
	],
	"accessors":[
		{
			"bufferView":0,
			"componentType":5126,
			"count":3619,
			"max":[
				155.37109375,
				140.0478515625,
				0.20990753173828125
			],
			"min":[
				-114.9345703125,
				-120.9658203125,
				-19.483863830566406
			],
			"type":"VEC3"
		},
		{
			"bufferView":1,
			"componentType":5126,
			"count":3619,
			"type":"VEC3"
		},
		{
			"bufferView":2,
			"componentType":5126,
			"count":3619,
			"type":"VEC2"
		},
		{
			"bufferView":3,
			"componentType":5123,
			"count":6318,
			"type":"SCALAR"
		},
		{
			"bufferView":4,
			"componentType":5126,
			"count":4,
			"max":[
				213.4130859375,
				162.7259521484375,
				-2.9281845092773438
			],
			"min":[
				-128.54736328125,
				-126.703857421875,
				-2.9281845092773438
			],
			"type":"VEC3"
		},
		{
			"bufferView":5,
			"componentType":5126,
			"count":4,
			"type":"VEC3"
		},
		{
			"bufferView":6,
			"componentType":5126,
			"count":4,
			"type":"VEC2"
		},
		{
			"bufferView":7,
			"componentType":5123,
			"count":6,
			"type":"SCALAR"
		}
	],
	"bufferViews":[
		{
			"buffer":0,
			"byteLength":43428,
			"byteOffset":0,
			"target":34962
		},
		{
			"buffer":0,
			"byteLength":43428,
			"byteOffset":43428,
			"target":34962
		},
		{
			"buffer":0,
			"byteLength":28952,
			"byteOffset":86856,
			"target":34962
		},
		{
			"buffer":0,
			"byteLength":12636,
			"byteOffset":115808,
			"target":34963
		},
		{
			"buffer":0,
			"byteLength":48,
			"byteOffset":128444,
			"target":34962
		},
		{
			"buffer":0,
			"byteLength":48,
			"byteOffset":128492,
			"target":34962
		},
		{
			"buffer":0,
			"byteLength":32,
			"byteOffset":128540,
			"target":34962
		},
		{
			"buffer":0,
			"byteLength":12,
			"byteOffset":128572,
			"target":34963
		}
	],
	"buffers":[
		{
			"byteLength":128584,
			"uri":"meadow_SM_Env_Lillies_01.bin"
		}
	]
}
