{
	"asset":{
		"generator":"Khronos glTF Blender I/O v4.4.55",
		"version":"2.0"
	},
	"extensionsUsed":[
		"EXT_texture_webp"
	],
	"extensionsRequired":[
		"EXT_texture_webp"
	],
	"scene":0,
	"scenes":[
		{
			"name":"Scene",
			"nodes":[
				3
			]
		}
	],
	"nodes":[
		{
			"mesh":0,
			"name":"SM_Prop_Stonewall_Pillar_02_LOD0"
		},
		{
			"mesh":1,
			"name":"SM_Prop_Stonewall_Pillar_02_LOD1"
		},
		{
			"mesh":2,
			"name":"SM_Prop_Stonewall_Pillar_02_LOD2"
		},
		{
			"children":[
				0,
				1,
				2
			],
			"name":"SM_Prop_Stonewall_Pillar_02",
			"rotation":[
				0.7071068286895752,
				0,
				0,
				0.7071068286895752
			],
			"scale":[
				0.009999999776482582,
				0.009999999776482582,
				0.009999999776482582
			]
		}
	],
	"materials":[
		{
			"doubleSided":true,
			"name":"Nature30",
			"pbrMetallicRoughness":{
				"baseColorTexture":{
					"index":0
				},
				"metallicFactor":0
			}
		}
	],
	"meshes":[
		{
			"name":"Mesh.001",
			"primitives":[
				{
					"attributes":{
						"POSITION":0,
						"NORMAL":1,
						"TEXCOORD_0":2
					},
					"indices":3,
					"material":0
				}
			]
		},
		{
			"name":"Mesh",
			"primitives":[
				{
					"attributes":{
						"POSITION":4,
						"NORMAL":5,
						"TEXCOORD_0":6
					},
					"indices":7,
					"material":0
				}
			]
		},
		{
			"name":"Mesh.002",
			"primitives":[
				{
					"attributes":{
						"POSITION":8,
						"NORMAL":9,
						"TEXCOORD_0":10
					},
					"indices":11,
					"material":0
				}
			]
		}
	],
	"textures":[
		{
			"extensions":{
				"EXT_texture_webp":{
					"source":0
				}
			},
			"sampler":0
		}
	],
	"images":[
		{
			"mimeType":"image/webp",
			"name":"PolygonNatureBiomes_Meadow_Texture_01",
			"uri":"PolygonNatureBiomes_Meadow_Texture_01.webp"
		}
	],
	"accessors":[
		{
			"bufferView":0,
			"componentType":5126,
			"count":1308,
			"max":[
				45.38507080078125,
				52.559391021728516,
				6.024506568908691
			],
			"min":[
				-45.38525390625,
				-52.55952453613281,
				-136.09661865234375
			],
			"type":"VEC3"
		},
		{
			"bufferView":1,
			"componentType":5126,
			"count":1308,
			"type":"VEC3"
		},
		{
			"bufferView":2,
			"componentType":5126,
			"count":1308,
			"type":"VEC2"
		},
		{
			"bufferView":3,
			"componentType":5123,
			"count":1308,
			"type":"SCALAR"
		},
		{
			"bufferView":4,
			"componentType":5126,
			"count":624,
			"max":[
				44.19024658203125,
				50.214111328125,
				4.487642288208008
			],
			"min":[
				-43.64459228515625,
				-46.99888610839844,
				-133.18850708007812
			],
			"type":"VEC3"
		},
		{
			"bufferView":5,
			"componentType":5126,
			"count":624,
			"type":"VEC3"
		},
		{
			"bufferView":6,
			"componentType":5126,
			"count":624,
			"type":"VEC2"
		},
		{
			"bufferView":7,
			"componentType":5123,
			"count":624,
			"type":"SCALAR"
		},
		{
			"bufferView":8,
			"componentType":5126,
			"count":306,
			"max":[
				43.98379135131836,
				50.21418762207031,
				0.46266788244247437
			],
			"min":[
				-43.6446647644043,
				-46.99879455566406,
				-133.18850708007812
			],
			"type":"VEC3"
		},
		{
			"bufferView":9,
			"componentType":5126,
			"count":306,
			"type":"VEC3"
		},
		{
			"bufferView":10,
			"componentType":5126,
			"count":306,
			"type":"VEC2"
		},
		{
			"bufferView":11,
			"componentType":5123,
			"count":306,
			"type":"SCALAR"
		}
	],
	"bufferViews":[
		{
			"buffer":0,
			"byteLength":15696,
			"byteOffset":0,
			"target":34962
		},
		{
			"buffer":0,
			"byteLength":15696,
			"byteOffset":15696,
			"target":34962
		},
		{
			"buffer":0,
			"byteLength":10464,
			"byteOffset":31392,
			"target":34962
		},
		{
			"buffer":0,
			"byteLength":2616,
			"byteOffset":41856,
			"target":34963
		},
		{
			"buffer":0,
			"byteLength":7488,
			"byteOffset":44472,
			"target":34962
		},
		{
			"buffer":0,
			"byteLength":7488,
			"byteOffset":51960,
			"target":34962
		},
		{
			"buffer":0,
			"byteLength":4992,
			"byteOffset":59448,
			"target":34962
		},
		{
			"buffer":0,
			"byteLength":1248,
			"byteOffset":64440,
			"target":34963
		},
		{
			"buffer":0,
			"byteLength":3672,
			"byteOffset":65688,
			"target":34962
		},
		{
			"buffer":0,
			"byteLength":3672,
			"byteOffset":69360,
			"target":34962
		},
		{
			"buffer":0,
			"byteLength":2448,
			"byteOffset":73032,
			"target":34962
		},
		{
			"buffer":0,
			"byteLength":612,
			"byteOffset":75480,
			"target":34963
		}
	],
	"samplers":[
		{
			"magFilter":9729,
			"minFilter":9987
		}
	],
	"buffers":[
		{
			"byteLength":76092,
			"uri":"meadow_SM_Prop_Stonewall_Pillar_02.bin"
		}
	]
}
