{
	"asset":{
		"generator":"Khronos glTF Blender I/O v4.4.55",
		"version":"2.0"
	},
	"scene":0,
	"scenes":[
		{
			"name":"Scene",
			"nodes":[
				3
			]
		}
	],
	"nodes":[
		{
			"mesh":0,
			"name":"SM_Prop_Stonewall_02_LOD0"
		},
		{
			"mesh":1,
			"name":"SM_Prop_Stonewall_02_LOD1"
		},
		{
			"mesh":2,
			"name":"SM_Prop_Stonewall_02_LOD2"
		},
		{
			"children":[
				0,
				1,
				2
			],
			"name":"SM_Prop_Stonewall_02",
			"rotation":[
				0.7071068286895752,
				0,
				0,
				0.7071068286895752
			],
			"scale":[
				0.009999999776482582,
				0.009999999776482582,
				0.009999999776482582
			]
		}
	],
	"materials":[
		{
			"doubleSided":true,
			"name":"Nature26",
			"pbrMetallicRoughness":{
				"metallicFactor":0
			}
		}
	],
	"meshes":[
		{
			"name":"Mesh.001",
			"primitives":[
				{
					"attributes":{
						"POSITION":0,
						"NORMAL":1,
						"TEXCOORD_0":2
					},
					"indices":3,
					"material":0
				}
			]
		},
		{
			"name":"Mesh",
			"primitives":[
				{
					"attributes":{
						"POSITION":4,
						"NORMAL":5,
						"TEXCOORD_0":6
					},
					"indices":7,
					"material":0
				}
			]
		},
		{
			"name":"Mesh.002",
			"primitives":[
				{
					"attributes":{
						"POSITION":8,
						"NORMAL":9,
						"TEXCOORD_0":10
					},
					"indices":11,
					"material":0
				}
			]
		}
	],
	"accessors":[
		{
			"bufferView":0,
			"componentType":5126,
			"count":3392,
			"max":[
				11.7945556640625,
				32.677001953125,
				1.9723052978515625
			],
			"min":[
				-262.1789245605469,
				-32.6771240234375,
				-91.12621307373047
			],
			"type":"VEC3"
		},
		{
			"bufferView":1,
			"componentType":5126,
			"count":3392,
			"type":"VEC3"
		},
		{
			"bufferView":2,
			"componentType":5126,
			"count":3392,
			"type":"VEC2"
		},
		{
			"bufferView":3,
			"componentType":5123,
			"count":3402,
			"type":"SCALAR"
		},
		{
			"bufferView":4,
			"componentType":5126,
			"count":1968,
			"max":[
				10.611165046691895,
				32.22552490234375,
				0.6003053784370422
			],
			"min":[
				-259.360107421875,
				-30.491287231445312,
				-88.71986389160156
			],
			"type":"VEC3"
		},
		{
			"bufferView":5,
			"componentType":5126,
			"count":1968,
			"type":"VEC3"
		},
		{
			"bufferView":6,
			"componentType":5126,
			"count":1968,
			"type":"VEC2"
		},
		{
			"bufferView":7,
			"componentType":5123,
			"count":1968,
			"type":"SCALAR"
		},
		{
			"bufferView":8,
			"componentType":5126,
			"count":1008,
			"max":[
				7.25732421875,
				30.458251953125,
				0.45197317004203796
			],
			"min":[
				-259.360107421875,
				-30.4912109375,
				-86.47084045410156
			],
			"type":"VEC3"
		},
		{
			"bufferView":9,
			"componentType":5126,
			"count":1008,
			"type":"VEC3"
		},
		{
			"bufferView":10,
			"componentType":5126,
			"count":1008,
			"type":"VEC2"
		},
		{
			"bufferView":11,
			"componentType":5123,
			"count":1008,
			"type":"SCALAR"
		}
	],
	"bufferViews":[
		{
			"buffer":0,
			"byteLength":40704,
			"byteOffset":0,
			"target":34962
		},
		{
			"buffer":0,
			"byteLength":40704,
			"byteOffset":40704,
			"target":34962
		},
		{
			"buffer":0,
			"byteLength":27136,
			"byteOffset":81408,
			"target":34962
		},
		{
			"buffer":0,
			"byteLength":6804,
			"byteOffset":108544,
			"target":34963
		},
		{
			"buffer":0,
			"byteLength":23616,
			"byteOffset":115348,
			"target":34962
		},
		{
			"buffer":0,
			"byteLength":23616,
			"byteOffset":138964,
			"target":34962
		},
		{
			"buffer":0,
			"byteLength":15744,
			"byteOffset":162580,
			"target":34962
		},
		{
			"buffer":0,
			"byteLength":3936,
			"byteOffset":178324,
			"target":34963
		},
		{
			"buffer":0,
			"byteLength":12096,
			"byteOffset":182260,
			"target":34962
		},
		{
			"buffer":0,
			"byteLength":12096,
			"byteOffset":194356,
			"target":34962
		},
		{
			"buffer":0,
			"byteLength":8064,
			"byteOffset":206452,
			"target":34962
		},
		{
			"buffer":0,
			"byteLength":2016,
			"byteOffset":214516,
			"target":34963
		}
	],
	"buffers":[
		{
			"byteLength":216532,
			"uri":"meadow_SM_Prop_StoneWall_02.bin"
		}
	]
}
