{
	"asset":{
		"generator":"Khronos glTF Blender I/O v4.4.55",
		"version":"2.0"
	},
	"scene":0,
	"scenes":[
		{
			"name":"Scene",
			"nodes":[
				1
			]
		}
	],
	"nodes":[
		{
			"mesh":0,
			"name":"SM_Prop_Gate_Small_Door_01"
		},
		{
			"children":[
				0
			],
			"mesh":1,
			"name":"SM_Prop_Gate_Small_01",
			"rotation":[
				0.7071068286895752,
				0,
				0,
				0.7071068286895752
			],
			"scale":[
				0.009999999776482582,
				0.009999999776482582,
				0.009999999776482582
			]
		}
	],
	"materials":[
		{
			"doubleSided":true,
			"name":"Nature24",
			"pbrMetallicRoughness":{
				"metallicFactor":0
			}
		}
	],
	"meshes":[
		{
			"name":"Mesh.001",
			"primitives":[
				{
					"attributes":{
						"POSITION":0,
						"NORMAL":1,
						"TEXCOORD_0":2
					},
					"indices":3,
					"material":0
				}
			]
		},
		{
			"name":"Mesh",
			"primitives":[
				{
					"attributes":{
						"POSITION":4,
						"NORMAL":5,
						"TEXCOORD_0":6
					},
					"indices":7,
					"material":0
				}
			]
		}
	],
	"accessors":[
		{
			"bufferView":0,
			"componentType":5126,
			"count":736,
			"max":[
				125.15118408203125,
				11.397196769714355,
				-14.528982162475586
			],
			"min":[
				2.7606277465820312,
				-3.776315927505493,
				-129.8271484375
			],
			"type":"VEC3"
		},
		{
			"bufferView":1,
			"componentType":5126,
			"count":736,
			"type":"VEC3"
		},
		{
			"bufferView":2,
			"componentType":5126,
			"count":736,
			"type":"VEC2"
		},
		{
			"bufferView":3,
			"componentType":5123,
			"count":1242,
			"type":"SCALAR"
		},
		{
			"bufferView":4,
			"componentType":5126,
			"count":222,
			"max":[
				142.52151489257812,
				11.776209831237793,
				0.0015497207641601562
			],
			"min":[
				-9.01910400390625,
				-7.810314178466797,
				-128.04476928710938
			],
			"type":"VEC3"
		},
		{
			"bufferView":5,
			"componentType":5126,
			"count":222,
			"type":"VEC3"
		},
		{
			"bufferView":6,
			"componentType":5126,
			"count":222,
			"type":"VEC2"
		},
		{
			"bufferView":7,
			"componentType":5123,
			"count":378,
			"type":"SCALAR"
		}
	],
	"bufferViews":[
		{
			"buffer":0,
			"byteLength":8832,
			"byteOffset":0,
			"target":34962
		},
		{
			"buffer":0,
			"byteLength":8832,
			"byteOffset":8832,
			"target":34962
		},
		{
			"buffer":0,
			"byteLength":5888,
			"byteOffset":17664,
			"target":34962
		},
		{
			"buffer":0,
			"byteLength":2484,
			"byteOffset":23552,
			"target":34963
		},
		{
			"buffer":0,
			"byteLength":2664,
			"byteOffset":26036,
			"target":34962
		},
		{
			"buffer":0,
			"byteLength":2664,
			"byteOffset":28700,
			"target":34962
		},
		{
			"buffer":0,
			"byteLength":1776,
			"byteOffset":31364,
			"target":34962
		},
		{
			"buffer":0,
			"byteLength":756,
			"byteOffset":33140,
			"target":34963
		}
	],
	"buffers":[
		{
			"byteLength":33896,
			"uri":"meadow_SM_Prop_Gate_Small_01.bin"
		}
	]
}
