{
	"asset":{
		"generator":"Khronos glTF Blender I/O v4.4.55",
		"version":"2.0"
	},
	"extensionsUsed":[
		"EXT_texture_webp"
	],
	"extensionsRequired":[
		"EXT_texture_webp"
	],
	"scene":0,
	"scenes":[
		{
			"name":"Scene",
			"nodes":[
				0
			]
		}
	],
	"nodes":[
		{
			"mesh":0,
			"name":"SM_Prop_StonePile_03",
			"rotation":[
				0.7071068286895752,
				0,
				0,
				0.7071068286895752
			],
			"scale":[
				0.009999999776482582,
				0.009999999776482582,
				0.009999999776482582
			]
		}
	],
	"materials":[
		{
			"doubleSided":true,
			"name":"Explorer_MAT38",
			"pbrMetallicRoughness":{
				"baseColorTexture":{
					"index":0
				},
				"metallicFactor":0
			}
		}
	],
	"meshes":[
		{
			"name":"Mesh",
			"primitives":[
				{
					"attributes":{
						"POSITION":0,
						"NORMAL":1,
						"TEXCOORD_0":2
					},
					"indices":3,
					"material":0
				}
			]
		}
	],
	"textures":[
		{
			"extensions":{
				"EXT_texture_webp":{
					"source":0
				}
			},
			"sampler":0
		}
	],
	"images":[
		{
			"mimeType":"image/webp",
			"name":"PolygonNatureBiomes_Meadow_Texture_01",
			"uri":"PolygonNatureBiomes_Meadow_Texture_01.webp"
		}
	],
	"accessors":[
		{
			"bufferView":0,
			"componentType":5126,
			"count":5358,
			"max":[
				48.153350830078125,
				46.14188766479492,
				0
			],
			"min":[
				-48.153350830078125,
				-46.14188766479492,
				-152.54612731933594
			],
			"type":"VEC3"
		},
		{
			"bufferView":1,
			"componentType":5126,
			"count":5358,
			"type":"VEC3"
		},
		{
			"bufferView":2,
			"componentType":5126,
			"count":5358,
			"type":"VEC2"
		},
		{
			"bufferView":3,
			"componentType":5123,
			"count":5364,
			"type":"SCALAR"
		}
	],
	"bufferViews":[
		{
			"buffer":0,
			"byteLength":64296,
			"byteOffset":0,
			"target":34962
		},
		{
			"buffer":0,
			"byteLength":64296,
			"byteOffset":64296,
			"target":34962
		},
		{
			"buffer":0,
			"byteLength":42864,
			"byteOffset":128592,
			"target":34962
		},
		{
			"buffer":0,
			"byteLength":10728,
			"byteOffset":171456,
			"target":34963
		}
	],
	"samplers":[
		{
			"magFilter":9729,
			"minFilter":9987
		}
	],
	"buffers":[
		{
			"byteLength":182184,
			"uri":"meadow_SM_Prop_StonePile_03.bin"
		}
	]
}
