{
	"asset":{
		"generator":"Khronos glTF Blender I/O v4.4.55",
		"version":"2.0"
	},
	"scene":0,
	"scenes":[
		{
			"name":"Scene",
			"nodes":[
				3
			]
		}
	],
	"nodes":[
		{
			"mesh":0,
			"name":"SM_Env_Tree_Fruit_01_LOD0"
		},
		{
			"mesh":1,
			"name":"SM_Env_Tree_Fruit_01_LOD1"
		},
		{
			"mesh":2,
			"name":"SM_Env_Tree_Fruit_01_LOD2"
		},
		{
			"children":[
				0,
				1,
				2
			],
			"name":"SM_Env_Tree_Fruit_01",
			"rotation":[
				0.7071068286895752,
				0,
				0,
				0.7071068286895752
			],
			"scale":[
				0.009999999776482582,
				0.009999999776482582,
				0.009999999776482582
			]
		}
	],
	"materials":[
		{
			"doubleSided":true,
			"name":"lambert2054",
			"pbrMetallicRoughness":{
				"baseColorFactor":[
					0.5,
					0.5,
					0.5,
					1
				],
				"metallicFactor":0
			}
		}
	],
	"meshes":[
		{
			"name":"Mesh",
			"primitives":[
				{
					"attributes":{
						"POSITION":0,
						"NORMAL":1,
						"TEXCOORD_0":2,
						"COLOR_0":3,
						"COLOR_1":4
					},
					"indices":5,
					"material":0
				}
			]
		},
		{
			"name":"Mesh.001",
			"primitives":[
				{
					"attributes":{
						"POSITION":6,
						"NORMAL":7,
						"TEXCOORD_0":8,
						"COLOR_0":9,
						"COLOR_1":10
					},
					"indices":11,
					"material":0
				}
			]
		},
		{
			"name":"Mesh.002",
			"primitives":[
				{
					"attributes":{
						"POSITION":12,
						"NORMAL":13,
						"TEXCOORD_0":14,
						"COLOR_0":15,
						"COLOR_1":16
					},
					"indices":17,
					"material":0
				}
			]
		}
	],
	"accessors":[
		{
			"bufferView":0,
			"componentType":5126,
			"count":15035,
			"max":[
				262.2748718261719,
				229.34303283691406,
				59.751678466796875
			],
			"min":[
				-262.08782958984375,
				-269.6365661621094,
				-519.6078491210938
			],
			"type":"VEC3"
		},
		{
			"bufferView":1,
			"componentType":5126,
			"count":15035,
			"type":"VEC3"
		},
		{
			"bufferView":2,
			"componentType":5126,
			"count":15035,
			"type":"VEC2"
		},
		{
			"bufferView":3,
			"componentType":5121,
			"count":15035,
			"normalized":true,
			"type":"VEC4"
		},
		{
			"bufferView":4,
			"componentType":5123,
			"count":15035,
			"normalized":true,
			"type":"VEC4"
		},
		{
			"bufferView":5,
			"componentType":5123,
			"count":22500,
			"type":"SCALAR"
		},
		{
			"bufferView":6,
			"componentType":5126,
			"count":8203,
			"max":[
				258.26068115234375,
				232.20457458496094,
				59.751678466796875
			],
			"min":[
				-263.7023010253906,
				-278.8963623046875,
				-515.1582641601562
			],
			"type":"VEC3"
		},
		{
			"bufferView":7,
			"componentType":5126,
			"count":8203,
			"type":"VEC3"
		},
		{
			"bufferView":8,
			"componentType":5126,
			"count":8203,
			"type":"VEC2"
		},
		{
			"bufferView":9,
			"componentType":5121,
			"count":8203,
			"normalized":true,
			"type":"VEC4"
		},
		{
			"bufferView":10,
			"componentType":5123,
			"count":8203,
			"normalized":true,
			"type":"VEC4"
		},
		{
			"bufferView":11,
			"componentType":5123,
			"count":12192,
			"type":"SCALAR"
		},
		{
			"bufferView":12,
			"componentType":5126,
			"count":20,
			"max":[
				267.2323913574219,
				246.69529724121094,
				75.9168930053711
			],
			"min":[
				-260.89453125,
				-280.40997314453125,
				-539.2509765625
			],
			"type":"VEC3"
		},
		{
			"bufferView":13,
			"componentType":5126,
			"count":20,
			"type":"VEC3"
		},
		{
			"bufferView":14,
			"componentType":5126,
			"count":20,
			"type":"VEC2"
		},
		{
			"bufferView":15,
			"componentType":5121,
			"count":20,
			"normalized":true,
			"type":"VEC4"
		},
		{
			"bufferView":16,
			"componentType":5123,
			"count":20,
			"normalized":true,
			"type":"VEC4"
		},
		{
			"bufferView":17,
			"componentType":5123,
			"count":36,
			"type":"SCALAR"
		}
	],
	"bufferViews":[
		{
			"buffer":0,
			"byteLength":180420,
			"byteOffset":0,
			"target":34962
		},
		{
			"buffer":0,
			"byteLength":180420,
			"byteOffset":180420,
			"target":34962
		},
		{
			"buffer":0,
			"byteLength":120280,
			"byteOffset":360840,
			"target":34962
		},
		{
			"buffer":0,
			"byteLength":60140,
			"byteOffset":481120,
			"target":34962
		},
		{
			"buffer":0,
			"byteLength":120280,
			"byteOffset":541260,
			"target":34962
		},
		{
			"buffer":0,
			"byteLength":45000,
			"byteOffset":661540,
			"target":34963
		},
		{
			"buffer":0,
			"byteLength":98436,
			"byteOffset":706540,
			"target":34962
		},
		{
			"buffer":0,
			"byteLength":98436,
			"byteOffset":804976,
			"target":34962
		},
		{
			"buffer":0,
			"byteLength":65624,
			"byteOffset":903412,
			"target":34962
		},
		{
			"buffer":0,
			"byteLength":32812,
			"byteOffset":969036,
			"target":34962
		},
		{
			"buffer":0,
			"byteLength":65624,
			"byteOffset":1001848,
			"target":34962
		},
		{
			"buffer":0,
			"byteLength":24384,
			"byteOffset":1067472,
			"target":34963
		},
		{
			"buffer":0,
			"byteLength":240,
			"byteOffset":1091856,
			"target":34962
		},
		{
			"buffer":0,
			"byteLength":240,
			"byteOffset":1092096,
			"target":34962
		},
		{
			"buffer":0,
			"byteLength":160,
			"byteOffset":1092336,
			"target":34962
		},
		{
			"buffer":0,
			"byteLength":80,
			"byteOffset":1092496,
			"target":34962
		},
		{
			"buffer":0,
			"byteLength":160,
			"byteOffset":1092576,
			"target":34962
		},
		{
			"buffer":0,
			"byteLength":72,
			"byteOffset":1092736,
			"target":34963
		}
	],
	"buffers":[
		{
			"byteLength":1092808,
			"uri":"meadow_SM_Env_Tree_Fruit_01.bin"
		}
	]
}
