{
	"asset":{
		"generator":"Khronos glTF Blender I/O v4.4.55",
		"version":"2.0"
	},
	"scene":0,
	"scenes":[
		{
			"name":"Scene",
			"nodes":[
				0
			]
		}
	],
	"nodes":[
		{
			"mesh":0,
			"name":"SM_Env_Rock_Pile_01",
			"rotation":[
				0.7071068286895752,
				0,
				0,
				0.7071068286895752
			],
			"scale":[
				0.009999999776482582,
				0.009999999776482582,
				0.009999999776482582
			]
		}
	],
	"materials":[
		{
			"doubleSided":true,
			"name":"Nature16",
			"pbrMetallicRoughness":{
				"metallicFactor":0
			}
		}
	],
	"meshes":[
		{
			"name":"Mesh",
			"primitives":[
				{
					"attributes":{
						"POSITION":0,
						"NORMAL":1,
						"TEXCOORD_0":2
					},
					"indices":3,
					"material":0
				}
			]
		}
	],
	"accessors":[
		{
			"bufferView":0,
			"componentType":5126,
			"count":4567,
			"max":[
				664.305419921875,
				511.98876953125,
				113.21052551269531
			],
			"min":[
				-673.7239990234375,
				-520.916015625,
				-220.65867614746094
			],
			"type":"VEC3"
		},
		{
			"bufferView":1,
			"componentType":5126,
			"count":4567,
			"type":"VEC3"
		},
		{
			"bufferView":2,
			"componentType":5126,
			"count":4567,
			"type":"VEC2"
		},
		{
			"bufferView":3,
			"componentType":5123,
			"count":6612,
			"type":"SCALAR"
		}
	],
	"bufferViews":[
		{
			"buffer":0,
			"byteLength":54804,
			"byteOffset":0,
			"target":34962
		},
		{
			"buffer":0,
			"byteLength":54804,
			"byteOffset":54804,
			"target":34962
		},
		{
			"buffer":0,
			"byteLength":36536,
			"byteOffset":109608,
			"target":34962
		},
		{
			"buffer":0,
			"byteLength":13224,
			"byteOffset":146144,
			"target":34963
		}
	],
	"buffers":[
		{
			"byteLength":159368,
			"uri":"meadow_SM_Env_Rock_Pile_01.bin"
		}
	]
}
