{
	"asset":{
		"generator":"Khronos glTF Blender I/O v4.4.55",
		"version":"2.0"
	},
	"extensionsUsed":[
		"EXT_texture_webp"
	],
	"extensionsRequired":[
		"EXT_texture_webp"
	],
	"scene":0,
	"scenes":[
		{
			"name":"Scene",
			"nodes":[
				7
			]
		}
	],
	"nodes":[
		{
			"mesh":0,
			"name":"SM_Env_Tree_Meadow_02_Branches_LOD0"
		},
		{
			"mesh":1,
			"name":"SM_Env_Tree_Meadow_02_Branches_LOD1"
		},
		{
			"mesh":2,
			"name":"SM_Env_Tree_Meadow_02_Branches_LOD2"
		},
		{
			"mesh":3,
			"name":"SM_Env_Tree_Meadow_02_LOD0"
		},
		{
			"mesh":4,
			"name":"SM_Env_Tree_Meadow_02_LOD1"
		},
		{
			"mesh":5,
			"name":"SM_Env_Tree_Meadow_02_LOD2"
		},
		{
			"mesh":6,
			"name":"SM_Env_Tree_Meadow_02_LOD3"
		},
		{
			"children":[
				0,
				1,
				2,
				3,
				4,
				5,
				6
			],
			"name":"SM_Env_Tree_Meadow_02",
			"rotation":[
				0.7071068286895752,
				0,
				0,
				0.7071068286895752
			],
			"scale":[
				0.009999999776482582,
				0.009999999776482582,
				0.009999999776482582
			]
		}
	],
	"materials":[
		{
			"doubleSided":true,
			"name":"lambert2059",
			"pbrMetallicRoughness":{
				"baseColorTexture":{
					"index":0
				},
				"metallicFactor":0
			}
		}
	],
	"meshes":[
		{
			"name":"Mesh",
			"primitives":[
				{
					"attributes":{
						"POSITION":0,
						"NORMAL":1,
						"TEXCOORD_0":2,
						"COLOR_0":3,
						"COLOR_1":4
					},
					"indices":5,
					"material":0
				}
			]
		},
		{
			"name":"Mesh.001",
			"primitives":[
				{
					"attributes":{
						"POSITION":6,
						"NORMAL":7,
						"TEXCOORD_0":8,
						"COLOR_0":9,
						"COLOR_1":10
					},
					"indices":11,
					"material":0
				}
			]
		},
		{
			"name":"Mesh.002",
			"primitives":[
				{
					"attributes":{
						"POSITION":12,
						"NORMAL":13,
						"TEXCOORD_0":14,
						"COLOR_0":15,
						"COLOR_1":16
					},
					"indices":17,
					"material":0
				}
			]
		},
		{
			"name":"Mesh.003",
			"primitives":[
				{
					"attributes":{
						"POSITION":18,
						"NORMAL":19,
						"TEXCOORD_0":20,
						"COLOR_0":21,
						"COLOR_1":22
					},
					"indices":23,
					"material":0
				}
			]
		},
		{
			"name":"Mesh.004",
			"primitives":[
				{
					"attributes":{
						"POSITION":24,
						"NORMAL":25,
						"TEXCOORD_0":26,
						"COLOR_0":27,
						"COLOR_1":28
					},
					"indices":29,
					"material":0
				}
			]
		},
		{
			"name":"Mesh.005",
			"primitives":[
				{
					"attributes":{
						"POSITION":30,
						"NORMAL":31,
						"TEXCOORD_0":32,
						"COLOR_0":33,
						"COLOR_1":34
					},
					"indices":35,
					"material":0
				}
			]
		},
		{
			"name":"Mesh.006",
			"primitives":[
				{
					"attributes":{
						"POSITION":36,
						"NORMAL":37,
						"TEXCOORD_0":38,
						"COLOR_0":39,
						"COLOR_1":40
					},
					"indices":41,
					"material":0
				}
			]
		}
	],
	"textures":[
		{
			"extensions":{
				"EXT_texture_webp":{
					"source":0
				}
			},
			"sampler":0
		}
	],
	"images":[
		{
			"mimeType":"image/webp",
			"name":"PolygonNatureBiomes_Meadow_Texture_01",
			"uri":"PolygonNatureBiomes_Meadow_Texture_01.webp"
		}
	],
	"accessors":[
		{
			"bufferView":0,
			"componentType":5126,
			"count":2009,
			"max":[
				317.97003173828125,
				357.2115478515625,
				-197.121826171875
			],
			"min":[
				-347.36669921875,
				-434.97021484375,
				-617.8280029296875
			],
			"type":"VEC3"
		},
		{
			"bufferView":1,
			"componentType":5126,
			"count":2009,
			"type":"VEC3"
		},
		{
			"bufferView":2,
			"componentType":5126,
			"count":2009,
			"type":"VEC2"
		},
		{
			"bufferView":3,
			"componentType":5121,
			"count":2009,
			"normalized":true,
			"type":"VEC4"
		},
		{
			"bufferView":4,
			"componentType":5123,
			"count":2009,
			"normalized":true,
			"type":"VEC4"
		},
		{
			"bufferView":5,
			"componentType":5123,
			"count":2796,
			"type":"SCALAR"
		},
		{
			"bufferView":6,
			"componentType":5126,
			"count":883,
			"max":[
				317.97003173828125,
				357.2115478515625,
				-197.193603515625
			],
			"min":[
				-347.36669921875,
				-434.97021484375,
				-617.8280029296875
			],
			"type":"VEC3"
		},
		{
			"bufferView":7,
			"componentType":5126,
			"count":883,
			"type":"VEC3"
		},
		{
			"bufferView":8,
			"componentType":5126,
			"count":883,
			"type":"VEC2"
		},
		{
			"bufferView":9,
			"componentType":5121,
			"count":883,
			"normalized":true,
			"type":"VEC4"
		},
		{
			"bufferView":10,
			"componentType":5123,
			"count":883,
			"normalized":true,
			"type":"VEC4"
		},
		{
			"bufferView":11,
			"componentType":5123,
			"count":1140,
			"type":"SCALAR"
		},
		{
			"bufferView":12,
			"componentType":5126,
			"count":432,
			"max":[
				317.97003173828125,
				357.2115478515625,
				-197.193603515625
			],
			"min":[
				-347.36669921875,
				-434.97021484375,
				-617.8280029296875
			],
			"type":"VEC3"
		},
		{
			"bufferView":13,
			"componentType":5126,
			"count":432,
			"type":"VEC3"
		},
		{
			"bufferView":14,
			"componentType":5126,
			"count":432,
			"type":"VEC2"
		},
		{
			"bufferView":15,
			"componentType":5121,
			"count":432,
			"normalized":true,
			"type":"VEC4"
		},
		{
			"bufferView":16,
			"componentType":5123,
			"count":432,
			"normalized":true,
			"type":"VEC4"
		},
		{
			"bufferView":17,
			"componentType":5123,
			"count":648,
			"type":"SCALAR"
		},
		{
			"bufferView":18,
			"componentType":5126,
			"count":22038,
			"max":[
				418.0288391113281,
				477.5389099121094,
				100.00415802001953
			],
			"min":[
				-446.8221435546875,
				-499.4883728027344,
				-772.6805419921875
			],
			"type":"VEC3"
		},
		{
			"bufferView":19,
			"componentType":5126,
			"count":22038,
			"type":"VEC3"
		},
		{
			"bufferView":20,
			"componentType":5126,
			"count":22038,
			"type":"VEC2"
		},
		{
			"bufferView":21,
			"componentType":5121,
			"count":22038,
			"normalized":true,
			"type":"VEC4"
		},
		{
			"bufferView":22,
			"componentType":5123,
			"count":22038,
			"normalized":true,
			"type":"VEC4"
		},
		{
			"bufferView":23,
			"componentType":5123,
			"count":32820,
			"type":"SCALAR"
		},
		{
			"bufferView":24,
			"componentType":5126,
			"count":12459,
			"max":[
				408.7393798828125,
				451.6861267089844,
				100.00415802001953
			],
			"min":[
				-434.6400451660156,
				-497.728759765625,
				-771.6619873046875
			],
			"type":"VEC3"
		},
		{
			"bufferView":25,
			"componentType":5126,
			"count":12459,
			"type":"VEC3"
		},
		{
			"bufferView":26,
			"componentType":5126,
			"count":12459,
			"type":"VEC2"
		},
		{
			"bufferView":27,
			"componentType":5121,
			"count":12459,
			"normalized":true,
			"type":"VEC4"
		},
		{
			"bufferView":28,
			"componentType":5123,
			"count":12459,
			"normalized":true,
			"type":"VEC4"
		},
		{
			"bufferView":29,
			"componentType":5123,
			"count":18249,
			"type":"SCALAR"
		},
		{
			"bufferView":30,
			"componentType":5126,
			"count":6830,
			"max":[
				407.35552978515625,
				442.32525634765625,
				98.22061920166016
			],
			"min":[
				-429.7714538574219,
				-494.42852783203125,
				-750.3418579101562
			],
			"type":"VEC3"
		},
		{
			"bufferView":31,
			"componentType":5126,
			"count":6830,
			"type":"VEC3"
		},
		{
			"bufferView":32,
			"componentType":5126,
			"count":6830,
			"type":"VEC2"
		},
		{
			"bufferView":33,
			"componentType":5121,
			"count":6830,
			"normalized":true,
			"type":"VEC4"
		},
		{
			"bufferView":34,
			"componentType":5123,
			"count":6830,
			"normalized":true,
			"type":"VEC4"
		},
		{
			"bufferView":35,
			"componentType":5123,
			"count":9849,
			"type":"SCALAR"
		},
		{
			"bufferView":36,
			"componentType":5126,
			"count":20,
			"max":[
				436.9127502441406,
				496.9134521484375,
				109.9048080444336
			],
			"min":[
				-462.46441650390625,
				-516.591552734375,
				-784.2826538085938
			],
			"type":"VEC3"
		},
		{
			"bufferView":37,
			"componentType":5126,
			"count":20,
			"type":"VEC3"
		},
		{
			"bufferView":38,
			"componentType":5126,
			"count":20,
			"type":"VEC2"
		},
		{
			"bufferView":39,
			"componentType":5121,
			"count":20,
			"normalized":true,
			"type":"VEC4"
		},
		{
			"bufferView":40,
			"componentType":5123,
			"count":20,
			"normalized":true,
			"type":"VEC4"
		},
		{
			"bufferView":41,
			"componentType":5123,
			"count":36,
			"type":"SCALAR"
		}
	],
	"bufferViews":[
		{
			"buffer":0,
			"byteLength":24108,
			"byteOffset":0,
			"target":34962
		},
		{
			"buffer":0,
			"byteLength":24108,
			"byteOffset":24108,
			"target":34962
		},
		{
			"buffer":0,
			"byteLength":16072,
			"byteOffset":48216,
			"target":34962
		},
		{
			"buffer":0,
			"byteLength":8036,
			"byteOffset":64288,
			"target":34962
		},
		{
			"buffer":0,
			"byteLength":16072,
			"byteOffset":72324,
			"target":34962
		},
		{
			"buffer":0,
			"byteLength":5592,
			"byteOffset":88396,
			"target":34963
		},
		{
			"buffer":0,
			"byteLength":10596,
			"byteOffset":93988,
			"target":34962
		},
		{
			"buffer":0,
			"byteLength":10596,
			"byteOffset":104584,
			"target":34962
		},
		{
			"buffer":0,
			"byteLength":7064,
			"byteOffset":115180,
			"target":34962
		},
		{
			"buffer":0,
			"byteLength":3532,
			"byteOffset":122244,
			"target":34962
		},
		{
			"buffer":0,
			"byteLength":7064,
			"byteOffset":125776,
			"target":34962
		},
		{
			"buffer":0,
			"byteLength":2280,
			"byteOffset":132840,
			"target":34963
		},
		{
			"buffer":0,
			"byteLength":5184,
			"byteOffset":135120,
			"target":34962
		},
		{
			"buffer":0,
			"byteLength":5184,
			"byteOffset":140304,
			"target":34962
		},
		{
			"buffer":0,
			"byteLength":3456,
			"byteOffset":145488,
			"target":34962
		},
		{
			"buffer":0,
			"byteLength":1728,
			"byteOffset":148944,
			"target":34962
		},
		{
			"buffer":0,
			"byteLength":3456,
			"byteOffset":150672,
			"target":34962
		},
		{
			"buffer":0,
			"byteLength":1296,
			"byteOffset":154128,
			"target":34963
		},
		{
			"buffer":0,
			"byteLength":264456,
			"byteOffset":155424,
			"target":34962
		},
		{
			"buffer":0,
			"byteLength":264456,
			"byteOffset":419880,
			"target":34962
		},
		{
			"buffer":0,
			"byteLength":176304,
			"byteOffset":684336,
			"target":34962
		},
		{
			"buffer":0,
			"byteLength":88152,
			"byteOffset":860640,
			"target":34962
		},
		{
			"buffer":0,
			"byteLength":176304,
			"byteOffset":948792,
			"target":34962
		},
		{
			"buffer":0,
			"byteLength":65640,
			"byteOffset":1125096,
			"target":34963
		},
		{
			"buffer":0,
			"byteLength":149508,
			"byteOffset":1190736,
			"target":34962
		},
		{
			"buffer":0,
			"byteLength":149508,
			"byteOffset":1340244,
			"target":34962
		},
		{
			"buffer":0,
			"byteLength":99672,
			"byteOffset":1489752,
			"target":34962
		},
		{
			"buffer":0,
			"byteLength":49836,
			"byteOffset":1589424,
			"target":34962
		},
		{
			"buffer":0,
			"byteLength":99672,
			"byteOffset":1639260,
			"target":34962
		},
		{
			"buffer":0,
			"byteLength":36498,
			"byteOffset":1738932,
			"target":34963
		},
		{
			"buffer":0,
			"byteLength":81960,
			"byteOffset":1775432,
			"target":34962
		},
		{
			"buffer":0,
			"byteLength":81960,
			"byteOffset":1857392,
			"target":34962
		},
		{
			"buffer":0,
			"byteLength":54640,
			"byteOffset":1939352,
			"target":34962
		},
		{
			"buffer":0,
			"byteLength":27320,
			"byteOffset":1993992,
			"target":34962
		},
		{
			"buffer":0,
			"byteLength":54640,
			"byteOffset":2021312,
			"target":34962
		},
		{
			"buffer":0,
			"byteLength":19698,
			"byteOffset":2075952,
			"target":34963
		},
		{
			"buffer":0,
			"byteLength":240,
			"byteOffset":2095652,
			"target":34962
		},
		{
			"buffer":0,
			"byteLength":240,
			"byteOffset":2095892,
			"target":34962
		},
		{
			"buffer":0,
			"byteLength":160,
			"byteOffset":2096132,
			"target":34962
		},
		{
			"buffer":0,
			"byteLength":80,
			"byteOffset":2096292,
			"target":34962
		},
		{
			"buffer":0,
			"byteLength":160,
			"byteOffset":2096372,
			"target":34962
		},
		{
			"buffer":0,
			"byteLength":72,
			"byteOffset":2096532,
			"target":34963
		}
	],
	"samplers":[
		{
			"magFilter":9729,
			"minFilter":9987
		}
	],
	"buffers":[
		{
			"byteLength":2096604,
			"uri":"meadow_SM_Env_Tree_Meadow_02.bin"
		}
	]
}
