{
	"asset":{
		"generator":"Khronos glTF Blender I/O v4.4.55",
		"version":"2.0"
	},
	"extensionsUsed":[
		"EXT_texture_webp"
	],
	"extensionsRequired":[
		"EXT_texture_webp"
	],
	"scene":0,
	"scenes":[
		{
			"name":"Scene",
			"nodes":[
				0
			]
		}
	],
	"nodes":[
		{
			"mesh":0,
			"name":"SM_Mech_Chest_01_Weapon_Collar_02_Empty",
			"rotation":[
				0.7071068286895752,
				0,
				0,
				0.7071068286895752
			],
			"scale":[
				0.009999999776482582,
				0.009999999776482582,
				0.009999999776482582
			]
		}
	],
	"materials":[
		{
			"doubleSided":true,
			"name":"lambert3",
			"pbrMetallicRoughness":{
				"baseColorTexture":{
					"index":0
				},
				"metallicFactor":0,
				"roughnessFactor":0.5527864098548889
			}
		}
	],
	"meshes":[
		{
			"name":"Mesh",
			"primitives":[
				{
					"attributes":{
						"POSITION":0,
						"NORMAL":1,
						"TEXCOORD_0":2
					},
					"indices":3,
					"material":0
				}
			]
		}
	],
	"textures":[
		{
			"extensions":{
				"EXT_texture_webp":{
					"source":0
				}
			},
			"sampler":0
		}
	],
	"images":[
		{
			"mimeType":"image/webp",
			"name":"PolygonMech_Texture_03_B",
			"uri":"PolygonMech_Texture_03_B.webp"
		}
	],
	"accessors":[
		{
			"bufferView":0,
			"componentType":5126,
			"count":1622,
			"max":[
				41.73935317993164,
				19.897138595581055,
				-0.3836703896522522
			],
			"min":[
				-30.42092514038086,
				-22.252792358398438,
				-66.14974212646484
			],
			"type":"VEC3"
		},
		{
			"bufferView":1,
			"componentType":5126,
			"count":1622,
			"type":"VEC3"
		},
		{
			"bufferView":2,
			"componentType":5126,
			"count":1622,
			"type":"VEC2"
		},
		{
			"bufferView":3,
			"componentType":5123,
			"count":2796,
			"type":"SCALAR"
		}
	],
	"bufferViews":[
		{
			"buffer":0,
			"byteLength":19464,
			"byteOffset":0,
			"target":34962
		},
		{
			"buffer":0,
			"byteLength":19464,
			"byteOffset":19464,
			"target":34962
		},
		{
			"buffer":0,
			"byteLength":12976,
			"byteOffset":38928,
			"target":34962
		},
		{
			"buffer":0,
			"byteLength":5592,
			"byteOffset":51904,
			"target":34963
		}
	],
	"samplers":[
		{
			"magFilter":9729,
			"minFilter":9987
		}
	],
	"buffers":[
		{
			"byteLength":57496,
			"uri":"mech_SM_Mech_Chest_01_Weapon_Collar_02_Empty.bin"
		}
	]
}
