{
	"asset":{
		"generator":"Khronos glTF Blender I/O v4.4.55",
		"version":"2.0"
	},
	"extensionsUsed":[
		"EXT_texture_webp"
	],
	"extensionsRequired":[
		"EXT_texture_webp"
	],
	"scene":0,
	"scenes":[
		{
			"name":"Scene",
			"nodes":[
				0
			]
		}
	],
	"nodes":[
		{
			"mesh":0,
			"name":"SM_Mech_Cockpit_01_Armor_Door_02",
			"rotation":[
				0.7071068286895752,
				0,
				0,
				0.7071068286895752
			],
			"scale":[
				0.009999999776482582,
				0.009999999776482582,
				0.009999999776482582
			]
		}
	],
	"materials":[
		{
			"doubleSided":true,
			"name":"lambert3",
			"pbrMetallicRoughness":{
				"baseColorTexture":{
					"index":0
				},
				"metallicFactor":0,
				"roughnessFactor":0.5527864098548889
			}
		}
	],
	"meshes":[
		{
			"name":"Mesh",
			"primitives":[
				{
					"attributes":{
						"POSITION":0,
						"NORMAL":1,
						"TEXCOORD_0":2,
						"TEXCOORD_1":3,
						"TEXCOORD_2":4,
						"TEXCOORD_3":5
					},
					"indices":6,
					"material":0
				}
			]
		}
	],
	"textures":[
		{
			"extensions":{
				"EXT_texture_webp":{
					"source":0
				}
			},
			"sampler":0
		}
	],
	"images":[
		{
			"mimeType":"image/webp",
			"name":"PolygonMech_Texture_03_B",
			"uri":"PolygonMech_Texture_03_B.webp"
		}
	],
	"accessors":[
		{
			"bufferView":0,
			"componentType":5126,
			"count":7239,
			"max":[
				56.16899108886719,
				45.403648376464844,
				1.1993408203125
			],
			"min":[
				-55.307579040527344,
				-11.791313171386719,
				-109.99801635742188
			],
			"type":"VEC3"
		},
		{
			"bufferView":1,
			"componentType":5126,
			"count":7239,
			"type":"VEC3"
		},
		{
			"bufferView":2,
			"componentType":5126,
			"count":7239,
			"type":"VEC2"
		},
		{
			"bufferView":3,
			"componentType":5126,
			"count":7239,
			"type":"VEC2"
		},
		{
			"bufferView":4,
			"componentType":5126,
			"count":7239,
			"type":"VEC2"
		},
		{
			"bufferView":5,
			"componentType":5126,
			"count":7239,
			"type":"VEC2"
		},
		{
			"bufferView":6,
			"componentType":5123,
			"count":11784,
			"type":"SCALAR"
		}
	],
	"bufferViews":[
		{
			"buffer":0,
			"byteLength":86868,
			"byteOffset":0,
			"target":34962
		},
		{
			"buffer":0,
			"byteLength":86868,
			"byteOffset":86868,
			"target":34962
		},
		{
			"buffer":0,
			"byteLength":57912,
			"byteOffset":173736,
			"target":34962
		},
		{
			"buffer":0,
			"byteLength":57912,
			"byteOffset":231648,
			"target":34962
		},
		{
			"buffer":0,
			"byteLength":57912,
			"byteOffset":289560,
			"target":34962
		},
		{
			"buffer":0,
			"byteLength":57912,
			"byteOffset":347472,
			"target":34962
		},
		{
			"buffer":0,
			"byteLength":23568,
			"byteOffset":405384,
			"target":34963
		}
	],
	"samplers":[
		{
			"magFilter":9729,
			"minFilter":9987
		}
	],
	"buffers":[
		{
			"byteLength":428952,
			"uri":"mech_SM_Mech_Cockpit_01_Armor_Door_02.bin"
		}
	]
}
