{
	"asset":{
		"generator":"Khronos glTF Blender I/O v4.4.55",
		"version":"2.0"
	},
	"extensionsUsed":[
		"EXT_texture_webp"
	],
	"extensionsRequired":[
		"EXT_texture_webp"
	],
	"scene":0,
	"scenes":[
		{
			"name":"Scene",
			"nodes":[
				5
			]
		}
	],
	"nodes":[
		{
			"mesh":0,
			"name":"SM_Wep_GattlingGun_01_Ammo_01"
		},
		{
			"mesh":1,
			"name":"SM_Wep_GattlingGun_01_Barrels_01"
		},
		{
			"mesh":2,
			"name":"SM_Wep_GattlingGun_01_Monitor_01"
		},
		{
			"children":[
				2
			],
			"mesh":3,
			"name":"SM_Wep_GattlingGun_01_Hud_01"
		},
		{
			"mesh":4,
			"name":"SM_Wep_GattlingGun_01_Trigger_01"
		},
		{
			"children":[
				0,
				1,
				3,
				4
			],
			"mesh":5,
			"name":"SM_Wep_GattlingGun_01",
			"rotation":[
				0.7071068286895752,
				0,
				0,
				0.7071068286895752
			],
			"scale":[
				0.009999999776482582,
				0.009999999776482582,
				0.009999999776482582
			]
		}
	],
	"materials":[
		{
			"doubleSided":true,
			"name":"lambert6",
			"pbrMetallicRoughness":{
				"baseColorTexture":{
					"index":0
				},
				"metallicFactor":0,
				"roughnessFactor":0.5527864098548889
			}
		}
	],
	"meshes":[
		{
			"name":"Mesh.005",
			"primitives":[
				{
					"attributes":{
						"POSITION":0,
						"NORMAL":1,
						"TEXCOORD_0":2
					},
					"indices":3,
					"material":0
				}
			]
		},
		{
			"name":"Mesh.001",
			"primitives":[
				{
					"attributes":{
						"POSITION":4,
						"NORMAL":5,
						"TEXCOORD_0":6
					},
					"indices":7,
					"material":0
				}
			]
		},
		{
			"name":"Mesh.003",
			"primitives":[
				{
					"attributes":{
						"POSITION":8,
						"NORMAL":9,
						"TEXCOORD_0":10
					},
					"indices":11,
					"material":0
				}
			]
		},
		{
			"name":"Mesh.002",
			"primitives":[
				{
					"attributes":{
						"POSITION":12,
						"NORMAL":13,
						"TEXCOORD_0":14
					},
					"indices":15,
					"material":0
				}
			]
		},
		{
			"name":"Mesh.004",
			"primitives":[
				{
					"attributes":{
						"POSITION":16,
						"NORMAL":17,
						"TEXCOORD_0":18
					},
					"indices":19,
					"material":0
				}
			]
		},
		{
			"name":"Mesh",
			"primitives":[
				{
					"attributes":{
						"POSITION":20,
						"NORMAL":21,
						"TEXCOORD_0":22
					},
					"indices":23,
					"material":0
				}
			]
		}
	],
	"textures":[
		{
			"extensions":{
				"EXT_texture_webp":{
					"source":0
				}
			},
			"sampler":0
		}
	],
	"images":[
		{
			"mimeType":"image/webp",
			"name":"PolygonMech_Texture_02_C",
			"uri":"PolygonMech_Texture_02_C.webp"
		}
	],
	"accessors":[
		{
			"bufferView":0,
			"componentType":5126,
			"count":526,
			"max":[
				-22.709033966064453,
				105.6051254272461,
				9.84904956817627
			],
			"min":[
				-79.77203369140625,
				48.95640563964844,
				-68.90019226074219
			],
			"type":"VEC3"
		},
		{
			"bufferView":1,
			"componentType":5126,
			"count":526,
			"type":"VEC3"
		},
		{
			"bufferView":2,
			"componentType":5126,
			"count":526,
			"type":"VEC2"
		},
		{
			"bufferView":3,
			"componentType":5123,
			"count":876,
			"type":"SCALAR"
		},
		{
			"bufferView":4,
			"componentType":5126,
			"count":2538,
			"max":[
				30.566408157348633,
				432.83160400390625,
				38.36797332763672
			],
			"min":[
				-30.56641387939453,
				187.9795379638672,
				-24.62331771850586
			],
			"type":"VEC3"
		},
		{
			"bufferView":5,
			"componentType":5126,
			"count":2538,
			"type":"VEC3"
		},
		{
			"bufferView":6,
			"componentType":5126,
			"count":2538,
			"type":"VEC2"
		},
		{
			"bufferView":7,
			"componentType":5123,
			"count":4854,
			"type":"SCALAR"
		},
		{
			"bufferView":8,
			"componentType":5126,
			"count":44,
			"max":[
				98.95184326171875,
				146.6300811767578,
				4.0670366287231445
			],
			"min":[
				59.01711654663086,
				107.57553100585938,
				-49.5602912902832
			],
			"type":"VEC3"
		},
		{
			"bufferView":9,
			"componentType":5126,
			"count":44,
			"type":"VEC3"
		},
		{
			"bufferView":10,
			"componentType":5126,
			"count":44,
			"type":"VEC2"
		},
		{
			"bufferView":11,
			"componentType":5123,
			"count":60,
			"type":"SCALAR"
		},
		{
			"bufferView":12,
			"componentType":5126,
			"count":429,
			"max":[
				101.90531158447266,
				151.2495880126953,
				10.363680839538574
			],
			"min":[
				30.421611785888672,
				100.88514709472656,
				-56.27967071533203
			],
			"type":"VEC3"
		},
		{
			"bufferView":13,
			"componentType":5126,
			"count":429,
			"type":"VEC3"
		},
		{
			"bufferView":14,
			"componentType":5126,
			"count":429,
			"type":"VEC2"
		},
		{
			"bufferView":15,
			"componentType":5123,
			"count":774,
			"type":"SCALAR"
		},
		{
			"bufferView":16,
			"componentType":5126,
			"count":264,
			"max":[
				3.830109119415283,
				20.662433624267578,
				-1.1468658447265625
			],
			"min":[
				-3.73634672164917,
				-19.715492248535156,
				-19.983993530273438
			],
			"type":"VEC3"
		},
		{
			"bufferView":17,
			"componentType":5126,
			"count":264,
			"type":"VEC3"
		},
		{
			"bufferView":18,
			"componentType":5126,
			"count":264,
			"type":"VEC2"
		},
		{
			"bufferView":19,
			"componentType":5123,
			"count":408,
			"type":"SCALAR"
		},
		{
			"bufferView":20,
			"componentType":5126,
			"count":8335,
			"max":[
				51.69097900390625,
				218.76113891601562,
				70.97037506103516
			],
			"min":[
				-79.12297058105469,
				-100.37120056152344,
				-62.86864471435547
			],
			"type":"VEC3"
		},
		{
			"bufferView":21,
			"componentType":5126,
			"count":8335,
			"type":"VEC3"
		},
		{
			"bufferView":22,
			"componentType":5126,
			"count":8335,
			"type":"VEC2"
		},
		{
			"bufferView":23,
			"componentType":5123,
			"count":13530,
			"type":"SCALAR"
		}
	],
	"bufferViews":[
		{
			"buffer":0,
			"byteLength":6312,
			"byteOffset":0,
			"target":34962
		},
		{
			"buffer":0,
			"byteLength":6312,
			"byteOffset":6312,
			"target":34962
		},
		{
			"buffer":0,
			"byteLength":4208,
			"byteOffset":12624,
			"target":34962
		},
		{
			"buffer":0,
			"byteLength":1752,
			"byteOffset":16832,
			"target":34963
		},
		{
			"buffer":0,
			"byteLength":30456,
			"byteOffset":18584,
			"target":34962
		},
		{
			"buffer":0,
			"byteLength":30456,
			"byteOffset":49040,
			"target":34962
		},
		{
			"buffer":0,
			"byteLength":20304,
			"byteOffset":79496,
			"target":34962
		},
		{
			"buffer":0,
			"byteLength":9708,
			"byteOffset":99800,
			"target":34963
		},
		{
			"buffer":0,
			"byteLength":528,
			"byteOffset":109508,
			"target":34962
		},
		{
			"buffer":0,
			"byteLength":528,
			"byteOffset":110036,
			"target":34962
		},
		{
			"buffer":0,
			"byteLength":352,
			"byteOffset":110564,
			"target":34962
		},
		{
			"buffer":0,
			"byteLength":120,
			"byteOffset":110916,
			"target":34963
		},
		{
			"buffer":0,
			"byteLength":5148,
			"byteOffset":111036,
			"target":34962
		},
		{
			"buffer":0,
			"byteLength":5148,
			"byteOffset":116184,
			"target":34962
		},
		{
			"buffer":0,
			"byteLength":3432,
			"byteOffset":121332,
			"target":34962
		},
		{
			"buffer":0,
			"byteLength":1548,
			"byteOffset":124764,
			"target":34963
		},
		{
			"buffer":0,
			"byteLength":3168,
			"byteOffset":126312,
			"target":34962
		},
		{
			"buffer":0,
			"byteLength":3168,
			"byteOffset":129480,
			"target":34962
		},
		{
			"buffer":0,
			"byteLength":2112,
			"byteOffset":132648,
			"target":34962
		},
		{
			"buffer":0,
			"byteLength":816,
			"byteOffset":134760,
			"target":34963
		},
		{
			"buffer":0,
			"byteLength":100020,
			"byteOffset":135576,
			"target":34962
		},
		{
			"buffer":0,
			"byteLength":100020,
			"byteOffset":235596,
			"target":34962
		},
		{
			"buffer":0,
			"byteLength":66680,
			"byteOffset":335616,
			"target":34962
		},
		{
			"buffer":0,
			"byteLength":27060,
			"byteOffset":402296,
			"target":34963
		}
	],
	"samplers":[
		{
			"magFilter":9729,
			"minFilter":9987
		}
	],
	"buffers":[
		{
			"byteLength":429356,
			"uri":"mech_SM_Wep_GattlingGun_01.bin"
		}
	]
}
