{
	"asset":{
		"generator":"Khronos glTF Blender I/O v4.4.55",
		"version":"2.0"
	},
	"extensionsUsed":[
		"EXT_texture_webp"
	],
	"extensionsRequired":[
		"EXT_texture_webp"
	],
	"scene":0,
	"scenes":[
		{
			"name":"Scene",
			"nodes":[
				0
			]
		}
	],
	"nodes":[
		{
			"mesh":0,
			"name":"SM_Prop_ChargingCables_01",
			"rotation":[
				0.7071068286895752,
				0,
				0,
				0.7071068286895752
			],
			"scale":[
				0.009999999776482582,
				0.009999999776482582,
				0.009999999776482582
			]
		}
	],
	"materials":[
		{
			"doubleSided":true,
			"name":"lambert3",
			"pbrMetallicRoughness":{
				"baseColorTexture":{
					"index":0
				},
				"metallicFactor":0,
				"roughnessFactor":0.5527864098548889
			}
		}
	],
	"meshes":[
		{
			"name":"Mesh",
			"primitives":[
				{
					"attributes":{
						"POSITION":0,
						"NORMAL":1,
						"TEXCOORD_0":2
					},
					"indices":3,
					"material":0
				}
			]
		}
	],
	"textures":[
		{
			"extensions":{
				"EXT_texture_webp":{
					"source":0
				}
			},
			"sampler":0
		}
	],
	"images":[
		{
			"mimeType":"image/webp",
			"name":"PolygonMech_Texture_03_B",
			"uri":"PolygonMech_Texture_03_B.webp"
		}
	],
	"accessors":[
		{
			"bufferView":0,
			"componentType":5126,
			"count":2566,
			"max":[
				-17.12392234802246,
				522.293212890625,
				1.1973161697387695
			],
			"min":[
				-1214.4490966796875,
				-436.17333984375,
				-384.1750793457031
			],
			"type":"VEC3"
		},
		{
			"bufferView":1,
			"componentType":5126,
			"count":2566,
			"type":"VEC3"
		},
		{
			"bufferView":2,
			"componentType":5126,
			"count":2566,
			"type":"VEC2"
		},
		{
			"bufferView":3,
			"componentType":5123,
			"count":3870,
			"type":"SCALAR"
		}
	],
	"bufferViews":[
		{
			"buffer":0,
			"byteLength":30792,
			"byteOffset":0,
			"target":34962
		},
		{
			"buffer":0,
			"byteLength":30792,
			"byteOffset":30792,
			"target":34962
		},
		{
			"buffer":0,
			"byteLength":20528,
			"byteOffset":61584,
			"target":34962
		},
		{
			"buffer":0,
			"byteLength":7740,
			"byteOffset":82112,
			"target":34963
		}
	],
	"samplers":[
		{
			"magFilter":9729,
			"minFilter":9987
		}
	],
	"buffers":[
		{
			"byteLength":89852,
			"uri":"mech_SM_Prop_ChargingCables_01.bin"
		}
	]
}
