{
	"asset":{
		"generator":"Khronos glTF Blender I/O v4.4.55",
		"version":"2.0"
	},
	"extensionsUsed":[
		"EXT_texture_webp"
	],
	"extensionsRequired":[
		"EXT_texture_webp"
	],
	"scene":0,
	"scenes":[
		{
			"name":"Scene",
			"nodes":[
				0
			]
		}
	],
	"nodes":[
		{
			"mesh":0,
			"name":"SM_Mech_Head_01_Armor_Helmet_02",
			"rotation":[
				0.7071068286895752,
				0,
				0,
				0.7071068286895752
			],
			"scale":[
				0.009999999776482582,
				0.009999999776482582,
				0.009999999776482582
			]
		}
	],
	"materials":[
		{
			"doubleSided":true,
			"name":"lambert3",
			"pbrMetallicRoughness":{
				"baseColorTexture":{
					"index":0
				},
				"metallicFactor":0,
				"roughnessFactor":0.5527864098548889
			}
		}
	],
	"meshes":[
		{
			"name":"Mesh",
			"primitives":[
				{
					"attributes":{
						"POSITION":0,
						"NORMAL":1,
						"TEXCOORD_0":2
					},
					"indices":3,
					"material":0
				}
			]
		}
	],
	"textures":[
		{
			"extensions":{
				"EXT_texture_webp":{
					"source":0
				}
			},
			"sampler":0
		}
	],
	"images":[
		{
			"mimeType":"image/webp",
			"name":"PolygonMech_Texture_03_B",
			"uri":"PolygonMech_Texture_03_B.webp"
		}
	],
	"accessors":[
		{
			"bufferView":0,
			"componentType":5126,
			"count":5803,
			"max":[
				43.727294921875,
				66.98495483398438,
				25.12717056274414
			],
			"min":[
				-43.727294921875,
				-28.69125747680664,
				-68.63461303710938
			],
			"type":"VEC3"
		},
		{
			"bufferView":1,
			"componentType":5126,
			"count":5803,
			"type":"VEC3"
		},
		{
			"bufferView":2,
			"componentType":5126,
			"count":5803,
			"type":"VEC2"
		},
		{
			"bufferView":3,
			"componentType":5123,
			"count":9063,
			"type":"SCALAR"
		}
	],
	"bufferViews":[
		{
			"buffer":0,
			"byteLength":69636,
			"byteOffset":0,
			"target":34962
		},
		{
			"buffer":0,
			"byteLength":69636,
			"byteOffset":69636,
			"target":34962
		},
		{
			"buffer":0,
			"byteLength":46424,
			"byteOffset":139272,
			"target":34962
		},
		{
			"buffer":0,
			"byteLength":18126,
			"byteOffset":185696,
			"target":34963
		}
	],
	"samplers":[
		{
			"magFilter":9729,
			"minFilter":9987
		}
	],
	"buffers":[
		{
			"byteLength":203824,
			"uri":"mech_SM_Mech_Head_01_Armor_Helmet_02.bin"
		}
	]
}
