{
	"asset":{
		"generator":"Khronos glTF Blender I/O v4.4.55",
		"version":"2.0"
	},
	"extensionsUsed":[
		"EXT_texture_webp"
	],
	"extensionsRequired":[
		"EXT_texture_webp"
	],
	"scene":0,
	"scenes":[
		{
			"name":"Scene",
			"nodes":[
				1
			]
		}
	],
	"nodes":[
		{
			"mesh":0,
			"name":"SM_Mech_Cockpit_01_Monitor_01_Screen"
		},
		{
			"children":[
				0
			],
			"mesh":1,
			"name":"SM_Mech_Cockpit_01_Monitor_01",
			"rotation":[
				0.7071068286895752,
				0,
				0,
				0.7071068286895752
			],
			"scale":[
				0.009999999776482582,
				0.009999999776482582,
				0.009999999776482582
			]
		}
	],
	"materials":[
		{
			"doubleSided":true,
			"name":"lambert3",
			"pbrMetallicRoughness":{
				"baseColorTexture":{
					"index":0
				},
				"metallicFactor":0,
				"roughnessFactor":0.5527864098548889
			}
		}
	],
	"meshes":[
		{
			"name":"Mesh.001",
			"primitives":[
				{
					"attributes":{
						"POSITION":0,
						"NORMAL":1,
						"TEXCOORD_0":2
					},
					"indices":3,
					"material":0
				}
			]
		},
		{
			"name":"Mesh",
			"primitives":[
				{
					"attributes":{
						"POSITION":4,
						"NORMAL":5,
						"TEXCOORD_0":6
					},
					"indices":7,
					"material":0
				}
			]
		}
	],
	"textures":[
		{
			"extensions":{
				"EXT_texture_webp":{
					"source":0
				}
			},
			"sampler":0
		}
	],
	"images":[
		{
			"mimeType":"image/webp",
			"name":"PolygonMech_Texture_03_B",
			"uri":"PolygonMech_Texture_03_B.webp"
		}
	],
	"accessors":[
		{
			"bufferView":0,
			"componentType":5126,
			"count":156,
			"max":[
				24.257444381713867,
				1.4602694511413574,
				18.749685287475586
			],
			"min":[
				-23.932445526123047,
				-6.4288330078125,
				-2.9249267578125
			],
			"type":"VEC3"
		},
		{
			"bufferView":1,
			"componentType":5126,
			"count":156,
			"type":"VEC3"
		},
		{
			"bufferView":2,
			"componentType":5126,
			"count":156,
			"type":"VEC2"
		},
		{
			"bufferView":3,
			"componentType":5123,
			"count":264,
			"type":"SCALAR"
		},
		{
			"bufferView":4,
			"componentType":5126,
			"count":1616,
			"max":[
				26.700864791870117,
				14.428459167480469,
				20.328887939453125
			],
			"min":[
				-26.700864791870117,
				-7.895711898803711,
				-18.601715087890625
			],
			"type":"VEC3"
		},
		{
			"bufferView":5,
			"componentType":5126,
			"count":1616,
			"type":"VEC3"
		},
		{
			"bufferView":6,
			"componentType":5126,
			"count":1616,
			"type":"VEC2"
		},
		{
			"bufferView":7,
			"componentType":5123,
			"count":2472,
			"type":"SCALAR"
		}
	],
	"bufferViews":[
		{
			"buffer":0,
			"byteLength":1872,
			"byteOffset":0,
			"target":34962
		},
		{
			"buffer":0,
			"byteLength":1872,
			"byteOffset":1872,
			"target":34962
		},
		{
			"buffer":0,
			"byteLength":1248,
			"byteOffset":3744,
			"target":34962
		},
		{
			"buffer":0,
			"byteLength":528,
			"byteOffset":4992,
			"target":34963
		},
		{
			"buffer":0,
			"byteLength":19392,
			"byteOffset":5520,
			"target":34962
		},
		{
			"buffer":0,
			"byteLength":19392,
			"byteOffset":24912,
			"target":34962
		},
		{
			"buffer":0,
			"byteLength":12928,
			"byteOffset":44304,
			"target":34962
		},
		{
			"buffer":0,
			"byteLength":4944,
			"byteOffset":57232,
			"target":34963
		}
	],
	"samplers":[
		{
			"magFilter":9729,
			"minFilter":9987
		}
	],
	"buffers":[
		{
			"byteLength":62176,
			"uri":"mech_SM_Mech_Cockpit_01_Monitor_01.bin"
		}
	]
}
