{
	"asset":{
		"generator":"Khronos glTF Blender I/O v4.4.55",
		"version":"2.0"
	},
	"extensionsUsed":[
		"EXT_texture_webp"
	],
	"extensionsRequired":[
		"EXT_texture_webp"
	],
	"scene":0,
	"scenes":[
		{
			"name":"Scene",
			"nodes":[
				0
			]
		}
	],
	"nodes":[
		{
			"mesh":0,
			"name":"SM_Mech_Arm_01_Armor_Forearm_03",
			"rotation":[
				0.7071068286895752,
				0,
				0,
				0.7071068286895752
			],
			"scale":[
				0.009999999776482582,
				0.009999999776482582,
				0.009999999776482582
			]
		}
	],
	"materials":[
		{
			"doubleSided":true,
			"name":"lambert3",
			"pbrMetallicRoughness":{
				"baseColorTexture":{
					"index":0
				},
				"metallicFactor":0,
				"roughnessFactor":0.5527864098548889
			}
		}
	],
	"meshes":[
		{
			"name":"Mesh",
			"primitives":[
				{
					"attributes":{
						"POSITION":0,
						"NORMAL":1,
						"TEXCOORD_0":2
					},
					"indices":3,
					"material":0
				}
			]
		}
	],
	"textures":[
		{
			"extensions":{
				"EXT_texture_webp":{
					"source":0
				}
			},
			"sampler":0
		}
	],
	"images":[
		{
			"mimeType":"image/webp",
			"name":"PolygonMech_Texture_03_B",
			"uri":"PolygonMech_Texture_03_B.webp"
		}
	],
	"accessors":[
		{
			"bufferView":0,
			"componentType":5126,
			"count":2268,
			"max":[
				29.942108154296875,
				45.93927001953125,
				33.026824951171875
			],
			"min":[
				-31.191726684570312,
				-39.4195556640625,
				-38.925384521484375
			],
			"type":"VEC3"
		},
		{
			"bufferView":1,
			"componentType":5126,
			"count":2268,
			"type":"VEC3"
		},
		{
			"bufferView":2,
			"componentType":5126,
			"count":2268,
			"type":"VEC2"
		},
		{
			"bufferView":3,
			"componentType":5123,
			"count":3330,
			"type":"SCALAR"
		}
	],
	"bufferViews":[
		{
			"buffer":0,
			"byteLength":27216,
			"byteOffset":0,
			"target":34962
		},
		{
			"buffer":0,
			"byteLength":27216,
			"byteOffset":27216,
			"target":34962
		},
		{
			"buffer":0,
			"byteLength":18144,
			"byteOffset":54432,
			"target":34962
		},
		{
			"buffer":0,
			"byteLength":6660,
			"byteOffset":72576,
			"target":34963
		}
	],
	"samplers":[
		{
			"magFilter":9729,
			"minFilter":9987
		}
	],
	"buffers":[
		{
			"byteLength":79236,
			"uri":"mech_SM_Mech_Arm_01_Armor_Forearm_03.bin"
		}
	]
}
