{
	"asset":{
		"generator":"Khronos glTF Blender I/O v4.4.55",
		"version":"2.0"
	},
	"extensionsUsed":[
		"EXT_texture_webp"
	],
	"extensionsRequired":[
		"EXT_texture_webp"
	],
	"scene":0,
	"scenes":[
		{
			"name":"Scene",
			"nodes":[
				0
			]
		}
	],
	"nodes":[
		{
			"mesh":0,
			"name":"SM_Mech_Cockpit_01_Armor_Door_01",
			"rotation":[
				0.7071068286895752,
				0,
				0,
				0.7071068286895752
			],
			"scale":[
				0.009999999776482582,
				0.009999999776482582,
				0.009999999776482582
			]
		}
	],
	"materials":[
		{
			"doubleSided":true,
			"name":"lambert3",
			"pbrMetallicRoughness":{
				"baseColorTexture":{
					"index":0
				},
				"metallicFactor":0,
				"roughnessFactor":0.5527864098548889
			}
		}
	],
	"meshes":[
		{
			"name":"Mesh",
			"primitives":[
				{
					"attributes":{
						"POSITION":0,
						"NORMAL":1,
						"TEXCOORD_0":2,
						"TEXCOORD_1":3,
						"TEXCOORD_2":4,
						"TEXCOORD_3":5
					},
					"indices":6,
					"material":0
				}
			]
		}
	],
	"textures":[
		{
			"extensions":{
				"EXT_texture_webp":{
					"source":0
				}
			},
			"sampler":0
		}
	],
	"images":[
		{
			"mimeType":"image/webp",
			"name":"PolygonMech_Texture_03_B",
			"uri":"PolygonMech_Texture_03_B.webp"
		}
	],
	"accessors":[
		{
			"bufferView":0,
			"componentType":5126,
			"count":6691,
			"max":[
				55.34619140625,
				40.65570068359375,
				3.335235595703125
			],
			"min":[
				-55.34619140625,
				-11.791313171386719,
				-115.39462280273438
			],
			"type":"VEC3"
		},
		{
			"bufferView":1,
			"componentType":5126,
			"count":6691,
			"type":"VEC3"
		},
		{
			"bufferView":2,
			"componentType":5126,
			"count":6691,
			"type":"VEC2"
		},
		{
			"bufferView":3,
			"componentType":5126,
			"count":6691,
			"type":"VEC2"
		},
		{
			"bufferView":4,
			"componentType":5126,
			"count":6691,
			"type":"VEC2"
		},
		{
			"bufferView":5,
			"componentType":5126,
			"count":6691,
			"type":"VEC2"
		},
		{
			"bufferView":6,
			"componentType":5123,
			"count":11154,
			"type":"SCALAR"
		}
	],
	"bufferViews":[
		{
			"buffer":0,
			"byteLength":80292,
			"byteOffset":0,
			"target":34962
		},
		{
			"buffer":0,
			"byteLength":80292,
			"byteOffset":80292,
			"target":34962
		},
		{
			"buffer":0,
			"byteLength":53528,
			"byteOffset":160584,
			"target":34962
		},
		{
			"buffer":0,
			"byteLength":53528,
			"byteOffset":214112,
			"target":34962
		},
		{
			"buffer":0,
			"byteLength":53528,
			"byteOffset":267640,
			"target":34962
		},
		{
			"buffer":0,
			"byteLength":53528,
			"byteOffset":321168,
			"target":34962
		},
		{
			"buffer":0,
			"byteLength":22308,
			"byteOffset":374696,
			"target":34963
		}
	],
	"samplers":[
		{
			"magFilter":9729,
			"minFilter":9987
		}
	],
	"buffers":[
		{
			"byteLength":397004,
			"uri":"mech_SM_Mech_Cockpit_01_Armor_Door_01.bin"
		}
	]
}
