{
	"asset":{
		"generator":"Khronos glTF Blender I/O v4.4.55",
		"version":"2.0"
	},
	"extensionsUsed":[
		"EXT_texture_webp"
	],
	"extensionsRequired":[
		"EXT_texture_webp"
	],
	"scene":0,
	"scenes":[
		{
			"name":"Scene",
			"nodes":[
				0
			]
		}
	],
	"nodes":[
		{
			"mesh":0,
			"name":"SM_Mech_Hips_01_Armor_03",
			"rotation":[
				0.7071068286895752,
				0,
				0,
				0.7071068286895752
			],
			"scale":[
				0.009999999776482582,
				0.009999999776482582,
				0.009999999776482582
			]
		}
	],
	"materials":[
		{
			"doubleSided":true,
			"name":"lambert3",
			"pbrMetallicRoughness":{
				"baseColorTexture":{
					"index":0
				},
				"metallicFactor":0,
				"roughnessFactor":0.5527864098548889
			}
		}
	],
	"meshes":[
		{
			"name":"Mesh",
			"primitives":[
				{
					"attributes":{
						"POSITION":0,
						"NORMAL":1,
						"TEXCOORD_0":2,
						"TEXCOORD_1":3,
						"TEXCOORD_2":4,
						"TEXCOORD_3":5
					},
					"indices":6,
					"material":0
				}
			]
		}
	],
	"textures":[
		{
			"extensions":{
				"EXT_texture_webp":{
					"source":0
				}
			},
			"sampler":0
		}
	],
	"images":[
		{
			"mimeType":"image/webp",
			"name":"PolygonMech_Texture_03_B",
			"uri":"PolygonMech_Texture_03_B.webp"
		}
	],
	"accessors":[
		{
			"bufferView":0,
			"componentType":5126,
			"count":5462,
			"max":[
				43.16053009033203,
				41.76108169555664,
				33.22749328613281
			],
			"min":[
				-43.16053009033203,
				-44.97314453125,
				-73.3074951171875
			],
			"type":"VEC3"
		},
		{
			"bufferView":1,
			"componentType":5126,
			"count":5462,
			"type":"VEC3"
		},
		{
			"bufferView":2,
			"componentType":5126,
			"count":5462,
			"type":"VEC2"
		},
		{
			"bufferView":3,
			"componentType":5126,
			"count":5462,
			"type":"VEC2"
		},
		{
			"bufferView":4,
			"componentType":5126,
			"count":5462,
			"type":"VEC2"
		},
		{
			"bufferView":5,
			"componentType":5126,
			"count":5462,
			"type":"VEC2"
		},
		{
			"bufferView":6,
			"componentType":5123,
			"count":8598,
			"type":"SCALAR"
		}
	],
	"bufferViews":[
		{
			"buffer":0,
			"byteLength":65544,
			"byteOffset":0,
			"target":34962
		},
		{
			"buffer":0,
			"byteLength":65544,
			"byteOffset":65544,
			"target":34962
		},
		{
			"buffer":0,
			"byteLength":43696,
			"byteOffset":131088,
			"target":34962
		},
		{
			"buffer":0,
			"byteLength":43696,
			"byteOffset":174784,
			"target":34962
		},
		{
			"buffer":0,
			"byteLength":43696,
			"byteOffset":218480,
			"target":34962
		},
		{
			"buffer":0,
			"byteLength":43696,
			"byteOffset":262176,
			"target":34962
		},
		{
			"buffer":0,
			"byteLength":17196,
			"byteOffset":305872,
			"target":34963
		}
	],
	"samplers":[
		{
			"magFilter":9729,
			"minFilter":9987
		}
	],
	"buffers":[
		{
			"byteLength":323068,
			"uri":"mech_SM_Mech_Hips_01_Armor_03.bin"
		}
	]
}
