{
	"asset":{
		"generator":"Khronos glTF Blender I/O v4.4.55",
		"version":"2.0"
	},
	"extensionsUsed":[
		"EXT_texture_webp"
	],
	"extensionsRequired":[
		"EXT_texture_webp"
	],
	"scene":0,
	"scenes":[
		{
			"name":"Scene",
			"nodes":[
				0
			]
		}
	],
	"nodes":[
		{
			"mesh":0,
			"name":"SM_Mech_Leg_01_Armor_Kneepad_06",
			"rotation":[
				0.7071068286895752,
				0,
				0,
				0.7071068286895752
			],
			"scale":[
				0.009999999776482582,
				0.009999999776482582,
				0.009999999776482582
			]
		}
	],
	"materials":[
		{
			"doubleSided":true,
			"name":"lambert3",
			"pbrMetallicRoughness":{
				"baseColorTexture":{
					"index":0
				},
				"metallicFactor":0,
				"roughnessFactor":0.5527864098548889
			}
		}
	],
	"meshes":[
		{
			"name":"Mesh",
			"primitives":[
				{
					"attributes":{
						"POSITION":0,
						"NORMAL":1,
						"TEXCOORD_0":2
					},
					"indices":3,
					"material":0
				}
			]
		}
	],
	"textures":[
		{
			"extensions":{
				"EXT_texture_webp":{
					"source":0
				}
			},
			"sampler":0
		}
	],
	"images":[
		{
			"mimeType":"image/webp",
			"name":"PolygonMech_Texture_03_B",
			"uri":"PolygonMech_Texture_03_B.webp"
		}
	],
	"accessors":[
		{
			"bufferView":0,
			"componentType":5126,
			"count":1099,
			"max":[
				34.860084533691406,
				41.76960754394531,
				35.37528991699219
			],
			"min":[
				-33.49969482421875,
				-33.200103759765625,
				-37.736053466796875
			],
			"type":"VEC3"
		},
		{
			"bufferView":1,
			"componentType":5126,
			"count":1099,
			"type":"VEC3"
		},
		{
			"bufferView":2,
			"componentType":5126,
			"count":1099,
			"type":"VEC2"
		},
		{
			"bufferView":3,
			"componentType":5123,
			"count":1668,
			"type":"SCALAR"
		}
	],
	"bufferViews":[
		{
			"buffer":0,
			"byteLength":13188,
			"byteOffset":0,
			"target":34962
		},
		{
			"buffer":0,
			"byteLength":13188,
			"byteOffset":13188,
			"target":34962
		},
		{
			"buffer":0,
			"byteLength":8792,
			"byteOffset":26376,
			"target":34962
		},
		{
			"buffer":0,
			"byteLength":3336,
			"byteOffset":35168,
			"target":34963
		}
	],
	"samplers":[
		{
			"magFilter":9729,
			"minFilter":9987
		}
	],
	"buffers":[
		{
			"byteLength":38504,
			"uri":"mech_SM_Mech_Leg_01_Armor_Kneepad_06.bin"
		}
	]
}
