{
	"asset":{
		"generator":"Khronos glTF Blender I/O v4.4.55",
		"version":"2.0"
	},
	"extensionsUsed":[
		"EXT_texture_webp"
	],
	"extensionsRequired":[
		"EXT_texture_webp"
	],
	"scene":0,
	"scenes":[
		{
			"name":"Scene",
			"nodes":[
				0
			]
		}
	],
	"nodes":[
		{
			"mesh":0,
			"name":"SM_Wep_Hammer_01",
			"rotation":[
				0.7071068286895752,
				0,
				0,
				0.7071068286895752
			],
			"scale":[
				0.009999999776482582,
				0.009999999776482582,
				0.009999999776482582
			]
		}
	],
	"materials":[
		{
			"doubleSided":true,
			"name":"lambert8",
			"pbrMetallicRoughness":{
				"baseColorTexture":{
					"index":0
				},
				"metallicFactor":0,
				"roughnessFactor":0.5527864098548889
			}
		}
	],
	"meshes":[
		{
			"name":"Mesh",
			"primitives":[
				{
					"attributes":{
						"POSITION":0,
						"NORMAL":1,
						"TEXCOORD_0":2
					},
					"indices":3,
					"material":0
				}
			]
		}
	],
	"textures":[
		{
			"extensions":{
				"EXT_texture_webp":{
					"source":0
				}
			},
			"sampler":0
		}
	],
	"images":[
		{
			"mimeType":"image/webp",
			"name":"PolygonMech_Texture_02_C",
			"uri":"PolygonMech_Texture_02_C.webp"
		}
	],
	"accessors":[
		{
			"bufferView":0,
			"componentType":5126,
			"count":8464,
			"max":[
				41.12364196777344,
				88.2305908203125,
				84.33231353759766
			],
			"min":[
				-41.16522216796875,
				-87.69178009033203,
				-315.1243896484375
			],
			"type":"VEC3"
		},
		{
			"bufferView":1,
			"componentType":5126,
			"count":8464,
			"type":"VEC3"
		},
		{
			"bufferView":2,
			"componentType":5126,
			"count":8464,
			"type":"VEC2"
		},
		{
			"bufferView":3,
			"componentType":5123,
			"count":13188,
			"type":"SCALAR"
		}
	],
	"bufferViews":[
		{
			"buffer":0,
			"byteLength":101568,
			"byteOffset":0,
			"target":34962
		},
		{
			"buffer":0,
			"byteLength":101568,
			"byteOffset":101568,
			"target":34962
		},
		{
			"buffer":0,
			"byteLength":67712,
			"byteOffset":203136,
			"target":34962
		},
		{
			"buffer":0,
			"byteLength":26376,
			"byteOffset":270848,
			"target":34963
		}
	],
	"samplers":[
		{
			"magFilter":9729,
			"minFilter":9987
		}
	],
	"buffers":[
		{
			"byteLength":297224,
			"uri":"mech_SM_Wep_Hammer_01.bin"
		}
	]
}
