{
	"asset":{
		"generator":"Khronos glTF Blender I/O v4.4.55",
		"version":"2.0"
	},
	"extensionsUsed":[
		"EXT_texture_webp"
	],
	"extensionsRequired":[
		"EXT_texture_webp"
	],
	"scene":0,
	"scenes":[
		{
			"name":"Scene",
			"nodes":[
				0
			]
		}
	],
	"nodes":[
		{
			"mesh":0,
			"name":"SM_Mech_Arm_01_Armor_Shoulder_01",
			"rotation":[
				0.7071068286895752,
				0,
				0,
				0.7071068286895752
			],
			"scale":[
				0.009999999776482582,
				0.009999999776482582,
				0.009999999776482582
			]
		}
	],
	"materials":[
		{
			"doubleSided":true,
			"name":"lambert3",
			"pbrMetallicRoughness":{
				"baseColorTexture":{
					"index":0
				},
				"metallicFactor":0,
				"roughnessFactor":0.5527864098548889
			}
		}
	],
	"meshes":[
		{
			"name":"Mesh",
			"primitives":[
				{
					"attributes":{
						"POSITION":0,
						"NORMAL":1,
						"TEXCOORD_0":2
					},
					"indices":3,
					"material":0
				}
			]
		}
	],
	"textures":[
		{
			"extensions":{
				"EXT_texture_webp":{
					"source":0
				}
			},
			"sampler":0
		}
	],
	"images":[
		{
			"mimeType":"image/webp",
			"name":"PolygonMech_Texture_03_B",
			"uri":"PolygonMech_Texture_03_B.webp"
		}
	],
	"accessors":[
		{
			"bufferView":0,
			"componentType":5126,
			"count":1688,
			"max":[
				51.31761932373047,
				33.99652862548828,
				63.007904052734375
			],
			"min":[
				-51.22603988647461,
				-23.805273056030273,
				-30.644317626953125
			],
			"type":"VEC3"
		},
		{
			"bufferView":1,
			"componentType":5126,
			"count":1688,
			"type":"VEC3"
		},
		{
			"bufferView":2,
			"componentType":5126,
			"count":1688,
			"type":"VEC2"
		},
		{
			"bufferView":3,
			"componentType":5123,
			"count":2574,
			"type":"SCALAR"
		}
	],
	"bufferViews":[
		{
			"buffer":0,
			"byteLength":20256,
			"byteOffset":0,
			"target":34962
		},
		{
			"buffer":0,
			"byteLength":20256,
			"byteOffset":20256,
			"target":34962
		},
		{
			"buffer":0,
			"byteLength":13504,
			"byteOffset":40512,
			"target":34962
		},
		{
			"buffer":0,
			"byteLength":5148,
			"byteOffset":54016,
			"target":34963
		}
	],
	"samplers":[
		{
			"magFilter":9729,
			"minFilter":9987
		}
	],
	"buffers":[
		{
			"byteLength":59164,
			"uri":"mech_SM_Mech_Arm_01_Armor_Shoulder_01.bin"
		}
	]
}
