{
	"asset":{
		"generator":"Khronos glTF Blender I/O v4.4.55",
		"version":"2.0"
	},
	"extensionsUsed":[
		"EXT_texture_webp"
	],
	"extensionsRequired":[
		"EXT_texture_webp"
	],
	"scene":0,
	"scenes":[
		{
			"name":"Scene",
			"nodes":[
				0
			]
		}
	],
	"nodes":[
		{
			"mesh":0,
			"name":"SM_Mech_Arm_01_Weapon_Forearm_05",
			"rotation":[
				0.7071068286895752,
				0,
				0,
				0.7071068286895752
			],
			"scale":[
				0.009999999776482582,
				0.009999999776482582,
				0.009999999776482582
			]
		}
	],
	"materials":[
		{
			"doubleSided":true,
			"name":"lambert3",
			"pbrMetallicRoughness":{
				"baseColorTexture":{
					"index":0
				},
				"metallicFactor":0,
				"roughnessFactor":0.5527864098548889
			}
		}
	],
	"meshes":[
		{
			"name":"Mesh",
			"primitives":[
				{
					"attributes":{
						"POSITION":0,
						"NORMAL":1,
						"TEXCOORD_0":2
					},
					"indices":3,
					"material":0
				}
			]
		}
	],
	"textures":[
		{
			"extensions":{
				"EXT_texture_webp":{
					"source":0
				}
			},
			"sampler":0
		}
	],
	"images":[
		{
			"mimeType":"image/webp",
			"name":"PolygonMech_Texture_03_B",
			"uri":"PolygonMech_Texture_03_B.webp"
		}
	],
	"accessors":[
		{
			"bufferView":0,
			"componentType":5126,
			"count":2332,
			"max":[
				27.491561889648438,
				61.02850341796875,
				8.285430908203125
			],
			"min":[
				-27.4915771484375,
				-56.90972900390625,
				-53.318115234375
			],
			"type":"VEC3"
		},
		{
			"bufferView":1,
			"componentType":5126,
			"count":2332,
			"type":"VEC3"
		},
		{
			"bufferView":2,
			"componentType":5126,
			"count":2332,
			"type":"VEC2"
		},
		{
			"bufferView":3,
			"componentType":5123,
			"count":4026,
			"type":"SCALAR"
		}
	],
	"bufferViews":[
		{
			"buffer":0,
			"byteLength":27984,
			"byteOffset":0,
			"target":34962
		},
		{
			"buffer":0,
			"byteLength":27984,
			"byteOffset":27984,
			"target":34962
		},
		{
			"buffer":0,
			"byteLength":18656,
			"byteOffset":55968,
			"target":34962
		},
		{
			"buffer":0,
			"byteLength":8052,
			"byteOffset":74624,
			"target":34963
		}
	],
	"samplers":[
		{
			"magFilter":9729,
			"minFilter":9987
		}
	],
	"buffers":[
		{
			"byteLength":82676,
			"uri":"mech_SM_Mech_Arm_01_Weapon_Forearm_05.bin"
		}
	]
}
