{
	"asset":{
		"generator":"Khronos glTF Blender I/O v4.4.55",
		"version":"2.0"
	},
	"extensionsUsed":[
		"EXT_texture_webp"
	],
	"extensionsRequired":[
		"EXT_texture_webp"
	],
	"scene":0,
	"scenes":[
		{
			"name":"Scene",
			"nodes":[
				0
			]
		}
	],
	"nodes":[
		{
			"mesh":0,
			"name":"SM_Mech_Leg_01_Armor_Shinpad_01",
			"rotation":[
				0.7071068286895752,
				0,
				0,
				0.7071068286895752
			],
			"scale":[
				0.009999999776482582,
				0.009999999776482582,
				0.009999999776482582
			]
		}
	],
	"materials":[
		{
			"doubleSided":true,
			"name":"lambert3",
			"pbrMetallicRoughness":{
				"baseColorTexture":{
					"index":0
				},
				"metallicFactor":0,
				"roughnessFactor":0.5527864098548889
			}
		},
		{
			"doubleSided":true,
			"name":"Default_Material",
			"pbrMetallicRoughness":{
				"baseColorTexture":{
					"index":1
				},
				"metallicFactor":0,
				"roughnessFactor":0.5527864098548889
			}
		}
	],
	"meshes":[
		{
			"name":"Mesh",
			"primitives":[
				{
					"attributes":{
						"POSITION":0,
						"NORMAL":1,
						"TEXCOORD_0":2
					},
					"indices":3,
					"material":0
				},
				{
					"attributes":{
						"POSITION":4,
						"NORMAL":5,
						"TEXCOORD_0":6
					},
					"indices":7,
					"material":1
				}
			]
		}
	],
	"textures":[
		{
			"extensions":{
				"EXT_texture_webp":{
					"source":0
				}
			},
			"sampler":0
		},
		{
			"extensions":{
				"EXT_texture_webp":{
					"source":1
				}
			},
			"sampler":0
		}
	],
	"images":[
		{
			"mimeType":"image/webp",
			"name":"PolygonMech_Texture_03_B",
			"uri":"PolygonMech_Texture_03_B.webp"
		},
		{
			"mimeType":"image/webp",
			"name":"PolygonMech_Texture_01_A",
			"uri":"PolygonMech_Texture_01_A.webp"
		}
	],
	"accessors":[
		{
			"bufferView":0,
			"componentType":5126,
			"count":2230,
			"max":[
				32.49031066894531,
				29.685916900634766,
				30.54071044921875
			],
			"min":[
				-32.441688537597656,
				-56.128509521484375,
				-53.64222717285156
			],
			"type":"VEC3"
		},
		{
			"bufferView":1,
			"componentType":5126,
			"count":2230,
			"type":"VEC3"
		},
		{
			"bufferView":2,
			"componentType":5126,
			"count":2230,
			"type":"VEC2"
		},
		{
			"bufferView":3,
			"componentType":5123,
			"count":3324,
			"type":"SCALAR"
		},
		{
			"bufferView":4,
			"componentType":5126,
			"count":20,
			"max":[
				30.580013275146484,
				-18.66702651977539,
				-4.774543762207031
			],
			"min":[
				21.738304138183594,
				-42.107749938964844,
				-18.653228759765625
			],
			"type":"VEC3"
		},
		{
			"bufferView":5,
			"componentType":5126,
			"count":20,
			"type":"VEC3"
		},
		{
			"bufferView":6,
			"componentType":5126,
			"count":20,
			"type":"VEC2"
		},
		{
			"bufferView":7,
			"componentType":5123,
			"count":30,
			"type":"SCALAR"
		}
	],
	"bufferViews":[
		{
			"buffer":0,
			"byteLength":26760,
			"byteOffset":0,
			"target":34962
		},
		{
			"buffer":0,
			"byteLength":26760,
			"byteOffset":26760,
			"target":34962
		},
		{
			"buffer":0,
			"byteLength":17840,
			"byteOffset":53520,
			"target":34962
		},
		{
			"buffer":0,
			"byteLength":6648,
			"byteOffset":71360,
			"target":34963
		},
		{
			"buffer":0,
			"byteLength":240,
			"byteOffset":78008,
			"target":34962
		},
		{
			"buffer":0,
			"byteLength":240,
			"byteOffset":78248,
			"target":34962
		},
		{
			"buffer":0,
			"byteLength":160,
			"byteOffset":78488,
			"target":34962
		},
		{
			"buffer":0,
			"byteLength":60,
			"byteOffset":78648,
			"target":34963
		}
	],
	"samplers":[
		{
			"magFilter":9729,
			"minFilter":9987
		}
	],
	"buffers":[
		{
			"byteLength":78708,
			"uri":"mech_SM_Mech_Leg_01_Armor_Shinpad_01.bin"
		}
	]
}
