{
	"asset":{
		"generator":"Khronos glTF Blender I/O v4.4.55",
		"version":"2.0"
	},
	"extensionsUsed":[
		"EXT_texture_webp"
	],
	"extensionsRequired":[
		"EXT_texture_webp"
	],
	"scene":0,
	"scenes":[
		{
			"name":"Scene",
			"nodes":[
				0
			]
		}
	],
	"nodes":[
		{
			"mesh":0,
			"name":"SM_Mech_Foot_01_Armor_Heel_03",
			"rotation":[
				0.7071068286895752,
				0,
				0,
				0.7071068286895752
			],
			"scale":[
				0.009999999776482582,
				0.009999999776482582,
				0.009999999776482582
			]
		}
	],
	"materials":[
		{
			"doubleSided":true,
			"name":"lambert4",
			"pbrMetallicRoughness":{
				"baseColorTexture":{
					"index":0
				},
				"metallicFactor":0,
				"roughnessFactor":0.5527864098548889
			}
		}
	],
	"meshes":[
		{
			"name":"Mesh",
			"primitives":[
				{
					"attributes":{
						"POSITION":0,
						"NORMAL":1,
						"TEXCOORD_0":2
					},
					"indices":3,
					"material":0
				}
			]
		}
	],
	"textures":[
		{
			"extensions":{
				"EXT_texture_webp":{
					"source":0
				}
			},
			"sampler":0
		}
	],
	"images":[
		{
			"mimeType":"image/webp",
			"name":"PolygonMech_Texture_01_A",
			"uri":"PolygonMech_Texture_01_A.webp"
		}
	],
	"accessors":[
		{
			"bufferView":0,
			"componentType":5126,
			"count":1783,
			"max":[
				33.260826110839844,
				31.198644638061523,
				-0.05891263484954834
			],
			"min":[
				-33.260826110839844,
				-26.009185791015625,
				-40.04302215576172
			],
			"type":"VEC3"
		},
		{
			"bufferView":1,
			"componentType":5126,
			"count":1783,
			"type":"VEC3"
		},
		{
			"bufferView":2,
			"componentType":5126,
			"count":1783,
			"type":"VEC2"
		},
		{
			"bufferView":3,
			"componentType":5123,
			"count":2784,
			"type":"SCALAR"
		}
	],
	"bufferViews":[
		{
			"buffer":0,
			"byteLength":21396,
			"byteOffset":0,
			"target":34962
		},
		{
			"buffer":0,
			"byteLength":21396,
			"byteOffset":21396,
			"target":34962
		},
		{
			"buffer":0,
			"byteLength":14264,
			"byteOffset":42792,
			"target":34962
		},
		{
			"buffer":0,
			"byteLength":5568,
			"byteOffset":57056,
			"target":34963
		}
	],
	"samplers":[
		{
			"magFilter":9729,
			"minFilter":9987
		}
	],
	"buffers":[
		{
			"byteLength":62624,
			"uri":"mech_SM_Mech_Foot_01_Armor_Heel_03.bin"
		}
	]
}
