{
	"asset":{
		"generator":"Khronos glTF Blender I/O v4.4.55",
		"version":"2.0"
	},
	"extensionsUsed":[
		"EXT_texture_webp"
	],
	"extensionsRequired":[
		"EXT_texture_webp"
	],
	"scene":0,
	"scenes":[
		{
			"name":"Scene",
			"nodes":[
				0
			]
		}
	],
	"nodes":[
		{
			"mesh":0,
			"name":"SM_Mech_Neck_01_Armor_Collar_01",
			"rotation":[
				0.7071068286895752,
				0,
				0,
				0.7071068286895752
			],
			"scale":[
				0.009999999776482582,
				0.009999999776482582,
				0.009999999776482582
			]
		}
	],
	"materials":[
		{
			"doubleSided":true,
			"name":"lambert3",
			"pbrMetallicRoughness":{
				"baseColorTexture":{
					"index":0
				},
				"metallicFactor":0,
				"roughnessFactor":0.5527864098548889
			}
		}
	],
	"meshes":[
		{
			"name":"Mesh",
			"primitives":[
				{
					"attributes":{
						"POSITION":0,
						"NORMAL":1,
						"TEXCOORD_0":2,
						"TEXCOORD_1":3,
						"TEXCOORD_2":4,
						"TEXCOORD_3":5
					},
					"indices":6,
					"material":0
				}
			]
		}
	],
	"textures":[
		{
			"extensions":{
				"EXT_texture_webp":{
					"source":0
				}
			},
			"sampler":0
		}
	],
	"images":[
		{
			"mimeType":"image/webp",
			"name":"PolygonMech_Texture_03_B",
			"uri":"PolygonMech_Texture_03_B.webp"
		}
	],
	"accessors":[
		{
			"bufferView":0,
			"componentType":5126,
			"count":1340,
			"max":[
				54.412479400634766,
				52.194393157958984,
				49.733306884765625
			],
			"min":[
				-54.41252136230469,
				-55.9097900390625,
				-53.846343994140625
			],
			"type":"VEC3"
		},
		{
			"bufferView":1,
			"componentType":5126,
			"count":1340,
			"type":"VEC3"
		},
		{
			"bufferView":2,
			"componentType":5126,
			"count":1340,
			"type":"VEC2"
		},
		{
			"bufferView":3,
			"componentType":5126,
			"count":1340,
			"type":"VEC2"
		},
		{
			"bufferView":4,
			"componentType":5126,
			"count":1340,
			"type":"VEC2"
		},
		{
			"bufferView":5,
			"componentType":5126,
			"count":1340,
			"type":"VEC2"
		},
		{
			"bufferView":6,
			"componentType":5123,
			"count":1992,
			"type":"SCALAR"
		}
	],
	"bufferViews":[
		{
			"buffer":0,
			"byteLength":16080,
			"byteOffset":0,
			"target":34962
		},
		{
			"buffer":0,
			"byteLength":16080,
			"byteOffset":16080,
			"target":34962
		},
		{
			"buffer":0,
			"byteLength":10720,
			"byteOffset":32160,
			"target":34962
		},
		{
			"buffer":0,
			"byteLength":10720,
			"byteOffset":42880,
			"target":34962
		},
		{
			"buffer":0,
			"byteLength":10720,
			"byteOffset":53600,
			"target":34962
		},
		{
			"buffer":0,
			"byteLength":10720,
			"byteOffset":64320,
			"target":34962
		},
		{
			"buffer":0,
			"byteLength":3984,
			"byteOffset":75040,
			"target":34963
		}
	],
	"samplers":[
		{
			"magFilter":9729,
			"minFilter":9987
		}
	],
	"buffers":[
		{
			"byteLength":79024,
			"uri":"mech_SM_Mech_Neck_01_Armor_Collar_01.bin"
		}
	]
}
