{
	"asset":{
		"generator":"Khronos glTF Blender I/O v4.4.55",
		"version":"2.0"
	},
	"extensionsUsed":[
		"EXT_texture_webp"
	],
	"extensionsRequired":[
		"EXT_texture_webp"
	],
	"scene":0,
	"scenes":[
		{
			"name":"Scene",
			"nodes":[
				0
			]
		}
	],
	"nodes":[
		{
			"mesh":0,
			"name":"SM_Mech_Head_01_Armor_Helmet_06",
			"rotation":[
				0.7071068286895752,
				0,
				0,
				0.7071068286895752
			],
			"scale":[
				0.009999999776482582,
				0.009999999776482582,
				0.009999999776482582
			]
		}
	],
	"materials":[
		{
			"doubleSided":true,
			"name":"lambert4",
			"pbrMetallicRoughness":{
				"baseColorTexture":{
					"index":0
				},
				"metallicFactor":0,
				"roughnessFactor":0.5527864098548889
			}
		}
	],
	"meshes":[
		{
			"name":"Mesh",
			"primitives":[
				{
					"attributes":{
						"POSITION":0,
						"NORMAL":1,
						"TEXCOORD_0":2
					},
					"indices":3,
					"material":0
				}
			]
		}
	],
	"textures":[
		{
			"extensions":{
				"EXT_texture_webp":{
					"source":0
				}
			},
			"sampler":0
		}
	],
	"images":[
		{
			"mimeType":"image/webp",
			"name":"PolygonMech_Texture_03_B",
			"uri":"PolygonMech_Texture_03_B.webp"
		}
	],
	"accessors":[
		{
			"bufferView":0,
			"componentType":5126,
			"count":3014,
			"max":[
				41.96815490722656,
				61.358760833740234,
				17.924076080322266
			],
			"min":[
				-41.96815490722656,
				-21.759174346923828,
				-88.35891723632812
			],
			"type":"VEC3"
		},
		{
			"bufferView":1,
			"componentType":5126,
			"count":3014,
			"type":"VEC3"
		},
		{
			"bufferView":2,
			"componentType":5126,
			"count":3014,
			"type":"VEC2"
		},
		{
			"bufferView":3,
			"componentType":5123,
			"count":4698,
			"type":"SCALAR"
		}
	],
	"bufferViews":[
		{
			"buffer":0,
			"byteLength":36168,
			"byteOffset":0,
			"target":34962
		},
		{
			"buffer":0,
			"byteLength":36168,
			"byteOffset":36168,
			"target":34962
		},
		{
			"buffer":0,
			"byteLength":24112,
			"byteOffset":72336,
			"target":34962
		},
		{
			"buffer":0,
			"byteLength":9396,
			"byteOffset":96448,
			"target":34963
		}
	],
	"samplers":[
		{
			"magFilter":9729,
			"minFilter":9987
		}
	],
	"buffers":[
		{
			"byteLength":105844,
			"uri":"mech_SM_Mech_Head_01_Armor_Helmet_06.bin"
		}
	]
}
