{
	"asset":{
		"generator":"Khronos glTF Blender I/O v4.4.55",
		"version":"2.0"
	},
	"extensionsUsed":[
		"EXT_texture_webp"
	],
	"extensionsRequired":[
		"EXT_texture_webp"
	],
	"scene":0,
	"scenes":[
		{
			"name":"Scene",
			"nodes":[
				0
			]
		}
	],
	"nodes":[
		{
			"mesh":0,
			"name":"SM_Mech_Hips_01_Armor_02",
			"rotation":[
				0.7071068286895752,
				0,
				0,
				0.7071068286895752
			],
			"scale":[
				0.009999999776482582,
				0.009999999776482582,
				0.009999999776482582
			]
		}
	],
	"materials":[
		{
			"doubleSided":true,
			"name":"lambert3",
			"pbrMetallicRoughness":{
				"baseColorTexture":{
					"index":0
				},
				"metallicFactor":0,
				"roughnessFactor":0.5527864098548889
			}
		}
	],
	"meshes":[
		{
			"name":"Mesh",
			"primitives":[
				{
					"attributes":{
						"POSITION":0,
						"NORMAL":1,
						"TEXCOORD_0":2
					},
					"indices":3,
					"material":0
				}
			]
		}
	],
	"textures":[
		{
			"extensions":{
				"EXT_texture_webp":{
					"source":0
				}
			},
			"sampler":0
		}
	],
	"images":[
		{
			"mimeType":"image/webp",
			"name":"PolygonMech_Texture_03_B",
			"uri":"PolygonMech_Texture_03_B.webp"
		}
	],
	"accessors":[
		{
			"bufferView":0,
			"componentType":5126,
			"count":4619,
			"max":[
				27.615068435668945,
				47.0259895324707,
				39.933685302734375
			],
			"min":[
				-27.615068435668945,
				-49.70546340942383,
				-63.20574951171875
			],
			"type":"VEC3"
		},
		{
			"bufferView":1,
			"componentType":5126,
			"count":4619,
			"type":"VEC3"
		},
		{
			"bufferView":2,
			"componentType":5126,
			"count":4619,
			"type":"VEC2"
		},
		{
			"bufferView":3,
			"componentType":5123,
			"count":7350,
			"type":"SCALAR"
		}
	],
	"bufferViews":[
		{
			"buffer":0,
			"byteLength":55428,
			"byteOffset":0,
			"target":34962
		},
		{
			"buffer":0,
			"byteLength":55428,
			"byteOffset":55428,
			"target":34962
		},
		{
			"buffer":0,
			"byteLength":36952,
			"byteOffset":110856,
			"target":34962
		},
		{
			"buffer":0,
			"byteLength":14700,
			"byteOffset":147808,
			"target":34963
		}
	],
	"samplers":[
		{
			"magFilter":9729,
			"minFilter":9987
		}
	],
	"buffers":[
		{
			"byteLength":162508,
			"uri":"mech_SM_Mech_Hips_01_Armor_02.bin"
		}
	]
}
