{
	"asset":{
		"generator":"Khronos glTF Blender I/O v4.4.55",
		"version":"2.0"
	},
	"extensionsUsed":[
		"EXT_texture_webp"
	],
	"extensionsRequired":[
		"EXT_texture_webp"
	],
	"scene":0,
	"scenes":[
		{
			"name":"Scene",
			"nodes":[
				0
			]
		}
	],
	"nodes":[
		{
			"mesh":0,
			"name":"SM_Mech_Chest_01_Armor_Collar_03_Empty",
			"rotation":[
				0.7071068286895752,
				0,
				0,
				0.7071068286895752
			],
			"scale":[
				0.009999999776482582,
				0.009999999776482582,
				0.009999999776482582
			]
		}
	],
	"materials":[
		{
			"doubleSided":true,
			"name":"lambert3",
			"pbrMetallicRoughness":{
				"baseColorTexture":{
					"index":0
				},
				"metallicFactor":0,
				"roughnessFactor":0.5527864098548889
			}
		}
	],
	"meshes":[
		{
			"name":"Mesh",
			"primitives":[
				{
					"attributes":{
						"POSITION":0,
						"NORMAL":1,
						"TEXCOORD_0":2
					},
					"indices":3,
					"material":0
				}
			]
		}
	],
	"textures":[
		{
			"extensions":{
				"EXT_texture_webp":{
					"source":0
				}
			},
			"sampler":0
		}
	],
	"images":[
		{
			"mimeType":"image/webp",
			"name":"PolygonMech_Texture_03_B",
			"uri":"PolygonMech_Texture_03_B.webp"
		}
	],
	"accessors":[
		{
			"bufferView":0,
			"componentType":5126,
			"count":3613,
			"max":[
				35.98100280761719,
				66.44418334960938,
				17.692108154296875
			],
			"min":[
				-60.62702178955078,
				-57.4358024597168,
				-103.29840087890625
			],
			"type":"VEC3"
		},
		{
			"bufferView":1,
			"componentType":5126,
			"count":3613,
			"type":"VEC3"
		},
		{
			"bufferView":2,
			"componentType":5126,
			"count":3613,
			"type":"VEC2"
		},
		{
			"bufferView":3,
			"componentType":5123,
			"count":6069,
			"type":"SCALAR"
		}
	],
	"bufferViews":[
		{
			"buffer":0,
			"byteLength":43356,
			"byteOffset":0,
			"target":34962
		},
		{
			"buffer":0,
			"byteLength":43356,
			"byteOffset":43356,
			"target":34962
		},
		{
			"buffer":0,
			"byteLength":28904,
			"byteOffset":86712,
			"target":34962
		},
		{
			"buffer":0,
			"byteLength":12138,
			"byteOffset":115616,
			"target":34963
		}
	],
	"samplers":[
		{
			"magFilter":9729,
			"minFilter":9987
		}
	],
	"buffers":[
		{
			"byteLength":127756,
			"uri":"mech_SM_Mech_Chest_01_Armor_Collar_03_Empty.bin"
		}
	]
}
