{
	"asset":{
		"generator":"Khronos glTF Blender I/O v4.4.55",
		"version":"2.0"
	},
	"extensionsUsed":[
		"EXT_texture_webp"
	],
	"extensionsRequired":[
		"EXT_texture_webp"
	],
	"scene":0,
	"scenes":[
		{
			"name":"Scene",
			"nodes":[
				0
			]
		}
	],
	"nodes":[
		{
			"mesh":0,
			"name":"SM_Mech_Chest_01_Weapon_Collar_01",
			"rotation":[
				0.7071068286895752,
				0,
				0,
				0.7071068286895752
			],
			"scale":[
				0.009999999776482582,
				0.009999999776482582,
				0.009999999776482582
			]
		}
	],
	"materials":[
		{
			"doubleSided":true,
			"name":"lambert3",
			"pbrMetallicRoughness":{
				"baseColorTexture":{
					"index":0
				},
				"metallicFactor":0,
				"roughnessFactor":0.5527864098548889
			}
		}
	],
	"meshes":[
		{
			"name":"Mesh",
			"primitives":[
				{
					"attributes":{
						"POSITION":0,
						"NORMAL":1,
						"TEXCOORD_0":2
					},
					"indices":3,
					"material":0
				}
			]
		}
	],
	"textures":[
		{
			"extensions":{
				"EXT_texture_webp":{
					"source":0
				}
			},
			"sampler":0
		}
	],
	"images":[
		{
			"mimeType":"image/webp",
			"name":"PolygonMech_Texture_03_B",
			"uri":"PolygonMech_Texture_03_B.webp"
		}
	],
	"accessors":[
		{
			"bufferView":0,
			"componentType":5126,
			"count":2949,
			"max":[
				23.847267150878906,
				63.174949645996094,
				2.524991989135742
			],
			"min":[
				-24.35303497314453,
				-40.214115142822266,
				-51.478981018066406
			],
			"type":"VEC3"
		},
		{
			"bufferView":1,
			"componentType":5126,
			"count":2949,
			"type":"VEC3"
		},
		{
			"bufferView":2,
			"componentType":5126,
			"count":2949,
			"type":"VEC2"
		},
		{
			"bufferView":3,
			"componentType":5123,
			"count":4962,
			"type":"SCALAR"
		}
	],
	"bufferViews":[
		{
			"buffer":0,
			"byteLength":35388,
			"byteOffset":0,
			"target":34962
		},
		{
			"buffer":0,
			"byteLength":35388,
			"byteOffset":35388,
			"target":34962
		},
		{
			"buffer":0,
			"byteLength":23592,
			"byteOffset":70776,
			"target":34962
		},
		{
			"buffer":0,
			"byteLength":9924,
			"byteOffset":94368,
			"target":34963
		}
	],
	"samplers":[
		{
			"magFilter":9729,
			"minFilter":9987
		}
	],
	"buffers":[
		{
			"byteLength":104292,
			"uri":"mech_SM_Mech_Chest_01_Weapon_Collar_01.bin"
		}
	]
}
