{
	"asset":{
		"generator":"Khronos glTF Blender I/O v4.4.55",
		"version":"2.0"
	},
	"extensionsUsed":[
		"EXT_texture_webp"
	],
	"extensionsRequired":[
		"EXT_texture_webp"
	],
	"scene":0,
	"scenes":[
		{
			"name":"Scene",
			"nodes":[
				0
			]
		}
	],
	"nodes":[
		{
			"mesh":0,
			"name":"SM_Mech_Neck_01_Armor_Collar_03",
			"rotation":[
				0.7071068286895752,
				0,
				0,
				0.7071068286895752
			],
			"scale":[
				0.009999999776482582,
				0.009999999776482582,
				0.009999999776482582
			]
		}
	],
	"materials":[
		{
			"doubleSided":true,
			"name":"lambert3",
			"pbrMetallicRoughness":{
				"baseColorTexture":{
					"index":0
				},
				"metallicFactor":0,
				"roughnessFactor":0.5527864098548889
			}
		}
	],
	"meshes":[
		{
			"name":"Mesh",
			"primitives":[
				{
					"attributes":{
						"POSITION":0,
						"NORMAL":1,
						"TEXCOORD_0":2,
						"TEXCOORD_1":3,
						"TEXCOORD_2":4,
						"TEXCOORD_3":5
					},
					"indices":6,
					"material":0
				}
			]
		}
	],
	"textures":[
		{
			"extensions":{
				"EXT_texture_webp":{
					"source":0
				}
			},
			"sampler":0
		}
	],
	"images":[
		{
			"mimeType":"image/webp",
			"name":"PolygonMech_Texture_03_B",
			"uri":"PolygonMech_Texture_03_B.webp"
		}
	],
	"accessors":[
		{
			"bufferView":0,
			"componentType":5126,
			"count":2695,
			"max":[
				59.657291412353516,
				67.26341247558594,
				50.03668212890625
			],
			"min":[
				-59.657291412353516,
				-67.26341247558594,
				-55.953125
			],
			"type":"VEC3"
		},
		{
			"bufferView":1,
			"componentType":5126,
			"count":2695,
			"type":"VEC3"
		},
		{
			"bufferView":2,
			"componentType":5126,
			"count":2695,
			"type":"VEC2"
		},
		{
			"bufferView":3,
			"componentType":5126,
			"count":2695,
			"type":"VEC2"
		},
		{
			"bufferView":4,
			"componentType":5126,
			"count":2695,
			"type":"VEC2"
		},
		{
			"bufferView":5,
			"componentType":5126,
			"count":2695,
			"type":"VEC2"
		},
		{
			"bufferView":6,
			"componentType":5123,
			"count":4038,
			"type":"SCALAR"
		}
	],
	"bufferViews":[
		{
			"buffer":0,
			"byteLength":32340,
			"byteOffset":0,
			"target":34962
		},
		{
			"buffer":0,
			"byteLength":32340,
			"byteOffset":32340,
			"target":34962
		},
		{
			"buffer":0,
			"byteLength":21560,
			"byteOffset":64680,
			"target":34962
		},
		{
			"buffer":0,
			"byteLength":21560,
			"byteOffset":86240,
			"target":34962
		},
		{
			"buffer":0,
			"byteLength":21560,
			"byteOffset":107800,
			"target":34962
		},
		{
			"buffer":0,
			"byteLength":21560,
			"byteOffset":129360,
			"target":34962
		},
		{
			"buffer":0,
			"byteLength":8076,
			"byteOffset":150920,
			"target":34963
		}
	],
	"samplers":[
		{
			"magFilter":9729,
			"minFilter":9987
		}
	],
	"buffers":[
		{
			"byteLength":158996,
			"uri":"mech_SM_Mech_Neck_01_Armor_Collar_03.bin"
		}
	]
}
