{
	"asset":{
		"generator":"Khronos glTF Blender I/O v4.4.55",
		"version":"2.0"
	},
	"extensionsUsed":[
		"EXT_texture_webp"
	],
	"extensionsRequired":[
		"EXT_texture_webp"
	],
	"scene":0,
	"scenes":[
		{
			"name":"Scene",
			"nodes":[
				0
			]
		}
	],
	"nodes":[
		{
			"mesh":0,
			"name":"SM_Mech_Arm_01_Armor_Shoulder_02",
			"rotation":[
				0.7071068286895752,
				0,
				0,
				0.7071068286895752
			],
			"scale":[
				0.009999999776482582,
				0.009999999776482582,
				0.009999999776482582
			]
		}
	],
	"materials":[
		{
			"doubleSided":true,
			"name":"lambert3",
			"pbrMetallicRoughness":{
				"baseColorTexture":{
					"index":0
				},
				"metallicFactor":0,
				"roughnessFactor":0.5527864098548889
			}
		}
	],
	"meshes":[
		{
			"name":"Mesh",
			"primitives":[
				{
					"attributes":{
						"POSITION":0,
						"NORMAL":1,
						"TEXCOORD_0":2
					},
					"indices":3,
					"material":0
				}
			]
		}
	],
	"textures":[
		{
			"extensions":{
				"EXT_texture_webp":{
					"source":0
				}
			},
			"sampler":0
		}
	],
	"images":[
		{
			"mimeType":"image/webp",
			"name":"PolygonMech_Texture_03_B",
			"uri":"PolygonMech_Texture_03_B.webp"
		}
	],
	"accessors":[
		{
			"bufferView":0,
			"componentType":5126,
			"count":1978,
			"max":[
				34.820953369140625,
				16.250442504882812,
				76.759033203125
			],
			"min":[
				-33.24188232421875,
				-28.041030883789062,
				-65.2708740234375
			],
			"type":"VEC3"
		},
		{
			"bufferView":1,
			"componentType":5126,
			"count":1978,
			"type":"VEC3"
		},
		{
			"bufferView":2,
			"componentType":5126,
			"count":1978,
			"type":"VEC2"
		},
		{
			"bufferView":3,
			"componentType":5123,
			"count":3042,
			"type":"SCALAR"
		}
	],
	"bufferViews":[
		{
			"buffer":0,
			"byteLength":23736,
			"byteOffset":0,
			"target":34962
		},
		{
			"buffer":0,
			"byteLength":23736,
			"byteOffset":23736,
			"target":34962
		},
		{
			"buffer":0,
			"byteLength":15824,
			"byteOffset":47472,
			"target":34962
		},
		{
			"buffer":0,
			"byteLength":6084,
			"byteOffset":63296,
			"target":34963
		}
	],
	"samplers":[
		{
			"magFilter":9729,
			"minFilter":9987
		}
	],
	"buffers":[
		{
			"byteLength":69380,
			"uri":"mech_SM_Mech_Arm_01_Armor_Shoulder_02.bin"
		}
	]
}
