{
	"asset":{
		"generator":"Khronos glTF Blender I/O v4.4.55",
		"version":"2.0"
	},
	"extensionsUsed":[
		"EXT_texture_webp"
	],
	"extensionsRequired":[
		"EXT_texture_webp"
	],
	"scene":0,
	"scenes":[
		{
			"name":"Scene",
			"nodes":[
				0
			]
		}
	],
	"nodes":[
		{
			"mesh":0,
			"name":"SM_Mech_Head_01_Armor_Helmet_01",
			"rotation":[
				0.7071068286895752,
				0,
				0,
				0.7071068286895752
			],
			"scale":[
				0.009999999776482582,
				0.009999999776482582,
				0.009999999776482582
			]
		}
	],
	"materials":[
		{
			"doubleSided":true,
			"name":"lambert3",
			"pbrMetallicRoughness":{
				"baseColorTexture":{
					"index":0
				},
				"metallicFactor":0,
				"roughnessFactor":0.5527864098548889
			}
		}
	],
	"meshes":[
		{
			"name":"Mesh",
			"primitives":[
				{
					"attributes":{
						"POSITION":0,
						"NORMAL":1,
						"TEXCOORD_0":2
					},
					"indices":3,
					"material":0
				}
			]
		}
	],
	"textures":[
		{
			"extensions":{
				"EXT_texture_webp":{
					"source":0
				}
			},
			"sampler":0
		}
	],
	"images":[
		{
			"mimeType":"image/webp",
			"name":"PolygonMech_Texture_03_B",
			"uri":"PolygonMech_Texture_03_B.webp"
		}
	],
	"accessors":[
		{
			"bufferView":0,
			"componentType":5126,
			"count":4696,
			"max":[
				26.682621002197266,
				52.379798889160156,
				9.104461669921875
			],
			"min":[
				-26.682621002197266,
				-14.086103439331055,
				-52.611968994140625
			],
			"type":"VEC3"
		},
		{
			"bufferView":1,
			"componentType":5126,
			"count":4696,
			"type":"VEC3"
		},
		{
			"bufferView":2,
			"componentType":5126,
			"count":4696,
			"type":"VEC2"
		},
		{
			"bufferView":3,
			"componentType":5123,
			"count":7194,
			"type":"SCALAR"
		}
	],
	"bufferViews":[
		{
			"buffer":0,
			"byteLength":56352,
			"byteOffset":0,
			"target":34962
		},
		{
			"buffer":0,
			"byteLength":56352,
			"byteOffset":56352,
			"target":34962
		},
		{
			"buffer":0,
			"byteLength":37568,
			"byteOffset":112704,
			"target":34962
		},
		{
			"buffer":0,
			"byteLength":14388,
			"byteOffset":150272,
			"target":34963
		}
	],
	"samplers":[
		{
			"magFilter":9729,
			"minFilter":9987
		}
	],
	"buffers":[
		{
			"byteLength":164660,
			"uri":"mech_SM_Mech_Head_01_Armor_Helmet_01.bin"
		}
	]
}
