{
	"asset":{
		"generator":"Khronos glTF Blender I/O v4.4.55",
		"version":"2.0"
	},
	"extensionsUsed":[
		"EXT_texture_webp"
	],
	"extensionsRequired":[
		"EXT_texture_webp"
	],
	"scene":0,
	"scenes":[
		{
			"name":"Scene",
			"nodes":[
				0
			]
		}
	],
	"nodes":[
		{
			"mesh":0,
			"name":"SM_Mech_Arm_01_Weapon_Forearm_03",
			"rotation":[
				0.7071068286895752,
				0,
				0,
				0.7071068286895752
			],
			"scale":[
				0.009999999776482582,
				0.009999999776482582,
				0.009999999776482582
			]
		}
	],
	"materials":[
		{
			"doubleSided":true,
			"name":"lambert3",
			"pbrMetallicRoughness":{
				"baseColorTexture":{
					"index":0
				},
				"metallicFactor":0,
				"roughnessFactor":0.5527864098548889
			}
		}
	],
	"meshes":[
		{
			"name":"Mesh",
			"primitives":[
				{
					"attributes":{
						"POSITION":0,
						"NORMAL":1,
						"TEXCOORD_0":2
					},
					"indices":3,
					"material":0
				}
			]
		}
	],
	"textures":[
		{
			"extensions":{
				"EXT_texture_webp":{
					"source":0
				}
			},
			"sampler":0
		}
	],
	"images":[
		{
			"mimeType":"image/webp",
			"name":"PolygonMech_Texture_03_B",
			"uri":"PolygonMech_Texture_03_B.webp"
		}
	],
	"accessors":[
		{
			"bufferView":0,
			"componentType":5126,
			"count":3105,
			"max":[
				23.725784301757812,
				150.43536376953125,
				21.7371826171875
			],
			"min":[
				-23.725784301757812,
				-38.39190673828125,
				-56.9334716796875
			],
			"type":"VEC3"
		},
		{
			"bufferView":1,
			"componentType":5126,
			"count":3105,
			"type":"VEC3"
		},
		{
			"bufferView":2,
			"componentType":5126,
			"count":3105,
			"type":"VEC2"
		},
		{
			"bufferView":3,
			"componentType":5123,
			"count":5115,
			"type":"SCALAR"
		}
	],
	"bufferViews":[
		{
			"buffer":0,
			"byteLength":37260,
			"byteOffset":0,
			"target":34962
		},
		{
			"buffer":0,
			"byteLength":37260,
			"byteOffset":37260,
			"target":34962
		},
		{
			"buffer":0,
			"byteLength":24840,
			"byteOffset":74520,
			"target":34962
		},
		{
			"buffer":0,
			"byteLength":10230,
			"byteOffset":99360,
			"target":34963
		}
	],
	"samplers":[
		{
			"magFilter":9729,
			"minFilter":9987
		}
	],
	"buffers":[
		{
			"byteLength":109592,
			"uri":"mech_SM_Mech_Arm_01_Weapon_Forearm_03.bin"
		}
	]
}
