{
	"asset":{
		"generator":"Khronos glTF Blender I/O v4.4.55",
		"version":"2.0"
	},
	"extensionsUsed":[
		"EXT_texture_webp"
	],
	"extensionsRequired":[
		"EXT_texture_webp"
	],
	"scene":0,
	"scenes":[
		{
			"name":"Scene",
			"nodes":[
				0
			]
		}
	],
	"nodes":[
		{
			"mesh":0,
			"name":"SM_Mech_Arm_01_Armor_Forearm_05",
			"rotation":[
				0.7071068286895752,
				0,
				0,
				0.7071068286895752
			],
			"scale":[
				0.009999999776482582,
				0.009999999776482582,
				0.009999999776482582
			]
		}
	],
	"materials":[
		{
			"doubleSided":true,
			"name":"lambert3",
			"pbrMetallicRoughness":{
				"baseColorTexture":{
					"index":0
				},
				"metallicFactor":0,
				"roughnessFactor":0.5527864098548889
			}
		}
	],
	"meshes":[
		{
			"name":"Mesh",
			"primitives":[
				{
					"attributes":{
						"POSITION":0,
						"NORMAL":1,
						"TEXCOORD_0":2
					},
					"indices":3,
					"material":0
				}
			]
		}
	],
	"textures":[
		{
			"extensions":{
				"EXT_texture_webp":{
					"source":0
				}
			},
			"sampler":0
		}
	],
	"images":[
		{
			"mimeType":"image/webp",
			"name":"PolygonMech_Texture_03_B",
			"uri":"PolygonMech_Texture_03_B.webp"
		}
	],
	"accessors":[
		{
			"bufferView":0,
			"componentType":5126,
			"count":5057,
			"max":[
				31.741302490234375,
				61.124176025390625,
				44.152557373046875
			],
			"min":[
				-31.73906707763672,
				-61.999359130859375,
				-44.029541015625
			],
			"type":"VEC3"
		},
		{
			"bufferView":1,
			"componentType":5126,
			"count":5057,
			"type":"VEC3"
		},
		{
			"bufferView":2,
			"componentType":5126,
			"count":5057,
			"type":"VEC2"
		},
		{
			"bufferView":3,
			"componentType":5123,
			"count":8142,
			"type":"SCALAR"
		}
	],
	"bufferViews":[
		{
			"buffer":0,
			"byteLength":60684,
			"byteOffset":0,
			"target":34962
		},
		{
			"buffer":0,
			"byteLength":60684,
			"byteOffset":60684,
			"target":34962
		},
		{
			"buffer":0,
			"byteLength":40456,
			"byteOffset":121368,
			"target":34962
		},
		{
			"buffer":0,
			"byteLength":16284,
			"byteOffset":161824,
			"target":34963
		}
	],
	"samplers":[
		{
			"magFilter":9729,
			"minFilter":9987
		}
	],
	"buffers":[
		{
			"byteLength":178108,
			"uri":"mech_SM_Mech_Arm_01_Armor_Forearm_05.bin"
		}
	]
}
