{
	"asset":{
		"generator":"Khronos glTF Blender I/O v4.4.55",
		"version":"2.0"
	},
	"extensionsUsed":[
		"EXT_texture_webp"
	],
	"extensionsRequired":[
		"EXT_texture_webp"
	],
	"scene":0,
	"scenes":[
		{
			"name":"Scene",
			"nodes":[
				0
			]
		}
	],
	"nodes":[
		{
			"mesh":0,
			"name":"SM_Mech_Arm_01_Armor_Forearm_02",
			"rotation":[
				0.7071068286895752,
				0,
				0,
				0.7071068286895752
			],
			"scale":[
				0.009999999776482582,
				0.009999999776482582,
				0.009999999776482582
			]
		}
	],
	"materials":[
		{
			"doubleSided":true,
			"name":"lambert3",
			"pbrMetallicRoughness":{
				"baseColorTexture":{
					"index":0
				},
				"metallicFactor":0,
				"roughnessFactor":0.5527864098548889
			}
		}
	],
	"meshes":[
		{
			"name":"Mesh",
			"primitives":[
				{
					"attributes":{
						"POSITION":0,
						"NORMAL":1,
						"TEXCOORD_0":2
					},
					"indices":3,
					"material":0
				}
			]
		}
	],
	"textures":[
		{
			"extensions":{
				"EXT_texture_webp":{
					"source":0
				}
			},
			"sampler":0
		}
	],
	"images":[
		{
			"mimeType":"image/webp",
			"name":"PolygonMech_Texture_03_B",
			"uri":"PolygonMech_Texture_03_B.webp"
		}
	],
	"accessors":[
		{
			"bufferView":0,
			"componentType":5126,
			"count":4360,
			"max":[
				26.444393157958984,
				61.999359130859375,
				31.758056640625
			],
			"min":[
				-27.971500396728516,
				-56.83067321777344,
				-37.111175537109375
			],
			"type":"VEC3"
		},
		{
			"bufferView":1,
			"componentType":5126,
			"count":4360,
			"type":"VEC3"
		},
		{
			"bufferView":2,
			"componentType":5126,
			"count":4360,
			"type":"VEC2"
		},
		{
			"bufferView":3,
			"componentType":5123,
			"count":6990,
			"type":"SCALAR"
		}
	],
	"bufferViews":[
		{
			"buffer":0,
			"byteLength":52320,
			"byteOffset":0,
			"target":34962
		},
		{
			"buffer":0,
			"byteLength":52320,
			"byteOffset":52320,
			"target":34962
		},
		{
			"buffer":0,
			"byteLength":34880,
			"byteOffset":104640,
			"target":34962
		},
		{
			"buffer":0,
			"byteLength":13980,
			"byteOffset":139520,
			"target":34963
		}
	],
	"samplers":[
		{
			"magFilter":9729,
			"minFilter":9987
		}
	],
	"buffers":[
		{
			"byteLength":153500,
			"uri":"mech_SM_Mech_Arm_01_Armor_Forearm_02.bin"
		}
	]
}
