{
	"asset":{
		"generator":"Khronos glTF Blender I/O v4.4.55",
		"version":"2.0"
	},
	"extensionsUsed":[
		"EXT_texture_webp"
	],
	"extensionsRequired":[
		"EXT_texture_webp"
	],
	"scene":0,
	"scenes":[
		{
			"name":"Scene",
			"nodes":[
				6
			]
		}
	],
	"nodes":[
		{
			"mesh":0,
			"name":"SM_Mech_Cockpit_01_Joystick_L_01",
			"rotation":[
				-0.015216074883937836,
				0.8707563281059265,
				0.18614068627357483,
				0.45486655831336975
			],
			"translation":[
				29.24759292602539,
				16.614727020263672,
				-47.056758880615234
			]
		},
		{
			"mesh":1,
			"name":"SM_Mech_Cockpit_01_Joystick_R_01",
			"rotation":[
				0.7466835975646973,
				0.31132885813713074,
				-0.33197540044784546,
				0.4851086139678955
			],
			"translation":[
				-29.940214157104492,
				16.6147403717041,
				-47.05674743652344
			]
		},
		{
			"mesh":2,
			"name":"SM_Mech_Cockpit_01_Monitor_04"
		},
		{
			"children":[
				2
			],
			"mesh":3,
			"name":"SM_Mech_Cockpit_01_Monitor_03"
		},
		{
			"children":[
				3
			],
			"mesh":4,
			"name":"SM_Mech_Cockpit_01_Monitor_02"
		},
		{
			"children":[
				4
			],
			"mesh":5,
			"name":"SM_Mech_Cockpit_01_Monitor_01"
		},
		{
			"children":[
				0,
				1,
				5
			],
			"mesh":6,
			"name":"SM_Mech_Cockpit_01_Frame_01",
			"rotation":[
				0.7071068286895752,
				0,
				0,
				0.7071068286895752
			],
			"scale":[
				0.009999999776482582,
				0.009999999776482582,
				0.009999999776482582
			]
		}
	],
	"materials":[
		{
			"doubleSided":true,
			"name":"lambert3",
			"pbrMetallicRoughness":{
				"baseColorTexture":{
					"index":0
				},
				"metallicFactor":0,
				"roughnessFactor":0.5527864098548889
			}
		},
		{
			"doubleSided":true,
			"name":"mechAllParts_lambert3",
			"pbrMetallicRoughness":{
				"baseColorTexture":{
					"index":1
				},
				"metallicFactor":0,
				"roughnessFactor":0.5527864098548889
			}
		}
	],
	"meshes":[
		{
			"name":"Mesh.005",
			"primitives":[
				{
					"attributes":{
						"POSITION":0,
						"NORMAL":1,
						"TEXCOORD_0":2
					},
					"indices":3,
					"material":0
				}
			]
		},
		{
			"name":"Mesh.006",
			"primitives":[
				{
					"attributes":{
						"POSITION":4,
						"NORMAL":5,
						"TEXCOORD_0":6
					},
					"indices":7,
					"material":0
				}
			]
		},
		{
			"name":"Mesh.004",
			"primitives":[
				{
					"attributes":{
						"POSITION":8,
						"NORMAL":9,
						"TEXCOORD_0":10
					},
					"indices":11,
					"material":1
				}
			]
		},
		{
			"name":"Mesh.003",
			"primitives":[
				{
					"attributes":{
						"POSITION":12,
						"NORMAL":13,
						"TEXCOORD_0":14
					},
					"indices":15,
					"material":1
				}
			]
		},
		{
			"name":"Mesh.002",
			"primitives":[
				{
					"attributes":{
						"POSITION":16,
						"NORMAL":17,
						"TEXCOORD_0":18
					},
					"indices":19,
					"material":1
				}
			]
		},
		{
			"name":"Mesh.001",
			"primitives":[
				{
					"attributes":{
						"POSITION":20,
						"NORMAL":21,
						"TEXCOORD_0":22
					},
					"indices":23,
					"material":0
				},
				{
					"attributes":{
						"POSITION":24,
						"NORMAL":25,
						"TEXCOORD_0":26
					},
					"indices":27,
					"material":1
				}
			]
		},
		{
			"name":"Mesh",
			"primitives":[
				{
					"attributes":{
						"POSITION":28,
						"NORMAL":29,
						"TEXCOORD_0":30,
						"TEXCOORD_1":31,
						"TEXCOORD_2":32,
						"TEXCOORD_3":33
					},
					"indices":34,
					"material":1
				}
			]
		}
	],
	"textures":[
		{
			"extensions":{
				"EXT_texture_webp":{
					"source":0
				}
			},
			"sampler":0
		},
		{
			"extensions":{
				"EXT_texture_webp":{
					"source":1
				}
			},
			"sampler":0
		}
	],
	"images":[
		{
			"mimeType":"image/webp",
			"name":"PolygonMech_Texture_01_A",
			"uri":"PolygonMech_Texture_01_A.webp"
		},
		{
			"mimeType":"image/webp",
			"name":"PolygonMech_Texture_03_B",
			"uri":"PolygonMech_Texture_03_B.webp"
		}
	],
	"accessors":[
		{
			"bufferView":0,
			"componentType":5126,
			"count":492,
			"max":[
				20.666303634643555,
				3.903240203857422,
				3.787078857421875
			],
			"min":[
				-1.7152175903320312,
				-3.6486759185791016,
				-3.796661376953125
			],
			"type":"VEC3"
		},
		{
			"bufferView":1,
			"componentType":5126,
			"count":492,
			"type":"VEC3"
		},
		{
			"bufferView":2,
			"componentType":5126,
			"count":492,
			"type":"VEC2"
		},
		{
			"bufferView":3,
			"componentType":5123,
			"count":714,
			"type":"SCALAR"
		},
		{
			"bufferView":4,
			"componentType":5126,
			"count":492,
			"max":[
				20.666309356689453,
				3.7937660217285156,
				3.645477294921875
			],
			"min":[
				-1.715219497680664,
				-3.783572196960449,
				-3.9000244140625
			],
			"type":"VEC3"
		},
		{
			"bufferView":5,
			"componentType":5126,
			"count":492,
			"type":"VEC3"
		},
		{
			"bufferView":6,
			"componentType":5126,
			"count":492,
			"type":"VEC2"
		},
		{
			"bufferView":7,
			"componentType":5123,
			"count":714,
			"type":"SCALAR"
		},
		{
			"bufferView":8,
			"componentType":5126,
			"count":156,
			"max":[
				24.2574462890625,
				37.1412467956543,
				-77.9582748413086
			],
			"min":[
				-23.932443618774414,
				25.677248001098633,
				-99.6542739868164
			],
			"type":"VEC3"
		},
		{
			"bufferView":9,
			"componentType":5126,
			"count":156,
			"type":"VEC3"
		},
		{
			"bufferView":10,
			"componentType":5126,
			"count":156,
			"type":"VEC2"
		},
		{
			"bufferView":11,
			"componentType":5123,
			"count":264,
			"type":"SCALAR"
		},
		{
			"bufferView":12,
			"componentType":5126,
			"count":944,
			"max":[
				26.70086669921875,
				40.305152893066406,
				-76.24244689941406
			],
			"min":[
				-26.700862884521484,
				24.303421020507812,
				-101.59156799316406
			],
			"type":"VEC3"
		},
		{
			"bufferView":13,
			"componentType":5126,
			"count":944,
			"type":"VEC3"
		},
		{
			"bufferView":14,
			"componentType":5126,
			"count":944,
			"type":"VEC2"
		},
		{
			"bufferView":15,
			"componentType":5123,
			"count":1440,
			"type":"SCALAR"
		},
		{
			"bufferView":16,
			"componentType":5126,
			"count":478,
			"max":[
				3.5751821994781494,
				41.85678482055664,
				-98.88004302978516
			],
			"min":[
				-3.5751821994781494,
				36.2768669128418,
				-113.80714416503906
			],
			"type":"VEC3"
		},
		{
			"bufferView":17,
			"componentType":5126,
			"count":478,
			"type":"VEC3"
		},
		{
			"bufferView":18,
			"componentType":5126,
			"count":478,
			"type":"VEC2"
		},
		{
			"bufferView":19,
			"componentType":5123,
			"count":708,
			"type":"SCALAR"
		},
		{
			"bufferView":20,
			"componentType":5126,
			"count":272,
			"max":[
				3.5751821994781494,
				54.59947204589844,
				-103.19650268554688
			],
			"min":[
				-3.5751821994781494,
				50.440555572509766,
				-107.35537719726562
			],
			"type":"VEC3"
		},
		{
			"bufferView":21,
			"componentType":5126,
			"count":272,
			"type":"VEC3"
		},
		{
			"bufferView":22,
			"componentType":5126,
			"count":272,
			"type":"VEC2"
		},
		{
			"bufferView":23,
			"componentType":5123,
			"count":384,
			"type":"SCALAR"
		},
		{
			"bufferView":24,
			"componentType":5126,
			"count":206,
			"max":[
				2.164933204650879,
				52.579811096191406,
				-104.51612854003906
			],
			"min":[
				-2.164933204650879,
				39.64899826049805,
				-113.28839874267578
			],
			"type":"VEC3"
		},
		{
			"bufferView":25,
			"componentType":5126,
			"count":206,
			"type":"VEC3"
		},
		{
			"bufferView":26,
			"componentType":5126,
			"count":206,
			"type":"VEC2"
		},
		{
			"bufferView":27,
			"componentType":5123,
			"count":324,
			"type":"SCALAR"
		},
		{
			"bufferView":28,
			"componentType":5126,
			"count":11903,
			"max":[
				61.672367095947266,
				56.284324645996094,
				0
			],
			"min":[
				-61.67206954956055,
				-53.025482177734375,
				-149.64218139648438
			],
			"type":"VEC3"
		},
		{
			"bufferView":29,
			"componentType":5126,
			"count":11903,
			"type":"VEC3"
		},
		{
			"bufferView":30,
			"componentType":5126,
			"count":11903,
			"type":"VEC2"
		},
		{
			"bufferView":31,
			"componentType":5126,
			"count":11903,
			"type":"VEC2"
		},
		{
			"bufferView":32,
			"componentType":5126,
			"count":11903,
			"type":"VEC2"
		},
		{
			"bufferView":33,
			"componentType":5126,
			"count":11903,
			"type":"VEC2"
		},
		{
			"bufferView":34,
			"componentType":5123,
			"count":17928,
			"type":"SCALAR"
		}
	],
	"bufferViews":[
		{
			"buffer":0,
			"byteLength":5904,
			"byteOffset":0,
			"target":34962
		},
		{
			"buffer":0,
			"byteLength":5904,
			"byteOffset":5904,
			"target":34962
		},
		{
			"buffer":0,
			"byteLength":3936,
			"byteOffset":11808,
			"target":34962
		},
		{
			"buffer":0,
			"byteLength":1428,
			"byteOffset":15744,
			"target":34963
		},
		{
			"buffer":0,
			"byteLength":5904,
			"byteOffset":17172,
			"target":34962
		},
		{
			"buffer":0,
			"byteLength":5904,
			"byteOffset":23076,
			"target":34962
		},
		{
			"buffer":0,
			"byteLength":3936,
			"byteOffset":28980,
			"target":34962
		},
		{
			"buffer":0,
			"byteLength":1428,
			"byteOffset":32916,
			"target":34963
		},
		{
			"buffer":0,
			"byteLength":1872,
			"byteOffset":34344,
			"target":34962
		},
		{
			"buffer":0,
			"byteLength":1872,
			"byteOffset":36216,
			"target":34962
		},
		{
			"buffer":0,
			"byteLength":1248,
			"byteOffset":38088,
			"target":34962
		},
		{
			"buffer":0,
			"byteLength":528,
			"byteOffset":39336,
			"target":34963
		},
		{
			"buffer":0,
			"byteLength":11328,
			"byteOffset":39864,
			"target":34962
		},
		{
			"buffer":0,
			"byteLength":11328,
			"byteOffset":51192,
			"target":34962
		},
		{
			"buffer":0,
			"byteLength":7552,
			"byteOffset":62520,
			"target":34962
		},
		{
			"buffer":0,
			"byteLength":2880,
			"byteOffset":70072,
			"target":34963
		},
		{
			"buffer":0,
			"byteLength":5736,
			"byteOffset":72952,
			"target":34962
		},
		{
			"buffer":0,
			"byteLength":5736,
			"byteOffset":78688,
			"target":34962
		},
		{
			"buffer":0,
			"byteLength":3824,
			"byteOffset":84424,
			"target":34962
		},
		{
			"buffer":0,
			"byteLength":1416,
			"byteOffset":88248,
			"target":34963
		},
		{
			"buffer":0,
			"byteLength":3264,
			"byteOffset":89664,
			"target":34962
		},
		{
			"buffer":0,
			"byteLength":3264,
			"byteOffset":92928,
			"target":34962
		},
		{
			"buffer":0,
			"byteLength":2176,
			"byteOffset":96192,
			"target":34962
		},
		{
			"buffer":0,
			"byteLength":768,
			"byteOffset":98368,
			"target":34963
		},
		{
			"buffer":0,
			"byteLength":2472,
			"byteOffset":99136,
			"target":34962
		},
		{
			"buffer":0,
			"byteLength":2472,
			"byteOffset":101608,
			"target":34962
		},
		{
			"buffer":0,
			"byteLength":1648,
			"byteOffset":104080,
			"target":34962
		},
		{
			"buffer":0,
			"byteLength":648,
			"byteOffset":105728,
			"target":34963
		},
		{
			"buffer":0,
			"byteLength":142836,
			"byteOffset":106376,
			"target":34962
		},
		{
			"buffer":0,
			"byteLength":142836,
			"byteOffset":249212,
			"target":34962
		},
		{
			"buffer":0,
			"byteLength":95224,
			"byteOffset":392048,
			"target":34962
		},
		{
			"buffer":0,
			"byteLength":95224,
			"byteOffset":487272,
			"target":34962
		},
		{
			"buffer":0,
			"byteLength":95224,
			"byteOffset":582496,
			"target":34962
		},
		{
			"buffer":0,
			"byteLength":95224,
			"byteOffset":677720,
			"target":34962
		},
		{
			"buffer":0,
			"byteLength":35856,
			"byteOffset":772944,
			"target":34963
		}
	],
	"samplers":[
		{
			"magFilter":9729,
			"minFilter":9987
		}
	],
	"buffers":[
		{
			"byteLength":808800,
			"uri":"mech_SM_Mech_Cockpit_01_Frame_01.bin"
		}
	]
}
