{
	"asset":{
		"generator":"Khronos glTF Blender I/O v4.4.55",
		"version":"2.0"
	},
	"extensionsUsed":[
		"EXT_texture_webp"
	],
	"extensionsRequired":[
		"EXT_texture_webp"
	],
	"scene":0,
	"scenes":[
		{
			"name":"Scene",
			"nodes":[
				0
			]
		}
	],
	"nodes":[
		{
			"mesh":0,
			"name":"SM_Chr_Attach_Pouch_03",
			"rotation":[
				0.7071068286895752,
				0,
				0,
				0.7071068286895752
			],
			"scale":[
				0.009999999776482582,
				0.009999999776482582,
				0.009999999776482582
			]
		}
	],
	"materials":[
		{
			"doubleSided":true,
			"name":"pasted__Scifi_1a9",
			"pbrMetallicRoughness":{
				"baseColorTexture":{
					"index":0
				},
				"metallicFactor":0,
				"roughnessFactor":0.5527864098548889
			}
		}
	],
	"meshes":[
		{
			"name":"Mesh",
			"primitives":[
				{
					"attributes":{
						"POSITION":0,
						"NORMAL":1,
						"TEXCOORD_0":2,
						"TEXCOORD_1":3
					},
					"indices":4,
					"material":0
				}
			]
		}
	],
	"textures":[
		{
			"extensions":{
				"EXT_texture_webp":{
					"source":0
				}
			},
			"sampler":0
		}
	],
	"images":[
		{
			"mimeType":"image/webp",
			"name":"PolygonMech_Texture_01_A",
			"uri":"PolygonMech_Texture_01_A.webp"
		}
	],
	"accessors":[
		{
			"bufferView":0,
			"componentType":5126,
			"count":1556,
			"max":[
				10.606624603271484,
				4.110610485076904,
				7.116386413574219
			],
			"min":[
				-10.687682151794434,
				-3.5752601623535156,
				-7.0888214111328125
			],
			"type":"VEC3"
		},
		{
			"bufferView":1,
			"componentType":5126,
			"count":1556,
			"type":"VEC3"
		},
		{
			"bufferView":2,
			"componentType":5126,
			"count":1556,
			"type":"VEC2"
		},
		{
			"bufferView":3,
			"componentType":5126,
			"count":1556,
			"type":"VEC2"
		},
		{
			"bufferView":4,
			"componentType":5123,
			"count":2520,
			"type":"SCALAR"
		}
	],
	"bufferViews":[
		{
			"buffer":0,
			"byteLength":18672,
			"byteOffset":0,
			"target":34962
		},
		{
			"buffer":0,
			"byteLength":18672,
			"byteOffset":18672,
			"target":34962
		},
		{
			"buffer":0,
			"byteLength":12448,
			"byteOffset":37344,
			"target":34962
		},
		{
			"buffer":0,
			"byteLength":12448,
			"byteOffset":49792,
			"target":34962
		},
		{
			"buffer":0,
			"byteLength":5040,
			"byteOffset":62240,
			"target":34963
		}
	],
	"samplers":[
		{
			"magFilter":9729,
			"minFilter":9987
		}
	],
	"buffers":[
		{
			"byteLength":67280,
			"uri":"mech_SM_Chr_Attach_Pouch_03.bin"
		}
	]
}
