{
	"asset":{
		"generator":"Khronos glTF Blender I/O v4.4.55",
		"version":"2.0"
	},
	"extensionsUsed":[
		"EXT_texture_webp"
	],
	"extensionsRequired":[
		"EXT_texture_webp"
	],
	"scene":0,
	"scenes":[
		{
			"name":"Scene",
			"nodes":[
				0
			]
		}
	],
	"nodes":[
		{
			"mesh":0,
			"name":"SM_Mech_Chest_01_Armor_Collar_04",
			"rotation":[
				0.7071068286895752,
				0,
				0,
				0.7071068286895752
			],
			"scale":[
				0.009999999776482582,
				0.009999999776482582,
				0.009999999776482582
			]
		}
	],
	"materials":[
		{
			"doubleSided":true,
			"name":"lambert3",
			"pbrMetallicRoughness":{
				"baseColorTexture":{
					"index":0
				},
				"metallicFactor":0,
				"roughnessFactor":0.5527864098548889
			}
		}
	],
	"meshes":[
		{
			"name":"Mesh",
			"primitives":[
				{
					"attributes":{
						"POSITION":0,
						"NORMAL":1,
						"TEXCOORD_0":2
					},
					"indices":3,
					"material":0
				}
			]
		}
	],
	"textures":[
		{
			"extensions":{
				"EXT_texture_webp":{
					"source":0
				}
			},
			"sampler":0
		}
	],
	"images":[
		{
			"mimeType":"image/webp",
			"name":"PolygonMech_Texture_03_B",
			"uri":"PolygonMech_Texture_03_B.webp"
		}
	],
	"accessors":[
		{
			"bufferView":0,
			"componentType":5126,
			"count":878,
			"max":[
				27.81311798095703,
				62.999717712402344,
				21.498565673828125
			],
			"min":[
				-16.28307342529297,
				-49.909000396728516,
				-56.02691650390625
			],
			"type":"VEC3"
		},
		{
			"bufferView":1,
			"componentType":5126,
			"count":878,
			"type":"VEC3"
		},
		{
			"bufferView":2,
			"componentType":5126,
			"count":878,
			"type":"VEC2"
		},
		{
			"bufferView":3,
			"componentType":5123,
			"count":1401,
			"type":"SCALAR"
		}
	],
	"bufferViews":[
		{
			"buffer":0,
			"byteLength":10536,
			"byteOffset":0,
			"target":34962
		},
		{
			"buffer":0,
			"byteLength":10536,
			"byteOffset":10536,
			"target":34962
		},
		{
			"buffer":0,
			"byteLength":7024,
			"byteOffset":21072,
			"target":34962
		},
		{
			"buffer":0,
			"byteLength":2802,
			"byteOffset":28096,
			"target":34963
		}
	],
	"samplers":[
		{
			"magFilter":9729,
			"minFilter":9987
		}
	],
	"buffers":[
		{
			"byteLength":30900,
			"uri":"mech_SM_Mech_Chest_01_Armor_Collar_04.bin"
		}
	]
}
