{
	"asset":{
		"generator":"Khronos glTF Blender I/O v4.4.55",
		"version":"2.0"
	},
	"extensionsUsed":[
		"EXT_texture_webp"
	],
	"extensionsRequired":[
		"EXT_texture_webp"
	],
	"scene":0,
	"scenes":[
		{
			"name":"Scene",
			"nodes":[
				0
			]
		}
	],
	"nodes":[
		{
			"mesh":0,
			"name":"SM_Mech_Chest_01_Weapon_Collar_03",
			"rotation":[
				0.7071068286895752,
				0,
				0,
				0.7071068286895752
			],
			"scale":[
				0.009999999776482582,
				0.009999999776482582,
				0.009999999776482582
			]
		}
	],
	"materials":[
		{
			"doubleSided":true,
			"name":"pasted__lambert3",
			"pbrMetallicRoughness":{
				"baseColorTexture":{
					"index":0
				},
				"metallicFactor":0,
				"roughnessFactor":0.5527864098548889
			}
		}
	],
	"meshes":[
		{
			"name":"Mesh",
			"primitives":[
				{
					"attributes":{
						"POSITION":0,
						"NORMAL":1,
						"TEXCOORD_0":2
					},
					"indices":3,
					"material":0
				}
			]
		}
	],
	"textures":[
		{
			"extensions":{
				"EXT_texture_webp":{
					"source":0
				}
			},
			"sampler":0
		}
	],
	"images":[
		{
			"mimeType":"image/webp",
			"name":"PolygonMech_Texture_01_A",
			"uri":"PolygonMech_Texture_01_A.webp"
		}
	],
	"accessors":[
		{
			"bufferView":0,
			"componentType":5126,
			"count":2924,
			"max":[
				29.980178833007812,
				74.94544219970703,
				13.257171630859375
			],
			"min":[
				-27.187454223632812,
				-41.44729995727539,
				-72.34747314453125
			],
			"type":"VEC3"
		},
		{
			"bufferView":1,
			"componentType":5126,
			"count":2924,
			"type":"VEC3"
		},
		{
			"bufferView":2,
			"componentType":5126,
			"count":2924,
			"type":"VEC2"
		},
		{
			"bufferView":3,
			"componentType":5123,
			"count":4560,
			"type":"SCALAR"
		}
	],
	"bufferViews":[
		{
			"buffer":0,
			"byteLength":35088,
			"byteOffset":0,
			"target":34962
		},
		{
			"buffer":0,
			"byteLength":35088,
			"byteOffset":35088,
			"target":34962
		},
		{
			"buffer":0,
			"byteLength":23392,
			"byteOffset":70176,
			"target":34962
		},
		{
			"buffer":0,
			"byteLength":9120,
			"byteOffset":93568,
			"target":34963
		}
	],
	"samplers":[
		{
			"magFilter":9729,
			"minFilter":9987
		}
	],
	"buffers":[
		{
			"byteLength":102688,
			"uri":"mech_SM_Mech_Chest_01_Weapon_Collar_03.bin"
		}
	]
}
