{
	"asset":{
		"generator":"Khronos glTF Blender I/O v4.4.55",
		"version":"2.0"
	},
	"extensionsUsed":[
		"EXT_texture_webp"
	],
	"extensionsRequired":[
		"EXT_texture_webp"
	],
	"scene":0,
	"scenes":[
		{
			"name":"Scene",
			"nodes":[
				0
			]
		}
	],
	"nodes":[
		{
			"mesh":0,
			"name":"SM_Mech_Head_01_Armor_Helmet_05",
			"rotation":[
				0.7071068286895752,
				0,
				0,
				0.7071068286895752
			],
			"scale":[
				0.009999999776482582,
				0.009999999776482582,
				0.009999999776482582
			]
		}
	],
	"materials":[
		{
			"doubleSided":true,
			"name":"lambert3",
			"pbrMetallicRoughness":{
				"baseColorTexture":{
					"index":0
				},
				"metallicFactor":0,
				"roughnessFactor":0.5527864098548889
			}
		}
	],
	"meshes":[
		{
			"name":"Mesh",
			"primitives":[
				{
					"attributes":{
						"POSITION":0,
						"NORMAL":1,
						"TEXCOORD_0":2
					},
					"indices":3,
					"material":0
				}
			]
		}
	],
	"textures":[
		{
			"extensions":{
				"EXT_texture_webp":{
					"source":0
				}
			},
			"sampler":0
		}
	],
	"images":[
		{
			"mimeType":"image/webp",
			"name":"PolygonMech_Texture_03_B",
			"uri":"PolygonMech_Texture_03_B.webp"
		}
	],
	"accessors":[
		{
			"bufferView":0,
			"componentType":5126,
			"count":6770,
			"max":[
				35.55237579345703,
				51.35996627807617,
				24.75579833984375
			],
			"min":[
				-35.55237579345703,
				-13.066274642944336,
				-68.26333618164062
			],
			"type":"VEC3"
		},
		{
			"bufferView":1,
			"componentType":5126,
			"count":6770,
			"type":"VEC3"
		},
		{
			"bufferView":2,
			"componentType":5126,
			"count":6770,
			"type":"VEC2"
		},
		{
			"bufferView":3,
			"componentType":5123,
			"count":10719,
			"type":"SCALAR"
		}
	],
	"bufferViews":[
		{
			"buffer":0,
			"byteLength":81240,
			"byteOffset":0,
			"target":34962
		},
		{
			"buffer":0,
			"byteLength":81240,
			"byteOffset":81240,
			"target":34962
		},
		{
			"buffer":0,
			"byteLength":54160,
			"byteOffset":162480,
			"target":34962
		},
		{
			"buffer":0,
			"byteLength":21438,
			"byteOffset":216640,
			"target":34963
		}
	],
	"samplers":[
		{
			"magFilter":9729,
			"minFilter":9987
		}
	],
	"buffers":[
		{
			"byteLength":238080,
			"uri":"mech_SM_Mech_Head_01_Armor_Helmet_05.bin"
		}
	]
}
