{"asset":{"generator":"Khronos glTF Blender I/O v4.4.55","version":"2.0"},"extensionsUsed":["EXT_texture_webp"],"extensionsRequired":["EXT_texture_webp"],"scene":0,"scenes":[{"name":"Scene","nodes":[0]}],"nodes":[{"mesh":0,"name":"SM_Tree_Generic_Giant_01","rotation":[0.7071068286895752,0,0,0.7071068286895752],"scale":[0.009999999776482582,0.009999999776482582,0.009999999776482582]}],"materials":[{"doubleSided":true,"name":"Trunk","pbrMetallicRoughness":{"baseColorTexture":{"index":0},"metallicFactor":0}},{"alphaMode":"MASK","doubleSided":true,"name":"Leave","pbrMetallicRoughness":{"baseColorTexture":{"index":1},"metallicFactor":0},"alphaCutoff":0.5},{"alphaMode":"MASK","doubleSided":true,"name":"Leaves_Dead","pbrMetallicRoughness":{"baseColorTexture":{"index":2},"metallicFactor":0},"alphaCutoff":0.5}],"meshes":[{"name":"Mesh","primitives":[{"attributes":{"POSITION":0,"NORMAL":1,"TEXCOORD_0":2,"COLOR_0":3,"COLOR_1":4},"indices":5,"material":0},{"attributes":{"POSITION":6,"NORMAL":7,"TEXCOORD_0":8,"COLOR_0":9,"COLOR_1":10},"indices":11,"material":1},{"attributes":{"POSITION":12,"NORMAL":13,"TEXCOORD_0":14,"COLOR_0":15,"COLOR_1":16},"indices":17,"material":2}]}],"textures":[{"extensions":{"EXT_texture_webp":{"source":0}},"sampler":0},{"extensions":{"EXT_texture_webp":{"source":1}},"sampler":0},{"extensions":{"EXT_texture_webp":{"source":1}},"sampler":0}],"images":[{"mimeType":"image/webp","name":"PolygonNature_04","uri":"PolygonNature_04.webp"},{"mimeType":"image/webp","name":"Leaves_Generic_Texture","uri":"Leaves_Generic_Texture.webp"}],"accessors":[{"bufferView":0,"componentType":5126,"count":4980,"max":[551.55029296875,456.45751953125,114.27001953125],"min":[-459.820556640625,-574.8779296875,-799.32861328125],"type":"VEC3"},{"bufferView":1,"componentType":5126,"count":4980,"type":"VEC3"},{"bufferView":2,"componentType":5126,"count":4980,"type":"VEC2"},{"bufferView":3,"componentType":5121,"count":4980,"normalized":true,"type":"VEC4"},{"bufferView":4,"componentType":5123,"count":4980,"normalized":true,"type":"VEC4"},{"bufferView":5,"componentType":5123,"count":6762,"type":"SCALAR"},{"bufferView":6,"componentType":5126,"count":4242,"max":[593.294189453125,634.722900390625,-136.75035095214844],"min":[-651.0109252929688,-677.2815551757812,-1004.891357421875],"type":"VEC3"},{"bufferView":7,"componentType":5126,"count":4242,"type":"VEC3"},{"bufferView":8,"componentType":5126,"count":4242,"type":"VEC2"},{"bufferView":9,"componentType":5121,"count":4242,"normalized":true,"type":"VEC4"},{"bufferView":10,"componentType":5123,"count":4242,"normalized":true,"type":"VEC4"},{"bufferView":11,"componentType":5123,"count":9090,"type":"SCALAR"},{"bufferView":12,"componentType":5126,"count":240,"max":[609.415283203125,514.3875122070312,-55.77645492553711],"min":[-416.1756286621094,-659.3483276367188,-635.3015747070312],"type":"VEC3"},{"bufferView":13,"componentType":5126,"count":240,"type":"VEC3"},{"bufferView":14,"componentType":5126,"count":240,"type":"VEC2"},{"bufferView":15,"componentType":5121,"count":240,"normalized":true,"type":"VEC4"},{"bufferView":16,"componentType":5123,"count":240,"normalized":true,"type":"VEC4"},{"bufferView":17,"componentType":5123,"count":630,"type":"SCALAR"}],"bufferViews":[{"buffer":0,"byteLength":59760,"byteOffset":0,"target":34962},{"buffer":0,"byteLength":59760,"byteOffset":59760,"target":34962},{"buffer":0,"byteLength":39840,"byteOffset":119520,"target":34962},{"buffer":0,"byteLength":19920,"byteOffset":159360,"target":34962},{"buffer":0,"byteLength":39840,"byteOffset":179280,"target":34962},{"buffer":0,"byteLength":13524,"byteOffset":219120,"target":34963},{"buffer":0,"byteLength":50904,"byteOffset":232644,"target":34962},{"buffer":0,"byteLength":50904,"byteOffset":283548,"target":34962},{"buffer":0,"byteLength":33936,"byteOffset":334452,"target":34962},{"buffer":0,"byteLength":16968,"byteOffset":368388,"target":34962},{"buffer":0,"byteLength":33936,"byteOffset":385356,"target":34962},{"buffer":0,"byteLength":18180,"byteOffset":419292,"target":34963},{"buffer":0,"byteLength":2880,"byteOffset":437472,"target":34962},{"buffer":0,"byteLength":2880,"byteOffset":440352,"target":34962},{"buffer":0,"byteLength":1920,"byteOffset":443232,"target":34962},{"buffer":0,"byteLength":960,"byteOffset":445152,"target":34962},{"buffer":0,"byteLength":1920,"byteOffset":446112,"target":34962},{"buffer":0,"byteLength":1260,"byteOffset":448032,"target":34963}],"samplers":[{"magFilter":9729,"minFilter":9987}],"buffers":[{"byteLength":449292,"uri":"nature_SM_Tree_Generic_Giant_01.bin"}]}