{
	"asset":{
		"generator":"Khronos glTF Blender I/O v4.4.55",
		"version":"2.0"
	},
	"extensionsUsed":[
		"EXT_texture_webp"
	],
	"extensionsRequired":[
		"EXT_texture_webp"
	],
	"scene":0,
	"scenes":[
		{
			"name":"Scene",
			"nodes":[
				1
			]
		}
	],
	"nodes":[
		{
			"mesh":0,
			"name":"SM_Prop_Chest_Wood_Lid"
		},
		{
			"children":[
				0
			],
			"mesh":1,
			"name":"SM_Prop_Chest_Wood_01",
			"rotation":[
				0.7071068286895752,
				0,
				0,
				0.7071068286895752
			],
			"scale":[
				0.009999999776482582,
				0.009999999776482582,
				0.009999999776482582
			]
		}
	],
	"materials":[
		{
			"doubleSided":true,
			"name":"lambert2",
			"pbrMetallicRoughness":{
				"baseColorTexture":{
					"index":0
				},
				"metallicFactor":0
			}
		}
	],
	"meshes":[
		{
			"name":"Mesh.001",
			"primitives":[
				{
					"attributes":{
						"POSITION":0,
						"NORMAL":1,
						"TEXCOORD_0":2
					},
					"indices":3,
					"material":0
				}
			]
		},
		{
			"name":"Mesh",
			"primitives":[
				{
					"attributes":{
						"POSITION":4,
						"NORMAL":5,
						"TEXCOORD_0":6
					},
					"indices":7,
					"material":0
				}
			]
		}
	],
	"textures":[
		{
			"extensions":{
				"EXT_texture_webp":{
					"source":0
				}
			},
			"sampler":0
		}
	],
	"images":[
		{
			"mimeType":"image/webp",
			"name":"PolygonNature_04",
			"uri":"PolygonNature_04.webp"
		}
	],
	"accessors":[
		{
			"bufferView":0,
			"componentType":5126,
			"count":619,
			"max":[
				54.9870719909668,
				41.210365295410156,
				-37.0880012512207
			],
			"min":[
				-57.343017578125,
				-41.99319076538086,
				-67.92650604248047
			],
			"type":"VEC3"
		},
		{
			"bufferView":1,
			"componentType":5126,
			"count":619,
			"type":"VEC3"
		},
		{
			"bufferView":2,
			"componentType":5126,
			"count":619,
			"type":"VEC2"
		},
		{
			"bufferView":3,
			"componentType":5123,
			"count":1137,
			"type":"SCALAR"
		},
		{
			"bufferView":4,
			"componentType":5126,
			"count":738,
			"max":[
				58.237281799316406,
				40.50731658935547,
				0
			],
			"min":[
				-58.23721694946289,
				-40.50741195678711,
				-46.860801696777344
			],
			"type":"VEC3"
		},
		{
			"bufferView":5,
			"componentType":5126,
			"count":738,
			"type":"VEC3"
		},
		{
			"bufferView":6,
			"componentType":5126,
			"count":738,
			"type":"VEC2"
		},
		{
			"bufferView":7,
			"componentType":5123,
			"count":1236,
			"type":"SCALAR"
		}
	],
	"bufferViews":[
		{
			"buffer":0,
			"byteLength":7428,
			"byteOffset":0,
			"target":34962
		},
		{
			"buffer":0,
			"byteLength":7428,
			"byteOffset":7428,
			"target":34962
		},
		{
			"buffer":0,
			"byteLength":4952,
			"byteOffset":14856,
			"target":34962
		},
		{
			"buffer":0,
			"byteLength":2274,
			"byteOffset":19808,
			"target":34963
		},
		{
			"buffer":0,
			"byteLength":8856,
			"byteOffset":22084,
			"target":34962
		},
		{
			"buffer":0,
			"byteLength":8856,
			"byteOffset":30940,
			"target":34962
		},
		{
			"buffer":0,
			"byteLength":5904,
			"byteOffset":39796,
			"target":34962
		},
		{
			"buffer":0,
			"byteLength":2472,
			"byteOffset":45700,
			"target":34963
		}
	],
	"samplers":[
		{
			"magFilter":9729,
			"minFilter":9987
		}
	],
	"buffers":[
		{
			"byteLength":48172,
			"uri":"nature_SM_Prop_Chest_Wood_01.bin"
		}
	]
}
