{
	"asset":{
		"generator":"Khronos glTF Blender I/O v4.4.55",
		"version":"2.0"
	},
	"extensionsUsed":[
		"EXT_texture_webp"
	],
	"extensionsRequired":[
		"EXT_texture_webp"
	],
	"scene":0,
	"scenes":[
		{
			"name":"Scene",
			"nodes":[
				0
			]
		}
	],
	"nodes":[
		{
			"mesh":0,
			"name":"SM_Rock_Cluster_Large_06",
			"rotation":[
				0.7071068286895752,
				0,
				0,
				0.7071068286895752
			],
			"scale":[
				0.009999999776482582,
				0.009999999776482582,
				0.009999999776482582
			]
		}
	],
	"materials":[
		{
			"doubleSided":true,
			"name":"lambert1",
			"pbrMetallicRoughness":{
				"baseColorTexture":{
					"index":0
				},
				"metallicFactor":0
			}
		}
	],
	"meshes":[
		{
			"name":"Mesh",
			"primitives":[
				{
					"attributes":{
						"POSITION":0,
						"NORMAL":1,
						"TEXCOORD_0":2
					},
					"indices":3,
					"material":0
				}
			]
		}
	],
	"textures":[
		{
			"extensions":{
				"EXT_texture_webp":{
					"source":0
				}
			},
			"sampler":0
		}
	],
	"images":[
		{
			"mimeType":"image/webp",
			"name":"PolygonNature_04",
			"uri":"PolygonNature_04.webp"
		}
	],
	"accessors":[
		{
			"bufferView":0,
			"componentType":5126,
			"count":5724,
			"max":[
				1374.81982421875,
				1947.2652587890625,
				266.9201965332031
			],
			"min":[
				-1374.8201904296875,
				-1947.2647705078125,
				-572.209716796875
			],
			"type":"VEC3"
		},
		{
			"bufferView":1,
			"componentType":5126,
			"count":5724,
			"type":"VEC3"
		},
		{
			"bufferView":2,
			"componentType":5126,
			"count":5724,
			"type":"VEC2"
		},
		{
			"bufferView":3,
			"componentType":5123,
			"count":6000,
			"type":"SCALAR"
		}
	],
	"bufferViews":[
		{
			"buffer":0,
			"byteLength":68688,
			"byteOffset":0,
			"target":34962
		},
		{
			"buffer":0,
			"byteLength":68688,
			"byteOffset":68688,
			"target":34962
		},
		{
			"buffer":0,
			"byteLength":45792,
			"byteOffset":137376,
			"target":34962
		},
		{
			"buffer":0,
			"byteLength":12000,
			"byteOffset":183168,
			"target":34963
		}
	],
	"samplers":[
		{
			"magFilter":9729,
			"minFilter":9987
		}
	],
	"buffers":[
		{
			"byteLength":195168,
			"uri":"nature_SM_Rock_Cluster_Large_06.bin"
		}
	]
}
