{"asset":{"generator":"Khronos glTF Blender I/O v4.4.55","version":"2.0"},"extensionsUsed":["KHR_materials_specular","EXT_texture_webp"],"extensionsRequired":["EXT_texture_webp"],"scene":0,"scenes":[{"name":"Scene","nodes":[0]}],"nodes":[{"mesh":0,"name":"SM_Tree_Vines_02","rotation":[0.7071068286895752,0,0,0.7071068286895752],"scale":[0.009999999776482582,0.009999999776482582,0.009999999776482582]}],"materials":[{"alphaMode":"MASK","doubleSided":true,"extensions":{"KHR_materials_specular":{"specularColorFactor":[2.0,2.0,2.0]}},"name":"Texture_0109","pbrMetallicRoughness":{"baseColorTexture":{"index":0},"metallicFactor":0},"alphaCutoff":0.5}],"meshes":[{"name":"Mesh","primitives":[{"attributes":{"POSITION":0,"NORMAL":1,"TEXCOORD_0":2,"COLOR_0":3,"COLOR_1":4},"indices":5,"material":0}]}],"textures":[{"extensions":{"EXT_texture_webp":{"source":0}},"sampler":0}],"images":[{"mimeType":"image/webp","name":"PolygonNature_04","uri":"PolygonNature_04.webp"}],"accessors":[{"bufferView":0,"componentType":5126,"count":64,"max":[4.989516735076904,7.026655673980713,304.7257080078125],"min":[-8.109331130981445,-3.5946435928344727,0],"type":"VEC3"},{"bufferView":1,"componentType":5126,"count":64,"type":"VEC3"},{"bufferView":2,"componentType":5126,"count":64,"type":"VEC2"},{"bufferView":3,"componentType":5121,"count":64,"normalized":true,"type":"VEC4"},{"bufferView":4,"componentType":5123,"count":64,"normalized":true,"type":"VEC4"},{"bufferView":5,"componentType":5123,"count":156,"type":"SCALAR"}],"bufferViews":[{"buffer":0,"byteLength":768,"byteOffset":0,"target":34962},{"buffer":0,"byteLength":768,"byteOffset":768,"target":34962},{"buffer":0,"byteLength":512,"byteOffset":1536,"target":34962},{"buffer":0,"byteLength":256,"byteOffset":2048,"target":34962},{"buffer":0,"byteLength":512,"byteOffset":2304,"target":34962},{"buffer":0,"byteLength":312,"byteOffset":2816,"target":34963}],"samplers":[{"magFilter":9729,"minFilter":9987}],"buffers":[{"byteLength":3128,"uri":"nature_SM_Tree_Vines_02.bin"}]}