{
	"asset":{
		"generator":"Khronos glTF Blender I/O v4.4.55",
		"version":"2.0"
	},
	"scene":0,
	"scenes":[
		{
			"name":"Scene",
			"nodes":[
				0
			]
		}
	],
	"nodes":[
		{
			"mesh":0,
			"name":"SM_Plant_Mushrooms_05",
			"rotation":[
				0.7071068286895752,
				0,
				0,
				0.7071068286895752
			],
			"scale":[
				0.009999999776482582,
				0.009999999776482582,
				0.009999999776482582
			]
		}
	],
	"materials":[
		{
			"doubleSided":true,
			"name":"lambert1",
			"pbrMetallicRoughness":{
				"metallicFactor":0
			}
		}
	],
	"meshes":[
		{
			"name":"Mesh",
			"primitives":[
				{
					"attributes":{
						"POSITION":0,
						"NORMAL":1,
						"TEXCOORD_0":2
					},
					"indices":3,
					"material":0
				}
			]
		}
	],
	"accessors":[
		{
			"bufferView":0,
			"componentType":5126,
			"count":572,
			"max":[
				19.199520111083984,
				17.397775650024414,
				14.554547309875488
			],
			"min":[
				-19.199520111083984,
				-17.39777374267578,
				-33.14271545410156
			],
			"type":"VEC3"
		},
		{
			"bufferView":1,
			"componentType":5126,
			"count":572,
			"type":"VEC3"
		},
		{
			"bufferView":2,
			"componentType":5126,
			"count":572,
			"type":"VEC2"
		},
		{
			"bufferView":3,
			"componentType":5123,
			"count":618,
			"type":"SCALAR"
		}
	],
	"bufferViews":[
		{
			"buffer":0,
			"byteLength":6864,
			"byteOffset":0,
			"target":34962
		},
		{
			"buffer":0,
			"byteLength":6864,
			"byteOffset":6864,
			"target":34962
		},
		{
			"buffer":0,
			"byteLength":4576,
			"byteOffset":13728,
			"target":34962
		},
		{
			"buffer":0,
			"byteLength":1236,
			"byteOffset":18304,
			"target":34963
		}
	],
	"buffers":[
		{
			"byteLength":19540,
			"uri":"nature_SM_Plant_Mushrooms_05.bin"
		}
	]
}
