{
	"asset":{
		"generator":"Khronos glTF Blender I/O v4.4.55",
		"version":"2.0"
	},
	"extensionsUsed":[
		"EXT_texture_webp"
	],
	"extensionsRequired":[
		"EXT_texture_webp"
	],
	"scene":0,
	"scenes":[
		{
			"name":"Scene",
			"nodes":[
				0
			]
		}
	],
	"nodes":[
		{
			"mesh":0,
			"name":"SM_Tree_Pine_01",
			"rotation":[
				0.7071068286895752,
				0,
				0,
				0.7071068286895752
			],
			"scale":[
				0.009999999776482582,
				0.009999999776482582,
				0.009999999776482582
			]
		}
	],
	"materials":[
		{
			"doubleSided":true,
			"name":"Trunk",
			"pbrMetallicRoughness":{
				"baseColorTexture":{
					"index":0
				},
				"metallicFactor":0
			}
		},
		{
			"doubleSided":true,
			"name":"Leave",
			"pbrMetallicRoughness":{
				"baseColorTexture":{
					"index":1
				},
				"metallicFactor":0
			}
		}
	],
	"meshes":[
		{
			"name":"Mesh",
			"primitives":[
				{
					"attributes":{
						"POSITION":0,
						"NORMAL":1,
						"TEXCOORD_0":2,
						"COLOR_0":3,
						"COLOR_1":4
					},
					"indices":5,
					"material":0
				},
				{
					"attributes":{
						"POSITION":6,
						"NORMAL":7,
						"TEXCOORD_0":8,
						"COLOR_0":9,
						"COLOR_1":10
					},
					"indices":11,
					"material":1
				}
			]
		}
	],
	"textures":[
		{
			"extensions":{
				"EXT_texture_webp":{
					"source":0
				}
			},
			"sampler":0
		},
		{
			"extensions":{
				"EXT_texture_webp":{
					"source":0
				}
			},
			"sampler":0
		}
	],
	"images":[
		{
			"mimeType":"image/webp",
			"name":"PolygonNature_04",
			"uri":"PolygonNature_04.webp"
		}
	],
	"accessors":[
		{
			"bufferView":0,
			"componentType":5126,
			"count":167,
			"max":[
				18.875598907470703,
				18.875635147094727,
				0
			],
			"min":[
				-18.875598907470703,
				-18.875635147094727,
				-560.9779663085938
			],
			"type":"VEC3"
		},
		{
			"bufferView":1,
			"componentType":5126,
			"count":167,
			"type":"VEC3"
		},
		{
			"bufferView":2,
			"componentType":5126,
			"count":167,
			"type":"VEC2"
		},
		{
			"bufferView":3,
			"componentType":5121,
			"count":167,
			"normalized":true,
			"type":"VEC4"
		},
		{
			"bufferView":4,
			"componentType":5123,
			"count":167,
			"normalized":true,
			"type":"VEC4"
		},
		{
			"bufferView":5,
			"componentType":5123,
			"count":252,
			"type":"SCALAR"
		},
		{
			"bufferView":6,
			"componentType":5126,
			"count":551,
			"max":[
				155.5217742919922,
				157.75875854492188,
				-70.7110366821289
			],
			"min":[
				-158.0535888671875,
				-158.8353271484375,
				-568.3201904296875
			],
			"type":"VEC3"
		},
		{
			"bufferView":7,
			"componentType":5126,
			"count":551,
			"type":"VEC3"
		},
		{
			"bufferView":8,
			"componentType":5126,
			"count":551,
			"type":"VEC2"
		},
		{
			"bufferView":9,
			"componentType":5121,
			"count":551,
			"normalized":true,
			"type":"VEC4"
		},
		{
			"bufferView":10,
			"componentType":5123,
			"count":551,
			"normalized":true,
			"type":"VEC4"
		},
		{
			"bufferView":11,
			"componentType":5123,
			"count":1692,
			"type":"SCALAR"
		}
	],
	"bufferViews":[
		{
			"buffer":0,
			"byteLength":2004,
			"byteOffset":0,
			"target":34962
		},
		{
			"buffer":0,
			"byteLength":2004,
			"byteOffset":2004,
			"target":34962
		},
		{
			"buffer":0,
			"byteLength":1336,
			"byteOffset":4008,
			"target":34962
		},
		{
			"buffer":0,
			"byteLength":668,
			"byteOffset":5344,
			"target":34962
		},
		{
			"buffer":0,
			"byteLength":1336,
			"byteOffset":6012,
			"target":34962
		},
		{
			"buffer":0,
			"byteLength":504,
			"byteOffset":7348,
			"target":34963
		},
		{
			"buffer":0,
			"byteLength":6612,
			"byteOffset":7852,
			"target":34962
		},
		{
			"buffer":0,
			"byteLength":6612,
			"byteOffset":14464,
			"target":34962
		},
		{
			"buffer":0,
			"byteLength":4408,
			"byteOffset":21076,
			"target":34962
		},
		{
			"buffer":0,
			"byteLength":2204,
			"byteOffset":25484,
			"target":34962
		},
		{
			"buffer":0,
			"byteLength":4408,
			"byteOffset":27688,
			"target":34962
		},
		{
			"buffer":0,
			"byteLength":3384,
			"byteOffset":32096,
			"target":34963
		}
	],
	"samplers":[
		{
			"magFilter":9729,
			"minFilter":9987
		}
	],
	"buffers":[
		{
			"byteLength":35480,
			"uri":"nature_SM_Tree_Pine_01.bin"
		}
	]
}
