{
	"asset":{
		"generator":"Khronos glTF Blender I/O v4.4.55",
		"version":"2.0"
	},
	"scene":0,
	"scenes":[
		{
			"name":"Scene",
			"nodes":[
				0
			]
		}
	],
	"nodes":[
		{
			"mesh":0,
			"name":"SM_Rock_CaveEntrance_02",
			"rotation":[
				0.7071068286895752,
				0,
				0,
				0.7071068286895752
			],
			"scale":[
				0.009999999776482582,
				0.009999999776482582,
				0.009999999776482582
			]
		}
	],
	"materials":[
		{
			"doubleSided":true,
			"name":"lambert1",
			"pbrMetallicRoughness":{
				"metallicFactor":0
			}
		}
	],
	"meshes":[
		{
			"name":"Mesh",
			"primitives":[
				{
					"attributes":{
						"POSITION":0,
						"NORMAL":1,
						"TEXCOORD_0":2
					},
					"indices":3,
					"material":0
				}
			]
		}
	],
	"accessors":[
		{
			"bufferView":0,
			"componentType":5126,
			"count":4781,
			"max":[
				537.7881469726562,
				338.72705078125,
				203.5884552001953
			],
			"min":[
				-581.241455078125,
				-327.1884765625,
				-817.5892333984375
			],
			"type":"VEC3"
		},
		{
			"bufferView":1,
			"componentType":5126,
			"count":4781,
			"type":"VEC3"
		},
		{
			"bufferView":2,
			"componentType":5126,
			"count":4781,
			"type":"VEC2"
		},
		{
			"bufferView":3,
			"componentType":5123,
			"count":5442,
			"type":"SCALAR"
		}
	],
	"bufferViews":[
		{
			"buffer":0,
			"byteLength":57372,
			"byteOffset":0,
			"target":34962
		},
		{
			"buffer":0,
			"byteLength":57372,
			"byteOffset":57372,
			"target":34962
		},
		{
			"buffer":0,
			"byteLength":38248,
			"byteOffset":114744,
			"target":34962
		},
		{
			"buffer":0,
			"byteLength":10884,
			"byteOffset":152992,
			"target":34963
		}
	],
	"buffers":[
		{
			"byteLength":163876,
			"uri":"nature_SM_Rock_CaveEntrance_02.bin"
		}
	]
}
