{
	"asset":{
		"generator":"Khronos glTF Blender I/O v4.4.55",
		"version":"2.0"
	},
	"scene":0,
	"scenes":[
		{
			"name":"Scene",
			"nodes":[
				0
			]
		}
	],
	"nodes":[
		{
			"mesh":0,
			"name":"SM_Tree_Willow_Large_01",
			"rotation":[
				0.7071068286895752,
				0,
				0,
				0.7071068286895752
			],
			"scale":[
				0.009999999776482582,
				0.009999999776482582,
				0.009999999776482582
			]
		}
	],
	"materials":[
		{
			"doubleSided":true,
			"name":"Trunk",
			"pbrMetallicRoughness":{
				"baseColorFactor":[
					1,
					0,
					0,
					1
				],
				"metallicFactor":0
			}
		},
		{
			"doubleSided":true,
			"name":"Leave",
			"pbrMetallicRoughness":{
				"baseColorFactor":[
					0.2049928903579712,
					1,
					0,
					1
				],
				"metallicFactor":0
			}
		}
	],
	"meshes":[
		{
			"name":"Mesh",
			"primitives":[
				{
					"attributes":{
						"POSITION":0,
						"NORMAL":1,
						"TEXCOORD_0":2,
						"COLOR_0":3,
						"COLOR_1":4
					},
					"indices":5,
					"material":0
				},
				{
					"attributes":{
						"POSITION":6,
						"NORMAL":7,
						"TEXCOORD_0":8,
						"COLOR_0":9,
						"COLOR_1":10
					},
					"indices":11,
					"material":1
				}
			]
		}
	],
	"accessors":[
		{
			"bufferView":0,
			"componentType":5126,
			"count":2230,
			"max":[
				168.52430725097656,
				249.07888793945312,
				92.19769287109375
			],
			"min":[
				-241.61058044433594,
				-243.10708618164062,
				-788.9371948242188
			],
			"type":"VEC3"
		},
		{
			"bufferView":1,
			"componentType":5126,
			"count":2230,
			"type":"VEC3"
		},
		{
			"bufferView":2,
			"componentType":5126,
			"count":2230,
			"type":"VEC2"
		},
		{
			"bufferView":3,
			"componentType":5121,
			"count":2230,
			"normalized":true,
			"type":"VEC4"
		},
		{
			"bufferView":4,
			"componentType":5123,
			"count":2230,
			"normalized":true,
			"type":"VEC4"
		},
		{
			"bufferView":5,
			"componentType":5123,
			"count":3258,
			"type":"SCALAR"
		},
		{
			"bufferView":6,
			"componentType":5126,
			"count":1496,
			"max":[
				269.7171630859375,
				325.9892883300781,
				-92.54042053222656
			],
			"min":[
				-310.4277648925781,
				-309.3045349121094,
				-869.4711303710938
			],
			"type":"VEC3"
		},
		{
			"bufferView":7,
			"componentType":5126,
			"count":1496,
			"type":"VEC3"
		},
		{
			"bufferView":8,
			"componentType":5126,
			"count":1496,
			"type":"VEC2"
		},
		{
			"bufferView":9,
			"componentType":5121,
			"count":1496,
			"normalized":true,
			"type":"VEC4"
		},
		{
			"bufferView":10,
			"componentType":5123,
			"count":1496,
			"normalized":true,
			"type":"VEC4"
		},
		{
			"bufferView":11,
			"componentType":5123,
			"count":2244,
			"type":"SCALAR"
		}
	],
	"bufferViews":[
		{
			"buffer":0,
			"byteLength":26760,
			"byteOffset":0,
			"target":34962
		},
		{
			"buffer":0,
			"byteLength":26760,
			"byteOffset":26760,
			"target":34962
		},
		{
			"buffer":0,
			"byteLength":17840,
			"byteOffset":53520,
			"target":34962
		},
		{
			"buffer":0,
			"byteLength":8920,
			"byteOffset":71360,
			"target":34962
		},
		{
			"buffer":0,
			"byteLength":17840,
			"byteOffset":80280,
			"target":34962
		},
		{
			"buffer":0,
			"byteLength":6516,
			"byteOffset":98120,
			"target":34963
		},
		{
			"buffer":0,
			"byteLength":17952,
			"byteOffset":104636,
			"target":34962
		},
		{
			"buffer":0,
			"byteLength":17952,
			"byteOffset":122588,
			"target":34962
		},
		{
			"buffer":0,
			"byteLength":11968,
			"byteOffset":140540,
			"target":34962
		},
		{
			"buffer":0,
			"byteLength":5984,
			"byteOffset":152508,
			"target":34962
		},
		{
			"buffer":0,
			"byteLength":11968,
			"byteOffset":158492,
			"target":34962
		},
		{
			"buffer":0,
			"byteLength":4488,
			"byteOffset":170460,
			"target":34963
		}
	],
	"buffers":[
		{
			"byteLength":174948,
			"uri":"nature_SM_Tree_Willow_Large_01.bin"
		}
	]
}
