{
	"asset":{
		"generator":"Khronos glTF Blender I/O v4.4.55",
		"version":"2.0"
	},
	"extensionsUsed":[
		"EXT_texture_webp"
	],
	"extensionsRequired":[
		"EXT_texture_webp"
	],
	"scene":0,
	"scenes":[
		{
			"name":"Scene",
			"nodes":[
				0
			]
		}
	],
	"nodes":[
		{
			"mesh":0,
			"name":"SM_Rock_Pile_Curved_01",
			"rotation":[
				0.7071068286895752,
				0,
				0,
				0.7071068286895752
			],
			"scale":[
				0.009999999776482582,
				0.009999999776482582,
				0.009999999776482582
			]
		}
	],
	"materials":[
		{
			"doubleSided":true,
			"name":"lambert1",
			"pbrMetallicRoughness":{
				"baseColorTexture":{
					"index":0
				},
				"metallicFactor":0
			}
		}
	],
	"meshes":[
		{
			"name":"Mesh",
			"primitives":[
				{
					"attributes":{
						"POSITION":0,
						"NORMAL":1,
						"TEXCOORD_0":2
					},
					"indices":3,
					"material":0
				}
			]
		}
	],
	"textures":[
		{
			"extensions":{
				"EXT_texture_webp":{
					"source":0
				}
			},
			"sampler":0
		}
	],
	"images":[
		{
			"mimeType":"image/webp",
			"name":"PolygonNature_04",
			"uri":"PolygonNature_04.webp"
		}
	],
	"accessors":[
		{
			"bufferView":0,
			"componentType":5126,
			"count":2782,
			"max":[
				267.0296325683594,
				190.32093811035156,
				130.75363159179688
			],
			"min":[
				-266.93988037109375,
				-191.1851043701172,
				-129.51504516601562
			],
			"type":"VEC3"
		},
		{
			"bufferView":1,
			"componentType":5126,
			"count":2782,
			"type":"VEC3"
		},
		{
			"bufferView":2,
			"componentType":5126,
			"count":2782,
			"type":"VEC2"
		},
		{
			"bufferView":3,
			"componentType":5123,
			"count":2970,
			"type":"SCALAR"
		}
	],
	"bufferViews":[
		{
			"buffer":0,
			"byteLength":33384,
			"byteOffset":0,
			"target":34962
		},
		{
			"buffer":0,
			"byteLength":33384,
			"byteOffset":33384,
			"target":34962
		},
		{
			"buffer":0,
			"byteLength":22256,
			"byteOffset":66768,
			"target":34962
		},
		{
			"buffer":0,
			"byteLength":5940,
			"byteOffset":89024,
			"target":34963
		}
	],
	"samplers":[
		{
			"magFilter":9729,
			"minFilter":9987
		}
	],
	"buffers":[
		{
			"byteLength":94964,
			"uri":"nature_SM_Rock_Pile_Curved_01.bin"
		}
	]
}
