{
	"asset":{
		"generator":"Khronos glTF Blender I/O v4.4.55",
		"version":"2.0"
	},
	"extensionsUsed":[
		"EXT_texture_webp"
	],
	"extensionsRequired":[
		"EXT_texture_webp"
	],
	"scene":0,
	"scenes":[
		{
			"name":"Scene",
			"nodes":[
				0
			]
		}
	],
	"nodes":[
		{
			"mesh":0,
			"name":"SM_Prop_Bridge_Curved_01",
			"rotation":[
				0.7071068286895752,
				0,
				0,
				0.7071068286895752
			],
			"scale":[
				0.009999999776482582,
				0.009999999776482582,
				0.009999999776482582
			]
		}
	],
	"materials":[
		{
			"doubleSided":true,
			"name":"lambert3",
			"pbrMetallicRoughness":{
				"baseColorTexture":{
					"index":0
				},
				"metallicFactor":0
			}
		}
	],
	"meshes":[
		{
			"name":"Mesh",
			"primitives":[
				{
					"attributes":{
						"POSITION":0,
						"NORMAL":1,
						"TEXCOORD_0":2
					},
					"indices":3,
					"material":0
				}
			]
		}
	],
	"textures":[
		{
			"extensions":{
				"EXT_texture_webp":{
					"source":0
				}
			},
			"sampler":0
		}
	],
	"images":[
		{
			"mimeType":"image/webp",
			"name":"PolygonNature_04",
			"uri":"PolygonNature_04.webp"
		}
	],
	"accessors":[
		{
			"bufferView":0,
			"componentType":5126,
			"count":2464,
			"max":[
				103.0694808959961,
				439.5614013671875,
				-91.33367156982422
			],
			"min":[
				-106.43083190917969,
				-439.5617980957031,
				-275.3669128417969
			],
			"type":"VEC3"
		},
		{
			"bufferView":1,
			"componentType":5126,
			"count":2464,
			"type":"VEC3"
		},
		{
			"bufferView":2,
			"componentType":5126,
			"count":2464,
			"type":"VEC2"
		},
		{
			"bufferView":3,
			"componentType":5123,
			"count":4512,
			"type":"SCALAR"
		}
	],
	"bufferViews":[
		{
			"buffer":0,
			"byteLength":29568,
			"byteOffset":0,
			"target":34962
		},
		{
			"buffer":0,
			"byteLength":29568,
			"byteOffset":29568,
			"target":34962
		},
		{
			"buffer":0,
			"byteLength":19712,
			"byteOffset":59136,
			"target":34962
		},
		{
			"buffer":0,
			"byteLength":9024,
			"byteOffset":78848,
			"target":34963
		}
	],
	"samplers":[
		{
			"magFilter":9729,
			"minFilter":9987
		}
	],
	"buffers":[
		{
			"byteLength":87872,
			"uri":"nature_SM_Prop_Bridge_Curved_01.bin"
		}
	]
}
