{
	"asset":{
		"generator":"Khronos glTF Blender I/O v4.4.55",
		"version":"2.0"
	},
	"extensionsUsed":[
		"EXT_texture_webp"
	],
	"extensionsRequired":[
		"EXT_texture_webp"
	],
	"scene":0,
	"scenes":[
		{
			"name":"Scene",
			"nodes":[
				0
			]
		}
	],
	"nodes":[
		{
			"mesh":0,
			"name":"SM_Tree_Birch_Dead_01",
			"rotation":[
				0.7071068286895752,
				0,
				0,
				0.7071068286895752
			],
			"scale":[
				0.009999999776482582,
				0.009999999776482582,
				0.009999999776482582
			]
		}
	],
	"materials":[
		{
			"doubleSided":true,
			"name":"Trunk",
			"pbrMetallicRoughness":{
				"baseColorTexture":{
					"index":0
				},
				"metallicFactor":0
			}
		},
		{
			"doubleSided":true,
			"name":"Leaves_Dead",
			"pbrMetallicRoughness":{
				"baseColorTexture":{
					"index":1
				},
				"metallicFactor":0
			}
		}
	],
	"meshes":[
		{
			"name":"Mesh",
			"primitives":[
				{
					"attributes":{
						"POSITION":0,
						"NORMAL":1,
						"TEXCOORD_0":2,
						"COLOR_0":3,
						"COLOR_1":4
					},
					"indices":5,
					"material":0
				},
				{
					"attributes":{
						"POSITION":6,
						"NORMAL":7,
						"TEXCOORD_0":8,
						"COLOR_0":9,
						"COLOR_1":10
					},
					"indices":11,
					"material":1
				}
			]
		}
	],
	"textures":[
		{
			"extensions":{
				"EXT_texture_webp":{
					"source":0
				}
			},
			"sampler":0
		},
		{
			"extensions":{
				"EXT_texture_webp":{
					"source":0
				}
			},
			"sampler":0
		}
	],
	"images":[
		{
			"mimeType":"image/webp",
			"name":"PolygonNature_04",
			"uri":"PolygonNature_04.webp"
		}
	],
	"accessors":[
		{
			"bufferView":0,
			"componentType":5126,
			"count":1890,
			"max":[
				85.1287841796875,
				68.43414306640625,
				0
			],
			"min":[
				-72.7294921875,
				-81.5378189086914,
				-429.7209777832031
			],
			"type":"VEC3"
		},
		{
			"bufferView":1,
			"componentType":5126,
			"count":1890,
			"type":"VEC3"
		},
		{
			"bufferView":2,
			"componentType":5126,
			"count":1890,
			"type":"VEC2"
		},
		{
			"bufferView":3,
			"componentType":5121,
			"count":1890,
			"normalized":true,
			"type":"VEC4"
		},
		{
			"bufferView":4,
			"componentType":5123,
			"count":1890,
			"normalized":true,
			"type":"VEC4"
		},
		{
			"bufferView":5,
			"componentType":5123,
			"count":3168,
			"type":"SCALAR"
		},
		{
			"bufferView":6,
			"componentType":5126,
			"count":672,
			"max":[
				112.93716430664062,
				99.02992248535156,
				-84.80433654785156
			],
			"min":[
				-102.88619995117188,
				-111.3027572631836,
				-448.8420715332031
			],
			"type":"VEC3"
		},
		{
			"bufferView":7,
			"componentType":5126,
			"count":672,
			"type":"VEC3"
		},
		{
			"bufferView":8,
			"componentType":5126,
			"count":672,
			"type":"VEC2"
		},
		{
			"bufferView":9,
			"componentType":5121,
			"count":672,
			"normalized":true,
			"type":"VEC4"
		},
		{
			"bufferView":10,
			"componentType":5123,
			"count":672,
			"normalized":true,
			"type":"VEC4"
		},
		{
			"bufferView":11,
			"componentType":5123,
			"count":1764,
			"type":"SCALAR"
		}
	],
	"bufferViews":[
		{
			"buffer":0,
			"byteLength":22680,
			"byteOffset":0,
			"target":34962
		},
		{
			"buffer":0,
			"byteLength":22680,
			"byteOffset":22680,
			"target":34962
		},
		{
			"buffer":0,
			"byteLength":15120,
			"byteOffset":45360,
			"target":34962
		},
		{
			"buffer":0,
			"byteLength":7560,
			"byteOffset":60480,
			"target":34962
		},
		{
			"buffer":0,
			"byteLength":15120,
			"byteOffset":68040,
			"target":34962
		},
		{
			"buffer":0,
			"byteLength":6336,
			"byteOffset":83160,
			"target":34963
		},
		{
			"buffer":0,
			"byteLength":8064,
			"byteOffset":89496,
			"target":34962
		},
		{
			"buffer":0,
			"byteLength":8064,
			"byteOffset":97560,
			"target":34962
		},
		{
			"buffer":0,
			"byteLength":5376,
			"byteOffset":105624,
			"target":34962
		},
		{
			"buffer":0,
			"byteLength":2688,
			"byteOffset":111000,
			"target":34962
		},
		{
			"buffer":0,
			"byteLength":5376,
			"byteOffset":113688,
			"target":34962
		},
		{
			"buffer":0,
			"byteLength":3528,
			"byteOffset":119064,
			"target":34963
		}
	],
	"samplers":[
		{
			"magFilter":9729,
			"minFilter":9987
		}
	],
	"buffers":[
		{
			"byteLength":122592,
			"uri":"nature_SM_Tree_Birch_Dead_01.bin"
		}
	]
}
