{
	"asset":{
		"generator":"Khronos glTF Blender I/O v4.4.55",
		"version":"2.0"
	},
	"scene":0,
	"scenes":[
		{
			"name":"Scene",
			"nodes":[
				0
			]
		}
	],
	"nodes":[
		{
			"mesh":0,
			"name":"SM_Rock_Cluster_Large_03",
			"rotation":[
				0.7071068286895752,
				0,
				0,
				0.7071068286895752
			],
			"scale":[
				0.009999999776482582,
				0.009999999776482582,
				0.009999999776482582
			]
		}
	],
	"materials":[
		{
			"doubleSided":true,
			"name":"lambert1",
			"pbrMetallicRoughness":{
				"metallicFactor":0
			}
		}
	],
	"meshes":[
		{
			"name":"Mesh",
			"primitives":[
				{
					"attributes":{
						"POSITION":0,
						"NORMAL":1,
						"TEXCOORD_0":2
					},
					"indices":3,
					"material":0
				}
			]
		}
	],
	"accessors":[
		{
			"bufferView":0,
			"componentType":5126,
			"count":2912,
			"max":[
				777.4049682617188,
				673.56494140625,
				266.9201965332031
			],
			"min":[
				-777.4049682617188,
				-673.5650024414062,
				-1099.7591552734375
			],
			"type":"VEC3"
		},
		{
			"bufferView":1,
			"componentType":5126,
			"count":2912,
			"type":"VEC3"
		},
		{
			"bufferView":2,
			"componentType":5126,
			"count":2912,
			"type":"VEC2"
		},
		{
			"bufferView":3,
			"componentType":5123,
			"count":2982,
			"type":"SCALAR"
		}
	],
	"bufferViews":[
		{
			"buffer":0,
			"byteLength":34944,
			"byteOffset":0,
			"target":34962
		},
		{
			"buffer":0,
			"byteLength":34944,
			"byteOffset":34944,
			"target":34962
		},
		{
			"buffer":0,
			"byteLength":23296,
			"byteOffset":69888,
			"target":34962
		},
		{
			"buffer":0,
			"byteLength":5964,
			"byteOffset":93184,
			"target":34963
		}
	],
	"buffers":[
		{
			"byteLength":99148,
			"uri":"nature_SM_Rock_Cluster_Large_03.bin"
		}
	]
}
