{
	"asset":{
		"generator":"Khronos glTF Blender I/O v4.4.55",
		"version":"2.0"
	},
	"scene":0,
	"scenes":[
		{
			"name":"Scene",
			"nodes":[
				0
			]
		}
	],
	"nodes":[
		{
			"mesh":0,
			"name":"SM_Plant_02",
			"rotation":[
				0.7071068286895752,
				0,
				0,
				0.7071068286895752
			],
			"scale":[
				0.009999999776482582,
				0.009999999776482582,
				0.009999999776482582
			]
		}
	],
	"materials":[
		{
			"doubleSided":true,
			"name":"lambert2",
			"pbrMetallicRoughness":{
				"metallicFactor":0
			}
		}
	],
	"meshes":[
		{
			"name":"Mesh",
			"primitives":[
				{
					"attributes":{
						"POSITION":0,
						"NORMAL":1,
						"TEXCOORD_0":2,
						"COLOR_0":3,
						"COLOR_1":4
					},
					"indices":5,
					"material":0
				}
			]
		}
	],
	"accessors":[
		{
			"bufferView":0,
			"componentType":5126,
			"count":816,
			"max":[
				26.212692260742188,
				20.429229736328125,
				0
			],
			"min":[
				-26.212692260742188,
				-20.429229736328125,
				-90.23666381835938
			],
			"type":"VEC3"
		},
		{
			"bufferView":1,
			"componentType":5126,
			"count":816,
			"type":"VEC3"
		},
		{
			"bufferView":2,
			"componentType":5126,
			"count":816,
			"type":"VEC2"
		},
		{
			"bufferView":3,
			"componentType":5121,
			"count":816,
			"normalized":true,
			"type":"VEC4"
		},
		{
			"bufferView":4,
			"componentType":5123,
			"count":816,
			"normalized":true,
			"type":"VEC4"
		},
		{
			"bufferView":5,
			"componentType":5123,
			"count":840,
			"type":"SCALAR"
		}
	],
	"bufferViews":[
		{
			"buffer":0,
			"byteLength":9792,
			"byteOffset":0,
			"target":34962
		},
		{
			"buffer":0,
			"byteLength":9792,
			"byteOffset":9792,
			"target":34962
		},
		{
			"buffer":0,
			"byteLength":6528,
			"byteOffset":19584,
			"target":34962
		},
		{
			"buffer":0,
			"byteLength":3264,
			"byteOffset":26112,
			"target":34962
		},
		{
			"buffer":0,
			"byteLength":6528,
			"byteOffset":29376,
			"target":34962
		},
		{
			"buffer":0,
			"byteLength":1680,
			"byteOffset":35904,
			"target":34963
		}
	],
	"buffers":[
		{
			"byteLength":37584,
			"uri":"nature_SM_Plant_02.bin"
		}
	]
}
