{
	"asset":{
		"generator":"Khronos glTF Blender I/O v4.4.55",
		"version":"2.0"
	},
	"scene":0,
	"scenes":[
		{
			"name":"Scene",
			"nodes":[
				0
			]
		}
	],
	"nodes":[
		{
			"mesh":0,
			"name":"SM_Terrain_RiverSide_Corner_01",
			"rotation":[
				0.7071068286895752,
				0,
				0,
				0.7071068286895752
			],
			"scale":[
				0.009999999776482582,
				0.009999999776482582,
				0.009999999776482582
			]
		}
	],
	"materials":[
		{
			"doubleSided":true,
			"name":"lambert1",
			"pbrMetallicRoughness":{
				"metallicFactor":0
			}
		}
	],
	"meshes":[
		{
			"name":"Mesh",
			"primitives":[
				{
					"attributes":{
						"POSITION":0,
						"NORMAL":1,
						"TEXCOORD_0":2
					},
					"indices":3,
					"material":0
				}
			]
		}
	],
	"accessors":[
		{
			"bufferView":0,
			"componentType":5126,
			"count":642,
			"max":[
				430.3463134765625,
				509.5739440917969,
				174.44056701660156
			],
			"min":[
				-482.193359375,
				-95.12052917480469,
				-15.683796882629395
			],
			"type":"VEC3"
		},
		{
			"bufferView":1,
			"componentType":5126,
			"count":642,
			"type":"VEC3"
		},
		{
			"bufferView":2,
			"componentType":5126,
			"count":642,
			"type":"VEC2"
		},
		{
			"bufferView":3,
			"componentType":5123,
			"count":666,
			"type":"SCALAR"
		}
	],
	"bufferViews":[
		{
			"buffer":0,
			"byteLength":7704,
			"byteOffset":0,
			"target":34962
		},
		{
			"buffer":0,
			"byteLength":7704,
			"byteOffset":7704,
			"target":34962
		},
		{
			"buffer":0,
			"byteLength":5136,
			"byteOffset":15408,
			"target":34962
		},
		{
			"buffer":0,
			"byteLength":1332,
			"byteOffset":20544,
			"target":34963
		}
	],
	"buffers":[
		{
			"byteLength":21876,
			"uri":"nature_SM_Terrain_RiverSide_Corner_01.bin"
		}
	]
}
