{
	"asset":{
		"generator":"Khronos glTF Blender I/O v4.4.55",
		"version":"2.0"
	},
	"scene":0,
	"scenes":[
		{
			"name":"Scene",
			"nodes":[
				0
			]
		}
	],
	"nodes":[
		{
			"mesh":0,
			"name":"SM_Terrain_GrassEdge_Roots_01",
			"rotation":[
				0.7071068286895752,
				0,
				0,
				0.7071068286895752
			],
			"scale":[
				0.009999999776482582,
				0.009999999776482582,
				0.009999999776482582
			]
		}
	],
	"materials":[
		{
			"doubleSided":true,
			"name":"lambert1",
			"pbrMetallicRoughness":{
				"metallicFactor":0
			}
		}
	],
	"meshes":[
		{
			"name":"Mesh",
			"primitives":[
				{
					"attributes":{
						"POSITION":0,
						"NORMAL":1,
						"TEXCOORD_0":2
					},
					"indices":3,
					"material":0
				}
			]
		}
	],
	"accessors":[
		{
			"bufferView":0,
			"componentType":5126,
			"count":822,
			"max":[
				287.8742370605469,
				231.25950622558594,
				29.962905883789062
			],
			"min":[
				-319.7000732421875,
				24.002742767333984,
				-154.6787109375
			],
			"type":"VEC3"
		},
		{
			"bufferView":1,
			"componentType":5126,
			"count":822,
			"type":"VEC3"
		},
		{
			"bufferView":2,
			"componentType":5126,
			"count":822,
			"type":"VEC2"
		},
		{
			"bufferView":3,
			"componentType":5123,
			"count":1356,
			"type":"SCALAR"
		}
	],
	"bufferViews":[
		{
			"buffer":0,
			"byteLength":9864,
			"byteOffset":0,
			"target":34962
		},
		{
			"buffer":0,
			"byteLength":9864,
			"byteOffset":9864,
			"target":34962
		},
		{
			"buffer":0,
			"byteLength":6576,
			"byteOffset":19728,
			"target":34962
		},
		{
			"buffer":0,
			"byteLength":2712,
			"byteOffset":26304,
			"target":34963
		}
	],
	"buffers":[
		{
			"byteLength":29016,
			"uri":"nature_SM_Terrain_GrassEdge_Roots_01.bin"
		}
	]
}
