{
	"asset":{
		"generator":"Khronos glTF Blender I/O v4.4.55",
		"version":"2.0"
	},
	"scene":0,
	"scenes":[
		{
			"name":"Scene",
			"nodes":[
				0
			]
		}
	],
	"nodes":[
		{
			"mesh":0,
			"name":"SM_Tree_01",
			"rotation":[
				0.7071068286895752,
				0,
				0,
				0.7071068286895752
			],
			"scale":[
				0.009999999776482582,
				0.009999999776482582,
				0.009999999776482582
			]
		}
	],
	"materials":[
		{
			"doubleSided":true,
			"name":"lambert2",
			"pbrMetallicRoughness":{
				"metallicFactor":0
			}
		}
	],
	"meshes":[
		{
			"name":"Mesh",
			"primitives":[
				{
					"attributes":{
						"POSITION":0,
						"NORMAL":1,
						"TEXCOORD_0":2,
						"COLOR_0":3,
						"COLOR_1":4
					},
					"indices":5,
					"material":0
				}
			]
		}
	],
	"accessors":[
		{
			"bufferView":0,
			"componentType":5126,
			"count":732,
			"max":[
				159.09423828125,
				141.56494140625,
				0
			],
			"min":[
				-159.09423828125,
				-141.56494140625,
				-621.417236328125
			],
			"type":"VEC3"
		},
		{
			"bufferView":1,
			"componentType":5126,
			"count":732,
			"type":"VEC3"
		},
		{
			"bufferView":2,
			"componentType":5126,
			"count":732,
			"type":"VEC2"
		},
		{
			"bufferView":3,
			"componentType":5121,
			"count":732,
			"normalized":true,
			"type":"VEC4"
		},
		{
			"bufferView":4,
			"componentType":5123,
			"count":732,
			"normalized":true,
			"type":"VEC4"
		},
		{
			"bufferView":5,
			"componentType":5123,
			"count":798,
			"type":"SCALAR"
		}
	],
	"bufferViews":[
		{
			"buffer":0,
			"byteLength":8784,
			"byteOffset":0,
			"target":34962
		},
		{
			"buffer":0,
			"byteLength":8784,
			"byteOffset":8784,
			"target":34962
		},
		{
			"buffer":0,
			"byteLength":5856,
			"byteOffset":17568,
			"target":34962
		},
		{
			"buffer":0,
			"byteLength":2928,
			"byteOffset":23424,
			"target":34962
		},
		{
			"buffer":0,
			"byteLength":5856,
			"byteOffset":26352,
			"target":34962
		},
		{
			"buffer":0,
			"byteLength":1596,
			"byteOffset":32208,
			"target":34963
		}
	],
	"buffers":[
		{
			"byteLength":33804,
			"uri":"nature_SM_Tree_01.bin"
		}
	]
}
