{
	"asset":{
		"generator":"Khronos glTF Blender I/O v4.4.55",
		"version":"2.0"
	},
	"scene":0,
	"scenes":[
		{
			"name":"Scene",
			"nodes":[
				0
			]
		}
	],
	"nodes":[
		{
			"mesh":0,
			"name":"SM_Rock_CaveEntrance_01",
			"rotation":[
				0.7071068286895752,
				0,
				0,
				0.7071068286895752
			],
			"scale":[
				0.009999999776482582,
				0.009999999776482582,
				0.009999999776482582
			]
		}
	],
	"materials":[
		{
			"doubleSided":true,
			"name":"lambert1",
			"pbrMetallicRoughness":{
				"metallicFactor":0
			}
		}
	],
	"meshes":[
		{
			"name":"Mesh",
			"primitives":[
				{
					"attributes":{
						"POSITION":0,
						"NORMAL":1,
						"TEXCOORD_0":2
					},
					"indices":3,
					"material":0
				}
			]
		}
	],
	"accessors":[
		{
			"bufferView":0,
			"componentType":5126,
			"count":4787,
			"max":[
				581.37890625,
				338.72705078125,
				111.12824249267578
			],
			"min":[
				-581.241455078125,
				-340.61181640625,
				-817.5892333984375
			],
			"type":"VEC3"
		},
		{
			"bufferView":1,
			"componentType":5126,
			"count":4787,
			"type":"VEC3"
		},
		{
			"bufferView":2,
			"componentType":5126,
			"count":4787,
			"type":"VEC2"
		},
		{
			"bufferView":3,
			"componentType":5123,
			"count":5658,
			"type":"SCALAR"
		}
	],
	"bufferViews":[
		{
			"buffer":0,
			"byteLength":57444,
			"byteOffset":0,
			"target":34962
		},
		{
			"buffer":0,
			"byteLength":57444,
			"byteOffset":57444,
			"target":34962
		},
		{
			"buffer":0,
			"byteLength":38296,
			"byteOffset":114888,
			"target":34962
		},
		{
			"buffer":0,
			"byteLength":11316,
			"byteOffset":153184,
			"target":34963
		}
	],
	"buffers":[
		{
			"byteLength":164500,
			"uri":"nature_SM_Rock_CaveEntrance_01.bin"
		}
	]
}
