{
	"asset":{
		"generator":"Khronos glTF Blender I/O v4.4.55",
		"version":"2.0"
	},
	"scene":0,
	"scenes":[
		{
			"name":"Scene",
			"nodes":[
				0
			]
		}
	],
	"nodes":[
		{
			"mesh":0,
			"name":"SM_Rock_CaveInterior_01",
			"rotation":[
				0.7071068286895752,
				0,
				0,
				0.7071068286895752
			],
			"scale":[
				0.009999999776482582,
				0.009999999776482582,
				0.009999999776482582
			]
		}
	],
	"materials":[
		{
			"doubleSided":true,
			"name":"lambert1",
			"pbrMetallicRoughness":{
				"metallicFactor":0
			}
		}
	],
	"meshes":[
		{
			"name":"Mesh",
			"primitives":[
				{
					"attributes":{
						"POSITION":0,
						"NORMAL":1,
						"TEXCOORD_0":2
					},
					"indices":3,
					"material":0
				}
			]
		}
	],
	"accessors":[
		{
			"bufferView":0,
			"componentType":5126,
			"count":2709,
			"max":[
				511.3702087402344,
				477.95947265625,
				139.81085205078125
			],
			"min":[
				-461.7526550292969,
				-426.487548828125,
				-473.00732421875
			],
			"type":"VEC3"
		},
		{
			"bufferView":1,
			"componentType":5126,
			"count":2709,
			"type":"VEC3"
		},
		{
			"bufferView":2,
			"componentType":5126,
			"count":2709,
			"type":"VEC2"
		},
		{
			"bufferView":3,
			"componentType":5123,
			"count":3003,
			"type":"SCALAR"
		}
	],
	"bufferViews":[
		{
			"buffer":0,
			"byteLength":32508,
			"byteOffset":0,
			"target":34962
		},
		{
			"buffer":0,
			"byteLength":32508,
			"byteOffset":32508,
			"target":34962
		},
		{
			"buffer":0,
			"byteLength":21672,
			"byteOffset":65016,
			"target":34962
		},
		{
			"buffer":0,
			"byteLength":6006,
			"byteOffset":86688,
			"target":34963
		}
	],
	"buffers":[
		{
			"byteLength":92696,
			"uri":"nature_SM_Rock_CaveInterior_01.bin"
		}
	]
}
