{
	"asset":{
		"generator":"Khronos glTF Blender I/O v4.4.55",
		"version":"2.0"
	},
	"scene":0,
	"scenes":[
		{
			"name":"Scene",
			"nodes":[
				0
			]
		}
	],
	"nodes":[
		{
			"mesh":0,
			"name":"SM_Tree_TallRound_01",
			"rotation":[
				0.7071068286895752,
				0,
				0,
				0.7071068286895752
			],
			"scale":[
				0.009999999776482582,
				0.009999999776482582,
				0.009999999776482582
			]
		}
	],
	"materials":[
		{
			"doubleSided":true,
			"name":"lambert2",
			"pbrMetallicRoughness":{
				"metallicFactor":0
			}
		}
	],
	"meshes":[
		{
			"name":"Mesh",
			"primitives":[
				{
					"attributes":{
						"POSITION":0,
						"NORMAL":1,
						"TEXCOORD_0":2,
						"COLOR_0":3,
						"COLOR_1":4
					},
					"indices":5,
					"material":0
				}
			]
		}
	],
	"accessors":[
		{
			"bufferView":0,
			"componentType":5126,
			"count":2080,
			"max":[
				225.63018798828125,
				117.59719848632812,
				15.810298919677734
			],
			"min":[
				-252.0660400390625,
				-149.92523193359375,
				-620.00732421875
			],
			"type":"VEC3"
		},
		{
			"bufferView":1,
			"componentType":5126,
			"count":2080,
			"type":"VEC3"
		},
		{
			"bufferView":2,
			"componentType":5126,
			"count":2080,
			"type":"VEC2"
		},
		{
			"bufferView":3,
			"componentType":5121,
			"count":2080,
			"normalized":true,
			"type":"VEC4"
		},
		{
			"bufferView":4,
			"componentType":5123,
			"count":2080,
			"normalized":true,
			"type":"VEC4"
		},
		{
			"bufferView":5,
			"componentType":5123,
			"count":2292,
			"type":"SCALAR"
		}
	],
	"bufferViews":[
		{
			"buffer":0,
			"byteLength":24960,
			"byteOffset":0,
			"target":34962
		},
		{
			"buffer":0,
			"byteLength":24960,
			"byteOffset":24960,
			"target":34962
		},
		{
			"buffer":0,
			"byteLength":16640,
			"byteOffset":49920,
			"target":34962
		},
		{
			"buffer":0,
			"byteLength":8320,
			"byteOffset":66560,
			"target":34962
		},
		{
			"buffer":0,
			"byteLength":16640,
			"byteOffset":74880,
			"target":34962
		},
		{
			"buffer":0,
			"byteLength":4584,
			"byteOffset":91520,
			"target":34963
		}
	],
	"buffers":[
		{
			"byteLength":96104,
			"uri":"nature_SM_Tree_TallRound_01.bin"
		}
	]
}
