{
	"asset":{
		"generator":"Khronos glTF Blender I/O v4.4.55",
		"version":"2.0"
	},
	"scene":0,
	"scenes":[
		{
			"name":"Scene",
			"nodes":[
				0
			]
		}
	],
	"nodes":[
		{
			"mesh":0,
			"name":"SM_Prop_RoadSign_01",
			"rotation":[
				0.7071068286895752,
				0,
				0,
				0.7071068286895752
			],
			"scale":[
				0.009999999776482582,
				0.009999999776482582,
				0.009999999776482582
			]
		}
	],
	"materials":[
		{
			"doubleSided":true,
			"name":"lambert4",
			"pbrMetallicRoughness":{
				"metallicFactor":0
			}
		}
	],
	"meshes":[
		{
			"name":"Mesh",
			"primitives":[
				{
					"attributes":{
						"POSITION":0,
						"NORMAL":1,
						"TEXCOORD_0":2
					},
					"indices":3,
					"material":0
				}
			]
		}
	],
	"accessors":[
		{
			"bufferView":0,
			"componentType":5126,
			"count":549,
			"max":[
				57.44132995605469,
				34.087371826171875,
				14.198017120361328
			],
			"min":[
				-58.39729309082031,
				-18.898963928222656,
				-221.1395263671875
			],
			"type":"VEC3"
		},
		{
			"bufferView":1,
			"componentType":5126,
			"count":549,
			"type":"VEC3"
		},
		{
			"bufferView":2,
			"componentType":5126,
			"count":549,
			"type":"VEC2"
		},
		{
			"bufferView":3,
			"componentType":5123,
			"count":858,
			"type":"SCALAR"
		}
	],
	"bufferViews":[
		{
			"buffer":0,
			"byteLength":6588,
			"byteOffset":0,
			"target":34962
		},
		{
			"buffer":0,
			"byteLength":6588,
			"byteOffset":6588,
			"target":34962
		},
		{
			"buffer":0,
			"byteLength":4392,
			"byteOffset":13176,
			"target":34962
		},
		{
			"buffer":0,
			"byteLength":1716,
			"byteOffset":17568,
			"target":34963
		}
	],
	"buffers":[
		{
			"byteLength":19284,
			"uri":"nature_SM_Prop_RoadSign_01.bin"
		}
	]
}
