{
	"asset":{
		"generator":"Khronos glTF Blender I/O v4.4.55",
		"version":"2.0"
	},
	"scene":0,
	"scenes":[
		{
			"name":"Scene",
			"nodes":[
				0
			]
		}
	],
	"nodes":[
		{
			"mesh":0,
			"name":"SM_Prop_Arrow_01",
			"rotation":[
				0.7071068286895752,
				0,
				0,
				0.7071068286895752
			],
			"scale":[
				0.009999999776482582,
				0.009999999776482582,
				0.009999999776482582
			]
		}
	],
	"materials":[
		{
			"doubleSided":true,
			"name":"lambert2",
			"pbrMetallicRoughness":{
				"metallicFactor":0
			}
		}
	],
	"meshes":[
		{
			"name":"Mesh",
			"primitives":[
				{
					"attributes":{
						"POSITION":0,
						"NORMAL":1,
						"TEXCOORD_0":2
					},
					"indices":3,
					"material":0
				}
			]
		}
	],
	"accessors":[
		{
			"bufferView":0,
			"componentType":5126,
			"count":389,
			"max":[
				2.671504020690918,
				46.735321044921875,
				3.257692337036133
			],
			"min":[
				-2.671504020690918,
				-46.48323059082031,
				-3.257692337036133
			],
			"type":"VEC3"
		},
		{
			"bufferView":1,
			"componentType":5126,
			"count":389,
			"type":"VEC3"
		},
		{
			"bufferView":2,
			"componentType":5126,
			"count":389,
			"type":"VEC2"
		},
		{
			"bufferView":3,
			"componentType":5123,
			"count":642,
			"type":"SCALAR"
		}
	],
	"bufferViews":[
		{
			"buffer":0,
			"byteLength":4668,
			"byteOffset":0,
			"target":34962
		},
		{
			"buffer":0,
			"byteLength":4668,
			"byteOffset":4668,
			"target":34962
		},
		{
			"buffer":0,
			"byteLength":3112,
			"byteOffset":9336,
			"target":34962
		},
		{
			"buffer":0,
			"byteLength":1284,
			"byteOffset":12448,
			"target":34963
		}
	],
	"buffers":[
		{
			"byteLength":13732,
			"uri":"nature_SM_Prop_Arrow_01.bin"
		}
	]
}
