{
	"asset":{
		"generator":"Khronos glTF Blender I/O v4.4.55",
		"version":"2.0"
	},
	"scene":0,
	"scenes":[
		{
			"name":"Scene",
			"nodes":[
				0
			]
		}
	],
	"nodes":[
		{
			"mesh":0,
			"name":"SM_Tree_Swamp_01",
			"rotation":[
				0.7071068286895752,
				0,
				0,
				0.7071068286895752
			],
			"scale":[
				0.009999999776482582,
				0.009999999776482582,
				0.009999999776482582
			]
		}
	],
	"materials":[
		{
			"doubleSided":true,
			"name":"lambert2",
			"pbrMetallicRoughness":{
				"metallicFactor":0
			}
		}
	],
	"meshes":[
		{
			"name":"Mesh",
			"primitives":[
				{
					"attributes":{
						"POSITION":0,
						"NORMAL":1,
						"TEXCOORD_0":2
					},
					"indices":3,
					"material":0
				}
			]
		}
	],
	"accessors":[
		{
			"bufferView":0,
			"componentType":5126,
			"count":4651,
			"max":[
				64.56968688964844,
				70.3697509765625,
				87.16061401367188
			],
			"min":[
				-173.07972717285156,
				-156.9571075439453,
				-655.8445434570312
			],
			"type":"VEC3"
		},
		{
			"bufferView":1,
			"componentType":5126,
			"count":4651,
			"type":"VEC3"
		},
		{
			"bufferView":2,
			"componentType":5126,
			"count":4651,
			"type":"VEC2"
		},
		{
			"bufferView":3,
			"componentType":5123,
			"count":7002,
			"type":"SCALAR"
		}
	],
	"bufferViews":[
		{
			"buffer":0,
			"byteLength":55812,
			"byteOffset":0,
			"target":34962
		},
		{
			"buffer":0,
			"byteLength":55812,
			"byteOffset":55812,
			"target":34962
		},
		{
			"buffer":0,
			"byteLength":37208,
			"byteOffset":111624,
			"target":34962
		},
		{
			"buffer":0,
			"byteLength":14004,
			"byteOffset":148832,
			"target":34963
		}
	],
	"buffers":[
		{
			"byteLength":162836,
			"uri":"nature_SM_Tree_Swamp_01.bin"
		}
	]
}
