{
	"asset":{
		"generator":"Khronos glTF Blender I/O v4.4.55",
		"version":"2.0"
	},
	"scene":0,
	"scenes":[
		{
			"name":"Scene",
			"nodes":[
				0
			]
		}
	],
	"nodes":[
		{
			"mesh":0,
			"name":"SM_Tree_Birch_03",
			"rotation":[
				0.7071068286895752,
				0,
				0,
				0.7071068286895752
			],
			"scale":[
				0.009999999776482582,
				0.009999999776482582,
				0.009999999776482582
			]
		}
	],
	"materials":[
		{
			"doubleSided":true,
			"name":"Trunk",
			"pbrMetallicRoughness":{
				"baseColorFactor":[
					1,
					0,
					0,
					1
				],
				"metallicFactor":0
			}
		},
		{
			"doubleSided":true,
			"name":"Leave",
			"pbrMetallicRoughness":{
				"baseColorFactor":[
					0.2049928903579712,
					1,
					0,
					1
				],
				"metallicFactor":0
			}
		}
	],
	"meshes":[
		{
			"name":"Mesh",
			"primitives":[
				{
					"attributes":{
						"POSITION":0,
						"NORMAL":1,
						"TEXCOORD_0":2,
						"COLOR_0":3,
						"COLOR_1":4
					},
					"indices":5,
					"material":0
				},
				{
					"attributes":{
						"POSITION":6,
						"NORMAL":7,
						"TEXCOORD_0":8,
						"COLOR_0":9,
						"COLOR_1":10
					},
					"indices":11,
					"material":1
				}
			]
		}
	],
	"accessors":[
		{
			"bufferView":0,
			"componentType":5126,
			"count":130,
			"max":[
				8.288966178894043,
				8.288966178894043,
				-0.889642596244812
			],
			"min":[
				-8.288966178894043,
				-8.288966178894043,
				-528.2865600585938
			],
			"type":"VEC3"
		},
		{
			"bufferView":1,
			"componentType":5126,
			"count":130,
			"type":"VEC3"
		},
		{
			"bufferView":2,
			"componentType":5126,
			"count":130,
			"type":"VEC2"
		},
		{
			"bufferView":3,
			"componentType":5121,
			"count":130,
			"normalized":true,
			"type":"VEC4"
		},
		{
			"bufferView":4,
			"componentType":5123,
			"count":130,
			"normalized":true,
			"type":"VEC4"
		},
		{
			"bufferView":5,
			"componentType":5123,
			"count":288,
			"type":"SCALAR"
		},
		{
			"bufferView":6,
			"componentType":5126,
			"count":798,
			"max":[
				108.82339477539062,
				106.11090850830078,
				-129.4594268798828
			],
			"min":[
				-105.20630645751953,
				-104.48241424560547,
				-540.8363037109375
			],
			"type":"VEC3"
		},
		{
			"bufferView":7,
			"componentType":5126,
			"count":798,
			"type":"VEC3"
		},
		{
			"bufferView":8,
			"componentType":5126,
			"count":798,
			"type":"VEC2"
		},
		{
			"bufferView":9,
			"componentType":5121,
			"count":798,
			"normalized":true,
			"type":"VEC4"
		},
		{
			"bufferView":10,
			"componentType":5123,
			"count":798,
			"normalized":true,
			"type":"VEC4"
		},
		{
			"bufferView":11,
			"componentType":5123,
			"count":1710,
			"type":"SCALAR"
		}
	],
	"bufferViews":[
		{
			"buffer":0,
			"byteLength":1560,
			"byteOffset":0,
			"target":34962
		},
		{
			"buffer":0,
			"byteLength":1560,
			"byteOffset":1560,
			"target":34962
		},
		{
			"buffer":0,
			"byteLength":1040,
			"byteOffset":3120,
			"target":34962
		},
		{
			"buffer":0,
			"byteLength":520,
			"byteOffset":4160,
			"target":34962
		},
		{
			"buffer":0,
			"byteLength":1040,
			"byteOffset":4680,
			"target":34962
		},
		{
			"buffer":0,
			"byteLength":576,
			"byteOffset":5720,
			"target":34963
		},
		{
			"buffer":0,
			"byteLength":9576,
			"byteOffset":6296,
			"target":34962
		},
		{
			"buffer":0,
			"byteLength":9576,
			"byteOffset":15872,
			"target":34962
		},
		{
			"buffer":0,
			"byteLength":6384,
			"byteOffset":25448,
			"target":34962
		},
		{
			"buffer":0,
			"byteLength":3192,
			"byteOffset":31832,
			"target":34962
		},
		{
			"buffer":0,
			"byteLength":6384,
			"byteOffset":35024,
			"target":34962
		},
		{
			"buffer":0,
			"byteLength":3420,
			"byteOffset":41408,
			"target":34963
		}
	],
	"buffers":[
		{
			"byteLength":44828,
			"uri":"nature_SM_Tree_Birch_03.bin"
		}
	]
}
