{
	"asset":{
		"generator":"Khronos glTF Blender I/O v4.4.55",
		"version":"2.0"
	},
	"scene":0,
	"scenes":[
		{
			"name":"Scene",
			"nodes":[
				0
			]
		}
	],
	"nodes":[
		{
			"mesh":0,
			"name":"SM_Plant_Lillypad_Large_02",
			"rotation":[
				0.7071068286895752,
				0,
				0,
				0.7071068286895752
			],
			"scale":[
				0.009999999776482582,
				0.009999999776482582,
				0.009999999776482582
			]
		}
	],
	"materials":[
		{
			"doubleSided":true,
			"name":"lambert2",
			"pbrMetallicRoughness":{
				"metallicFactor":0
			}
		}
	],
	"meshes":[
		{
			"name":"Mesh",
			"primitives":[
				{
					"attributes":{
						"POSITION":0,
						"NORMAL":1,
						"TEXCOORD_0":2
					},
					"indices":3,
					"material":0
				}
			]
		}
	],
	"accessors":[
		{
			"bufferView":0,
			"componentType":5126,
			"count":716,
			"max":[
				74.47967529296875,
				98.45085144042969,
				0
			],
			"min":[
				-74.47967529296875,
				-98.45085144042969,
				-10.7075834274292
			],
			"type":"VEC3"
		},
		{
			"bufferView":1,
			"componentType":5126,
			"count":716,
			"type":"VEC3"
		},
		{
			"bufferView":2,
			"componentType":5126,
			"count":716,
			"type":"VEC2"
		},
		{
			"bufferView":3,
			"componentType":5123,
			"count":996,
			"type":"SCALAR"
		}
	],
	"bufferViews":[
		{
			"buffer":0,
			"byteLength":8592,
			"byteOffset":0,
			"target":34962
		},
		{
			"buffer":0,
			"byteLength":8592,
			"byteOffset":8592,
			"target":34962
		},
		{
			"buffer":0,
			"byteLength":5728,
			"byteOffset":17184,
			"target":34962
		},
		{
			"buffer":0,
			"byteLength":1992,
			"byteOffset":22912,
			"target":34963
		}
	],
	"buffers":[
		{
			"byteLength":24904,
			"uri":"nature_SM_Plant_Lillypad_Large_02.bin"
		}
	]
}
