{
	"asset":{
		"generator":"Khronos glTF Blender I/O v4.4.55",
		"version":"2.0"
	},
	"extensionsUsed":[
		"EXT_texture_webp"
	],
	"extensionsRequired":[
		"EXT_texture_webp"
	],
	"scene":0,
	"scenes":[
		{
			"name":"Scene",
			"nodes":[
				0
			]
		}
	],
	"nodes":[
		{
			"mesh":0,
			"name":"SM_Tree_Pine_Large_02",
			"rotation":[
				0.7071068286895752,
				0,
				0,
				0.7071068286895752
			],
			"scale":[
				0.009999999776482582,
				0.009999999776482582,
				0.009999999776482582
			]
		}
	],
	"materials":[
		{
			"doubleSided":true,
			"name":"Trunk",
			"pbrMetallicRoughness":{
				"baseColorTexture":{
					"index":0
				},
				"metallicFactor":0
			}
		},
		{
			"doubleSided":true,
			"name":"Leave",
			"pbrMetallicRoughness":{
				"baseColorTexture":{
					"index":1
				},
				"metallicFactor":0
			}
		}
	],
	"meshes":[
		{
			"name":"Mesh",
			"primitives":[
				{
					"attributes":{
						"POSITION":0,
						"NORMAL":1,
						"TEXCOORD_0":2,
						"COLOR_0":3,
						"COLOR_1":4
					},
					"indices":5,
					"material":0
				},
				{
					"attributes":{
						"POSITION":6,
						"NORMAL":7,
						"TEXCOORD_0":8,
						"COLOR_0":9,
						"COLOR_1":10
					},
					"indices":11,
					"material":1
				}
			]
		}
	],
	"textures":[
		{
			"extensions":{
				"EXT_texture_webp":{
					"source":0
				}
			},
			"sampler":0
		},
		{
			"extensions":{
				"EXT_texture_webp":{
					"source":0
				}
			},
			"sampler":0
		}
	],
	"images":[
		{
			"mimeType":"image/webp",
			"name":"PolygonNature_04",
			"uri":"PolygonNature_04.webp"
		}
	],
	"accessors":[
		{
			"bufferView":0,
			"componentType":5126,
			"count":157,
			"max":[
				18.875503540039062,
				18.875694274902344,
				-1.8896344045060687e-06
			],
			"min":[
				-18.875694274902344,
				-18.875694274902344,
				-850.62255859375
			],
			"type":"VEC3"
		},
		{
			"bufferView":1,
			"componentType":5126,
			"count":157,
			"type":"VEC3"
		},
		{
			"bufferView":2,
			"componentType":5126,
			"count":157,
			"type":"VEC2"
		},
		{
			"bufferView":3,
			"componentType":5121,
			"count":157,
			"normalized":true,
			"type":"VEC4"
		},
		{
			"bufferView":4,
			"componentType":5123,
			"count":157,
			"normalized":true,
			"type":"VEC4"
		},
		{
			"bufferView":5,
			"componentType":5123,
			"count":288,
			"type":"SCALAR"
		},
		{
			"bufferView":6,
			"componentType":5126,
			"count":547,
			"max":[
				156.787109375,
				157.75909423828125,
				-360.3546142578125
			],
			"min":[
				-156.787109375,
				-158.8348388671875,
				-858.984375
			],
			"type":"VEC3"
		},
		{
			"bufferView":7,
			"componentType":5126,
			"count":547,
			"type":"VEC3"
		},
		{
			"bufferView":8,
			"componentType":5126,
			"count":547,
			"type":"VEC2"
		},
		{
			"bufferView":9,
			"componentType":5121,
			"count":547,
			"normalized":true,
			"type":"VEC4"
		},
		{
			"bufferView":10,
			"componentType":5123,
			"count":547,
			"normalized":true,
			"type":"VEC4"
		},
		{
			"bufferView":11,
			"componentType":5123,
			"count":1692,
			"type":"SCALAR"
		}
	],
	"bufferViews":[
		{
			"buffer":0,
			"byteLength":1884,
			"byteOffset":0,
			"target":34962
		},
		{
			"buffer":0,
			"byteLength":1884,
			"byteOffset":1884,
			"target":34962
		},
		{
			"buffer":0,
			"byteLength":1256,
			"byteOffset":3768,
			"target":34962
		},
		{
			"buffer":0,
			"byteLength":628,
			"byteOffset":5024,
			"target":34962
		},
		{
			"buffer":0,
			"byteLength":1256,
			"byteOffset":5652,
			"target":34962
		},
		{
			"buffer":0,
			"byteLength":576,
			"byteOffset":6908,
			"target":34963
		},
		{
			"buffer":0,
			"byteLength":6564,
			"byteOffset":7484,
			"target":34962
		},
		{
			"buffer":0,
			"byteLength":6564,
			"byteOffset":14048,
			"target":34962
		},
		{
			"buffer":0,
			"byteLength":4376,
			"byteOffset":20612,
			"target":34962
		},
		{
			"buffer":0,
			"byteLength":2188,
			"byteOffset":24988,
			"target":34962
		},
		{
			"buffer":0,
			"byteLength":4376,
			"byteOffset":27176,
			"target":34962
		},
		{
			"buffer":0,
			"byteLength":3384,
			"byteOffset":31552,
			"target":34963
		}
	],
	"samplers":[
		{
			"magFilter":9729,
			"minFilter":9987
		}
	],
	"buffers":[
		{
			"byteLength":34936,
			"uri":"nature_SM_Tree_Pine_Large_02.bin"
		}
	]
}
