{
	"asset":{
		"generator":"Khronos glTF Blender I/O v4.4.55",
		"version":"2.0"
	},
	"scene":0,
	"scenes":[
		{
			"name":"Scene",
			"nodes":[
				0
			]
		}
	],
	"nodes":[
		{
			"mesh":0,
			"name":"SM_Rock_Cluster_Large_04",
			"rotation":[
				0.7071068286895752,
				0,
				0,
				0.7071068286895752
			],
			"scale":[
				0.009999999776482582,
				0.009999999776482582,
				0.009999999776482582
			]
		}
	],
	"materials":[
		{
			"doubleSided":true,
			"name":"lambert1",
			"pbrMetallicRoughness":{
				"metallicFactor":0
			}
		}
	],
	"meshes":[
		{
			"name":"Mesh",
			"primitives":[
				{
					"attributes":{
						"POSITION":0,
						"NORMAL":1,
						"TEXCOORD_0":2
					},
					"indices":3,
					"material":0
				}
			]
		}
	],
	"accessors":[
		{
			"bufferView":0,
			"componentType":5126,
			"count":2848,
			"max":[
				779.5050048828125,
				836.1449584960938,
				266.9201965332031
			],
			"min":[
				-779.5050048828125,
				-836.14501953125,
				-712.7097778320312
			],
			"type":"VEC3"
		},
		{
			"bufferView":1,
			"componentType":5126,
			"count":2848,
			"type":"VEC3"
		},
		{
			"bufferView":2,
			"componentType":5126,
			"count":2848,
			"type":"VEC2"
		},
		{
			"bufferView":3,
			"componentType":5123,
			"count":2910,
			"type":"SCALAR"
		}
	],
	"bufferViews":[
		{
			"buffer":0,
			"byteLength":34176,
			"byteOffset":0,
			"target":34962
		},
		{
			"buffer":0,
			"byteLength":34176,
			"byteOffset":34176,
			"target":34962
		},
		{
			"buffer":0,
			"byteLength":22784,
			"byteOffset":68352,
			"target":34962
		},
		{
			"buffer":0,
			"byteLength":5820,
			"byteOffset":91136,
			"target":34963
		}
	],
	"buffers":[
		{
			"byteLength":96956,
			"uri":"nature_SM_Rock_Cluster_Large_04.bin"
		}
	]
}
