{"asset":{"generator":"Khronos glTF Blender I/O v4.4.55","version":"2.0"},"extensionsUsed":["EXT_texture_webp"],"extensionsRequired":["EXT_texture_webp"],"scene":0,"scenes":[{"name":"Scene","nodes":[0]}],"nodes":[{"mesh":0,"name":"SM_Tree_Pine_Large_01","rotation":[0.7071068286895752,0,0,0.7071068286895752],"scale":[0.009999999776482582,0.009999999776482582,0.009999999776482582]}],"materials":[{"doubleSided":true,"name":"Trunk","pbrMetallicRoughness":{"baseColorTexture":{"index":0},"metallicFactor":0}},{"alphaMode":"MASK","doubleSided":true,"name":"Leave","pbrMetallicRoughness":{"baseColorTexture":{"index":1},"metallicFactor":0},"alphaCutoff":0.5}],"meshes":[{"name":"Mesh","primitives":[{"attributes":{"POSITION":0,"NORMAL":1,"TEXCOORD_0":2,"COLOR_0":3,"COLOR_1":4},"indices":5,"material":0},{"attributes":{"POSITION":6,"NORMAL":7,"TEXCOORD_0":8,"COLOR_0":9,"COLOR_1":10},"indices":11,"material":1}]}],"textures":[{"extensions":{"EXT_texture_webp":{"source":0}},"sampler":0},{"extensions":{"EXT_texture_webp":{"source":1}},"sampler":0}],"images":[{"mimeType":"image/webp","name":"PolygonNature_04","uri":"PolygonNature_04.webp"},{"mimeType":"image/webp","name":"Leaves_Pine_Texture","uri":"Leaves_Pine_Texture.webp"}],"accessors":[{"bufferView":0,"componentType":5126,"count":155,"max":[26.143478393554688,25.31571388244629,-1.8896372466770117e-06],"min":[-25.016069412231445,-25.84395408630371,-744.4892578125],"type":"VEC3"},{"bufferView":1,"componentType":5126,"count":155,"type":"VEC3"},{"bufferView":2,"componentType":5126,"count":155,"type":"VEC2"},{"bufferView":3,"componentType":5121,"count":155,"normalized":true,"type":"VEC4"},{"bufferView":4,"componentType":5123,"count":155,"normalized":true,"type":"VEC4"},{"bufferView":5,"componentType":5123,"count":288,"type":"SCALAR"},{"bufferView":6,"componentType":5126,"count":549,"max":[124.27177429199219,117.55514526367188,-238.0413055419922],"min":[-120.21675109863281,-116.63288879394531,-752.8540649414062],"type":"VEC3"},{"bufferView":7,"componentType":5126,"count":549,"type":"VEC3"},{"bufferView":8,"componentType":5126,"count":549,"type":"VEC2"},{"bufferView":9,"componentType":5121,"count":549,"normalized":true,"type":"VEC4"},{"bufferView":10,"componentType":5123,"count":549,"normalized":true,"type":"VEC4"},{"bufferView":11,"componentType":5123,"count":1692,"type":"SCALAR"}],"bufferViews":[{"buffer":0,"byteLength":1860,"byteOffset":0,"target":34962},{"buffer":0,"byteLength":1860,"byteOffset":1860,"target":34962},{"buffer":0,"byteLength":1240,"byteOffset":3720,"target":34962},{"buffer":0,"byteLength":620,"byteOffset":4960,"target":34962},{"buffer":0,"byteLength":1240,"byteOffset":5580,"target":34962},{"buffer":0,"byteLength":576,"byteOffset":6820,"target":34963},{"buffer":0,"byteLength":6588,"byteOffset":7396,"target":34962},{"buffer":0,"byteLength":6588,"byteOffset":13984,"target":34962},{"buffer":0,"byteLength":4392,"byteOffset":20572,"target":34962},{"buffer":0,"byteLength":2196,"byteOffset":24964,"target":34962},{"buffer":0,"byteLength":4392,"byteOffset":27160,"target":34962},{"buffer":0,"byteLength":3384,"byteOffset":31552,"target":34963}],"samplers":[{"magFilter":9729,"minFilter":9987}],"buffers":[{"byteLength":34936,"uri":"nature_SM_Tree_Pine_Large_01.bin"}]}