{
	"asset":{
		"generator":"Khronos glTF Blender I/O v4.4.55",
		"version":"2.0"
	},
	"scene":0,
	"scenes":[
		{
			"name":"Scene",
			"nodes":[
				0
			]
		}
	],
	"nodes":[
		{
			"mesh":0,
			"name":"SM_Terrain_Ground_Mound_Large_01",
			"rotation":[
				0.7071068286895752,
				0,
				0,
				0.7071068286895752
			],
			"scale":[
				0.009999999776482582,
				0.009999999776482582,
				0.009999999776482582
			]
		}
	],
	"materials":[
		{
			"doubleSided":true,
			"name":"lambert1",
			"pbrMetallicRoughness":{
				"metallicFactor":0
			}
		}
	],
	"meshes":[
		{
			"name":"Mesh",
			"primitives":[
				{
					"attributes":{
						"POSITION":0,
						"NORMAL":1,
						"TEXCOORD_0":2
					},
					"indices":3,
					"material":0
				}
			]
		}
	],
	"accessors":[
		{
			"bufferView":0,
			"componentType":5126,
			"count":900,
			"max":[
				636.8037719726562,
				623.5538330078125,
				0
			],
			"min":[
				-636.8037719726562,
				-623.5538330078125,
				-33.88450622558594
			],
			"type":"VEC3"
		},
		{
			"bufferView":1,
			"componentType":5126,
			"count":900,
			"type":"VEC3"
		},
		{
			"bufferView":2,
			"componentType":5126,
			"count":900,
			"type":"VEC2"
		},
		{
			"bufferView":3,
			"componentType":5123,
			"count":1026,
			"type":"SCALAR"
		}
	],
	"bufferViews":[
		{
			"buffer":0,
			"byteLength":10800,
			"byteOffset":0,
			"target":34962
		},
		{
			"buffer":0,
			"byteLength":10800,
			"byteOffset":10800,
			"target":34962
		},
		{
			"buffer":0,
			"byteLength":7200,
			"byteOffset":21600,
			"target":34962
		},
		{
			"buffer":0,
			"byteLength":2052,
			"byteOffset":28800,
			"target":34963
		}
	],
	"buffers":[
		{
			"byteLength":30852,
			"uri":"nature_SM_Terrain_Ground_Mound_Large_01.bin"
		}
	]
}
