{
	"asset":{
		"generator":"Khronos glTF Blender I/O v4.4.55",
		"version":"2.0"
	},
	"extensionsUsed":[
		"EXT_texture_webp"
	],
	"extensionsRequired":[
		"EXT_texture_webp"
	],
	"scene":0,
	"scenes":[
		{
			"name":"Scene",
			"nodes":[
				0
			]
		}
	],
	"nodes":[
		{
			"mesh":0,
			"name":"SM_Terrain_Mountain_02",
			"rotation":[
				0.7071068286895752,
				0,
				0,
				0.7071068286895752
			],
			"scale":[
				0.009999999776482582,
				0.009999999776482582,
				0.009999999776482582
			]
		}
	],
	"materials":[
		{
			"doubleSided":true,
			"name":"lambert1",
			"pbrMetallicRoughness":{
				"baseColorTexture":{
					"index":0
				},
				"metallicFactor":0
			}
		}
	],
	"meshes":[
		{
			"name":"Mesh",
			"primitives":[
				{
					"attributes":{
						"POSITION":0,
						"NORMAL":1,
						"TEXCOORD_0":2
					},
					"indices":3,
					"material":0
				}
			]
		}
	],
	"textures":[
		{
			"extensions":{
				"EXT_texture_webp":{
					"source":0
				}
			},
			"sampler":0
		}
	],
	"images":[
		{
			"mimeType":"image/webp",
			"name":"PolygonNature_04",
			"uri":"PolygonNature_04.webp"
		}
	],
	"accessors":[
		{
			"bufferView":0,
			"componentType":5126,
			"count":2359,
			"max":[
				1525.56396484375,
				1404.1104736328125,
				91.3532943725586
			],
			"min":[
				-1383.3321533203125,
				-1503.9296875,
				-1556.6507568359375
			],
			"type":"VEC3"
		},
		{
			"bufferView":1,
			"componentType":5126,
			"count":2359,
			"type":"VEC3"
		},
		{
			"bufferView":2,
			"componentType":5126,
			"count":2359,
			"type":"VEC2"
		},
		{
			"bufferView":3,
			"componentType":5123,
			"count":2457,
			"type":"SCALAR"
		}
	],
	"bufferViews":[
		{
			"buffer":0,
			"byteLength":28308,
			"byteOffset":0,
			"target":34962
		},
		{
			"buffer":0,
			"byteLength":28308,
			"byteOffset":28308,
			"target":34962
		},
		{
			"buffer":0,
			"byteLength":18872,
			"byteOffset":56616,
			"target":34962
		},
		{
			"buffer":0,
			"byteLength":4914,
			"byteOffset":75488,
			"target":34963
		}
	],
	"samplers":[
		{
			"magFilter":9729,
			"minFilter":9987
		}
	],
	"buffers":[
		{
			"byteLength":80404,
			"uri":"nature_SM_Terrain_Mountain_02.bin"
		}
	]
}
