{
	"asset":{
		"generator":"Khronos glTF Blender I/O v4.4.55",
		"version":"2.0"
	},
	"scene":0,
	"scenes":[
		{
			"name":"Scene",
			"nodes":[
				0
			]
		}
	],
	"nodes":[
		{
			"mesh":0,
			"name":"SM_Tree_04",
			"rotation":[
				0.7071068286895752,
				0,
				0,
				0.7071068286895752
			],
			"scale":[
				0.009999999776482582,
				0.009999999776482582,
				0.009999999776482582
			]
		}
	],
	"materials":[
		{
			"doubleSided":true,
			"name":"lambert32",
			"pbrMetallicRoughness":{
				"metallicFactor":0
			}
		}
	],
	"meshes":[
		{
			"name":"Mesh",
			"primitives":[
				{
					"attributes":{
						"POSITION":0,
						"NORMAL":1,
						"TEXCOORD_0":2,
						"COLOR_0":3,
						"COLOR_1":4
					},
					"indices":5,
					"material":0
				}
			]
		}
	],
	"accessors":[
		{
			"bufferView":0,
			"componentType":5126,
			"count":754,
			"max":[
				199.34124755859375,
				183.3171844482422,
				0.26051250100135803
			],
			"min":[
				-199.34156799316406,
				-183.1688232421875,
				-469.2781982421875
			],
			"type":"VEC3"
		},
		{
			"bufferView":1,
			"componentType":5126,
			"count":754,
			"type":"VEC3"
		},
		{
			"bufferView":2,
			"componentType":5126,
			"count":754,
			"type":"VEC2"
		},
		{
			"bufferView":3,
			"componentType":5121,
			"count":754,
			"normalized":true,
			"type":"VEC4"
		},
		{
			"bufferView":4,
			"componentType":5123,
			"count":754,
			"normalized":true,
			"type":"VEC4"
		},
		{
			"bufferView":5,
			"componentType":5123,
			"count":924,
			"type":"SCALAR"
		}
	],
	"bufferViews":[
		{
			"buffer":0,
			"byteLength":9048,
			"byteOffset":0,
			"target":34962
		},
		{
			"buffer":0,
			"byteLength":9048,
			"byteOffset":9048,
			"target":34962
		},
		{
			"buffer":0,
			"byteLength":6032,
			"byteOffset":18096,
			"target":34962
		},
		{
			"buffer":0,
			"byteLength":3016,
			"byteOffset":24128,
			"target":34962
		},
		{
			"buffer":0,
			"byteLength":6032,
			"byteOffset":27144,
			"target":34962
		},
		{
			"buffer":0,
			"byteLength":1848,
			"byteOffset":33176,
			"target":34963
		}
	],
	"buffers":[
		{
			"byteLength":35024,
			"uri":"nature_SM_Tree_04.bin"
		}
	]
}
