{
	"asset":{
		"generator":"Khronos glTF Blender I/O v4.4.55",
		"version":"2.0"
	},
	"extensionsUsed":[
		"EXT_texture_webp"
	],
	"extensionsRequired":[
		"EXT_texture_webp"
	],
	"scene":0,
	"scenes":[
		{
			"name":"Scene",
			"nodes":[
				0
			]
		}
	],
	"nodes":[
		{
			"mesh":0,
			"name":"SM_Tree_PolyPine_Sparse_03",
			"rotation":[
				0.7071068286895752,
				0,
				0,
				0.7071068286895752
			],
			"scale":[
				0.009999999776482582,
				0.009999999776482582,
				0.009999999776482582
			]
		}
	],
	"materials":[
		{
			"doubleSided":true,
			"name":"lambert2",
			"pbrMetallicRoughness":{
				"baseColorTexture":{
					"index":0
				},
				"metallicFactor":0
			}
		}
	],
	"meshes":[
		{
			"name":"Mesh",
			"primitives":[
				{
					"attributes":{
						"POSITION":0,
						"NORMAL":1,
						"TEXCOORD_0":2,
						"COLOR_0":3,
						"COLOR_1":4
					},
					"indices":5,
					"material":0
				}
			]
		}
	],
	"textures":[
		{
			"extensions":{
				"EXT_texture_webp":{
					"source":0
				}
			},
			"sampler":0
		}
	],
	"images":[
		{
			"mimeType":"image/webp",
			"name":"PolygonNature_04",
			"uri":"PolygonNature_04.webp"
		}
	],
	"accessors":[
		{
			"bufferView":0,
			"componentType":5126,
			"count":677,
			"max":[
				59.230804443359375,
				63.831329345703125,
				12.20712661743164
			],
			"min":[
				-59.63897705078125,
				-61.80419921875,
				-396.42333984375
			],
			"type":"VEC3"
		},
		{
			"bufferView":1,
			"componentType":5126,
			"count":677,
			"type":"VEC3"
		},
		{
			"bufferView":2,
			"componentType":5126,
			"count":677,
			"type":"VEC2"
		},
		{
			"bufferView":3,
			"componentType":5121,
			"count":677,
			"normalized":true,
			"type":"VEC4"
		},
		{
			"bufferView":4,
			"componentType":5123,
			"count":677,
			"normalized":true,
			"type":"VEC4"
		},
		{
			"bufferView":5,
			"componentType":5123,
			"count":864,
			"type":"SCALAR"
		}
	],
	"bufferViews":[
		{
			"buffer":0,
			"byteLength":8124,
			"byteOffset":0,
			"target":34962
		},
		{
			"buffer":0,
			"byteLength":8124,
			"byteOffset":8124,
			"target":34962
		},
		{
			"buffer":0,
			"byteLength":5416,
			"byteOffset":16248,
			"target":34962
		},
		{
			"buffer":0,
			"byteLength":2708,
			"byteOffset":21664,
			"target":34962
		},
		{
			"buffer":0,
			"byteLength":5416,
			"byteOffset":24372,
			"target":34962
		},
		{
			"buffer":0,
			"byteLength":1728,
			"byteOffset":29788,
			"target":34963
		}
	],
	"samplers":[
		{
			"magFilter":9729,
			"minFilter":9987
		}
	],
	"buffers":[
		{
			"byteLength":31516,
			"uri":"nature_SM_Tree_PolyPine_Sparse_03.bin"
		}
	]
}
