{
	"asset":{
		"generator":"Khronos glTF Blender I/O v4.4.55",
		"version":"2.0"
	},
	"scene":0,
	"scenes":[
		{
			"name":"Scene",
			"nodes":[
				0
			]
		}
	],
	"nodes":[
		{
			"mesh":0,
			"name":"SM_Terrain_Rubble_Pebbles_01",
			"rotation":[
				0.7071068286895752,
				0,
				0,
				0.7071068286895752
			],
			"scale":[
				0.009999999776482582,
				0.009999999776482582,
				0.009999999776482582
			]
		}
	],
	"materials":[
		{
			"doubleSided":true,
			"name":"lambert8",
			"pbrMetallicRoughness":{
				"metallicFactor":0
			}
		}
	],
	"meshes":[
		{
			"name":"Mesh",
			"primitives":[
				{
					"attributes":{
						"POSITION":0,
						"NORMAL":1,
						"TEXCOORD_0":2
					},
					"indices":3,
					"material":0
				}
			]
		}
	],
	"accessors":[
		{
			"bufferView":0,
			"componentType":5126,
			"count":466,
			"max":[
				56.59336853027344,
				65.34809875488281,
				10.308154106140137
			],
			"min":[
				-135.6614532470703,
				-125.52100372314453,
				-17.811603546142578
			],
			"type":"VEC3"
		},
		{
			"bufferView":1,
			"componentType":5126,
			"count":466,
			"type":"VEC3"
		},
		{
			"bufferView":2,
			"componentType":5126,
			"count":466,
			"type":"VEC2"
		},
		{
			"bufferView":3,
			"componentType":5123,
			"count":504,
			"type":"SCALAR"
		}
	],
	"bufferViews":[
		{
			"buffer":0,
			"byteLength":5592,
			"byteOffset":0,
			"target":34962
		},
		{
			"buffer":0,
			"byteLength":5592,
			"byteOffset":5592,
			"target":34962
		},
		{
			"buffer":0,
			"byteLength":3728,
			"byteOffset":11184,
			"target":34962
		},
		{
			"buffer":0,
			"byteLength":1008,
			"byteOffset":14912,
			"target":34963
		}
	],
	"buffers":[
		{
			"byteLength":15920,
			"uri":"nature_SM_Terrain_Rubble_Pebbles_01.bin"
		}
	]
}
