{
	"asset":{
		"generator":"Khronos glTF Blender I/O v4.4.55",
		"version":"2.0"
	},
	"scene":0,
	"scenes":[
		{
			"name":"Scene",
			"nodes":[
				0
			]
		}
	],
	"nodes":[
		{
			"mesh":0,
			"name":"SM_Tree_03",
			"rotation":[
				0.7071068286895752,
				0,
				0,
				0.7071068286895752
			],
			"scale":[
				0.009999999776482582,
				0.009999999776482582,
				0.009999999776482582
			]
		}
	],
	"materials":[
		{
			"doubleSided":true,
			"name":"lambert2",
			"pbrMetallicRoughness":{
				"metallicFactor":0
			}
		}
	],
	"meshes":[
		{
			"name":"Mesh",
			"primitives":[
				{
					"attributes":{
						"POSITION":0,
						"NORMAL":1,
						"TEXCOORD_0":2,
						"COLOR_0":3,
						"COLOR_1":4
					},
					"indices":5,
					"material":0
				}
			]
		}
	],
	"accessors":[
		{
			"bufferView":0,
			"componentType":5126,
			"count":934,
			"max":[
				159.09423828125,
				141.56494140625,
				0
			],
			"min":[
				-159.09423828125,
				-141.56494140625,
				-621.417236328125
			],
			"type":"VEC3"
		},
		{
			"bufferView":1,
			"componentType":5126,
			"count":934,
			"type":"VEC3"
		},
		{
			"bufferView":2,
			"componentType":5126,
			"count":934,
			"type":"VEC2"
		},
		{
			"bufferView":3,
			"componentType":5121,
			"count":934,
			"normalized":true,
			"type":"VEC4"
		},
		{
			"bufferView":4,
			"componentType":5123,
			"count":934,
			"normalized":true,
			"type":"VEC4"
		},
		{
			"bufferView":5,
			"componentType":5123,
			"count":1002,
			"type":"SCALAR"
		}
	],
	"bufferViews":[
		{
			"buffer":0,
			"byteLength":11208,
			"byteOffset":0,
			"target":34962
		},
		{
			"buffer":0,
			"byteLength":11208,
			"byteOffset":11208,
			"target":34962
		},
		{
			"buffer":0,
			"byteLength":7472,
			"byteOffset":22416,
			"target":34962
		},
		{
			"buffer":0,
			"byteLength":3736,
			"byteOffset":29888,
			"target":34962
		},
		{
			"buffer":0,
			"byteLength":7472,
			"byteOffset":33624,
			"target":34962
		},
		{
			"buffer":0,
			"byteLength":2004,
			"byteOffset":41096,
			"target":34963
		}
	],
	"buffers":[
		{
			"byteLength":43100,
			"uri":"nature_SM_Tree_03.bin"
		}
	]
}
