{
	"asset":{
		"generator":"Khronos glTF Blender I/O v4.4.55",
		"version":"2.0"
	},
	"scene":0,
	"scenes":[
		{
			"name":"Scene",
			"nodes":[
				0
			]
		}
	],
	"nodes":[
		{
			"mesh":0,
			"name":"SM_Terrain_GrassEdge_01",
			"rotation":[
				0.70710688829422,
				0,
				0,
				0.7071066498756409
			],
			"scale":[
				0.009999999776482582,
				0.009999999776482582,
				0.009999999776482582
			]
		}
	],
	"materials":[
		{
			"doubleSided":true,
			"name":"lambert1",
			"pbrMetallicRoughness":{
				"metallicFactor":0
			}
		}
	],
	"meshes":[
		{
			"name":"Mesh",
			"primitives":[
				{
					"attributes":{
						"POSITION":0,
						"NORMAL":1,
						"TEXCOORD_0":2
					},
					"indices":3,
					"material":0
				}
			]
		}
	],
	"accessors":[
		{
			"bufferView":0,
			"componentType":5126,
			"count":993,
			"max":[
				483.0091247558594,
				218.3916778564453,
				190.93997192382812
			],
			"min":[
				-528.7550659179688,
				-392.3416442871094,
				-173.0590057373047
			],
			"type":"VEC3"
		},
		{
			"bufferView":1,
			"componentType":5126,
			"count":993,
			"type":"VEC3"
		},
		{
			"bufferView":2,
			"componentType":5126,
			"count":993,
			"type":"VEC2"
		},
		{
			"bufferView":3,
			"componentType":5123,
			"count":1035,
			"type":"SCALAR"
		}
	],
	"bufferViews":[
		{
			"buffer":0,
			"byteLength":11916,
			"byteOffset":0,
			"target":34962
		},
		{
			"buffer":0,
			"byteLength":11916,
			"byteOffset":11916,
			"target":34962
		},
		{
			"buffer":0,
			"byteLength":7944,
			"byteOffset":23832,
			"target":34962
		},
		{
			"buffer":0,
			"byteLength":2070,
			"byteOffset":31776,
			"target":34963
		}
	],
	"buffers":[
		{
			"byteLength":33848,
			"uri":"nature_SM_Terrain_GrassEdge_01.bin"
		}
	]
}
