{
	"asset":{
		"generator":"Khronos glTF Blender I/O v4.4.55",
		"version":"2.0"
	},
	"scene":0,
	"scenes":[
		{
			"name":"Scene",
			"nodes":[
				0
			]
		}
	],
	"nodes":[
		{
			"mesh":0,
			"name":"SM_Rock_Wall_01",
			"rotation":[
				0.7071068286895752,
				0,
				0,
				0.7071068286895752
			],
			"scale":[
				0.009999999776482582,
				0.009999999776482582,
				0.009999999776482582
			]
		}
	],
	"materials":[
		{
			"doubleSided":true,
			"name":"lambert1",
			"pbrMetallicRoughness":{
				"metallicFactor":0
			}
		}
	],
	"meshes":[
		{
			"name":"Mesh",
			"primitives":[
				{
					"attributes":{
						"POSITION":0,
						"NORMAL":1,
						"TEXCOORD_0":2
					},
					"indices":3,
					"material":0
				}
			]
		}
	],
	"accessors":[
		{
			"bufferView":0,
			"componentType":5126,
			"count":2520,
			"max":[
				69.45703125,
				229.024169921875,
				51.07625198364258
			],
			"min":[
				-63.0196418762207,
				-234.94317626953125,
				-209.7012176513672
			],
			"type":"VEC3"
		},
		{
			"bufferView":1,
			"componentType":5126,
			"count":2520,
			"type":"VEC3"
		},
		{
			"bufferView":2,
			"componentType":5126,
			"count":2520,
			"type":"VEC2"
		},
		{
			"bufferView":3,
			"componentType":5123,
			"count":2844,
			"type":"SCALAR"
		}
	],
	"bufferViews":[
		{
			"buffer":0,
			"byteLength":30240,
			"byteOffset":0,
			"target":34962
		},
		{
			"buffer":0,
			"byteLength":30240,
			"byteOffset":30240,
			"target":34962
		},
		{
			"buffer":0,
			"byteLength":20160,
			"byteOffset":60480,
			"target":34962
		},
		{
			"buffer":0,
			"byteLength":5688,
			"byteOffset":80640,
			"target":34963
		}
	],
	"buffers":[
		{
			"byteLength":86328,
			"uri":"nature_SM_Rock_Wall_01.bin"
		}
	]
}
