{
	"asset":{
		"generator":"Khronos glTF Blender I/O v4.4.55",
		"version":"2.0"
	},
	"scene":0,
	"scenes":[
		{
			"name":"Scene",
			"nodes":[
				0
			]
		}
	],
	"nodes":[
		{
			"mesh":0,
			"name":"SM_Plant_04",
			"rotation":[
				0.7071068286895752,
				0,
				0,
				0.7071068286895752
			],
			"scale":[
				0.009999999776482582,
				0.009999999776482582,
				0.009999999776482582
			]
		}
	],
	"materials":[
		{
			"doubleSided":true,
			"name":"lambert2",
			"pbrMetallicRoughness":{
				"metallicFactor":0
			}
		}
	],
	"meshes":[
		{
			"name":"Mesh",
			"primitives":[
				{
					"attributes":{
						"POSITION":0,
						"NORMAL":1,
						"TEXCOORD_0":2,
						"COLOR_0":3,
						"COLOR_1":4
					},
					"indices":5,
					"material":0
				}
			]
		}
	],
	"accessors":[
		{
			"bufferView":0,
			"componentType":5126,
			"count":665,
			"max":[
				34.15374755859375,
				29.542922973632812,
				6.739473342895508
			],
			"min":[
				-36.58485412597656,
				-39.4073486328125,
				-31.969261169433594
			],
			"type":"VEC3"
		},
		{
			"bufferView":1,
			"componentType":5126,
			"count":665,
			"type":"VEC3"
		},
		{
			"bufferView":2,
			"componentType":5126,
			"count":665,
			"type":"VEC2"
		},
		{
			"bufferView":3,
			"componentType":5121,
			"count":665,
			"normalized":true,
			"type":"VEC4"
		},
		{
			"bufferView":4,
			"componentType":5123,
			"count":665,
			"normalized":true,
			"type":"VEC4"
		},
		{
			"bufferView":5,
			"componentType":5123,
			"count":720,
			"type":"SCALAR"
		}
	],
	"bufferViews":[
		{
			"buffer":0,
			"byteLength":7980,
			"byteOffset":0,
			"target":34962
		},
		{
			"buffer":0,
			"byteLength":7980,
			"byteOffset":7980,
			"target":34962
		},
		{
			"buffer":0,
			"byteLength":5320,
			"byteOffset":15960,
			"target":34962
		},
		{
			"buffer":0,
			"byteLength":2660,
			"byteOffset":21280,
			"target":34962
		},
		{
			"buffer":0,
			"byteLength":5320,
			"byteOffset":23940,
			"target":34962
		},
		{
			"buffer":0,
			"byteLength":1440,
			"byteOffset":29260,
			"target":34963
		}
	],
	"buffers":[
		{
			"byteLength":30700,
			"uri":"nature_SM_Plant_04.bin"
		}
	]
}
