{
	"asset":{
		"generator":"Khronos glTF Blender I/O v4.4.55",
		"version":"2.0"
	},
	"scene":0,
	"scenes":[
		{
			"name":"Scene",
			"nodes":[
				0
			]
		}
	],
	"nodes":[
		{
			"mesh":0,
			"name":"SM_Plant_07",
			"rotation":[
				0.7071068286895752,
				0,
				0,
				0.7071068286895752
			],
			"scale":[
				0.009999999776482582,
				0.009999999776482582,
				0.009999999776482582
			]
		}
	],
	"materials":[
		{
			"doubleSided":true,
			"name":"lambert2",
			"pbrMetallicRoughness":{
				"metallicFactor":0
			}
		}
	],
	"meshes":[
		{
			"name":"Mesh",
			"primitives":[
				{
					"attributes":{
						"POSITION":0,
						"NORMAL":1,
						"TEXCOORD_0":2,
						"COLOR_0":3,
						"COLOR_1":4
					},
					"indices":5,
					"material":0
				}
			]
		}
	],
	"accessors":[
		{
			"bufferView":0,
			"componentType":5126,
			"count":1469,
			"max":[
				49.49836730957031,
				48.24676513671875,
				0
			],
			"min":[
				-49.49836730957031,
				-48.24676513671875,
				-77.03475952148438
			],
			"type":"VEC3"
		},
		{
			"bufferView":1,
			"componentType":5126,
			"count":1469,
			"type":"VEC3"
		},
		{
			"bufferView":2,
			"componentType":5126,
			"count":1469,
			"type":"VEC2"
		},
		{
			"bufferView":3,
			"componentType":5121,
			"count":1469,
			"normalized":true,
			"type":"VEC4"
		},
		{
			"bufferView":4,
			"componentType":5123,
			"count":1469,
			"normalized":true,
			"type":"VEC4"
		},
		{
			"bufferView":5,
			"componentType":5123,
			"count":1566,
			"type":"SCALAR"
		}
	],
	"bufferViews":[
		{
			"buffer":0,
			"byteLength":17628,
			"byteOffset":0,
			"target":34962
		},
		{
			"buffer":0,
			"byteLength":17628,
			"byteOffset":17628,
			"target":34962
		},
		{
			"buffer":0,
			"byteLength":11752,
			"byteOffset":35256,
			"target":34962
		},
		{
			"buffer":0,
			"byteLength":5876,
			"byteOffset":47008,
			"target":34962
		},
		{
			"buffer":0,
			"byteLength":11752,
			"byteOffset":52884,
			"target":34962
		},
		{
			"buffer":0,
			"byteLength":3132,
			"byteOffset":64636,
			"target":34963
		}
	],
	"buffers":[
		{
			"byteLength":67768,
			"uri":"nature_SM_Plant_07.bin"
		}
	]
}
