{
	"asset":{
		"generator":"Khronos glTF Blender I/O v4.4.55",
		"version":"2.0"
	},
	"extensionsUsed":[
		"EXT_texture_webp"
	],
	"extensionsRequired":[
		"EXT_texture_webp"
	],
	"scene":0,
	"scenes":[
		{
			"name":"Scene",
			"nodes":[
				0
			]
		}
	],
	"nodes":[
		{
			"mesh":0,
			"name":"SM_Chr_Attach_Male_Hair_07",
			"rotation":[
				0.7071068286895752,
				0,
				0,
				0.7071068286895752
			],
			"scale":[
				0.009999999776482582,
				0.009999999776482582,
				0.009999999776482582
			]
		}
	],
	"materials":[
		{
			"doubleSided":true,
			"name":"Color",
			"pbrMetallicRoughness":{
				"baseColorTexture":{
					"index":0
				},
				"metallicFactor":0,
				"roughnessFactor":0.5527864098548889
			}
		}
	],
	"meshes":[
		{
			"name":"Mesh",
			"primitives":[
				{
					"attributes":{
						"POSITION":0,
						"NORMAL":1,
						"TEXCOORD_0":2,
						"COLOR_0":3,
						"COLOR_1":4
					},
					"indices":5,
					"material":0
				}
			]
		}
	],
	"textures":[
		{
			"extensions":{
				"EXT_texture_webp":{
					"source":0
				}
			},
			"sampler":0
		}
	],
	"images":[
		{
			"mimeType":"image/webp",
			"name":"PolygonSciFiSpace_Signs_Texture_01_A",
			"uri":"PolygonSciFiSpace_Signs_Texture_01_A.webp"
		}
	],
	"accessors":[
		{
			"bufferView":0,
			"componentType":5126,
			"count":138,
			"max":[
				5.45074462890625,
				14.71479606628418,
				4.1004180908203125
			],
			"min":[
				-5.832424163818359,
				-17.76850128173828,
				-28.6903076171875
			],
			"type":"VEC3"
		},
		{
			"bufferView":1,
			"componentType":5126,
			"count":138,
			"type":"VEC3"
		},
		{
			"bufferView":2,
			"componentType":5126,
			"count":138,
			"type":"VEC2"
		},
		{
			"bufferView":3,
			"componentType":5121,
			"count":138,
			"normalized":true,
			"type":"VEC4"
		},
		{
			"bufferView":4,
			"componentType":5123,
			"count":138,
			"normalized":true,
			"type":"VEC4"
		},
		{
			"bufferView":5,
			"componentType":5123,
			"count":186,
			"type":"SCALAR"
		}
	],
	"bufferViews":[
		{
			"buffer":0,
			"byteLength":1656,
			"byteOffset":0,
			"target":34962
		},
		{
			"buffer":0,
			"byteLength":1656,
			"byteOffset":1656,
			"target":34962
		},
		{
			"buffer":0,
			"byteLength":1104,
			"byteOffset":3312,
			"target":34962
		},
		{
			"buffer":0,
			"byteLength":552,
			"byteOffset":4416,
			"target":34962
		},
		{
			"buffer":0,
			"byteLength":1104,
			"byteOffset":4968,
			"target":34962
		},
		{
			"buffer":0,
			"byteLength":372,
			"byteOffset":6072,
			"target":34963
		}
	],
	"samplers":[
		{
			"magFilter":9729,
			"minFilter":9987
		}
	],
	"buffers":[
		{
			"byteLength":6444,
			"uri":"space_SM_Chr_Attach_Male_Hair_07.bin"
		}
	]
}
