{
	"asset":{
		"generator":"Khronos glTF Blender I/O v4.4.55",
		"version":"2.0"
	},
	"extensionsUsed":[
		"EXT_texture_webp"
	],
	"extensionsRequired":[
		"EXT_texture_webp"
	],
	"scene":0,
	"scenes":[
		{
			"name":"Scene",
			"nodes":[
				0
			]
		}
	],
	"nodes":[
		{
			"mesh":0,
			"name":"SM_Ship_Station_05",
			"rotation":[
				0.7071068286895752,
				0,
				0,
				0.7071068286895752
			],
			"scale":[
				0.009999999776482582,
				0.009999999776482582,
				0.009999999776482582
			]
		}
	],
	"materials":[
		{
			"doubleSided":true,
			"name":"SciFiSpace",
			"pbrMetallicRoughness":{
				"baseColorTexture":{
					"index":0
				},
				"metallicFactor":0,
				"roughnessFactor":0.5527864098548889
			}
		}
	],
	"meshes":[
		{
			"name":"Mesh",
			"primitives":[
				{
					"attributes":{
						"POSITION":0,
						"NORMAL":1,
						"TEXCOORD_0":2,
						"TEXCOORD_1":3,
						"TEXCOORD_2":4
					},
					"indices":5,
					"material":0
				}
			]
		}
	],
	"textures":[
		{
			"extensions":{
				"EXT_texture_webp":{
					"source":0
				}
			},
			"sampler":0
		}
	],
	"images":[
		{
			"mimeType":"image/webp",
			"name":"PolygonSciFiSpace_Signs_Texture_01_A",
			"uri":"PolygonSciFiSpace_Signs_Texture_01_A.webp"
		}
	],
	"accessors":[
		{
			"bufferView":0,
			"componentType":5126,
			"count":2320,
			"max":[
				5187.22509765625,
				7194.22900390625,
				29196.77734375
			],
			"min":[
				-7733.89892578125,
				-7194.22607421875,
				-0.000762939453125
			],
			"type":"VEC3"
		},
		{
			"bufferView":1,
			"componentType":5126,
			"count":2320,
			"type":"VEC3"
		},
		{
			"bufferView":2,
			"componentType":5126,
			"count":2320,
			"type":"VEC2"
		},
		{
			"bufferView":3,
			"componentType":5126,
			"count":2320,
			"type":"VEC2"
		},
		{
			"bufferView":4,
			"componentType":5126,
			"count":2320,
			"type":"VEC2"
		},
		{
			"bufferView":5,
			"componentType":5123,
			"count":3684,
			"type":"SCALAR"
		}
	],
	"bufferViews":[
		{
			"buffer":0,
			"byteLength":27840,
			"byteOffset":0,
			"target":34962
		},
		{
			"buffer":0,
			"byteLength":27840,
			"byteOffset":27840,
			"target":34962
		},
		{
			"buffer":0,
			"byteLength":18560,
			"byteOffset":55680,
			"target":34962
		},
		{
			"buffer":0,
			"byteLength":18560,
			"byteOffset":74240,
			"target":34962
		},
		{
			"buffer":0,
			"byteLength":18560,
			"byteOffset":92800,
			"target":34962
		},
		{
			"buffer":0,
			"byteLength":7368,
			"byteOffset":111360,
			"target":34963
		}
	],
	"samplers":[
		{
			"magFilter":9729,
			"minFilter":9987
		}
	],
	"buffers":[
		{
			"byteLength":118728,
			"uri":"space_SM_Ship_Station_05.bin"
		}
	]
}
