{
	"asset":{
		"generator":"Khronos glTF Blender I/O v4.4.55",
		"version":"2.0"
	},
	"extensionsUsed":[
		"EXT_texture_webp"
	],
	"extensionsRequired":[
		"EXT_texture_webp"
	],
	"scene":0,
	"scenes":[
		{
			"name":"Scene",
			"nodes":[
				1
			]
		}
	],
	"nodes":[
		{
			"mesh":0,
			"name":"SM_Prop_Crate_Wide_Lid_01"
		},
		{
			"children":[
				0
			],
			"mesh":1,
			"name":"SM_Prop_Crate_Wide_01",
			"rotation":[
				0.7071068286895752,
				0,
				0,
				0.7071068286895752
			],
			"scale":[
				0.009999999776482582,
				0.009999999776482582,
				0.009999999776482582
			]
		}
	],
	"materials":[
		{
			"doubleSided":true,
			"name":"SciFi",
			"pbrMetallicRoughness":{
				"baseColorTexture":{
					"index":0
				},
				"metallicFactor":0,
				"roughnessFactor":0.5527864098548889
			}
		}
	],
	"meshes":[
		{
			"name":"Mesh.001",
			"primitives":[
				{
					"attributes":{
						"POSITION":0,
						"NORMAL":1,
						"TEXCOORD_0":2
					},
					"indices":3,
					"material":0
				}
			]
		},
		{
			"name":"Mesh",
			"primitives":[
				{
					"attributes":{
						"POSITION":4,
						"NORMAL":5,
						"TEXCOORD_0":6
					},
					"indices":7,
					"material":0
				}
			]
		}
	],
	"textures":[
		{
			"extensions":{
				"EXT_texture_webp":{
					"source":0
				}
			},
			"sampler":0
		}
	],
	"images":[
		{
			"mimeType":"image/webp",
			"name":"PolygonSciFiSpace_Signs_Texture_01_A",
			"uri":"PolygonSciFiSpace_Signs_Texture_01_A.webp"
		}
	],
	"accessors":[
		{
			"bufferView":0,
			"componentType":5126,
			"count":714,
			"max":[
				61.31980514526367,
				33.63514709472656,
				-43.95329284667969
			],
			"min":[
				-61.31985855102539,
				-33.63709259033203,
				-61.31939697265625
			],
			"type":"VEC3"
		},
		{
			"bufferView":1,
			"componentType":5126,
			"count":714,
			"type":"VEC3"
		},
		{
			"bufferView":2,
			"componentType":5126,
			"count":714,
			"type":"VEC2"
		},
		{
			"bufferView":3,
			"componentType":5123,
			"count":1188,
			"type":"SCALAR"
		},
		{
			"bufferView":4,
			"componentType":5126,
			"count":1512,
			"max":[
				61.67500686645508,
				33.63556671142578,
				0
			],
			"min":[
				-61.67500686645508,
				-33.63556671142578,
				-49.477386474609375
			],
			"type":"VEC3"
		},
		{
			"bufferView":5,
			"componentType":5126,
			"count":1512,
			"type":"VEC3"
		},
		{
			"bufferView":6,
			"componentType":5126,
			"count":1512,
			"type":"VEC2"
		},
		{
			"bufferView":7,
			"componentType":5123,
			"count":2376,
			"type":"SCALAR"
		}
	],
	"bufferViews":[
		{
			"buffer":0,
			"byteLength":8568,
			"byteOffset":0,
			"target":34962
		},
		{
			"buffer":0,
			"byteLength":8568,
			"byteOffset":8568,
			"target":34962
		},
		{
			"buffer":0,
			"byteLength":5712,
			"byteOffset":17136,
			"target":34962
		},
		{
			"buffer":0,
			"byteLength":2376,
			"byteOffset":22848,
			"target":34963
		},
		{
			"buffer":0,
			"byteLength":18144,
			"byteOffset":25224,
			"target":34962
		},
		{
			"buffer":0,
			"byteLength":18144,
			"byteOffset":43368,
			"target":34962
		},
		{
			"buffer":0,
			"byteLength":12096,
			"byteOffset":61512,
			"target":34962
		},
		{
			"buffer":0,
			"byteLength":4752,
			"byteOffset":73608,
			"target":34963
		}
	],
	"samplers":[
		{
			"magFilter":9729,
			"minFilter":9987
		}
	],
	"buffers":[
		{
			"byteLength":78360,
			"uri":"space_SM_Prop_Crate_Wide_01.bin"
		}
	]
}
