{
	"asset":{
		"generator":"Khronos glTF Blender I/O v4.4.55",
		"version":"2.0"
	},
	"extensionsUsed":[
		"EXT_texture_webp"
	],
	"extensionsRequired":[
		"EXT_texture_webp"
	],
	"scene":0,
	"scenes":[
		{
			"name":"Scene",
			"nodes":[
				0
			]
		}
	],
	"nodes":[
		{
			"mesh":0,
			"name":"SM_Veh_Drone_Attach_01",
			"rotation":[
				0.7071068286895752,
				0,
				0,
				0.7071068286895752
			],
			"scale":[
				0.009999999776482582,
				0.009999999776482582,
				0.009999999776482582
			]
		}
	],
	"materials":[
		{
			"doubleSided":true,
			"name":"SciFiSpace",
			"pbrMetallicRoughness":{
				"baseColorTexture":{
					"index":0
				},
				"metallicFactor":0,
				"roughnessFactor":0.5527864098548889
			}
		}
	],
	"meshes":[
		{
			"name":"Mesh",
			"primitives":[
				{
					"attributes":{
						"POSITION":0,
						"NORMAL":1,
						"TEXCOORD_0":2,
						"TEXCOORD_1":3,
						"TEXCOORD_2":4
					},
					"indices":5,
					"material":0
				}
			]
		}
	],
	"textures":[
		{
			"extensions":{
				"EXT_texture_webp":{
					"source":0
				}
			},
			"sampler":0
		}
	],
	"images":[
		{
			"mimeType":"image/webp",
			"name":"PolygonSciFiSpace_Signs_Texture_01_A",
			"uri":"PolygonSciFiSpace_Signs_Texture_01_A.webp"
		}
	],
	"accessors":[
		{
			"bufferView":0,
			"componentType":5126,
			"count":4362,
			"max":[
				114.97734069824219,
				186.53564453125,
				65.596923828125
			],
			"min":[
				-114.97714233398438,
				-186.53564453125,
				-65.596923828125
			],
			"type":"VEC3"
		},
		{
			"bufferView":1,
			"componentType":5126,
			"count":4362,
			"type":"VEC3"
		},
		{
			"bufferView":2,
			"componentType":5126,
			"count":4362,
			"type":"VEC2"
		},
		{
			"bufferView":3,
			"componentType":5126,
			"count":4362,
			"type":"VEC2"
		},
		{
			"bufferView":4,
			"componentType":5126,
			"count":4362,
			"type":"VEC2"
		},
		{
			"bufferView":5,
			"componentType":5123,
			"count":7488,
			"type":"SCALAR"
		}
	],
	"bufferViews":[
		{
			"buffer":0,
			"byteLength":52344,
			"byteOffset":0,
			"target":34962
		},
		{
			"buffer":0,
			"byteLength":52344,
			"byteOffset":52344,
			"target":34962
		},
		{
			"buffer":0,
			"byteLength":34896,
			"byteOffset":104688,
			"target":34962
		},
		{
			"buffer":0,
			"byteLength":34896,
			"byteOffset":139584,
			"target":34962
		},
		{
			"buffer":0,
			"byteLength":34896,
			"byteOffset":174480,
			"target":34962
		},
		{
			"buffer":0,
			"byteLength":14976,
			"byteOffset":209376,
			"target":34963
		}
	],
	"samplers":[
		{
			"magFilter":9729,
			"minFilter":9987
		}
	],
	"buffers":[
		{
			"byteLength":224352,
			"uri":"space_SM_Veh_Drone_Attach_01.bin"
		}
	]
}
