{
	"asset":{
		"generator":"Khronos glTF Blender I/O v4.4.55",
		"version":"2.0"
	},
	"extensionsUsed":[
		"EXT_texture_webp"
	],
	"extensionsRequired":[
		"EXT_texture_webp"
	],
	"scene":0,
	"scenes":[
		{
			"name":"Scene",
			"nodes":[
				0
			]
		}
	],
	"nodes":[
		{
			"mesh":0,
			"name":"SM_Prop_Barrel_01",
			"rotation":[
				0.7071068286895752,
				0,
				0,
				0.7071068286895752
			],
			"scale":[
				0.009999999776482582,
				0.009999999776482582,
				0.009999999776482582
			]
		}
	],
	"materials":[
		{
			"doubleSided":true,
			"name":"SciFi",
			"pbrMetallicRoughness":{
				"baseColorTexture":{
					"index":0
				},
				"metallicFactor":0,
				"roughnessFactor":0.5527864098548889
			}
		}
	],
	"meshes":[
		{
			"name":"Mesh",
			"primitives":[
				{
					"attributes":{
						"POSITION":0,
						"NORMAL":1,
						"TEXCOORD_0":2
					},
					"indices":3,
					"material":0
				}
			]
		}
	],
	"textures":[
		{
			"extensions":{
				"EXT_texture_webp":{
					"source":0
				}
			},
			"sampler":0
		}
	],
	"images":[
		{
			"mimeType":"image/webp",
			"name":"PolygonSciFiSpace_Signs_Texture_01_A",
			"uri":"PolygonSciFiSpace_Signs_Texture_01_A.webp"
		}
	],
	"accessors":[
		{
			"bufferView":0,
			"componentType":5126,
			"count":738,
			"max":[
				18.240468978881836,
				18.240455627441406,
				0
			],
			"min":[
				-18.240489959716797,
				-18.24044418334961,
				-66.57166290283203
			],
			"type":"VEC3"
		},
		{
			"bufferView":1,
			"componentType":5126,
			"count":738,
			"type":"VEC3"
		},
		{
			"bufferView":2,
			"componentType":5126,
			"count":738,
			"type":"VEC2"
		},
		{
			"bufferView":3,
			"componentType":5123,
			"count":1218,
			"type":"SCALAR"
		}
	],
	"bufferViews":[
		{
			"buffer":0,
			"byteLength":8856,
			"byteOffset":0,
			"target":34962
		},
		{
			"buffer":0,
			"byteLength":8856,
			"byteOffset":8856,
			"target":34962
		},
		{
			"buffer":0,
			"byteLength":5904,
			"byteOffset":17712,
			"target":34962
		},
		{
			"buffer":0,
			"byteLength":2436,
			"byteOffset":23616,
			"target":34963
		}
	],
	"samplers":[
		{
			"magFilter":9729,
			"minFilter":9987
		}
	],
	"buffers":[
		{
			"byteLength":26052,
			"uri":"space_SM_Prop_Barrel_01.bin"
		}
	]
}
