{
	"asset":{
		"generator":"Khronos glTF Blender I/O v4.4.55",
		"version":"2.0"
	},
	"extensionsUsed":[
		"EXT_texture_webp"
	],
	"extensionsRequired":[
		"EXT_texture_webp"
	],
	"scene":0,
	"scenes":[
		{
			"name":"Scene",
			"nodes":[
				0
			]
		}
	],
	"nodes":[
		{
			"mesh":0,
			"name":"SM_Prop_Chr_Female_Cryo_02",
			"rotation":[
				0.7071068286895752,
				0,
				0,
				0.7071068286895752
			],
			"scale":[
				0.009999999776482582,
				0.009999999776482582,
				0.009999999776482582
			]
		}
	],
	"materials":[
		{
			"doubleSided":true,
			"name":"Color30",
			"pbrMetallicRoughness":{
				"baseColorTexture":{
					"index":0
				},
				"metallicFactor":0,
				"roughnessFactor":0.5527864098548889
			}
		}
	],
	"meshes":[
		{
			"name":"Mesh",
			"primitives":[
				{
					"attributes":{
						"POSITION":0,
						"NORMAL":1,
						"TEXCOORD_0":2,
						"COLOR_0":3,
						"COLOR_1":4
					},
					"indices":5,
					"material":0
				}
			]
		}
	],
	"textures":[
		{
			"extensions":{
				"EXT_texture_webp":{
					"source":0
				}
			},
			"sampler":0
		}
	],
	"images":[
		{
			"mimeType":"image/webp",
			"name":"PolygonSciFiSpace_Signs_Texture_01_A",
			"uri":"PolygonSciFiSpace_Signs_Texture_01_A.webp"
		}
	],
	"accessors":[
		{
			"bufferView":0,
			"componentType":5126,
			"count":4215,
			"max":[
				38.29917907714844,
				23.696517944335938,
				114.40963745117188
			],
			"min":[
				-30.70220947265625,
				-31.77165985107422,
				-69.46334838867188
			],
			"type":"VEC3"
		},
		{
			"bufferView":1,
			"componentType":5126,
			"count":4215,
			"type":"VEC3"
		},
		{
			"bufferView":2,
			"componentType":5126,
			"count":4215,
			"type":"VEC2"
		},
		{
			"bufferView":3,
			"componentType":5121,
			"count":4215,
			"normalized":true,
			"type":"VEC4"
		},
		{
			"bufferView":4,
			"componentType":5123,
			"count":4215,
			"normalized":true,
			"type":"VEC4"
		},
		{
			"bufferView":5,
			"componentType":5123,
			"count":5439,
			"type":"SCALAR"
		}
	],
	"bufferViews":[
		{
			"buffer":0,
			"byteLength":50580,
			"byteOffset":0,
			"target":34962
		},
		{
			"buffer":0,
			"byteLength":50580,
			"byteOffset":50580,
			"target":34962
		},
		{
			"buffer":0,
			"byteLength":33720,
			"byteOffset":101160,
			"target":34962
		},
		{
			"buffer":0,
			"byteLength":16860,
			"byteOffset":134880,
			"target":34962
		},
		{
			"buffer":0,
			"byteLength":33720,
			"byteOffset":151740,
			"target":34962
		},
		{
			"buffer":0,
			"byteLength":10878,
			"byteOffset":185460,
			"target":34963
		}
	],
	"samplers":[
		{
			"magFilter":9729,
			"minFilter":9987
		}
	],
	"buffers":[
		{
			"byteLength":196340,
			"uri":"space_SM_Prop_Chr_Female_Cryo_02.bin"
		}
	]
}
