{
	"asset":{
		"generator":"Khronos glTF Blender I/O v4.4.55",
		"version":"2.0"
	},
	"extensionsUsed":[
		"EXT_texture_webp"
	],
	"extensionsRequired":[
		"EXT_texture_webp"
	],
	"scene":0,
	"scenes":[
		{
			"name":"Scene",
			"nodes":[
				2
			]
		}
	],
	"nodes":[
		{
			"mesh":0,
			"name":"SM_Prop_Turret_Laser_Barrel_Double_01"
		},
		{
			"children":[
				0
			],
			"mesh":1,
			"name":"SM_Prop_Turret_Laser_Base_Double_01"
		},
		{
			"children":[
				1
			],
			"mesh":2,
			"name":"SM_Prop_Turret_Base_Double_04",
			"rotation":[
				0.7071068286895752,
				0,
				0,
				0.7071068286895752
			],
			"scale":[
				0.009999999776482582,
				0.009999999776482582,
				0.009999999776482582
			]
		}
	],
	"materials":[
		{
			"doubleSided":true,
			"name":"SciFi6",
			"pbrMetallicRoughness":{
				"baseColorTexture":{
					"index":0
				},
				"metallicFactor":0,
				"roughnessFactor":0.5527864098548889
			}
		}
	],
	"meshes":[
		{
			"name":"Mesh.002",
			"primitives":[
				{
					"attributes":{
						"POSITION":0,
						"NORMAL":1,
						"TEXCOORD_0":2
					},
					"indices":3,
					"material":0
				}
			]
		},
		{
			"name":"Mesh.001",
			"primitives":[
				{
					"attributes":{
						"POSITION":4,
						"NORMAL":5,
						"TEXCOORD_0":6
					},
					"indices":7,
					"material":0
				}
			]
		},
		{
			"name":"Mesh",
			"primitives":[
				{
					"attributes":{
						"POSITION":8,
						"NORMAL":9,
						"TEXCOORD_0":10
					},
					"indices":11,
					"material":0
				}
			]
		}
	],
	"textures":[
		{
			"extensions":{
				"EXT_texture_webp":{
					"source":0
				}
			},
			"sampler":0
		}
	],
	"images":[
		{
			"mimeType":"image/webp",
			"name":"PolygonSciFiSpace_Signs_Texture_01_A",
			"uri":"PolygonSciFiSpace_Signs_Texture_01_A.webp"
		}
	],
	"accessors":[
		{
			"bufferView":0,
			"componentType":5126,
			"count":2622,
			"max":[
				109.2498779296875,
				153.5986328125,
				-85.54916381835938
			],
			"min":[
				-109.249755859375,
				4.788169860839844,
				-126.0326919555664
			],
			"type":"VEC3"
		},
		{
			"bufferView":1,
			"componentType":5126,
			"count":2622,
			"type":"VEC3"
		},
		{
			"bufferView":2,
			"componentType":5126,
			"count":2622,
			"type":"VEC2"
		},
		{
			"bufferView":3,
			"componentType":5123,
			"count":4728,
			"type":"SCALAR"
		},
		{
			"bufferView":4,
			"componentType":5126,
			"count":436,
			"max":[
				90.10147094726562,
				21.461652755737305,
				-75.48432159423828
			],
			"min":[
				-90.10137176513672,
				-56.84969711303711,
				-136.09751892089844
			],
			"type":"VEC3"
		},
		{
			"bufferView":5,
			"componentType":5126,
			"count":436,
			"type":"VEC3"
		},
		{
			"bufferView":6,
			"componentType":5126,
			"count":436,
			"type":"VEC2"
		},
		{
			"bufferView":7,
			"componentType":5123,
			"count":840,
			"type":"SCALAR"
		},
		{
			"bufferView":8,
			"componentType":5126,
			"count":1562,
			"max":[
				79.53231811523438,
				79.53231811523438,
				41.69206237792969
			],
			"min":[
				-79.532470703125,
				-79.53231811523438,
				-117.9889907836914
			],
			"type":"VEC3"
		},
		{
			"bufferView":9,
			"componentType":5126,
			"count":1562,
			"type":"VEC3"
		},
		{
			"bufferView":10,
			"componentType":5126,
			"count":1562,
			"type":"VEC2"
		},
		{
			"bufferView":11,
			"componentType":5123,
			"count":2643,
			"type":"SCALAR"
		}
	],
	"bufferViews":[
		{
			"buffer":0,
			"byteLength":31464,
			"byteOffset":0,
			"target":34962
		},
		{
			"buffer":0,
			"byteLength":31464,
			"byteOffset":31464,
			"target":34962
		},
		{
			"buffer":0,
			"byteLength":20976,
			"byteOffset":62928,
			"target":34962
		},
		{
			"buffer":0,
			"byteLength":9456,
			"byteOffset":83904,
			"target":34963
		},
		{
			"buffer":0,
			"byteLength":5232,
			"byteOffset":93360,
			"target":34962
		},
		{
			"buffer":0,
			"byteLength":5232,
			"byteOffset":98592,
			"target":34962
		},
		{
			"buffer":0,
			"byteLength":3488,
			"byteOffset":103824,
			"target":34962
		},
		{
			"buffer":0,
			"byteLength":1680,
			"byteOffset":107312,
			"target":34963
		},
		{
			"buffer":0,
			"byteLength":18744,
			"byteOffset":108992,
			"target":34962
		},
		{
			"buffer":0,
			"byteLength":18744,
			"byteOffset":127736,
			"target":34962
		},
		{
			"buffer":0,
			"byteLength":12496,
			"byteOffset":146480,
			"target":34962
		},
		{
			"buffer":0,
			"byteLength":5286,
			"byteOffset":158976,
			"target":34963
		}
	],
	"samplers":[
		{
			"magFilter":9729,
			"minFilter":9987
		}
	],
	"buffers":[
		{
			"byteLength":164264,
			"uri":"space_SM_Prop_Turret_Base_Double_04.bin"
		}
	]
}
