{
	"asset":{
		"generator":"Khronos glTF Blender I/O v4.4.55",
		"version":"2.0"
	},
	"extensionsUsed":[
		"EXT_texture_webp"
	],
	"extensionsRequired":[
		"EXT_texture_webp"
	],
	"scene":0,
	"scenes":[
		{
			"name":"Scene",
			"nodes":[
				0
			]
		}
	],
	"nodes":[
		{
			"mesh":0,
			"name":"SM_Veh_Part_Wing_02",
			"rotation":[
				0.7071068286895752,
				0,
				0,
				0.7071068286895752
			],
			"scale":[
				0.009999999776482582,
				0.009999999776482582,
				0.009999999776482582
			]
		}
	],
	"materials":[
		{
			"doubleSided":true,
			"name":"SciFi11",
			"pbrMetallicRoughness":{
				"baseColorTexture":{
					"index":0
				},
				"metallicFactor":0,
				"roughnessFactor":0.5527864098548889
			}
		}
	],
	"meshes":[
		{
			"name":"Mesh",
			"primitives":[
				{
					"attributes":{
						"POSITION":0,
						"NORMAL":1,
						"TEXCOORD_0":2,
						"TEXCOORD_1":3,
						"TEXCOORD_2":4
					},
					"indices":5,
					"material":0
				}
			]
		}
	],
	"textures":[
		{
			"extensions":{
				"EXT_texture_webp":{
					"source":0
				}
			},
			"sampler":0
		}
	],
	"images":[
		{
			"mimeType":"image/webp",
			"name":"PolygonSciFiSpace_Signs_Texture_01_A",
			"uri":"PolygonSciFiSpace_Signs_Texture_01_A.webp"
		}
	],
	"accessors":[
		{
			"bufferView":0,
			"componentType":5126,
			"count":729,
			"max":[
				430.44921875,
				984.481201171875,
				70.880126953125
			],
			"min":[
				-430.44921875,
				-984.481201171875,
				-70.880126953125
			],
			"type":"VEC3"
		},
		{
			"bufferView":1,
			"componentType":5126,
			"count":729,
			"type":"VEC3"
		},
		{
			"bufferView":2,
			"componentType":5126,
			"count":729,
			"type":"VEC2"
		},
		{
			"bufferView":3,
			"componentType":5126,
			"count":729,
			"type":"VEC2"
		},
		{
			"bufferView":4,
			"componentType":5126,
			"count":729,
			"type":"VEC2"
		},
		{
			"bufferView":5,
			"componentType":5123,
			"count":1164,
			"type":"SCALAR"
		}
	],
	"bufferViews":[
		{
			"buffer":0,
			"byteLength":8748,
			"byteOffset":0,
			"target":34962
		},
		{
			"buffer":0,
			"byteLength":8748,
			"byteOffset":8748,
			"target":34962
		},
		{
			"buffer":0,
			"byteLength":5832,
			"byteOffset":17496,
			"target":34962
		},
		{
			"buffer":0,
			"byteLength":5832,
			"byteOffset":23328,
			"target":34962
		},
		{
			"buffer":0,
			"byteLength":5832,
			"byteOffset":29160,
			"target":34962
		},
		{
			"buffer":0,
			"byteLength":2328,
			"byteOffset":34992,
			"target":34963
		}
	],
	"samplers":[
		{
			"magFilter":9729,
			"minFilter":9987
		}
	],
	"buffers":[
		{
			"byteLength":37320,
			"uri":"space_SM_Veh_Part_Wing_02.bin"
		}
	]
}
