{
	"asset":{
		"generator":"Khronos glTF Blender I/O v4.4.55",
		"version":"2.0"
	},
	"extensionsUsed":[
		"EXT_texture_webp"
	],
	"extensionsRequired":[
		"EXT_texture_webp"
	],
	"scene":0,
	"scenes":[
		{
			"name":"Scene",
			"nodes":[
				0
			]
		}
	],
	"nodes":[
		{
			"mesh":0,
			"name":"SM_Ship_Station_03",
			"rotation":[
				0.7071068286895752,
				0,
				0,
				0.7071068286895752
			],
			"scale":[
				0.009999999776482582,
				0.009999999776482582,
				0.009999999776482582
			]
		}
	],
	"materials":[
		{
			"doubleSided":true,
			"name":"SciFiSpace",
			"pbrMetallicRoughness":{
				"baseColorTexture":{
					"index":0
				},
				"metallicFactor":0,
				"roughnessFactor":0.5527864098548889
			}
		}
	],
	"meshes":[
		{
			"name":"Mesh",
			"primitives":[
				{
					"attributes":{
						"POSITION":0,
						"NORMAL":1,
						"TEXCOORD_0":2,
						"TEXCOORD_1":3,
						"TEXCOORD_2":4
					},
					"indices":5,
					"material":0
				}
			]
		}
	],
	"textures":[
		{
			"extensions":{
				"EXT_texture_webp":{
					"source":0
				}
			},
			"sampler":0
		}
	],
	"images":[
		{
			"mimeType":"image/webp",
			"name":"PolygonSciFiSpace_Signs_Texture_01_A",
			"uri":"PolygonSciFiSpace_Signs_Texture_01_A.webp"
		}
	],
	"accessors":[
		{
			"bufferView":0,
			"componentType":5126,
			"count":17195,
			"max":[
				13418.462890625,
				13777.392578125,
				3847.82421875
			],
			"min":[
				-13418.462890625,
				-13777.392578125,
				-482.2174072265625
			],
			"type":"VEC3"
		},
		{
			"bufferView":1,
			"componentType":5126,
			"count":17195,
			"type":"VEC3"
		},
		{
			"bufferView":2,
			"componentType":5126,
			"count":17195,
			"type":"VEC2"
		},
		{
			"bufferView":3,
			"componentType":5126,
			"count":17195,
			"type":"VEC2"
		},
		{
			"bufferView":4,
			"componentType":5126,
			"count":17195,
			"type":"VEC2"
		},
		{
			"bufferView":5,
			"componentType":5123,
			"count":30150,
			"type":"SCALAR"
		}
	],
	"bufferViews":[
		{
			"buffer":0,
			"byteLength":206340,
			"byteOffset":0,
			"target":34962
		},
		{
			"buffer":0,
			"byteLength":206340,
			"byteOffset":206340,
			"target":34962
		},
		{
			"buffer":0,
			"byteLength":137560,
			"byteOffset":412680,
			"target":34962
		},
		{
			"buffer":0,
			"byteLength":137560,
			"byteOffset":550240,
			"target":34962
		},
		{
			"buffer":0,
			"byteLength":137560,
			"byteOffset":687800,
			"target":34962
		},
		{
			"buffer":0,
			"byteLength":60300,
			"byteOffset":825360,
			"target":34963
		}
	],
	"samplers":[
		{
			"magFilter":9729,
			"minFilter":9987
		}
	],
	"buffers":[
		{
			"byteLength":885660,
			"uri":"space_SM_Ship_Station_03.bin"
		}
	]
}
