{"asset":{"generator":"Khronos glTF Blender I/O v4.4.55","version":"2.0"},"extensionsUsed":["EXT_texture_webp"],"extensionsRequired":["EXT_texture_webp"],"scene":0,"scenes":[{"name":"Scene","nodes":[1]}],"nodes":[{"mesh":0,"name":"SM_Veh_POV_Cockpit_Frame_Glass_01"},{"children":[0],"mesh":1,"name":"SM_Veh_POV_Cockpit_Frame_01","rotation":[0.7071068286895752,0,0,0.7071068286895752],"scale":[0.009999999776482582,0.009999999776482582,0.009999999776482582]}],"materials":[{"alphaMode":"MASK","doubleSided":true,"name":"Glass1","pbrMetallicRoughness":{"baseColorFactor":[1,1,1,0.15037763118743896],"baseColorTexture":{"index":0},"metallicFactor":0,"roughnessFactor":0.5527864098548889},"alphaCutoff":0.5},{"doubleSided":true,"name":"SciFiSpace2","pbrMetallicRoughness":{"baseColorTexture":{"index":1},"metallicFactor":0,"roughnessFactor":0.5527864098548889}}],"meshes":[{"name":"Mesh.001","primitives":[{"attributes":{"POSITION":0,"NORMAL":1,"TEXCOORD_0":2},"indices":3,"material":0}]},{"name":"Mesh","primitives":[{"attributes":{"POSITION":4,"NORMAL":5,"TEXCOORD_0":6},"indices":7,"material":1}]}],"textures":[{"extensions":{"EXT_texture_webp":{"source":0}},"sampler":0},{"extensions":{"EXT_texture_webp":{"source":0}},"sampler":0}],"images":[{"mimeType":"image/webp","name":"PolygonSciFiSpace_Signs_Texture_01_A","uri":"PolygonSciFiSpace_Signs_Texture_01_A.webp"}],"accessors":[{"bufferView":0,"componentType":5126,"count":36,"max":[80.02392578125,160.39013671875,-34.541656494140625],"min":[-80.02374267578125,-95.971923828125,-119.06260681152344],"type":"VEC3"},{"bufferView":1,"componentType":5126,"count":36,"type":"VEC3"},{"bufferView":2,"componentType":5126,"count":36,"type":"VEC2"},{"bufferView":3,"componentType":5123,"count":60,"type":"SCALAR"},{"bufferView":4,"componentType":5126,"count":364,"max":[81.83624267578125,160.654296875,-28.571975708007812],"min":[-81.83612060546875,-102.294677734375,-119.06260681152344],"type":"VEC3"},{"bufferView":5,"componentType":5126,"count":364,"type":"VEC3"},{"bufferView":6,"componentType":5126,"count":364,"type":"VEC2"},{"bufferView":7,"componentType":5123,"count":540,"type":"SCALAR"}],"bufferViews":[{"buffer":0,"byteLength":432,"byteOffset":0,"target":34962},{"buffer":0,"byteLength":432,"byteOffset":432,"target":34962},{"buffer":0,"byteLength":288,"byteOffset":864,"target":34962},{"buffer":0,"byteLength":120,"byteOffset":1152,"target":34963},{"buffer":0,"byteLength":4368,"byteOffset":1272,"target":34962},{"buffer":0,"byteLength":4368,"byteOffset":5640,"target":34962},{"buffer":0,"byteLength":2912,"byteOffset":10008,"target":34962},{"buffer":0,"byteLength":1080,"byteOffset":12920,"target":34963}],"samplers":[{"magFilter":9729,"minFilter":9987}],"buffers":[{"byteLength":14000,"uri":"space_SM_Veh_POV_Cockpit_Frame_01.bin"}]}