{
	"asset":{
		"generator":"Khronos glTF Blender I/O v4.4.55",
		"version":"2.0"
	},
	"extensionsUsed":[
		"EXT_texture_webp"
	],
	"extensionsRequired":[
		"EXT_texture_webp"
	],
	"scene":0,
	"scenes":[
		{
			"name":"Scene",
			"nodes":[
				3
			]
		}
	],
	"nodes":[
		{
			"mesh":0,
			"name":"SM_Bld_HangerDoor_01"
		},
		{
			"mesh":1,
			"name":"SM_Bld_HangerDoor_02"
		},
		{
			"children":[
				0,
				1
			],
			"mesh":2,
			"name":"SM_Bld_Hanger_02"
		},
		{
			"children":[
				2
			],
			"mesh":3,
			"name":"SM_Bld_HangerExteriorShip_02",
			"rotation":[
				0.7071068286895752,
				0,
				0,
				0.7071068286895752
			],
			"scale":[
				0.009999999776482582,
				0.009999999776482582,
				0.009999999776482582
			]
		}
	],
	"materials":[
		{
			"doubleSided":true,
			"name":"lambert1",
			"pbrMetallicRoughness":{
				"baseColorTexture":{
					"index":0
				},
				"metallicFactor":0,
				"roughnessFactor":0.5527864098548889
			}
		}
	],
	"meshes":[
		{
			"name":"Mesh.002",
			"primitives":[
				{
					"attributes":{
						"POSITION":0,
						"NORMAL":1,
						"TEXCOORD_0":2
					},
					"indices":3,
					"material":0
				}
			]
		},
		{
			"name":"Mesh.003",
			"primitives":[
				{
					"attributes":{
						"POSITION":4,
						"NORMAL":5,
						"TEXCOORD_0":6
					},
					"indices":7,
					"material":0
				}
			]
		},
		{
			"name":"Mesh.001",
			"primitives":[
				{
					"attributes":{
						"POSITION":8,
						"NORMAL":9,
						"TEXCOORD_0":10
					},
					"indices":11,
					"material":0
				}
			]
		},
		{
			"name":"Mesh",
			"primitives":[
				{
					"attributes":{
						"POSITION":12,
						"NORMAL":13,
						"TEXCOORD_0":14
					},
					"indices":15,
					"material":0
				}
			]
		}
	],
	"textures":[
		{
			"extensions":{
				"EXT_texture_webp":{
					"source":0
				}
			},
			"sampler":0
		}
	],
	"images":[
		{
			"mimeType":"image/webp",
			"name":"PolygonSciFiSpace_Signs_Texture_01_A",
			"uri":"PolygonSciFiSpace_Signs_Texture_01_A.webp"
		}
	],
	"accessors":[
		{
			"bufferView":0,
			"componentType":5126,
			"count":6927,
			"max":[
				3030.648681640625,
				-656.7974853515625,
				-2.3843400478363037
			],
			"min":[
				2972.876953125,
				-2057.7373046875,
				-1097.5263671875
			],
			"type":"VEC3"
		},
		{
			"bufferView":1,
			"componentType":5126,
			"count":6927,
			"type":"VEC3"
		},
		{
			"bufferView":2,
			"componentType":5126,
			"count":6927,
			"type":"VEC2"
		},
		{
			"bufferView":3,
			"componentType":5123,
			"count":11040,
			"type":"SCALAR"
		},
		{
			"bufferView":4,
			"componentType":5126,
			"count":7108,
			"max":[
				3030.648681640625,
				-1940.032470703125,
				-2.384337902069092
			],
			"min":[
				2972.876953125,
				-3340.972412109375,
				-1097.5263671875
			],
			"type":"VEC3"
		},
		{
			"bufferView":5,
			"componentType":5126,
			"count":7108,
			"type":"VEC3"
		},
		{
			"bufferView":6,
			"componentType":5126,
			"count":7108,
			"type":"VEC2"
		},
		{
			"bufferView":7,
			"componentType":5123,
			"count":11634,
			"type":"SCALAR"
		},
		{
			"bufferView":8,
			"componentType":5126,
			"count":1186,
			"max":[
				3058.28369140625,
				-499.99969482421875,
				99.5440673828125
			],
			"min":[
				2941.716552734375,
				-3499.999755859375,
				-1166.4835205078125
			],
			"type":"VEC3"
		},
		{
			"bufferView":9,
			"componentType":5126,
			"count":1186,
			"type":"VEC3"
		},
		{
			"bufferView":10,
			"componentType":5126,
			"count":1186,
			"type":"VEC2"
		},
		{
			"bufferView":11,
			"componentType":5123,
			"count":2148,
			"type":"SCALAR"
		},
		{
			"bufferView":12,
			"componentType":5126,
			"count":231,
			"max":[
				3187.231689453125,
				885.0296630859375,
				1000.014892578125
			],
			"min":[
				1798.1947021484375,
				-4967.4658203125,
				-1964.992431640625
			],
			"type":"VEC3"
		},
		{
			"bufferView":13,
			"componentType":5126,
			"count":231,
			"type":"VEC3"
		},
		{
			"bufferView":14,
			"componentType":5126,
			"count":231,
			"type":"VEC2"
		},
		{
			"bufferView":15,
			"componentType":5123,
			"count":417,
			"type":"SCALAR"
		}
	],
	"bufferViews":[
		{
			"buffer":0,
			"byteLength":83124,
			"byteOffset":0,
			"target":34962
		},
		{
			"buffer":0,
			"byteLength":83124,
			"byteOffset":83124,
			"target":34962
		},
		{
			"buffer":0,
			"byteLength":55416,
			"byteOffset":166248,
			"target":34962
		},
		{
			"buffer":0,
			"byteLength":22080,
			"byteOffset":221664,
			"target":34963
		},
		{
			"buffer":0,
			"byteLength":85296,
			"byteOffset":243744,
			"target":34962
		},
		{
			"buffer":0,
			"byteLength":85296,
			"byteOffset":329040,
			"target":34962
		},
		{
			"buffer":0,
			"byteLength":56864,
			"byteOffset":414336,
			"target":34962
		},
		{
			"buffer":0,
			"byteLength":23268,
			"byteOffset":471200,
			"target":34963
		},
		{
			"buffer":0,
			"byteLength":14232,
			"byteOffset":494468,
			"target":34962
		},
		{
			"buffer":0,
			"byteLength":14232,
			"byteOffset":508700,
			"target":34962
		},
		{
			"buffer":0,
			"byteLength":9488,
			"byteOffset":522932,
			"target":34962
		},
		{
			"buffer":0,
			"byteLength":4296,
			"byteOffset":532420,
			"target":34963
		},
		{
			"buffer":0,
			"byteLength":2772,
			"byteOffset":536716,
			"target":34962
		},
		{
			"buffer":0,
			"byteLength":2772,
			"byteOffset":539488,
			"target":34962
		},
		{
			"buffer":0,
			"byteLength":1848,
			"byteOffset":542260,
			"target":34962
		},
		{
			"buffer":0,
			"byteLength":834,
			"byteOffset":544108,
			"target":34963
		}
	],
	"samplers":[
		{
			"magFilter":9729,
			"minFilter":9987
		}
	],
	"buffers":[
		{
			"byteLength":544944,
			"uri":"space_SM_Bld_HangarExteriorShip_02.bin"
		}
	]
}
