{
	"asset":{
		"generator":"Khronos glTF Blender I/O v4.4.55",
		"version":"2.0"
	},
	"extensionsUsed":[
		"EXT_texture_webp"
	],
	"extensionsRequired":[
		"EXT_texture_webp"
	],
	"scene":0,
	"scenes":[
		{
			"name":"Scene",
			"nodes":[
				0
			]
		}
	],
	"nodes":[
		{
			"mesh":0,
			"name":"SM_Prop_Chr_Female_Cryo_01",
			"rotation":[
				0.7071068286895752,
				0,
				0,
				0.7071068286895752
			],
			"scale":[
				0.009999999776482582,
				0.009999999776482582,
				0.009999999776482582
			]
		}
	],
	"materials":[
		{
			"doubleSided":true,
			"name":"Color29",
			"pbrMetallicRoughness":{
				"baseColorTexture":{
					"index":0
				},
				"metallicFactor":0,
				"roughnessFactor":0.5527864098548889
			}
		}
	],
	"meshes":[
		{
			"name":"Mesh",
			"primitives":[
				{
					"attributes":{
						"POSITION":0,
						"NORMAL":1,
						"TEXCOORD_0":2,
						"TEXCOORD_1":3,
						"COLOR_0":4,
						"COLOR_1":5
					},
					"indices":6,
					"material":0
				}
			]
		}
	],
	"textures":[
		{
			"extensions":{
				"EXT_texture_webp":{
					"source":0
				}
			},
			"sampler":0
		}
	],
	"images":[
		{
			"mimeType":"image/webp",
			"name":"PolygonSciFiSpace_Signs_Texture_01_A",
			"uri":"PolygonSciFiSpace_Signs_Texture_01_A.webp"
		}
	],
	"accessors":[
		{
			"bufferView":0,
			"componentType":5126,
			"count":3631,
			"max":[
				26.370046615600586,
				14.258164405822754,
				105.19464111328125
			],
			"min":[
				-26.563907623291016,
				-16.408098220825195,
				-75.10710906982422
			],
			"type":"VEC3"
		},
		{
			"bufferView":1,
			"componentType":5126,
			"count":3631,
			"type":"VEC3"
		},
		{
			"bufferView":2,
			"componentType":5126,
			"count":3631,
			"type":"VEC2"
		},
		{
			"bufferView":3,
			"componentType":5126,
			"count":3631,
			"type":"VEC2"
		},
		{
			"bufferView":4,
			"componentType":5121,
			"count":3631,
			"normalized":true,
			"type":"VEC4"
		},
		{
			"bufferView":5,
			"componentType":5123,
			"count":3631,
			"normalized":true,
			"type":"VEC4"
		},
		{
			"bufferView":6,
			"componentType":5123,
			"count":5439,
			"type":"SCALAR"
		}
	],
	"bufferViews":[
		{
			"buffer":0,
			"byteLength":43572,
			"byteOffset":0,
			"target":34962
		},
		{
			"buffer":0,
			"byteLength":43572,
			"byteOffset":43572,
			"target":34962
		},
		{
			"buffer":0,
			"byteLength":29048,
			"byteOffset":87144,
			"target":34962
		},
		{
			"buffer":0,
			"byteLength":29048,
			"byteOffset":116192,
			"target":34962
		},
		{
			"buffer":0,
			"byteLength":14524,
			"byteOffset":145240,
			"target":34962
		},
		{
			"buffer":0,
			"byteLength":29048,
			"byteOffset":159764,
			"target":34962
		},
		{
			"buffer":0,
			"byteLength":10878,
			"byteOffset":188812,
			"target":34963
		}
	],
	"samplers":[
		{
			"magFilter":9729,
			"minFilter":9987
		}
	],
	"buffers":[
		{
			"byteLength":199692,
			"uri":"space_SM_Prop_Chr_Female_Cryo_01.bin"
		}
	]
}
