{
	"asset":{
		"generator":"Khronos glTF Blender I/O v4.4.55",
		"version":"2.0"
	},
	"extensionsUsed":[
		"EXT_texture_webp"
	],
	"extensionsRequired":[
		"EXT_texture_webp"
	],
	"scene":0,
	"scenes":[
		{
			"name":"Scene",
			"nodes":[
				1
			]
		}
	],
	"nodes":[
		{
			"mesh":0,
			"name":"SM_Bld_Floor_Small_Hatch_Door_01"
		},
		{
			"children":[
				0
			],
			"mesh":1,
			"name":"SM_Bld_Floor_Small_Hatch_01",
			"rotation":[
				0.7071068286895752,
				0,
				0,
				0.7071068286895752
			],
			"scale":[
				0.009999999776482582,
				0.009999999776482582,
				0.009999999776482582
			]
		}
	],
	"materials":[
		{
			"doubleSided":true,
			"name":"SciFi1",
			"pbrMetallicRoughness":{
				"baseColorTexture":{
					"index":0
				},
				"metallicFactor":0,
				"roughnessFactor":0.5527864098548889
			}
		}
	],
	"meshes":[
		{
			"name":"Mesh.001",
			"primitives":[
				{
					"attributes":{
						"POSITION":0,
						"NORMAL":1,
						"TEXCOORD_0":2
					},
					"indices":3,
					"material":0
				}
			]
		},
		{
			"name":"Mesh",
			"primitives":[
				{
					"attributes":{
						"POSITION":4,
						"NORMAL":5,
						"TEXCOORD_0":6
					},
					"indices":7,
					"material":0
				}
			]
		}
	],
	"textures":[
		{
			"extensions":{
				"EXT_texture_webp":{
					"source":0
				}
			},
			"sampler":0
		}
	],
	"images":[
		{
			"mimeType":"image/webp",
			"name":"PolygonSciFiSpace_Texture_03_A",
			"uri":"PolygonSciFiSpace_Texture_03_A.webp"
		}
	],
	"accessors":[
		{
			"bufferView":0,
			"componentType":5126,
			"count":364,
			"max":[
				202.09405517578125,
				201.021728515625,
				7.738452434539795
			],
			"min":[
				49.58290100097656,
				48.510894775390625,
				-5.6906352043151855
			],
			"type":"VEC3"
		},
		{
			"bufferView":1,
			"componentType":5126,
			"count":364,
			"type":"VEC3"
		},
		{
			"bufferView":2,
			"componentType":5126,
			"count":364,
			"type":"VEC2"
		},
		{
			"bufferView":3,
			"componentType":5123,
			"count":660,
			"type":"SCALAR"
		},
		{
			"bufferView":4,
			"componentType":5126,
			"count":592,
			"max":[
				250,
				249.99984741210938,
				23.20347023010254
			],
			"min":[
				7.62939453125e-05,
				-0.000152587890625,
				-6.278162479400635
			],
			"type":"VEC3"
		},
		{
			"bufferView":5,
			"componentType":5126,
			"count":592,
			"type":"VEC3"
		},
		{
			"bufferView":6,
			"componentType":5126,
			"count":592,
			"type":"VEC2"
		},
		{
			"bufferView":7,
			"componentType":5123,
			"count":1212,
			"type":"SCALAR"
		}
	],
	"bufferViews":[
		{
			"buffer":0,
			"byteLength":4368,
			"byteOffset":0,
			"target":34962
		},
		{
			"buffer":0,
			"byteLength":4368,
			"byteOffset":4368,
			"target":34962
		},
		{
			"buffer":0,
			"byteLength":2912,
			"byteOffset":8736,
			"target":34962
		},
		{
			"buffer":0,
			"byteLength":1320,
			"byteOffset":11648,
			"target":34963
		},
		{
			"buffer":0,
			"byteLength":7104,
			"byteOffset":12968,
			"target":34962
		},
		{
			"buffer":0,
			"byteLength":7104,
			"byteOffset":20072,
			"target":34962
		},
		{
			"buffer":0,
			"byteLength":4736,
			"byteOffset":27176,
			"target":34962
		},
		{
			"buffer":0,
			"byteLength":2424,
			"byteOffset":31912,
			"target":34963
		}
	],
	"samplers":[
		{
			"magFilter":9729,
			"minFilter":9987
		}
	],
	"buffers":[
		{
			"byteLength":34336,
			"uri":"space_SM_Bld_Floor_Small_Hatch_01.bin"
		}
	]
}
