{
	"asset":{
		"generator":"Khronos glTF Blender I/O v4.4.55",
		"version":"2.0"
	},
	"extensionsUsed":[
		"EXT_texture_webp"
	],
	"extensionsRequired":[
		"EXT_texture_webp"
	],
	"scene":0,
	"scenes":[
		{
			"name":"Scene",
			"nodes":[
				0
			]
		}
	],
	"nodes":[
		{
			"mesh":0,
			"name":"SM_Veh_Drone_Repair_01",
			"rotation":[
				0.7071068286895752,
				0,
				0,
				0.7071068286895752
			],
			"scale":[
				0.009999999776482582,
				0.009999999776482582,
				0.009999999776482582
			]
		}
	],
	"materials":[
		{
			"doubleSided":true,
			"name":"SciFiSpace",
			"pbrMetallicRoughness":{
				"baseColorTexture":{
					"index":0
				},
				"metallicFactor":0,
				"roughnessFactor":0.5527864098548889
			}
		}
	],
	"meshes":[
		{
			"name":"Mesh",
			"primitives":[
				{
					"attributes":{
						"POSITION":0,
						"NORMAL":1,
						"TEXCOORD_0":2,
						"TEXCOORD_1":3,
						"TEXCOORD_2":4
					},
					"indices":5,
					"material":0
				}
			]
		}
	],
	"textures":[
		{
			"extensions":{
				"EXT_texture_webp":{
					"source":0
				}
			},
			"sampler":0
		}
	],
	"images":[
		{
			"mimeType":"image/webp",
			"name":"PolygonSciFiSpace_Signs_Texture_01_A",
			"uri":"PolygonSciFiSpace_Signs_Texture_01_A.webp"
		}
	],
	"accessors":[
		{
			"bufferView":0,
			"componentType":5126,
			"count":5795,
			"max":[
				216.50144958496094,
				99.7705078125,
				82.2113037109375
			],
			"min":[
				-216.50148010253906,
				-99.76806640625,
				-82.2119140625
			],
			"type":"VEC3"
		},
		{
			"bufferView":1,
			"componentType":5126,
			"count":5795,
			"type":"VEC3"
		},
		{
			"bufferView":2,
			"componentType":5126,
			"count":5795,
			"type":"VEC2"
		},
		{
			"bufferView":3,
			"componentType":5126,
			"count":5795,
			"type":"VEC2"
		},
		{
			"bufferView":4,
			"componentType":5126,
			"count":5795,
			"type":"VEC2"
		},
		{
			"bufferView":5,
			"componentType":5123,
			"count":9516,
			"type":"SCALAR"
		}
	],
	"bufferViews":[
		{
			"buffer":0,
			"byteLength":69540,
			"byteOffset":0,
			"target":34962
		},
		{
			"buffer":0,
			"byteLength":69540,
			"byteOffset":69540,
			"target":34962
		},
		{
			"buffer":0,
			"byteLength":46360,
			"byteOffset":139080,
			"target":34962
		},
		{
			"buffer":0,
			"byteLength":46360,
			"byteOffset":185440,
			"target":34962
		},
		{
			"buffer":0,
			"byteLength":46360,
			"byteOffset":231800,
			"target":34962
		},
		{
			"buffer":0,
			"byteLength":19032,
			"byteOffset":278160,
			"target":34963
		}
	],
	"samplers":[
		{
			"magFilter":9729,
			"minFilter":9987
		}
	],
	"buffers":[
		{
			"byteLength":297192,
			"uri":"space_SM_Veh_Drone_Repair_01.bin"
		}
	]
}
