{
	"asset":{
		"generator":"Khronos glTF Blender I/O v4.4.55",
		"version":"2.0"
	},
	"extensionsUsed":[
		"EXT_texture_webp"
	],
	"extensionsRequired":[
		"EXT_texture_webp"
	],
	"scene":0,
	"scenes":[
		{
			"name":"Scene",
			"nodes":[
				1
			]
		}
	],
	"nodes":[
		{
			"mesh":0,
			"name":"SM_Bld_Wall_Pods_Glass_01"
		},
		{
			"children":[
				0
			],
			"mesh":1,
			"name":"SM_Bld_Wall_Pods_01",
			"rotation":[
				0.7071068286895752,
				0,
				0,
				0.7071068286895752
			],
			"scale":[
				0.009999999776482582,
				0.009999999776482582,
				0.009999999776482582
			]
		}
	],
	"materials":[
		{
			"doubleSided":true,
			"name":"SciFi1",
			"pbrMetallicRoughness":{
				"baseColorTexture":{
					"index":0
				},
				"metallicFactor":0,
				"roughnessFactor":0.5527864098548889
			}
		}
	],
	"meshes":[
		{
			"name":"Mesh.001",
			"primitives":[
				{
					"attributes":{
						"POSITION":0,
						"NORMAL":1,
						"TEXCOORD_0":2
					},
					"indices":3,
					"material":0
				}
			]
		},
		{
			"name":"Mesh",
			"primitives":[
				{
					"attributes":{
						"POSITION":4,
						"NORMAL":5,
						"TEXCOORD_0":6
					},
					"indices":7,
					"material":0
				}
			]
		}
	],
	"textures":[
		{
			"extensions":{
				"EXT_texture_webp":{
					"source":0
				}
			},
			"sampler":0
		}
	],
	"images":[
		{
			"mimeType":"image/webp",
			"name":"PolygonSciFiSpace_Texture_03_A",
			"uri":"PolygonSciFiSpace_Texture_03_A.webp"
		}
	],
	"accessors":[
		{
			"bufferView":0,
			"componentType":5126,
			"count":150,
			"max":[
				435.39306640625,
				82.54601287841797,
				-21.306617736816406
			],
			"min":[
				64.60678100585938,
				28.21753692626953,
				-231.67279052734375
			],
			"type":"VEC3"
		},
		{
			"bufferView":1,
			"componentType":5126,
			"count":150,
			"type":"VEC3"
		},
		{
			"bufferView":2,
			"componentType":5126,
			"count":150,
			"type":"VEC2"
		},
		{
			"bufferView":3,
			"componentType":5123,
			"count":216,
			"type":"SCALAR"
		},
		{
			"bufferView":4,
			"componentType":5126,
			"count":8614,
			"max":[
				500,
				114.41094207763672,
				99.54407501220703
			],
			"min":[
				-0.000152587890625,
				-38.47503662109375,
				-400
			],
			"type":"VEC3"
		},
		{
			"bufferView":5,
			"componentType":5126,
			"count":8614,
			"type":"VEC3"
		},
		{
			"bufferView":6,
			"componentType":5126,
			"count":8614,
			"type":"VEC2"
		},
		{
			"bufferView":7,
			"componentType":5123,
			"count":13848,
			"type":"SCALAR"
		}
	],
	"bufferViews":[
		{
			"buffer":0,
			"byteLength":1800,
			"byteOffset":0,
			"target":34962
		},
		{
			"buffer":0,
			"byteLength":1800,
			"byteOffset":1800,
			"target":34962
		},
		{
			"buffer":0,
			"byteLength":1200,
			"byteOffset":3600,
			"target":34962
		},
		{
			"buffer":0,
			"byteLength":432,
			"byteOffset":4800,
			"target":34963
		},
		{
			"buffer":0,
			"byteLength":103368,
			"byteOffset":5232,
			"target":34962
		},
		{
			"buffer":0,
			"byteLength":103368,
			"byteOffset":108600,
			"target":34962
		},
		{
			"buffer":0,
			"byteLength":68912,
			"byteOffset":211968,
			"target":34962
		},
		{
			"buffer":0,
			"byteLength":27696,
			"byteOffset":280880,
			"target":34963
		}
	],
	"samplers":[
		{
			"magFilter":9729,
			"minFilter":9987
		}
	],
	"buffers":[
		{
			"byteLength":308576,
			"uri":"space_SM_Bld_Wall_Pods_01.bin"
		}
	]
}
