{
	"asset":{
		"generator":"Khronos glTF Blender I/O v4.4.55",
		"version":"2.0"
	},
	"extensionsUsed":[
		"EXT_texture_webp"
	],
	"extensionsRequired":[
		"EXT_texture_webp"
	],
	"scene":0,
	"scenes":[
		{
			"name":"Scene",
			"nodes":[
				0
			]
		}
	],
	"nodes":[
		{
			"mesh":0,
			"name":"SM_Veh_Part_Cockpit_03",
			"rotation":[
				0.7071068286895752,
				0,
				0,
				0.7071068286895752
			],
			"scale":[
				0.009999999776482582,
				0.009999999776482582,
				0.009999999776482582
			]
		}
	],
	"materials":[
		{
			"doubleSided":true,
			"name":"SciFi11",
			"pbrMetallicRoughness":{
				"baseColorTexture":{
					"index":0
				},
				"metallicFactor":0,
				"roughnessFactor":0.5527864098548889
			}
		}
	],
	"meshes":[
		{
			"name":"Mesh",
			"primitives":[
				{
					"attributes":{
						"POSITION":0,
						"NORMAL":1,
						"TEXCOORD_0":2,
						"TEXCOORD_1":3,
						"TEXCOORD_2":4
					},
					"indices":5,
					"material":0
				}
			]
		}
	],
	"textures":[
		{
			"extensions":{
				"EXT_texture_webp":{
					"source":0
				}
			},
			"sampler":0
		}
	],
	"images":[
		{
			"mimeType":"image/webp",
			"name":"PolygonSciFiSpace_Signs_Texture_01_A",
			"uri":"PolygonSciFiSpace_Signs_Texture_01_A.webp"
		}
	],
	"accessors":[
		{
			"bufferView":0,
			"componentType":5126,
			"count":734,
			"max":[
				132.90008544921875,
				208.8116455078125,
				119.5611572265625
			],
			"min":[
				-132.90008544921875,
				-208.8116455078125,
				-119.5611572265625
			],
			"type":"VEC3"
		},
		{
			"bufferView":1,
			"componentType":5126,
			"count":734,
			"type":"VEC3"
		},
		{
			"bufferView":2,
			"componentType":5126,
			"count":734,
			"type":"VEC2"
		},
		{
			"bufferView":3,
			"componentType":5126,
			"count":734,
			"type":"VEC2"
		},
		{
			"bufferView":4,
			"componentType":5126,
			"count":734,
			"type":"VEC2"
		},
		{
			"bufferView":5,
			"componentType":5123,
			"count":1164,
			"type":"SCALAR"
		}
	],
	"bufferViews":[
		{
			"buffer":0,
			"byteLength":8808,
			"byteOffset":0,
			"target":34962
		},
		{
			"buffer":0,
			"byteLength":8808,
			"byteOffset":8808,
			"target":34962
		},
		{
			"buffer":0,
			"byteLength":5872,
			"byteOffset":17616,
			"target":34962
		},
		{
			"buffer":0,
			"byteLength":5872,
			"byteOffset":23488,
			"target":34962
		},
		{
			"buffer":0,
			"byteLength":5872,
			"byteOffset":29360,
			"target":34962
		},
		{
			"buffer":0,
			"byteLength":2328,
			"byteOffset":35232,
			"target":34963
		}
	],
	"samplers":[
		{
			"magFilter":9729,
			"minFilter":9987
		}
	],
	"buffers":[
		{
			"byteLength":37560,
			"uri":"space_SM_Veh_Part_Cockpit_03.bin"
		}
	]
}
