{
	"asset":{
		"generator":"Khronos glTF Blender I/O v4.4.55",
		"version":"2.0"
	},
	"extensionsUsed":[
		"EXT_texture_webp"
	],
	"extensionsRequired":[
		"EXT_texture_webp"
	],
	"scene":0,
	"scenes":[
		{
			"name":"Scene",
			"nodes":[
				0
			]
		}
	],
	"nodes":[
		{
			"mesh":0,
			"name":"SM_Bld_Bridge_Platform_01",
			"rotation":[
				0.7071068286895752,
				0,
				0,
				0.7071068286895752
			],
			"scale":[
				0.009999999776482582,
				0.009999999776482582,
				0.009999999776482582
			]
		}
	],
	"materials":[
		{
			"doubleSided":true,
			"name":"SciFiSpace",
			"pbrMetallicRoughness":{
				"baseColorTexture":{
					"index":0
				},
				"metallicFactor":0,
				"roughnessFactor":0.5527864098548889
			}
		}
	],
	"meshes":[
		{
			"name":"Mesh",
			"primitives":[
				{
					"attributes":{
						"POSITION":0,
						"NORMAL":1,
						"TEXCOORD_0":2
					},
					"indices":3,
					"material":0
				}
			]
		}
	],
	"textures":[
		{
			"extensions":{
				"EXT_texture_webp":{
					"source":0
				}
			},
			"sampler":0
		}
	],
	"images":[
		{
			"mimeType":"image/webp",
			"name":"PolygonSciFiSpace_Signs_Texture_01_A",
			"uri":"PolygonSciFiSpace_Signs_Texture_01_A.webp"
		}
	],
	"accessors":[
		{
			"bufferView":0,
			"componentType":5126,
			"count":7159,
			"max":[
				1095.60498046875,
				742.9937133789062,
				25.327260971069336
			],
			"min":[
				406.7547607421875,
				15.93017578125,
				-215.9936981201172
			],
			"type":"VEC3"
		},
		{
			"bufferView":1,
			"componentType":5126,
			"count":7159,
			"type":"VEC3"
		},
		{
			"bufferView":2,
			"componentType":5126,
			"count":7159,
			"type":"VEC2"
		},
		{
			"bufferView":3,
			"componentType":5123,
			"count":12969,
			"type":"SCALAR"
		}
	],
	"bufferViews":[
		{
			"buffer":0,
			"byteLength":85908,
			"byteOffset":0,
			"target":34962
		},
		{
			"buffer":0,
			"byteLength":85908,
			"byteOffset":85908,
			"target":34962
		},
		{
			"buffer":0,
			"byteLength":57272,
			"byteOffset":171816,
			"target":34962
		},
		{
			"buffer":0,
			"byteLength":25938,
			"byteOffset":229088,
			"target":34963
		}
	],
	"samplers":[
		{
			"magFilter":9729,
			"minFilter":9987
		}
	],
	"buffers":[
		{
			"byteLength":255028,
			"uri":"space_SM_Bld_Bridge_Platform_01.bin"
		}
	]
}
