{
	"asset":{
		"generator":"Khronos glTF Blender I/O v4.4.55",
		"version":"2.0"
	},
	"extensionsUsed":[
		"EXT_texture_webp"
	],
	"extensionsRequired":[
		"EXT_texture_webp"
	],
	"scene":0,
	"scenes":[
		{
			"name":"Scene",
			"nodes":[
				3
			]
		}
	],
	"nodes":[
		{
			"mesh":0,
			"name":"SM_Veh_Sweepo_Brush_01"
		},
		{
			"mesh":1,
			"name":"SM_Veh_Sweepo_Wheel_L_01"
		},
		{
			"mesh":2,
			"name":"SM_Veh_Sweepo_Wheel_R_01"
		},
		{
			"children":[
				0,
				1,
				2
			],
			"mesh":3,
			"name":"SM_Veh_Sweepo_01",
			"rotation":[
				0.7071068286895752,
				0,
				0,
				0.7071068286895752
			],
			"scale":[
				0.009999999776482582,
				0.009999999776482582,
				0.009999999776482582
			]
		}
	],
	"materials":[
		{
			"doubleSided":true,
			"name":"SciFi",
			"pbrMetallicRoughness":{
				"baseColorTexture":{
					"index":0
				},
				"metallicFactor":0,
				"roughnessFactor":0.5527864098548889
			}
		}
	],
	"meshes":[
		{
			"name":"Mesh.002",
			"primitives":[
				{
					"attributes":{
						"POSITION":0,
						"NORMAL":1,
						"TEXCOORD_0":2
					},
					"indices":3,
					"material":0
				}
			]
		},
		{
			"name":"Mesh.001",
			"primitives":[
				{
					"attributes":{
						"POSITION":4,
						"NORMAL":5,
						"TEXCOORD_0":6
					},
					"indices":7,
					"material":0
				}
			]
		},
		{
			"name":"Mesh.003",
			"primitives":[
				{
					"attributes":{
						"POSITION":8,
						"NORMAL":9,
						"TEXCOORD_0":10
					},
					"indices":11,
					"material":0
				}
			]
		},
		{
			"name":"Mesh",
			"primitives":[
				{
					"attributes":{
						"POSITION":12,
						"NORMAL":13,
						"TEXCOORD_0":14
					},
					"indices":15,
					"material":0
				}
			]
		}
	],
	"textures":[
		{
			"extensions":{
				"EXT_texture_webp":{
					"source":0
				}
			},
			"sampler":0
		}
	],
	"images":[
		{
			"mimeType":"image/webp",
			"name":"PolygonSciFiSpace_Signs_Texture_01_A",
			"uri":"PolygonSciFiSpace_Signs_Texture_01_A.webp"
		}
	],
	"accessors":[
		{
			"bufferView":0,
			"componentType":5126,
			"count":389,
			"max":[
				17.948150634765625,
				57.115325927734375,
				2.355782498852932e-06
			],
			"min":[
				-16.800384521484375,
				23.320159912109375,
				-17.227569580078125
			],
			"type":"VEC3"
		},
		{
			"bufferView":1,
			"componentType":5126,
			"count":389,
			"type":"VEC3"
		},
		{
			"bufferView":2,
			"componentType":5126,
			"count":389,
			"type":"VEC2"
		},
		{
			"bufferView":3,
			"componentType":5123,
			"count":624,
			"type":"SCALAR"
		},
		{
			"bufferView":4,
			"componentType":5126,
			"count":416,
			"max":[
				21.50066375732422,
				13.75762939453125,
				0
			],
			"min":[
				12.206535339355469,
				-13.7579345703125,
				-27.515281677246094
			],
			"type":"VEC3"
		},
		{
			"bufferView":5,
			"componentType":5126,
			"count":416,
			"type":"VEC3"
		},
		{
			"bufferView":6,
			"componentType":5126,
			"count":416,
			"type":"VEC2"
		},
		{
			"bufferView":7,
			"componentType":5123,
			"count":792,
			"type":"SCALAR"
		},
		{
			"bufferView":8,
			"componentType":5126,
			"count":416,
			"max":[
				-12.207298278808594,
				13.75762939453125,
				0
			],
			"min":[
				-21.50115966796875,
				-13.7579345703125,
				-27.515281677246094
			],
			"type":"VEC3"
		},
		{
			"bufferView":9,
			"componentType":5126,
			"count":416,
			"type":"VEC3"
		},
		{
			"bufferView":10,
			"componentType":5126,
			"count":416,
			"type":"VEC2"
		},
		{
			"bufferView":11,
			"componentType":5123,
			"count":792,
			"type":"SCALAR"
		},
		{
			"bufferView":12,
			"componentType":5126,
			"count":1060,
			"max":[
				22.740707397460938,
				49.31427001953125,
				-9.390094757080078
			],
			"min":[
				-22.740707397460938,
				-21.23321533203125,
				-64.38211059570312
			],
			"type":"VEC3"
		},
		{
			"bufferView":13,
			"componentType":5126,
			"count":1060,
			"type":"VEC3"
		},
		{
			"bufferView":14,
			"componentType":5126,
			"count":1060,
			"type":"VEC2"
		},
		{
			"bufferView":15,
			"componentType":5123,
			"count":1878,
			"type":"SCALAR"
		}
	],
	"bufferViews":[
		{
			"buffer":0,
			"byteLength":4668,
			"byteOffset":0,
			"target":34962
		},
		{
			"buffer":0,
			"byteLength":4668,
			"byteOffset":4668,
			"target":34962
		},
		{
			"buffer":0,
			"byteLength":3112,
			"byteOffset":9336,
			"target":34962
		},
		{
			"buffer":0,
			"byteLength":1248,
			"byteOffset":12448,
			"target":34963
		},
		{
			"buffer":0,
			"byteLength":4992,
			"byteOffset":13696,
			"target":34962
		},
		{
			"buffer":0,
			"byteLength":4992,
			"byteOffset":18688,
			"target":34962
		},
		{
			"buffer":0,
			"byteLength":3328,
			"byteOffset":23680,
			"target":34962
		},
		{
			"buffer":0,
			"byteLength":1584,
			"byteOffset":27008,
			"target":34963
		},
		{
			"buffer":0,
			"byteLength":4992,
			"byteOffset":28592,
			"target":34962
		},
		{
			"buffer":0,
			"byteLength":4992,
			"byteOffset":33584,
			"target":34962
		},
		{
			"buffer":0,
			"byteLength":3328,
			"byteOffset":38576,
			"target":34962
		},
		{
			"buffer":0,
			"byteLength":1584,
			"byteOffset":41904,
			"target":34963
		},
		{
			"buffer":0,
			"byteLength":12720,
			"byteOffset":43488,
			"target":34962
		},
		{
			"buffer":0,
			"byteLength":12720,
			"byteOffset":56208,
			"target":34962
		},
		{
			"buffer":0,
			"byteLength":8480,
			"byteOffset":68928,
			"target":34962
		},
		{
			"buffer":0,
			"byteLength":3756,
			"byteOffset":77408,
			"target":34963
		}
	],
	"samplers":[
		{
			"magFilter":9729,
			"minFilter":9987
		}
	],
	"buffers":[
		{
			"byteLength":81164,
			"uri":"space_SM_Veh_Sweepo_01.bin"
		}
	]
}
