{
	"asset":{
		"generator":"Khronos glTF Blender I/O v4.4.55",
		"version":"2.0"
	},
	"extensionsUsed":[
		"EXT_texture_webp"
	],
	"extensionsRequired":[
		"EXT_texture_webp"
	],
	"scene":0,
	"scenes":[
		{
			"name":"Scene",
			"nodes":[
				0
			]
		}
	],
	"nodes":[
		{
			"mesh":0,
			"name":"SM_Chr_Attach_Male_Hair_01",
			"rotation":[
				0.7071068286895752,
				0,
				0,
				0.7071068286895752
			],
			"scale":[
				0.009999999776482582,
				0.009999999776482582,
				0.009999999776482582
			]
		}
	],
	"materials":[
		{
			"doubleSided":true,
			"name":"Color",
			"pbrMetallicRoughness":{
				"baseColorTexture":{
					"index":0
				},
				"metallicFactor":0,
				"roughnessFactor":0.5527864098548889
			}
		}
	],
	"meshes":[
		{
			"name":"Mesh",
			"primitives":[
				{
					"attributes":{
						"POSITION":0,
						"NORMAL":1,
						"TEXCOORD_0":2,
						"TEXCOORD_1":3,
						"TEXCOORD_2":4
					},
					"indices":5,
					"material":0
				}
			]
		}
	],
	"textures":[
		{
			"extensions":{
				"EXT_texture_webp":{
					"source":0
				}
			},
			"sampler":0
		}
	],
	"images":[
		{
			"mimeType":"image/webp",
			"name":"PolygonSciFiSpace_Signs_Texture_01_A",
			"uri":"PolygonSciFiSpace_Signs_Texture_01_A.webp"
		}
	],
	"accessors":[
		{
			"bufferView":0,
			"componentType":5126,
			"count":375,
			"max":[
				16.078004837036133,
				14.15196418762207,
				-2.78778076171875
			],
			"min":[
				-14.351444244384766,
				-15.050544738769531,
				-26.6302490234375
			],
			"type":"VEC3"
		},
		{
			"bufferView":1,
			"componentType":5126,
			"count":375,
			"type":"VEC3"
		},
		{
			"bufferView":2,
			"componentType":5126,
			"count":375,
			"type":"VEC2"
		},
		{
			"bufferView":3,
			"componentType":5126,
			"count":375,
			"type":"VEC2"
		},
		{
			"bufferView":4,
			"componentType":5126,
			"count":375,
			"type":"VEC2"
		},
		{
			"bufferView":5,
			"componentType":5123,
			"count":531,
			"type":"SCALAR"
		}
	],
	"bufferViews":[
		{
			"buffer":0,
			"byteLength":4500,
			"byteOffset":0,
			"target":34962
		},
		{
			"buffer":0,
			"byteLength":4500,
			"byteOffset":4500,
			"target":34962
		},
		{
			"buffer":0,
			"byteLength":3000,
			"byteOffset":9000,
			"target":34962
		},
		{
			"buffer":0,
			"byteLength":3000,
			"byteOffset":12000,
			"target":34962
		},
		{
			"buffer":0,
			"byteLength":3000,
			"byteOffset":15000,
			"target":34962
		},
		{
			"buffer":0,
			"byteLength":1062,
			"byteOffset":18000,
			"target":34963
		}
	],
	"samplers":[
		{
			"magFilter":9729,
			"minFilter":9987
		}
	],
	"buffers":[
		{
			"byteLength":19064,
			"uri":"space_SM_Chr_Attach_Male_Hair_01.bin"
		}
	]
}
