{
	"asset":{
		"generator":"Khronos glTF Blender I/O v4.4.55",
		"version":"2.0"
	},
	"extensionsUsed":[
		"EXT_texture_webp"
	],
	"extensionsRequired":[
		"EXT_texture_webp"
	],
	"scene":0,
	"scenes":[
		{
			"name":"Scene",
			"nodes":[
				2
			]
		}
	],
	"nodes":[
		{
			"mesh":0,
			"name":"SM_Prop_Turret_Large_Barrel_Double_01"
		},
		{
			"children":[
				0
			],
			"mesh":1,
			"name":"SM_Prop_Turret_Large_Top_Double_01"
		},
		{
			"children":[
				1
			],
			"mesh":2,
			"name":"SM_Prop_Turret_Large_02",
			"rotation":[
				0.7071068286895752,
				0,
				0,
				0.7071068286895752
			],
			"scale":[
				0.009999999776482582,
				0.009999999776482582,
				0.009999999776482582
			]
		}
	],
	"materials":[
		{
			"doubleSided":true,
			"name":"SciFi",
			"pbrMetallicRoughness":{
				"baseColorTexture":{
					"index":0
				},
				"metallicFactor":0,
				"roughnessFactor":0.5527864098548889
			}
		}
	],
	"meshes":[
		{
			"name":"Mesh.002",
			"primitives":[
				{
					"attributes":{
						"POSITION":0,
						"NORMAL":1,
						"TEXCOORD_0":2
					},
					"indices":3,
					"material":0
				}
			]
		},
		{
			"name":"Mesh.001",
			"primitives":[
				{
					"attributes":{
						"POSITION":4,
						"NORMAL":5,
						"TEXCOORD_0":6
					},
					"indices":7,
					"material":0
				}
			]
		},
		{
			"name":"Mesh",
			"primitives":[
				{
					"attributes":{
						"POSITION":8,
						"NORMAL":9,
						"TEXCOORD_0":10
					},
					"indices":11,
					"material":0
				}
			]
		}
	],
	"textures":[
		{
			"extensions":{
				"EXT_texture_webp":{
					"source":0
				}
			},
			"sampler":0
		}
	],
	"images":[
		{
			"mimeType":"image/webp",
			"name":"PolygonSciFiSpace_Signs_Texture_01_A",
			"uri":"PolygonSciFiSpace_Signs_Texture_01_A.webp"
		}
	],
	"accessors":[
		{
			"bufferView":0,
			"componentType":5126,
			"count":1814,
			"max":[
				53.2757568359375,
				462.2198486328125,
				-183.41177368164062
			],
			"min":[
				-53.275909423828125,
				-19.752670288085938,
				-241.96835327148438
			],
			"type":"VEC3"
		},
		{
			"bufferView":1,
			"componentType":5126,
			"count":1814,
			"type":"VEC3"
		},
		{
			"bufferView":2,
			"componentType":5126,
			"count":1814,
			"type":"VEC2"
		},
		{
			"bufferView":3,
			"componentType":5123,
			"count":3348,
			"type":"SCALAR"
		},
		{
			"bufferView":4,
			"componentType":5126,
			"count":1154,
			"max":[
				106.92857360839844,
				56.273101806640625,
				-96.94569396972656
			],
			"min":[
				-106.92840576171875,
				-129.9646759033203,
				-255.07838439941406
			],
			"type":"VEC3"
		},
		{
			"bufferView":5,
			"componentType":5126,
			"count":1154,
			"type":"VEC3"
		},
		{
			"bufferView":6,
			"componentType":5126,
			"count":1154,
			"type":"VEC2"
		},
		{
			"bufferView":7,
			"componentType":5123,
			"count":1968,
			"type":"SCALAR"
		},
		{
			"bufferView":8,
			"componentType":5126,
			"count":1887,
			"max":[
				209.49072265625,
				209.49072265625,
				34.82292938232422
			],
			"min":[
				-209.49081420898438,
				-209.49072265625,
				-96.9457015991211
			],
			"type":"VEC3"
		},
		{
			"bufferView":9,
			"componentType":5126,
			"count":1887,
			"type":"VEC3"
		},
		{
			"bufferView":10,
			"componentType":5126,
			"count":1887,
			"type":"VEC2"
		},
		{
			"bufferView":11,
			"componentType":5123,
			"count":3240,
			"type":"SCALAR"
		}
	],
	"bufferViews":[
		{
			"buffer":0,
			"byteLength":21768,
			"byteOffset":0,
			"target":34962
		},
		{
			"buffer":0,
			"byteLength":21768,
			"byteOffset":21768,
			"target":34962
		},
		{
			"buffer":0,
			"byteLength":14512,
			"byteOffset":43536,
			"target":34962
		},
		{
			"buffer":0,
			"byteLength":6696,
			"byteOffset":58048,
			"target":34963
		},
		{
			"buffer":0,
			"byteLength":13848,
			"byteOffset":64744,
			"target":34962
		},
		{
			"buffer":0,
			"byteLength":13848,
			"byteOffset":78592,
			"target":34962
		},
		{
			"buffer":0,
			"byteLength":9232,
			"byteOffset":92440,
			"target":34962
		},
		{
			"buffer":0,
			"byteLength":3936,
			"byteOffset":101672,
			"target":34963
		},
		{
			"buffer":0,
			"byteLength":22644,
			"byteOffset":105608,
			"target":34962
		},
		{
			"buffer":0,
			"byteLength":22644,
			"byteOffset":128252,
			"target":34962
		},
		{
			"buffer":0,
			"byteLength":15096,
			"byteOffset":150896,
			"target":34962
		},
		{
			"buffer":0,
			"byteLength":6480,
			"byteOffset":165992,
			"target":34963
		}
	],
	"samplers":[
		{
			"magFilter":9729,
			"minFilter":9987
		}
	],
	"buffers":[
		{
			"byteLength":172472,
			"uri":"space_SM_Prop_Turret_Large_02.bin"
		}
	]
}
