{
	"asset":{
		"generator":"Khronos glTF Blender I/O v4.4.55",
		"version":"2.0"
	},
	"extensionsUsed":[
		"EXT_texture_webp"
	],
	"extensionsRequired":[
		"EXT_texture_webp"
	],
	"scene":0,
	"scenes":[
		{
			"name":"Scene",
			"nodes":[
				3
			]
		}
	],
	"nodes":[
		{
			"mesh":0,
			"name":"_SM_Wep_Shotgun_Pump_01"
		},
		{
			"mesh":1,
			"name":"_SM_Wep_Shotgun_Slide_01"
		},
		{
			"mesh":2,
			"name":"_SM_Wep_Shotgun_Trigger_01"
		},
		{
			"children":[
				0,
				1,
				2
			],
			"mesh":3,
			"name":"SM_Wep_Shotgun_01",
			"rotation":[
				0.7071068286895752,
				0,
				0,
				0.7071068286895752
			],
			"scale":[
				0.009999999776482582,
				0.009999999776482582,
				0.009999999776482582
			]
		}
	],
	"materials":[
		{
			"doubleSided":true,
			"name":"SciFi4",
			"pbrMetallicRoughness":{
				"baseColorTexture":{
					"index":0
				},
				"metallicFactor":0,
				"roughnessFactor":0.5527864098548889
			}
		}
	],
	"meshes":[
		{
			"name":"Mesh.003",
			"primitives":[
				{
					"attributes":{
						"POSITION":0,
						"NORMAL":1,
						"TEXCOORD_0":2
					},
					"indices":3,
					"material":0
				}
			]
		},
		{
			"name":"Mesh.001",
			"primitives":[
				{
					"attributes":{
						"POSITION":4,
						"NORMAL":5,
						"TEXCOORD_0":6
					},
					"indices":7,
					"material":0
				}
			]
		},
		{
			"name":"Mesh.002",
			"primitives":[
				{
					"attributes":{
						"POSITION":8,
						"NORMAL":9,
						"TEXCOORD_0":10
					},
					"indices":11,
					"material":0
				}
			]
		},
		{
			"name":"Mesh",
			"primitives":[
				{
					"attributes":{
						"POSITION":12,
						"NORMAL":13,
						"TEXCOORD_0":14
					},
					"indices":15,
					"material":0
				}
			]
		}
	],
	"textures":[
		{
			"extensions":{
				"EXT_texture_webp":{
					"source":0
				}
			},
			"sampler":0
		}
	],
	"images":[
		{
			"mimeType":"image/webp",
			"name":"PolygonSciFiSpace_Signs_Texture_01_A",
			"uri":"PolygonSciFiSpace_Signs_Texture_01_A.webp"
		}
	],
	"accessors":[
		{
			"bufferView":0,
			"componentType":5126,
			"count":298,
			"max":[
				3.9742774963378906,
				50.7651481628418,
				-1.4166259765625
			],
			"min":[
				-3.986400604248047,
				33.74293518066406,
				-9.676406860351562
			],
			"type":"VEC3"
		},
		{
			"bufferView":1,
			"componentType":5126,
			"count":298,
			"type":"VEC3"
		},
		{
			"bufferView":2,
			"componentType":5126,
			"count":298,
			"type":"VEC2"
		},
		{
			"bufferView":3,
			"componentType":5123,
			"count":492,
			"type":"SCALAR"
		},
		{
			"bufferView":4,
			"componentType":5126,
			"count":82,
			"max":[
				-0.222015380859375,
				9.73662281036377,
				-11.590469360351562
			],
			"min":[
				-4.240459442138672,
				-4.467881679534912,
				-14.516765594482422
			],
			"type":"VEC3"
		},
		{
			"bufferView":5,
			"componentType":5126,
			"count":82,
			"type":"VEC3"
		},
		{
			"bufferView":6,
			"componentType":5126,
			"count":82,
			"type":"VEC2"
		},
		{
			"bufferView":7,
			"componentType":5123,
			"count":138,
			"type":"SCALAR"
		},
		{
			"bufferView":8,
			"componentType":5126,
			"count":100,
			"max":[
				0.5365486145019531,
				8.006537437438965,
				-0.9187660217285156
			],
			"min":[
				-0.5360336303710938,
				4.60422420501709,
				-4.8548736572265625
			],
			"type":"VEC3"
		},
		{
			"bufferView":9,
			"componentType":5126,
			"count":100,
			"type":"VEC3"
		},
		{
			"bufferView":10,
			"componentType":5126,
			"count":100,
			"type":"VEC2"
		},
		{
			"bufferView":11,
			"componentType":5123,
			"count":156,
			"type":"SCALAR"
		},
		{
			"bufferView":12,
			"componentType":5126,
			"count":3177,
			"max":[
				5.206569671630859,
				55.38412094116211,
				9.29538345336914
			],
			"min":[
				-5.133716583251953,
				-22.31927490234375,
				-18.5260009765625
			],
			"type":"VEC3"
		},
		{
			"bufferView":13,
			"componentType":5126,
			"count":3177,
			"type":"VEC3"
		},
		{
			"bufferView":14,
			"componentType":5126,
			"count":3177,
			"type":"VEC2"
		},
		{
			"bufferView":15,
			"componentType":5123,
			"count":5706,
			"type":"SCALAR"
		}
	],
	"bufferViews":[
		{
			"buffer":0,
			"byteLength":3576,
			"byteOffset":0,
			"target":34962
		},
		{
			"buffer":0,
			"byteLength":3576,
			"byteOffset":3576,
			"target":34962
		},
		{
			"buffer":0,
			"byteLength":2384,
			"byteOffset":7152,
			"target":34962
		},
		{
			"buffer":0,
			"byteLength":984,
			"byteOffset":9536,
			"target":34963
		},
		{
			"buffer":0,
			"byteLength":984,
			"byteOffset":10520,
			"target":34962
		},
		{
			"buffer":0,
			"byteLength":984,
			"byteOffset":11504,
			"target":34962
		},
		{
			"buffer":0,
			"byteLength":656,
			"byteOffset":12488,
			"target":34962
		},
		{
			"buffer":0,
			"byteLength":276,
			"byteOffset":13144,
			"target":34963
		},
		{
			"buffer":0,
			"byteLength":1200,
			"byteOffset":13420,
			"target":34962
		},
		{
			"buffer":0,
			"byteLength":1200,
			"byteOffset":14620,
			"target":34962
		},
		{
			"buffer":0,
			"byteLength":800,
			"byteOffset":15820,
			"target":34962
		},
		{
			"buffer":0,
			"byteLength":312,
			"byteOffset":16620,
			"target":34963
		},
		{
			"buffer":0,
			"byteLength":38124,
			"byteOffset":16932,
			"target":34962
		},
		{
			"buffer":0,
			"byteLength":38124,
			"byteOffset":55056,
			"target":34962
		},
		{
			"buffer":0,
			"byteLength":25416,
			"byteOffset":93180,
			"target":34962
		},
		{
			"buffer":0,
			"byteLength":11412,
			"byteOffset":118596,
			"target":34963
		}
	],
	"samplers":[
		{
			"magFilter":9729,
			"minFilter":9987
		}
	],
	"buffers":[
		{
			"byteLength":130008,
			"uri":"space_SM_Wep_Shotgun_01.bin"
		}
	]
}
