{
	"asset":{
		"generator":"Khronos glTF Blender I/O v4.4.55",
		"version":"2.0"
	},
	"extensionsUsed":[
		"EXT_texture_webp"
	],
	"extensionsRequired":[
		"EXT_texture_webp"
	],
	"scene":0,
	"scenes":[
		{
			"name":"Scene",
			"nodes":[
				2
			]
		}
	],
	"nodes":[
		{
			"mesh":0,
			"name":"SM_Prop_Turret_Missile_Barrel_02"
		},
		{
			"children":[
				0
			],
			"mesh":1,
			"name":"SM_Prop_Turret_Missile_Base_02"
		},
		{
			"children":[
				1
			],
			"mesh":2,
			"name":"SM_Prop_Turret_Base_Single_08",
			"rotation":[
				0.7071068286895752,
				0,
				0,
				0.7071068286895752
			],
			"scale":[
				0.009999999776482582,
				0.009999999776482582,
				0.009999999776482582
			]
		}
	],
	"materials":[
		{
			"doubleSided":true,
			"name":"SciFi7",
			"pbrMetallicRoughness":{
				"baseColorTexture":{
					"index":0
				},
				"metallicFactor":0,
				"roughnessFactor":0.5527864098548889
			}
		}
	],
	"meshes":[
		{
			"name":"Mesh.002",
			"primitives":[
				{
					"attributes":{
						"POSITION":0,
						"NORMAL":1,
						"TEXCOORD_0":2
					},
					"indices":3,
					"material":0
				}
			]
		},
		{
			"name":"Mesh.001",
			"primitives":[
				{
					"attributes":{
						"POSITION":4,
						"NORMAL":5,
						"TEXCOORD_0":6
					},
					"indices":7,
					"material":0
				}
			]
		},
		{
			"name":"Mesh",
			"primitives":[
				{
					"attributes":{
						"POSITION":8,
						"NORMAL":9,
						"TEXCOORD_0":10
					},
					"indices":11,
					"material":0
				}
			]
		}
	],
	"textures":[
		{
			"extensions":{
				"EXT_texture_webp":{
					"source":0
				}
			},
			"sampler":0
		}
	],
	"images":[
		{
			"mimeType":"image/webp",
			"name":"PolygonSciFiSpace_Signs_Texture_01_A",
			"uri":"PolygonSciFiSpace_Signs_Texture_01_A.webp"
		}
	],
	"accessors":[
		{
			"bufferView":0,
			"componentType":5126,
			"count":474,
			"max":[
				33.82194519042969,
				55.61356735229492,
				-106.84391021728516
			],
			"min":[
				-33.82194519042969,
				40.19000244140625,
				-136.06219482421875
			],
			"type":"VEC3"
		},
		{
			"bufferView":1,
			"componentType":5126,
			"count":474,
			"type":"VEC3"
		},
		{
			"bufferView":2,
			"componentType":5126,
			"count":474,
			"type":"VEC2"
		},
		{
			"bufferView":3,
			"componentType":5123,
			"count":756,
			"type":"SCALAR"
		},
		{
			"bufferView":4,
			"componentType":5126,
			"count":572,
			"max":[
				53.00228500366211,
				57.34130859375,
				-89.8624038696289
			],
			"min":[
				-53.0023193359375,
				-93.94775390625,
				-152.85494995117188
			],
			"type":"VEC3"
		},
		{
			"bufferView":5,
			"componentType":5126,
			"count":572,
			"type":"VEC3"
		},
		{
			"bufferView":6,
			"componentType":5126,
			"count":572,
			"type":"VEC2"
		},
		{
			"bufferView":7,
			"componentType":5123,
			"count":1116,
			"type":"SCALAR"
		},
		{
			"bufferView":8,
			"componentType":5126,
			"count":1562,
			"max":[
				79.53231811523438,
				79.53231811523438,
				41.69206237792969
			],
			"min":[
				-79.532470703125,
				-79.53231811523438,
				-117.9889907836914
			],
			"type":"VEC3"
		},
		{
			"bufferView":9,
			"componentType":5126,
			"count":1562,
			"type":"VEC3"
		},
		{
			"bufferView":10,
			"componentType":5126,
			"count":1562,
			"type":"VEC2"
		},
		{
			"bufferView":11,
			"componentType":5123,
			"count":2643,
			"type":"SCALAR"
		}
	],
	"bufferViews":[
		{
			"buffer":0,
			"byteLength":5688,
			"byteOffset":0,
			"target":34962
		},
		{
			"buffer":0,
			"byteLength":5688,
			"byteOffset":5688,
			"target":34962
		},
		{
			"buffer":0,
			"byteLength":3792,
			"byteOffset":11376,
			"target":34962
		},
		{
			"buffer":0,
			"byteLength":1512,
			"byteOffset":15168,
			"target":34963
		},
		{
			"buffer":0,
			"byteLength":6864,
			"byteOffset":16680,
			"target":34962
		},
		{
			"buffer":0,
			"byteLength":6864,
			"byteOffset":23544,
			"target":34962
		},
		{
			"buffer":0,
			"byteLength":4576,
			"byteOffset":30408,
			"target":34962
		},
		{
			"buffer":0,
			"byteLength":2232,
			"byteOffset":34984,
			"target":34963
		},
		{
			"buffer":0,
			"byteLength":18744,
			"byteOffset":37216,
			"target":34962
		},
		{
			"buffer":0,
			"byteLength":18744,
			"byteOffset":55960,
			"target":34962
		},
		{
			"buffer":0,
			"byteLength":12496,
			"byteOffset":74704,
			"target":34962
		},
		{
			"buffer":0,
			"byteLength":5286,
			"byteOffset":87200,
			"target":34963
		}
	],
	"samplers":[
		{
			"magFilter":9729,
			"minFilter":9987
		}
	],
	"buffers":[
		{
			"byteLength":92488,
			"uri":"space_SM_Prop_Turret_Base_Single_08.bin"
		}
	]
}
