{
	"asset":{
		"generator":"Khronos glTF Blender I/O v4.4.55",
		"version":"2.0"
	},
	"extensionsUsed":[
		"EXT_texture_webp"
	],
	"extensionsRequired":[
		"EXT_texture_webp"
	],
	"scene":0,
	"scenes":[
		{
			"name":"Scene",
			"nodes":[
				2
			]
		}
	],
	"nodes":[
		{
			"mesh":0,
			"name":"SM_Prop_EscapePod_Door_01"
		},
		{
			"mesh":1,
			"name":"SM_Prop_EscapePod_Door_02"
		},
		{
			"children":[
				0,
				1
			],
			"mesh":2,
			"name":"SM_Prop_EscapePod_Hatch_Large_01",
			"rotation":[
				0.7071068286895752,
				0,
				0,
				0.7071068286895752
			],
			"scale":[
				0.009999999776482582,
				0.009999999776482582,
				0.009999999776482582
			]
		}
	],
	"materials":[
		{
			"doubleSided":true,
			"name":"SciFi",
			"pbrMetallicRoughness":{
				"baseColorTexture":{
					"index":0
				},
				"metallicFactor":0,
				"roughnessFactor":0.5527864098548889
			}
		}
	],
	"meshes":[
		{
			"name":"Mesh.001",
			"primitives":[
				{
					"attributes":{
						"POSITION":0,
						"NORMAL":1,
						"TEXCOORD_0":2
					},
					"indices":3,
					"material":0
				}
			]
		},
		{
			"name":"Mesh.002",
			"primitives":[
				{
					"attributes":{
						"POSITION":4,
						"NORMAL":5,
						"TEXCOORD_0":6
					},
					"indices":7,
					"material":0
				}
			]
		},
		{
			"name":"Mesh",
			"primitives":[
				{
					"attributes":{
						"POSITION":8,
						"NORMAL":9,
						"TEXCOORD_0":10
					},
					"indices":11,
					"material":0
				}
			]
		}
	],
	"textures":[
		{
			"extensions":{
				"EXT_texture_webp":{
					"source":0
				}
			},
			"sampler":0
		}
	],
	"images":[
		{
			"mimeType":"image/webp",
			"name":"PolygonSciFiSpace_Signs_Texture_01_A",
			"uri":"PolygonSciFiSpace_Signs_Texture_01_A.webp"
		}
	],
	"accessors":[
		{
			"bufferView":0,
			"componentType":5126,
			"count":144,
			"max":[
				11.098098754882812,
				51.30134582519531,
				180.82594299316406
			],
			"min":[
				-181.4620361328125,
				16.23199462890625,
				-180.30340576171875
			],
			"type":"VEC3"
		},
		{
			"bufferView":1,
			"componentType":5126,
			"count":144,
			"type":"VEC3"
		},
		{
			"bufferView":2,
			"componentType":5126,
			"count":144,
			"type":"VEC2"
		},
		{
			"bufferView":3,
			"componentType":5123,
			"count":276,
			"type":"SCALAR"
		},
		{
			"bufferView":4,
			"componentType":5126,
			"count":168,
			"max":[
				182.6910400390625,
				51.30138397216797,
				180.82594299316406
			],
			"min":[
				-9.86907958984375,
				16.23210906982422,
				-180.30340576171875
			],
			"type":"VEC3"
		},
		{
			"bufferView":5,
			"componentType":5126,
			"count":168,
			"type":"VEC3"
		},
		{
			"bufferView":6,
			"componentType":5126,
			"count":168,
			"type":"VEC2"
		},
		{
			"bufferView":7,
			"componentType":5123,
			"count":300,
			"type":"SCALAR"
		},
		{
			"bufferView":8,
			"componentType":5126,
			"count":710,
			"max":[
				396.6519470214844,
				82.51803588867188,
				214.8651885986328
			],
			"min":[
				-396.65191650390625,
				-119.25077056884766,
				-214.86517333984375
			],
			"type":"VEC3"
		},
		{
			"bufferView":9,
			"componentType":5126,
			"count":710,
			"type":"VEC3"
		},
		{
			"bufferView":10,
			"componentType":5126,
			"count":710,
			"type":"VEC2"
		},
		{
			"bufferView":11,
			"componentType":5123,
			"count":1278,
			"type":"SCALAR"
		}
	],
	"bufferViews":[
		{
			"buffer":0,
			"byteLength":1728,
			"byteOffset":0,
			"target":34962
		},
		{
			"buffer":0,
			"byteLength":1728,
			"byteOffset":1728,
			"target":34962
		},
		{
			"buffer":0,
			"byteLength":1152,
			"byteOffset":3456,
			"target":34962
		},
		{
			"buffer":0,
			"byteLength":552,
			"byteOffset":4608,
			"target":34963
		},
		{
			"buffer":0,
			"byteLength":2016,
			"byteOffset":5160,
			"target":34962
		},
		{
			"buffer":0,
			"byteLength":2016,
			"byteOffset":7176,
			"target":34962
		},
		{
			"buffer":0,
			"byteLength":1344,
			"byteOffset":9192,
			"target":34962
		},
		{
			"buffer":0,
			"byteLength":600,
			"byteOffset":10536,
			"target":34963
		},
		{
			"buffer":0,
			"byteLength":8520,
			"byteOffset":11136,
			"target":34962
		},
		{
			"buffer":0,
			"byteLength":8520,
			"byteOffset":19656,
			"target":34962
		},
		{
			"buffer":0,
			"byteLength":5680,
			"byteOffset":28176,
			"target":34962
		},
		{
			"buffer":0,
			"byteLength":2556,
			"byteOffset":33856,
			"target":34963
		}
	],
	"samplers":[
		{
			"magFilter":9729,
			"minFilter":9987
		}
	],
	"buffers":[
		{
			"byteLength":36412,
			"uri":"space_SM_Prop_EscapePod_Hatch_Large_01.bin"
		}
	]
}
