{
	"asset":{
		"generator":"Khronos glTF Blender I/O v4.4.55",
		"version":"2.0"
	},
	"extensionsUsed":[
		"EXT_texture_webp"
	],
	"extensionsRequired":[
		"EXT_texture_webp"
	],
	"scene":0,
	"scenes":[
		{
			"name":"Scene",
			"nodes":[
				0
			]
		}
	],
	"nodes":[
		{
			"mesh":0,
			"name":"SM_Env_Astroid_Field_LowDetail_02",
			"rotation":[
				0.7071068286895752,
				0,
				0,
				0.7071068286895752
			],
			"scale":[
				0.009999999776482582,
				0.009999999776482582,
				0.009999999776482582
			]
		}
	],
	"materials":[
		{
			"doubleSided":true,
			"name":"SciFi",
			"pbrMetallicRoughness":{
				"baseColorTexture":{
					"index":0
				},
				"metallicFactor":0,
				"roughnessFactor":0.5527864098548889
			}
		}
	],
	"meshes":[
		{
			"name":"Mesh",
			"primitives":[
				{
					"attributes":{
						"POSITION":0,
						"NORMAL":1,
						"TEXCOORD_0":2
					},
					"indices":3,
					"material":0
				}
			]
		}
	],
	"textures":[
		{
			"extensions":{
				"EXT_texture_webp":{
					"source":0
				}
			},
			"sampler":0
		}
	],
	"images":[
		{
			"mimeType":"image/webp",
			"name":"PolygonSciFiSpace_Signs_Texture_01_A",
			"uri":"PolygonSciFiSpace_Signs_Texture_01_A.webp"
		}
	],
	"accessors":[
		{
			"bufferView":0,
			"componentType":5126,
			"count":11028,
			"max":[
				6339.6533203125,
				8004.423828125,
				3985.7998046875
			],
			"min":[
				-6339.65380859375,
				-7988.724609375,
				-3975.77880859375
			],
			"type":"VEC3"
		},
		{
			"bufferView":1,
			"componentType":5126,
			"count":11028,
			"type":"VEC3"
		},
		{
			"bufferView":2,
			"componentType":5126,
			"count":11028,
			"type":"VEC2"
		},
		{
			"bufferView":3,
			"componentType":5123,
			"count":11148,
			"type":"SCALAR"
		}
	],
	"bufferViews":[
		{
			"buffer":0,
			"byteLength":132336,
			"byteOffset":0,
			"target":34962
		},
		{
			"buffer":0,
			"byteLength":132336,
			"byteOffset":132336,
			"target":34962
		},
		{
			"buffer":0,
			"byteLength":88224,
			"byteOffset":264672,
			"target":34962
		},
		{
			"buffer":0,
			"byteLength":22296,
			"byteOffset":352896,
			"target":34963
		}
	],
	"samplers":[
		{
			"magFilter":9729,
			"minFilter":9987
		}
	],
	"buffers":[
		{
			"byteLength":375192,
			"uri":"space_SM_Env_Astroid_Field_LowDetail_02.bin"
		}
	]
}
