{
	"asset":{
		"generator":"Khronos glTF Blender I/O v4.4.55",
		"version":"2.0"
	},
	"extensionsUsed":[
		"EXT_texture_webp"
	],
	"extensionsRequired":[
		"EXT_texture_webp"
	],
	"scene":0,
	"scenes":[
		{
			"name":"Scene",
			"nodes":[
				0
			]
		}
	],
	"nodes":[
		{
			"mesh":0,
			"name":"SM_Env_Debris_Structure_01",
			"rotation":[
				0.7071068286895752,
				0,
				0,
				0.7071068286895752
			],
			"scale":[
				0.009999999776482582,
				0.009999999776482582,
				0.009999999776482582
			]
		}
	],
	"materials":[
		{
			"doubleSided":true,
			"name":"SciFi",
			"pbrMetallicRoughness":{
				"baseColorTexture":{
					"index":0
				},
				"metallicFactor":0,
				"roughnessFactor":0.5527864098548889
			}
		}
	],
	"meshes":[
		{
			"name":"Mesh",
			"primitives":[
				{
					"attributes":{
						"POSITION":0,
						"NORMAL":1,
						"TEXCOORD_0":2,
						"TEXCOORD_1":3
					},
					"indices":4,
					"material":0
				}
			]
		}
	],
	"textures":[
		{
			"extensions":{
				"EXT_texture_webp":{
					"source":0
				}
			},
			"sampler":0
		}
	],
	"images":[
		{
			"mimeType":"image/webp",
			"name":"PolygonSciFiSpace_Signs_Texture_01_A",
			"uri":"PolygonSciFiSpace_Signs_Texture_01_A.webp"
		}
	],
	"accessors":[
		{
			"bufferView":0,
			"componentType":5126,
			"count":422,
			"max":[
				99.6196060180664,
				86.7075424194336,
				289.8431091308594
			],
			"min":[
				-99.61959838867188,
				-86.70745849609375,
				-289.8431396484375
			],
			"type":"VEC3"
		},
		{
			"bufferView":1,
			"componentType":5126,
			"count":422,
			"type":"VEC3"
		},
		{
			"bufferView":2,
			"componentType":5126,
			"count":422,
			"type":"VEC2"
		},
		{
			"bufferView":3,
			"componentType":5126,
			"count":422,
			"type":"VEC2"
		},
		{
			"bufferView":4,
			"componentType":5123,
			"count":744,
			"type":"SCALAR"
		}
	],
	"bufferViews":[
		{
			"buffer":0,
			"byteLength":5064,
			"byteOffset":0,
			"target":34962
		},
		{
			"buffer":0,
			"byteLength":5064,
			"byteOffset":5064,
			"target":34962
		},
		{
			"buffer":0,
			"byteLength":3376,
			"byteOffset":10128,
			"target":34962
		},
		{
			"buffer":0,
			"byteLength":3376,
			"byteOffset":13504,
			"target":34962
		},
		{
			"buffer":0,
			"byteLength":1488,
			"byteOffset":16880,
			"target":34963
		}
	],
	"samplers":[
		{
			"magFilter":9729,
			"minFilter":9987
		}
	],
	"buffers":[
		{
			"byteLength":18368,
			"uri":"space_SM_Env_Debris_Structure_01.bin"
		}
	]
}
