{
	"asset":{
		"generator":"Khronos glTF Blender I/O v4.4.55",
		"version":"2.0"
	},
	"extensionsUsed":[
		"EXT_texture_webp"
	],
	"extensionsRequired":[
		"EXT_texture_webp"
	],
	"scene":0,
	"scenes":[
		{
			"name":"Scene",
			"nodes":[
				0
			]
		}
	],
	"nodes":[
		{
			"mesh":0,
			"name":"SM_Prop_Medical_Cart_Bare_01",
			"rotation":[
				0.7071068286895752,
				0,
				0,
				0.7071068286895752
			],
			"scale":[
				0.009999999776482582,
				0.009999999776482582,
				0.009999999776482582
			]
		}
	],
	"materials":[
		{
			"doubleSided":true,
			"name":"SciFi",
			"pbrMetallicRoughness":{
				"baseColorTexture":{
					"index":0
				},
				"metallicFactor":0,
				"roughnessFactor":0.5527864098548889
			}
		}
	],
	"meshes":[
		{
			"name":"Mesh",
			"primitives":[
				{
					"attributes":{
						"POSITION":0,
						"NORMAL":1,
						"TEXCOORD_0":2
					},
					"indices":3,
					"material":0
				}
			]
		}
	],
	"textures":[
		{
			"extensions":{
				"EXT_texture_webp":{
					"source":0
				}
			},
			"sampler":0
		}
	],
	"images":[
		{
			"mimeType":"image/webp",
			"name":"PolygonSciFiSpace_Signs_Texture_01_A",
			"uri":"PolygonSciFiSpace_Signs_Texture_01_A.webp"
		}
	],
	"accessors":[
		{
			"bufferView":0,
			"componentType":5126,
			"count":2295,
			"max":[
				46.51969909667969,
				78.39508056640625,
				-1.7763568394002505e-14
			],
			"min":[
				-46.519622802734375,
				-78.39508056640625,
				-87.43698120117188
			],
			"type":"VEC3"
		},
		{
			"bufferView":1,
			"componentType":5126,
			"count":2295,
			"type":"VEC3"
		},
		{
			"bufferView":2,
			"componentType":5126,
			"count":2295,
			"type":"VEC2"
		},
		{
			"bufferView":3,
			"componentType":5123,
			"count":3528,
			"type":"SCALAR"
		}
	],
	"bufferViews":[
		{
			"buffer":0,
			"byteLength":27540,
			"byteOffset":0,
			"target":34962
		},
		{
			"buffer":0,
			"byteLength":27540,
			"byteOffset":27540,
			"target":34962
		},
		{
			"buffer":0,
			"byteLength":18360,
			"byteOffset":55080,
			"target":34962
		},
		{
			"buffer":0,
			"byteLength":7056,
			"byteOffset":73440,
			"target":34963
		}
	],
	"samplers":[
		{
			"magFilter":9729,
			"minFilter":9987
		}
	],
	"buffers":[
		{
			"byteLength":80496,
			"uri":"space_SM_Prop_Medical_Cart_Bare_01.bin"
		}
	]
}
