{"asset":{"generator":"Khronos glTF Blender I/O v4.4.55","version":"2.0"},"extensionsUsed":["EXT_texture_webp"],"extensionsRequired":["EXT_texture_webp"],"scene":0,"scenes":[{"name":"Scene","nodes":[1]}],"nodes":[{"mesh":0,"name":"SM_Prop_CenterTube_Glass_02"},{"children":[0],"mesh":1,"name":"SM_Prop_CenterTube_02","rotation":[0.7071068286895752,0,0,0.7071068286895752],"scale":[0.009999999776482582,0.009999999776482582,0.009999999776482582]}],"materials":[{"alphaMode":"MASK","doubleSided":true,"name":"CockpitGlass1","pbrMetallicRoughness":{"baseColorFactor":[1,1,1,0.3007553219795227],"baseColorTexture":{"index":0},"metallicFactor":0.5714290142059326,"roughnessFactor":0.8532866835594177},"alphaCutoff":0.5},{"doubleSided":true,"name":"SciFi11","pbrMetallicRoughness":{"baseColorTexture":{"index":1},"metallicFactor":0,"roughnessFactor":0.5527864098548889}}],"meshes":[{"name":"Mesh.001","primitives":[{"attributes":{"POSITION":0,"NORMAL":1,"TEXCOORD_0":2},"indices":3,"material":0}]},{"name":"Mesh","primitives":[{"attributes":{"POSITION":4,"NORMAL":5,"TEXCOORD_0":6},"indices":7,"material":1}]}],"textures":[{"extensions":{"EXT_texture_webp":{"source":0}},"sampler":0},{"extensions":{"EXT_texture_webp":{"source":0}},"sampler":0}],"images":[{"mimeType":"image/webp","name":"PolygonSciFiSpace_Signs_Texture_01_A","uri":"PolygonSciFiSpace_Signs_Texture_01_A.webp"}],"accessors":[{"bufferView":0,"componentType":5126,"count":32,"max":[163.2794189453125,163.27972412109375,-38.3544921875],"min":[-163.27825927734375,-163.27911376953125,-364.1500244140625],"type":"VEC3"},{"bufferView":1,"componentType":5126,"count":32,"type":"VEC3"},{"bufferView":2,"componentType":5126,"count":32,"type":"VEC2"},{"bufferView":3,"componentType":5123,"count":48,"type":"SCALAR"},{"bufferView":4,"componentType":5126,"count":5693,"max":[189.197998046875,189.19769287109375,0],"min":[-189.19866943359375,-189.1973876953125,-400.4559326171875],"type":"VEC3"},{"bufferView":5,"componentType":5126,"count":5693,"type":"VEC3"},{"bufferView":6,"componentType":5126,"count":5693,"type":"VEC2"},{"bufferView":7,"componentType":5123,"count":8064,"type":"SCALAR"}],"bufferViews":[{"buffer":0,"byteLength":384,"byteOffset":0,"target":34962},{"buffer":0,"byteLength":384,"byteOffset":384,"target":34962},{"buffer":0,"byteLength":256,"byteOffset":768,"target":34962},{"buffer":0,"byteLength":96,"byteOffset":1024,"target":34963},{"buffer":0,"byteLength":68316,"byteOffset":1120,"target":34962},{"buffer":0,"byteLength":68316,"byteOffset":69436,"target":34962},{"buffer":0,"byteLength":45544,"byteOffset":137752,"target":34962},{"buffer":0,"byteLength":16128,"byteOffset":183296,"target":34963}],"samplers":[{"magFilter":9729,"minFilter":9987}],"buffers":[{"byteLength":199424,"uri":"space_SM_Prop_CenterTube_02.bin"}]}