{
	"asset":{
		"generator":"Khronos glTF Blender I/O v4.4.55",
		"version":"2.0"
	},
	"extensionsUsed":[
		"EXT_texture_webp"
	],
	"extensionsRequired":[
		"EXT_texture_webp"
	],
	"scene":0,
	"scenes":[
		{
			"name":"Scene",
			"nodes":[
				2
			]
		}
	],
	"nodes":[
		{
			"mesh":0,
			"name":"SM_Prop_Turret_Gattling_Barrel_01"
		},
		{
			"children":[
				0
			],
			"mesh":1,
			"name":"SM_Prop_Turret_Gattling_Base_01"
		},
		{
			"children":[
				1
			],
			"mesh":2,
			"name":"SM_Prop_Turret_Base_Single_01",
			"rotation":[
				0.7071068286895752,
				0,
				0,
				0.7071068286895752
			],
			"scale":[
				0.009999999776482582,
				0.009999999776482582,
				0.009999999776482582
			]
		}
	],
	"materials":[
		{
			"doubleSided":true,
			"name":"SciFi7",
			"pbrMetallicRoughness":{
				"baseColorTexture":{
					"index":0
				},
				"metallicFactor":0,
				"roughnessFactor":0.5527864098548889
			}
		}
	],
	"meshes":[
		{
			"name":"Mesh.002",
			"primitives":[
				{
					"attributes":{
						"POSITION":0,
						"NORMAL":1,
						"TEXCOORD_0":2
					},
					"indices":3,
					"material":0
				}
			]
		},
		{
			"name":"Mesh.001",
			"primitives":[
				{
					"attributes":{
						"POSITION":4,
						"NORMAL":5,
						"TEXCOORD_0":6
					},
					"indices":7,
					"material":0
				}
			]
		},
		{
			"name":"Mesh",
			"primitives":[
				{
					"attributes":{
						"POSITION":8,
						"NORMAL":9,
						"TEXCOORD_0":10
					},
					"indices":11,
					"material":0
				}
			]
		}
	],
	"textures":[
		{
			"extensions":{
				"EXT_texture_webp":{
					"source":0
				}
			},
			"sampler":0
		}
	],
	"images":[
		{
			"mimeType":"image/webp",
			"name":"PolygonSciFiSpace_Signs_Texture_01_A",
			"uri":"PolygonSciFiSpace_Signs_Texture_01_A.webp"
		}
	],
	"accessors":[
		{
			"bufferView":0,
			"componentType":5126,
			"count":603,
			"max":[
				19.41143035888672,
				224.60333251953125,
				-97.07096099853516
			],
			"min":[
				-19.41181182861328,
				85.86224365234375,
				-130.6928253173828
			],
			"type":"VEC3"
		},
		{
			"bufferView":1,
			"componentType":5126,
			"count":603,
			"type":"VEC3"
		},
		{
			"bufferView":2,
			"componentType":5126,
			"count":603,
			"type":"VEC2"
		},
		{
			"bufferView":3,
			"componentType":5123,
			"count":972,
			"type":"SCALAR"
		},
		{
			"bufferView":4,
			"componentType":5126,
			"count":409,
			"max":[
				25.73253631591797,
				85.86224365234375,
				-91.14593505859375
			],
			"min":[
				-25.73261260986328,
				-87.20654296875,
				-135.716064453125
			],
			"type":"VEC3"
		},
		{
			"bufferView":5,
			"componentType":5126,
			"count":409,
			"type":"VEC3"
		},
		{
			"bufferView":6,
			"componentType":5126,
			"count":409,
			"type":"VEC2"
		},
		{
			"bufferView":7,
			"componentType":5123,
			"count":738,
			"type":"SCALAR"
		},
		{
			"bufferView":8,
			"componentType":5126,
			"count":1562,
			"max":[
				79.53231811523438,
				79.53231811523438,
				41.69206237792969
			],
			"min":[
				-79.532470703125,
				-79.53231811523438,
				-117.9889907836914
			],
			"type":"VEC3"
		},
		{
			"bufferView":9,
			"componentType":5126,
			"count":1562,
			"type":"VEC3"
		},
		{
			"bufferView":10,
			"componentType":5126,
			"count":1562,
			"type":"VEC2"
		},
		{
			"bufferView":11,
			"componentType":5123,
			"count":2643,
			"type":"SCALAR"
		}
	],
	"bufferViews":[
		{
			"buffer":0,
			"byteLength":7236,
			"byteOffset":0,
			"target":34962
		},
		{
			"buffer":0,
			"byteLength":7236,
			"byteOffset":7236,
			"target":34962
		},
		{
			"buffer":0,
			"byteLength":4824,
			"byteOffset":14472,
			"target":34962
		},
		{
			"buffer":0,
			"byteLength":1944,
			"byteOffset":19296,
			"target":34963
		},
		{
			"buffer":0,
			"byteLength":4908,
			"byteOffset":21240,
			"target":34962
		},
		{
			"buffer":0,
			"byteLength":4908,
			"byteOffset":26148,
			"target":34962
		},
		{
			"buffer":0,
			"byteLength":3272,
			"byteOffset":31056,
			"target":34962
		},
		{
			"buffer":0,
			"byteLength":1476,
			"byteOffset":34328,
			"target":34963
		},
		{
			"buffer":0,
			"byteLength":18744,
			"byteOffset":35804,
			"target":34962
		},
		{
			"buffer":0,
			"byteLength":18744,
			"byteOffset":54548,
			"target":34962
		},
		{
			"buffer":0,
			"byteLength":12496,
			"byteOffset":73292,
			"target":34962
		},
		{
			"buffer":0,
			"byteLength":5286,
			"byteOffset":85788,
			"target":34963
		}
	],
	"samplers":[
		{
			"magFilter":9729,
			"minFilter":9987
		}
	],
	"buffers":[
		{
			"byteLength":91076,
			"uri":"space_SM_Prop_Turret_Base_Single_01.bin"
		}
	]
}
