{
	"asset":{
		"generator":"Khronos glTF Blender I/O v4.4.55",
		"version":"2.0"
	},
	"extensionsUsed":[
		"EXT_texture_webp"
	],
	"extensionsRequired":[
		"EXT_texture_webp"
	],
	"scene":0,
	"scenes":[
		{
			"name":"Scene",
			"nodes":[
				2
			]
		}
	],
	"nodes":[
		{
			"mesh":0,
			"name":"SM_Prop_Turret_Small_Gun_Ceiling_01"
		},
		{
			"children":[
				0
			],
			"mesh":1,
			"name":"SM_Prop_Turret_Small_Pivot_Ceiling_01"
		},
		{
			"children":[
				1
			],
			"mesh":2,
			"name":"SM_Prop_Turret_Small_Ceiling_01",
			"rotation":[
				0.7071068286895752,
				0,
				0,
				0.7071068286895752
			],
			"scale":[
				0.009999999776482582,
				0.009999999776482582,
				0.009999999776482582
			]
		}
	],
	"materials":[
		{
			"doubleSided":true,
			"name":"SciFi1",
			"pbrMetallicRoughness":{
				"baseColorTexture":{
					"index":0
				},
				"metallicFactor":0,
				"roughnessFactor":0.5527864098548889
			}
		}
	],
	"meshes":[
		{
			"name":"Mesh.002",
			"primitives":[
				{
					"attributes":{
						"POSITION":0,
						"NORMAL":1,
						"TEXCOORD_0":2
					},
					"indices":3,
					"material":0
				}
			]
		},
		{
			"name":"Mesh.001",
			"primitives":[
				{
					"attributes":{
						"POSITION":4,
						"NORMAL":5,
						"TEXCOORD_0":6
					},
					"indices":7,
					"material":0
				}
			]
		},
		{
			"name":"Mesh",
			"primitives":[
				{
					"attributes":{
						"POSITION":8,
						"NORMAL":9,
						"TEXCOORD_0":10
					},
					"indices":11,
					"material":0
				}
			]
		}
	],
	"textures":[
		{
			"extensions":{
				"EXT_texture_webp":{
					"source":0
				}
			},
			"sampler":0
		}
	],
	"images":[
		{
			"mimeType":"image/webp",
			"name":"PolygonSciFiSpace_Texture_03_A",
			"uri":"PolygonSciFiSpace_Texture_03_A.webp"
		}
	],
	"accessors":[
		{
			"bufferView":0,
			"componentType":5126,
			"count":1685,
			"max":[
				28.072280883789062,
				130.711669921875,
				130.047607421875
			],
			"min":[
				-45.641632080078125,
				-43.43719482421875,
				59.4119987487793
			],
			"type":"VEC3"
		},
		{
			"bufferView":1,
			"componentType":5126,
			"count":1685,
			"type":"VEC3"
		},
		{
			"bufferView":2,
			"componentType":5126,
			"count":1685,
			"type":"VEC2"
		},
		{
			"bufferView":3,
			"componentType":5123,
			"count":3012,
			"type":"SCALAR"
		},
		{
			"bufferView":4,
			"componentType":5126,
			"count":252,
			"max":[
				12.94464111328125,
				43.44879150390625,
				77.35369110107422
			],
			"min":[
				-12.9974365234375,
				-43.4490966796875,
				6.425018310546875
			],
			"type":"VEC3"
		},
		{
			"bufferView":5,
			"componentType":5126,
			"count":252,
			"type":"VEC3"
		},
		{
			"bufferView":6,
			"componentType":5126,
			"count":252,
			"type":"VEC2"
		},
		{
			"bufferView":7,
			"componentType":5123,
			"count":420,
			"type":"SCALAR"
		},
		{
			"bufferView":8,
			"componentType":5126,
			"count":378,
			"max":[
				80.05912780761719,
				80.05889892578125,
				33.31012725830078
			],
			"min":[
				-80.05912780761719,
				-80.0592041015625,
				0
			],
			"type":"VEC3"
		},
		{
			"bufferView":9,
			"componentType":5126,
			"count":378,
			"type":"VEC3"
		},
		{
			"bufferView":10,
			"componentType":5126,
			"count":378,
			"type":"VEC2"
		},
		{
			"bufferView":11,
			"componentType":5123,
			"count":684,
			"type":"SCALAR"
		}
	],
	"bufferViews":[
		{
			"buffer":0,
			"byteLength":20220,
			"byteOffset":0,
			"target":34962
		},
		{
			"buffer":0,
			"byteLength":20220,
			"byteOffset":20220,
			"target":34962
		},
		{
			"buffer":0,
			"byteLength":13480,
			"byteOffset":40440,
			"target":34962
		},
		{
			"buffer":0,
			"byteLength":6024,
			"byteOffset":53920,
			"target":34963
		},
		{
			"buffer":0,
			"byteLength":3024,
			"byteOffset":59944,
			"target":34962
		},
		{
			"buffer":0,
			"byteLength":3024,
			"byteOffset":62968,
			"target":34962
		},
		{
			"buffer":0,
			"byteLength":2016,
			"byteOffset":65992,
			"target":34962
		},
		{
			"buffer":0,
			"byteLength":840,
			"byteOffset":68008,
			"target":34963
		},
		{
			"buffer":0,
			"byteLength":4536,
			"byteOffset":68848,
			"target":34962
		},
		{
			"buffer":0,
			"byteLength":4536,
			"byteOffset":73384,
			"target":34962
		},
		{
			"buffer":0,
			"byteLength":3024,
			"byteOffset":77920,
			"target":34962
		},
		{
			"buffer":0,
			"byteLength":1368,
			"byteOffset":80944,
			"target":34963
		}
	],
	"samplers":[
		{
			"magFilter":9729,
			"minFilter":9987
		}
	],
	"buffers":[
		{
			"byteLength":82312,
			"uri":"space_SM_Prop_Turret_Small_Ceiling_01.bin"
		}
	]
}
