{
	"asset":{
		"generator":"Khronos glTF Blender I/O v4.4.55",
		"version":"2.0"
	},
	"extensionsUsed":[
		"EXT_texture_webp"
	],
	"extensionsRequired":[
		"EXT_texture_webp"
	],
	"scene":0,
	"scenes":[
		{
			"name":"Scene",
			"nodes":[
				2
			]
		}
	],
	"nodes":[
		{
			"mesh":0,
			"name":"SM_Prop_Turret_Laser_Barrel_03"
		},
		{
			"children":[
				0
			],
			"mesh":1,
			"name":"SM_Prop_Turret_Laser_Base_03"
		},
		{
			"children":[
				1
			],
			"mesh":2,
			"name":"SM_Prop_Turret_Base_Single_06",
			"rotation":[
				0.7071068286895752,
				0,
				0,
				0.7071068286895752
			],
			"scale":[
				0.009999999776482582,
				0.009999999776482582,
				0.009999999776482582
			]
		}
	],
	"materials":[
		{
			"doubleSided":true,
			"name":"SciFi7",
			"pbrMetallicRoughness":{
				"baseColorTexture":{
					"index":0
				},
				"metallicFactor":0,
				"roughnessFactor":0.5527864098548889
			}
		}
	],
	"meshes":[
		{
			"name":"Mesh.002",
			"primitives":[
				{
					"attributes":{
						"POSITION":0,
						"NORMAL":1,
						"TEXCOORD_0":2
					},
					"indices":3,
					"material":0
				}
			]
		},
		{
			"name":"Mesh.001",
			"primitives":[
				{
					"attributes":{
						"POSITION":4,
						"NORMAL":5,
						"TEXCOORD_0":6
					},
					"indices":7,
					"material":0
				}
			]
		},
		{
			"name":"Mesh",
			"primitives":[
				{
					"attributes":{
						"POSITION":8,
						"NORMAL":9,
						"TEXCOORD_0":10
					},
					"indices":11,
					"material":0
				}
			]
		}
	],
	"textures":[
		{
			"extensions":{
				"EXT_texture_webp":{
					"source":0
				}
			},
			"sampler":0
		}
	],
	"images":[
		{
			"mimeType":"image/webp",
			"name":"PolygonSciFiSpace_Signs_Texture_01_A",
			"uri":"PolygonSciFiSpace_Signs_Texture_01_A.webp"
		}
	],
	"accessors":[
		{
			"bufferView":0,
			"componentType":5126,
			"count":3561,
			"max":[
				33.81450653076172,
				200.16453552246094,
				-79.98204040527344
			],
			"min":[
				-34.043025970458984,
				0.46360015869140625,
				-164.54281616210938
			],
			"type":"VEC3"
		},
		{
			"bufferView":1,
			"componentType":5126,
			"count":3561,
			"type":"VEC3"
		},
		{
			"bufferView":2,
			"componentType":5126,
			"count":3561,
			"type":"VEC2"
		},
		{
			"bufferView":3,
			"componentType":5123,
			"count":6300,
			"type":"SCALAR"
		},
		{
			"bufferView":4,
			"componentType":5126,
			"count":218,
			"max":[
				30.30659294128418,
				21.461654663085938,
				-88.86073303222656
			],
			"min":[
				-30.30659294128418,
				-56.849700927734375,
				-145.3944091796875
			],
			"type":"VEC3"
		},
		{
			"bufferView":5,
			"componentType":5126,
			"count":218,
			"type":"VEC3"
		},
		{
			"bufferView":6,
			"componentType":5126,
			"count":218,
			"type":"VEC2"
		},
		{
			"bufferView":7,
			"componentType":5123,
			"count":420,
			"type":"SCALAR"
		},
		{
			"bufferView":8,
			"componentType":5126,
			"count":1562,
			"max":[
				79.53231811523438,
				79.53231811523438,
				41.69206237792969
			],
			"min":[
				-79.532470703125,
				-79.53231811523438,
				-117.9889907836914
			],
			"type":"VEC3"
		},
		{
			"bufferView":9,
			"componentType":5126,
			"count":1562,
			"type":"VEC3"
		},
		{
			"bufferView":10,
			"componentType":5126,
			"count":1562,
			"type":"VEC2"
		},
		{
			"bufferView":11,
			"componentType":5123,
			"count":2643,
			"type":"SCALAR"
		}
	],
	"bufferViews":[
		{
			"buffer":0,
			"byteLength":42732,
			"byteOffset":0,
			"target":34962
		},
		{
			"buffer":0,
			"byteLength":42732,
			"byteOffset":42732,
			"target":34962
		},
		{
			"buffer":0,
			"byteLength":28488,
			"byteOffset":85464,
			"target":34962
		},
		{
			"buffer":0,
			"byteLength":12600,
			"byteOffset":113952,
			"target":34963
		},
		{
			"buffer":0,
			"byteLength":2616,
			"byteOffset":126552,
			"target":34962
		},
		{
			"buffer":0,
			"byteLength":2616,
			"byteOffset":129168,
			"target":34962
		},
		{
			"buffer":0,
			"byteLength":1744,
			"byteOffset":131784,
			"target":34962
		},
		{
			"buffer":0,
			"byteLength":840,
			"byteOffset":133528,
			"target":34963
		},
		{
			"buffer":0,
			"byteLength":18744,
			"byteOffset":134368,
			"target":34962
		},
		{
			"buffer":0,
			"byteLength":18744,
			"byteOffset":153112,
			"target":34962
		},
		{
			"buffer":0,
			"byteLength":12496,
			"byteOffset":171856,
			"target":34962
		},
		{
			"buffer":0,
			"byteLength":5286,
			"byteOffset":184352,
			"target":34963
		}
	],
	"samplers":[
		{
			"magFilter":9729,
			"minFilter":9987
		}
	],
	"buffers":[
		{
			"byteLength":189640,
			"uri":"space_SM_Prop_Turret_Base_Single_06.bin"
		}
	]
}
