{
	"asset":{
		"generator":"Khronos glTF Blender I/O v4.4.55",
		"version":"2.0"
	},
	"extensionsUsed":[
		"EXT_texture_webp"
	],
	"extensionsRequired":[
		"EXT_texture_webp"
	],
	"scene":0,
	"scenes":[
		{
			"name":"Scene",
			"nodes":[
				0
			]
		}
	],
	"nodes":[
		{
			"mesh":0,
			"name":"SM_Veh_Part_Cockpit_04",
			"rotation":[
				0.7071068286895752,
				0,
				0,
				0.7071068286895752
			],
			"scale":[
				0.009999999776482582,
				0.009999999776482582,
				0.009999999776482582
			]
		}
	],
	"materials":[
		{
			"doubleSided":true,
			"name":"SciFi11",
			"pbrMetallicRoughness":{
				"baseColorTexture":{
					"index":0
				},
				"metallicFactor":0,
				"roughnessFactor":0.5527864098548889
			}
		}
	],
	"meshes":[
		{
			"name":"Mesh",
			"primitives":[
				{
					"attributes":{
						"POSITION":0,
						"NORMAL":1,
						"TEXCOORD_0":2,
						"TEXCOORD_1":3,
						"TEXCOORD_2":4
					},
					"indices":5,
					"material":0
				}
			]
		}
	],
	"textures":[
		{
			"extensions":{
				"EXT_texture_webp":{
					"source":0
				}
			},
			"sampler":0
		}
	],
	"images":[
		{
			"mimeType":"image/webp",
			"name":"PolygonSciFiSpace_Signs_Texture_01_A",
			"uri":"PolygonSciFiSpace_Signs_Texture_01_A.webp"
		}
	],
	"accessors":[
		{
			"bufferView":0,
			"componentType":5126,
			"count":1904,
			"max":[
				319.33563232421875,
				617.271728515625,
				186.5179443359375
			],
			"min":[
				-319.33563232421875,
				-470.338134765625,
				-186.5179443359375
			],
			"type":"VEC3"
		},
		{
			"bufferView":1,
			"componentType":5126,
			"count":1904,
			"type":"VEC3"
		},
		{
			"bufferView":2,
			"componentType":5126,
			"count":1904,
			"type":"VEC2"
		},
		{
			"bufferView":3,
			"componentType":5126,
			"count":1904,
			"type":"VEC2"
		},
		{
			"bufferView":4,
			"componentType":5126,
			"count":1904,
			"type":"VEC2"
		},
		{
			"bufferView":5,
			"componentType":5123,
			"count":3018,
			"type":"SCALAR"
		}
	],
	"bufferViews":[
		{
			"buffer":0,
			"byteLength":22848,
			"byteOffset":0,
			"target":34962
		},
		{
			"buffer":0,
			"byteLength":22848,
			"byteOffset":22848,
			"target":34962
		},
		{
			"buffer":0,
			"byteLength":15232,
			"byteOffset":45696,
			"target":34962
		},
		{
			"buffer":0,
			"byteLength":15232,
			"byteOffset":60928,
			"target":34962
		},
		{
			"buffer":0,
			"byteLength":15232,
			"byteOffset":76160,
			"target":34962
		},
		{
			"buffer":0,
			"byteLength":6036,
			"byteOffset":91392,
			"target":34963
		}
	],
	"samplers":[
		{
			"magFilter":9729,
			"minFilter":9987
		}
	],
	"buffers":[
		{
			"byteLength":97428,
			"uri":"space_SM_Veh_Part_Cockpit_04.bin"
		}
	]
}
