{
	"asset":{
		"generator":"Khronos glTF Blender I/O v4.4.55",
		"version":"2.0"
	},
	"extensionsUsed":[
		"EXT_texture_webp"
	],
	"extensionsRequired":[
		"EXT_texture_webp"
	],
	"scene":0,
	"scenes":[
		{
			"name":"Scene",
			"nodes":[
				0
			]
		}
	],
	"nodes":[
		{
			"mesh":0,
			"name":"SM_Bld_Bridge_Console_01",
			"rotation":[
				0.7071068286895752,
				0,
				0,
				0.7071068286895752
			],
			"scale":[
				0.009999999776482582,
				0.009999999776482582,
				0.009999999776482582
			]
		}
	],
	"materials":[
		{
			"doubleSided":true,
			"name":"SciFiSpace",
			"pbrMetallicRoughness":{
				"baseColorTexture":{
					"index":0
				},
				"metallicFactor":0,
				"roughnessFactor":0.5527864098548889
			}
		}
	],
	"meshes":[
		{
			"name":"Mesh",
			"primitives":[
				{
					"attributes":{
						"POSITION":0,
						"NORMAL":1,
						"TEXCOORD_0":2
					},
					"indices":3,
					"material":0
				}
			]
		}
	],
	"textures":[
		{
			"extensions":{
				"EXT_texture_webp":{
					"source":0
				}
			},
			"sampler":0
		}
	],
	"images":[
		{
			"mimeType":"image/webp",
			"name":"PolygonSciFiSpace_Signs_Texture_01_A",
			"uri":"PolygonSciFiSpace_Signs_Texture_01_A.webp"
		}
	],
	"accessors":[
		{
			"bufferView":0,
			"componentType":5126,
			"count":21956,
			"max":[
				1620.7073974609375,
				835.5372924804688,
				16.568836212158203
			],
			"min":[
				-121.33453369140625,
				51.3970947265625,
				-112.86148834228516
			],
			"type":"VEC3"
		},
		{
			"bufferView":1,
			"componentType":5126,
			"count":21956,
			"type":"VEC3"
		},
		{
			"bufferView":2,
			"componentType":5126,
			"count":21956,
			"type":"VEC2"
		},
		{
			"bufferView":3,
			"componentType":5123,
			"count":37944,
			"type":"SCALAR"
		}
	],
	"bufferViews":[
		{
			"buffer":0,
			"byteLength":263472,
			"byteOffset":0,
			"target":34962
		},
		{
			"buffer":0,
			"byteLength":263472,
			"byteOffset":263472,
			"target":34962
		},
		{
			"buffer":0,
			"byteLength":175648,
			"byteOffset":526944,
			"target":34962
		},
		{
			"buffer":0,
			"byteLength":75888,
			"byteOffset":702592,
			"target":34963
		}
	],
	"samplers":[
		{
			"magFilter":9729,
			"minFilter":9987
		}
	],
	"buffers":[
		{
			"byteLength":778480,
			"uri":"space_SM_Bld_Bridge_Console_01.bin"
		}
	]
}
