{
	"asset":{
		"generator":"Khronos glTF Blender I/O v4.4.55",
		"version":"2.0"
	},
	"extensionsUsed":[
		"EXT_texture_webp"
	],
	"extensionsRequired":[
		"EXT_texture_webp"
	],
	"scene":0,
	"scenes":[
		{
			"name":"Scene",
			"nodes":[
				0
			]
		}
	],
	"nodes":[
		{
			"mesh":0,
			"name":"SM_Veh_Part_Misc_023",
			"rotation":[
				0.7071068286895752,
				0,
				0,
				0.7071068286895752
			],
			"scale":[
				0.009999999776482582,
				0.009999999776482582,
				0.009999999776482582
			]
		}
	],
	"materials":[
		{
			"doubleSided":true,
			"name":"SciFi11",
			"pbrMetallicRoughness":{
				"baseColorTexture":{
					"index":0
				},
				"metallicFactor":0,
				"roughnessFactor":0.5527864098548889
			}
		}
	],
	"meshes":[
		{
			"name":"Mesh",
			"primitives":[
				{
					"attributes":{
						"POSITION":0,
						"NORMAL":1,
						"TEXCOORD_0":2,
						"TEXCOORD_1":3
					},
					"indices":4,
					"material":0
				}
			]
		}
	],
	"textures":[
		{
			"extensions":{
				"EXT_texture_webp":{
					"source":0
				}
			},
			"sampler":0
		}
	],
	"images":[
		{
			"mimeType":"image/webp",
			"name":"PolygonSciFiSpace_Signs_Texture_01_A",
			"uri":"PolygonSciFiSpace_Signs_Texture_01_A.webp"
		}
	],
	"accessors":[
		{
			"bufferView":0,
			"componentType":5126,
			"count":683,
			"max":[
				29.64800453186035,
				54.83918380737305,
				58.40805435180664
			],
			"min":[
				-29.64800262451172,
				-54.83917999267578,
				-58.408050537109375
			],
			"type":"VEC3"
		},
		{
			"bufferView":1,
			"componentType":5126,
			"count":683,
			"type":"VEC3"
		},
		{
			"bufferView":2,
			"componentType":5126,
			"count":683,
			"type":"VEC2"
		},
		{
			"bufferView":3,
			"componentType":5126,
			"count":683,
			"type":"VEC2"
		},
		{
			"bufferView":4,
			"componentType":5123,
			"count":1182,
			"type":"SCALAR"
		}
	],
	"bufferViews":[
		{
			"buffer":0,
			"byteLength":8196,
			"byteOffset":0,
			"target":34962
		},
		{
			"buffer":0,
			"byteLength":8196,
			"byteOffset":8196,
			"target":34962
		},
		{
			"buffer":0,
			"byteLength":5464,
			"byteOffset":16392,
			"target":34962
		},
		{
			"buffer":0,
			"byteLength":5464,
			"byteOffset":21856,
			"target":34962
		},
		{
			"buffer":0,
			"byteLength":2364,
			"byteOffset":27320,
			"target":34963
		}
	],
	"samplers":[
		{
			"magFilter":9729,
			"minFilter":9987
		}
	],
	"buffers":[
		{
			"byteLength":29684,
			"uri":"space_SM_Veh_Part_Misc_023.bin"
		}
	]
}
