{
	"asset":{
		"generator":"Khronos glTF Blender I/O v4.4.55",
		"version":"2.0"
	},
	"extensionsUsed":[
		"EXT_texture_webp"
	],
	"extensionsRequired":[
		"EXT_texture_webp"
	],
	"scene":0,
	"scenes":[
		{
			"name":"Scene",
			"nodes":[
				0
			]
		}
	],
	"nodes":[
		{
			"mesh":0,
			"name":"SM_Prop_Chr_Male_Cryo_01",
			"rotation":[
				0.7071068286895752,
				0,
				0,
				0.7071068286895752
			],
			"scale":[
				0.009999999776482582,
				0.009999999776482582,
				0.009999999776482582
			]
		}
	],
	"materials":[
		{
			"doubleSided":true,
			"name":"Color30",
			"pbrMetallicRoughness":{
				"baseColorTexture":{
					"index":0
				},
				"metallicFactor":0,
				"roughnessFactor":0.5527864098548889
			}
		}
	],
	"meshes":[
		{
			"name":"Mesh",
			"primitives":[
				{
					"attributes":{
						"POSITION":0,
						"NORMAL":1,
						"TEXCOORD_0":2,
						"TEXCOORD_1":3,
						"COLOR_0":4,
						"COLOR_1":5
					},
					"indices":6,
					"material":0
				}
			]
		}
	],
	"textures":[
		{
			"extensions":{
				"EXT_texture_webp":{
					"source":0
				}
			},
			"sampler":0
		}
	],
	"images":[
		{
			"mimeType":"image/webp",
			"name":"PolygonSciFiSpace_Signs_Texture_01_A",
			"uri":"PolygonSciFiSpace_Signs_Texture_01_A.webp"
		}
	],
	"accessors":[
		{
			"bufferView":0,
			"componentType":5126,
			"count":2924,
			"max":[
				26.870084762573242,
				14.439165115356445,
				105.19331359863281
			],
			"min":[
				-27.060020446777344,
				-15.964272499084473,
				-75.01691436767578
			],
			"type":"VEC3"
		},
		{
			"bufferView":1,
			"componentType":5126,
			"count":2924,
			"type":"VEC3"
		},
		{
			"bufferView":2,
			"componentType":5126,
			"count":2924,
			"type":"VEC2"
		},
		{
			"bufferView":3,
			"componentType":5126,
			"count":2924,
			"type":"VEC2"
		},
		{
			"bufferView":4,
			"componentType":5121,
			"count":2924,
			"normalized":true,
			"type":"VEC4"
		},
		{
			"bufferView":5,
			"componentType":5123,
			"count":2924,
			"normalized":true,
			"type":"VEC4"
		},
		{
			"bufferView":6,
			"componentType":5123,
			"count":4539,
			"type":"SCALAR"
		}
	],
	"bufferViews":[
		{
			"buffer":0,
			"byteLength":35088,
			"byteOffset":0,
			"target":34962
		},
		{
			"buffer":0,
			"byteLength":35088,
			"byteOffset":35088,
			"target":34962
		},
		{
			"buffer":0,
			"byteLength":23392,
			"byteOffset":70176,
			"target":34962
		},
		{
			"buffer":0,
			"byteLength":23392,
			"byteOffset":93568,
			"target":34962
		},
		{
			"buffer":0,
			"byteLength":11696,
			"byteOffset":116960,
			"target":34962
		},
		{
			"buffer":0,
			"byteLength":23392,
			"byteOffset":128656,
			"target":34962
		},
		{
			"buffer":0,
			"byteLength":9078,
			"byteOffset":152048,
			"target":34963
		}
	],
	"samplers":[
		{
			"magFilter":9729,
			"minFilter":9987
		}
	],
	"buffers":[
		{
			"byteLength":161128,
			"uri":"space_SM_Prop_Chr_Male_Cryo_01.bin"
		}
	]
}
