{
	"asset":{
		"generator":"Khronos glTF Blender I/O v4.4.55",
		"version":"2.0"
	},
	"extensionsUsed":[
		"EXT_texture_webp"
	],
	"extensionsRequired":[
		"EXT_texture_webp"
	],
	"scene":0,
	"scenes":[
		{
			"name":"Scene",
			"nodes":[
				0
			]
		}
	],
	"nodes":[
		{
			"mesh":0,
			"name":"SM_Prop_ControllPanel_03",
			"rotation":[
				0,
				-0.7071068286895752,
				0.7071068286895752,
				5.338508302088485e-08
			],
			"scale":[
				0.009999999776482582,
				0.009999999776482582,
				0.009999999776482582
			]
		}
	],
	"materials":[
		{
			"doubleSided":true,
			"name":"lambert9",
			"pbrMetallicRoughness":{
				"baseColorTexture":{
					"index":0
				},
				"metallicFactor":0,
				"roughnessFactor":0.5527864098548889
			}
		}
	],
	"meshes":[
		{
			"name":"Mesh",
			"primitives":[
				{
					"attributes":{
						"POSITION":0,
						"NORMAL":1,
						"TEXCOORD_0":2
					},
					"indices":3,
					"material":0
				}
			]
		}
	],
	"textures":[
		{
			"extensions":{
				"EXT_texture_webp":{
					"source":0
				}
			},
			"sampler":0
		}
	],
	"images":[
		{
			"mimeType":"image/webp",
			"name":"PolygonSciFiSpace_Signs_Texture_01_A",
			"uri":"PolygonSciFiSpace_Signs_Texture_01_A.webp"
		}
	],
	"accessors":[
		{
			"bufferView":0,
			"componentType":5126,
			"count":4841,
			"max":[
				531.559326171875,
				0.034942626953125,
				0
			],
			"min":[
				0,
				-254.89883422851562,
				-127.92080688476562
			],
			"type":"VEC3"
		},
		{
			"bufferView":1,
			"componentType":5126,
			"count":4841,
			"type":"VEC3"
		},
		{
			"bufferView":2,
			"componentType":5126,
			"count":4841,
			"type":"VEC2"
		},
		{
			"bufferView":3,
			"componentType":5123,
			"count":8439,
			"type":"SCALAR"
		}
	],
	"bufferViews":[
		{
			"buffer":0,
			"byteLength":58092,
			"byteOffset":0,
			"target":34962
		},
		{
			"buffer":0,
			"byteLength":58092,
			"byteOffset":58092,
			"target":34962
		},
		{
			"buffer":0,
			"byteLength":38728,
			"byteOffset":116184,
			"target":34962
		},
		{
			"buffer":0,
			"byteLength":16878,
			"byteOffset":154912,
			"target":34963
		}
	],
	"samplers":[
		{
			"magFilter":9729,
			"minFilter":9987
		}
	],
	"buffers":[
		{
			"byteLength":171792,
			"uri":"space_SM_Prop_ControlPanel_03.bin"
		}
	]
}
