{
	"asset":{
		"generator":"Khronos glTF Blender I/O v4.4.55",
		"version":"2.0"
	},
	"extensionsUsed":[
		"EXT_texture_webp"
	],
	"extensionsRequired":[
		"EXT_texture_webp"
	],
	"scene":0,
	"scenes":[
		{
			"name":"Scene",
			"nodes":[
				4
			]
		}
	],
	"nodes":[
		{
			"mesh":0,
			"name":"SM_Env_Tree_Mangrove_01_LOD0"
		},
		{
			"mesh":1,
			"name":"SM_Env_Tree_Mangrove_01_LOD1"
		},
		{
			"mesh":2,
			"name":"SM_Env_Tree_Mangrove_01_LOD2"
		},
		{
			"mesh":3,
			"name":"SM_Env_Tree_Mangrove_01_LOD3"
		},
		{
			"children":[
				0,
				1,
				2,
				3
			],
			"name":"SM_Env_Tree_Mangrove_01",
			"rotation":[
				0.7071068286895752,
				0,
				0,
				0.7071068286895752
			],
			"scale":[
				0.009999999776482582,
				0.009999999776482582,
				0.009999999776482582
			]
		}
	],
	"materials":[
		{
			"doubleSided":true,
			"name":"trunk",
			"pbrMetallicRoughness":{
				"baseColorTexture":{
					"index":0
				},
				"metallicFactor":0
			}
		}
	],
	"meshes":[
		{
			"name":"Mesh",
			"primitives":[
				{
					"attributes":{
						"POSITION":0,
						"NORMAL":1,
						"TEXCOORD_0":2,
						"TEXCOORD_1":3,
						"COLOR_0":4,
						"COLOR_1":5
					},
					"indices":6,
					"material":0
				}
			]
		},
		{
			"name":"Mesh.001",
			"primitives":[
				{
					"attributes":{
						"POSITION":7,
						"NORMAL":8,
						"TEXCOORD_0":9,
						"TEXCOORD_1":10,
						"COLOR_0":11,
						"COLOR_1":12
					},
					"indices":13,
					"material":0
				}
			]
		},
		{
			"name":"Mesh.002",
			"primitives":[
				{
					"attributes":{
						"POSITION":14,
						"NORMAL":15,
						"TEXCOORD_0":16,
						"TEXCOORD_1":17,
						"COLOR_0":18,
						"COLOR_1":19
					},
					"indices":20,
					"material":0
				}
			]
		},
		{
			"name":"Mesh.003",
			"primitives":[
				{
					"attributes":{
						"POSITION":21,
						"NORMAL":22,
						"TEXCOORD_0":23,
						"COLOR_0":24,
						"COLOR_1":25
					},
					"indices":26,
					"material":0
				}
			]
		}
	],
	"textures":[
		{
			"extensions":{
				"EXT_texture_webp":{
					"source":0
				}
			},
			"sampler":0
		}
	],
	"images":[
		{
			"mimeType":"image/webp",
			"name":"PolygonNatureBiomes_Swamp_Texture_01",
			"uri":"PolygonNatureBiomes_Swamp_Texture_01.webp"
		}
	],
	"accessors":[
		{
			"bufferView":0,
			"componentType":5126,
			"count":6646,
			"max":[
				173.239013671875,
				198.9616241455078,
				130.45143127441406
			],
			"min":[
				-168.5081787109375,
				-163.16273498535156,
				-694.7484130859375
			],
			"type":"VEC3"
		},
		{
			"bufferView":1,
			"componentType":5126,
			"count":6646,
			"type":"VEC3"
		},
		{
			"bufferView":2,
			"componentType":5126,
			"count":6646,
			"type":"VEC2"
		},
		{
			"bufferView":3,
			"componentType":5126,
			"count":6646,
			"type":"VEC2"
		},
		{
			"bufferView":4,
			"componentType":5121,
			"count":6646,
			"normalized":true,
			"type":"VEC4"
		},
		{
			"bufferView":5,
			"componentType":5123,
			"count":6646,
			"normalized":true,
			"type":"VEC4"
		},
		{
			"bufferView":6,
			"componentType":5123,
			"count":8910,
			"type":"SCALAR"
		},
		{
			"bufferView":7,
			"componentType":5126,
			"count":3750,
			"max":[
				168.89776611328125,
				196.5839385986328,
				130.51747131347656
			],
			"min":[
				-160.46099853515625,
				-163.2895050048828,
				-687.2117919921875
			],
			"type":"VEC3"
		},
		{
			"bufferView":8,
			"componentType":5126,
			"count":3750,
			"type":"VEC3"
		},
		{
			"bufferView":9,
			"componentType":5126,
			"count":3750,
			"type":"VEC2"
		},
		{
			"bufferView":10,
			"componentType":5126,
			"count":3750,
			"type":"VEC2"
		},
		{
			"bufferView":11,
			"componentType":5121,
			"count":3750,
			"normalized":true,
			"type":"VEC4"
		},
		{
			"bufferView":12,
			"componentType":5123,
			"count":3750,
			"normalized":true,
			"type":"VEC4"
		},
		{
			"bufferView":13,
			"componentType":5123,
			"count":5067,
			"type":"SCALAR"
		},
		{
			"bufferView":14,
			"componentType":5126,
			"count":2094,
			"max":[
				165.62847900390625,
				219.16592407226562,
				130.45143127441406
			],
			"min":[
				-160.10479736328125,
				-162.29641723632812,
				-680.3929443359375
			],
			"type":"VEC3"
		},
		{
			"bufferView":15,
			"componentType":5126,
			"count":2094,
			"type":"VEC3"
		},
		{
			"bufferView":16,
			"componentType":5126,
			"count":2094,
			"type":"VEC2"
		},
		{
			"bufferView":17,
			"componentType":5126,
			"count":2094,
			"type":"VEC2"
		},
		{
			"bufferView":18,
			"componentType":5121,
			"count":2094,
			"normalized":true,
			"type":"VEC4"
		},
		{
			"bufferView":19,
			"componentType":5123,
			"count":2094,
			"normalized":true,
			"type":"VEC4"
		},
		{
			"bufferView":20,
			"componentType":5123,
			"count":2727,
			"type":"SCALAR"
		},
		{
			"bufferView":21,
			"componentType":5126,
			"count":20,
			"max":[
				181.14894104003906,
				207.0503387451172,
				140.7523193359375
			],
			"min":[
				-176.5216522216797,
				-172.74456787109375,
				-706.6163330078125
			],
			"type":"VEC3"
		},
		{
			"bufferView":22,
			"componentType":5126,
			"count":20,
			"type":"VEC3"
		},
		{
			"bufferView":23,
			"componentType":5126,
			"count":20,
			"type":"VEC2"
		},
		{
			"bufferView":24,
			"componentType":5121,
			"count":20,
			"normalized":true,
			"type":"VEC4"
		},
		{
			"bufferView":25,
			"componentType":5123,
			"count":20,
			"normalized":true,
			"type":"VEC4"
		},
		{
			"bufferView":26,
			"componentType":5123,
			"count":36,
			"type":"SCALAR"
		}
	],
	"bufferViews":[
		{
			"buffer":0,
			"byteLength":79752,
			"byteOffset":0,
			"target":34962
		},
		{
			"buffer":0,
			"byteLength":79752,
			"byteOffset":79752,
			"target":34962
		},
		{
			"buffer":0,
			"byteLength":53168,
			"byteOffset":159504,
			"target":34962
		},
		{
			"buffer":0,
			"byteLength":53168,
			"byteOffset":212672,
			"target":34962
		},
		{
			"buffer":0,
			"byteLength":26584,
			"byteOffset":265840,
			"target":34962
		},
		{
			"buffer":0,
			"byteLength":53168,
			"byteOffset":292424,
			"target":34962
		},
		{
			"buffer":0,
			"byteLength":17820,
			"byteOffset":345592,
			"target":34963
		},
		{
			"buffer":0,
			"byteLength":45000,
			"byteOffset":363412,
			"target":34962
		},
		{
			"buffer":0,
			"byteLength":45000,
			"byteOffset":408412,
			"target":34962
		},
		{
			"buffer":0,
			"byteLength":30000,
			"byteOffset":453412,
			"target":34962
		},
		{
			"buffer":0,
			"byteLength":30000,
			"byteOffset":483412,
			"target":34962
		},
		{
			"buffer":0,
			"byteLength":15000,
			"byteOffset":513412,
			"target":34962
		},
		{
			"buffer":0,
			"byteLength":30000,
			"byteOffset":528412,
			"target":34962
		},
		{
			"buffer":0,
			"byteLength":10134,
			"byteOffset":558412,
			"target":34963
		},
		{
			"buffer":0,
			"byteLength":25128,
			"byteOffset":568548,
			"target":34962
		},
		{
			"buffer":0,
			"byteLength":25128,
			"byteOffset":593676,
			"target":34962
		},
		{
			"buffer":0,
			"byteLength":16752,
			"byteOffset":618804,
			"target":34962
		},
		{
			"buffer":0,
			"byteLength":16752,
			"byteOffset":635556,
			"target":34962
		},
		{
			"buffer":0,
			"byteLength":8376,
			"byteOffset":652308,
			"target":34962
		},
		{
			"buffer":0,
			"byteLength":16752,
			"byteOffset":660684,
			"target":34962
		},
		{
			"buffer":0,
			"byteLength":5454,
			"byteOffset":677436,
			"target":34963
		},
		{
			"buffer":0,
			"byteLength":240,
			"byteOffset":682892,
			"target":34962
		},
		{
			"buffer":0,
			"byteLength":240,
			"byteOffset":683132,
			"target":34962
		},
		{
			"buffer":0,
			"byteLength":160,
			"byteOffset":683372,
			"target":34962
		},
		{
			"buffer":0,
			"byteLength":80,
			"byteOffset":683532,
			"target":34962
		},
		{
			"buffer":0,
			"byteLength":160,
			"byteOffset":683612,
			"target":34962
		},
		{
			"buffer":0,
			"byteLength":72,
			"byteOffset":683772,
			"target":34963
		}
	],
	"samplers":[
		{
			"magFilter":9729,
			"minFilter":9987
		}
	],
	"buffers":[
		{
			"byteLength":683844,
			"uri":"swamp_SM_Env_Tree_Mangrove_01.bin"
		}
	]
}
