{
	"asset":{
		"generator":"Khronos glTF Blender I/O v4.4.55",
		"version":"2.0"
	},
	"scene":0,
	"scenes":[
		{
			"name":"Scene",
			"nodes":[
				0
			]
		}
	],
	"nodes":[
		{
			"mesh":0,
			"name":"SM_Prop_Jetty_Support_02",
			"rotation":[
				0.7071068286895752,
				0,
				0,
				0.7071068286895752
			],
			"scale":[
				0.009999999776482582,
				0.009999999776482582,
				0.009999999776482582
			]
		}
	],
	"materials":[
		{
			"doubleSided":true,
			"name":"lambert2052",
			"pbrMetallicRoughness":{
				"metallicFactor":0
			}
		}
	],
	"meshes":[
		{
			"name":"Mesh",
			"primitives":[
				{
					"attributes":{
						"POSITION":0,
						"NORMAL":1,
						"TEXCOORD_0":2
					},
					"indices":3,
					"material":0
				}
			]
		}
	],
	"accessors":[
		{
			"bufferView":0,
			"componentType":5126,
			"count":763,
			"max":[
				61.48228454589844,
				21.683425903320312,
				48.849212646484375
			],
			"min":[
				-61.48228454589844,
				-21.683425903320312,
				-212.3315887451172
			],
			"type":"VEC3"
		},
		{
			"bufferView":1,
			"componentType":5126,
			"count":763,
			"type":"VEC3"
		},
		{
			"bufferView":2,
			"componentType":5126,
			"count":763,
			"type":"VEC2"
		},
		{
			"bufferView":3,
			"componentType":5123,
			"count":1122,
			"type":"SCALAR"
		}
	],
	"bufferViews":[
		{
			"buffer":0,
			"byteLength":9156,
			"byteOffset":0,
			"target":34962
		},
		{
			"buffer":0,
			"byteLength":9156,
			"byteOffset":9156,
			"target":34962
		},
		{
			"buffer":0,
			"byteLength":6104,
			"byteOffset":18312,
			"target":34962
		},
		{
			"buffer":0,
			"byteLength":2244,
			"byteOffset":24416,
			"target":34963
		}
	],
	"buffers":[
		{
			"byteLength":26660,
			"uri":"swamp_SM_Prop_Jetty_Support_02.bin"
		}
	]
}
