{
	"asset":{
		"generator":"Khronos glTF Blender I/O v4.4.55",
		"version":"2.0"
	},
	"scene":0,
	"scenes":[
		{
			"name":"Scene",
			"nodes":[
				0
			]
		}
	],
	"nodes":[
		{
			"mesh":0,
			"name":"SM_Prop_Wooden_Ladder_01",
			"rotation":[
				0.7071068286895752,
				0,
				0,
				0.7071068286895752
			],
			"scale":[
				0.009999999776482582,
				0.009999999776482582,
				0.009999999776482582
			]
		}
	],
	"materials":[
		{
			"doubleSided":true,
			"name":"lambert2053",
			"pbrMetallicRoughness":{
				"metallicFactor":0
			}
		}
	],
	"meshes":[
		{
			"name":"Mesh",
			"primitives":[
				{
					"attributes":{
						"POSITION":0,
						"NORMAL":1,
						"TEXCOORD_0":2,
						"TEXCOORD_1":3
					},
					"indices":4,
					"material":0
				}
			]
		}
	],
	"accessors":[
		{
			"bufferView":0,
			"componentType":5126,
			"count":709,
			"max":[
				37.738792419433594,
				9.269965171813965,
				0
			],
			"min":[
				-38.4632682800293,
				-6.73370361328125,
				-310.40301513671875
			],
			"type":"VEC3"
		},
		{
			"bufferView":1,
			"componentType":5126,
			"count":709,
			"type":"VEC3"
		},
		{
			"bufferView":2,
			"componentType":5126,
			"count":709,
			"type":"VEC2"
		},
		{
			"bufferView":3,
			"componentType":5126,
			"count":709,
			"type":"VEC2"
		},
		{
			"bufferView":4,
			"componentType":5123,
			"count":1026,
			"type":"SCALAR"
		}
	],
	"bufferViews":[
		{
			"buffer":0,
			"byteLength":8508,
			"byteOffset":0,
			"target":34962
		},
		{
			"buffer":0,
			"byteLength":8508,
			"byteOffset":8508,
			"target":34962
		},
		{
			"buffer":0,
			"byteLength":5672,
			"byteOffset":17016,
			"target":34962
		},
		{
			"buffer":0,
			"byteLength":5672,
			"byteOffset":22688,
			"target":34962
		},
		{
			"buffer":0,
			"byteLength":2052,
			"byteOffset":28360,
			"target":34963
		}
	],
	"buffers":[
		{
			"byteLength":30412,
			"uri":"swamp_SM_Prop_Wooden_Ladder_01.bin"
		}
	]
}
