{
	"asset":{
		"generator":"Khronos glTF Blender I/O v4.4.55",
		"version":"2.0"
	},
	"scene":0,
	"scenes":[
		{
			"name":"Scene",
			"nodes":[
				0
			]
		}
	],
	"nodes":[
		{
			"mesh":0,
			"name":"SM_Prop_Swamp_Log_01",
			"rotation":[
				0.7071068286895752,
				0,
				0,
				0.7071068286895752
			],
			"scale":[
				0.009999999776482582,
				0.009999999776482582,
				0.009999999776482582
			]
		}
	],
	"materials":[
		{
			"doubleSided":true,
			"name":"Explorer_MAT29",
			"pbrMetallicRoughness":{
				"metallicFactor":0
			}
		}
	],
	"meshes":[
		{
			"name":"Mesh",
			"primitives":[
				{
					"attributes":{
						"POSITION":0,
						"NORMAL":1,
						"TEXCOORD_0":2
					},
					"indices":3,
					"material":0
				}
			]
		}
	],
	"accessors":[
		{
			"bufferView":0,
			"componentType":5126,
			"count":2333,
			"max":[
				150.9443359375,
				569.9904174804688,
				163.86038208007812
			],
			"min":[
				-150.9443359375,
				-569.9904174804688,
				-167.29721069335938
			],
			"type":"VEC3"
		},
		{
			"bufferView":1,
			"componentType":5126,
			"count":2333,
			"type":"VEC3"
		},
		{
			"bufferView":2,
			"componentType":5126,
			"count":2333,
			"type":"VEC2"
		},
		{
			"bufferView":3,
			"componentType":5123,
			"count":3333,
			"type":"SCALAR"
		}
	],
	"bufferViews":[
		{
			"buffer":0,
			"byteLength":27996,
			"byteOffset":0,
			"target":34962
		},
		{
			"buffer":0,
			"byteLength":27996,
			"byteOffset":27996,
			"target":34962
		},
		{
			"buffer":0,
			"byteLength":18664,
			"byteOffset":55992,
			"target":34962
		},
		{
			"buffer":0,
			"byteLength":6666,
			"byteOffset":74656,
			"target":34963
		}
	],
	"buffers":[
		{
			"byteLength":81324,
			"uri":"swamp_SM_Prop_Swamp_Log_01.bin"
		}
	]
}
