{"asset":{"generator":"Khronos glTF Blender I/O v4.4.55","version":"2.0"},"extensionsUsed":["EXT_texture_webp"],"extensionsRequired":["EXT_texture_webp"],"scene":0,"scenes":[{"name":"Scene","nodes":[3]}],"nodes":[{"mesh":0,"name":"SM_Env_Reeds_01_LOD0"},{"mesh":1,"name":"SM_Env_Reeds_01_LOD1"},{"mesh":2,"name":"SM_Env_Reeds_01_LOD2"},{"children":[0,1,2],"name":"SM_Env_Reeds_01","rotation":[0.7071068286895752,0,0,0.7071068286895752],"scale":[0.009999999776482582,0.009999999776482582,0.009999999776482582]}],"materials":[{"doubleSided":true,"name":"Nature4","pbrMetallicRoughness":{"baseColorTexture":{"index":0},"metallicFactor":0}},{"alphaMode":"MASK","doubleSided":true,"name":"lambert2030","pbrMetallicRoughness":{"baseColorTexture":{"index":1},"metallicFactor":0},"alphaCutoff":0.5}],"meshes":[{"name":"Mesh.001","primitives":[{"attributes":{"POSITION":0,"NORMAL":1,"TEXCOORD_0":2,"COLOR_0":3,"COLOR_1":4},"indices":5,"material":0}]},{"name":"Mesh.002","primitives":[{"attributes":{"POSITION":6,"NORMAL":7,"TEXCOORD_0":8,"COLOR_0":9,"COLOR_1":10},"indices":11,"material":1}]},{"name":"Mesh","primitives":[{"attributes":{"POSITION":12,"NORMAL":13,"TEXCOORD_0":14,"COLOR_0":15,"COLOR_1":16},"indices":17,"material":1}]}],"textures":[{"extensions":{"EXT_texture_webp":{"source":0}},"sampler":0},{"extensions":{"EXT_texture_webp":{"source":1}},"sampler":0}],"images":[{"mimeType":"image/webp","name":"PolygonNatureBiomes_Swamp_Texture_01","uri":"PolygonNatureBiomes_Swamp_Texture_01.webp"},{"mimeType":"image/webp","name":"Reeds_01","uri":"Reeds_01.webp"}],"accessors":[{"bufferView":0,"componentType":5126,"count":1020,"max":[37.4208984375,15.99188232421875,38.57606506347656],"min":[-54.2060546875,-42.99212646484375,-301.2225341796875],"type":"VEC3"},{"bufferView":1,"componentType":5126,"count":1020,"type":"VEC3"},{"bufferView":2,"componentType":5126,"count":1020,"type":"VEC2"},{"bufferView":3,"componentType":5121,"count":1020,"normalized":true,"type":"VEC4"},{"bufferView":4,"componentType":5123,"count":1020,"normalized":true,"type":"VEC4"},{"bufferView":5,"componentType":5123,"count":1500,"type":"SCALAR"},{"bufferView":6,"componentType":5126,"count":30,"max":[40.345703125,49.56573486328125,49.20166015625],"min":[-55.0654296875,-52.30145263671875,-306.565185546875],"type":"VEC3"},{"bufferView":7,"componentType":5126,"count":30,"type":"VEC3"},{"bufferView":8,"componentType":5126,"count":30,"type":"VEC2"},{"bufferView":9,"componentType":5121,"count":30,"normalized":true,"type":"VEC4"},{"bufferView":10,"componentType":5123,"count":30,"normalized":true,"type":"VEC4"},{"bufferView":11,"componentType":5123,"count":96,"type":"SCALAR"},{"bufferView":12,"componentType":5126,"count":8,"max":[40.345703125,48.92608642578125,49.20166015625],"min":[-55.0654296875,-52.30145263671875,-306.565185546875],"type":"VEC3"},{"bufferView":13,"componentType":5126,"count":8,"type":"VEC3"},{"bufferView":14,"componentType":5126,"count":8,"type":"VEC2"},{"bufferView":15,"componentType":5121,"count":8,"normalized":true,"type":"VEC4"},{"bufferView":16,"componentType":5123,"count":8,"normalized":true,"type":"VEC4"},{"bufferView":17,"componentType":5123,"count":12,"type":"SCALAR"}],"bufferViews":[{"buffer":0,"byteLength":12240,"byteOffset":0,"target":34962},{"buffer":0,"byteLength":12240,"byteOffset":12240,"target":34962},{"buffer":0,"byteLength":8160,"byteOffset":24480,"target":34962},{"buffer":0,"byteLength":4080,"byteOffset":32640,"target":34962},{"buffer":0,"byteLength":8160,"byteOffset":36720,"target":34962},{"buffer":0,"byteLength":3000,"byteOffset":44880,"target":34963},{"buffer":0,"byteLength":360,"byteOffset":47880,"target":34962},{"buffer":0,"byteLength":360,"byteOffset":48240,"target":34962},{"buffer":0,"byteLength":240,"byteOffset":48600,"target":34962},{"buffer":0,"byteLength":120,"byteOffset":48840,"target":34962},{"buffer":0,"byteLength":240,"byteOffset":48960,"target":34962},{"buffer":0,"byteLength":192,"byteOffset":49200,"target":34963},{"buffer":0,"byteLength":96,"byteOffset":49392,"target":34962},{"buffer":0,"byteLength":96,"byteOffset":49488,"target":34962},{"buffer":0,"byteLength":64,"byteOffset":49584,"target":34962},{"buffer":0,"byteLength":32,"byteOffset":49648,"target":34962},{"buffer":0,"byteLength":64,"byteOffset":49680,"target":34962},{"buffer":0,"byteLength":24,"byteOffset":49744,"target":34963}],"samplers":[{"magFilter":9729,"minFilter":9987}],"buffers":[{"byteLength":49768,"uri":"swamp_SM_Env_Reeds_01.bin"}]}