{
	"asset":{
		"generator":"Khronos glTF Blender I/O v4.4.55",
		"version":"2.0"
	},
	"scene":0,
	"scenes":[
		{
			"name":"Scene",
			"nodes":[
				0
			]
		}
	],
	"nodes":[
		{
			"mesh":0,
			"name":"SM_Prop_Sewerpipe_Stand_01",
			"rotation":[
				0.7071068286895752,
				0,
				0,
				0.7071068286895752
			],
			"scale":[
				0.009999999776482582,
				0.009999999776482582,
				0.009999999776482582
			]
		}
	],
	"materials":[
		{
			"doubleSided":true,
			"name":"Nature_Base_Mat18",
			"pbrMetallicRoughness":{
				"metallicFactor":0
			}
		}
	],
	"meshes":[
		{
			"name":"Mesh",
			"primitives":[
				{
					"attributes":{
						"POSITION":0,
						"NORMAL":1,
						"TEXCOORD_0":2
					},
					"indices":3,
					"material":0
				}
			]
		}
	],
	"accessors":[
		{
			"bufferView":0,
			"componentType":5126,
			"count":447,
			"max":[
				53.240570068359375,
				12.698348999023438,
				125.85618591308594
			],
			"min":[
				-53.240570068359375,
				-12.698348999023438,
				-44.57182312011719
			],
			"type":"VEC3"
		},
		{
			"bufferView":1,
			"componentType":5126,
			"count":447,
			"type":"VEC3"
		},
		{
			"bufferView":2,
			"componentType":5126,
			"count":447,
			"type":"VEC2"
		},
		{
			"bufferView":3,
			"componentType":5123,
			"count":672,
			"type":"SCALAR"
		}
	],
	"bufferViews":[
		{
			"buffer":0,
			"byteLength":5364,
			"byteOffset":0,
			"target":34962
		},
		{
			"buffer":0,
			"byteLength":5364,
			"byteOffset":5364,
			"target":34962
		},
		{
			"buffer":0,
			"byteLength":3576,
			"byteOffset":10728,
			"target":34962
		},
		{
			"buffer":0,
			"byteLength":1344,
			"byteOffset":14304,
			"target":34963
		}
	],
	"buffers":[
		{
			"byteLength":15648,
			"uri":"swamp_SM_Prop_Sewerpipe_Stand_01.bin"
		}
	]
}
