{
	"asset":{
		"generator":"Khronos glTF Blender I/O v4.4.55",
		"version":"2.0"
	},
	"scene":0,
	"scenes":[
		{
			"name":"Scene",
			"nodes":[
				0
			]
		}
	],
	"nodes":[
		{
			"mesh":0,
			"name":"SM_Prop_Fence_01",
			"rotation":[
				0.7071068286895752,
				0,
				0,
				0.7071068286895752
			],
			"scale":[
				0.009999999776482582,
				0.009999999776482582,
				0.009999999776482582
			]
		}
	],
	"materials":[
		{
			"doubleSided":true,
			"name":"Explorer_MAT18",
			"pbrMetallicRoughness":{
				"metallicFactor":0
			}
		}
	],
	"meshes":[
		{
			"name":"Mesh",
			"primitives":[
				{
					"attributes":{
						"POSITION":0,
						"NORMAL":1,
						"TEXCOORD_0":2
					},
					"indices":3,
					"material":0
				}
			]
		}
	],
	"accessors":[
		{
			"bufferView":0,
			"componentType":5126,
			"count":1489,
			"max":[
				175.9337158203125,
				11.097814559936523,
				0
			],
			"min":[
				-6.350968360900879,
				-11.097793579101562,
				-131.65423583984375
			],
			"type":"VEC3"
		},
		{
			"bufferView":1,
			"componentType":5126,
			"count":1489,
			"type":"VEC3"
		},
		{
			"bufferView":2,
			"componentType":5126,
			"count":1489,
			"type":"VEC2"
		},
		{
			"bufferView":3,
			"componentType":5123,
			"count":2160,
			"type":"SCALAR"
		}
	],
	"bufferViews":[
		{
			"buffer":0,
			"byteLength":17868,
			"byteOffset":0,
			"target":34962
		},
		{
			"buffer":0,
			"byteLength":17868,
			"byteOffset":17868,
			"target":34962
		},
		{
			"buffer":0,
			"byteLength":11912,
			"byteOffset":35736,
			"target":34962
		},
		{
			"buffer":0,
			"byteLength":4320,
			"byteOffset":47648,
			"target":34963
		}
	],
	"buffers":[
		{
			"byteLength":51968,
			"uri":"swamp_SM_Prop_Fence_01.bin"
		}
	]
}
