{"asset":{"generator":"Khronos glTF Blender I/O v4.4.55","version":"2.0"},"extensionsUsed":["EXT_texture_webp"],"extensionsRequired":["EXT_texture_webp"],"scene":0,"scenes":[{"name":"Scene","nodes":[0]}],"nodes":[{"mesh":0,"name":"SM_Prop_Swamp_Log_03","rotation":[0.7071068286895752,0,0,0.7071068286895752],"scale":[0.009999999776482582,0.009999999776482582,0.009999999776482582]}],"materials":[{"alphaMode":"MASK","doubleSided":true,"name":"Explorer_MAT31","pbrMetallicRoughness":{"baseColorTexture":{"index":0},"metallicFactor":0},"alphaCutoff":0.5}],"meshes":[{"name":"Mesh","primitives":[{"attributes":{"POSITION":0,"NORMAL":1,"TEXCOORD_0":2},"indices":3,"material":0}]}],"textures":[{"extensions":{"EXT_texture_webp":{"source":0}},"sampler":0}],"images":[{"mimeType":"image/webp","name":"PolygonExplorers_Texture_01_Cameron-_file403","uri":"PolygonExplorers_Texture_01_Cameron-_file403.webp"}],"accessors":[{"bufferView":0,"componentType":5126,"count":1596,"max":[231.27903747558594,474.21295166015625,251.98133850097656],"min":[-308.1343688964844,-224.3704071044922,-428.9273376464844],"type":"VEC3"},{"bufferView":1,"componentType":5126,"count":1596,"type":"VEC3"},{"bufferView":2,"componentType":5126,"count":1596,"type":"VEC2"},{"bufferView":3,"componentType":5123,"count":2244,"type":"SCALAR"}],"bufferViews":[{"buffer":0,"byteLength":19152,"byteOffset":0,"target":34962},{"buffer":0,"byteLength":19152,"byteOffset":19152,"target":34962},{"buffer":0,"byteLength":12768,"byteOffset":38304,"target":34962},{"buffer":0,"byteLength":4488,"byteOffset":51072,"target":34963}],"samplers":[{"magFilter":9729,"minFilter":9987}],"buffers":[{"byteLength":55560,"uri":"swamp_SM_Prop_Swamp_Log_03.bin"}]}