{
	"asset":{
		"generator":"Khronos glTF Blender I/O v4.4.55",
		"version":"2.0"
	},
	"scene":0,
	"scenes":[
		{
			"name":"Scene",
			"nodes":[
				0
			]
		}
	],
	"nodes":[
		{
			"mesh":0,
			"name":"SM_Prop_Sewerpipe_End_02",
			"rotation":[
				0.7071068286895752,
				0,
				0,
				0.7071068286895752
			],
			"scale":[
				0.009999999776482582,
				0.009999999776482582,
				0.009999999776482582
			]
		}
	],
	"materials":[
		{
			"doubleSided":true,
			"name":"Nature_Base_Mat16",
			"pbrMetallicRoughness":{
				"metallicFactor":0
			}
		}
	],
	"meshes":[
		{
			"name":"Mesh",
			"primitives":[
				{
					"attributes":{
						"POSITION":0,
						"NORMAL":1,
						"TEXCOORD_0":2
					},
					"indices":3,
					"material":0
				}
			]
		}
	],
	"accessors":[
		{
			"bufferView":0,
			"componentType":5126,
			"count":333,
			"max":[
				24.17041778564453,
				72.654052734375,
				112.83125305175781
			],
			"min":[
				-23.150650024414062,
				-2.025146484375,
				-39.365570068359375
			],
			"type":"VEC3"
		},
		{
			"bufferView":1,
			"componentType":5126,
			"count":333,
			"type":"VEC3"
		},
		{
			"bufferView":2,
			"componentType":5126,
			"count":333,
			"type":"VEC2"
		},
		{
			"bufferView":3,
			"componentType":5123,
			"count":510,
			"type":"SCALAR"
		}
	],
	"bufferViews":[
		{
			"buffer":0,
			"byteLength":3996,
			"byteOffset":0,
			"target":34962
		},
		{
			"buffer":0,
			"byteLength":3996,
			"byteOffset":3996,
			"target":34962
		},
		{
			"buffer":0,
			"byteLength":2664,
			"byteOffset":7992,
			"target":34962
		},
		{
			"buffer":0,
			"byteLength":1020,
			"byteOffset":10656,
			"target":34963
		}
	],
	"buffers":[
		{
			"byteLength":11676,
			"uri":"swamp_SM_Prop_Sewerpipe_End_02.bin"
		}
	]
}
