{
	"asset":{
		"generator":"Khronos glTF Blender I/O v4.4.55",
		"version":"2.0"
	},
	"extensionsUsed":[
		"EXT_texture_webp"
	],
	"extensionsRequired":[
		"EXT_texture_webp"
	],
	"scene":0,
	"scenes":[
		{
			"name":"Scene",
			"nodes":[
				3
			]
		}
	],
	"nodes":[
		{
			"mesh":0,
			"name":"SM_Env_SwampGrass_Group_02_LOD0"
		},
		{
			"mesh":1,
			"name":"SM_Env_SwampGrass_Group_02_LOD1"
		},
		{
			"mesh":2,
			"name":"SM_Env_SwampGrass_Group_02_LOD2"
		},
		{
			"children":[
				0,
				1,
				2
			],
			"name":"SM_Env_SwampGrass_Group_02",
			"rotation":[
				0.7071068286895752,
				0,
				0,
				0.7071068286895752
			],
			"scale":[
				0.009999999776482582,
				0.009999999776482582,
				0.009999999776482582
			]
		}
	],
	"materials":[
		{
			"doubleSided":true,
			"name":"Nature12",
			"pbrMetallicRoughness":{
				"baseColorTexture":{
					"index":0
				},
				"metallicFactor":0
			}
		},
		{
			"alphaMode":"BLEND",
			"doubleSided":true,
			"name":"SwampGrass1",
			"pbrMetallicRoughness":{
				"baseColorTexture":{
					"index":1
				},
				"metallicFactor":0
			}
		}
	],
	"meshes":[
		{
			"name":"Mesh",
			"primitives":[
				{
					"attributes":{
						"POSITION":0,
						"NORMAL":1,
						"TEXCOORD_0":2,
						"COLOR_0":3,
						"COLOR_1":4
					},
					"indices":5,
					"material":0
				}
			]
		},
		{
			"name":"Mesh.001",
			"primitives":[
				{
					"attributes":{
						"POSITION":6,
						"NORMAL":7,
						"TEXCOORD_0":8,
						"COLOR_0":9,
						"COLOR_1":10
					},
					"indices":11,
					"material":1
				}
			]
		},
		{
			"name":"Mesh.002",
			"primitives":[
				{
					"attributes":{
						"POSITION":12,
						"NORMAL":13,
						"TEXCOORD_0":14,
						"COLOR_0":15,
						"COLOR_1":16
					},
					"indices":17,
					"material":1
				}
			]
		}
	],
	"textures":[
		{
			"extensions":{
				"EXT_texture_webp":{
					"source":0
				}
			},
			"sampler":0
		},
		{
			"extensions":{
				"EXT_texture_webp":{
					"source":1
				}
			},
			"sampler":0
		}
	],
	"images":[
		{
			"mimeType":"image/webp",
			"name":"PolygonNatureBiomes_Swamp_Texture_01",
			"uri":"PolygonNatureBiomes_Swamp_Texture_01.webp"
		},
		{
			"mimeType":"image/webp",
			"name":"SwampGrass_01",
			"uri":"SwampGrass_01.webp"
		}
	],
	"accessors":[
		{
			"bufferView":0,
			"componentType":5126,
			"count":7462,
			"max":[
				550.6817626953125,
				313.6064453125,
				5.451626777648926
			],
			"min":[
				-449.737548828125,
				-453.4501953125,
				-446.63134765625
			],
			"type":"VEC3"
		},
		{
			"bufferView":1,
			"componentType":5126,
			"count":7462,
			"type":"VEC3"
		},
		{
			"bufferView":2,
			"componentType":5126,
			"count":7462,
			"type":"VEC2"
		},
		{
			"bufferView":3,
			"componentType":5121,
			"count":7462,
			"normalized":true,
			"type":"VEC4"
		},
		{
			"bufferView":4,
			"componentType":5123,
			"count":7462,
			"normalized":true,
			"type":"VEC4"
		},
		{
			"bufferView":5,
			"componentType":5123,
			"count":10554,
			"type":"SCALAR"
		},
		{
			"bufferView":6,
			"componentType":5126,
			"count":532,
			"max":[
				539.3614501953125,
				339.715087890625,
				0
			],
			"min":[
				-429.873291015625,
				-496.776123046875,
				-446.48345947265625
			],
			"type":"VEC3"
		},
		{
			"bufferView":7,
			"componentType":5126,
			"count":532,
			"type":"VEC3"
		},
		{
			"bufferView":8,
			"componentType":5126,
			"count":532,
			"type":"VEC2"
		},
		{
			"bufferView":9,
			"componentType":5121,
			"count":532,
			"normalized":true,
			"type":"VEC4"
		},
		{
			"bufferView":10,
			"componentType":5123,
			"count":532,
			"normalized":true,
			"type":"VEC4"
		},
		{
			"bufferView":11,
			"componentType":5123,
			"count":1608,
			"type":"SCALAR"
		},
		{
			"bufferView":12,
			"componentType":5126,
			"count":168,
			"max":[
				539.3614501953125,
				333.29638671875,
				0
			],
			"min":[
				-429.873291015625,
				-503.19482421875,
				-446.48345947265625
			],
			"type":"VEC3"
		},
		{
			"bufferView":13,
			"componentType":5126,
			"count":168,
			"type":"VEC3"
		},
		{
			"bufferView":14,
			"componentType":5126,
			"count":168,
			"type":"VEC2"
		},
		{
			"bufferView":15,
			"componentType":5121,
			"count":168,
			"normalized":true,
			"type":"VEC4"
		},
		{
			"bufferView":16,
			"componentType":5123,
			"count":168,
			"normalized":true,
			"type":"VEC4"
		},
		{
			"bufferView":17,
			"componentType":5123,
			"count":252,
			"type":"SCALAR"
		}
	],
	"bufferViews":[
		{
			"buffer":0,
			"byteLength":89544,
			"byteOffset":0,
			"target":34962
		},
		{
			"buffer":0,
			"byteLength":89544,
			"byteOffset":89544,
			"target":34962
		},
		{
			"buffer":0,
			"byteLength":59696,
			"byteOffset":179088,
			"target":34962
		},
		{
			"buffer":0,
			"byteLength":29848,
			"byteOffset":238784,
			"target":34962
		},
		{
			"buffer":0,
			"byteLength":59696,
			"byteOffset":268632,
			"target":34962
		},
		{
			"buffer":0,
			"byteLength":21108,
			"byteOffset":328328,
			"target":34963
		},
		{
			"buffer":0,
			"byteLength":6384,
			"byteOffset":349436,
			"target":34962
		},
		{
			"buffer":0,
			"byteLength":6384,
			"byteOffset":355820,
			"target":34962
		},
		{
			"buffer":0,
			"byteLength":4256,
			"byteOffset":362204,
			"target":34962
		},
		{
			"buffer":0,
			"byteLength":2128,
			"byteOffset":366460,
			"target":34962
		},
		{
			"buffer":0,
			"byteLength":4256,
			"byteOffset":368588,
			"target":34962
		},
		{
			"buffer":0,
			"byteLength":3216,
			"byteOffset":372844,
			"target":34963
		},
		{
			"buffer":0,
			"byteLength":2016,
			"byteOffset":376060,
			"target":34962
		},
		{
			"buffer":0,
			"byteLength":2016,
			"byteOffset":378076,
			"target":34962
		},
		{
			"buffer":0,
			"byteLength":1344,
			"byteOffset":380092,
			"target":34962
		},
		{
			"buffer":0,
			"byteLength":672,
			"byteOffset":381436,
			"target":34962
		},
		{
			"buffer":0,
			"byteLength":1344,
			"byteOffset":382108,
			"target":34962
		},
		{
			"buffer":0,
			"byteLength":504,
			"byteOffset":383452,
			"target":34963
		}
	],
	"samplers":[
		{
			"magFilter":9729,
			"minFilter":9987
		}
	],
	"buffers":[
		{
			"byteLength":383956,
			"uri":"swamp_SM_Env_SwampGrass_Group_02.bin"
		}
	]
}
