{
	"asset":{
		"generator":"Khronos glTF Blender I/O v4.4.55",
		"version":"2.0"
	},
	"scene":0,
	"scenes":[
		{
			"name":"Scene",
			"nodes":[
				0
			]
		}
	],
	"nodes":[
		{
			"mesh":0,
			"name":"SM_Prop_Stump_02",
			"rotation":[
				0.7071068286895752,
				0,
				0,
				0.7071068286895752
			],
			"scale":[
				0.009999999776482582,
				0.009999999776482582,
				0.009999999776482582
			]
		}
	],
	"materials":[
		{
			"doubleSided":true,
			"name":"Explorer_MAT26",
			"pbrMetallicRoughness":{
				"metallicFactor":0
			}
		}
	],
	"meshes":[
		{
			"name":"Mesh",
			"primitives":[
				{
					"attributes":{
						"POSITION":0,
						"NORMAL":1,
						"TEXCOORD_0":2
					},
					"indices":3,
					"material":0
				}
			]
		}
	],
	"accessors":[
		{
			"bufferView":0,
			"componentType":5126,
			"count":1856,
			"max":[
				154.28665161132812,
				116.91053771972656,
				97.83039093017578
			],
			"min":[
				-148.6905059814453,
				-144.5897216796875,
				-68.31141662597656
			],
			"type":"VEC3"
		},
		{
			"bufferView":1,
			"componentType":5126,
			"count":1856,
			"type":"VEC3"
		},
		{
			"bufferView":2,
			"componentType":5126,
			"count":1856,
			"type":"VEC2"
		},
		{
			"bufferView":3,
			"componentType":5123,
			"count":2607,
			"type":"SCALAR"
		}
	],
	"bufferViews":[
		{
			"buffer":0,
			"byteLength":22272,
			"byteOffset":0,
			"target":34962
		},
		{
			"buffer":0,
			"byteLength":22272,
			"byteOffset":22272,
			"target":34962
		},
		{
			"buffer":0,
			"byteLength":14848,
			"byteOffset":44544,
			"target":34962
		},
		{
			"buffer":0,
			"byteLength":5214,
			"byteOffset":59392,
			"target":34963
		}
	],
	"buffers":[
		{
			"byteLength":64608,
			"uri":"swamp_SM_Prop_Stump_02.bin"
		}
	]
}
