{
	"asset":{
		"generator":"Khronos glTF Blender I/O v4.4.55",
		"version":"2.0"
	},
	"scene":0,
	"scenes":[
		{
			"name":"Scene",
			"nodes":[
				0
			]
		}
	],
	"nodes":[
		{
			"mesh":0,
			"name":"SM_Prop_VineTree_01",
			"rotation":[
				0.7071068286895752,
				0,
				0,
				0.7071068286895752
			],
			"scale":[
				0.009999999776482582,
				0.009999999776482582,
				0.009999999776482582
			]
		}
	],
	"materials":[
		{
			"doubleSided":true,
			"name":"Explorer_MAT41",
			"pbrMetallicRoughness":{
				"metallicFactor":0
			}
		}
	],
	"meshes":[
		{
			"name":"Mesh",
			"primitives":[
				{
					"attributes":{
						"POSITION":0,
						"NORMAL":1,
						"TEXCOORD_0":2
					},
					"indices":3,
					"material":0
				}
			]
		}
	],
	"accessors":[
		{
			"bufferView":0,
			"componentType":5126,
			"count":11154,
			"max":[
				362.0915832519531,
				243.07077026367188,
				30.451208114624023
			],
			"min":[
				-252.0255126953125,
				-272.3214111328125,
				-1530.571044921875
			],
			"type":"VEC3"
		},
		{
			"bufferView":1,
			"componentType":5126,
			"count":11154,
			"type":"VEC3"
		},
		{
			"bufferView":2,
			"componentType":5126,
			"count":11154,
			"type":"VEC2"
		},
		{
			"bufferView":3,
			"componentType":5123,
			"count":16620,
			"type":"SCALAR"
		}
	],
	"bufferViews":[
		{
			"buffer":0,
			"byteLength":133848,
			"byteOffset":0,
			"target":34962
		},
		{
			"buffer":0,
			"byteLength":133848,
			"byteOffset":133848,
			"target":34962
		},
		{
			"buffer":0,
			"byteLength":89232,
			"byteOffset":267696,
			"target":34962
		},
		{
			"buffer":0,
			"byteLength":33240,
			"byteOffset":356928,
			"target":34963
		}
	],
	"buffers":[
		{
			"byteLength":390168,
			"uri":"swamp_SM_Prop_VineTree_01.bin"
		}
	]
}
