{
	"asset":{
		"generator":"Khronos glTF Blender I/O v4.4.55",
		"version":"2.0"
	},
	"scene":0,
	"scenes":[
		{
			"name":"Scene",
			"nodes":[
				0
			]
		}
	],
	"nodes":[
		{
			"mesh":0,
			"name":"SM_Prop_Canoe_01",
			"rotation":[
				0.7071068286895752,
				0,
				0,
				0.7071068286895752
			],
			"scale":[
				0.009999999776482582,
				0.009999999776482582,
				0.009999999776482582
			]
		}
	],
	"materials":[
		{
			"doubleSided":true,
			"name":"Nature_Base_Mat9",
			"pbrMetallicRoughness":{
				"metallicFactor":0
			}
		}
	],
	"meshes":[
		{
			"name":"Mesh",
			"primitives":[
				{
					"attributes":{
						"POSITION":0,
						"NORMAL":1,
						"TEXCOORD_0":2
					},
					"indices":3,
					"material":0
				}
			]
		}
	],
	"accessors":[
		{
			"bufferView":0,
			"componentType":5126,
			"count":1614,
			"max":[
				55.0103759765625,
				252.72222900390625,
				23.136493682861328
			],
			"min":[
				-55.0103759765625,
				-252.72222900390625,
				-50.09458923339844
			],
			"type":"VEC3"
		},
		{
			"bufferView":1,
			"componentType":5126,
			"count":1614,
			"type":"VEC3"
		},
		{
			"bufferView":2,
			"componentType":5126,
			"count":1614,
			"type":"VEC2"
		},
		{
			"bufferView":3,
			"componentType":5123,
			"count":2424,
			"type":"SCALAR"
		}
	],
	"bufferViews":[
		{
			"buffer":0,
			"byteLength":19368,
			"byteOffset":0,
			"target":34962
		},
		{
			"buffer":0,
			"byteLength":19368,
			"byteOffset":19368,
			"target":34962
		},
		{
			"buffer":0,
			"byteLength":12912,
			"byteOffset":38736,
			"target":34962
		},
		{
			"buffer":0,
			"byteLength":4848,
			"byteOffset":51648,
			"target":34963
		}
	],
	"buffers":[
		{
			"byteLength":56496,
			"uri":"swamp_SM_Prop_Canoe_01.bin"
		}
	]
}
