{
	"asset":{
		"generator":"Khronos glTF Blender I/O v4.4.55",
		"version":"2.0"
	},
	"scene":0,
	"scenes":[
		{
			"name":"Scene",
			"nodes":[
				0
			]
		}
	],
	"nodes":[
		{
			"mesh":0,
			"name":"SM_Prop_Swamp_Log_07",
			"rotation":[
				0.7071068286895752,
				0,
				0,
				0.7071068286895752
			],
			"scale":[
				0.009999999776482582,
				0.009999999776482582,
				0.009999999776482582
			]
		}
	],
	"materials":[
		{
			"doubleSided":true,
			"name":"Explorer_MAT35",
			"pbrMetallicRoughness":{
				"metallicFactor":0
			}
		}
	],
	"meshes":[
		{
			"name":"Mesh",
			"primitives":[
				{
					"attributes":{
						"POSITION":0,
						"NORMAL":1,
						"TEXCOORD_0":2
					},
					"indices":3,
					"material":0
				}
			]
		}
	],
	"accessors":[
		{
			"bufferView":0,
			"componentType":5126,
			"count":3775,
			"max":[
				248.50860595703125,
				772.9886474609375,
				259.8162536621094
			],
			"min":[
				-336.1950988769531,
				-772.9886474609375,
				-388.36492919921875
			],
			"type":"VEC3"
		},
		{
			"bufferView":1,
			"componentType":5126,
			"count":3775,
			"type":"VEC3"
		},
		{
			"bufferView":2,
			"componentType":5126,
			"count":3775,
			"type":"VEC2"
		},
		{
			"bufferView":3,
			"componentType":5123,
			"count":5160,
			"type":"SCALAR"
		}
	],
	"bufferViews":[
		{
			"buffer":0,
			"byteLength":45300,
			"byteOffset":0,
			"target":34962
		},
		{
			"buffer":0,
			"byteLength":45300,
			"byteOffset":45300,
			"target":34962
		},
		{
			"buffer":0,
			"byteLength":30200,
			"byteOffset":90600,
			"target":34962
		},
		{
			"buffer":0,
			"byteLength":10320,
			"byteOffset":120800,
			"target":34963
		}
	],
	"buffers":[
		{
			"byteLength":131120,
			"uri":"swamp_SM_Prop_Swamp_Log_07.bin"
		}
	]
}
