{"asset":{"generator":"Khronos glTF Blender I/O v4.4.55","version":"2.0"},"extensionsUsed":["EXT_texture_webp"],"extensionsRequired":["EXT_texture_webp"],"scene":0,"scenes":[{"name":"Scene","nodes":[2]}],"nodes":[{"mesh":0,"name":"SM_Env_LillyPads_03_LOD0"},{"mesh":1,"name":"SM_Env_LillyPads_03_LOD1"},{"children":[0,1],"name":"SM_Env_LillyPads_03","rotation":[0.7071068286895752,0,0,0.7071068286895752],"scale":[0.009999999776482582,0.009999999776482582,0.009999999776482582]}],"materials":[{"doubleSided":true,"name":"Nature2","pbrMetallicRoughness":{"baseColorTexture":{"index":0},"metallicFactor":0}},{"alphaMode":"MASK","doubleSided":true,"name":"Lillies_03","pbrMetallicRoughness":{"baseColorTexture":{"index":1},"metallicFactor":0},"alphaCutoff":0.5}],"meshes":[{"name":"Mesh.001","primitives":[{"attributes":{"POSITION":0,"NORMAL":1,"TEXCOORD_0":2},"indices":3,"material":0}]},{"name":"Mesh","primitives":[{"attributes":{"POSITION":4,"NORMAL":5,"TEXCOORD_0":6},"indices":7,"material":1}]}],"textures":[{"extensions":{"EXT_texture_webp":{"source":0}},"sampler":0},{"extensions":{"EXT_texture_webp":{"source":1}},"sampler":0}],"images":[{"mimeType":"image/webp","name":"PolygonNatureBiomes_Swamp_Texture_01","uri":"PolygonNatureBiomes_Swamp_Texture_01.webp"},{"mimeType":"image/webp","name":"LillyPads_02","uri":"LillyPads_02.webp"}],"accessors":[{"bufferView":0,"componentType":5126,"count":789,"max":[108.4951171875,27.7388916015625,-1.0654029846191406],"min":[-113.6826171875,-108.925048828125,-8.633003234863281],"type":"VEC3"},{"bufferView":1,"componentType":5126,"count":789,"type":"VEC3"},{"bufferView":2,"componentType":5126,"count":789,"type":"VEC2"},{"bufferView":3,"componentType":5123,"count":1380,"type":"SCALAR"},{"bufferView":4,"componentType":5126,"count":4,"max":[131.3583984375,43.555419921875,-4.766197204589844],"min":[-151.90966796875,-139.765380859375,-4.766197204589844],"type":"VEC3"},{"bufferView":5,"componentType":5126,"count":4,"type":"VEC3"},{"bufferView":6,"componentType":5126,"count":4,"type":"VEC2"},{"bufferView":7,"componentType":5123,"count":6,"type":"SCALAR"}],"bufferViews":[{"buffer":0,"byteLength":9468,"byteOffset":0,"target":34962},{"buffer":0,"byteLength":9468,"byteOffset":9468,"target":34962},{"buffer":0,"byteLength":6312,"byteOffset":18936,"target":34962},{"buffer":0,"byteLength":2760,"byteOffset":25248,"target":34963},{"buffer":0,"byteLength":48,"byteOffset":28008,"target":34962},{"buffer":0,"byteLength":48,"byteOffset":28056,"target":34962},{"buffer":0,"byteLength":32,"byteOffset":28104,"target":34962},{"buffer":0,"byteLength":12,"byteOffset":28136,"target":34963}],"samplers":[{"magFilter":9729,"minFilter":9987}],"buffers":[{"byteLength":28148,"uri":"swamp_SM_Env_LillyPads_03.bin"}]}