{
	"asset":{
		"generator":"Khronos glTF Blender I/O v4.4.55",
		"version":"2.0"
	},
	"extensionsUsed":[
		"EXT_texture_webp"
	],
	"extensionsRequired":[
		"EXT_texture_webp"
	],
	"scene":0,
	"scenes":[
		{
			"name":"Scene",
			"nodes":[
				0
			]
		}
	],
	"nodes":[
		{
			"mesh":0,
			"name":"SM_Prop_Crate_01",
			"rotation":[
				0.7071068286895752,
				0,
				0,
				0.7071068286895752
			],
			"scale":[
				0.009999999776482582,
				0.009999999776482582,
				0.009999999776482582
			]
		}
	],
	"materials":[
		{
			"alphaMode":"BLEND",
			"doubleSided":true,
			"name":"Explorer_MAT1",
			"pbrMetallicRoughness":{
				"baseColorTexture":{
					"index":0
				},
				"metallicFactor":0
			}
		}
	],
	"meshes":[
		{
			"name":"Mesh",
			"primitives":[
				{
					"attributes":{
						"POSITION":0,
						"NORMAL":1,
						"TEXCOORD_0":2,
						"TEXCOORD_1":3
					},
					"indices":4,
					"material":0
				}
			]
		}
	],
	"textures":[
		{
			"extensions":{
				"EXT_texture_webp":{
					"source":0
				}
			},
			"sampler":0
		}
	],
	"images":[
		{
			"mimeType":"image/webp",
			"name":"PolygonExplorers_Texture_01_Cameron-_file384",
			"uri":"PolygonExplorers_Texture_01_Cameron-_file384.webp"
		}
	],
	"accessors":[
		{
			"bufferView":0,
			"componentType":5126,
			"count":2163,
			"max":[
				53.549102783203125,
				53.5491943359375,
				0
			],
			"min":[
				-53.54914855957031,
				-53.54881286621094,
				-111.07845306396484
			],
			"type":"VEC3"
		},
		{
			"bufferView":1,
			"componentType":5126,
			"count":2163,
			"type":"VEC3"
		},
		{
			"bufferView":2,
			"componentType":5126,
			"count":2163,
			"type":"VEC2"
		},
		{
			"bufferView":3,
			"componentType":5126,
			"count":2163,
			"type":"VEC2"
		},
		{
			"bufferView":4,
			"componentType":5123,
			"count":3633,
			"type":"SCALAR"
		}
	],
	"bufferViews":[
		{
			"buffer":0,
			"byteLength":25956,
			"byteOffset":0,
			"target":34962
		},
		{
			"buffer":0,
			"byteLength":25956,
			"byteOffset":25956,
			"target":34962
		},
		{
			"buffer":0,
			"byteLength":17304,
			"byteOffset":51912,
			"target":34962
		},
		{
			"buffer":0,
			"byteLength":17304,
			"byteOffset":69216,
			"target":34962
		},
		{
			"buffer":0,
			"byteLength":7266,
			"byteOffset":86520,
			"target":34963
		}
	],
	"samplers":[
		{
			"magFilter":9729,
			"minFilter":9987
		}
	],
	"buffers":[
		{
			"byteLength":93788,
			"uri":"swamp_SM_Prop_Crate_01.bin"
		}
	]
}
