{
	"asset":{
		"generator":"Khronos glTF Blender I/O v4.4.55",
		"version":"2.0"
	},
	"extensionsUsed":[
		"EXT_texture_webp"
	],
	"extensionsRequired":[
		"EXT_texture_webp"
	],
	"scene":0,
	"scenes":[
		{
			"name":"Scene",
			"nodes":[
				3
			]
		}
	],
	"nodes":[
		{
			"mesh":0,
			"name":"SM_Env_SwampGrass_Group_03_LOD0"
		},
		{
			"mesh":1,
			"name":"SM_Env_SwampGrass_Group_03_LOD1"
		},
		{
			"mesh":2,
			"name":"SM_Env_SwampGrass_Group_03_LOD2"
		},
		{
			"children":[
				0,
				1,
				2
			],
			"name":"SM_Env_SwampGrass_Group_03",
			"rotation":[
				0.7071068286895752,
				0,
				0,
				0.7071068286895752
			],
			"scale":[
				0.009999999776482582,
				0.009999999776482582,
				0.009999999776482582
			]
		}
	],
	"materials":[
		{
			"doubleSided":true,
			"name":"Nature13",
			"pbrMetallicRoughness":{
				"baseColorTexture":{
					"index":0
				},
				"metallicFactor":0
			}
		},
		{
			"alphaMode":"BLEND",
			"doubleSided":true,
			"name":"SwampGrass2",
			"pbrMetallicRoughness":{
				"baseColorTexture":{
					"index":1
				},
				"metallicFactor":0
			}
		}
	],
	"meshes":[
		{
			"name":"Mesh",
			"primitives":[
				{
					"attributes":{
						"POSITION":0,
						"NORMAL":1,
						"TEXCOORD_0":2,
						"COLOR_0":3,
						"COLOR_1":4
					},
					"indices":5,
					"material":0
				}
			]
		},
		{
			"name":"Mesh.001",
			"primitives":[
				{
					"attributes":{
						"POSITION":6,
						"NORMAL":7,
						"TEXCOORD_0":8,
						"COLOR_0":9,
						"COLOR_1":10
					},
					"indices":11,
					"material":1
				}
			]
		},
		{
			"name":"Mesh.002",
			"primitives":[
				{
					"attributes":{
						"POSITION":12,
						"NORMAL":13,
						"TEXCOORD_0":14,
						"COLOR_0":15,
						"COLOR_1":16
					},
					"indices":17,
					"material":1
				}
			]
		}
	],
	"textures":[
		{
			"extensions":{
				"EXT_texture_webp":{
					"source":0
				}
			},
			"sampler":0
		},
		{
			"extensions":{
				"EXT_texture_webp":{
					"source":1
				}
			},
			"sampler":0
		}
	],
	"images":[
		{
			"mimeType":"image/webp",
			"name":"PolygonNatureBiomes_Swamp_Texture_01",
			"uri":"PolygonNatureBiomes_Swamp_Texture_01.webp"
		},
		{
			"mimeType":"image/webp",
			"name":"SwampGrass_01",
			"uri":"SwampGrass_01.webp"
		}
	],
	"accessors":[
		{
			"bufferView":0,
			"componentType":5126,
			"count":4860,
			"max":[
				188.975341796875,
				198.155029296875,
				2.6036429405212402
			],
			"min":[
				-183.9207763671875,
				-221.094482421875,
				-458.1540832519531
			],
			"type":"VEC3"
		},
		{
			"bufferView":1,
			"componentType":5126,
			"count":4860,
			"type":"VEC3"
		},
		{
			"bufferView":2,
			"componentType":5126,
			"count":4860,
			"type":"VEC2"
		},
		{
			"bufferView":3,
			"componentType":5121,
			"count":4860,
			"normalized":true,
			"type":"VEC4"
		},
		{
			"bufferView":4,
			"componentType":5123,
			"count":4860,
			"normalized":true,
			"type":"VEC4"
		},
		{
			"bufferView":5,
			"componentType":5123,
			"count":6804,
			"type":"SCALAR"
		},
		{
			"bufferView":6,
			"componentType":5126,
			"count":180,
			"max":[
				192.17041015625,
				212.428466796875,
				4.547473508864641e-13
			],
			"min":[
				-190.30810546875,
				-204.201904296875,
				-458.5798034667969
			],
			"type":"VEC3"
		},
		{
			"bufferView":7,
			"componentType":5126,
			"count":180,
			"type":"VEC3"
		},
		{
			"bufferView":8,
			"componentType":5126,
			"count":180,
			"type":"VEC2"
		},
		{
			"bufferView":9,
			"componentType":5121,
			"count":180,
			"normalized":true,
			"type":"VEC4"
		},
		{
			"bufferView":10,
			"componentType":5123,
			"count":180,
			"normalized":true,
			"type":"VEC4"
		},
		{
			"bufferView":11,
			"componentType":5123,
			"count":576,
			"type":"SCALAR"
		},
		{
			"bufferView":12,
			"componentType":5126,
			"count":48,
			"max":[
				190.2259521484375,
				211.323974609375,
				4.547473508864641e-13
			],
			"min":[
				-187.3349609375,
				-201.14013671875,
				-458.5798034667969
			],
			"type":"VEC3"
		},
		{
			"bufferView":13,
			"componentType":5126,
			"count":48,
			"type":"VEC3"
		},
		{
			"bufferView":14,
			"componentType":5126,
			"count":48,
			"type":"VEC2"
		},
		{
			"bufferView":15,
			"componentType":5121,
			"count":48,
			"normalized":true,
			"type":"VEC4"
		},
		{
			"bufferView":16,
			"componentType":5123,
			"count":48,
			"normalized":true,
			"type":"VEC4"
		},
		{
			"bufferView":17,
			"componentType":5123,
			"count":72,
			"type":"SCALAR"
		}
	],
	"bufferViews":[
		{
			"buffer":0,
			"byteLength":58320,
			"byteOffset":0,
			"target":34962
		},
		{
			"buffer":0,
			"byteLength":58320,
			"byteOffset":58320,
			"target":34962
		},
		{
			"buffer":0,
			"byteLength":38880,
			"byteOffset":116640,
			"target":34962
		},
		{
			"buffer":0,
			"byteLength":19440,
			"byteOffset":155520,
			"target":34962
		},
		{
			"buffer":0,
			"byteLength":38880,
			"byteOffset":174960,
			"target":34962
		},
		{
			"buffer":0,
			"byteLength":13608,
			"byteOffset":213840,
			"target":34963
		},
		{
			"buffer":0,
			"byteLength":2160,
			"byteOffset":227448,
			"target":34962
		},
		{
			"buffer":0,
			"byteLength":2160,
			"byteOffset":229608,
			"target":34962
		},
		{
			"buffer":0,
			"byteLength":1440,
			"byteOffset":231768,
			"target":34962
		},
		{
			"buffer":0,
			"byteLength":720,
			"byteOffset":233208,
			"target":34962
		},
		{
			"buffer":0,
			"byteLength":1440,
			"byteOffset":233928,
			"target":34962
		},
		{
			"buffer":0,
			"byteLength":1152,
			"byteOffset":235368,
			"target":34963
		},
		{
			"buffer":0,
			"byteLength":576,
			"byteOffset":236520,
			"target":34962
		},
		{
			"buffer":0,
			"byteLength":576,
			"byteOffset":237096,
			"target":34962
		},
		{
			"buffer":0,
			"byteLength":384,
			"byteOffset":237672,
			"target":34962
		},
		{
			"buffer":0,
			"byteLength":192,
			"byteOffset":238056,
			"target":34962
		},
		{
			"buffer":0,
			"byteLength":384,
			"byteOffset":238248,
			"target":34962
		},
		{
			"buffer":0,
			"byteLength":144,
			"byteOffset":238632,
			"target":34963
		}
	],
	"samplers":[
		{
			"magFilter":9729,
			"minFilter":9987
		}
	],
	"buffers":[
		{
			"byteLength":238776,
			"uri":"swamp_SM_Env_SwampGrass_Group_03.bin"
		}
	]
}
