{
	"asset":{
		"generator":"Khronos glTF Blender I/O v4.4.55",
		"version":"2.0"
	},
	"extensionsUsed":[
		"EXT_texture_webp"
	],
	"extensionsRequired":[
		"EXT_texture_webp"
	],
	"scene":0,
	"scenes":[
		{
			"name":"Scene",
			"nodes":[
				7
			]
		}
	],
	"nodes":[
		{
			"mesh":0,
			"name":"SM_Env_Tree_Swamp_01_LOD0"
		},
		{
			"mesh":1,
			"name":"SM_Env_Tree_Swamp_01_LOD1"
		},
		{
			"mesh":2,
			"name":"SM_Env_Tree_Swamp_01_LOD2"
		},
		{
			"mesh":3,
			"name":"SM_Env_Tree_Swamp_01_LOD3"
		},
		{
			"mesh":4,
			"name":"SM_Env_Tree_Swamp_01_MOSS_LOD0"
		},
		{
			"mesh":5,
			"name":"SM_Env_Tree_Swamp_01_MOSS_LOD1"
		},
		{
			"mesh":6,
			"name":"SM_Env_Tree_Swamp_01_MOSS_LOD2"
		},
		{
			"children":[
				0,
				1,
				2,
				3,
				4,
				5,
				6
			],
			"name":"SM_Env_Tree_Swamp_01",
			"rotation":[
				0.7071068286895752,
				0,
				0,
				0.7071068286895752
			],
			"scale":[
				0.009999999776482582,
				0.009999999776482582,
				0.009999999776482582
			]
		}
	],
	"materials":[
		{
			"doubleSided":true,
			"name":"trunk3",
			"pbrMetallicRoughness":{
				"baseColorTexture":{
					"index":0
				},
				"metallicFactor":0
			}
		},
		{
			"alphaMode":"BLEND",
			"doubleSided":true,
			"name":"CardSHD1",
			"pbrMetallicRoughness":{
				"baseColorTexture":{
					"index":1
				},
				"metallicFactor":0
			}
		},
		{
			"doubleSided":true,
			"name":"trunk4",
			"pbrMetallicRoughness":{
				"baseColorTexture":{
					"index":2
				},
				"metallicFactor":0
			}
		}
	],
	"meshes":[
		{
			"name":"Mesh",
			"primitives":[
				{
					"attributes":{
						"POSITION":0,
						"NORMAL":1,
						"TEXCOORD_0":2,
						"COLOR_0":3,
						"COLOR_1":4
					},
					"indices":5,
					"material":0
				}
			]
		},
		{
			"name":"Mesh.001",
			"primitives":[
				{
					"attributes":{
						"POSITION":6,
						"NORMAL":7,
						"TEXCOORD_0":8,
						"COLOR_0":9,
						"COLOR_1":10
					},
					"indices":11,
					"material":0
				}
			]
		},
		{
			"name":"Mesh.002",
			"primitives":[
				{
					"attributes":{
						"POSITION":12,
						"NORMAL":13,
						"TEXCOORD_0":14,
						"COLOR_0":15,
						"COLOR_1":16
					},
					"indices":17,
					"material":0
				}
			]
		},
		{
			"name":"Mesh.003",
			"primitives":[
				{
					"attributes":{
						"POSITION":18,
						"NORMAL":19,
						"TEXCOORD_0":20,
						"COLOR_0":21,
						"COLOR_1":22
					},
					"indices":23,
					"material":1
				}
			]
		},
		{
			"name":"Mesh.004",
			"primitives":[
				{
					"attributes":{
						"POSITION":24,
						"NORMAL":25,
						"TEXCOORD_0":26,
						"COLOR_0":27,
						"COLOR_1":28
					},
					"indices":29,
					"material":2
				}
			]
		},
		{
			"name":"Mesh.005",
			"primitives":[
				{
					"attributes":{
						"POSITION":30,
						"NORMAL":31,
						"TEXCOORD_0":32,
						"COLOR_0":33,
						"COLOR_1":34
					},
					"indices":35,
					"material":2
				}
			]
		},
		{
			"name":"Mesh.006",
			"primitives":[
				{
					"attributes":{
						"POSITION":36,
						"NORMAL":37,
						"TEXCOORD_0":38,
						"COLOR_0":39,
						"COLOR_1":40
					},
					"indices":41,
					"material":2
				}
			]
		}
	],
	"textures":[
		{
			"extensions":{
				"EXT_texture_webp":{
					"source":0
				}
			},
			"sampler":0
		},
		{
			"extensions":{
				"EXT_texture_webp":{
					"source":1
				}
			},
			"sampler":0
		},
		{
			"extensions":{
				"EXT_texture_webp":{
					"source":0
				}
			},
			"sampler":0
		}
	],
	"images":[
		{
			"mimeType":"image/webp",
			"name":"PolygonNatureBiomes_Swamp_Texture_01",
			"uri":"PolygonNatureBiomes_Swamp_Texture_01.webp"
		},
		{
			"mimeType":"image/webp",
			"name":"treeSwamp_01",
			"uri":"treeSwamp_01.webp"
		}
	],
	"accessors":[
		{
			"bufferView":0,
			"componentType":5126,
			"count":60917,
			"max":[
				557.7391357421875,
				437.41705322265625,
				359.84368896484375
			],
			"min":[
				-460.73895263671875,
				-518.9385986328125,
				-2079.20654296875
			],
			"type":"VEC3"
		},
		{
			"bufferView":1,
			"componentType":5126,
			"count":60917,
			"type":"VEC3"
		},
		{
			"bufferView":2,
			"componentType":5126,
			"count":60917,
			"type":"VEC2"
		},
		{
			"bufferView":3,
			"componentType":5121,
			"count":60917,
			"normalized":true,
			"type":"VEC4"
		},
		{
			"bufferView":4,
			"componentType":5123,
			"count":60917,
			"normalized":true,
			"type":"VEC4"
		},
		{
			"bufferView":5,
			"componentType":5123,
			"count":90849,
			"type":"SCALAR"
		},
		{
			"bufferView":6,
			"componentType":5126,
			"count":32473,
			"max":[
				556.62109375,
				437.3666687011719,
				354.3924560546875
			],
			"min":[
				-460.850830078125,
				-516.7908935546875,
				-2069.5537109375
			],
			"type":"VEC3"
		},
		{
			"bufferView":7,
			"componentType":5126,
			"count":32473,
			"type":"VEC3"
		},
		{
			"bufferView":8,
			"componentType":5126,
			"count":32473,
			"type":"VEC2"
		},
		{
			"bufferView":9,
			"componentType":5121,
			"count":32473,
			"normalized":true,
			"type":"VEC4"
		},
		{
			"bufferView":10,
			"componentType":5123,
			"count":32473,
			"normalized":true,
			"type":"VEC4"
		},
		{
			"bufferView":11,
			"componentType":5123,
			"count":47841,
			"type":"SCALAR"
		},
		{
			"bufferView":12,
			"componentType":5126,
			"count":16746,
			"max":[
				567.0089721679688,
				432.180419921875,
				351.5906677246094
			],
			"min":[
				-473.8936767578125,
				-525.6924438476562,
				-2051.763427734375
			],
			"type":"VEC3"
		},
		{
			"bufferView":13,
			"componentType":5126,
			"count":16746,
			"type":"VEC3"
		},
		{
			"bufferView":14,
			"componentType":5126,
			"count":16746,
			"type":"VEC2"
		},
		{
			"bufferView":15,
			"componentType":5121,
			"count":16746,
			"normalized":true,
			"type":"VEC4"
		},
		{
			"bufferView":16,
			"componentType":5123,
			"count":16746,
			"normalized":true,
			"type":"VEC4"
		},
		{
			"bufferView":17,
			"componentType":5123,
			"count":24387,
			"type":"SCALAR"
		},
		{
			"bufferView":18,
			"componentType":5126,
			"count":20,
			"max":[
				596.2276000976562,
				414.5266418457031,
				220.20648193359375
			],
			"min":[
				-500.4962463378906,
				-543.8336181640625,
				-2118.806396484375
			],
			"type":"VEC3"
		},
		{
			"bufferView":19,
			"componentType":5126,
			"count":20,
			"type":"VEC3"
		},
		{
			"bufferView":20,
			"componentType":5126,
			"count":20,
			"type":"VEC2"
		},
		{
			"bufferView":21,
			"componentType":5121,
			"count":20,
			"normalized":true,
			"type":"VEC4"
		},
		{
			"bufferView":22,
			"componentType":5123,
			"count":20,
			"normalized":true,
			"type":"VEC4"
		},
		{
			"bufferView":23,
			"componentType":5123,
			"count":36,
			"type":"SCALAR"
		},
		{
			"bufferView":24,
			"componentType":5126,
			"count":477,
			"max":[
				385.0328063964844,
				241.29583740234375,
				-254.16683959960938
			],
			"min":[
				-233.28067016601562,
				-326.646240234375,
				-1779.1527099609375
			],
			"type":"VEC3"
		},
		{
			"bufferView":25,
			"componentType":5126,
			"count":477,
			"type":"VEC3"
		},
		{
			"bufferView":26,
			"componentType":5126,
			"count":477,
			"type":"VEC2"
		},
		{
			"bufferView":27,
			"componentType":5121,
			"count":477,
			"normalized":true,
			"type":"VEC4"
		},
		{
			"bufferView":28,
			"componentType":5123,
			"count":477,
			"normalized":true,
			"type":"VEC4"
		},
		{
			"bufferView":29,
			"componentType":5123,
			"count":1038,
			"type":"SCALAR"
		},
		{
			"bufferView":30,
			"componentType":5126,
			"count":396,
			"max":[
				384.9251708984375,
				240.98390197753906,
				-254.16683959960938
			],
			"min":[
				-233.3883056640625,
				-326.9580993652344,
				-1779.1527099609375
			],
			"type":"VEC3"
		},
		{
			"bufferView":31,
			"componentType":5126,
			"count":396,
			"type":"VEC3"
		},
		{
			"bufferView":32,
			"componentType":5126,
			"count":396,
			"type":"VEC2"
		},
		{
			"bufferView":33,
			"componentType":5121,
			"count":396,
			"normalized":true,
			"type":"VEC4"
		},
		{
			"bufferView":34,
			"componentType":5123,
			"count":396,
			"normalized":true,
			"type":"VEC4"
		},
		{
			"bufferView":35,
			"componentType":5123,
			"count":798,
			"type":"SCALAR"
		},
		{
			"bufferView":36,
			"componentType":5126,
			"count":178,
			"max":[
				385.0328063964844,
				241.29580688476562,
				-254.16683959960938
			],
			"min":[
				-233.28067016601562,
				-326.64617919921875,
				-1779.1527099609375
			],
			"type":"VEC3"
		},
		{
			"bufferView":37,
			"componentType":5126,
			"count":178,
			"type":"VEC3"
		},
		{
			"bufferView":38,
			"componentType":5126,
			"count":178,
			"type":"VEC2"
		},
		{
			"bufferView":39,
			"componentType":5121,
			"count":178,
			"normalized":true,
			"type":"VEC4"
		},
		{
			"bufferView":40,
			"componentType":5123,
			"count":178,
			"normalized":true,
			"type":"VEC4"
		},
		{
			"bufferView":41,
			"componentType":5123,
			"count":294,
			"type":"SCALAR"
		}
	],
	"bufferViews":[
		{
			"buffer":0,
			"byteLength":731004,
			"byteOffset":0,
			"target":34962
		},
		{
			"buffer":0,
			"byteLength":731004,
			"byteOffset":731004,
			"target":34962
		},
		{
			"buffer":0,
			"byteLength":487336,
			"byteOffset":1462008,
			"target":34962
		},
		{
			"buffer":0,
			"byteLength":243668,
			"byteOffset":1949344,
			"target":34962
		},
		{
			"buffer":0,
			"byteLength":487336,
			"byteOffset":2193012,
			"target":34962
		},
		{
			"buffer":0,
			"byteLength":181698,
			"byteOffset":2680348,
			"target":34963
		},
		{
			"buffer":0,
			"byteLength":389676,
			"byteOffset":2862048,
			"target":34962
		},
		{
			"buffer":0,
			"byteLength":389676,
			"byteOffset":3251724,
			"target":34962
		},
		{
			"buffer":0,
			"byteLength":259784,
			"byteOffset":3641400,
			"target":34962
		},
		{
			"buffer":0,
			"byteLength":129892,
			"byteOffset":3901184,
			"target":34962
		},
		{
			"buffer":0,
			"byteLength":259784,
			"byteOffset":4031076,
			"target":34962
		},
		{
			"buffer":0,
			"byteLength":95682,
			"byteOffset":4290860,
			"target":34963
		},
		{
			"buffer":0,
			"byteLength":200952,
			"byteOffset":4386544,
			"target":34962
		},
		{
			"buffer":0,
			"byteLength":200952,
			"byteOffset":4587496,
			"target":34962
		},
		{
			"buffer":0,
			"byteLength":133968,
			"byteOffset":4788448,
			"target":34962
		},
		{
			"buffer":0,
			"byteLength":66984,
			"byteOffset":4922416,
			"target":34962
		},
		{
			"buffer":0,
			"byteLength":133968,
			"byteOffset":4989400,
			"target":34962
		},
		{
			"buffer":0,
			"byteLength":48774,
			"byteOffset":5123368,
			"target":34963
		},
		{
			"buffer":0,
			"byteLength":240,
			"byteOffset":5172144,
			"target":34962
		},
		{
			"buffer":0,
			"byteLength":240,
			"byteOffset":5172384,
			"target":34962
		},
		{
			"buffer":0,
			"byteLength":160,
			"byteOffset":5172624,
			"target":34962
		},
		{
			"buffer":0,
			"byteLength":80,
			"byteOffset":5172784,
			"target":34962
		},
		{
			"buffer":0,
			"byteLength":160,
			"byteOffset":5172864,
			"target":34962
		},
		{
			"buffer":0,
			"byteLength":72,
			"byteOffset":5173024,
			"target":34963
		},
		{
			"buffer":0,
			"byteLength":5724,
			"byteOffset":5173096,
			"target":34962
		},
		{
			"buffer":0,
			"byteLength":5724,
			"byteOffset":5178820,
			"target":34962
		},
		{
			"buffer":0,
			"byteLength":3816,
			"byteOffset":5184544,
			"target":34962
		},
		{
			"buffer":0,
			"byteLength":1908,
			"byteOffset":5188360,
			"target":34962
		},
		{
			"buffer":0,
			"byteLength":3816,
			"byteOffset":5190268,
			"target":34962
		},
		{
			"buffer":0,
			"byteLength":2076,
			"byteOffset":5194084,
			"target":34963
		},
		{
			"buffer":0,
			"byteLength":4752,
			"byteOffset":5196160,
			"target":34962
		},
		{
			"buffer":0,
			"byteLength":4752,
			"byteOffset":5200912,
			"target":34962
		},
		{
			"buffer":0,
			"byteLength":3168,
			"byteOffset":5205664,
			"target":34962
		},
		{
			"buffer":0,
			"byteLength":1584,
			"byteOffset":5208832,
			"target":34962
		},
		{
			"buffer":0,
			"byteLength":3168,
			"byteOffset":5210416,
			"target":34962
		},
		{
			"buffer":0,
			"byteLength":1596,
			"byteOffset":5213584,
			"target":34963
		},
		{
			"buffer":0,
			"byteLength":2136,
			"byteOffset":5215180,
			"target":34962
		},
		{
			"buffer":0,
			"byteLength":2136,
			"byteOffset":5217316,
			"target":34962
		},
		{
			"buffer":0,
			"byteLength":1424,
			"byteOffset":5219452,
			"target":34962
		},
		{
			"buffer":0,
			"byteLength":712,
			"byteOffset":5220876,
			"target":34962
		},
		{
			"buffer":0,
			"byteLength":1424,
			"byteOffset":5221588,
			"target":34962
		},
		{
			"buffer":0,
			"byteLength":588,
			"byteOffset":5223012,
			"target":34963
		}
	],
	"samplers":[
		{
			"magFilter":9729,
			"minFilter":9987
		}
	],
	"buffers":[
		{
			"byteLength":5223600,
			"uri":"swamp_SM_Env_Tree_Swamp_01.bin"
		}
	]
}
