{
	"asset":{
		"generator":"Khronos glTF Blender I/O v4.4.55",
		"version":"2.0"
	},
	"scene":0,
	"scenes":[
		{
			"name":"Scene",
			"nodes":[
				0
			]
		}
	],
	"nodes":[
		{
			"mesh":0,
			"name":"SM_Prop_Bone_01",
			"rotation":[
				0.7071068286895752,
				0,
				0,
				0.7071068286895752
			],
			"scale":[
				0.009999999776482582,
				0.009999999776482582,
				0.009999999776482582
			]
		}
	],
	"materials":[
		{
			"doubleSided":true,
			"name":"PCD1",
			"pbrMetallicRoughness":{
				"metallicFactor":0
			}
		}
	],
	"meshes":[
		{
			"name":"Mesh",
			"primitives":[
				{
					"attributes":{
						"POSITION":0,
						"NORMAL":1,
						"TEXCOORD_0":2
					},
					"indices":3,
					"material":0
				}
			]
		}
	],
	"accessors":[
		{
			"bufferView":0,
			"componentType":5126,
			"count":161,
			"max":[
				15.56390380859375,
				27.564453125,
				3.785980224609375
			],
			"min":[
				-15.56390380859375,
				-27.5634765625,
				-8.019996643066406
			],
			"type":"VEC3"
		},
		{
			"bufferView":1,
			"componentType":5126,
			"count":161,
			"type":"VEC3"
		},
		{
			"bufferView":2,
			"componentType":5126,
			"count":161,
			"type":"VEC2"
		},
		{
			"bufferView":3,
			"componentType":5123,
			"count":282,
			"type":"SCALAR"
		}
	],
	"bufferViews":[
		{
			"buffer":0,
			"byteLength":1932,
			"byteOffset":0,
			"target":34962
		},
		{
			"buffer":0,
			"byteLength":1932,
			"byteOffset":1932,
			"target":34962
		},
		{
			"buffer":0,
			"byteLength":1288,
			"byteOffset":3864,
			"target":34962
		},
		{
			"buffer":0,
			"byteLength":564,
			"byteOffset":5152,
			"target":34963
		}
	],
	"buffers":[
		{
			"byteLength":5716,
			"uri":"swamp_SM_Prop_Bone_01.bin"
		}
	]
}
