{
	"asset":{
		"generator":"Khronos glTF Blender I/O v4.4.55",
		"version":"2.0"
	},
	"extensionsUsed":[
		"EXT_texture_webp"
	],
	"extensionsRequired":[
		"EXT_texture_webp"
	],
	"scene":0,
	"scenes":[
		{
			"name":"Scene",
			"nodes":[
				0
			]
		}
	],
	"nodes":[
		{
			"mesh":0,
			"name":"SM_Prop_Sewerpipe_Slime_01",
			"rotation":[
				0.7071068286895752,
				0,
				0,
				0.7071068286895752
			],
			"scale":[
				0.009999999776482582,
				0.009999999776482582,
				0.009999999776482582
			]
		}
	],
	"materials":[
		{
			"doubleSided":true,
			"name":"Nature_Base_Mat17",
			"pbrMetallicRoughness":{
				"baseColorTexture":{
					"index":0
				},
				"metallicFactor":0
			}
		}
	],
	"meshes":[
		{
			"name":"Mesh",
			"primitives":[
				{
					"attributes":{
						"POSITION":0,
						"NORMAL":1,
						"TEXCOORD_0":2
					},
					"indices":3,
					"material":0
				}
			]
		}
	],
	"textures":[
		{
			"extensions":{
				"EXT_texture_webp":{
					"source":0
				}
			},
			"sampler":0
		}
	],
	"images":[
		{
			"mimeType":"image/webp",
			"name":"PolygonNatureBiomes_Swamp_Texture_01",
			"uri":"PolygonNatureBiomes_Swamp_Texture_01.webp"
		}
	],
	"accessors":[
		{
			"bufferView":0,
			"componentType":5126,
			"count":291,
			"max":[
				11.356903076171875,
				154.56158447265625,
				53.331092834472656
			],
			"min":[
				-6.140869140625,
				-0.899139404296875,
				-8.150543212890625
			],
			"type":"VEC3"
		},
		{
			"bufferView":1,
			"componentType":5126,
			"count":291,
			"type":"VEC3"
		},
		{
			"bufferView":2,
			"componentType":5126,
			"count":291,
			"type":"VEC2"
		},
		{
			"bufferView":3,
			"componentType":5123,
			"count":351,
			"type":"SCALAR"
		}
	],
	"bufferViews":[
		{
			"buffer":0,
			"byteLength":3492,
			"byteOffset":0,
			"target":34962
		},
		{
			"buffer":0,
			"byteLength":3492,
			"byteOffset":3492,
			"target":34962
		},
		{
			"buffer":0,
			"byteLength":2328,
			"byteOffset":6984,
			"target":34962
		},
		{
			"buffer":0,
			"byteLength":702,
			"byteOffset":9312,
			"target":34963
		}
	],
	"samplers":[
		{
			"magFilter":9729,
			"minFilter":9987
		}
	],
	"buffers":[
		{
			"byteLength":10016,
			"uri":"swamp_SM_Prop_Sewerpipe_Slime_01.bin"
		}
	]
}
