{
	"asset":{
		"generator":"Khronos glTF Blender I/O v4.4.55",
		"version":"2.0"
	},
	"extensionsUsed":[
		"EXT_texture_webp"
	],
	"extensionsRequired":[
		"EXT_texture_webp"
	],
	"scene":0,
	"scenes":[
		{
			"name":"Scene",
			"nodes":[
				0
			]
		}
	],
	"nodes":[
		{
			"mesh":0,
			"name":"SM_Env_Swamp_Tree_Root_Preset_01",
			"rotation":[
				0.7071068286895752,
				0,
				0,
				0.7071068286895752
			],
			"scale":[
				0.009999999776482582,
				0.009999999776482582,
				0.009999999776482582
			],
			"translation":[
				-0.2047564685344696,
				-0.3350513279438019,
				0.24264220893383026
			]
		}
	],
	"materials":[
		{
			"doubleSided":true,
			"name":"Nature9",
			"pbrMetallicRoughness":{
				"baseColorTexture":{
					"index":0
				},
				"metallicFactor":0
			}
		}
	],
	"meshes":[
		{
			"name":"Mesh",
			"primitives":[
				{
					"attributes":{
						"POSITION":0,
						"NORMAL":1,
						"TEXCOORD_0":2
					},
					"indices":3,
					"material":0
				}
			]
		}
	],
	"textures":[
		{
			"extensions":{
				"EXT_texture_webp":{
					"source":0
				}
			},
			"sampler":0
		}
	],
	"images":[
		{
			"mimeType":"image/webp",
			"name":"PolygonNatureBiomes_Swamp_Texture_01",
			"uri":"PolygonNatureBiomes_Swamp_Texture_01.webp"
		}
	],
	"accessors":[
		{
			"bufferView":0,
			"componentType":5126,
			"count":2390,
			"max":[
				347.97998046875,
				308.3342590332031,
				159.40069580078125
			],
			"min":[
				-307.0286865234375,
				-356.8627014160156,
				-226.40786743164062
			],
			"type":"VEC3"
		},
		{
			"bufferView":1,
			"componentType":5126,
			"count":2390,
			"type":"VEC3"
		},
		{
			"bufferView":2,
			"componentType":5126,
			"count":2390,
			"type":"VEC2"
		},
		{
			"bufferView":3,
			"componentType":5123,
			"count":3432,
			"type":"SCALAR"
		}
	],
	"bufferViews":[
		{
			"buffer":0,
			"byteLength":28680,
			"byteOffset":0,
			"target":34962
		},
		{
			"buffer":0,
			"byteLength":28680,
			"byteOffset":28680,
			"target":34962
		},
		{
			"buffer":0,
			"byteLength":19120,
			"byteOffset":57360,
			"target":34962
		},
		{
			"buffer":0,
			"byteLength":6864,
			"byteOffset":76480,
			"target":34963
		}
	],
	"samplers":[
		{
			"magFilter":9729,
			"minFilter":9987
		}
	],
	"buffers":[
		{
			"byteLength":83344,
			"uri":"swamp_SM_Env_Swamp_Tree_Root_Preset_01.bin"
		}
	]
}
