{
	"asset":{
		"generator":"Khronos glTF Blender I/O v4.4.55",
		"version":"2.0"
	},
	"scene":0,
	"scenes":[
		{
			"name":"Scene",
			"nodes":[
				7
			]
		}
	],
	"nodes":[
		{
			"mesh":0,
			"name":"SM_Env_Tree_Swamp_02_LOD0"
		},
		{
			"mesh":1,
			"name":"SM_Env_Tree_Swamp_02_LOD1"
		},
		{
			"mesh":2,
			"name":"SM_Env_Tree_Swamp_02_LOD2"
		},
		{
			"mesh":3,
			"name":"SM_Env_Tree_Swamp_02_LOD3"
		},
		{
			"mesh":4,
			"name":"SM_Env_Tree_Swamp_02_Moss_LOD0"
		},
		{
			"mesh":5,
			"name":"SM_Env_Tree_Swamp_02_Moss_LOD1"
		},
		{
			"mesh":6,
			"name":"SM_Env_Tree_Swamp_02_Moss_LOD2"
		},
		{
			"children":[
				0,
				1,
				2,
				3,
				4,
				5,
				6
			],
			"name":"SM_Env_Tree_Swamp_02",
			"rotation":[
				0.7071068286895752,
				0,
				0,
				0.7071068286895752
			],
			"scale":[
				0.009999999776482582,
				0.009999999776482582,
				0.009999999776482582
			]
		}
	],
	"materials":[
		{
			"doubleSided":true,
			"name":"trunk6",
			"pbrMetallicRoughness":{
				"metallicFactor":0
			}
		}
	],
	"meshes":[
		{
			"name":"Mesh.003",
			"primitives":[
				{
					"attributes":{
						"POSITION":0,
						"NORMAL":1,
						"TEXCOORD_0":2,
						"COLOR_0":3,
						"COLOR_1":4
					},
					"indices":5,
					"material":0
				}
			]
		},
		{
			"name":"Mesh.004",
			"primitives":[
				{
					"attributes":{
						"POSITION":6,
						"NORMAL":7,
						"TEXCOORD_0":8,
						"COLOR_0":9,
						"COLOR_1":10
					},
					"indices":11,
					"material":0
				}
			]
		},
		{
			"name":"Mesh.005",
			"primitives":[
				{
					"attributes":{
						"POSITION":12,
						"NORMAL":13,
						"TEXCOORD_0":14,
						"COLOR_0":15,
						"COLOR_1":16
					},
					"indices":17,
					"material":0
				}
			]
		},
		{
			"name":"Mesh.006",
			"primitives":[
				{
					"attributes":{
						"POSITION":18,
						"NORMAL":19,
						"TEXCOORD_0":20,
						"COLOR_0":21,
						"COLOR_1":22
					},
					"indices":23,
					"material":0
				}
			]
		},
		{
			"name":"Mesh",
			"primitives":[
				{
					"attributes":{
						"POSITION":24,
						"NORMAL":25,
						"TEXCOORD_0":26,
						"COLOR_0":27,
						"COLOR_1":28
					},
					"indices":29,
					"material":0
				}
			]
		},
		{
			"name":"Mesh.001",
			"primitives":[
				{
					"attributes":{
						"POSITION":30,
						"NORMAL":31,
						"TEXCOORD_0":32,
						"COLOR_0":33,
						"COLOR_1":34
					},
					"indices":35,
					"material":0
				}
			]
		},
		{
			"name":"Mesh.002",
			"primitives":[
				{
					"attributes":{
						"POSITION":36,
						"NORMAL":37,
						"TEXCOORD_0":38,
						"COLOR_0":39,
						"COLOR_1":40
					},
					"indices":41,
					"material":0
				}
			]
		}
	],
	"accessors":[
		{
			"bufferView":0,
			"componentType":5126,
			"count":57115,
			"max":[
				511.1015625,
				445.6400146484375,
				132.2542724609375
			],
			"min":[
				-454.35186767578125,
				-501.5066223144531,
				-1528.257568359375
			],
			"type":"VEC3"
		},
		{
			"bufferView":1,
			"componentType":5126,
			"count":57115,
			"type":"VEC3"
		},
		{
			"bufferView":2,
			"componentType":5126,
			"count":57115,
			"type":"VEC2"
		},
		{
			"bufferView":3,
			"componentType":5121,
			"count":57115,
			"normalized":true,
			"type":"VEC4"
		},
		{
			"bufferView":4,
			"componentType":5123,
			"count":57115,
			"normalized":true,
			"type":"VEC4"
		},
		{
			"bufferView":5,
			"componentType":5123,
			"count":85296,
			"type":"SCALAR"
		},
		{
			"bufferView":6,
			"componentType":5126,
			"count":31233,
			"max":[
				519.7981567382812,
				452.037109375,
				132.2542724609375
			],
			"min":[
				-459.62786865234375,
				-506.8349304199219,
				-1533.78173828125
			],
			"type":"VEC3"
		},
		{
			"bufferView":7,
			"componentType":5126,
			"count":31233,
			"type":"VEC3"
		},
		{
			"bufferView":8,
			"componentType":5126,
			"count":31233,
			"type":"VEC2"
		},
		{
			"bufferView":9,
			"componentType":5121,
			"count":31233,
			"normalized":true,
			"type":"VEC4"
		},
		{
			"bufferView":10,
			"componentType":5123,
			"count":31233,
			"normalized":true,
			"type":"VEC4"
		},
		{
			"bufferView":11,
			"componentType":5123,
			"count":46020,
			"type":"SCALAR"
		},
		{
			"bufferView":12,
			"componentType":5126,
			"count":16547,
			"max":[
				521.1800537109375,
				454.26251220703125,
				128.0401611328125
			],
			"min":[
				-449.2854919433594,
				-504.5853576660156,
				-1531.7738037109375
			],
			"type":"VEC3"
		},
		{
			"bufferView":13,
			"componentType":5126,
			"count":16547,
			"type":"VEC3"
		},
		{
			"bufferView":14,
			"componentType":5126,
			"count":16547,
			"type":"VEC2"
		},
		{
			"bufferView":15,
			"componentType":5121,
			"count":16547,
			"normalized":true,
			"type":"VEC4"
		},
		{
			"bufferView":16,
			"componentType":5123,
			"count":16547,
			"normalized":true,
			"type":"VEC4"
		},
		{
			"bufferView":17,
			"componentType":5123,
			"count":23955,
			"type":"SCALAR"
		},
		{
			"bufferView":18,
			"componentType":5126,
			"count":20,
			"max":[
				543.6693115234375,
				465.28216552734375,
				167.80093383789062
			],
			"min":[
				-482.976806640625,
				-533.3324584960938,
				-1568.696044921875
			],
			"type":"VEC3"
		},
		{
			"bufferView":19,
			"componentType":5126,
			"count":20,
			"type":"VEC3"
		},
		{
			"bufferView":20,
			"componentType":5126,
			"count":20,
			"type":"VEC2"
		},
		{
			"bufferView":21,
			"componentType":5121,
			"count":20,
			"normalized":true,
			"type":"VEC4"
		},
		{
			"bufferView":22,
			"componentType":5123,
			"count":20,
			"normalized":true,
			"type":"VEC4"
		},
		{
			"bufferView":23,
			"componentType":5123,
			"count":36,
			"type":"SCALAR"
		},
		{
			"bufferView":24,
			"componentType":5126,
			"count":461,
			"max":[
				346.65966796875,
				200.89454650878906,
				-116.49272155761719
			],
			"min":[
				-230.86904907226562,
				-326.2376708984375,
				-1372.9971923828125
			],
			"type":"VEC3"
		},
		{
			"bufferView":25,
			"componentType":5126,
			"count":461,
			"type":"VEC3"
		},
		{
			"bufferView":26,
			"componentType":5126,
			"count":461,
			"type":"VEC2"
		},
		{
			"bufferView":27,
			"componentType":5121,
			"count":461,
			"normalized":true,
			"type":"VEC4"
		},
		{
			"bufferView":28,
			"componentType":5123,
			"count":461,
			"normalized":true,
			"type":"VEC4"
		},
		{
			"bufferView":29,
			"componentType":5123,
			"count":1008,
			"type":"SCALAR"
		},
		{
			"bufferView":30,
			"componentType":5126,
			"count":392,
			"max":[
				346.7450256347656,
				200.9225311279297,
				-116.49272155761719
			],
			"min":[
				-230.78369140625,
				-326.20965576171875,
				-1372.9971923828125
			],
			"type":"VEC3"
		},
		{
			"bufferView":31,
			"componentType":5126,
			"count":392,
			"type":"VEC3"
		},
		{
			"bufferView":32,
			"componentType":5126,
			"count":392,
			"type":"VEC2"
		},
		{
			"bufferView":33,
			"componentType":5121,
			"count":392,
			"normalized":true,
			"type":"VEC4"
		},
		{
			"bufferView":34,
			"componentType":5123,
			"count":392,
			"normalized":true,
			"type":"VEC4"
		},
		{
			"bufferView":35,
			"componentType":5123,
			"count":804,
			"type":"SCALAR"
		},
		{
			"bufferView":36,
			"componentType":5126,
			"count":191,
			"max":[
				346.65966796875,
				200.89450073242188,
				-116.49272155761719
			],
			"min":[
				-230.86904907226562,
				-326.2376403808594,
				-1372.9971923828125
			],
			"type":"VEC3"
		},
		{
			"bufferView":37,
			"componentType":5126,
			"count":191,
			"type":"VEC3"
		},
		{
			"bufferView":38,
			"componentType":5126,
			"count":191,
			"type":"VEC2"
		},
		{
			"bufferView":39,
			"componentType":5121,
			"count":191,
			"normalized":true,
			"type":"VEC4"
		},
		{
			"bufferView":40,
			"componentType":5123,
			"count":191,
			"normalized":true,
			"type":"VEC4"
		},
		{
			"bufferView":41,
			"componentType":5123,
			"count":312,
			"type":"SCALAR"
		}
	],
	"bufferViews":[
		{
			"buffer":0,
			"byteLength":685380,
			"byteOffset":0,
			"target":34962
		},
		{
			"buffer":0,
			"byteLength":685380,
			"byteOffset":685380,
			"target":34962
		},
		{
			"buffer":0,
			"byteLength":456920,
			"byteOffset":1370760,
			"target":34962
		},
		{
			"buffer":0,
			"byteLength":228460,
			"byteOffset":1827680,
			"target":34962
		},
		{
			"buffer":0,
			"byteLength":456920,
			"byteOffset":2056140,
			"target":34962
		},
		{
			"buffer":0,
			"byteLength":170592,
			"byteOffset":2513060,
			"target":34963
		},
		{
			"buffer":0,
			"byteLength":374796,
			"byteOffset":2683652,
			"target":34962
		},
		{
			"buffer":0,
			"byteLength":374796,
			"byteOffset":3058448,
			"target":34962
		},
		{
			"buffer":0,
			"byteLength":249864,
			"byteOffset":3433244,
			"target":34962
		},
		{
			"buffer":0,
			"byteLength":124932,
			"byteOffset":3683108,
			"target":34962
		},
		{
			"buffer":0,
			"byteLength":249864,
			"byteOffset":3808040,
			"target":34962
		},
		{
			"buffer":0,
			"byteLength":92040,
			"byteOffset":4057904,
			"target":34963
		},
		{
			"buffer":0,
			"byteLength":198564,
			"byteOffset":4149944,
			"target":34962
		},
		{
			"buffer":0,
			"byteLength":198564,
			"byteOffset":4348508,
			"target":34962
		},
		{
			"buffer":0,
			"byteLength":132376,
			"byteOffset":4547072,
			"target":34962
		},
		{
			"buffer":0,
			"byteLength":66188,
			"byteOffset":4679448,
			"target":34962
		},
		{
			"buffer":0,
			"byteLength":132376,
			"byteOffset":4745636,
			"target":34962
		},
		{
			"buffer":0,
			"byteLength":47910,
			"byteOffset":4878012,
			"target":34963
		},
		{
			"buffer":0,
			"byteLength":240,
			"byteOffset":4925924,
			"target":34962
		},
		{
			"buffer":0,
			"byteLength":240,
			"byteOffset":4926164,
			"target":34962
		},
		{
			"buffer":0,
			"byteLength":160,
			"byteOffset":4926404,
			"target":34962
		},
		{
			"buffer":0,
			"byteLength":80,
			"byteOffset":4926564,
			"target":34962
		},
		{
			"buffer":0,
			"byteLength":160,
			"byteOffset":4926644,
			"target":34962
		},
		{
			"buffer":0,
			"byteLength":72,
			"byteOffset":4926804,
			"target":34963
		},
		{
			"buffer":0,
			"byteLength":5532,
			"byteOffset":4926876,
			"target":34962
		},
		{
			"buffer":0,
			"byteLength":5532,
			"byteOffset":4932408,
			"target":34962
		},
		{
			"buffer":0,
			"byteLength":3688,
			"byteOffset":4937940,
			"target":34962
		},
		{
			"buffer":0,
			"byteLength":1844,
			"byteOffset":4941628,
			"target":34962
		},
		{
			"buffer":0,
			"byteLength":3688,
			"byteOffset":4943472,
			"target":34962
		},
		{
			"buffer":0,
			"byteLength":2016,
			"byteOffset":4947160,
			"target":34963
		},
		{
			"buffer":0,
			"byteLength":4704,
			"byteOffset":4949176,
			"target":34962
		},
		{
			"buffer":0,
			"byteLength":4704,
			"byteOffset":4953880,
			"target":34962
		},
		{
			"buffer":0,
			"byteLength":3136,
			"byteOffset":4958584,
			"target":34962
		},
		{
			"buffer":0,
			"byteLength":1568,
			"byteOffset":4961720,
			"target":34962
		},
		{
			"buffer":0,
			"byteLength":3136,
			"byteOffset":4963288,
			"target":34962
		},
		{
			"buffer":0,
			"byteLength":1608,
			"byteOffset":4966424,
			"target":34963
		},
		{
			"buffer":0,
			"byteLength":2292,
			"byteOffset":4968032,
			"target":34962
		},
		{
			"buffer":0,
			"byteLength":2292,
			"byteOffset":4970324,
			"target":34962
		},
		{
			"buffer":0,
			"byteLength":1528,
			"byteOffset":4972616,
			"target":34962
		},
		{
			"buffer":0,
			"byteLength":764,
			"byteOffset":4974144,
			"target":34962
		},
		{
			"buffer":0,
			"byteLength":1528,
			"byteOffset":4974908,
			"target":34962
		},
		{
			"buffer":0,
			"byteLength":624,
			"byteOffset":4976436,
			"target":34963
		}
	],
	"buffers":[
		{
			"byteLength":4977060,
			"uri":"swamp_SM_Env_Tree_Swamp_02.bin"
		}
	]
}
