{
	"asset":{
		"generator":"Khronos glTF Blender I/O v4.4.55",
		"version":"2.0"
	},
	"scene":0,
	"scenes":[
		{
			"name":"Scene",
			"nodes":[
				0
			]
		}
	],
	"nodes":[
		{
			"mesh":0,
			"name":"SM_Prop_Junk_Rusty_Engine_01",
			"rotation":[
				0.7071068286895752,
				0,
				0,
				0.7071068286895752
			],
			"scale":[
				0.009999999776482582,
				0.009999999776482582,
				0.009999999776482582
			]
		}
	],
	"materials":[
		{
			"doubleSided":true,
			"name":"Nature_Base_Mat11",
			"pbrMetallicRoughness":{
				"metallicFactor":0
			}
		}
	],
	"meshes":[
		{
			"name":"Mesh",
			"primitives":[
				{
					"attributes":{
						"POSITION":0,
						"NORMAL":1,
						"TEXCOORD_0":2
					},
					"indices":3,
					"material":0
				}
			]
		}
	],
	"accessors":[
		{
			"bufferView":0,
			"componentType":5126,
			"count":3963,
			"max":[
				45.830841064453125,
				35.35919189453125,
				6.624931335449219
			],
			"min":[
				-45.830841064453125,
				-35.35919189453125,
				-67.88404083251953
			],
			"type":"VEC3"
		},
		{
			"bufferView":1,
			"componentType":5126,
			"count":3963,
			"type":"VEC3"
		},
		{
			"bufferView":2,
			"componentType":5126,
			"count":3963,
			"type":"VEC2"
		},
		{
			"bufferView":3,
			"componentType":5123,
			"count":6318,
			"type":"SCALAR"
		}
	],
	"bufferViews":[
		{
			"buffer":0,
			"byteLength":47556,
			"byteOffset":0,
			"target":34962
		},
		{
			"buffer":0,
			"byteLength":47556,
			"byteOffset":47556,
			"target":34962
		},
		{
			"buffer":0,
			"byteLength":31704,
			"byteOffset":95112,
			"target":34962
		},
		{
			"buffer":0,
			"byteLength":12636,
			"byteOffset":126816,
			"target":34963
		}
	],
	"buffers":[
		{
			"byteLength":139452,
			"uri":"swamp_SM_Prop_Junk_Rusty_Engine_01.bin"
		}
	]
}
