{
	"asset":{
		"generator":"Khronos glTF Blender I/O v4.4.55",
		"version":"2.0"
	},
	"scene":0,
	"scenes":[
		{
			"name":"Scene",
			"nodes":[
				3
			]
		}
	],
	"nodes":[
		{
			"mesh":0,
			"name":"SM_Env_Bush_Bramble_02_LOD0"
		},
		{
			"mesh":1,
			"name":"SM_Env_Bush_Bramble_02_LOD1"
		},
		{
			"mesh":2,
			"name":"SM_Env_Bush_Bramble_02_LOD2"
		},
		{
			"children":[
				0,
				1,
				2
			],
			"name":"SM_Env_Bush_Bramble_02",
			"rotation":[
				0.7071068286895752,
				0,
				0,
				0.7071068286895752
			],
			"scale":[
				0.009999999776482582,
				0.009999999776482582,
				0.009999999776482582
			]
		}
	],
	"materials":[
		{
			"doubleSided":true,
			"name":"tomTreeGeneric_01:Base_Tree_Branches1",
			"pbrMetallicRoughness":{
				"metallicFactor":0
			}
		},
		{
			"doubleSided":true,
			"name":"tomTreeGeneric_02:Base_Tree_Branches1",
			"pbrMetallicRoughness":{
				"metallicFactor":0
			}
		}
	],
	"meshes":[
		{
			"name":"Mesh",
			"primitives":[
				{
					"attributes":{
						"POSITION":0,
						"NORMAL":1,
						"TEXCOORD_0":2,
						"COLOR_0":3,
						"COLOR_1":4
					},
					"indices":5,
					"material":0
				}
			]
		},
		{
			"name":"Mesh.001",
			"primitives":[
				{
					"attributes":{
						"POSITION":6,
						"NORMAL":7,
						"TEXCOORD_0":8,
						"COLOR_0":9,
						"COLOR_1":10
					},
					"indices":11,
					"material":0
				}
			]
		},
		{
			"name":"Mesh.002",
			"primitives":[
				{
					"attributes":{
						"POSITION":12,
						"NORMAL":13,
						"TEXCOORD_0":14,
						"COLOR_0":15,
						"COLOR_1":16
					},
					"indices":17,
					"material":1
				}
			]
		}
	],
	"accessors":[
		{
			"bufferView":0,
			"componentType":5126,
			"count":6018,
			"max":[
				154.21734619140625,
				134.93008422851562,
				11.972496032714844
			],
			"min":[
				-183.0142059326172,
				-136.22125244140625,
				-142.5869903564453
			],
			"type":"VEC3"
		},
		{
			"bufferView":1,
			"componentType":5126,
			"count":6018,
			"type":"VEC3"
		},
		{
			"bufferView":2,
			"componentType":5126,
			"count":6018,
			"type":"VEC2"
		},
		{
			"bufferView":3,
			"componentType":5121,
			"count":6018,
			"normalized":true,
			"type":"VEC4"
		},
		{
			"bufferView":4,
			"componentType":5123,
			"count":6018,
			"normalized":true,
			"type":"VEC4"
		},
		{
			"bufferView":5,
			"componentType":5123,
			"count":8802,
			"type":"SCALAR"
		},
		{
			"bufferView":6,
			"componentType":5126,
			"count":3406,
			"max":[
				153.90435791015625,
				134.77877807617188,
				11.58587646484375
			],
			"min":[
				-183.0045928955078,
				-136.0413818359375,
				-147.78042602539062
			],
			"type":"VEC3"
		},
		{
			"bufferView":7,
			"componentType":5126,
			"count":3406,
			"type":"VEC3"
		},
		{
			"bufferView":8,
			"componentType":5126,
			"count":3406,
			"type":"VEC2"
		},
		{
			"bufferView":9,
			"componentType":5121,
			"count":3406,
			"normalized":true,
			"type":"VEC4"
		},
		{
			"bufferView":10,
			"componentType":5123,
			"count":3406,
			"normalized":true,
			"type":"VEC4"
		},
		{
			"bufferView":11,
			"componentType":5123,
			"count":4344,
			"type":"SCALAR"
		},
		{
			"bufferView":12,
			"componentType":5126,
			"count":108,
			"max":[
				157.03485107421875,
				142.16830444335938,
				7.065396785736084
			],
			"min":[
				-185.93536376953125,
				-149.5022735595703,
				-146.2293701171875
			],
			"type":"VEC3"
		},
		{
			"bufferView":13,
			"componentType":5126,
			"count":108,
			"type":"VEC3"
		},
		{
			"bufferView":14,
			"componentType":5126,
			"count":108,
			"type":"VEC2"
		},
		{
			"bufferView":15,
			"componentType":5121,
			"count":108,
			"normalized":true,
			"type":"VEC4"
		},
		{
			"bufferView":16,
			"componentType":5123,
			"count":108,
			"normalized":true,
			"type":"VEC4"
		},
		{
			"bufferView":17,
			"componentType":5123,
			"count":216,
			"type":"SCALAR"
		}
	],
	"bufferViews":[
		{
			"buffer":0,
			"byteLength":72216,
			"byteOffset":0,
			"target":34962
		},
		{
			"buffer":0,
			"byteLength":72216,
			"byteOffset":72216,
			"target":34962
		},
		{
			"buffer":0,
			"byteLength":48144,
			"byteOffset":144432,
			"target":34962
		},
		{
			"buffer":0,
			"byteLength":24072,
			"byteOffset":192576,
			"target":34962
		},
		{
			"buffer":0,
			"byteLength":48144,
			"byteOffset":216648,
			"target":34962
		},
		{
			"buffer":0,
			"byteLength":17604,
			"byteOffset":264792,
			"target":34963
		},
		{
			"buffer":0,
			"byteLength":40872,
			"byteOffset":282396,
			"target":34962
		},
		{
			"buffer":0,
			"byteLength":40872,
			"byteOffset":323268,
			"target":34962
		},
		{
			"buffer":0,
			"byteLength":27248,
			"byteOffset":364140,
			"target":34962
		},
		{
			"buffer":0,
			"byteLength":13624,
			"byteOffset":391388,
			"target":34962
		},
		{
			"buffer":0,
			"byteLength":27248,
			"byteOffset":405012,
			"target":34962
		},
		{
			"buffer":0,
			"byteLength":8688,
			"byteOffset":432260,
			"target":34963
		},
		{
			"buffer":0,
			"byteLength":1296,
			"byteOffset":440948,
			"target":34962
		},
		{
			"buffer":0,
			"byteLength":1296,
			"byteOffset":442244,
			"target":34962
		},
		{
			"buffer":0,
			"byteLength":864,
			"byteOffset":443540,
			"target":34962
		},
		{
			"buffer":0,
			"byteLength":432,
			"byteOffset":444404,
			"target":34962
		},
		{
			"buffer":0,
			"byteLength":864,
			"byteOffset":444836,
			"target":34962
		},
		{
			"buffer":0,
			"byteLength":432,
			"byteOffset":445700,
			"target":34963
		}
	],
	"buffers":[
		{
			"byteLength":446132,
			"uri":"swamp_SM_Env_Bush_Bramble_02.bin"
		}
	]
}
