{
	"asset":{
		"generator":"Khronos glTF Blender I/O v4.4.55",
		"version":"2.0"
	},
	"scene":0,
	"scenes":[
		{
			"name":"Scene",
			"nodes":[
				3
			]
		}
	],
	"nodes":[
		{
			"mesh":0,
			"name":"SM_Env_SwampGrass_Small_01_LOD0"
		},
		{
			"mesh":1,
			"name":"SM_Env_SwampGrass_Small_01_LOD1"
		},
		{
			"mesh":2,
			"name":"SM_Env_SwampGrass_Small_01_LOD2"
		},
		{
			"children":[
				0,
				1,
				2
			],
			"name":"SM_Env_SwampGrass_Small_01",
			"rotation":[
				0.7071068286895752,
				0,
				0,
				0.7071068286895752
			],
			"scale":[
				0.009999999776482582,
				0.009999999776482582,
				0.009999999776482582
			]
		}
	],
	"materials":[
		{
			"doubleSided":true,
			"name":"Nature15",
			"pbrMetallicRoughness":{
				"metallicFactor":0
			}
		},
		{
			"doubleSided":true,
			"name":"SwampGrass4",
			"pbrMetallicRoughness":{
				"metallicFactor":0
			}
		}
	],
	"meshes":[
		{
			"name":"Mesh.001",
			"primitives":[
				{
					"attributes":{
						"POSITION":0,
						"NORMAL":1,
						"TEXCOORD_0":2,
						"COLOR_0":3,
						"COLOR_1":4
					},
					"indices":5,
					"material":0
				}
			]
		},
		{
			"name":"Mesh",
			"primitives":[
				{
					"attributes":{
						"POSITION":6,
						"NORMAL":7,
						"TEXCOORD_0":8,
						"COLOR_0":9,
						"COLOR_1":10
					},
					"indices":11,
					"material":1
				}
			]
		},
		{
			"name":"Mesh.002",
			"primitives":[
				{
					"attributes":{
						"POSITION":12,
						"NORMAL":13,
						"TEXCOORD_0":14,
						"COLOR_0":15,
						"COLOR_1":16
					},
					"indices":17,
					"material":1
				}
			]
		}
	],
	"accessors":[
		{
			"bufferView":0,
			"componentType":5126,
			"count":206,
			"max":[
				94.7711410522461,
				120.53343200683594,
				1.4954134225845337
			],
			"min":[
				-74.33863067626953,
				-56.42450714111328,
				-186.50814819335938
			],
			"type":"VEC3"
		},
		{
			"bufferView":1,
			"componentType":5126,
			"count":206,
			"type":"VEC3"
		},
		{
			"bufferView":2,
			"componentType":5126,
			"count":206,
			"type":"VEC2"
		},
		{
			"bufferView":3,
			"componentType":5121,
			"count":206,
			"normalized":true,
			"type":"VEC4"
		},
		{
			"bufferView":4,
			"componentType":5123,
			"count":206,
			"normalized":true,
			"type":"VEC4"
		},
		{
			"bufferView":5,
			"componentType":5123,
			"count":294,
			"type":"SCALAR"
		},
		{
			"bufferView":6,
			"componentType":5126,
			"count":24,
			"max":[
				102.18408203125,
				79.4036865234375,
				-1.8189894035458565e-12
			],
			"min":[
				-79.471435546875,
				-69.7181396484375,
				-195.80776977539062
			],
			"type":"VEC3"
		},
		{
			"bufferView":7,
			"componentType":5126,
			"count":24,
			"type":"VEC3"
		},
		{
			"bufferView":8,
			"componentType":5126,
			"count":24,
			"type":"VEC2"
		},
		{
			"bufferView":9,
			"componentType":5121,
			"count":24,
			"normalized":true,
			"type":"VEC4"
		},
		{
			"bufferView":10,
			"componentType":5123,
			"count":24,
			"normalized":true,
			"type":"VEC4"
		},
		{
			"bufferView":11,
			"componentType":5123,
			"count":72,
			"type":"SCALAR"
		},
		{
			"bufferView":12,
			"componentType":5126,
			"count":8,
			"max":[
				102.18408203125,
				76.2664794921875,
				-1.8189894035458565e-12
			],
			"min":[
				-79.471435546875,
				-72.855224609375,
				-195.80776977539062
			],
			"type":"VEC3"
		},
		{
			"bufferView":13,
			"componentType":5126,
			"count":8,
			"type":"VEC3"
		},
		{
			"bufferView":14,
			"componentType":5126,
			"count":8,
			"type":"VEC2"
		},
		{
			"bufferView":15,
			"componentType":5121,
			"count":8,
			"normalized":true,
			"type":"VEC4"
		},
		{
			"bufferView":16,
			"componentType":5123,
			"count":8,
			"normalized":true,
			"type":"VEC4"
		},
		{
			"bufferView":17,
			"componentType":5123,
			"count":12,
			"type":"SCALAR"
		}
	],
	"bufferViews":[
		{
			"buffer":0,
			"byteLength":2472,
			"byteOffset":0,
			"target":34962
		},
		{
			"buffer":0,
			"byteLength":2472,
			"byteOffset":2472,
			"target":34962
		},
		{
			"buffer":0,
			"byteLength":1648,
			"byteOffset":4944,
			"target":34962
		},
		{
			"buffer":0,
			"byteLength":824,
			"byteOffset":6592,
			"target":34962
		},
		{
			"buffer":0,
			"byteLength":1648,
			"byteOffset":7416,
			"target":34962
		},
		{
			"buffer":0,
			"byteLength":588,
			"byteOffset":9064,
			"target":34963
		},
		{
			"buffer":0,
			"byteLength":288,
			"byteOffset":9652,
			"target":34962
		},
		{
			"buffer":0,
			"byteLength":288,
			"byteOffset":9940,
			"target":34962
		},
		{
			"buffer":0,
			"byteLength":192,
			"byteOffset":10228,
			"target":34962
		},
		{
			"buffer":0,
			"byteLength":96,
			"byteOffset":10420,
			"target":34962
		},
		{
			"buffer":0,
			"byteLength":192,
			"byteOffset":10516,
			"target":34962
		},
		{
			"buffer":0,
			"byteLength":144,
			"byteOffset":10708,
			"target":34963
		},
		{
			"buffer":0,
			"byteLength":96,
			"byteOffset":10852,
			"target":34962
		},
		{
			"buffer":0,
			"byteLength":96,
			"byteOffset":10948,
			"target":34962
		},
		{
			"buffer":0,
			"byteLength":64,
			"byteOffset":11044,
			"target":34962
		},
		{
			"buffer":0,
			"byteLength":32,
			"byteOffset":11108,
			"target":34962
		},
		{
			"buffer":0,
			"byteLength":64,
			"byteOffset":11140,
			"target":34962
		},
		{
			"buffer":0,
			"byteLength":24,
			"byteOffset":11204,
			"target":34963
		}
	],
	"buffers":[
		{
			"byteLength":11228,
			"uri":"swamp_SM_Env_SwampGrass_Small_01.bin"
		}
	]
}
