{
	"asset":{
		"generator":"Khronos glTF Blender I/O v4.4.55",
		"version":"2.0"
	},
	"scene":0,
	"scenes":[
		{
			"name":"Scene",
			"nodes":[
				0
			]
		}
	],
	"nodes":[
		{
			"mesh":0,
			"name":"SM_Prop_Wooden_Broom_01",
			"rotation":[
				0.7071068286895752,
				0,
				0,
				0.7071068286895752
			],
			"scale":[
				0.009999999776482582,
				0.009999999776482582,
				0.009999999776482582
			]
		}
	],
	"materials":[
		{
			"doubleSided":true,
			"name":"Explorer_MAT42",
			"pbrMetallicRoughness":{
				"metallicFactor":0
			}
		}
	],
	"meshes":[
		{
			"name":"Mesh",
			"primitives":[
				{
					"attributes":{
						"POSITION":0,
						"NORMAL":1,
						"TEXCOORD_0":2,
						"TEXCOORD_1":3
					},
					"indices":4,
					"material":0
				}
			]
		}
	],
	"accessors":[
		{
			"bufferView":0,
			"componentType":5126,
			"count":479,
			"max":[
				29.505352020263672,
				98.9250717163086,
				11.99998950958252
			],
			"min":[
				-29.505352020263672,
				-98.9250717163086,
				-11.99998950958252
			],
			"type":"VEC3"
		},
		{
			"bufferView":1,
			"componentType":5126,
			"count":479,
			"type":"VEC3"
		},
		{
			"bufferView":2,
			"componentType":5126,
			"count":479,
			"type":"VEC2"
		},
		{
			"bufferView":3,
			"componentType":5126,
			"count":479,
			"type":"VEC2"
		},
		{
			"bufferView":4,
			"componentType":5123,
			"count":768,
			"type":"SCALAR"
		}
	],
	"bufferViews":[
		{
			"buffer":0,
			"byteLength":5748,
			"byteOffset":0,
			"target":34962
		},
		{
			"buffer":0,
			"byteLength":5748,
			"byteOffset":5748,
			"target":34962
		},
		{
			"buffer":0,
			"byteLength":3832,
			"byteOffset":11496,
			"target":34962
		},
		{
			"buffer":0,
			"byteLength":3832,
			"byteOffset":15328,
			"target":34962
		},
		{
			"buffer":0,
			"byteLength":1536,
			"byteOffset":19160,
			"target":34963
		}
	],
	"buffers":[
		{
			"byteLength":20696,
			"uri":"swamp_SM_Prop_Wooden_Broom_01.bin"
		}
	]
}
