{
	"asset":{
		"generator":"Khronos glTF Blender I/O v4.4.55",
		"version":"2.0"
	},
	"scene":0,
	"scenes":[
		{
			"name":"Scene",
			"nodes":[
				0
			]
		}
	],
	"nodes":[
		{
			"mesh":0,
			"name":"SM_Prop_Swamp_Log_04",
			"rotation":[
				0.7071068286895752,
				0,
				0,
				0.7071068286895752
			],
			"scale":[
				0.009999999776482582,
				0.009999999776482582,
				0.009999999776482582
			]
		}
	],
	"materials":[
		{
			"doubleSided":true,
			"name":"Explorer_MAT32",
			"pbrMetallicRoughness":{
				"metallicFactor":0
			}
		}
	],
	"meshes":[
		{
			"name":"Mesh",
			"primitives":[
				{
					"attributes":{
						"POSITION":0,
						"NORMAL":1,
						"TEXCOORD_0":2
					},
					"indices":3,
					"material":0
				}
			]
		}
	],
	"accessors":[
		{
			"bufferView":0,
			"componentType":5126,
			"count":654,
			"max":[
				36.472347259521484,
				413.17303466796875,
				91.16815185546875
			],
			"min":[
				-138.85971069335938,
				-413.1729431152344,
				-90.94381713867188
			],
			"type":"VEC3"
		},
		{
			"bufferView":1,
			"componentType":5126,
			"count":654,
			"type":"VEC3"
		},
		{
			"bufferView":2,
			"componentType":5126,
			"count":654,
			"type":"VEC2"
		},
		{
			"bufferView":3,
			"componentType":5123,
			"count":924,
			"type":"SCALAR"
		}
	],
	"bufferViews":[
		{
			"buffer":0,
			"byteLength":7848,
			"byteOffset":0,
			"target":34962
		},
		{
			"buffer":0,
			"byteLength":7848,
			"byteOffset":7848,
			"target":34962
		},
		{
			"buffer":0,
			"byteLength":5232,
			"byteOffset":15696,
			"target":34962
		},
		{
			"buffer":0,
			"byteLength":1848,
			"byteOffset":20928,
			"target":34963
		}
	],
	"buffers":[
		{
			"byteLength":22776,
			"uri":"swamp_SM_Prop_Swamp_Log_04.bin"
		}
	]
}
