{
	"asset":{
		"generator":"Khronos glTF Blender I/O v4.4.55",
		"version":"2.0"
	},
	"extensionsUsed":[
		"EXT_texture_webp"
	],
	"extensionsRequired":[
		"EXT_texture_webp"
	],
	"scene":0,
	"scenes":[
		{
			"name":"Scene",
			"nodes":[
				0
			]
		}
	],
	"nodes":[
		{
			"mesh":0,
			"name":"SM_Prop_Bone_Spine_01",
			"rotation":[
				0.7071068286895752,
				0,
				0,
				0.7071068286895752
			],
			"scale":[
				0.009999999776482582,
				0.009999999776482582,
				0.009999999776482582
			]
		}
	],
	"materials":[
		{
			"doubleSided":true,
			"name":"PCD9",
			"pbrMetallicRoughness":{
				"baseColorTexture":{
					"index":0
				},
				"metallicFactor":0
			}
		}
	],
	"meshes":[
		{
			"name":"Mesh",
			"primitives":[
				{
					"attributes":{
						"POSITION":0,
						"NORMAL":1,
						"TEXCOORD_0":2
					},
					"indices":3,
					"material":0
				}
			]
		}
	],
	"textures":[
		{
			"extensions":{
				"EXT_texture_webp":{
					"source":0
				}
			},
			"sampler":0
		}
	],
	"images":[
		{
			"mimeType":"image/webp",
			"name":"PolygonNatureBiomes_Swamp_Texture_01",
			"uri":"PolygonNatureBiomes_Swamp_Texture_01.webp"
		}
	],
	"accessors":[
		{
			"bufferView":0,
			"componentType":5126,
			"count":1165,
			"max":[
				10.83624267578125,
				49.736328125,
				4.274959564208984
			],
			"min":[
				-10.83624267578125,
				-49.7353515625,
				-17.768009185791016
			],
			"type":"VEC3"
		},
		{
			"bufferView":1,
			"componentType":5126,
			"count":1165,
			"type":"VEC3"
		},
		{
			"bufferView":2,
			"componentType":5126,
			"count":1165,
			"type":"VEC2"
		},
		{
			"bufferView":3,
			"componentType":5123,
			"count":1938,
			"type":"SCALAR"
		}
	],
	"bufferViews":[
		{
			"buffer":0,
			"byteLength":13980,
			"byteOffset":0,
			"target":34962
		},
		{
			"buffer":0,
			"byteLength":13980,
			"byteOffset":13980,
			"target":34962
		},
		{
			"buffer":0,
			"byteLength":9320,
			"byteOffset":27960,
			"target":34962
		},
		{
			"buffer":0,
			"byteLength":3876,
			"byteOffset":37280,
			"target":34963
		}
	],
	"samplers":[
		{
			"magFilter":9729,
			"minFilter":9987
		}
	],
	"buffers":[
		{
			"byteLength":41156,
			"uri":"swamp_SM_Prop_Bone_Spine_01.bin"
		}
	]
}
