{
	"asset":{
		"generator":"Khronos glTF Blender I/O v4.4.55",
		"version":"2.0"
	},
	"extensionsUsed":[
		"EXT_texture_webp"
	],
	"extensionsRequired":[
		"EXT_texture_webp"
	],
	"scene":0,
	"scenes":[
		{
			"name":"Scene",
			"nodes":[
				2
			]
		}
	],
	"nodes":[
		{
			"mesh":0,
			"name":"SM_Env_LillyPads_04_LOD0"
		},
		{
			"mesh":1,
			"name":"SM_Env_LillyPads_04_LOD1"
		},
		{
			"children":[
				0,
				1
			],
			"name":"SM_Env_LillyPads_04",
			"rotation":[
				0.7071068286895752,
				0,
				0,
				0.7071068286895752
			],
			"scale":[
				0.009999999776482582,
				0.009999999776482582,
				0.009999999776482582
			]
		}
	],
	"materials":[
		{
			"doubleSided":true,
			"name":"Nature3",
			"pbrMetallicRoughness":{
				"baseColorTexture":{
					"index":0
				},
				"metallicFactor":0
			}
		},
		{
			"alphaMode":"BLEND",
			"doubleSided":true,
			"name":"Lillies_04",
			"pbrMetallicRoughness":{
				"baseColorTexture":{
					"index":1
				},
				"metallicFactor":0
			}
		}
	],
	"meshes":[
		{
			"name":"Mesh.001",
			"primitives":[
				{
					"attributes":{
						"POSITION":0,
						"NORMAL":1,
						"TEXCOORD_0":2
					},
					"indices":3,
					"material":0
				}
			]
		},
		{
			"name":"Mesh",
			"primitives":[
				{
					"attributes":{
						"POSITION":4,
						"NORMAL":5,
						"TEXCOORD_0":6
					},
					"indices":7,
					"material":1
				}
			]
		}
	],
	"textures":[
		{
			"extensions":{
				"EXT_texture_webp":{
					"source":0
				}
			},
			"sampler":0
		},
		{
			"extensions":{
				"EXT_texture_webp":{
					"source":1
				}
			},
			"sampler":0
		}
	],
	"images":[
		{
			"mimeType":"image/webp",
			"name":"PolygonNatureBiomes_Swamp_Texture_01",
			"uri":"PolygonNatureBiomes_Swamp_Texture_01.webp"
		},
		{
			"mimeType":"image/webp",
			"name":"LillyPads_02",
			"uri":"LillyPads_02.webp"
		}
	],
	"accessors":[
		{
			"bufferView":0,
			"componentType":5126,
			"count":635,
			"max":[
				50.8291015625,
				94.492919921875,
				-1.2938461303710938
			],
			"min":[
				-65.0859375,
				-95.676025390625,
				-8.508689880371094
			],
			"type":"VEC3"
		},
		{
			"bufferView":1,
			"componentType":5126,
			"count":635,
			"type":"VEC3"
		},
		{
			"bufferView":2,
			"componentType":5126,
			"count":635,
			"type":"VEC2"
		},
		{
			"bufferView":3,
			"componentType":5123,
			"count":1104,
			"type":"SCALAR"
		},
		{
			"bufferView":4,
			"componentType":5126,
			"count":5,
			"max":[
				89.649169921875,
				126.7115478515625,
				-4.766197204589844
			],
			"min":[
				-81.66015625,
				-110.0526123046875,
				-4.766197204589844
			],
			"type":"VEC3"
		},
		{
			"bufferView":5,
			"componentType":5126,
			"count":5,
			"type":"VEC3"
		},
		{
			"bufferView":6,
			"componentType":5126,
			"count":5,
			"type":"VEC2"
		},
		{
			"bufferView":7,
			"componentType":5123,
			"count":9,
			"type":"SCALAR"
		}
	],
	"bufferViews":[
		{
			"buffer":0,
			"byteLength":7620,
			"byteOffset":0,
			"target":34962
		},
		{
			"buffer":0,
			"byteLength":7620,
			"byteOffset":7620,
			"target":34962
		},
		{
			"buffer":0,
			"byteLength":5080,
			"byteOffset":15240,
			"target":34962
		},
		{
			"buffer":0,
			"byteLength":2208,
			"byteOffset":20320,
			"target":34963
		},
		{
			"buffer":0,
			"byteLength":60,
			"byteOffset":22528,
			"target":34962
		},
		{
			"buffer":0,
			"byteLength":60,
			"byteOffset":22588,
			"target":34962
		},
		{
			"buffer":0,
			"byteLength":40,
			"byteOffset":22648,
			"target":34962
		},
		{
			"buffer":0,
			"byteLength":18,
			"byteOffset":22688,
			"target":34963
		}
	],
	"samplers":[
		{
			"magFilter":9729,
			"minFilter":9987
		}
	],
	"buffers":[
		{
			"byteLength":22708,
			"uri":"swamp_SM_Env_LillyPads_04.bin"
		}
	]
}
