{
	"asset":{
		"generator":"Khronos glTF Blender I/O v4.4.55",
		"version":"2.0"
	},
	"scene":0,
	"scenes":[
		{
			"name":"Scene",
			"nodes":[
				0
			]
		}
	],
	"nodes":[
		{
			"mesh":0,
			"name":"SM_Prop_Bone_Skull_01",
			"rotation":[
				0.7071068286895752,
				0,
				0,
				0.7071068286895752
			],
			"scale":[
				0.009999999776482582,
				0.009999999776482582,
				0.009999999776482582
			]
		}
	],
	"materials":[
		{
			"doubleSided":true,
			"name":"PCD8",
			"pbrMetallicRoughness":{
				"metallicFactor":0
			}
		}
	],
	"meshes":[
		{
			"name":"Mesh",
			"primitives":[
				{
					"attributes":{
						"POSITION":0,
						"NORMAL":1,
						"TEXCOORD_0":2
					},
					"indices":3,
					"material":0
				}
			]
		}
	],
	"accessors":[
		{
			"bufferView":0,
			"componentType":5126,
			"count":677,
			"max":[
				18.591552734375,
				21.287796020507812,
				9.189582824707031
			],
			"min":[
				-18.59130859375,
				-21.28778076171875,
				-26.551185607910156
			],
			"type":"VEC3"
		},
		{
			"bufferView":1,
			"componentType":5126,
			"count":677,
			"type":"VEC3"
		},
		{
			"bufferView":2,
			"componentType":5126,
			"count":677,
			"type":"VEC2"
		},
		{
			"bufferView":3,
			"componentType":5123,
			"count":1164,
			"type":"SCALAR"
		}
	],
	"bufferViews":[
		{
			"buffer":0,
			"byteLength":8124,
			"byteOffset":0,
			"target":34962
		},
		{
			"buffer":0,
			"byteLength":8124,
			"byteOffset":8124,
			"target":34962
		},
		{
			"buffer":0,
			"byteLength":5416,
			"byteOffset":16248,
			"target":34962
		},
		{
			"buffer":0,
			"byteLength":2328,
			"byteOffset":21664,
			"target":34963
		}
	],
	"buffers":[
		{
			"byteLength":23992,
			"uri":"swamp_SM_Prop_Bone_Skull_01.bin"
		}
	]
}
