{
	"asset":{
		"generator":"Khronos glTF Blender I/O v4.4.55",
		"version":"2.0"
	},
	"scene":0,
	"scenes":[
		{
			"name":"Scene",
			"nodes":[
				0
			]
		}
	],
	"nodes":[
		{
			"mesh":0,
			"name":"SM_Prop_Swamp_Lantern_02",
			"rotation":[
				0.7071068286895752,
				0,
				0,
				0.7071068286895752
			],
			"scale":[
				0.009999999776482582,
				0.009999999776482582,
				0.009999999776482582
			]
		}
	],
	"materials":[
		{
			"doubleSided":true,
			"name":"Explorer_MAT28",
			"pbrMetallicRoughness":{
				"metallicFactor":0
			}
		}
	],
	"meshes":[
		{
			"name":"Mesh",
			"primitives":[
				{
					"attributes":{
						"POSITION":0,
						"NORMAL":1,
						"TEXCOORD_0":2,
						"TEXCOORD_1":3,
						"TEXCOORD_2":4
					},
					"indices":5,
					"material":0
				}
			]
		}
	],
	"accessors":[
		{
			"bufferView":0,
			"componentType":5126,
			"count":10242,
			"max":[
				59.0138053894043,
				73.95270538330078,
				16.775630950927734
			],
			"min":[
				-59.56572341918945,
				-39.77104949951172,
				-177.8620147705078
			],
			"type":"VEC3"
		},
		{
			"bufferView":1,
			"componentType":5126,
			"count":10242,
			"type":"VEC3"
		},
		{
			"bufferView":2,
			"componentType":5126,
			"count":10242,
			"type":"VEC2"
		},
		{
			"bufferView":3,
			"componentType":5126,
			"count":10242,
			"type":"VEC2"
		},
		{
			"bufferView":4,
			"componentType":5126,
			"count":10242,
			"type":"VEC2"
		},
		{
			"bufferView":5,
			"componentType":5123,
			"count":13512,
			"type":"SCALAR"
		}
	],
	"bufferViews":[
		{
			"buffer":0,
			"byteLength":122904,
			"byteOffset":0,
			"target":34962
		},
		{
			"buffer":0,
			"byteLength":122904,
			"byteOffset":122904,
			"target":34962
		},
		{
			"buffer":0,
			"byteLength":81936,
			"byteOffset":245808,
			"target":34962
		},
		{
			"buffer":0,
			"byteLength":81936,
			"byteOffset":327744,
			"target":34962
		},
		{
			"buffer":0,
			"byteLength":81936,
			"byteOffset":409680,
			"target":34962
		},
		{
			"buffer":0,
			"byteLength":27024,
			"byteOffset":491616,
			"target":34963
		}
	],
	"buffers":[
		{
			"byteLength":518640,
			"uri":"swamp_SM_Prop_Swamp_Lantern_02.bin"
		}
	]
}
