{
	"asset":{
		"generator":"Khronos glTF Blender I/O v4.4.55",
		"version":"2.0"
	},
	"extensionsUsed":[
		"EXT_texture_webp"
	],
	"extensionsRequired":[
		"EXT_texture_webp"
	],
	"scene":0,
	"scenes":[
		{
			"name":"Scene",
			"nodes":[
				3
			]
		}
	],
	"nodes":[
		{
			"mesh":0,
			"name":"SM_Env_SwampGrass_Tall_01_LOD0"
		},
		{
			"mesh":1,
			"name":"SM_Env_SwampGrass_Tall_01_LOD1"
		},
		{
			"mesh":2,
			"name":"SM_Env_SwampGrass_Tall_01_LOD2"
		},
		{
			"children":[
				0,
				1,
				2
			],
			"name":"SM_Env_SwampGrass_Tall_01",
			"rotation":[
				0.7071068286895752,
				0,
				0,
				0.7071068286895752
			],
			"scale":[
				0.009999999776482582,
				0.009999999776482582,
				0.009999999776482582
			]
		}
	],
	"materials":[
		{
			"doubleSided":true,
			"name":"Nature16",
			"pbrMetallicRoughness":{
				"baseColorTexture":{
					"index":0
				},
				"metallicFactor":0
			}
		},
		{
			"alphaMode":"BLEND",
			"doubleSided":true,
			"name":"SwampGrass5",
			"pbrMetallicRoughness":{
				"baseColorTexture":{
					"index":1
				},
				"metallicFactor":0
			}
		}
	],
	"meshes":[
		{
			"name":"Mesh.001",
			"primitives":[
				{
					"attributes":{
						"POSITION":0,
						"NORMAL":1,
						"TEXCOORD_0":2,
						"COLOR_0":3,
						"COLOR_1":4
					},
					"indices":5,
					"material":0
				}
			]
		},
		{
			"name":"Mesh.002",
			"primitives":[
				{
					"attributes":{
						"POSITION":6,
						"NORMAL":7,
						"TEXCOORD_0":8,
						"COLOR_0":9,
						"COLOR_1":10
					},
					"indices":11,
					"material":1
				}
			]
		},
		{
			"name":"Mesh",
			"primitives":[
				{
					"attributes":{
						"POSITION":12,
						"NORMAL":13,
						"TEXCOORD_0":14,
						"COLOR_0":15,
						"COLOR_1":16
					},
					"indices":17,
					"material":1
				}
			]
		}
	],
	"textures":[
		{
			"extensions":{
				"EXT_texture_webp":{
					"source":0
				}
			},
			"sampler":0
		},
		{
			"extensions":{
				"EXT_texture_webp":{
					"source":1
				}
			},
			"sampler":0
		}
	],
	"images":[
		{
			"mimeType":"image/webp",
			"name":"PolygonNatureBiomes_Swamp_Texture_01",
			"uri":"PolygonNatureBiomes_Swamp_Texture_01.webp"
		},
		{
			"mimeType":"image/webp",
			"name":"SwampGrass_01",
			"uri":"SwampGrass_01.webp"
		}
	],
	"accessors":[
		{
			"bufferView":0,
			"componentType":5126,
			"count":810,
			"max":[
				88.80029296875,
				113.7039794921875,
				2.5496201515197754
			],
			"min":[
				-104.2734375,
				-154.505126953125,
				-458.08978271484375
			],
			"type":"VEC3"
		},
		{
			"bufferView":1,
			"componentType":5126,
			"count":810,
			"type":"VEC3"
		},
		{
			"bufferView":2,
			"componentType":5126,
			"count":810,
			"type":"VEC2"
		},
		{
			"bufferView":3,
			"componentType":5121,
			"count":810,
			"normalized":true,
			"type":"VEC4"
		},
		{
			"bufferView":4,
			"componentType":5123,
			"count":810,
			"normalized":true,
			"type":"VEC4"
		},
		{
			"bufferView":5,
			"componentType":5123,
			"count":1134,
			"type":"SCALAR"
		},
		{
			"bufferView":6,
			"componentType":5126,
			"count":30,
			"max":[
				89.5478515625,
				88.8179931640625,
				0
			],
			"min":[
				-89.5478515625,
				-88.8179931640625,
				-458.5798034667969
			],
			"type":"VEC3"
		},
		{
			"bufferView":7,
			"componentType":5126,
			"count":30,
			"type":"VEC3"
		},
		{
			"bufferView":8,
			"componentType":5126,
			"count":30,
			"type":"VEC2"
		},
		{
			"bufferView":9,
			"componentType":5121,
			"count":30,
			"normalized":true,
			"type":"VEC4"
		},
		{
			"bufferView":10,
			"componentType":5123,
			"count":30,
			"normalized":true,
			"type":"VEC4"
		},
		{
			"bufferView":11,
			"componentType":5123,
			"count":96,
			"type":"SCALAR"
		},
		{
			"bufferView":12,
			"componentType":5126,
			"count":8,
			"max":[
				89.5478515625,
				84.84814453125,
				0
			],
			"min":[
				-89.5478515625,
				-92.787841796875,
				-458.5798034667969
			],
			"type":"VEC3"
		},
		{
			"bufferView":13,
			"componentType":5126,
			"count":8,
			"type":"VEC3"
		},
		{
			"bufferView":14,
			"componentType":5126,
			"count":8,
			"type":"VEC2"
		},
		{
			"bufferView":15,
			"componentType":5121,
			"count":8,
			"normalized":true,
			"type":"VEC4"
		},
		{
			"bufferView":16,
			"componentType":5123,
			"count":8,
			"normalized":true,
			"type":"VEC4"
		},
		{
			"bufferView":17,
			"componentType":5123,
			"count":12,
			"type":"SCALAR"
		}
	],
	"bufferViews":[
		{
			"buffer":0,
			"byteLength":9720,
			"byteOffset":0,
			"target":34962
		},
		{
			"buffer":0,
			"byteLength":9720,
			"byteOffset":9720,
			"target":34962
		},
		{
			"buffer":0,
			"byteLength":6480,
			"byteOffset":19440,
			"target":34962
		},
		{
			"buffer":0,
			"byteLength":3240,
			"byteOffset":25920,
			"target":34962
		},
		{
			"buffer":0,
			"byteLength":6480,
			"byteOffset":29160,
			"target":34962
		},
		{
			"buffer":0,
			"byteLength":2268,
			"byteOffset":35640,
			"target":34963
		},
		{
			"buffer":0,
			"byteLength":360,
			"byteOffset":37908,
			"target":34962
		},
		{
			"buffer":0,
			"byteLength":360,
			"byteOffset":38268,
			"target":34962
		},
		{
			"buffer":0,
			"byteLength":240,
			"byteOffset":38628,
			"target":34962
		},
		{
			"buffer":0,
			"byteLength":120,
			"byteOffset":38868,
			"target":34962
		},
		{
			"buffer":0,
			"byteLength":240,
			"byteOffset":38988,
			"target":34962
		},
		{
			"buffer":0,
			"byteLength":192,
			"byteOffset":39228,
			"target":34963
		},
		{
			"buffer":0,
			"byteLength":96,
			"byteOffset":39420,
			"target":34962
		},
		{
			"buffer":0,
			"byteLength":96,
			"byteOffset":39516,
			"target":34962
		},
		{
			"buffer":0,
			"byteLength":64,
			"byteOffset":39612,
			"target":34962
		},
		{
			"buffer":0,
			"byteLength":32,
			"byteOffset":39676,
			"target":34962
		},
		{
			"buffer":0,
			"byteLength":64,
			"byteOffset":39708,
			"target":34962
		},
		{
			"buffer":0,
			"byteLength":24,
			"byteOffset":39772,
			"target":34963
		}
	],
	"samplers":[
		{
			"magFilter":9729,
			"minFilter":9987
		}
	],
	"buffers":[
		{
			"byteLength":39796,
			"uri":"swamp_SM_Env_SwampGrass_Tall_01.bin"
		}
	]
}
