{
	"asset":{
		"generator":"Khronos glTF Blender I/O v4.4.55",
		"version":"2.0"
	},
	"extensionsUsed":[
		"EXT_texture_webp"
	],
	"extensionsRequired":[
		"EXT_texture_webp"
	],
	"scene":0,
	"scenes":[
		{
			"name":"Scene",
			"nodes":[
				4
			]
		}
	],
	"nodes":[
		{
			"mesh":0,
			"name":"SM_Env_Tree_Mangrove_02_LOD0"
		},
		{
			"mesh":1,
			"name":"SM_Env_Tree_Mangrove_02_LOD1"
		},
		{
			"mesh":2,
			"name":"SM_Env_Tree_Mangrove_02_LOD2"
		},
		{
			"mesh":3,
			"name":"SM_Env_Tree_Mangrove_02_LOD3"
		},
		{
			"children":[
				0,
				1,
				2,
				3
			],
			"name":"SM_Env_Tree_Mangrove_02",
			"rotation":[
				0.7071068286895752,
				0,
				0,
				0.7071068286895752
			],
			"scale":[
				0.009999999776482582,
				0.009999999776482582,
				0.009999999776482582
			]
		}
	],
	"materials":[
		{
			"doubleSided":true,
			"name":"trunk1",
			"pbrMetallicRoughness":{
				"baseColorTexture":{
					"index":0
				},
				"metallicFactor":0
			}
		}
	],
	"meshes":[
		{
			"name":"Mesh",
			"primitives":[
				{
					"attributes":{
						"POSITION":0,
						"NORMAL":1,
						"TEXCOORD_0":2,
						"TEXCOORD_1":3,
						"COLOR_0":4,
						"COLOR_1":5
					},
					"indices":6,
					"material":0
				}
			]
		},
		{
			"name":"Mesh.001",
			"primitives":[
				{
					"attributes":{
						"POSITION":7,
						"NORMAL":8,
						"TEXCOORD_0":9,
						"TEXCOORD_1":10,
						"COLOR_0":11,
						"COLOR_1":12
					},
					"indices":13,
					"material":0
				}
			]
		},
		{
			"name":"Mesh.002",
			"primitives":[
				{
					"attributes":{
						"POSITION":14,
						"NORMAL":15,
						"TEXCOORD_0":16,
						"TEXCOORD_1":17,
						"COLOR_0":18,
						"COLOR_1":19
					},
					"indices":20,
					"material":0
				}
			]
		},
		{
			"name":"Mesh.003",
			"primitives":[
				{
					"attributes":{
						"POSITION":21,
						"NORMAL":22,
						"TEXCOORD_0":23,
						"COLOR_0":24,
						"COLOR_1":25
					},
					"indices":26,
					"material":0
				}
			]
		}
	],
	"textures":[
		{
			"extensions":{
				"EXT_texture_webp":{
					"source":0
				}
			},
			"sampler":0
		}
	],
	"images":[
		{
			"mimeType":"image/webp",
			"name":"PolygonNatureBiomes_Swamp_Texture_01",
			"uri":"PolygonNatureBiomes_Swamp_Texture_01.webp"
		}
	],
	"accessors":[
		{
			"bufferView":0,
			"componentType":5126,
			"count":6108,
			"max":[
				153.9947967529297,
				169.4158935546875,
				149.67312622070312
			],
			"min":[
				-168.48532104492188,
				-168.73489379882812,
				-552.5123901367188
			],
			"type":"VEC3"
		},
		{
			"bufferView":1,
			"componentType":5126,
			"count":6108,
			"type":"VEC3"
		},
		{
			"bufferView":2,
			"componentType":5126,
			"count":6108,
			"type":"VEC2"
		},
		{
			"bufferView":3,
			"componentType":5126,
			"count":6108,
			"type":"VEC2"
		},
		{
			"bufferView":4,
			"componentType":5121,
			"count":6108,
			"normalized":true,
			"type":"VEC4"
		},
		{
			"bufferView":5,
			"componentType":5123,
			"count":6108,
			"normalized":true,
			"type":"VEC4"
		},
		{
			"bufferView":6,
			"componentType":5123,
			"count":8292,
			"type":"SCALAR"
		},
		{
			"bufferView":7,
			"componentType":5126,
			"count":3562,
			"max":[
				151.41416931152344,
				164.3257293701172,
				148.27781677246094
			],
			"min":[
				-161.09498596191406,
				-167.1546630859375,
				-559.0296020507812
			],
			"type":"VEC3"
		},
		{
			"bufferView":8,
			"componentType":5126,
			"count":3562,
			"type":"VEC3"
		},
		{
			"bufferView":9,
			"componentType":5126,
			"count":3562,
			"type":"VEC2"
		},
		{
			"bufferView":10,
			"componentType":5126,
			"count":3562,
			"type":"VEC2"
		},
		{
			"bufferView":11,
			"componentType":5121,
			"count":3562,
			"normalized":true,
			"type":"VEC4"
		},
		{
			"bufferView":12,
			"componentType":5123,
			"count":3562,
			"normalized":true,
			"type":"VEC4"
		},
		{
			"bufferView":13,
			"componentType":5123,
			"count":4722,
			"type":"SCALAR"
		},
		{
			"bufferView":14,
			"componentType":5126,
			"count":1923,
			"max":[
				148.13818359375,
				164.37115478515625,
				148.27781677246094
			],
			"min":[
				-150.8578338623047,
				-167.1092529296875,
				-561.57568359375
			],
			"type":"VEC3"
		},
		{
			"bufferView":15,
			"componentType":5126,
			"count":1923,
			"type":"VEC3"
		},
		{
			"bufferView":16,
			"componentType":5126,
			"count":1923,
			"type":"VEC2"
		},
		{
			"bufferView":17,
			"componentType":5126,
			"count":1923,
			"type":"VEC2"
		},
		{
			"bufferView":18,
			"componentType":5121,
			"count":1923,
			"normalized":true,
			"type":"VEC4"
		},
		{
			"bufferView":19,
			"componentType":5123,
			"count":1923,
			"normalized":true,
			"type":"VEC4"
		},
		{
			"bufferView":20,
			"componentType":5123,
			"count":2478,
			"type":"SCALAR"
		},
		{
			"bufferView":21,
			"componentType":5126,
			"count":20,
			"max":[
				161.5367431640625,
				172.76336669921875,
				154.99911499023438
			],
			"min":[
				-176.5216522216797,
				-172.74456787109375,
				-559.8283081054688
			],
			"type":"VEC3"
		},
		{
			"bufferView":22,
			"componentType":5126,
			"count":20,
			"type":"VEC3"
		},
		{
			"bufferView":23,
			"componentType":5126,
			"count":20,
			"type":"VEC2"
		},
		{
			"bufferView":24,
			"componentType":5121,
			"count":20,
			"normalized":true,
			"type":"VEC4"
		},
		{
			"bufferView":25,
			"componentType":5123,
			"count":20,
			"normalized":true,
			"type":"VEC4"
		},
		{
			"bufferView":26,
			"componentType":5123,
			"count":36,
			"type":"SCALAR"
		}
	],
	"bufferViews":[
		{
			"buffer":0,
			"byteLength":73296,
			"byteOffset":0,
			"target":34962
		},
		{
			"buffer":0,
			"byteLength":73296,
			"byteOffset":73296,
			"target":34962
		},
		{
			"buffer":0,
			"byteLength":48864,
			"byteOffset":146592,
			"target":34962
		},
		{
			"buffer":0,
			"byteLength":48864,
			"byteOffset":195456,
			"target":34962
		},
		{
			"buffer":0,
			"byteLength":24432,
			"byteOffset":244320,
			"target":34962
		},
		{
			"buffer":0,
			"byteLength":48864,
			"byteOffset":268752,
			"target":34962
		},
		{
			"buffer":0,
			"byteLength":16584,
			"byteOffset":317616,
			"target":34963
		},
		{
			"buffer":0,
			"byteLength":42744,
			"byteOffset":334200,
			"target":34962
		},
		{
			"buffer":0,
			"byteLength":42744,
			"byteOffset":376944,
			"target":34962
		},
		{
			"buffer":0,
			"byteLength":28496,
			"byteOffset":419688,
			"target":34962
		},
		{
			"buffer":0,
			"byteLength":28496,
			"byteOffset":448184,
			"target":34962
		},
		{
			"buffer":0,
			"byteLength":14248,
			"byteOffset":476680,
			"target":34962
		},
		{
			"buffer":0,
			"byteLength":28496,
			"byteOffset":490928,
			"target":34962
		},
		{
			"buffer":0,
			"byteLength":9444,
			"byteOffset":519424,
			"target":34963
		},
		{
			"buffer":0,
			"byteLength":23076,
			"byteOffset":528868,
			"target":34962
		},
		{
			"buffer":0,
			"byteLength":23076,
			"byteOffset":551944,
			"target":34962
		},
		{
			"buffer":0,
			"byteLength":15384,
			"byteOffset":575020,
			"target":34962
		},
		{
			"buffer":0,
			"byteLength":15384,
			"byteOffset":590404,
			"target":34962
		},
		{
			"buffer":0,
			"byteLength":7692,
			"byteOffset":605788,
			"target":34962
		},
		{
			"buffer":0,
			"byteLength":15384,
			"byteOffset":613480,
			"target":34962
		},
		{
			"buffer":0,
			"byteLength":4956,
			"byteOffset":628864,
			"target":34963
		},
		{
			"buffer":0,
			"byteLength":240,
			"byteOffset":633820,
			"target":34962
		},
		{
			"buffer":0,
			"byteLength":240,
			"byteOffset":634060,
			"target":34962
		},
		{
			"buffer":0,
			"byteLength":160,
			"byteOffset":634300,
			"target":34962
		},
		{
			"buffer":0,
			"byteLength":80,
			"byteOffset":634460,
			"target":34962
		},
		{
			"buffer":0,
			"byteLength":160,
			"byteOffset":634540,
			"target":34962
		},
		{
			"buffer":0,
			"byteLength":72,
			"byteOffset":634700,
			"target":34963
		}
	],
	"samplers":[
		{
			"magFilter":9729,
			"minFilter":9987
		}
	],
	"buffers":[
		{
			"byteLength":634772,
			"uri":"swamp_SM_Env_Tree_Mangrove_02.bin"
		}
	]
}
