{
	"asset":{
		"generator":"Khronos glTF Blender I/O v4.4.55",
		"version":"2.0"
	},
	"scene":0,
	"scenes":[
		{
			"name":"Scene",
			"nodes":[
				0
			]
		}
	],
	"nodes":[
		{
			"mesh":0,
			"name":"SM_Env_Swamp_Tree_Root_Preset_02",
			"rotation":[
				0.7071068286895752,
				0,
				0,
				0.7071068286895752
			],
			"scale":[
				0.009999999776482582,
				0.009999999776482582,
				0.009999999776482582
			],
			"translation":[
				0.49995267391204834,
				-0.30374985933303833,
				-3.158447742462158
			]
		}
	],
	"materials":[
		{
			"doubleSided":true,
			"name":"Nature10",
			"pbrMetallicRoughness":{
				"metallicFactor":0
			}
		}
	],
	"meshes":[
		{
			"name":"Mesh",
			"primitives":[
				{
					"attributes":{
						"POSITION":0,
						"NORMAL":1,
						"TEXCOORD_0":2
					},
					"indices":3,
					"material":0
				}
			]
		}
	],
	"accessors":[
		{
			"bufferView":0,
			"componentType":5126,
			"count":1196,
			"max":[
				316.3616638183594,
				527.5372314453125,
				159.40069580078125
			],
			"min":[
				-416.3522033691406,
				104.15234375,
				-226.40786743164062
			],
			"type":"VEC3"
		},
		{
			"bufferView":1,
			"componentType":5126,
			"count":1196,
			"type":"VEC3"
		},
		{
			"bufferView":2,
			"componentType":5126,
			"count":1196,
			"type":"VEC2"
		},
		{
			"bufferView":3,
			"componentType":5123,
			"count":1716,
			"type":"SCALAR"
		}
	],
	"bufferViews":[
		{
			"buffer":0,
			"byteLength":14352,
			"byteOffset":0,
			"target":34962
		},
		{
			"buffer":0,
			"byteLength":14352,
			"byteOffset":14352,
			"target":34962
		},
		{
			"buffer":0,
			"byteLength":9568,
			"byteOffset":28704,
			"target":34962
		},
		{
			"buffer":0,
			"byteLength":3432,
			"byteOffset":38272,
			"target":34963
		}
	],
	"buffers":[
		{
			"byteLength":41704,
			"uri":"swamp_SM_Env_Swamp_Tree_Root_Preset_02.bin"
		}
	]
}
