{"asset":{"generator":"Khronos glTF Blender I/O v4.4.55","version":"2.0"},"extensionsUsed":["EXT_texture_webp"],"extensionsRequired":["EXT_texture_webp"],"scene":0,"scenes":[{"name":"Scene","nodes":[3]}],"nodes":[{"mesh":0,"name":"SM_Env_Reeds_02_LOD0"},{"mesh":1,"name":"SM_Env_Reeds_02_LOD1"},{"mesh":2,"name":"SM_Env_Reeds_02_LOD2"},{"children":[0,1,2],"name":"SM_Env_Reeds_02","rotation":[0.7071068286895752,0,0,0.7071068286895752],"scale":[0.009999999776482582,0.009999999776482582,0.009999999776482582]}],"materials":[{"doubleSided":true,"name":"Nature5","pbrMetallicRoughness":{"baseColorTexture":{"index":0},"metallicFactor":0}},{"alphaMode":"MASK","doubleSided":true,"name":"lambert2036","pbrMetallicRoughness":{"baseColorTexture":{"index":1},"metallicFactor":0},"alphaCutoff":0.5}],"meshes":[{"name":"Mesh.002","primitives":[{"attributes":{"POSITION":0,"NORMAL":1,"TEXCOORD_0":2,"COLOR_0":3,"COLOR_1":4},"indices":5,"material":0}]},{"name":"Mesh","primitives":[{"attributes":{"POSITION":6,"NORMAL":7,"TEXCOORD_0":8,"COLOR_0":9,"COLOR_1":10},"indices":11,"material":1}]},{"name":"Mesh.001","primitives":[{"attributes":{"POSITION":12,"NORMAL":13,"TEXCOORD_0":14,"COLOR_0":15,"COLOR_1":16},"indices":17,"material":1}]}],"textures":[{"extensions":{"EXT_texture_webp":{"source":0}},"sampler":0},{"extensions":{"EXT_texture_webp":{"source":1}},"sampler":0}],"images":[{"mimeType":"image/webp","name":"PolygonNatureBiomes_Swamp_Texture_01","uri":"PolygonNatureBiomes_Swamp_Texture_01.webp"},{"mimeType":"image/webp","name":"Reeds_01","uri":"Reeds_01.webp"}],"accessors":[{"bufferView":0,"componentType":5126,"count":1642,"max":[54.4736328125,39.212646484375,42.95735549926758],"min":[-54.2158203125,-41.64752197265625,-300.432373046875],"type":"VEC3"},{"bufferView":1,"componentType":5126,"count":1642,"type":"VEC3"},{"bufferView":2,"componentType":5126,"count":1642,"type":"VEC2"},{"bufferView":3,"componentType":5121,"count":1642,"normalized":true,"type":"VEC4"},{"bufferView":4,"componentType":5123,"count":1642,"normalized":true,"type":"VEC4"},{"bufferView":5,"componentType":5123,"count":2400,"type":"SCALAR"},{"bufferView":6,"componentType":5126,"count":30,"max":[57.28515625,61.72784423828125,42.900634765625],"min":[-56.513671875,-57.28485107421875,-304.357666015625],"type":"VEC3"},{"bufferView":7,"componentType":5126,"count":30,"type":"VEC3"},{"bufferView":8,"componentType":5126,"count":30,"type":"VEC2"},{"bufferView":9,"componentType":5121,"count":30,"normalized":true,"type":"VEC4"},{"bufferView":10,"componentType":5123,"count":30,"normalized":true,"type":"VEC4"},{"bufferView":11,"componentType":5123,"count":96,"type":"SCALAR"},{"bufferView":12,"componentType":5126,"count":8,"max":[57.28515625,61.72784423828125,42.900634765625],"min":[-56.513671875,-57.28485107421875,-304.357666015625],"type":"VEC3"},{"bufferView":13,"componentType":5126,"count":8,"type":"VEC3"},{"bufferView":14,"componentType":5126,"count":8,"type":"VEC2"},{"bufferView":15,"componentType":5121,"count":8,"normalized":true,"type":"VEC4"},{"bufferView":16,"componentType":5123,"count":8,"normalized":true,"type":"VEC4"},{"bufferView":17,"componentType":5123,"count":12,"type":"SCALAR"}],"bufferViews":[{"buffer":0,"byteLength":19704,"byteOffset":0,"target":34962},{"buffer":0,"byteLength":19704,"byteOffset":19704,"target":34962},{"buffer":0,"byteLength":13136,"byteOffset":39408,"target":34962},{"buffer":0,"byteLength":6568,"byteOffset":52544,"target":34962},{"buffer":0,"byteLength":13136,"byteOffset":59112,"target":34962},{"buffer":0,"byteLength":4800,"byteOffset":72248,"target":34963},{"buffer":0,"byteLength":360,"byteOffset":77048,"target":34962},{"buffer":0,"byteLength":360,"byteOffset":77408,"target":34962},{"buffer":0,"byteLength":240,"byteOffset":77768,"target":34962},{"buffer":0,"byteLength":120,"byteOffset":78008,"target":34962},{"buffer":0,"byteLength":240,"byteOffset":78128,"target":34962},{"buffer":0,"byteLength":192,"byteOffset":78368,"target":34963},{"buffer":0,"byteLength":96,"byteOffset":78560,"target":34962},{"buffer":0,"byteLength":96,"byteOffset":78656,"target":34962},{"buffer":0,"byteLength":64,"byteOffset":78752,"target":34962},{"buffer":0,"byteLength":32,"byteOffset":78816,"target":34962},{"buffer":0,"byteLength":64,"byteOffset":78848,"target":34962},{"buffer":0,"byteLength":24,"byteOffset":78912,"target":34963}],"samplers":[{"magFilter":9729,"minFilter":9987}],"buffers":[{"byteLength":78936,"uri":"swamp_SM_Env_Reeds_02.bin"}]}