{
	"asset":{
		"generator":"Khronos glTF Blender I/O v4.4.55",
		"version":"2.0"
	},
	"scene":0,
	"scenes":[
		{
			"name":"Scene",
			"nodes":[
				0
			]
		}
	],
	"nodes":[
		{
			"mesh":0,
			"name":"SM_Prop_Wooden_Table_01",
			"rotation":[
				0.7071068286895752,
				0,
				0,
				0.7071068286895752
			],
			"scale":[
				0.009999999776482582,
				0.009999999776482582,
				0.009999999776482582
			]
		}
	],
	"materials":[
		{
			"doubleSided":true,
			"name":"Explorer_MAT43",
			"pbrMetallicRoughness":{
				"metallicFactor":0
			}
		}
	],
	"meshes":[
		{
			"name":"Mesh",
			"primitives":[
				{
					"attributes":{
						"POSITION":0,
						"NORMAL":1,
						"TEXCOORD_0":2
					},
					"indices":3,
					"material":0
				}
			]
		}
	],
	"accessors":[
		{
			"bufferView":0,
			"componentType":5126,
			"count":1106,
			"max":[
				75.58272552490234,
				46.95423889160156,
				0
			],
			"min":[
				-75.58272552490234,
				-46.95423889160156,
				-88.55593872070312
			],
			"type":"VEC3"
		},
		{
			"bufferView":1,
			"componentType":5126,
			"count":1106,
			"type":"VEC3"
		},
		{
			"bufferView":2,
			"componentType":5126,
			"count":1106,
			"type":"VEC2"
		},
		{
			"bufferView":3,
			"componentType":5123,
			"count":1926,
			"type":"SCALAR"
		}
	],
	"bufferViews":[
		{
			"buffer":0,
			"byteLength":13272,
			"byteOffset":0,
			"target":34962
		},
		{
			"buffer":0,
			"byteLength":13272,
			"byteOffset":13272,
			"target":34962
		},
		{
			"buffer":0,
			"byteLength":8848,
			"byteOffset":26544,
			"target":34962
		},
		{
			"buffer":0,
			"byteLength":3852,
			"byteOffset":35392,
			"target":34963
		}
	],
	"buffers":[
		{
			"byteLength":39244,
			"uri":"swamp_SM_Prop_Wooden_Table_01.bin"
		}
	]
}
