{
	"asset":{
		"generator":"Khronos glTF Blender I/O v4.4.55",
		"version":"2.0"
	},
	"extensionsUsed":[
		"EXT_texture_webp"
	],
	"extensionsRequired":[
		"EXT_texture_webp"
	],
	"scene":0,
	"scenes":[
		{
			"name":"Scene",
			"nodes":[
				3
			]
		}
	],
	"nodes":[
		{
			"mesh":0,
			"name":"SM_Env_Swamp_Leaves_01_LOD0"
		},
		{
			"mesh":1,
			"name":"SM_Env_Swamp_Leaves_01_LOD1"
		},
		{
			"mesh":2,
			"name":"SM_Env_Swamp_Leaves_01_LOD2"
		},
		{
			"children":[
				0,
				1,
				2
			],
			"name":"SM_Env_Swamp_Leaves_01",
			"rotation":[
				0.7071068286895752,
				0,
				0,
				0.7071068286895752
			],
			"scale":[
				0.009999999776482582,
				0.009999999776482582,
				0.009999999776482582
			]
		}
	],
	"materials":[
		{
			"doubleSided":true,
			"name":"Nature7",
			"pbrMetallicRoughness":{
				"baseColorTexture":{
					"index":0
				},
				"metallicFactor":0
			}
		}
	],
	"meshes":[
		{
			"name":"Mesh",
			"primitives":[
				{
					"attributes":{
						"POSITION":0,
						"NORMAL":1,
						"TEXCOORD_0":2,
						"COLOR_0":3,
						"COLOR_1":4
					},
					"indices":5,
					"material":0
				}
			]
		},
		{
			"name":"Mesh.001",
			"primitives":[
				{
					"attributes":{
						"POSITION":6,
						"NORMAL":7,
						"TEXCOORD_0":8,
						"COLOR_0":9,
						"COLOR_1":10
					},
					"indices":11,
					"material":0
				}
			]
		},
		{
			"name":"Mesh.002",
			"primitives":[
				{
					"attributes":{
						"POSITION":12,
						"NORMAL":13,
						"TEXCOORD_0":14,
						"COLOR_0":15,
						"COLOR_1":16
					},
					"indices":17,
					"material":0
				}
			]
		}
	],
	"textures":[
		{
			"extensions":{
				"EXT_texture_webp":{
					"source":0
				}
			},
			"sampler":0
		}
	],
	"images":[
		{
			"mimeType":"image/webp",
			"name":"PolygonNatureBiomes_Swamp_Texture_01",
			"uri":"PolygonNatureBiomes_Swamp_Texture_01.webp"
		}
	],
	"accessors":[
		{
			"bufferView":0,
			"componentType":5126,
			"count":1254,
			"max":[
				106.4892578125,
				141.4503631591797,
				136.31002807617188
			],
			"min":[
				-113.5751953125,
				-116.80287170410156,
				-205.51754760742188
			],
			"type":"VEC3"
		},
		{
			"bufferView":1,
			"componentType":5126,
			"count":1254,
			"type":"VEC3"
		},
		{
			"bufferView":2,
			"componentType":5126,
			"count":1254,
			"type":"VEC2"
		},
		{
			"bufferView":3,
			"componentType":5121,
			"count":1254,
			"normalized":true,
			"type":"VEC4"
		},
		{
			"bufferView":4,
			"componentType":5123,
			"count":1254,
			"normalized":true,
			"type":"VEC4"
		},
		{
			"bufferView":5,
			"componentType":5123,
			"count":1782,
			"type":"SCALAR"
		},
		{
			"bufferView":6,
			"componentType":5126,
			"count":550,
			"max":[
				106.4892578125,
				141.4503631591797,
				136.31002807617188
			],
			"min":[
				-113.5751953125,
				-116.80287170410156,
				-205.51754760742188
			],
			"type":"VEC3"
		},
		{
			"bufferView":7,
			"componentType":5126,
			"count":550,
			"type":"VEC3"
		},
		{
			"bufferView":8,
			"componentType":5126,
			"count":550,
			"type":"VEC2"
		},
		{
			"bufferView":9,
			"componentType":5121,
			"count":550,
			"normalized":true,
			"type":"VEC4"
		},
		{
			"bufferView":10,
			"componentType":5123,
			"count":550,
			"normalized":true,
			"type":"VEC4"
		},
		{
			"bufferView":11,
			"componentType":5123,
			"count":726,
			"type":"SCALAR"
		},
		{
			"bufferView":12,
			"componentType":5126,
			"count":176,
			"max":[
				106.4892578125,
				139.2140350341797,
				134.6987762451172
			],
			"min":[
				-113.5751953125,
				-116.79644775390625,
				-197.38958740234375
			],
			"type":"VEC3"
		},
		{
			"bufferView":13,
			"componentType":5126,
			"count":176,
			"type":"VEC3"
		},
		{
			"bufferView":14,
			"componentType":5126,
			"count":176,
			"type":"VEC2"
		},
		{
			"bufferView":15,
			"componentType":5121,
			"count":176,
			"normalized":true,
			"type":"VEC4"
		},
		{
			"bufferView":16,
			"componentType":5123,
			"count":176,
			"normalized":true,
			"type":"VEC4"
		},
		{
			"bufferView":17,
			"componentType":5123,
			"count":264,
			"type":"SCALAR"
		}
	],
	"bufferViews":[
		{
			"buffer":0,
			"byteLength":15048,
			"byteOffset":0,
			"target":34962
		},
		{
			"buffer":0,
			"byteLength":15048,
			"byteOffset":15048,
			"target":34962
		},
		{
			"buffer":0,
			"byteLength":10032,
			"byteOffset":30096,
			"target":34962
		},
		{
			"buffer":0,
			"byteLength":5016,
			"byteOffset":40128,
			"target":34962
		},
		{
			"buffer":0,
			"byteLength":10032,
			"byteOffset":45144,
			"target":34962
		},
		{
			"buffer":0,
			"byteLength":3564,
			"byteOffset":55176,
			"target":34963
		},
		{
			"buffer":0,
			"byteLength":6600,
			"byteOffset":58740,
			"target":34962
		},
		{
			"buffer":0,
			"byteLength":6600,
			"byteOffset":65340,
			"target":34962
		},
		{
			"buffer":0,
			"byteLength":4400,
			"byteOffset":71940,
			"target":34962
		},
		{
			"buffer":0,
			"byteLength":2200,
			"byteOffset":76340,
			"target":34962
		},
		{
			"buffer":0,
			"byteLength":4400,
			"byteOffset":78540,
			"target":34962
		},
		{
			"buffer":0,
			"byteLength":1452,
			"byteOffset":82940,
			"target":34963
		},
		{
			"buffer":0,
			"byteLength":2112,
			"byteOffset":84392,
			"target":34962
		},
		{
			"buffer":0,
			"byteLength":2112,
			"byteOffset":86504,
			"target":34962
		},
		{
			"buffer":0,
			"byteLength":1408,
			"byteOffset":88616,
			"target":34962
		},
		{
			"buffer":0,
			"byteLength":704,
			"byteOffset":90024,
			"target":34962
		},
		{
			"buffer":0,
			"byteLength":1408,
			"byteOffset":90728,
			"target":34962
		},
		{
			"buffer":0,
			"byteLength":528,
			"byteOffset":92136,
			"target":34963
		}
	],
	"samplers":[
		{
			"magFilter":9729,
			"minFilter":9987
		}
	],
	"buffers":[
		{
			"byteLength":92664,
			"uri":"swamp_SM_Env_Swamp_Leaves_01.bin"
		}
	]
}
