{
	"asset":{
		"generator":"Khronos glTF Blender I/O v4.4.55",
		"version":"2.0"
	},
	"scene":0,
	"scenes":[
		{
			"name":"Scene",
			"nodes":[
				7
			]
		}
	],
	"nodes":[
		{
			"mesh":0,
			"name":"SM_Env_Tree_Swamp_03_LOD0"
		},
		{
			"mesh":1,
			"name":"SM_Env_Tree_Swamp_03_LOD1"
		},
		{
			"mesh":2,
			"name":"SM_Env_Tree_Swamp_03_LOD2"
		},
		{
			"mesh":3,
			"name":"SM_Env_Tree_Swamp_03_LOD3"
		},
		{
			"mesh":4,
			"name":"SM_Env_Tree_Swamp_03_MOSS_LOD0"
		},
		{
			"mesh":5,
			"name":"SM_Env_Tree_Swamp_03_MOSS_LOD1"
		},
		{
			"mesh":6,
			"name":"SM_Env_Tree_Swamp_03_MOSS_LOD2"
		},
		{
			"children":[
				0,
				1,
				2,
				3,
				4,
				5,
				6
			],
			"name":"SM_Env_Tree_Swamp_03",
			"rotation":[
				0.7071068286895752,
				0,
				0,
				0.7071068286895752
			],
			"scale":[
				0.009999999776482582,
				0.009999999776482582,
				0.009999999776482582
			]
		}
	],
	"materials":[
		{
			"doubleSided":true,
			"name":"trunk7",
			"pbrMetallicRoughness":{
				"metallicFactor":0
			}
		}
	],
	"meshes":[
		{
			"name":"Mesh.003",
			"primitives":[
				{
					"attributes":{
						"POSITION":0,
						"NORMAL":1,
						"TEXCOORD_0":2,
						"COLOR_0":3,
						"COLOR_1":4
					},
					"indices":5,
					"material":0
				}
			]
		},
		{
			"name":"Mesh.004",
			"primitives":[
				{
					"attributes":{
						"POSITION":6,
						"NORMAL":7,
						"TEXCOORD_0":8,
						"COLOR_0":9,
						"COLOR_1":10
					},
					"indices":11,
					"material":0
				}
			]
		},
		{
			"name":"Mesh.005",
			"primitives":[
				{
					"attributes":{
						"POSITION":12,
						"NORMAL":13,
						"TEXCOORD_0":14,
						"COLOR_0":15,
						"COLOR_1":16
					},
					"indices":17,
					"material":0
				}
			]
		},
		{
			"name":"Mesh.006",
			"primitives":[
				{
					"attributes":{
						"POSITION":18,
						"NORMAL":19,
						"TEXCOORD_0":20,
						"COLOR_0":21,
						"COLOR_1":22
					},
					"indices":23,
					"material":0
				}
			]
		},
		{
			"name":"Mesh",
			"primitives":[
				{
					"attributes":{
						"POSITION":24,
						"NORMAL":25,
						"TEXCOORD_0":26,
						"COLOR_0":27,
						"COLOR_1":28
					},
					"indices":29,
					"material":0
				}
			]
		},
		{
			"name":"Mesh.001",
			"primitives":[
				{
					"attributes":{
						"POSITION":30,
						"NORMAL":31,
						"TEXCOORD_0":32,
						"COLOR_0":33,
						"COLOR_1":34
					},
					"indices":35,
					"material":0
				}
			]
		},
		{
			"name":"Mesh.002",
			"primitives":[
				{
					"attributes":{
						"POSITION":36,
						"NORMAL":37,
						"TEXCOORD_0":38,
						"COLOR_0":39,
						"COLOR_1":40
					},
					"indices":41,
					"material":0
				}
			]
		}
	],
	"accessors":[
		{
			"bufferView":0,
			"componentType":5126,
			"count":24898,
			"max":[
				932.0787963867188,
				528.7857055664062,
				126.60842895507812
			],
			"min":[
				-196.77810668945312,
				-693.9987182617188,
				-941.2301025390625
			],
			"type":"VEC3"
		},
		{
			"bufferView":1,
			"componentType":5126,
			"count":24898,
			"type":"VEC3"
		},
		{
			"bufferView":2,
			"componentType":5126,
			"count":24898,
			"type":"VEC2"
		},
		{
			"bufferView":3,
			"componentType":5121,
			"count":24898,
			"normalized":true,
			"type":"VEC4"
		},
		{
			"bufferView":4,
			"componentType":5123,
			"count":24898,
			"normalized":true,
			"type":"VEC4"
		},
		{
			"bufferView":5,
			"componentType":5123,
			"count":37206,
			"type":"SCALAR"
		},
		{
			"bufferView":6,
			"componentType":5126,
			"count":13530,
			"max":[
				927.6231689453125,
				529.126953125,
				125.58479309082031
			],
			"min":[
				-196.40235900878906,
				-686.2517700195312,
				-938.6073608398438
			],
			"type":"VEC3"
		},
		{
			"bufferView":7,
			"componentType":5126,
			"count":13530,
			"type":"VEC3"
		},
		{
			"bufferView":8,
			"componentType":5126,
			"count":13530,
			"type":"VEC2"
		},
		{
			"bufferView":9,
			"componentType":5121,
			"count":13530,
			"normalized":true,
			"type":"VEC4"
		},
		{
			"bufferView":10,
			"componentType":5123,
			"count":13530,
			"normalized":true,
			"type":"VEC4"
		},
		{
			"bufferView":11,
			"componentType":5123,
			"count":20064,
			"type":"SCALAR"
		},
		{
			"bufferView":12,
			"componentType":5126,
			"count":7261,
			"max":[
				914.0462646484375,
				529.4249267578125,
				125.58479309082031
			],
			"min":[
				-206.2994384765625,
				-664.6891479492188,
				-909.4151000976562
			],
			"type":"VEC3"
		},
		{
			"bufferView":13,
			"componentType":5126,
			"count":7261,
			"type":"VEC3"
		},
		{
			"bufferView":14,
			"componentType":5126,
			"count":7261,
			"type":"VEC2"
		},
		{
			"bufferView":15,
			"componentType":5121,
			"count":7261,
			"normalized":true,
			"type":"VEC4"
		},
		{
			"bufferView":16,
			"componentType":5123,
			"count":7261,
			"normalized":true,
			"type":"VEC4"
		},
		{
			"bufferView":17,
			"componentType":5123,
			"count":10464,
			"type":"SCALAR"
		},
		{
			"bufferView":18,
			"componentType":5126,
			"count":24,
			"max":[
				962.0758056640625,
				549.8801879882812,
				149.59756469726562
			],
			"min":[
				-207.52630615234375,
				-713.903076171875,
				-972.3201904296875
			],
			"type":"VEC3"
		},
		{
			"bufferView":19,
			"componentType":5126,
			"count":24,
			"type":"VEC3"
		},
		{
			"bufferView":20,
			"componentType":5126,
			"count":24,
			"type":"VEC2"
		},
		{
			"bufferView":21,
			"componentType":5121,
			"count":24,
			"normalized":true,
			"type":"VEC4"
		},
		{
			"bufferView":22,
			"componentType":5123,
			"count":24,
			"normalized":true,
			"type":"VEC4"
		},
		{
			"bufferView":23,
			"componentType":5123,
			"count":48,
			"type":"SCALAR"
		},
		{
			"bufferView":24,
			"componentType":5126,
			"count":373,
			"max":[
				634.458984375,
				308.5902404785156,
				-216.1842498779297
			],
			"min":[
				-80.275390625,
				-419.0353698730469,
				-742.5772705078125
			],
			"type":"VEC3"
		},
		{
			"bufferView":25,
			"componentType":5126,
			"count":373,
			"type":"VEC3"
		},
		{
			"bufferView":26,
			"componentType":5126,
			"count":373,
			"type":"VEC2"
		},
		{
			"bufferView":27,
			"componentType":5121,
			"count":373,
			"normalized":true,
			"type":"VEC4"
		},
		{
			"bufferView":28,
			"componentType":5123,
			"count":373,
			"normalized":true,
			"type":"VEC4"
		},
		{
			"bufferView":29,
			"componentType":5123,
			"count":810,
			"type":"SCALAR"
		},
		{
			"bufferView":30,
			"componentType":5126,
			"count":323,
			"max":[
				634.552734375,
				308.6639099121094,
				-216.1842498779297
			],
			"min":[
				-80.18163299560547,
				-418.9617004394531,
				-742.5772705078125
			],
			"type":"VEC3"
		},
		{
			"bufferView":31,
			"componentType":5126,
			"count":323,
			"type":"VEC3"
		},
		{
			"bufferView":32,
			"componentType":5126,
			"count":323,
			"type":"VEC2"
		},
		{
			"bufferView":33,
			"componentType":5121,
			"count":323,
			"normalized":true,
			"type":"VEC4"
		},
		{
			"bufferView":34,
			"componentType":5123,
			"count":323,
			"normalized":true,
			"type":"VEC4"
		},
		{
			"bufferView":35,
			"componentType":5123,
			"count":672,
			"type":"SCALAR"
		},
		{
			"bufferView":36,
			"componentType":5126,
			"count":126,
			"max":[
				634.458984375,
				308.0860900878906,
				-216.1842498779297
			],
			"min":[
				-80.132080078125,
				-419.0353698730469,
				-742.5772705078125
			],
			"type":"VEC3"
		},
		{
			"bufferView":37,
			"componentType":5126,
			"count":126,
			"type":"VEC3"
		},
		{
			"bufferView":38,
			"componentType":5126,
			"count":126,
			"type":"VEC2"
		},
		{
			"bufferView":39,
			"componentType":5121,
			"count":126,
			"normalized":true,
			"type":"VEC4"
		},
		{
			"bufferView":40,
			"componentType":5123,
			"count":126,
			"normalized":true,
			"type":"VEC4"
		},
		{
			"bufferView":41,
			"componentType":5123,
			"count":210,
			"type":"SCALAR"
		}
	],
	"bufferViews":[
		{
			"buffer":0,
			"byteLength":298776,
			"byteOffset":0,
			"target":34962
		},
		{
			"buffer":0,
			"byteLength":298776,
			"byteOffset":298776,
			"target":34962
		},
		{
			"buffer":0,
			"byteLength":199184,
			"byteOffset":597552,
			"target":34962
		},
		{
			"buffer":0,
			"byteLength":99592,
			"byteOffset":796736,
			"target":34962
		},
		{
			"buffer":0,
			"byteLength":199184,
			"byteOffset":896328,
			"target":34962
		},
		{
			"buffer":0,
			"byteLength":74412,
			"byteOffset":1095512,
			"target":34963
		},
		{
			"buffer":0,
			"byteLength":162360,
			"byteOffset":1169924,
			"target":34962
		},
		{
			"buffer":0,
			"byteLength":162360,
			"byteOffset":1332284,
			"target":34962
		},
		{
			"buffer":0,
			"byteLength":108240,
			"byteOffset":1494644,
			"target":34962
		},
		{
			"buffer":0,
			"byteLength":54120,
			"byteOffset":1602884,
			"target":34962
		},
		{
			"buffer":0,
			"byteLength":108240,
			"byteOffset":1657004,
			"target":34962
		},
		{
			"buffer":0,
			"byteLength":40128,
			"byteOffset":1765244,
			"target":34963
		},
		{
			"buffer":0,
			"byteLength":87132,
			"byteOffset":1805372,
			"target":34962
		},
		{
			"buffer":0,
			"byteLength":87132,
			"byteOffset":1892504,
			"target":34962
		},
		{
			"buffer":0,
			"byteLength":58088,
			"byteOffset":1979636,
			"target":34962
		},
		{
			"buffer":0,
			"byteLength":29044,
			"byteOffset":2037724,
			"target":34962
		},
		{
			"buffer":0,
			"byteLength":58088,
			"byteOffset":2066768,
			"target":34962
		},
		{
			"buffer":0,
			"byteLength":20928,
			"byteOffset":2124856,
			"target":34963
		},
		{
			"buffer":0,
			"byteLength":288,
			"byteOffset":2145784,
			"target":34962
		},
		{
			"buffer":0,
			"byteLength":288,
			"byteOffset":2146072,
			"target":34962
		},
		{
			"buffer":0,
			"byteLength":192,
			"byteOffset":2146360,
			"target":34962
		},
		{
			"buffer":0,
			"byteLength":96,
			"byteOffset":2146552,
			"target":34962
		},
		{
			"buffer":0,
			"byteLength":192,
			"byteOffset":2146648,
			"target":34962
		},
		{
			"buffer":0,
			"byteLength":96,
			"byteOffset":2146840,
			"target":34963
		},
		{
			"buffer":0,
			"byteLength":4476,
			"byteOffset":2146936,
			"target":34962
		},
		{
			"buffer":0,
			"byteLength":4476,
			"byteOffset":2151412,
			"target":34962
		},
		{
			"buffer":0,
			"byteLength":2984,
			"byteOffset":2155888,
			"target":34962
		},
		{
			"buffer":0,
			"byteLength":1492,
			"byteOffset":2158872,
			"target":34962
		},
		{
			"buffer":0,
			"byteLength":2984,
			"byteOffset":2160364,
			"target":34962
		},
		{
			"buffer":0,
			"byteLength":1620,
			"byteOffset":2163348,
			"target":34963
		},
		{
			"buffer":0,
			"byteLength":3876,
			"byteOffset":2164968,
			"target":34962
		},
		{
			"buffer":0,
			"byteLength":3876,
			"byteOffset":2168844,
			"target":34962
		},
		{
			"buffer":0,
			"byteLength":2584,
			"byteOffset":2172720,
			"target":34962
		},
		{
			"buffer":0,
			"byteLength":1292,
			"byteOffset":2175304,
			"target":34962
		},
		{
			"buffer":0,
			"byteLength":2584,
			"byteOffset":2176596,
			"target":34962
		},
		{
			"buffer":0,
			"byteLength":1344,
			"byteOffset":2179180,
			"target":34963
		},
		{
			"buffer":0,
			"byteLength":1512,
			"byteOffset":2180524,
			"target":34962
		},
		{
			"buffer":0,
			"byteLength":1512,
			"byteOffset":2182036,
			"target":34962
		},
		{
			"buffer":0,
			"byteLength":1008,
			"byteOffset":2183548,
			"target":34962
		},
		{
			"buffer":0,
			"byteLength":504,
			"byteOffset":2184556,
			"target":34962
		},
		{
			"buffer":0,
			"byteLength":1008,
			"byteOffset":2185060,
			"target":34962
		},
		{
			"buffer":0,
			"byteLength":420,
			"byteOffset":2186068,
			"target":34963
		}
	],
	"buffers":[
		{
			"byteLength":2186488,
			"uri":"swamp_SM_Env_Tree_Swamp_03.bin"
		}
	]
}
