{"asset":{"generator":"Khronos glTF Blender I/O v4.4.55","version":"2.0"},"extensionsUsed":["EXT_texture_webp"],"extensionsRequired":["EXT_texture_webp"],"scene":0,"scenes":[{"name":"Scene","nodes":[0]}],"nodes":[{"mesh":0,"name":"SM_Wep_Dagger_04","rotation":[0.7071068286895752,0,0,0.7071068286895752],"scale":[0.009999999776482582,0.009999999776482582,0.009999999776482582]}],"materials":[{"doubleSided":true,"name":"SciFiCrate_MAT","pbrMetallicRoughness":{"baseColorTexture":{"index":1},"metallicFactor":0,"roughnessFactor":0.5527864098548889}}],"meshes":[{"name":"Mesh","primitives":[{"attributes":{"POSITION":0,"NORMAL":1,"TEXCOORD_0":2},"indices":3,"material":0}]}],"textures":[{"extensions":{},"sampler":0},{"extensions":{"EXT_texture_webp":{"source":0}},"sampler":0}],"images":[{"mimeType":"image/webp","name":"PolygonScifiWorlds_Texture_01_A","uri":"PolygonScifiWorlds_Texture_01_A.webp"}],"accessors":[{"bufferView":0,"componentType":5126,"count":716,"max":[2.1431617736816406,11.695343017578125,10.50555419921875],"min":[-2.1431617736816406,-4.4271240234375,-42.081268310546875],"type":"VEC3"},{"bufferView":1,"componentType":5126,"count":716,"type":"VEC3"},{"bufferView":2,"componentType":5126,"count":716,"type":"VEC2"},{"bufferView":3,"componentType":5123,"count":1206,"type":"SCALAR"}],"bufferViews":[{"buffer":0,"byteLength":8592,"byteOffset":0,"target":34962},{"buffer":0,"byteLength":8592,"byteOffset":8592,"target":34962},{"buffer":0,"byteLength":5728,"byteOffset":17184,"target":34962},{"buffer":0,"byteLength":2412,"byteOffset":22912,"target":34963}],"samplers":[{"magFilter":9729,"minFilter":9987}],"buffers":[{"byteLength":25324,"uri":"worlds_SM_Wep_Dagger_04.bin"}]}