{
	"asset":{
		"generator":"Khronos glTF Blender I/O v4.4.55",
		"version":"2.0"
	},
	"extensionsUsed":[
		"EXT_texture_webp"
	],
	"extensionsRequired":[
		"EXT_texture_webp"
	],
	"scene":0,
	"scenes":[
		{
			"name":"Scene",
			"nodes":[
				4
			]
		}
	],
	"nodes":[
		{
			"mesh":0,
			"name":"SM_Wep_Shotgun_03_Forestock_01"
		},
		{
			"mesh":1,
			"name":"SM_Wep_Shotgun_03_Trigger_01"
		},
		{
			"mesh":2,
			"name":"SM_Wep_Shotgun_05_Cell_01"
		},
		{
			"mesh":3,
			"name":"SM_Wep_Shotgun_05_Cell_02"
		},
		{
			"children":[
				0,
				1,
				2,
				3
			],
			"mesh":4,
			"name":"SM_Wep_Shotgun_03",
			"rotation":[
				0.7071068286895752,
				0,
				0,
				0.7071068286895752
			],
			"scale":[
				0.009999999776482582,
				0.009999999776482582,
				0.009999999776482582
			]
		}
	],
	"materials":[
		{
			"doubleSided":true,
			"name":"Clip1:SM_Prop_Crate_03SG1",
			"normalTexture":{
				"index":0
			},
			"pbrMetallicRoughness":{
				"baseColorTexture":{
					"index":1
				},
				"metallicFactor":0,
				"roughnessFactor":0.5527864098548889
			}
		}
	],
	"meshes":[
		{
			"name":"Mesh.001",
			"primitives":[
				{
					"attributes":{
						"POSITION":0,
						"NORMAL":1,
						"TEXCOORD_0":2
					},
					"indices":3,
					"material":0
				}
			]
		},
		{
			"name":"Mesh.004",
			"primitives":[
				{
					"attributes":{
						"POSITION":4,
						"NORMAL":5,
						"TEXCOORD_0":6
					},
					"indices":7,
					"material":0
				}
			]
		},
		{
			"name":"Mesh.002",
			"primitives":[
				{
					"attributes":{
						"POSITION":8,
						"NORMAL":9,
						"TEXCOORD_0":10
					},
					"indices":11,
					"material":0
				}
			]
		},
		{
			"name":"Mesh.003",
			"primitives":[
				{
					"attributes":{
						"POSITION":12,
						"NORMAL":13,
						"TEXCOORD_0":14
					},
					"indices":11,
					"material":0
				}
			]
		},
		{
			"name":"Mesh",
			"primitives":[
				{
					"attributes":{
						"POSITION":15,
						"NORMAL":16,
						"TEXCOORD_0":17
					},
					"indices":18,
					"material":0
				}
			]
		}
	],
	"textures":[
		{
			"extensions":{},
			"sampler":0
		},
		{
			"extensions":{
				"EXT_texture_webp":{
					"source":0
				}
			},
			"sampler":0
		}
	],
	"images":[
		{
			"mimeType":"image/webp",
			"name":"PolygonScifiWorlds_Texture_01_A",
			"uri":"PolygonScifiWorlds_Texture_01_A.webp"
		}
	],
	"accessors":[
		{
			"bufferView":0,
			"componentType":5126,
			"count":120,
			"max":[
				3.3909480571746826,
				48.561492919921875,
				1.571089506149292
			],
			"min":[
				-3.3909480571746826,
				32.04636764526367,
				-3.764742851257324
			],
			"type":"VEC3"
		},
		{
			"bufferView":1,
			"componentType":5126,
			"count":120,
			"type":"VEC3"
		},
		{
			"bufferView":2,
			"componentType":5126,
			"count":120,
			"type":"VEC2"
		},
		{
			"bufferView":3,
			"componentType":5123,
			"count":192,
			"type":"SCALAR"
		},
		{
			"bufferView":4,
			"componentType":5126,
			"count":68,
			"max":[
				0.45729342103004456,
				8.044376373291016,
				3.460965156555176
			],
			"min":[
				-0.45729342103004456,
				4.23198938369751,
				-0.3153195381164551
			],
			"type":"VEC3"
		},
		{
			"bufferView":5,
			"componentType":5126,
			"count":68,
			"type":"VEC3"
		},
		{
			"bufferView":6,
			"componentType":5126,
			"count":68,
			"type":"VEC2"
		},
		{
			"bufferView":7,
			"componentType":5123,
			"count":108,
			"type":"SCALAR"
		},
		{
			"bufferView":8,
			"componentType":5126,
			"count":300,
			"max":[
				7.55214786529541,
				21.532344818115234,
				-11.539871215820312
			],
			"min":[
				1.498568058013916,
				17.15511703491211,
				-19.038345336914062
			],
			"type":"VEC3"
		},
		{
			"bufferView":9,
			"componentType":5126,
			"count":300,
			"type":"VEC3"
		},
		{
			"bufferView":10,
			"componentType":5126,
			"count":300,
			"type":"VEC2"
		},
		{
			"bufferView":11,
			"componentType":5123,
			"count":516,
			"type":"SCALAR"
		},
		{
			"bufferView":12,
			"componentType":5126,
			"count":300,
			"max":[
				7.55214786529541,
				16.57168960571289,
				-11.539871215820312
			],
			"min":[
				1.498568058013916,
				12.194461822509766,
				-19.038345336914062
			],
			"type":"VEC3"
		},
		{
			"bufferView":13,
			"componentType":5126,
			"count":300,
			"type":"VEC3"
		},
		{
			"bufferView":14,
			"componentType":5126,
			"count":300,
			"type":"VEC2"
		},
		{
			"bufferView":15,
			"componentType":5126,
			"count":1550,
			"max":[
				4.465845108032227,
				80.1798095703125,
				12.055381774902344
			],
			"min":[
				-4.4070539474487305,
				-26.144874572753906,
				-12.617227554321289
			],
			"type":"VEC3"
		},
		{
			"bufferView":16,
			"componentType":5126,
			"count":1550,
			"type":"VEC3"
		},
		{
			"bufferView":17,
			"componentType":5126,
			"count":1550,
			"type":"VEC2"
		},
		{
			"bufferView":18,
			"componentType":5123,
			"count":2730,
			"type":"SCALAR"
		}
	],
	"bufferViews":[
		{
			"buffer":0,
			"byteLength":1440,
			"byteOffset":0,
			"target":34962
		},
		{
			"buffer":0,
			"byteLength":1440,
			"byteOffset":1440,
			"target":34962
		},
		{
			"buffer":0,
			"byteLength":960,
			"byteOffset":2880,
			"target":34962
		},
		{
			"buffer":0,
			"byteLength":384,
			"byteOffset":3840,
			"target":34963
		},
		{
			"buffer":0,
			"byteLength":816,
			"byteOffset":4224,
			"target":34962
		},
		{
			"buffer":0,
			"byteLength":816,
			"byteOffset":5040,
			"target":34962
		},
		{
			"buffer":0,
			"byteLength":544,
			"byteOffset":5856,
			"target":34962
		},
		{
			"buffer":0,
			"byteLength":216,
			"byteOffset":6400,
			"target":34963
		},
		{
			"buffer":0,
			"byteLength":3600,
			"byteOffset":6616,
			"target":34962
		},
		{
			"buffer":0,
			"byteLength":3600,
			"byteOffset":10216,
			"target":34962
		},
		{
			"buffer":0,
			"byteLength":2400,
			"byteOffset":13816,
			"target":34962
		},
		{
			"buffer":0,
			"byteLength":1032,
			"byteOffset":16216,
			"target":34963
		},
		{
			"buffer":0,
			"byteLength":3600,
			"byteOffset":17248,
			"target":34962
		},
		{
			"buffer":0,
			"byteLength":3600,
			"byteOffset":20848,
			"target":34962
		},
		{
			"buffer":0,
			"byteLength":2400,
			"byteOffset":24448,
			"target":34962
		},
		{
			"buffer":0,
			"byteLength":18600,
			"byteOffset":26848,
			"target":34962
		},
		{
			"buffer":0,
			"byteLength":18600,
			"byteOffset":45448,
			"target":34962
		},
		{
			"buffer":0,
			"byteLength":12400,
			"byteOffset":64048,
			"target":34962
		},
		{
			"buffer":0,
			"byteLength":5460,
			"byteOffset":76448,
			"target":34963
		}
	],
	"samplers":[
		{
			"magFilter":9729,
			"minFilter":9987
		}
	],
	"buffers":[
		{
			"byteLength":81908,
			"uri":"worlds_SM_Wep_Shotgun_03.bin"
		}
	]
}
