{"asset":{"generator":"Khronos glTF Blender I/O v4.4.55","version":"2.0"},"extensionsUsed":["EXT_texture_webp"],"extensionsRequired":["EXT_texture_webp"],"scene":0,"scenes":[{"name":"Scene","nodes":[0]}],"nodes":[{"mesh":0,"name":"SM_Prop_Scav_Scrap_43","rotation":[0.7071068286895752,0,0,0.7071068286895752],"scale":[0.009999999776482582,0.009999999776482582,0.009999999776482582]}],"materials":[{"doubleSided":true,"name":"SciFi_Planets_SHD","pbrMetallicRoughness":{"baseColorTexture":{"index":1},"metallicFactor":0,"roughnessFactor":0.5527864098548889}}],"meshes":[{"name":"Mesh","primitives":[{"attributes":{"POSITION":0,"NORMAL":1,"TEXCOORD_0":2},"indices":3,"material":0}]}],"textures":[{"extensions":{},"sampler":0},{"extensions":{"EXT_texture_webp":{"source":0}},"sampler":0}],"images":[{"mimeType":"image/webp","name":"PolygonScifiWorlds_Texture_01_A","uri":"PolygonScifiWorlds_Texture_01_A.webp"}],"accessors":[{"bufferView":0,"componentType":5126,"count":880,"max":[101.90211486816406,87.08209228515625,16.825164794921875],"min":[-100.78372192382812,-102.24957275390625,-19.22385025024414],"type":"VEC3"},{"bufferView":1,"componentType":5126,"count":880,"type":"VEC3"},{"bufferView":2,"componentType":5126,"count":880,"type":"VEC2"},{"bufferView":3,"componentType":5123,"count":1278,"type":"SCALAR"}],"bufferViews":[{"buffer":0,"byteLength":10560,"byteOffset":0,"target":34962},{"buffer":0,"byteLength":10560,"byteOffset":10560,"target":34962},{"buffer":0,"byteLength":7040,"byteOffset":21120,"target":34962},{"buffer":0,"byteLength":2556,"byteOffset":28160,"target":34963}],"samplers":[{"magFilter":9729,"minFilter":9987}],"buffers":[{"byteLength":30716,"uri":"worlds_SM_Prop_Scav_Scrap_43.bin"}]}