{
	"asset":{
		"generator":"Khronos glTF Blender I/O v4.4.55",
		"version":"2.0"
	},
	"extensionsUsed":[
		"EXT_texture_webp"
	],
	"extensionsRequired":[
		"EXT_texture_webp"
	],
	"scene":0,
	"scenes":[
		{
			"name":"Scene",
			"nodes":[
				0
			]
		}
	],
	"nodes":[
		{
			"mesh":0,
			"name":"SM_Prop_Junky_Female_05",
			"rotation":[
				0.7071068286895752,
				0,
				0,
				0.7071068286895752
			],
			"scale":[
				0.009999999776482582,
				0.009999999776482582,
				0.009999999776482582
			]
		}
	],
	"materials":[
		{
			"doubleSided":true,
			"name":"_SciFi_Planets_SHD_Jason",
			"pbrMetallicRoughness":{
				"baseColorTexture":{
					"index":0
				},
				"metallicFactor":0,
				"roughnessFactor":0.5527864098548889
			}
		}
	],
	"meshes":[
		{
			"name":"Mesh",
			"primitives":[
				{
					"attributes":{
						"POSITION":0,
						"NORMAL":1,
						"TEXCOORD_0":2,
						"TEXCOORD_1":3,
						"TEXCOORD_2":4
					},
					"indices":5,
					"material":0
				}
			]
		}
	],
	"textures":[
		{
			"extensions":{
				"EXT_texture_webp":{
					"source":0
				}
			},
			"sampler":0
		}
	],
	"images":[
		{
			"mimeType":"image/webp",
			"name":"PolygonScifiWorlds_Texture_01_A",
			"uri":"PolygonScifiWorlds_Texture_01_A.webp"
		}
	],
	"accessors":[
		{
			"bufferView":0,
			"componentType":5126,
			"count":5752,
			"max":[
				58.26517105102539,
				59.417762756347656,
				5.654136657714844
			],
			"min":[
				-65.7354965209961,
				-39.139854431152344,
				-90.78355407714844
			],
			"type":"VEC3"
		},
		{
			"bufferView":1,
			"componentType":5126,
			"count":5752,
			"type":"VEC3"
		},
		{
			"bufferView":2,
			"componentType":5126,
			"count":5752,
			"type":"VEC2"
		},
		{
			"bufferView":3,
			"componentType":5126,
			"count":5752,
			"type":"VEC2"
		},
		{
			"bufferView":4,
			"componentType":5126,
			"count":5752,
			"type":"VEC2"
		},
		{
			"bufferView":5,
			"componentType":5123,
			"count":8256,
			"type":"SCALAR"
		}
	],
	"bufferViews":[
		{
			"buffer":0,
			"byteLength":69024,
			"byteOffset":0,
			"target":34962
		},
		{
			"buffer":0,
			"byteLength":69024,
			"byteOffset":69024,
			"target":34962
		},
		{
			"buffer":0,
			"byteLength":46016,
			"byteOffset":138048,
			"target":34962
		},
		{
			"buffer":0,
			"byteLength":46016,
			"byteOffset":184064,
			"target":34962
		},
		{
			"buffer":0,
			"byteLength":46016,
			"byteOffset":230080,
			"target":34962
		},
		{
			"buffer":0,
			"byteLength":16512,
			"byteOffset":276096,
			"target":34963
		}
	],
	"samplers":[
		{
			"magFilter":9729,
			"minFilter":9987
		}
	],
	"buffers":[
		{
			"byteLength":292608,
			"uri":"worlds_SM_Prop_Junky_Female_05.bin"
		}
	]
}
