{"asset":{"generator":"Khronos glTF Blender I/O v4.4.55","version":"2.0"},"extensionsUsed":["EXT_texture_webp"],"extensionsRequired":["EXT_texture_webp"],"scene":0,"scenes":[{"name":"Scene","nodes":[0]}],"nodes":[{"mesh":0,"name":"SM_Prop_Scav_Scrap_Pile_04","rotation":[0.7071068286895752,0,0,0.7071068286895752],"scale":[0.009999999776482582,0.009999999776482582,0.009999999776482582]}],"materials":[{"doubleSided":true,"name":"lambert9","pbrMetallicRoughness":{"baseColorTexture":{"index":0},"metallicFactor":0,"roughnessFactor":0.5527864098548889}},{"doubleSided":true,"name":"SciFi_Planets_SHD_Scav","pbrMetallicRoughness":{"baseColorTexture":{"index":2},"metallicFactor":0,"roughnessFactor":0.5527864098548889}}],"meshes":[{"name":"Mesh","primitives":[{"attributes":{"POSITION":0,"NORMAL":1,"TEXCOORD_0":2,"TEXCOORD_1":3,"TEXCOORD_2":4,"TEXCOORD_3":5},"indices":6,"material":0},{"attributes":{"POSITION":7,"NORMAL":8,"TEXCOORD_0":9,"TEXCOORD_1":10,"TEXCOORD_2":11,"TEXCOORD_3":12},"indices":13,"material":1}]}],"textures":[{"extensions":{"EXT_texture_webp":{"source":0}},"sampler":0},{"extensions":{},"sampler":0},{"extensions":{"EXT_texture_webp":{"source":1}},"sampler":0}],"images":[{"mimeType":"image/webp","name":"Junk_Texture_01","uri":"Junk_Texture_01.webp"},{"mimeType":"image/webp","name":"PolygonScifiWorlds_Texture_01_A","uri":"PolygonScifiWorlds_Texture_01_A.webp"}],"accessors":[{"bufferView":0,"componentType":5126,"count":146,"max":[1147.13623046875,983.1593017578125,3.3610267347050637e-18],"min":[-1073.64501953125,-964.4502563476562,-229.5811767578125],"type":"VEC3"},{"bufferView":1,"componentType":5126,"count":146,"type":"VEC3"},{"bufferView":2,"componentType":5126,"count":146,"type":"VEC2"},{"bufferView":3,"componentType":5126,"count":146,"type":"VEC2"},{"bufferView":4,"componentType":5126,"count":146,"type":"VEC2"},{"bufferView":5,"componentType":5126,"count":146,"type":"VEC2"},{"bufferView":6,"componentType":5123,"count":237,"type":"SCALAR"},{"bufferView":7,"componentType":5126,"count":5855,"max":[1101.541015625,987.3870849609375,37.360050201416016],"min":[-1147.13623046875,-987.3872680664062,-1083.848876953125],"type":"VEC3"},{"bufferView":8,"componentType":5126,"count":5855,"type":"VEC3"},{"bufferView":9,"componentType":5126,"count":5855,"type":"VEC2"},{"bufferView":10,"componentType":5126,"count":5855,"type":"VEC2"},{"bufferView":11,"componentType":5126,"count":5855,"type":"VEC2"},{"bufferView":12,"componentType":5126,"count":5855,"type":"VEC2"},{"bufferView":13,"componentType":5123,"count":9225,"type":"SCALAR"}],"bufferViews":[{"buffer":0,"byteLength":1752,"byteOffset":0,"target":34962},{"buffer":0,"byteLength":1752,"byteOffset":1752,"target":34962},{"buffer":0,"byteLength":1168,"byteOffset":3504,"target":34962},{"buffer":0,"byteLength":1168,"byteOffset":4672,"target":34962},{"buffer":0,"byteLength":1168,"byteOffset":5840,"target":34962},{"buffer":0,"byteLength":1168,"byteOffset":7008,"target":34962},{"buffer":0,"byteLength":474,"byteOffset":8176,"target":34963},{"buffer":0,"byteLength":70260,"byteOffset":8652,"target":34962},{"buffer":0,"byteLength":70260,"byteOffset":78912,"target":34962},{"buffer":0,"byteLength":46840,"byteOffset":149172,"target":34962},{"buffer":0,"byteLength":46840,"byteOffset":196012,"target":34962},{"buffer":0,"byteLength":46840,"byteOffset":242852,"target":34962},{"buffer":0,"byteLength":46840,"byteOffset":289692,"target":34962},{"buffer":0,"byteLength":18450,"byteOffset":336532,"target":34963}],"samplers":[{"magFilter":9729,"minFilter":9987}],"buffers":[{"byteLength":354984,"uri":"worlds_SM_Prop_Scav_Scrap_Pile_04.bin"}]}