{"asset":{"generator":"Khronos glTF Blender I/O v4.4.55","version":"2.0"},"extensionsUsed":["EXT_texture_webp"],"extensionsRequired":["EXT_texture_webp"],"scene":0,"scenes":[{"name":"Scene","nodes":[5]}],"nodes":[{"mesh":0,"name":"SM_Prop_BackbackSatellite_01_Lid_01"},{"mesh":1,"name":"SM_Prop_BackbackSatellite_01_Dish_01"},{"children":[1],"mesh":2,"name":"SM_Prop_BackbackSatellite_01_Arm_02"},{"children":[2],"mesh":3,"name":"SM_Prop_BackbackSatellite_01_Arm_01"},{"children":[3],"mesh":4,"name":"SM_Prop_BackbackSatellite_01_Swivel_01"},{"children":[0,4],"mesh":5,"name":"SM_Prop_BackbackSatellite_01","rotation":[0.7071068286895752,0,0,0.7071068286895752],"scale":[0.009999999776482582,0.009999999776482582,0.009999999776482582]}],"materials":[{"doubleSided":true,"name":"SciFiCrate_MAT","pbrMetallicRoughness":{"baseColorTexture":{"index":1},"metallicFactor":0,"roughnessFactor":0.5527864098548889}}],"meshes":[{"name":"Mesh.001","primitives":[{"attributes":{"POSITION":0,"NORMAL":1,"TEXCOORD_0":2},"indices":3,"material":0}]},{"name":"Mesh.005","primitives":[{"attributes":{"POSITION":4,"NORMAL":5,"TEXCOORD_0":6},"indices":7,"material":0}]},{"name":"Mesh.004","primitives":[{"attributes":{"POSITION":8,"NORMAL":9,"TEXCOORD_0":10},"indices":11,"material":0}]},{"name":"Mesh.003","primitives":[{"attributes":{"POSITION":12,"NORMAL":13,"TEXCOORD_0":14},"indices":15,"material":0}]},{"name":"Mesh.002","primitives":[{"attributes":{"POSITION":16,"NORMAL":17,"TEXCOORD_0":18},"indices":19,"material":0}]},{"name":"Mesh","primitives":[{"attributes":{"POSITION":20,"NORMAL":21,"TEXCOORD_0":22},"indices":23,"material":0}]}],"textures":[{"extensions":{},"sampler":0},{"extensions":{"EXT_texture_webp":{"source":0}},"sampler":0}],"images":[{"mimeType":"image/webp","name":"PolygonScifiWorlds_Texture_01_A","uri":"PolygonScifiWorlds_Texture_01_A.webp"}],"accessors":[{"bufferView":0,"componentType":5126,"count":1016,"max":[26.962890625,-10.54248046875,36.21631622314453],"min":[-26.962890625,-32.522216796875,-9.772102355957031],"type":"VEC3"},{"bufferView":1,"componentType":5126,"count":1016,"type":"VEC3"},{"bufferView":2,"componentType":5126,"count":1016,"type":"VEC2"},{"bufferView":3,"componentType":5123,"count":1794,"type":"SCALAR"},{"bufferView":4,"componentType":5126,"count":416,"max":[11.88427734375,-15.152099609375,17.090232849121094],"min":[-11.88427734375,-27.308837890625,-6.6747589111328125],"type":"VEC3"},{"bufferView":5,"componentType":5126,"count":416,"type":"VEC3"},{"bufferView":6,"componentType":5126,"count":416,"type":"VEC2"},{"bufferView":7,"componentType":5123,"count":672,"type":"SCALAR"},{"bufferView":8,"componentType":5126,"count":359,"max":[6.28564453125,-11.4365234375,31.91029930114746],"min":[-6.28564453125,-22.56640625,3.749317169189453],"type":"VEC3"},{"bufferView":9,"componentType":5126,"count":359,"type":"VEC3"},{"bufferView":10,"componentType":5126,"count":359,"type":"VEC2"},{"bufferView":11,"componentType":5123,"count":678,"type":"SCALAR"},{"bufferView":12,"componentType":5126,"count":345,"max":[4.52392578125,-8.70947265625,27.529315948486328],"min":[-4.52392578125,-19.3818359375,-0.6053287982940674],"type":"VEC3"},{"bufferView":13,"componentType":5126,"count":345,"type":"VEC3"},{"bufferView":14,"componentType":5126,"count":345,"type":"VEC2"},{"bufferView":15,"componentType":5123,"count":642,"type":"SCALAR"},{"bufferView":16,"componentType":5126,"count":151,"max":[7.7685546875,-6.529296875,11.089622497558594],"min":[-7.7685546875,-17.18603515625,-4.447944641113281],"type":"VEC3"},{"bufferView":17,"componentType":5126,"count":151,"type":"VEC3"},{"bufferView":18,"componentType":5126,"count":151,"type":"VEC2"},{"bufferView":19,"componentType":5123,"count":288,"type":"SCALAR"},{"bufferView":20,"componentType":5126,"count":1166,"max":[17.818359375,-0.0400390625,50.86110305786133],"min":[-17.818359375,-22.671142578125,-50.861106872558594],"type":"VEC3"},{"bufferView":21,"componentType":5126,"count":1166,"type":"VEC3"},{"bufferView":22,"componentType":5126,"count":1166,"type":"VEC2"},{"bufferView":23,"componentType":5123,"count":2094,"type":"SCALAR"}],"bufferViews":[{"buffer":0,"byteLength":12192,"byteOffset":0,"target":34962},{"buffer":0,"byteLength":12192,"byteOffset":12192,"target":34962},{"buffer":0,"byteLength":8128,"byteOffset":24384,"target":34962},{"buffer":0,"byteLength":3588,"byteOffset":32512,"target":34963},{"buffer":0,"byteLength":4992,"byteOffset":36100,"target":34962},{"buffer":0,"byteLength":4992,"byteOffset":41092,"target":34962},{"buffer":0,"byteLength":3328,"byteOffset":46084,"target":34962},{"buffer":0,"byteLength":1344,"byteOffset":49412,"target":34963},{"buffer":0,"byteLength":4308,"byteOffset":50756,"target":34962},{"buffer":0,"byteLength":4308,"byteOffset":55064,"target":34962},{"buffer":0,"byteLength":2872,"byteOffset":59372,"target":34962},{"buffer":0,"byteLength":1356,"byteOffset":62244,"target":34963},{"buffer":0,"byteLength":4140,"byteOffset":63600,"target":34962},{"buffer":0,"byteLength":4140,"byteOffset":67740,"target":34962},{"buffer":0,"byteLength":2760,"byteOffset":71880,"target":34962},{"buffer":0,"byteLength":1284,"byteOffset":74640,"target":34963},{"buffer":0,"byteLength":1812,"byteOffset":75924,"target":34962},{"buffer":0,"byteLength":1812,"byteOffset":77736,"target":34962},{"buffer":0,"byteLength":1208,"byteOffset":79548,"target":34962},{"buffer":0,"byteLength":576,"byteOffset":80756,"target":34963},{"buffer":0,"byteLength":13992,"byteOffset":81332,"target":34962},{"buffer":0,"byteLength":13992,"byteOffset":95324,"target":34962},{"buffer":0,"byteLength":9328,"byteOffset":109316,"target":34962},{"buffer":0,"byteLength":4188,"byteOffset":118644,"target":34963}],"samplers":[{"magFilter":9729,"minFilter":9987}],"buffers":[{"byteLength":122832,"uri":"worlds_SM_Prop_BackbackSatellite_01.bin"}]}