{"asset":{"generator":"Khronos glTF Blender I/O v4.4.55","version":"2.0"},"extensionsUsed":["EXT_texture_webp"],"extensionsRequired":["EXT_texture_webp"],"scene":0,"scenes":[{"name":"Scene","nodes":[0]}],"nodes":[{"mesh":0,"name":"SM_Prop_Scav_Scrap_46","rotation":[0.7071068286895752,0,0,0.7071068286895752],"scale":[0.009999999776482582,0.009999999776482582,0.009999999776482582]}],"materials":[{"doubleSided":true,"name":"SciFi_Planets_SHD","pbrMetallicRoughness":{"baseColorTexture":{"index":1},"metallicFactor":0,"roughnessFactor":0.5527864098548889}}],"meshes":[{"name":"Mesh","primitives":[{"attributes":{"POSITION":0,"NORMAL":1,"TEXCOORD_0":2},"indices":3,"material":0}]}],"textures":[{"extensions":{},"sampler":0},{"extensions":{"EXT_texture_webp":{"source":0}},"sampler":0}],"images":[{"mimeType":"image/webp","name":"PolygonScifiWorlds_Texture_01_A","uri":"PolygonScifiWorlds_Texture_01_A.webp"}],"accessors":[{"bufferView":0,"componentType":5126,"count":562,"max":[23.39501953125,89.52899169921875,17.850135803222656],"min":[-28.275146484375,-113.93927764892578,-75.0730209350586],"type":"VEC3"},{"bufferView":1,"componentType":5126,"count":562,"type":"VEC3"},{"bufferView":2,"componentType":5126,"count":562,"type":"VEC2"},{"bufferView":3,"componentType":5123,"count":864,"type":"SCALAR"}],"bufferViews":[{"buffer":0,"byteLength":6744,"byteOffset":0,"target":34962},{"buffer":0,"byteLength":6744,"byteOffset":6744,"target":34962},{"buffer":0,"byteLength":4496,"byteOffset":13488,"target":34962},{"buffer":0,"byteLength":1728,"byteOffset":17984,"target":34963}],"samplers":[{"magFilter":9729,"minFilter":9987}],"buffers":[{"byteLength":19712,"uri":"worlds_SM_Prop_Scav_Scrap_46.bin"}]}