{
	"asset":{
		"generator":"Khronos glTF Blender I/O v4.4.55",
		"version":"2.0"
	},
	"extensionsUsed":[
		"EXT_texture_webp"
	],
	"extensionsRequired":[
		"EXT_texture_webp"
	],
	"scene":0,
	"scenes":[
		{
			"name":"Scene",
			"nodes":[
				0
			]
		}
	],
	"nodes":[
		{
			"mesh":0,
			"name":"SM_Env_Skeleton_Preset_01",
			"rotation":[
				0.7071068286895752,
				0,
				0,
				0.7071068286895752
			],
			"scale":[
				0.009999999776482582,
				0.009999999776482582,
				0.009999999776482582
			]
		}
	],
	"materials":[
		{
			"doubleSided":true,
			"name":"lambert2",
			"pbrMetallicRoughness":{
				"baseColorTexture":{
					"index":0
				},
				"metallicFactor":0,
				"roughnessFactor":0.5527864098548889
			}
		}
	],
	"meshes":[
		{
			"name":"Mesh",
			"primitives":[
				{
					"attributes":{
						"POSITION":0,
						"NORMAL":1,
						"TEXCOORD_0":2
					},
					"indices":3,
					"material":0
				}
			]
		}
	],
	"textures":[
		{
			"extensions":{
				"EXT_texture_webp":{
					"source":0
				}
			},
			"sampler":0
		}
	],
	"images":[
		{
			"mimeType":"image/webp",
			"name":"PolygonScifiWorlds_Texture_01_A",
			"uri":"PolygonScifiWorlds_Texture_01_A.webp"
		}
	],
	"accessors":[
		{
			"bufferView":0,
			"componentType":5126,
			"count":38195,
			"max":[
				25453.193359375,
				5682.9169921875,
				557.5537109375
			],
			"min":[
				-9787.916015625,
				-35142.9375,
				-14654.2490234375
			],
			"type":"VEC3"
		},
		{
			"bufferView":1,
			"componentType":5126,
			"count":38195,
			"type":"VEC3"
		},
		{
			"bufferView":2,
			"componentType":5126,
			"count":38195,
			"type":"VEC2"
		},
		{
			"bufferView":3,
			"componentType":5123,
			"count":39426,
			"type":"SCALAR"
		}
	],
	"bufferViews":[
		{
			"buffer":0,
			"byteLength":458340,
			"byteOffset":0,
			"target":34962
		},
		{
			"buffer":0,
			"byteLength":458340,
			"byteOffset":458340,
			"target":34962
		},
		{
			"buffer":0,
			"byteLength":305560,
			"byteOffset":916680,
			"target":34962
		},
		{
			"buffer":0,
			"byteLength":78852,
			"byteOffset":1222240,
			"target":34963
		}
	],
	"samplers":[
		{
			"magFilter":9729,
			"minFilter":9987
		}
	],
	"buffers":[
		{
			"byteLength":1301092,
			"uri":"worlds_SM_Env_Skeleton_Preset_01.bin"
		}
	]
}
