{"asset":{"generator":"Khronos glTF Blender I/O v4.4.55","version":"2.0"},"extensionsUsed":["EXT_texture_webp"],"extensionsRequired":["EXT_texture_webp"],"scene":0,"scenes":[{"name":"Scene","nodes":[0]}],"nodes":[{"mesh":0,"name":"SM_Bld_Scav_Refinery_Pipe_02_Pillar_02","rotation":[0.7071068286895752,0,0,0.7071068286895752],"scale":[0.009999999776482582,0.009999999776482582,0.009999999776482582]}],"materials":[{"doubleSided":true,"name":"SciFi_Planets_SHD","pbrMetallicRoughness":{"baseColorTexture":{"index":1},"metallicFactor":0,"roughnessFactor":0.5527864098548889}}],"meshes":[{"name":"Mesh","primitives":[{"attributes":{"POSITION":0,"NORMAL":1,"TEXCOORD_0":2},"indices":3,"material":0}]}],"textures":[{"extensions":{},"sampler":0},{"extensions":{"EXT_texture_webp":{"source":0}},"sampler":0}],"images":[{"mimeType":"image/webp","name":"PolygonScifiWorlds_Texture_01_A","uri":"PolygonScifiWorlds_Texture_01_A.webp"}],"accessors":[{"bufferView":0,"componentType":5126,"count":1813,"max":[197.44772338867188,142.7847900390625,714.5558471679688],"min":[-197.44775390625,-142.78466796875,-388.20770263671875],"type":"VEC3"},{"bufferView":1,"componentType":5126,"count":1813,"type":"VEC3"},{"bufferView":2,"componentType":5126,"count":1813,"type":"VEC2"},{"bufferView":3,"componentType":5123,"count":2952,"type":"SCALAR"}],"bufferViews":[{"buffer":0,"byteLength":21756,"byteOffset":0,"target":34962},{"buffer":0,"byteLength":21756,"byteOffset":21756,"target":34962},{"buffer":0,"byteLength":14504,"byteOffset":43512,"target":34962},{"buffer":0,"byteLength":5904,"byteOffset":58016,"target":34963}],"samplers":[{"magFilter":9729,"minFilter":9987}],"buffers":[{"byteLength":63920,"uri":"worlds_SM_Bld_Scav_Refinery_Pipe_02_Pillar_02.bin"}]}