{"asset":{"generator":"Khronos glTF Blender I/O v4.4.55","version":"2.0"},"extensionsUsed":["EXT_texture_webp"],"extensionsRequired":["EXT_texture_webp"],"scene":0,"scenes":[{"name":"Scene","nodes":[4]}],"nodes":[{"mesh":0,"name":"SM_Prop_Monitor_04_Screen_01"},{"children":[0],"mesh":1,"name":"SM_Prop_Monitor_04_Arm_03"},{"children":[1],"mesh":2,"name":"SM_Prop_Monitor_04_Arm_02"},{"children":[2],"mesh":3,"name":"SM_Prop_Monitor_04_Arm_01"},{"children":[3],"mesh":4,"name":"SM_Prop_Monitor_04","rotation":[0.7071068286895752,0,0,0.7071068286895752],"scale":[0.009999999776482582,0.009999999776482582,0.009999999776482582]}],"materials":[{"doubleSided":true,"name":"SciFiCrate_MAT","pbrMetallicRoughness":{"baseColorTexture":{"index":1},"metallicFactor":0,"roughnessFactor":0.5527864098548889}}],"meshes":[{"name":"Mesh.004","primitives":[{"attributes":{"POSITION":0,"NORMAL":1,"TEXCOORD_0":2},"indices":3,"material":0}]},{"name":"Mesh.003","primitives":[{"attributes":{"POSITION":4,"NORMAL":5,"TEXCOORD_0":6},"indices":7,"material":0}]},{"name":"Mesh.002","primitives":[{"attributes":{"POSITION":8,"NORMAL":9,"TEXCOORD_0":10},"indices":11,"material":0}]},{"name":"Mesh.001","primitives":[{"attributes":{"POSITION":12,"NORMAL":13,"TEXCOORD_0":14},"indices":15,"material":0}]},{"name":"Mesh","primitives":[{"attributes":{"POSITION":16,"NORMAL":17,"TEXCOORD_0":18},"indices":19,"material":0}]}],"textures":[{"extensions":{},"sampler":0},{"extensions":{"EXT_texture_webp":{"source":0}},"sampler":0}],"images":[{"mimeType":"image/webp","name":"PolygonScifiWorlds_Texture_01_A","uri":"PolygonScifiWorlds_Texture_01_A.webp"}],"accessors":[{"bufferView":0,"componentType":5126,"count":1041,"max":[109.46855163574219,63.1059684753418,-547.143798828125],"min":[-109.46855163574219,-63.10594940185547,-588.3251953125],"type":"VEC3"},{"bufferView":1,"componentType":5126,"count":1041,"type":"VEC3"},{"bufferView":2,"componentType":5126,"count":1041,"type":"VEC2"},{"bufferView":3,"componentType":5123,"count":1788,"type":"SCALAR"},{"bufferView":4,"componentType":5126,"count":1298,"max":[11.723599433898926,12.907721519470215,-373.9710693359375],"min":[-11.723599433898926,-8.486878395080566,-548.785888671875],"type":"VEC3"},{"bufferView":5,"componentType":5126,"count":1298,"type":"VEC3"},{"bufferView":6,"componentType":5126,"count":1298,"type":"VEC2"},{"bufferView":7,"componentType":5123,"count":1998,"type":"SCALAR"},{"bufferView":8,"componentType":5126,"count":1298,"max":[11.723599433898926,8.486878395080566,-201.24066162109375],"min":[-11.723599433898926,-12.907721519470215,-376.05548095703125],"type":"VEC3"},{"bufferView":9,"componentType":5126,"count":1298,"type":"VEC3"},{"bufferView":10,"componentType":5126,"count":1298,"type":"VEC2"},{"bufferView":11,"componentType":5123,"count":1998,"type":"SCALAR"},{"bufferView":12,"componentType":5126,"count":1298,"max":[11.723599433898926,12.907721519470215,-28.51025390625],"min":[-11.723599433898926,-8.486878395080566,-203.3250732421875],"type":"VEC3"},{"bufferView":13,"componentType":5126,"count":1298,"type":"VEC3"},{"bufferView":14,"componentType":5126,"count":1298,"type":"VEC2"},{"bufferView":15,"componentType":5123,"count":1998,"type":"SCALAR"},{"bufferView":16,"componentType":5126,"count":648,"max":[37.887760162353516,38.6595458984375,-0.03912353515625],"min":[-37.887760162353516,-38.6595458984375,-33.1524658203125],"type":"VEC3"},{"bufferView":17,"componentType":5126,"count":648,"type":"VEC3"},{"bufferView":18,"componentType":5126,"count":648,"type":"VEC2"},{"bufferView":19,"componentType":5123,"count":1164,"type":"SCALAR"}],"bufferViews":[{"buffer":0,"byteLength":12492,"byteOffset":0,"target":34962},{"buffer":0,"byteLength":12492,"byteOffset":12492,"target":34962},{"buffer":0,"byteLength":8328,"byteOffset":24984,"target":34962},{"buffer":0,"byteLength":3576,"byteOffset":33312,"target":34963},{"buffer":0,"byteLength":15576,"byteOffset":36888,"target":34962},{"buffer":0,"byteLength":15576,"byteOffset":52464,"target":34962},{"buffer":0,"byteLength":10384,"byteOffset":68040,"target":34962},{"buffer":0,"byteLength":3996,"byteOffset":78424,"target":34963},{"buffer":0,"byteLength":15576,"byteOffset":82420,"target":34962},{"buffer":0,"byteLength":15576,"byteOffset":97996,"target":34962},{"buffer":0,"byteLength":10384,"byteOffset":113572,"target":34962},{"buffer":0,"byteLength":3996,"byteOffset":123956,"target":34963},{"buffer":0,"byteLength":15576,"byteOffset":127952,"target":34962},{"buffer":0,"byteLength":15576,"byteOffset":143528,"target":34962},{"buffer":0,"byteLength":10384,"byteOffset":159104,"target":34962},{"buffer":0,"byteLength":3996,"byteOffset":169488,"target":34963},{"buffer":0,"byteLength":7776,"byteOffset":173484,"target":34962},{"buffer":0,"byteLength":7776,"byteOffset":181260,"target":34962},{"buffer":0,"byteLength":5184,"byteOffset":189036,"target":34962},{"buffer":0,"byteLength":2328,"byteOffset":194220,"target":34963}],"samplers":[{"magFilter":9729,"minFilter":9987}],"buffers":[{"byteLength":196548,"uri":"worlds_SM_Prop_Monitor_04.bin"}]}