{
	"asset":{
		"generator":"Khronos glTF Blender I/O v4.4.55",
		"version":"2.0"
	},
	"extensionsUsed":[
		"EXT_texture_webp"
	],
	"extensionsRequired":[
		"EXT_texture_webp"
	],
	"scene":0,
	"scenes":[
		{
			"name":"Scene",
			"nodes":[
				2
			]
		}
	],
	"nodes":[
		{
			"mesh":0,
			"name":"SM_Env_Core_01_Engine_01"
		},
		{
			"mesh":1,
			"name":"SM_Env_Core_01_Runway_01"
		},
		{
			"children":[
				0,
				1
			],
			"mesh":2,
			"name":"SM_Env_Core_01",
			"rotation":[
				0.7071068286895752,
				0,
				0,
				0.7071068286895752
			],
			"scale":[
				0.009999999776482582,
				0.009999999776482582,
				0.009999999776482582
			]
		}
	],
	"materials":[
		{
			"doubleSided":true,
			"name":"ScifiMat",
			"pbrMetallicRoughness":{
				"baseColorTexture":{
					"index":0
				},
				"metallicFactor":0,
				"roughnessFactor":0.5527864098548889
			}
		},
		{
			"doubleSided":true,
			"name":"ScifiMat2",
			"pbrMetallicRoughness":{
				"baseColorTexture":{
					"index":1
				},
				"metallicFactor":0,
				"roughnessFactor":0.5527864098548889
			}
		}
	],
	"meshes":[
		{
			"name":"Mesh.002",
			"primitives":[
				{
					"attributes":{
						"POSITION":0,
						"NORMAL":1,
						"TEXCOORD_0":2
					},
					"indices":3,
					"material":0
				}
			]
		},
		{
			"name":"Mesh.001",
			"primitives":[
				{
					"attributes":{
						"POSITION":4,
						"NORMAL":5,
						"TEXCOORD_0":6
					},
					"indices":7,
					"material":0
				},
				{
					"attributes":{
						"POSITION":8,
						"NORMAL":9,
						"TEXCOORD_0":10
					},
					"indices":11,
					"material":1
				}
			]
		},
		{
			"name":"Mesh",
			"primitives":[
				{
					"attributes":{
						"POSITION":12,
						"NORMAL":13,
						"TEXCOORD_0":14
					},
					"indices":15,
					"material":0
				}
			]
		}
	],
	"textures":[
		{
			"extensions":{
				"EXT_texture_webp":{
					"source":0
				}
			},
			"sampler":0
		},
		{
			"extensions":{
				"EXT_texture_webp":{
					"source":0
				}
			},
			"sampler":0
		}
	],
	"images":[
		{
			"mimeType":"image/webp",
			"name":"PolygonScifiWorlds_Texture_01_A",
			"uri":"PolygonScifiWorlds_Texture_01_A.webp"
		}
	],
	"accessors":[
		{
			"bufferView":0,
			"componentType":5126,
			"count":1046,
			"max":[
				826.716796875,
				169.17095947265625,
				7758.84765625
			],
			"min":[
				-189.75372314453125,
				-847.2994995117188,
				1221.59033203125
			],
			"type":"VEC3"
		},
		{
			"bufferView":1,
			"componentType":5126,
			"count":1046,
			"type":"VEC3"
		},
		{
			"bufferView":2,
			"componentType":5126,
			"count":1046,
			"type":"VEC2"
		},
		{
			"bufferView":3,
			"componentType":5123,
			"count":1824,
			"type":"SCALAR"
		},
		{
			"bufferView":4,
			"componentType":5126,
			"count":1633,
			"max":[
				276.251708984375,
				12476.4228515625,
				7000.15869140625
			],
			"min":[
				-5230.9775390625,
				2920.97314453125,
				4948.8603515625
			],
			"type":"VEC3"
		},
		{
			"bufferView":5,
			"componentType":5126,
			"count":1633,
			"type":"VEC3"
		},
		{
			"bufferView":6,
			"componentType":5126,
			"count":1633,
			"type":"VEC2"
		},
		{
			"bufferView":7,
			"componentType":5123,
			"count":2868,
			"type":"SCALAR"
		},
		{
			"bufferView":8,
			"componentType":5126,
			"count":130,
			"max":[
				-59.5234375,
				11968.7861328125,
				6699.6669921875
			],
			"min":[
				-5037.19384765625,
				3189.14453125,
				6636.52392578125
			],
			"type":"VEC3"
		},
		{
			"bufferView":9,
			"componentType":5126,
			"count":130,
			"type":"VEC3"
		},
		{
			"bufferView":10,
			"componentType":5126,
			"count":130,
			"type":"VEC2"
		},
		{
			"bufferView":11,
			"componentType":5123,
			"count":312,
			"type":"SCALAR"
		},
		{
			"bufferView":12,
			"componentType":5126,
			"count":10758,
			"max":[
				7176.55712890625,
				7260.93896484375,
				11196.5478515625
			],
			"min":[
				-7261.435546875,
				-7118.15185546875,
				-218.40957641601562
			],
			"type":"VEC3"
		},
		{
			"bufferView":13,
			"componentType":5126,
			"count":10758,
			"type":"VEC3"
		},
		{
			"bufferView":14,
			"componentType":5126,
			"count":10758,
			"type":"VEC2"
		},
		{
			"bufferView":15,
			"componentType":5123,
			"count":11643,
			"type":"SCALAR"
		}
	],
	"bufferViews":[
		{
			"buffer":0,
			"byteLength":12552,
			"byteOffset":0,
			"target":34962
		},
		{
			"buffer":0,
			"byteLength":12552,
			"byteOffset":12552,
			"target":34962
		},
		{
			"buffer":0,
			"byteLength":8368,
			"byteOffset":25104,
			"target":34962
		},
		{
			"buffer":0,
			"byteLength":3648,
			"byteOffset":33472,
			"target":34963
		},
		{
			"buffer":0,
			"byteLength":19596,
			"byteOffset":37120,
			"target":34962
		},
		{
			"buffer":0,
			"byteLength":19596,
			"byteOffset":56716,
			"target":34962
		},
		{
			"buffer":0,
			"byteLength":13064,
			"byteOffset":76312,
			"target":34962
		},
		{
			"buffer":0,
			"byteLength":5736,
			"byteOffset":89376,
			"target":34963
		},
		{
			"buffer":0,
			"byteLength":1560,
			"byteOffset":95112,
			"target":34962
		},
		{
			"buffer":0,
			"byteLength":1560,
			"byteOffset":96672,
			"target":34962
		},
		{
			"buffer":0,
			"byteLength":1040,
			"byteOffset":98232,
			"target":34962
		},
		{
			"buffer":0,
			"byteLength":624,
			"byteOffset":99272,
			"target":34963
		},
		{
			"buffer":0,
			"byteLength":129096,
			"byteOffset":99896,
			"target":34962
		},
		{
			"buffer":0,
			"byteLength":129096,
			"byteOffset":228992,
			"target":34962
		},
		{
			"buffer":0,
			"byteLength":86064,
			"byteOffset":358088,
			"target":34962
		},
		{
			"buffer":0,
			"byteLength":23286,
			"byteOffset":444152,
			"target":34963
		}
	],
	"samplers":[
		{
			"magFilter":9729,
			"minFilter":9987
		}
	],
	"buffers":[
		{
			"byteLength":467440,
			"uri":"worlds_SM_Env_Core_01.bin"
		}
	]
}
