{
	"asset":{
		"generator":"Khronos glTF Blender I/O v4.4.55",
		"version":"2.0"
	},
	"extensionsUsed":[
		"EXT_texture_webp"
	],
	"extensionsRequired":[
		"EXT_texture_webp"
	],
	"scene":0,
	"scenes":[
		{
			"name":"Scene",
			"nodes":[
				0
			]
		}
	],
	"nodes":[
		{
			"mesh":0,
			"name":"SM_Prop_Holosign_SynKyng_01_Head_01",
			"rotation":[
				0.7071068286895752,
				0,
				0,
				0.7071068286895752
			],
			"scale":[
				0.009999999776482582,
				0.009999999776482582,
				0.009999999776482582
			]
		}
	],
	"materials":[
		{
			"doubleSided":true,
			"name":"Base_Lambert1",
			"pbrMetallicRoughness":{
				"baseColorTexture":{
					"index":0
				},
				"metallicFactor":0,
				"roughnessFactor":0.5527864098548889
			}
		}
	],
	"meshes":[
		{
			"name":"Mesh",
			"primitives":[
				{
					"attributes":{
						"POSITION":0,
						"NORMAL":1,
						"TEXCOORD_0":2
					},
					"indices":3,
					"material":0
				}
			]
		}
	],
	"textures":[
		{
			"extensions":{
				"EXT_texture_webp":{
					"source":0
				}
			},
			"sampler":0
		}
	],
	"images":[
		{
			"mimeType":"image/webp",
			"name":"PolygonScifiWorlds_Texture_01_A",
			"uri":"PolygonScifiWorlds_Texture_01_A.webp"
		}
	],
	"accessors":[
		{
			"bufferView":0,
			"componentType":5126,
			"count":3183,
			"max":[
				1236.9345703125,
				978.0167846679688,
				-2308.8779296875
			],
			"min":[
				-1236.39453125,
				-1421.4783935546875,
				-5207.884765625
			],
			"type":"VEC3"
		},
		{
			"bufferView":1,
			"componentType":5126,
			"count":3183,
			"type":"VEC3"
		},
		{
			"bufferView":2,
			"componentType":5126,
			"count":3183,
			"type":"VEC2"
		},
		{
			"bufferView":3,
			"componentType":5123,
			"count":3810,
			"type":"SCALAR"
		}
	],
	"bufferViews":[
		{
			"buffer":0,
			"byteLength":38196,
			"byteOffset":0,
			"target":34962
		},
		{
			"buffer":0,
			"byteLength":38196,
			"byteOffset":38196,
			"target":34962
		},
		{
			"buffer":0,
			"byteLength":25464,
			"byteOffset":76392,
			"target":34962
		},
		{
			"buffer":0,
			"byteLength":7620,
			"byteOffset":101856,
			"target":34963
		}
	],
	"samplers":[
		{
			"magFilter":9729,
			"minFilter":9987
		}
	],
	"buffers":[
		{
			"byteLength":109476,
			"uri":"worlds_SM_Prop_Holosign_SynKyng_01_Head_01.bin"
		}
	]
}
