{
	"asset":{
		"generator":"Khronos glTF Blender I/O v4.4.55",
		"version":"2.0"
	},
	"extensionsUsed":[
		"EXT_texture_webp"
	],
	"extensionsRequired":[
		"EXT_texture_webp"
	],
	"scene":0,
	"scenes":[
		{
			"name":"Scene",
			"nodes":[
				0
			]
		}
	],
	"nodes":[
		{
			"mesh":0,
			"name":"SM_Bld_Scav_Dish_01",
			"rotation":[
				0.7071068286895752,
				0,
				0,
				0.7071068286895752
			],
			"scale":[
				0.009999999776482582,
				0.009999999776482582,
				0.009999999776482582
			]
		}
	],
	"materials":[
		{
			"doubleSided":true,
			"name":"Satellite_MAT",
			"pbrMetallicRoughness":{
				"baseColorTexture":{
					"index":0
				},
				"metallicFactor":0,
				"roughnessFactor":0.5527864098548889
			}
		}
	],
	"meshes":[
		{
			"name":"Mesh",
			"primitives":[
				{
					"attributes":{
						"POSITION":0,
						"NORMAL":1,
						"TEXCOORD_0":2
					},
					"indices":3,
					"material":0
				}
			]
		}
	],
	"textures":[
		{
			"extensions":{
				"EXT_texture_webp":{
					"source":0
				}
			},
			"sampler":0
		}
	],
	"images":[
		{
			"mimeType":"image/webp",
			"name":"Rust",
			"uri":"Rust.webp"
		}
	],
	"accessors":[
		{
			"bufferView":0,
			"componentType":5126,
			"count":30674,
			"max":[
				4134.99072265625,
				4084.76220703125,
				893.2977905273438
			],
			"min":[
				-4194.2568359375,
				-4217.17626953125,
				-5330.1484375
			],
			"type":"VEC3"
		},
		{
			"bufferView":1,
			"componentType":5126,
			"count":30674,
			"type":"VEC3"
		},
		{
			"bufferView":2,
			"componentType":5126,
			"count":30674,
			"type":"VEC2"
		},
		{
			"bufferView":3,
			"componentType":5123,
			"count":61779,
			"type":"SCALAR"
		}
	],
	"bufferViews":[
		{
			"buffer":0,
			"byteLength":368088,
			"byteOffset":0,
			"target":34962
		},
		{
			"buffer":0,
			"byteLength":368088,
			"byteOffset":368088,
			"target":34962
		},
		{
			"buffer":0,
			"byteLength":245392,
			"byteOffset":736176,
			"target":34962
		},
		{
			"buffer":0,
			"byteLength":123558,
			"byteOffset":981568,
			"target":34963
		}
	],
	"samplers":[
		{
			"magFilter":9729,
			"minFilter":9987
		}
	],
	"buffers":[
		{
			"byteLength":1105128,
			"uri":"worlds_SM_Bld_Scav_Dish_01.bin"
		}
	]
}
