{
	"asset":{
		"generator":"Khronos glTF Blender I/O v4.4.55",
		"version":"2.0"
	},
	"extensionsUsed":[
		"EXT_texture_webp"
	],
	"extensionsRequired":[
		"EXT_texture_webp"
	],
	"scene":0,
	"scenes":[
		{
			"name":"Scene",
			"nodes":[
				0
			]
		}
	],
	"nodes":[
		{
			"mesh":0,
			"name":"SM_Env_DirtRoad_End_01",
			"rotation":[
				0.7071068286895752,
				0,
				0,
				0.7071068286895752
			],
			"scale":[
				0.009999999776482582,
				0.009999999776482582,
				0.009999999776482582
			]
		}
	],
	"materials":[
		{
			"doubleSided":true,
			"name":"lambert1",
			"pbrMetallicRoughness":{
				"baseColorTexture":{
					"index":0
				},
				"metallicFactor":0,
				"roughnessFactor":0.5527864098548889
			}
		}
	],
	"meshes":[
		{
			"name":"Mesh",
			"primitives":[
				{
					"attributes":{
						"POSITION":0,
						"NORMAL":1,
						"TEXCOORD_0":2
					},
					"indices":3,
					"material":0
				}
			]
		}
	],
	"textures":[
		{
			"extensions":{
				"EXT_texture_webp":{
					"source":0
				}
			},
			"sampler":0
		}
	],
	"images":[
		{
			"mimeType":"image/webp",
			"name":"PolygonScifiWorlds_Texture_01_A",
			"uri":"PolygonScifiWorlds_Texture_01_A.webp"
		}
	],
	"accessors":[
		{
			"bufferView":0,
			"componentType":5126,
			"count":813,
			"max":[
				798.818115234375,
				1976.5302734375,
				17.99703598022461
			],
			"min":[
				-769.7117309570312,
				-212.54830932617188,
				-58.65813446044922
			],
			"type":"VEC3"
		},
		{
			"bufferView":1,
			"componentType":5126,
			"count":813,
			"type":"VEC3"
		},
		{
			"bufferView":2,
			"componentType":5126,
			"count":813,
			"type":"VEC2"
		},
		{
			"bufferView":3,
			"componentType":5123,
			"count":861,
			"type":"SCALAR"
		}
	],
	"bufferViews":[
		{
			"buffer":0,
			"byteLength":9756,
			"byteOffset":0,
			"target":34962
		},
		{
			"buffer":0,
			"byteLength":9756,
			"byteOffset":9756,
			"target":34962
		},
		{
			"buffer":0,
			"byteLength":6504,
			"byteOffset":19512,
			"target":34962
		},
		{
			"buffer":0,
			"byteLength":1722,
			"byteOffset":26016,
			"target":34963
		}
	],
	"samplers":[
		{
			"magFilter":9729,
			"minFilter":9987
		}
	],
	"buffers":[
		{
			"byteLength":27740,
			"uri":"worlds_SM_Env_DirtRoad_End_01.bin"
		}
	]
}
