{
	"asset":{
		"generator":"Khronos glTF Blender I/O v4.4.55",
		"version":"2.0"
	},
	"extensionsUsed":[
		"EXT_texture_webp"
	],
	"extensionsRequired":[
		"EXT_texture_webp"
	],
	"scene":0,
	"scenes":[
		{
			"name":"Scene",
			"nodes":[
				0
			]
		}
	],
	"nodes":[
		{
			"mesh":0,
			"name":"SM_Veh_Vendor_Tug_01_Attach_Barrels_01",
			"rotation":[
				0.7071068286895752,
				0,
				0,
				0.7071068286895752
			],
			"scale":[
				0.009999999776482582,
				0.009999999776482582,
				0.009999999776482582
			]
		}
	],
	"materials":[
		{
			"doubleSided":true,
			"name":"lambert10",
			"pbrMetallicRoughness":{
				"baseColorTexture":{
					"index":0
				},
				"metallicFactor":0,
				"roughnessFactor":0.5527864098548889
			}
		}
	],
	"meshes":[
		{
			"name":"Mesh",
			"primitives":[
				{
					"attributes":{
						"POSITION":0,
						"NORMAL":1,
						"TEXCOORD_0":2
					},
					"indices":3,
					"material":0
				}
			]
		}
	],
	"textures":[
		{
			"extensions":{
				"EXT_texture_webp":{
					"source":0
				}
			},
			"sampler":0
		}
	],
	"images":[
		{
			"mimeType":"image/webp",
			"name":"PolygonScifiWorlds_Texture_01_A",
			"uri":"PolygonScifiWorlds_Texture_01_A.webp"
		}
	],
	"accessors":[
		{
			"bufferView":0,
			"componentType":5126,
			"count":3320,
			"max":[
				288.86688232421875,
				99.03703308105469,
				1.9039382934570312
			],
			"min":[
				29.084068298339844,
				-198.57994079589844,
				-327.7988586425781
			],
			"type":"VEC3"
		},
		{
			"bufferView":1,
			"componentType":5126,
			"count":3320,
			"type":"VEC3"
		},
		{
			"bufferView":2,
			"componentType":5126,
			"count":3320,
			"type":"VEC2"
		},
		{
			"bufferView":3,
			"componentType":5123,
			"count":6468,
			"type":"SCALAR"
		}
	],
	"bufferViews":[
		{
			"buffer":0,
			"byteLength":39840,
			"byteOffset":0,
			"target":34962
		},
		{
			"buffer":0,
			"byteLength":39840,
			"byteOffset":39840,
			"target":34962
		},
		{
			"buffer":0,
			"byteLength":26560,
			"byteOffset":79680,
			"target":34962
		},
		{
			"buffer":0,
			"byteLength":12936,
			"byteOffset":106240,
			"target":34963
		}
	],
	"samplers":[
		{
			"magFilter":9729,
			"minFilter":9987
		}
	],
	"buffers":[
		{
			"byteLength":119176,
			"uri":"worlds_SM_Veh_Vendor_Tug_01_Attach_Barrels_01.bin"
		}
	]
}
