{"asset":{"generator":"Khronos glTF Blender I/O v4.4.55","version":"2.0"},"extensionsUsed":["EXT_texture_webp"],"extensionsRequired":["EXT_texture_webp"],"scene":0,"scenes":[{"name":"Scene","nodes":[4]}],"nodes":[{"mesh":0,"name":"SM_Wep_SMG_01_Mag_01"},{"mesh":1,"name":"SM_Wep_SMG_01_Trigger_01"},{"mesh":2,"name":"SM_Wep_SMG_Switch_01"},{"mesh":3,"name":"SM_Wep_SMG_Switch_02"},{"children":[0,1,2,3],"mesh":4,"name":"SM_Wep_SMG_01","rotation":[0.7071068286895752,0,0,0.7071068286895752],"scale":[0.009999999776482582,0.009999999776482582,0.009999999776482582]}],"materials":[{"doubleSided":true,"name":"Clip1:SM_Prop_Crate_03SG1","pbrMetallicRoughness":{"baseColorTexture":{"index":1},"metallicFactor":0,"roughnessFactor":0.5527864098548889}}],"meshes":[{"name":"Mesh.002","primitives":[{"attributes":{"POSITION":0,"NORMAL":1,"TEXCOORD_0":2},"indices":3,"material":0}]},{"name":"Mesh.001","primitives":[{"attributes":{"POSITION":4,"NORMAL":5,"TEXCOORD_0":6},"indices":7,"material":0}]},{"name":"Mesh.003","primitives":[{"attributes":{"POSITION":8,"NORMAL":9,"TEXCOORD_0":10},"indices":11,"material":0}]},{"name":"Mesh.004","primitives":[{"attributes":{"POSITION":12,"NORMAL":13,"TEXCOORD_0":14},"indices":15,"material":0}]},{"name":"Mesh","primitives":[{"attributes":{"POSITION":16,"NORMAL":17,"TEXCOORD_0":18},"indices":19,"material":0}]}],"textures":[{"extensions":{},"sampler":0},{"extensions":{"EXT_texture_webp":{"source":0}},"sampler":0}],"images":[{"mimeType":"image/webp","name":"PolygonScifiWorlds_Texture_01_A","uri":"PolygonScifiWorlds_Texture_01_A.webp"}],"accessors":[{"bufferView":0,"componentType":5126,"count":204,"max":[1.487213134765625,30.792724609375,19.767505645751953],"min":[-1.4871978759765625,11.3717041015625,-2.3147263526916504],"type":"VEC3"},{"bufferView":1,"componentType":5126,"count":204,"type":"VEC3"},{"bufferView":2,"componentType":5126,"count":204,"type":"VEC2"},{"bufferView":3,"componentType":5123,"count":396,"type":"SCALAR"},{"bufferView":4,"componentType":5126,"count":76,"max":[0.6975650787353516,6.1119866371154785,5.852505683898926],"min":[-0.6975765228271484,2.09783935546875,1.402592658996582],"type":"VEC3"},{"bufferView":5,"componentType":5126,"count":76,"type":"VEC3"},{"bufferView":6,"componentType":5126,"count":76,"type":"VEC2"},{"bufferView":7,"componentType":5123,"count":120,"type":"SCALAR"},{"bufferView":8,"componentType":5126,"count":72,"max":[7.7620849609375,21.62521743774414,-6.544802665710449],"min":[-7.76210355758667,17.177181243896484,-8.202914237976074],"type":"VEC3"},{"bufferView":9,"componentType":5126,"count":72,"type":"VEC3"},{"bufferView":10,"componentType":5126,"count":72,"type":"VEC2"},{"bufferView":11,"componentType":5123,"count":108,"type":"SCALAR"},{"bufferView":12,"componentType":5126,"count":260,"max":[5.290193557739258,-2.8001060485839844,-12.754833221435547],"min":[-5.290185928344727,-7.248136043548584,-14.412944793701172],"type":"VEC3"},{"bufferView":13,"componentType":5126,"count":260,"type":"VEC3"},{"bufferView":14,"componentType":5126,"count":260,"type":"VEC2"},{"bufferView":15,"componentType":5123,"count":492,"type":"SCALAR"},{"bufferView":16,"componentType":5126,"count":3011,"max":[7.51934814453125,68.82574462890625,12.651033401489258],"min":[-7.51934814453125,-13.452972412109375,-17.514202117919922],"type":"VEC3"},{"bufferView":17,"componentType":5126,"count":3011,"type":"VEC3"},{"bufferView":18,"componentType":5126,"count":3011,"type":"VEC2"},{"bufferView":19,"componentType":5123,"count":5523,"type":"SCALAR"}],"bufferViews":[{"buffer":0,"byteLength":2448,"byteOffset":0,"target":34962},{"buffer":0,"byteLength":2448,"byteOffset":2448,"target":34962},{"buffer":0,"byteLength":1632,"byteOffset":4896,"target":34962},{"buffer":0,"byteLength":792,"byteOffset":6528,"target":34963},{"buffer":0,"byteLength":912,"byteOffset":7320,"target":34962},{"buffer":0,"byteLength":912,"byteOffset":8232,"target":34962},{"buffer":0,"byteLength":608,"byteOffset":9144,"target":34962},{"buffer":0,"byteLength":240,"byteOffset":9752,"target":34963},{"buffer":0,"byteLength":864,"byteOffset":9992,"target":34962},{"buffer":0,"byteLength":864,"byteOffset":10856,"target":34962},{"buffer":0,"byteLength":576,"byteOffset":11720,"target":34962},{"buffer":0,"byteLength":216,"byteOffset":12296,"target":34963},{"buffer":0,"byteLength":3120,"byteOffset":12512,"target":34962},{"buffer":0,"byteLength":3120,"byteOffset":15632,"target":34962},{"buffer":0,"byteLength":2080,"byteOffset":18752,"target":34962},{"buffer":0,"byteLength":984,"byteOffset":20832,"target":34963},{"buffer":0,"byteLength":36132,"byteOffset":21816,"target":34962},{"buffer":0,"byteLength":36132,"byteOffset":57948,"target":34962},{"buffer":0,"byteLength":24088,"byteOffset":94080,"target":34962},{"buffer":0,"byteLength":11046,"byteOffset":118168,"target":34963}],"samplers":[{"magFilter":9729,"minFilter":9987}],"buffers":[{"byteLength":129216,"uri":"worlds_SM_Wep_SMG_01.bin"}]}