{"asset":{"generator":"Khronos glTF Blender I/O v4.4.55","version":"2.0"},"extensionsUsed":["EXT_texture_webp"],"extensionsRequired":["EXT_texture_webp"],"scene":0,"scenes":[{"name":"Scene","nodes":[0]}],"nodes":[{"mesh":0,"name":"SM_Prop_Scav_Scrap_31","rotation":[0.7071068286895752,0,0,0.7071068286895752],"scale":[0.009999999776482582,0.009999999776482582,0.009999999776482582]}],"materials":[{"doubleSided":true,"name":"SciFi_Planets_SHD","pbrMetallicRoughness":{"baseColorTexture":{"index":1},"metallicFactor":0,"roughnessFactor":0.5527864098548889}}],"meshes":[{"name":"Mesh","primitives":[{"attributes":{"POSITION":0,"NORMAL":1,"TEXCOORD_0":2},"indices":3,"material":0}]}],"textures":[{"extensions":{},"sampler":0},{"extensions":{"EXT_texture_webp":{"source":0}},"sampler":0}],"images":[{"mimeType":"image/webp","name":"PolygonScifiWorlds_Texture_01_A","uri":"PolygonScifiWorlds_Texture_01_A.webp"}],"accessors":[{"bufferView":0,"componentType":5126,"count":286,"max":[300.9300537109375,433.5552978515625,57.64277648925781],"min":[-295.8306884765625,-482.7093505859375,-59.86708068847656],"type":"VEC3"},{"bufferView":1,"componentType":5126,"count":286,"type":"VEC3"},{"bufferView":2,"componentType":5126,"count":286,"type":"VEC2"},{"bufferView":3,"componentType":5123,"count":432,"type":"SCALAR"}],"bufferViews":[{"buffer":0,"byteLength":3432,"byteOffset":0,"target":34962},{"buffer":0,"byteLength":3432,"byteOffset":3432,"target":34962},{"buffer":0,"byteLength":2288,"byteOffset":6864,"target":34962},{"buffer":0,"byteLength":864,"byteOffset":9152,"target":34963}],"samplers":[{"magFilter":9729,"minFilter":9987}],"buffers":[{"byteLength":10016,"uri":"worlds_SM_Prop_Scav_Scrap_31.bin"}]}