{"asset":{"generator":"Khronos glTF Blender I/O v4.4.55","version":"2.0"},"extensionsUsed":["EXT_texture_webp"],"extensionsRequired":["EXT_texture_webp"],"scene":0,"scenes":[{"name":"Scene","nodes":[11]}],"nodes":[{"mesh":0,"name":"SM_Veh_HoverTank_03_HoverPad_lff"},{"mesh":1,"name":"SM_Veh_HoverTank_03_HoverPad_lmf"},{"mesh":2,"name":"SM_Veh_HoverTank_03_HoverPad_lmr"},{"mesh":3,"name":"SM_Veh_HoverTank_03_HoverPad_lrr"},{"mesh":4,"name":"SM_Veh_HoverTank_03_HoverPad_rff"},{"mesh":5,"name":"SM_Veh_HoverTank_03_HoverPad_rmf"},{"mesh":6,"name":"SM_Veh_HoverTank_03_HoverPad_rmr"},{"mesh":7,"name":"SM_Veh_HoverTank_03_HoverPad_rrr"},{"mesh":8,"name":"SM_Veh_HoverTank_03_Barrel_02"},{"children":[8],"mesh":9,"name":"SM_Veh_HoverTank_03_Barrel_01"},{"children":[9],"mesh":10,"name":"SM_Veh_HoverTank_03_Turret_01"},{"children":[0,1,2,3,4,5,6,7,10],"mesh":11,"name":"SM_Veh_HoverTank_03","rotation":[0.7071068286895752,0,0,0.7071068286895752],"scale":[0.009999999776482582,0.009999999776482582,0.009999999776482582]}],"materials":[{"doubleSided":true,"name":"SciFi_Planets_SHD","pbrMetallicRoughness":{"baseColorTexture":{"index":1},"metallicFactor":0,"roughnessFactor":0.5527864098548889}}],"meshes":[{"name":"Mesh.004","primitives":[{"attributes":{"POSITION":0,"NORMAL":1,"TEXCOORD_0":2},"indices":3,"material":0}]},{"name":"Mesh.005","primitives":[{"attributes":{"POSITION":4,"NORMAL":5,"TEXCOORD_0":6},"indices":7,"material":0}]},{"name":"Mesh.006","primitives":[{"attributes":{"POSITION":8,"NORMAL":9,"TEXCOORD_0":10},"indices":11,"material":0}]},{"name":"Mesh.007","primitives":[{"attributes":{"POSITION":12,"NORMAL":13,"TEXCOORD_0":14},"indices":15,"material":0}]},{"name":"Mesh.011","primitives":[{"attributes":{"POSITION":16,"NORMAL":17,"TEXCOORD_0":18},"indices":19,"material":0}]},{"name":"Mesh.010","primitives":[{"attributes":{"POSITION":20,"NORMAL":21,"TEXCOORD_0":22},"indices":23,"material":0}]},{"name":"Mesh.009","primitives":[{"attributes":{"POSITION":24,"NORMAL":25,"TEXCOORD_0":26},"indices":27,"material":0}]},{"name":"Mesh.008","primitives":[{"attributes":{"POSITION":28,"NORMAL":29,"TEXCOORD_0":30},"indices":31,"material":0}]},{"name":"Mesh.003","primitives":[{"attributes":{"POSITION":32,"NORMAL":33,"TEXCOORD_0":34},"indices":35,"material":0}]},{"name":"Mesh.002","primitives":[{"attributes":{"POSITION":36,"NORMAL":37,"TEXCOORD_0":38},"indices":39,"material":0}]},{"name":"Mesh.001","primitives":[{"attributes":{"POSITION":40,"NORMAL":41,"TEXCOORD_0":42},"indices":43,"material":0}]},{"name":"Mesh","primitives":[{"attributes":{"POSITION":44,"NORMAL":45,"TEXCOORD_0":46},"indices":47,"material":0}]}],"textures":[{"extensions":{},"sampler":0},{"extensions":{"EXT_texture_webp":{"source":0}},"sampler":0}],"images":[{"mimeType":"image/webp","name":"PolygonScifiWorlds_Texture_01_A","uri":"PolygonScifiWorlds_Texture_01_A.webp"}],"accessors":[{"bufferView":0,"componentType":5126,"count":607,"max":[235.9112548828125,203.30673217773438,0.43461233377456665],"min":[162.51541137695312,129.8522186279297,-91.72599792480469],"type":"VEC3"},{"bufferView":1,"componentType":5126,"count":607,"type":"VEC3"},{"bufferView":2,"componentType":5126,"count":607,"type":"VEC2"},{"bufferView":3,"componentType":5123,"count":924,"type":"SCALAR"},{"bufferView":4,"componentType":5126,"count":607,"max":[235.9112548828125,85.48171997070312,0.43461233377456665],"min":[162.51541137695312,12.027177810668945,-91.72599792480469],"type":"VEC3"},{"bufferView":5,"componentType":5126,"count":607,"type":"VEC3"},{"bufferView":6,"componentType":5126,"count":607,"type":"VEC2"},{"bufferView":7,"componentType":5123,"count":924,"type":"SCALAR"},{"bufferView":8,"componentType":5126,"count":608,"max":[235.9112548828125,-32.3432731628418,0.43461233377456665],"min":[162.51541137695312,-105.79788208007812,-91.72599792480469],"type":"VEC3"},{"bufferView":9,"componentType":5126,"count":608,"type":"VEC3"},{"bufferView":10,"componentType":5126,"count":608,"type":"VEC2"},{"bufferView":11,"componentType":5123,"count":924,"type":"SCALAR"},{"bufferView":12,"componentType":5126,"count":607,"max":[235.9112548828125,-150.16830444335938,0.43461233377456665],"min":[162.51541137695312,-223.62289428710938,-91.72599792480469],"type":"VEC3"},{"bufferView":13,"componentType":5126,"count":607,"type":"VEC3"},{"bufferView":14,"componentType":5126,"count":607,"type":"VEC2"},{"bufferView":15,"componentType":5123,"count":924,"type":"SCALAR"},{"bufferView":16,"componentType":5126,"count":607,"max":[-162.51541137695312,203.30673217773438,0.43461233377456665],"min":[-235.9112548828125,129.8522186279297,-91.72599792480469],"type":"VEC3"},{"bufferView":17,"componentType":5126,"count":607,"type":"VEC3"},{"bufferView":18,"componentType":5126,"count":607,"type":"VEC2"},{"bufferView":19,"componentType":5123,"count":924,"type":"SCALAR"},{"bufferView":20,"componentType":5126,"count":607,"max":[-162.51541137695312,85.48171997070312,0.43461233377456665],"min":[-235.9112548828125,12.027177810668945,-91.72599792480469],"type":"VEC3"},{"bufferView":21,"componentType":5126,"count":607,"type":"VEC3"},{"bufferView":22,"componentType":5126,"count":607,"type":"VEC2"},{"bufferView":23,"componentType":5123,"count":924,"type":"SCALAR"},{"bufferView":24,"componentType":5126,"count":608,"max":[-162.51541137695312,-32.3432731628418,0.43461233377456665],"min":[-235.9112548828125,-105.79788208007812,-91.72599792480469],"type":"VEC3"},{"bufferView":25,"componentType":5126,"count":608,"type":"VEC3"},{"bufferView":26,"componentType":5126,"count":608,"type":"VEC2"},{"bufferView":27,"componentType":5123,"count":924,"type":"SCALAR"},{"bufferView":28,"componentType":5126,"count":607,"max":[-162.51541137695312,-150.16830444335938,0.43461233377456665],"min":[-235.9112548828125,-223.62289428710938,-91.72599792480469],"type":"VEC3"},{"bufferView":29,"componentType":5126,"count":607,"type":"VEC3"},{"bufferView":30,"componentType":5126,"count":607,"type":"VEC2"},{"bufferView":31,"componentType":5123,"count":924,"type":"SCALAR"},{"bufferView":32,"componentType":5126,"count":774,"max":[41.719818115234375,569.47509765625,-228.36013793945312],"min":[-41.719818115234375,-29.804916381835938,-329.4989013671875],"type":"VEC3"},{"bufferView":33,"componentType":5126,"count":774,"type":"VEC3"},{"bufferView":34,"componentType":5126,"count":774,"type":"VEC2"},{"bufferView":35,"componentType":5123,"count":1308,"type":"SCALAR"},{"bufferView":36,"componentType":5126,"count":1167,"max":[67.1426010131836,179.10797119140625,-208.05068969726562],"min":[-67.1426010131836,-279.9981689453125,-379.31640625],"type":"VEC3"},{"bufferView":37,"componentType":5126,"count":1167,"type":"VEC3"},{"bufferView":38,"componentType":5126,"count":1167,"type":"VEC2"},{"bufferView":39,"componentType":5123,"count":2028,"type":"SCALAR"},{"bufferView":40,"componentType":5126,"count":1544,"max":[157.08419799804688,25.955753326416016,-193.41476440429688],"min":[-157.08419799804688,-348.34564208984375,-319.97650146484375],"type":"VEC3"},{"bufferView":41,"componentType":5126,"count":1544,"type":"VEC3"},{"bufferView":42,"componentType":5126,"count":1544,"type":"VEC2"},{"bufferView":43,"componentType":5123,"count":2640,"type":"SCALAR"},{"bufferView":44,"componentType":5126,"count":8739,"max":[290.545654296875,410.576171875,-27.169628143310547],"min":[-290.545654296875,-410.576171875,-215.56716918945312],"type":"VEC3"},{"bufferView":45,"componentType":5126,"count":8739,"type":"VEC3"},{"bufferView":46,"componentType":5126,"count":8739,"type":"VEC2"},{"bufferView":47,"componentType":5123,"count":14688,"type":"SCALAR"}],"bufferViews":[{"buffer":0,"byteLength":7284,"byteOffset":0,"target":34962},{"buffer":0,"byteLength":7284,"byteOffset":7284,"target":34962},{"buffer":0,"byteLength":4856,"byteOffset":14568,"target":34962},{"buffer":0,"byteLength":1848,"byteOffset":19424,"target":34963},{"buffer":0,"byteLength":7284,"byteOffset":21272,"target":34962},{"buffer":0,"byteLength":7284,"byteOffset":28556,"target":34962},{"buffer":0,"byteLength":4856,"byteOffset":35840,"target":34962},{"buffer":0,"byteLength":1848,"byteOffset":40696,"target":34963},{"buffer":0,"byteLength":7296,"byteOffset":42544,"target":34962},{"buffer":0,"byteLength":7296,"byteOffset":49840,"target":34962},{"buffer":0,"byteLength":4864,"byteOffset":57136,"target":34962},{"buffer":0,"byteLength":1848,"byteOffset":62000,"target":34963},{"buffer":0,"byteLength":7284,"byteOffset":63848,"target":34962},{"buffer":0,"byteLength":7284,"byteOffset":71132,"target":34962},{"buffer":0,"byteLength":4856,"byteOffset":78416,"target":34962},{"buffer":0,"byteLength":1848,"byteOffset":83272,"target":34963},{"buffer":0,"byteLength":7284,"byteOffset":85120,"target":34962},{"buffer":0,"byteLength":7284,"byteOffset":92404,"target":34962},{"buffer":0,"byteLength":4856,"byteOffset":99688,"target":34962},{"buffer":0,"byteLength":1848,"byteOffset":104544,"target":34963},{"buffer":0,"byteLength":7284,"byteOffset":106392,"target":34962},{"buffer":0,"byteLength":7284,"byteOffset":113676,"target":34962},{"buffer":0,"byteLength":4856,"byteOffset":120960,"target":34962},{"buffer":0,"byteLength":1848,"byteOffset":125816,"target":34963},{"buffer":0,"byteLength":7296,"byteOffset":127664,"target":34962},{"buffer":0,"byteLength":7296,"byteOffset":134960,"target":34962},{"buffer":0,"byteLength":4864,"byteOffset":142256,"target":34962},{"buffer":0,"byteLength":1848,"byteOffset":147120,"target":34963},{"buffer":0,"byteLength":7284,"byteOffset":148968,"target":34962},{"buffer":0,"byteLength":7284,"byteOffset":156252,"target":34962},{"buffer":0,"byteLength":4856,"byteOffset":163536,"target":34962},{"buffer":0,"byteLength":1848,"byteOffset":168392,"target":34963},{"buffer":0,"byteLength":9288,"byteOffset":170240,"target":34962},{"buffer":0,"byteLength":9288,"byteOffset":179528,"target":34962},{"buffer":0,"byteLength":6192,"byteOffset":188816,"target":34962},{"buffer":0,"byteLength":2616,"byteOffset":195008,"target":34963},{"buffer":0,"byteLength":14004,"byteOffset":197624,"target":34962},{"buffer":0,"byteLength":14004,"byteOffset":211628,"target":34962},{"buffer":0,"byteLength":9336,"byteOffset":225632,"target":34962},{"buffer":0,"byteLength":4056,"byteOffset":234968,"target":34963},{"buffer":0,"byteLength":18528,"byteOffset":239024,"target":34962},{"buffer":0,"byteLength":18528,"byteOffset":257552,"target":34962},{"buffer":0,"byteLength":12352,"byteOffset":276080,"target":34962},{"buffer":0,"byteLength":5280,"byteOffset":288432,"target":34963},{"buffer":0,"byteLength":104868,"byteOffset":293712,"target":34962},{"buffer":0,"byteLength":104868,"byteOffset":398580,"target":34962},{"buffer":0,"byteLength":69912,"byteOffset":503448,"target":34962},{"buffer":0,"byteLength":29376,"byteOffset":573360,"target":34963}],"samplers":[{"magFilter":9729,"minFilter":9987}],"buffers":[{"byteLength":602736,"uri":"worlds_SM_Veh_HoverTank_03.bin"}]}