{"asset":{"generator":"Khronos glTF Blender I/O v4.4.55","version":"2.0"},"extensionsUsed":["EXT_texture_webp"],"extensionsRequired":["EXT_texture_webp"],"scene":0,"scenes":[{"name":"Scene","nodes":[2]}],"nodes":[{"mesh":0,"name":"SM_Prop_Crate_13_Lid_01"},{"mesh":1,"name":"SM_Prop_Crate_13_Lid_02"},{"children":[0,1],"mesh":2,"name":"SM_Prop_Crate_13","rotation":[0.7071068286895752,0,0,0.7071068286895752],"scale":[0.009999999776482582,0.009999999776482582,0.009999999776482582]}],"materials":[{"doubleSided":true,"name":"SciFiCrate_MAT","pbrMetallicRoughness":{"baseColorTexture":{"index":1},"metallicFactor":0,"roughnessFactor":0.5527864098548889}}],"meshes":[{"name":"Mesh.001","primitives":[{"attributes":{"POSITION":0,"NORMAL":1,"TEXCOORD_0":2},"indices":3,"material":0}]},{"name":"Mesh.002","primitives":[{"attributes":{"POSITION":4,"NORMAL":5,"TEXCOORD_0":6},"indices":7,"material":0}]},{"name":"Mesh","primitives":[{"attributes":{"POSITION":8,"NORMAL":9,"TEXCOORD_0":10},"indices":11,"material":0}]}],"textures":[{"extensions":{},"sampler":0},{"extensions":{"EXT_texture_webp":{"source":0}},"sampler":0}],"images":[{"mimeType":"image/webp","name":"PolygonScifiWorlds_Texture_01_A","uri":"PolygonScifiWorlds_Texture_01_A.webp"}],"accessors":[{"bufferView":0,"componentType":5126,"count":310,"max":[49.0322265625,51.555419921875,-120.79635620117188],"min":[-49.0322265625,-51.555419921875,-130.57554626464844],"type":"VEC3"},{"bufferView":1,"componentType":5126,"count":310,"type":"VEC3"},{"bufferView":2,"componentType":5126,"count":310,"type":"VEC2"},{"bufferView":3,"componentType":5123,"count":648,"type":"SCALAR"},{"bufferView":4,"componentType":5126,"count":310,"max":[49.0322265625,51.555419921875,0.168752521276474],"min":[-49.0322265625,-51.555419921875,-9.61043930053711],"type":"VEC3"},{"bufferView":5,"componentType":5126,"count":310,"type":"VEC3"},{"bufferView":6,"componentType":5126,"count":310,"type":"VEC2"},{"bufferView":7,"componentType":5123,"count":648,"type":"SCALAR"},{"bufferView":8,"componentType":5126,"count":2344,"max":[57.5322265625,60.4931640625,-6.341073036193848],"min":[-58.814453125,-60.4931640625,-124.20201110839844],"type":"VEC3"},{"bufferView":9,"componentType":5126,"count":2344,"type":"VEC3"},{"bufferView":10,"componentType":5126,"count":2344,"type":"VEC2"},{"bufferView":11,"componentType":5123,"count":4110,"type":"SCALAR"}],"bufferViews":[{"buffer":0,"byteLength":3720,"byteOffset":0,"target":34962},{"buffer":0,"byteLength":3720,"byteOffset":3720,"target":34962},{"buffer":0,"byteLength":2480,"byteOffset":7440,"target":34962},{"buffer":0,"byteLength":1296,"byteOffset":9920,"target":34963},{"buffer":0,"byteLength":3720,"byteOffset":11216,"target":34962},{"buffer":0,"byteLength":3720,"byteOffset":14936,"target":34962},{"buffer":0,"byteLength":2480,"byteOffset":18656,"target":34962},{"buffer":0,"byteLength":1296,"byteOffset":21136,"target":34963},{"buffer":0,"byteLength":28128,"byteOffset":22432,"target":34962},{"buffer":0,"byteLength":28128,"byteOffset":50560,"target":34962},{"buffer":0,"byteLength":18752,"byteOffset":78688,"target":34962},{"buffer":0,"byteLength":8220,"byteOffset":97440,"target":34963}],"samplers":[{"magFilter":9729,"minFilter":9987}],"buffers":[{"byteLength":105660,"uri":"worlds_SM_Prop_Crate_13.bin"}]}