{"asset":{"generator":"Khronos glTF Blender I/O v4.4.55","version":"2.0"},"extensionsUsed":["EXT_texture_webp"],"extensionsRequired":["EXT_texture_webp"],"scene":0,"scenes":[{"name":"Scene","nodes":[0]}],"nodes":[{"mesh":0,"name":"SM_Bld_Pod_Hub_02","rotation":[0.7071068286895752,0,0,0.7071068286895752],"scale":[0.009999999776482582,0.009999999776482582,0.009999999776482582]}],"materials":[{"doubleSided":true,"name":"SciFi_Planets_POD_SHD","pbrMetallicRoughness":{"baseColorTexture":{"index":1},"metallicFactor":0,"roughnessFactor":0.5527864098548889}}],"meshes":[{"name":"Mesh","primitives":[{"attributes":{"POSITION":0,"NORMAL":1,"TEXCOORD_0":2},"indices":3,"material":0}]}],"textures":[{"extensions":{},"sampler":0},{"extensions":{"EXT_texture_webp":{"source":0}},"sampler":0}],"images":[{"mimeType":"image/webp","name":"PolygonScifiWorlds_Texture_01_A","uri":"PolygonScifiWorlds_Texture_01_A.webp"}],"accessors":[{"bufferView":0,"componentType":5126,"count":4730,"max":[500,500,44.04003143310547],"min":[-500,-500,-452.2451477050781],"type":"VEC3"},{"bufferView":1,"componentType":5126,"count":4730,"type":"VEC3"},{"bufferView":2,"componentType":5126,"count":4730,"type":"VEC2"},{"bufferView":3,"componentType":5123,"count":7812,"type":"SCALAR"}],"bufferViews":[{"buffer":0,"byteLength":56760,"byteOffset":0,"target":34962},{"buffer":0,"byteLength":56760,"byteOffset":56760,"target":34962},{"buffer":0,"byteLength":37840,"byteOffset":113520,"target":34962},{"buffer":0,"byteLength":15624,"byteOffset":151360,"target":34963}],"samplers":[{"magFilter":9729,"minFilter":9987}],"buffers":[{"byteLength":166984,"uri":"worlds_SM_Bld_Pod_Hub_02.bin"}]}