{"asset":{"generator":"Khronos glTF Blender I/O v4.4.55","version":"2.0"},"extensionsUsed":["EXT_texture_webp"],"extensionsRequired":["EXT_texture_webp"],"scene":0,"scenes":[{"name":"Scene","nodes":[1]}],"nodes":[{"mesh":0,"name":"SM_Prop_Crate_05_Lid_01"},{"children":[0],"mesh":1,"name":"SM_Prop_Crate_05","rotation":[0.7071068286895752,0,0,0.7071068286895752],"scale":[0.009999999776482582,0.009999999776482582,0.009999999776482582]}],"materials":[{"doubleSided":true,"name":"SciFiCrate_MAT","pbrMetallicRoughness":{"baseColorTexture":{"index":1},"metallicFactor":0,"roughnessFactor":0.5527864098548889}}],"meshes":[{"name":"Mesh.001","primitives":[{"attributes":{"POSITION":0,"NORMAL":1,"TEXCOORD_0":2},"indices":3,"material":0}]},{"name":"Mesh","primitives":[{"attributes":{"POSITION":4,"NORMAL":5,"TEXCOORD_0":6},"indices":7,"material":0}]}],"textures":[{"extensions":{},"sampler":0},{"extensions":{"EXT_texture_webp":{"source":0}},"sampler":0}],"images":[{"mimeType":"image/webp","name":"PolygonScifiWorlds_Texture_01_A","uri":"PolygonScifiWorlds_Texture_01_A.webp"}],"accessors":[{"bufferView":0,"componentType":5126,"count":720,"max":[55.12451171875,57.182861328125,-125.69304656982422],"min":[-55.12451171875,-55.12451171875,-151.51235961914062],"type":"VEC3"},{"bufferView":1,"componentType":5126,"count":720,"type":"VEC3"},{"bufferView":2,"componentType":5126,"count":720,"type":"VEC2"},{"bufferView":3,"componentType":5123,"count":1356,"type":"SCALAR"},{"bufferView":4,"componentType":5126,"count":1368,"max":[55.12451171875,57.182861328125,0],"min":[-55.12451171875,-55.12451171875,-125.69304656982422],"type":"VEC3"},{"bufferView":5,"componentType":5126,"count":1368,"type":"VEC3"},{"bufferView":6,"componentType":5126,"count":1368,"type":"VEC2"},{"bufferView":7,"componentType":5123,"count":2436,"type":"SCALAR"}],"bufferViews":[{"buffer":0,"byteLength":8640,"byteOffset":0,"target":34962},{"buffer":0,"byteLength":8640,"byteOffset":8640,"target":34962},{"buffer":0,"byteLength":5760,"byteOffset":17280,"target":34962},{"buffer":0,"byteLength":2712,"byteOffset":23040,"target":34963},{"buffer":0,"byteLength":16416,"byteOffset":25752,"target":34962},{"buffer":0,"byteLength":16416,"byteOffset":42168,"target":34962},{"buffer":0,"byteLength":10944,"byteOffset":58584,"target":34962},{"buffer":0,"byteLength":4872,"byteOffset":69528,"target":34963}],"samplers":[{"magFilter":9729,"minFilter":9987}],"buffers":[{"byteLength":74400,"uri":"worlds_SM_Prop_Crate_05.bin"}]}