{
	"asset":{
		"generator":"Khronos glTF Blender I/O v4.4.55",
		"version":"2.0"
	},
	"extensionsUsed":[
		"EXT_texture_webp"
	],
	"extensionsRequired":[
		"EXT_texture_webp"
	],
	"scene":0,
	"scenes":[
		{
			"name":"Scene",
			"nodes":[
				0
			]
		}
	],
	"nodes":[
		{
			"mesh":0,
			"name":"SM_Env_Plant_Balloon_Group_02",
			"rotation":[
				0.7071068286895752,
				0,
				0,
				0.7071068286895752
			],
			"scale":[
				0.009999999776482582,
				0.009999999776482582,
				0.009999999776482582
			]
		}
	],
	"materials":[
		{
			"doubleSided":true,
			"name":"ScifiMat8",
			"pbrMetallicRoughness":{
				"baseColorTexture":{
					"index":0
				},
				"metallicFactor":0,
				"roughnessFactor":0.5527864098548889
			}
		}
	],
	"meshes":[
		{
			"name":"Mesh",
			"primitives":[
				{
					"attributes":{
						"POSITION":0,
						"NORMAL":1,
						"TEXCOORD_0":2,
						"COLOR_0":3,
						"COLOR_1":4
					},
					"indices":5,
					"material":0
				}
			]
		}
	],
	"textures":[
		{
			"extensions":{
				"EXT_texture_webp":{
					"source":0
				}
			},
			"sampler":0
		}
	],
	"images":[
		{
			"mimeType":"image/webp",
			"name":"PolygonScifiWorlds_Texture_01_A",
			"uri":"PolygonScifiWorlds_Texture_01_A.webp"
		}
	],
	"accessors":[
		{
			"bufferView":0,
			"componentType":5126,
			"count":1184,
			"max":[
				51.228050231933594,
				53.29313278198242,
				8.724702835083008
			],
			"min":[
				-85.05030822753906,
				-39.94477844238281,
				-72.6808853149414
			],
			"type":"VEC3"
		},
		{
			"bufferView":1,
			"componentType":5126,
			"count":1184,
			"type":"VEC3"
		},
		{
			"bufferView":2,
			"componentType":5126,
			"count":1184,
			"type":"VEC2"
		},
		{
			"bufferView":3,
			"componentType":5121,
			"count":1184,
			"normalized":true,
			"type":"VEC4"
		},
		{
			"bufferView":4,
			"componentType":5123,
			"count":1184,
			"normalized":true,
			"type":"VEC4"
		},
		{
			"bufferView":5,
			"componentType":5123,
			"count":1728,
			"type":"SCALAR"
		}
	],
	"bufferViews":[
		{
			"buffer":0,
			"byteLength":14208,
			"byteOffset":0,
			"target":34962
		},
		{
			"buffer":0,
			"byteLength":14208,
			"byteOffset":14208,
			"target":34962
		},
		{
			"buffer":0,
			"byteLength":9472,
			"byteOffset":28416,
			"target":34962
		},
		{
			"buffer":0,
			"byteLength":4736,
			"byteOffset":37888,
			"target":34962
		},
		{
			"buffer":0,
			"byteLength":9472,
			"byteOffset":42624,
			"target":34962
		},
		{
			"buffer":0,
			"byteLength":3456,
			"byteOffset":52096,
			"target":34963
		}
	],
	"samplers":[
		{
			"magFilter":9729,
			"minFilter":9987
		}
	],
	"buffers":[
		{
			"byteLength":55552,
			"uri":"worlds_SM_Env_Plant_Balloon_Group_02.bin"
		}
	]
}
