{"asset":{"generator":"Khronos glTF Blender I/O v4.4.55","version":"2.0"},"extensionsUsed":["EXT_texture_webp"],"extensionsRequired":["EXT_texture_webp"],"scene":0,"scenes":[{"name":"Scene","nodes":[1]}],"nodes":[{"mesh":0,"name":"SM_Wep_Shield_04_Glass_01"},{"children":[0],"mesh":1,"name":"SM_Wep_Shield_04","rotation":[0.7071068286895752,0,0,0.7071068286895752],"scale":[0.009999999776482582,0.009999999776482582,0.009999999776482582]}],"materials":[{"doubleSided":true,"name":"Clip1:SM_Prop_Crate_03SG1","pbrMetallicRoughness":{"baseColorTexture":{"index":1},"metallicFactor":0,"roughnessFactor":0.5527864098548889}}],"meshes":[{"name":"Mesh.001","primitives":[{"attributes":{"POSITION":0,"NORMAL":1,"TEXCOORD_0":2},"indices":3,"material":0}]},{"name":"Mesh","primitives":[{"attributes":{"POSITION":4,"NORMAL":5,"TEXCOORD_0":6},"indices":7,"material":0}]}],"textures":[{"extensions":{},"sampler":0},{"extensions":{"EXT_texture_webp":{"source":0}},"sampler":0}],"images":[{"mimeType":"image/webp","name":"PolygonScifiWorlds_Texture_01_A","uri":"PolygonScifiWorlds_Texture_01_A.webp"}],"accessors":[{"bufferView":0,"componentType":5126,"count":84,"max":[22.308076858520508,10.930214881896973,56.023521423339844],"min":[-22.308076858520508,5.061928749084473,-56.023521423339844],"type":"VEC3"},{"bufferView":1,"componentType":5126,"count":84,"type":"VEC3"},{"bufferView":2,"componentType":5126,"count":84,"type":"VEC2"},{"bufferView":3,"componentType":5123,"count":108,"type":"SCALAR"},{"bufferView":4,"componentType":5126,"count":1224,"max":[24.044862747192383,12.973366737365723,19.58598518371582],"min":[-24.04486656188965,-2.174262046813965,-19.58598518371582],"type":"VEC3"},{"bufferView":5,"componentType":5126,"count":1224,"type":"VEC3"},{"bufferView":6,"componentType":5126,"count":1224,"type":"VEC2"},{"bufferView":7,"componentType":5123,"count":2094,"type":"SCALAR"}],"bufferViews":[{"buffer":0,"byteLength":1008,"byteOffset":0,"target":34962},{"buffer":0,"byteLength":1008,"byteOffset":1008,"target":34962},{"buffer":0,"byteLength":672,"byteOffset":2016,"target":34962},{"buffer":0,"byteLength":216,"byteOffset":2688,"target":34963},{"buffer":0,"byteLength":14688,"byteOffset":2904,"target":34962},{"buffer":0,"byteLength":14688,"byteOffset":17592,"target":34962},{"buffer":0,"byteLength":9792,"byteOffset":32280,"target":34962},{"buffer":0,"byteLength":4188,"byteOffset":42072,"target":34963}],"samplers":[{"magFilter":9729,"minFilter":9987}],"buffers":[{"byteLength":46260,"uri":"worlds_SM_Wep_Shield_04.bin"}]}