{"asset":{"generator":"Khronos glTF Blender I/O v4.4.55","version":"2.0"},"extensionsUsed":["EXT_texture_webp"],"extensionsRequired":["EXT_texture_webp"],"scene":0,"scenes":[{"name":"Scene","nodes":[5]}],"nodes":[{"mesh":0,"name":"SM_Bld_Pod_Hab_Large_02_Leg_01","rotation":[0,0,0.7071068286895752,0.7071068286895752],"scale":[1.3321115970611572,1.3321115970611572,1.3321115970611572],"translation":[-700,-3.0517578125e-05,-56.815826416015625]},{"mesh":1,"name":"SM_Bld_Pod_Hab_Large_02_Leg_02","rotation":[0,0,0.7071068286895752,0.7071068286895752],"scale":[1.3321115970611572,1.3321115970611572,1.3321115970611572],"translation":[700,-3.0517578125e-05,-56.815826416015625]},{"mesh":2,"name":"SM_Bld_Pod_Hab_Large_02_Leg_03","rotation":[0,0,0.7071068286895752,0.7071068286895752],"scale":[1.3321115970611572,1.3321115970611572,1.3321115970611572],"translation":[700,0,-56.815826416015625]},{"mesh":3,"name":"SM_Bld_Pod_Hab_Large_02_Leg_04","rotation":[0,0,0.7071068286895752,0.7071068286895752],"scale":[1.3321115970611572,1.3321115970611572,1.3321115970611572],"translation":[-700,0,-56.815826416015625]},{"children":[0,1,2,3],"mesh":4,"name":"SM_Bld_Pod_Hab_Large_02_Support_01"},{"children":[4],"mesh":5,"name":"SM_Bld_Pod_Hab_Large_02","rotation":[0.7071068286895752,0,0,0.7071068286895752],"scale":[0.009999999776482582,0.009999999776482582,0.009999999776482582]}],"materials":[{"doubleSided":true,"name":"SciFi_Planets_POD_SHD","pbrMetallicRoughness":{"baseColorTexture":{"index":1},"metallicFactor":0,"roughnessFactor":0.5527864098548889}}],"meshes":[{"name":"Mesh.002","primitives":[{"attributes":{"POSITION":0,"NORMAL":1,"TEXCOORD_0":2},"indices":3,"material":0}]},{"name":"Mesh.003","primitives":[{"attributes":{"POSITION":4,"NORMAL":5,"TEXCOORD_0":6},"indices":3,"material":0}]},{"name":"Mesh.004","primitives":[{"attributes":{"POSITION":7,"NORMAL":8,"TEXCOORD_0":9},"indices":10,"material":0}]},{"name":"Mesh.005","primitives":[{"attributes":{"POSITION":11,"NORMAL":12,"TEXCOORD_0":13},"indices":10,"material":0}]},{"name":"Mesh.001","primitives":[{"attributes":{"POSITION":14,"NORMAL":15,"TEXCOORD_0":16},"indices":17,"material":0}]},{"name":"Mesh","primitives":[{"attributes":{"POSITION":18,"NORMAL":19,"TEXCOORD_0":20},"indices":21,"material":0}]}],"textures":[{"extensions":{},"sampler":0},{"extensions":{"EXT_texture_webp":{"source":0}},"sampler":0}],"images":[{"mimeType":"image/webp","name":"PolygonScifiWorlds_Texture_01_A","uri":"PolygonScifiWorlds_Texture_01_A.webp"}],"accessors":[{"bufferView":0,"componentType":5126,"count":296,"max":[550.4730224609375,104.37448120117188,171.07452392578125],"min":[423.2735595703125,-104.37451171875,-112.92499542236328],"type":"VEC3"},{"bufferView":1,"componentType":5126,"count":296,"type":"VEC3"},{"bufferView":2,"componentType":5126,"count":296,"type":"VEC2"},{"bufferView":3,"componentType":5123,"count":474,"type":"SCALAR"},{"bufferView":4,"componentType":5126,"count":296,"max":[550.4730224609375,104.37448120117188,171.07452392578125],"min":[423.2735595703125,-104.37451171875,-112.92499542236328],"type":"VEC3"},{"bufferView":5,"componentType":5126,"count":296,"type":"VEC3"},{"bufferView":6,"componentType":5126,"count":296,"type":"VEC2"},{"bufferView":7,"componentType":5126,"count":296,"max":[-423.2735595703125,104.37448120117188,171.07452392578125],"min":[-550.4730224609375,-104.37451171875,-112.92499542236328],"type":"VEC3"},{"bufferView":8,"componentType":5126,"count":296,"type":"VEC3"},{"bufferView":9,"componentType":5126,"count":296,"type":"VEC2"},{"bufferView":10,"componentType":5123,"count":474,"type":"SCALAR"},{"bufferView":11,"componentType":5126,"count":296,"max":[-423.2735595703125,104.37448120117188,171.07452392578125],"min":[-550.4730224609375,-104.37451171875,-112.92499542236328],"type":"VEC3"},{"bufferView":12,"componentType":5126,"count":296,"type":"VEC3"},{"bufferView":13,"componentType":5126,"count":296,"type":"VEC2"},{"bufferView":14,"componentType":5126,"count":3376,"max":[763.8444213867188,710.1842041015625,-40.34197998046875],"min":[-763.8442993164062,-710.1842041015625,-666.8749389648438],"type":"VEC3"},{"bufferView":15,"componentType":5126,"count":3376,"type":"VEC3"},{"bufferView":16,"componentType":5126,"count":3376,"type":"VEC2"},{"bufferView":17,"componentType":5123,"count":5736,"type":"SCALAR"},{"bufferView":18,"componentType":5126,"count":2742,"max":[1000,519.82763671875,158.99798583984375],"min":[-1000,-519.82763671875,-575.7769775390625],"type":"VEC3"},{"bufferView":19,"componentType":5126,"count":2742,"type":"VEC3"},{"bufferView":20,"componentType":5126,"count":2742,"type":"VEC2"},{"bufferView":21,"componentType":5123,"count":5154,"type":"SCALAR"}],"bufferViews":[{"buffer":0,"byteLength":3552,"byteOffset":0,"target":34962},{"buffer":0,"byteLength":3552,"byteOffset":3552,"target":34962},{"buffer":0,"byteLength":2368,"byteOffset":7104,"target":34962},{"buffer":0,"byteLength":948,"byteOffset":9472,"target":34963},{"buffer":0,"byteLength":3552,"byteOffset":10420,"target":34962},{"buffer":0,"byteLength":3552,"byteOffset":13972,"target":34962},{"buffer":0,"byteLength":2368,"byteOffset":17524,"target":34962},{"buffer":0,"byteLength":3552,"byteOffset":19892,"target":34962},{"buffer":0,"byteLength":3552,"byteOffset":23444,"target":34962},{"buffer":0,"byteLength":2368,"byteOffset":26996,"target":34962},{"buffer":0,"byteLength":948,"byteOffset":29364,"target":34963},{"buffer":0,"byteLength":3552,"byteOffset":30312,"target":34962},{"buffer":0,"byteLength":3552,"byteOffset":33864,"target":34962},{"buffer":0,"byteLength":2368,"byteOffset":37416,"target":34962},{"buffer":0,"byteLength":40512,"byteOffset":39784,"target":34962},{"buffer":0,"byteLength":40512,"byteOffset":80296,"target":34962},{"buffer":0,"byteLength":27008,"byteOffset":120808,"target":34962},{"buffer":0,"byteLength":11472,"byteOffset":147816,"target":34963},{"buffer":0,"byteLength":32904,"byteOffset":159288,"target":34962},{"buffer":0,"byteLength":32904,"byteOffset":192192,"target":34962},{"buffer":0,"byteLength":21936,"byteOffset":225096,"target":34962},{"buffer":0,"byteLength":10308,"byteOffset":247032,"target":34963}],"samplers":[{"magFilter":9729,"minFilter":9987}],"buffers":[{"byteLength":257340,"uri":"worlds_SM_Bld_Pod_Hab_Large_02.bin"}]}