{"asset":{"generator":"Khronos glTF Blender I/O v4.4.55","version":"2.0"},"extensionsUsed":["EXT_texture_webp"],"extensionsRequired":["EXT_texture_webp"],"scene":0,"scenes":[{"name":"Scene","nodes":[1]}],"nodes":[{"mesh":0,"name":"SM_Prop_Crate_15_Lid_01"},{"children":[0],"mesh":1,"name":"SM_Prop_Crate_15","rotation":[0.7071068286895752,0,0,0.7071068286895752],"scale":[0.009999999776482582,0.009999999776482582,0.009999999776482582]}],"materials":[{"doubleSided":true,"name":"SciFiCrate_MAT","pbrMetallicRoughness":{"baseColorTexture":{"index":1},"metallicFactor":0,"roughnessFactor":0.5527864098548889}}],"meshes":[{"name":"Mesh.001","primitives":[{"attributes":{"POSITION":0,"NORMAL":1,"TEXCOORD_0":2},"indices":3,"material":0}]},{"name":"Mesh","primitives":[{"attributes":{"POSITION":4,"NORMAL":5,"TEXCOORD_0":6},"indices":7,"material":0}]}],"textures":[{"extensions":{},"sampler":0},{"extensions":{"EXT_texture_webp":{"source":0}},"sampler":0}],"images":[{"mimeType":"image/webp","name":"PolygonScifiWorlds_Texture_01_A","uri":"PolygonScifiWorlds_Texture_01_A.webp"}],"accessors":[{"bufferView":0,"componentType":5126,"count":455,"max":[49.65234375,48.212646484375,-145.8042755126953],"min":[-42.0537109375,-48.212646484375,-159.0247344970703],"type":"VEC3"},{"bufferView":1,"componentType":5126,"count":455,"type":"VEC3"},{"bufferView":2,"componentType":5126,"count":455,"type":"VEC2"},{"bufferView":3,"componentType":5123,"count":858,"type":"SCALAR"},{"bufferView":4,"componentType":5126,"count":1330,"max":[49.65234375,48.212646484375,0],"min":[-42.0537109375,-48.212646484375,-145.79229736328125],"type":"VEC3"},{"bufferView":5,"componentType":5126,"count":1330,"type":"VEC3"},{"bufferView":6,"componentType":5126,"count":1330,"type":"VEC2"},{"bufferView":7,"componentType":5123,"count":2328,"type":"SCALAR"}],"bufferViews":[{"buffer":0,"byteLength":5460,"byteOffset":0,"target":34962},{"buffer":0,"byteLength":5460,"byteOffset":5460,"target":34962},{"buffer":0,"byteLength":3640,"byteOffset":10920,"target":34962},{"buffer":0,"byteLength":1716,"byteOffset":14560,"target":34963},{"buffer":0,"byteLength":15960,"byteOffset":16276,"target":34962},{"buffer":0,"byteLength":15960,"byteOffset":32236,"target":34962},{"buffer":0,"byteLength":10640,"byteOffset":48196,"target":34962},{"buffer":0,"byteLength":4656,"byteOffset":58836,"target":34963}],"samplers":[{"magFilter":9729,"minFilter":9987}],"buffers":[{"byteLength":63492,"uri":"worlds_SM_Prop_Crate_15.bin"}]}