{
	"asset":{
		"generator":"Khronos glTF Blender I/O v4.4.55",
		"version":"2.0"
	},
	"extensionsUsed":[
		"EXT_texture_webp"
	],
	"extensionsRequired":[
		"EXT_texture_webp"
	],
	"scene":0,
	"scenes":[
		{
			"name":"Scene",
			"nodes":[
				0
			]
		}
	],
	"nodes":[
		{
			"mesh":0,
			"name":"SM_Env_Skeleton_Preset_04",
			"rotation":[
				0.7071068286895752,
				0,
				0,
				0.7071068286895752
			],
			"scale":[
				0.009999999776482582,
				0.009999999776482582,
				0.009999999776482582
			]
		}
	],
	"materials":[
		{
			"doubleSided":true,
			"name":"lambert2",
			"pbrMetallicRoughness":{
				"baseColorTexture":{
					"index":0
				},
				"metallicFactor":0,
				"roughnessFactor":0.5527864098548889
			}
		}
	],
	"meshes":[
		{
			"name":"Mesh",
			"primitives":[
				{
					"attributes":{
						"POSITION":0,
						"NORMAL":1,
						"TEXCOORD_0":2
					},
					"indices":3,
					"material":0
				}
			]
		}
	],
	"textures":[
		{
			"extensions":{
				"EXT_texture_webp":{
					"source":0
				}
			},
			"sampler":0
		}
	],
	"images":[
		{
			"mimeType":"image/webp",
			"name":"PolygonScifiWorlds_Texture_01_A",
			"uri":"PolygonScifiWorlds_Texture_01_A.webp"
		}
	],
	"accessors":[
		{
			"bufferView":0,
			"componentType":5126,
			"count":10560,
			"max":[
				7569.8916015625,
				1082.080078125,
				221.62667846679688
			],
			"min":[
				-4950.82568359375,
				-14471.0693359375,
				-13317.5498046875
			],
			"type":"VEC3"
		},
		{
			"bufferView":1,
			"componentType":5126,
			"count":10560,
			"type":"VEC3"
		},
		{
			"bufferView":2,
			"componentType":5126,
			"count":10560,
			"type":"VEC2"
		},
		{
			"bufferView":3,
			"componentType":5123,
			"count":10776,
			"type":"SCALAR"
		}
	],
	"bufferViews":[
		{
			"buffer":0,
			"byteLength":126720,
			"byteOffset":0,
			"target":34962
		},
		{
			"buffer":0,
			"byteLength":126720,
			"byteOffset":126720,
			"target":34962
		},
		{
			"buffer":0,
			"byteLength":84480,
			"byteOffset":253440,
			"target":34962
		},
		{
			"buffer":0,
			"byteLength":21552,
			"byteOffset":337920,
			"target":34963
		}
	],
	"samplers":[
		{
			"magFilter":9729,
			"minFilter":9987
		}
	],
	"buffers":[
		{
			"byteLength":359472,
			"uri":"worlds_SM_Env_Skeleton_Preset_04.bin"
		}
	]
}
