{"asset":{"generator":"Khronos glTF Blender I/O v4.4.55","version":"2.0"},"extensionsUsed":["EXT_texture_webp"],"extensionsRequired":["EXT_texture_webp"],"scene":0,"scenes":[{"name":"Scene","nodes":[0]}],"nodes":[{"mesh":0,"name":"SM_Env_Plant_Large_Spiral_02","rotation":[0.7071068286895752,0,0,0.7071068286895752],"scale":[0.009999999776482582,0.009999999776482582,0.009999999776482582]}],"materials":[{"doubleSided":true,"name":"lambert1978","pbrMetallicRoughness":{"baseColorTexture":{"index":1},"metallicFactor":0,"roughnessFactor":0.5527864098548889}}],"meshes":[{"name":"Mesh","primitives":[{"attributes":{"POSITION":0,"NORMAL":1,"TEXCOORD_0":2,"COLOR_0":3,"COLOR_1":4},"indices":5,"material":0}]}],"textures":[{"extensions":{},"sampler":0},{"extensions":{"EXT_texture_webp":{"source":0}},"sampler":0}],"images":[{"mimeType":"image/webp","name":"PolygonScifiWorlds_Texture_01_A","uri":"PolygonScifiWorlds_Texture_01_A.webp"}],"accessors":[{"bufferView":0,"componentType":5126,"count":332,"max":[283.0148620605469,308.5400390625,63.37290954589844],"min":[-284.6549987792969,-294.359375,-2130.253173828125],"type":"VEC3"},{"bufferView":1,"componentType":5126,"count":332,"type":"VEC3"},{"bufferView":2,"componentType":5126,"count":332,"type":"VEC2"},{"bufferView":3,"componentType":5121,"count":332,"normalized":true,"type":"VEC4"},{"bufferView":4,"componentType":5123,"count":332,"normalized":true,"type":"VEC4"},{"bufferView":5,"componentType":5123,"count":534,"type":"SCALAR"}],"bufferViews":[{"buffer":0,"byteLength":3984,"byteOffset":0,"target":34962},{"buffer":0,"byteLength":3984,"byteOffset":3984,"target":34962},{"buffer":0,"byteLength":2656,"byteOffset":7968,"target":34962},{"buffer":0,"byteLength":1328,"byteOffset":10624,"target":34962},{"buffer":0,"byteLength":2656,"byteOffset":11952,"target":34962},{"buffer":0,"byteLength":1068,"byteOffset":14608,"target":34963}],"samplers":[{"magFilter":9729,"minFilter":9987}],"buffers":[{"byteLength":15676,"uri":"worlds_SM_Env_Plant_Large_Spiral_02.bin"}]}