{
	"asset":{
		"generator":"Khronos glTF Blender I/O v4.4.55",
		"version":"2.0"
	},
	"extensionsUsed":[
		"EXT_texture_webp"
	],
	"extensionsRequired":[
		"EXT_texture_webp"
	],
	"scene":0,
	"scenes":[
		{
			"name":"Scene",
			"nodes":[
				0
			]
		}
	],
	"nodes":[
		{
			"mesh":0,
			"name":"SM_Env_Skeleton_Preset_02",
			"rotation":[
				0.7071068286895752,
				0,
				0,
				0.7071068286895752
			],
			"scale":[
				0.009999999776482582,
				0.009999999776482582,
				0.009999999776482582
			]
		}
	],
	"materials":[
		{
			"doubleSided":true,
			"name":"lambert2",
			"pbrMetallicRoughness":{
				"baseColorTexture":{
					"index":0
				},
				"metallicFactor":0,
				"roughnessFactor":0.5527864098548889
			}
		}
	],
	"meshes":[
		{
			"name":"Mesh",
			"primitives":[
				{
					"attributes":{
						"POSITION":0,
						"NORMAL":1,
						"TEXCOORD_0":2
					},
					"indices":3,
					"material":0
				}
			]
		}
	],
	"textures":[
		{
			"extensions":{
				"EXT_texture_webp":{
					"source":0
				}
			},
			"sampler":0
		}
	],
	"images":[
		{
			"mimeType":"image/webp",
			"name":"PolygonScifiWorlds_Texture_01_A",
			"uri":"PolygonScifiWorlds_Texture_01_A.webp"
		}
	],
	"accessors":[
		{
			"bufferView":0,
			"componentType":5126,
			"count":16308,
			"max":[
				9741.5517578125,
				4427.544921875,
				1444.255615234375
			],
			"min":[
				-5708.93359375,
				-24111.5234375,
				-10826.046875
			],
			"type":"VEC3"
		},
		{
			"bufferView":1,
			"componentType":5126,
			"count":16308,
			"type":"VEC3"
		},
		{
			"bufferView":2,
			"componentType":5126,
			"count":16308,
			"type":"VEC2"
		},
		{
			"bufferView":3,
			"componentType":5123,
			"count":16722,
			"type":"SCALAR"
		}
	],
	"bufferViews":[
		{
			"buffer":0,
			"byteLength":195696,
			"byteOffset":0,
			"target":34962
		},
		{
			"buffer":0,
			"byteLength":195696,
			"byteOffset":195696,
			"target":34962
		},
		{
			"buffer":0,
			"byteLength":130464,
			"byteOffset":391392,
			"target":34962
		},
		{
			"buffer":0,
			"byteLength":33444,
			"byteOffset":521856,
			"target":34963
		}
	],
	"samplers":[
		{
			"magFilter":9729,
			"minFilter":9987
		}
	],
	"buffers":[
		{
			"byteLength":555300,
			"uri":"worlds_SM_Env_Skeleton_Preset_02.bin"
		}
	]
}
