{"asset":{"generator":"Khronos glTF Blender I/O v4.4.55","version":"2.0"},"extensionsUsed":["EXT_texture_webp"],"extensionsRequired":["EXT_texture_webp"],"scene":0,"scenes":[{"name":"Scene","nodes":[3]}],"nodes":[{"mesh":0,"name":"SM_Prop_Antenna_05_Leg_01"},{"mesh":1,"name":"SM_Prop_Antenna_05_Leg_02","rotation":[0,0,-0.8660253882408142,0.4999999701976776],"translation":[3.814697265625e-06,0,0]},{"mesh":2,"name":"SM_Prop_Antenna_05_Leg_03","rotation":[0,0,0.8660253882408142,0.4999999701976776],"translation":[-5.7220458984375e-06,-3.814697265625e-06,0]},{"children":[0,1,2],"mesh":3,"name":"SM_Prop_Antenna_05","rotation":[0.7071068286895752,0,0,0.7071068286895752],"scale":[0.009999999776482582,0.009999999776482582,0.009999999776482582]}],"materials":[{"doubleSided":true,"name":"SciFiCrate_MAT","pbrMetallicRoughness":{"baseColorTexture":{"index":1},"metallicFactor":0,"roughnessFactor":0.5527864098548889}}],"meshes":[{"name":"Mesh.001","primitives":[{"attributes":{"POSITION":0,"NORMAL":1,"TEXCOORD_0":2},"indices":3,"material":0}]},{"name":"Mesh.002","primitives":[{"attributes":{"POSITION":4,"NORMAL":5,"TEXCOORD_0":6},"indices":7,"material":0}]},{"name":"Mesh.003","primitives":[{"attributes":{"POSITION":8,"NORMAL":9,"TEXCOORD_0":10},"indices":11,"material":0}]},{"name":"Mesh","primitives":[{"attributes":{"POSITION":12,"NORMAL":13,"TEXCOORD_0":14},"indices":15,"material":0}]}],"textures":[{"extensions":{},"sampler":0},{"extensions":{"EXT_texture_webp":{"source":0}},"sampler":0}],"images":[{"mimeType":"image/webp","name":"PolygonScifiWorlds_Texture_01_A","uri":"PolygonScifiWorlds_Texture_01_A.webp"}],"accessors":[{"bufferView":0,"componentType":5126,"count":330,"max":[177.8115234375,33.775634765625,-0.2981834411621094],"min":[43,-33.775634765625,-46.84503173828125],"type":"VEC3"},{"bufferView":1,"componentType":5126,"count":330,"type":"VEC3"},{"bufferView":2,"componentType":5126,"count":330,"type":"VEC2"},{"bufferView":3,"componentType":5123,"count":612,"type":"SCALAR"},{"bufferView":4,"componentType":5126,"count":330,"max":[177.813232421875,33.77587890625,-0.2981834411621094],"min":[43.00048828125,-33.77685546875,-46.84503173828125],"type":"VEC3"},{"bufferView":5,"componentType":5126,"count":330,"type":"VEC3"},{"bufferView":6,"componentType":5126,"count":330,"type":"VEC2"},{"bufferView":7,"componentType":5123,"count":612,"type":"SCALAR"},{"bufferView":8,"componentType":5126,"count":330,"max":[177.8115234375,33.77734375,-0.2981834411621094],"min":[42.999755859375,-33.775390625,-46.84503173828125],"type":"VEC3"},{"bufferView":9,"componentType":5126,"count":330,"type":"VEC3"},{"bufferView":10,"componentType":5126,"count":330,"type":"VEC2"},{"bufferView":11,"componentType":5123,"count":612,"type":"SCALAR"},{"bufferView":12,"componentType":5126,"count":2966,"max":[73.638671875,68.245849609375,-13.607449531555176],"min":[-45.4423828125,-68.245849609375,-868.3016967773438],"type":"VEC3"},{"bufferView":13,"componentType":5126,"count":2966,"type":"VEC3"},{"bufferView":14,"componentType":5126,"count":2966,"type":"VEC2"},{"bufferView":15,"componentType":5123,"count":5154,"type":"SCALAR"}],"bufferViews":[{"buffer":0,"byteLength":3960,"byteOffset":0,"target":34962},{"buffer":0,"byteLength":3960,"byteOffset":3960,"target":34962},{"buffer":0,"byteLength":2640,"byteOffset":7920,"target":34962},{"buffer":0,"byteLength":1224,"byteOffset":10560,"target":34963},{"buffer":0,"byteLength":3960,"byteOffset":11784,"target":34962},{"buffer":0,"byteLength":3960,"byteOffset":15744,"target":34962},{"buffer":0,"byteLength":2640,"byteOffset":19704,"target":34962},{"buffer":0,"byteLength":1224,"byteOffset":22344,"target":34963},{"buffer":0,"byteLength":3960,"byteOffset":23568,"target":34962},{"buffer":0,"byteLength":3960,"byteOffset":27528,"target":34962},{"buffer":0,"byteLength":2640,"byteOffset":31488,"target":34962},{"buffer":0,"byteLength":1224,"byteOffset":34128,"target":34963},{"buffer":0,"byteLength":35592,"byteOffset":35352,"target":34962},{"buffer":0,"byteLength":35592,"byteOffset":70944,"target":34962},{"buffer":0,"byteLength":23728,"byteOffset":106536,"target":34962},{"buffer":0,"byteLength":10308,"byteOffset":130264,"target":34963}],"samplers":[{"magFilter":9729,"minFilter":9987}],"buffers":[{"byteLength":140572,"uri":"worlds_SM_Prop_Antenna_05.bin"}]}