{"asset":{"generator":"Khronos glTF Blender I/O v4.4.55","version":"2.0"},"extensionsUsed":["EXT_texture_webp"],"extensionsRequired":["EXT_texture_webp"],"scene":0,"scenes":[{"name":"Scene","nodes":[0]}],"nodes":[{"mesh":0,"name":"SM_Wep_Dagger_06","rotation":[0.7071068286895752,0,0,0.7071068286895752],"scale":[0.009999999776482582,0.009999999776482582,0.009999999776482582]}],"materials":[{"doubleSided":true,"name":"SciFiCrate_MAT","pbrMetallicRoughness":{"baseColorTexture":{"index":1},"metallicFactor":0,"roughnessFactor":0.5527864098548889}}],"meshes":[{"name":"Mesh","primitives":[{"attributes":{"POSITION":0,"NORMAL":1,"TEXCOORD_0":2},"indices":3,"material":0}]}],"textures":[{"extensions":{},"sampler":0},{"extensions":{"EXT_texture_webp":{"source":0}},"sampler":0}],"images":[{"mimeType":"image/webp","name":"PolygonScifiWorlds_Texture_01_A","uri":"PolygonScifiWorlds_Texture_01_A.webp"}],"accessors":[{"bufferView":0,"componentType":5126,"count":1002,"max":[2.5647964477539062,5.810272216796875,10.396881103515625],"min":[-2.5647964477539062,-5.810272216796875,-40.9901123046875],"type":"VEC3"},{"bufferView":1,"componentType":5126,"count":1002,"type":"VEC3"},{"bufferView":2,"componentType":5126,"count":1002,"type":"VEC2"},{"bufferView":3,"componentType":5123,"count":1632,"type":"SCALAR"}],"bufferViews":[{"buffer":0,"byteLength":12024,"byteOffset":0,"target":34962},{"buffer":0,"byteLength":12024,"byteOffset":12024,"target":34962},{"buffer":0,"byteLength":8016,"byteOffset":24048,"target":34962},{"buffer":0,"byteLength":3264,"byteOffset":32064,"target":34963}],"samplers":[{"magFilter":9729,"minFilter":9987}],"buffers":[{"byteLength":35328,"uri":"worlds_SM_Wep_Dagger_06.bin"}]}