{
	"asset":{
		"generator":"Khronos glTF Blender I/O v4.4.55",
		"version":"2.0"
	},
	"extensionsUsed":[
		"EXT_texture_webp"
	],
	"extensionsRequired":[
		"EXT_texture_webp"
	],
	"scene":0,
	"scenes":[
		{
			"name":"Scene",
			"nodes":[
				0
			]
		}
	],
	"nodes":[
		{
			"mesh":0,
			"name":"SM_Env_Plant_Spikey_02",
			"rotation":[
				0.7071068286895752,
				0,
				0,
				0.7071068286895752
			],
			"scale":[
				0.009999999776482582,
				0.009999999776482582,
				0.009999999776482582
			]
		}
	],
	"materials":[
		{
			"doubleSided":true,
			"name":"Base_Lambert3",
			"pbrMetallicRoughness":{
				"baseColorTexture":{
					"index":0
				},
				"metallicFactor":0,
				"roughnessFactor":0.5527864098548889
			}
		}
	],
	"meshes":[
		{
			"name":"Mesh",
			"primitives":[
				{
					"attributes":{
						"POSITION":0,
						"NORMAL":1,
						"TEXCOORD_0":2,
						"TEXCOORD_1":3,
						"COLOR_0":4,
						"COLOR_1":5
					},
					"indices":6,
					"material":0
				}
			]
		}
	],
	"textures":[
		{
			"extensions":{
				"EXT_texture_webp":{
					"source":0
				}
			},
			"sampler":0
		}
	],
	"images":[
		{
			"mimeType":"image/webp",
			"name":"PolygonScifiWorlds_Texture_01_A",
			"uri":"PolygonScifiWorlds_Texture_01_A.webp"
		}
	],
	"accessors":[
		{
			"bufferView":0,
			"componentType":5126,
			"count":1948,
			"max":[
				368.4617919921875,
				362.83221435546875,
				0
			],
			"min":[
				-380.93353271484375,
				-311.297119140625,
				-579.501708984375
			],
			"type":"VEC3"
		},
		{
			"bufferView":1,
			"componentType":5126,
			"count":1948,
			"type":"VEC3"
		},
		{
			"bufferView":2,
			"componentType":5126,
			"count":1948,
			"type":"VEC2"
		},
		{
			"bufferView":3,
			"componentType":5126,
			"count":1948,
			"type":"VEC2"
		},
		{
			"bufferView":4,
			"componentType":5121,
			"count":1948,
			"normalized":true,
			"type":"VEC4"
		},
		{
			"bufferView":5,
			"componentType":5123,
			"count":1948,
			"normalized":true,
			"type":"VEC4"
		},
		{
			"bufferView":6,
			"componentType":5123,
			"count":2694,
			"type":"SCALAR"
		}
	],
	"bufferViews":[
		{
			"buffer":0,
			"byteLength":23376,
			"byteOffset":0,
			"target":34962
		},
		{
			"buffer":0,
			"byteLength":23376,
			"byteOffset":23376,
			"target":34962
		},
		{
			"buffer":0,
			"byteLength":15584,
			"byteOffset":46752,
			"target":34962
		},
		{
			"buffer":0,
			"byteLength":15584,
			"byteOffset":62336,
			"target":34962
		},
		{
			"buffer":0,
			"byteLength":7792,
			"byteOffset":77920,
			"target":34962
		},
		{
			"buffer":0,
			"byteLength":15584,
			"byteOffset":85712,
			"target":34962
		},
		{
			"buffer":0,
			"byteLength":5388,
			"byteOffset":101296,
			"target":34963
		}
	],
	"samplers":[
		{
			"magFilter":9729,
			"minFilter":9987
		}
	],
	"buffers":[
		{
			"byteLength":106684,
			"uri":"worlds_SM_Env_Plant_Spikey_02.bin"
		}
	]
}
