{"asset":{"generator":"Khronos glTF Blender I/O v4.4.55","version":"2.0"},"extensionsUsed":["EXT_texture_webp"],"extensionsRequired":["EXT_texture_webp"],"scene":0,"scenes":[{"name":"Scene","nodes":[1]}],"nodes":[{"mesh":0,"name":"SM_Chr_Attach_Helmet_Space_06_Glass"},{"children":[0],"mesh":1,"name":"SM_Chr_Attach_Helmet_Space_06","rotation":[0.7071068286895752,0,0,0.7071068286895752],"scale":[0.009999999776482582,0.009999999776482582,0.009999999776482582]}],"materials":[{"alphaMode":"MASK","doubleSided":true,"name":"SciFi_Planets_GLASS","pbrMetallicRoughness":{"baseColorFactor":[1,1,1,0.11612904071807861],"baseColorTexture":{"index":1},"metallicFactor":0,"roughnessFactor":0.5527864098548889},"alphaCutoff":0.5},{"doubleSided":true,"name":"Scifi_1a9","pbrMetallicRoughness":{"baseColorTexture":{"index":2},"metallicFactor":0,"roughnessFactor":0.5527864098548889}}],"meshes":[{"name":"Mesh.001","primitives":[{"attributes":{"POSITION":0,"NORMAL":1,"TEXCOORD_0":2},"indices":3,"material":0}]},{"name":"Mesh","primitives":[{"attributes":{"POSITION":4,"NORMAL":5,"TEXCOORD_0":6},"indices":7,"material":1}]}],"textures":[{"extensions":{},"sampler":0},{"extensions":{"EXT_texture_webp":{"source":0}},"sampler":0},{"extensions":{"EXT_texture_webp":{"source":0}},"sampler":0}],"images":[{"mimeType":"image/webp","name":"PolygonScifiWorlds_Texture_01_A","uri":"PolygonScifiWorlds_Texture_01_A.webp"}],"accessors":[{"bufferView":0,"componentType":5126,"count":112,"max":[20.886295318603516,25.444215774536133,9.414352416992188],"min":[-20.886272430419922,-13.652975082397461,-30.21295166015625],"type":"VEC3"},{"bufferView":1,"componentType":5126,"count":112,"type":"VEC3"},{"bufferView":2,"componentType":5126,"count":112,"type":"VEC2"},{"bufferView":3,"componentType":5123,"count":168,"type":"SCALAR"},{"bufferView":4,"componentType":5126,"count":176,"max":[19.798208236694336,19.224334716796875,11.27783203125],"min":[-19.797269821166992,-14.753108024597168,-5.737640380859375],"type":"VEC3"},{"bufferView":5,"componentType":5126,"count":176,"type":"VEC3"},{"bufferView":6,"componentType":5126,"count":176,"type":"VEC2"},{"bufferView":7,"componentType":5123,"count":288,"type":"SCALAR"}],"bufferViews":[{"buffer":0,"byteLength":1344,"byteOffset":0,"target":34962},{"buffer":0,"byteLength":1344,"byteOffset":1344,"target":34962},{"buffer":0,"byteLength":896,"byteOffset":2688,"target":34962},{"buffer":0,"byteLength":336,"byteOffset":3584,"target":34963},{"buffer":0,"byteLength":2112,"byteOffset":3920,"target":34962},{"buffer":0,"byteLength":2112,"byteOffset":6032,"target":34962},{"buffer":0,"byteLength":1408,"byteOffset":8144,"target":34962},{"buffer":0,"byteLength":576,"byteOffset":9552,"target":34963}],"samplers":[{"magFilter":9729,"minFilter":9987}],"buffers":[{"byteLength":10128,"uri":"worlds_SM_Chr_Attach_Helmet_Space_06.bin"}]}