{"asset":{"generator":"Khronos glTF Blender I/O v4.4.55","version":"2.0"},"extensionsUsed":["EXT_texture_webp"],"extensionsRequired":["EXT_texture_webp"],"scene":0,"scenes":[{"name":"Scene","nodes":[14]}],"nodes":[{"mesh":0,"name":"SM_Veh_Buggy_01_Glass_01"},{"mesh":1,"name":"SM_Veh_Buggy_01_SteeringWheel_01","rotation":[0.13706305623054504,0,0,0.990562379360199],"translation":[0,0,5.0067901611328125e-06]},{"mesh":2,"name":"SM_Veh_Buggy_01_Wheel_lf"},{"children":[2],"mesh":3,"name":"SM_Veh_Buggy_01_WheelBase_lf_01"},{"children":[3],"mesh":4,"name":"SM_Veh_Buggy_01_SuspensionArm_lf"},{"mesh":5,"name":"SM_Veh_Buggy_01_Wheel_lr"},{"children":[5],"mesh":6,"name":"SM_Veh_Buggy_01_WheelBase_lr"},{"children":[6],"mesh":7,"name":"SM_Veh_Buggy_01_SuspensionArm_lr"},{"mesh":8,"name":"SM_Veh_Buggy_01_Wheel_rf","rotation":[1,0,0,7.549790126404332e-08],"scale":[-1,-1,-1],"translation":[-1.300332041864749e-05,0,0]},{"children":[8],"mesh":9,"name":"SM_Veh_Buggy_01_WheelBase_rf"},{"children":[9],"mesh":10,"name":"SM_Veh_Buggy_01_SuspensionArm_rf"},{"mesh":11,"name":"SM_Veh_Buggy_01_Wheel_rr","rotation":[1,0,0,7.549790126404332e-08],"scale":[-1,-1,-1],"translation":[1.5053406059450936e-05,0,0]},{"children":[11],"mesh":12,"name":"SM_Veh_Buggy_01_WheelBase_rr"},{"children":[12],"mesh":13,"name":"SM_Veh_Buggy_01_SuspensionArm_rr"},{"children":[0,1,4,7,10,13],"mesh":14,"name":"SM_Veh_Buggy_01","rotation":[0.7071068286895752,0,0,0.7071068286895752],"scale":[0.009999999776482582,0.009999999776482582,0.009999999776482582]}],"materials":[{"alphaMode":"MASK","doubleSided":true,"name":"Glass_MAT","pbrMetallicRoughness":{"baseColorFactor":[1,1,1,0.15662652254104614],"baseColorTexture":{"index":0},"metallicFactor":0,"roughnessFactor":0.5527864098548889},"alphaCutoff":0.5},{"doubleSided":true,"name":"SciFi_Planets_SHD","pbrMetallicRoughness":{"baseColorTexture":{"index":2},"metallicFactor":0,"roughnessFactor":0.5527864098548889}}],"meshes":[{"name":"Mesh.001","primitives":[{"attributes":{"POSITION":0,"NORMAL":1,"TEXCOORD_0":2},"indices":3,"material":0}]},{"name":"Mesh.002","primitives":[{"attributes":{"POSITION":4,"NORMAL":5,"TEXCOORD_0":6},"indices":7,"material":1}]},{"name":"Mesh.014","primitives":[{"attributes":{"POSITION":8,"NORMAL":9,"TEXCOORD_0":10},"indices":11,"material":1}]},{"name":"Mesh.013","primitives":[{"attributes":{"POSITION":12,"NORMAL":13,"TEXCOORD_0":14},"indices":15,"material":1}]},{"name":"Mesh.012","primitives":[{"attributes":{"POSITION":16,"NORMAL":17,"TEXCOORD_0":18},"indices":19,"material":1}]},{"name":"Mesh.011","primitives":[{"attributes":{"POSITION":20,"NORMAL":21,"TEXCOORD_0":22},"indices":23,"material":1}]},{"name":"Mesh.010","primitives":[{"attributes":{"POSITION":24,"NORMAL":25,"TEXCOORD_0":26},"indices":15,"material":1}]},{"name":"Mesh.009","primitives":[{"attributes":{"POSITION":27,"NORMAL":28,"TEXCOORD_0":29},"indices":30,"material":1}]},{"name":"Mesh.005","primitives":[{"attributes":{"POSITION":31,"NORMAL":32,"TEXCOORD_0":33},"indices":34,"material":1}]},{"name":"Mesh.004","primitives":[{"attributes":{"POSITION":35,"NORMAL":36,"TEXCOORD_0":37},"indices":38,"material":1}]},{"name":"Mesh.003","primitives":[{"attributes":{"POSITION":39,"NORMAL":40,"TEXCOORD_0":41},"indices":42,"material":1}]},{"name":"Mesh.008","primitives":[{"attributes":{"POSITION":43,"NORMAL":44,"TEXCOORD_0":45},"indices":46,"material":1}]},{"name":"Mesh.007","primitives":[{"attributes":{"POSITION":47,"NORMAL":48,"TEXCOORD_0":49},"indices":38,"material":1}]},{"name":"Mesh.006","primitives":[{"attributes":{"POSITION":50,"NORMAL":51,"TEXCOORD_0":52},"indices":53,"material":1}]},{"name":"Mesh","primitives":[{"attributes":{"POSITION":54,"NORMAL":55,"TEXCOORD_0":56},"indices":57,"material":1}]}],"textures":[{"extensions":{"EXT_texture_webp":{"source":0}},"sampler":0},{"extensions":{},"sampler":0},{"extensions":{"EXT_texture_webp":{"source":0}},"sampler":0}],"images":[{"mimeType":"image/webp","name":"PolygonScifiWorlds_Texture_01_A","uri":"PolygonScifiWorlds_Texture_01_A.webp"}],"accessors":[{"bufferView":0,"componentType":5126,"count":40,"max":[116.55126953125,175.443603515625,-184.0969696044922],"min":[-116.55126953125,24.755859375,-252.0090789794922],"type":"VEC3"},{"bufferView":1,"componentType":5126,"count":40,"type":"VEC3"},{"bufferView":2,"componentType":5126,"count":40,"type":"VEC2"},{"bufferView":3,"componentType":5123,"count":84,"type":"SCALAR"},{"bufferView":4,"componentType":5126,"count":676,"max":[65.9697265625,-8.842742919921875,-176.90174865722656],"min":[20.0302734375,-19.22076416015625,-222.84170532226562],"type":"VEC3"},{"bufferView":5,"componentType":5126,"count":676,"type":"VEC3"},{"bufferView":6,"componentType":5126,"count":676,"type":"VEC2"},{"bufferView":7,"componentType":5123,"count":1026,"type":"SCALAR"},{"bufferView":8,"componentType":5126,"count":3053,"max":[209.23828125,215.148681640625,0.07373809814453125],"min":[125.24365234375,82.332763671875,-132.74208068847656],"type":"VEC3"},{"bufferView":9,"componentType":5126,"count":3053,"type":"VEC3"},{"bufferView":10,"componentType":5126,"count":3053,"type":"VEC2"},{"bufferView":11,"componentType":5123,"count":4707,"type":"SCALAR"},{"bufferView":12,"componentType":5126,"count":105,"max":[138.224609375,166.17999267578125,-48.89912414550781],"min":[114.73046875,131.07464599609375,-84.00450897216797],"type":"VEC3"},{"bufferView":13,"componentType":5126,"count":105,"type":"VEC3"},{"bufferView":14,"componentType":5126,"count":105,"type":"VEC2"},{"bufferView":15,"componentType":5123,"count":180,"type":"SCALAR"},{"bufferView":16,"componentType":5126,"count":242,"max":[129.9697265625,163.38165283203125,-59.32200241088867],"min":[59.373046875,132.89666748046875,-160.85719299316406],"type":"VEC3"},{"bufferView":17,"componentType":5126,"count":242,"type":"VEC3"},{"bufferView":18,"componentType":5126,"count":242,"type":"VEC2"},{"bufferView":19,"componentType":5123,"count":432,"type":"SCALAR"},{"bufferView":20,"componentType":5126,"count":3053,"max":[209.23828125,-105.782958984375,0.07373809814453125],"min":[125.24365234375,-238.598876953125,-132.74208068847656],"type":"VEC3"},{"bufferView":21,"componentType":5126,"count":3053,"type":"VEC3"},{"bufferView":22,"componentType":5126,"count":3053,"type":"VEC2"},{"bufferView":23,"componentType":5123,"count":4707,"type":"SCALAR"},{"bufferView":24,"componentType":5126,"count":105,"max":[138.224609375,-155.3048095703125,-48.89912033081055],"min":[114.73046875,-190.41021728515625,-84.0045166015625],"type":"VEC3"},{"bufferView":25,"componentType":5126,"count":105,"type":"VEC3"},{"bufferView":26,"componentType":5126,"count":105,"type":"VEC2"},{"bufferView":27,"componentType":5126,"count":242,"max":[129.9697265625,-158.103271484375,-59.32200241088867],"min":[59.373046875,-188.58819580078125,-160.85719299316406],"type":"VEC3"},{"bufferView":28,"componentType":5126,"count":242,"type":"VEC3"},{"bufferView":29,"componentType":5126,"count":242,"type":"VEC2"},{"bufferView":30,"componentType":5123,"count":432,"type":"SCALAR"},{"bufferView":31,"componentType":5126,"count":3053,"max":[209.23828125,215.148681640625,0.07373809814453125],"min":[125.24365234375,82.332763671875,-132.74208068847656],"type":"VEC3"},{"bufferView":32,"componentType":5126,"count":3053,"type":"VEC3"},{"bufferView":33,"componentType":5126,"count":3053,"type":"VEC2"},{"bufferView":34,"componentType":5123,"count":4707,"type":"SCALAR"},{"bufferView":35,"componentType":5126,"count":105,"max":[-114.73046875,166.18002319335938,-48.89912033081055],"min":[-138.22412109375,131.07461547851562,-84.0045166015625],"type":"VEC3"},{"bufferView":36,"componentType":5126,"count":105,"type":"VEC3"},{"bufferView":37,"componentType":5126,"count":105,"type":"VEC2"},{"bufferView":38,"componentType":5123,"count":180,"type":"SCALAR"},{"bufferView":39,"componentType":5126,"count":254,"max":[-59.373046875,163.38153076171875,-59.32200241088867],"min":[-129.9697265625,132.8966064453125,-160.85719299316406],"type":"VEC3"},{"bufferView":40,"componentType":5126,"count":254,"type":"VEC3"},{"bufferView":41,"componentType":5126,"count":254,"type":"VEC2"},{"bufferView":42,"componentType":5123,"count":432,"type":"SCALAR"},{"bufferView":43,"componentType":5126,"count":3053,"max":[209.23828125,-105.782958984375,0.07373809814453125],"min":[125.24365234375,-238.598876953125,-132.74208068847656],"type":"VEC3"},{"bufferView":44,"componentType":5126,"count":3053,"type":"VEC3"},{"bufferView":45,"componentType":5126,"count":3053,"type":"VEC2"},{"bufferView":46,"componentType":5123,"count":4707,"type":"SCALAR"},{"bufferView":47,"componentType":5126,"count":105,"max":[-114.73046875,-155.3048095703125,-48.89912033081055],"min":[-138.224609375,-190.41021728515625,-84.0045166015625],"type":"VEC3"},{"bufferView":48,"componentType":5126,"count":105,"type":"VEC3"},{"bufferView":49,"componentType":5126,"count":105,"type":"VEC2"},{"bufferView":50,"componentType":5126,"count":254,"max":[-59.373046875,-158.103271484375,-59.32200241088867],"min":[-129.9697265625,-188.58819580078125,-160.85719299316406],"type":"VEC3"},{"bufferView":51,"componentType":5126,"count":254,"type":"VEC3"},{"bufferView":52,"componentType":5126,"count":254,"type":"VEC2"},{"bufferView":53,"componentType":5123,"count":432,"type":"SCALAR"},{"bufferView":54,"componentType":5126,"count":8751,"max":[175.1376953125,286.84326171875,-67.95430755615234],"min":[-175.1376953125,-286.84326171875,-277.4004211425781],"type":"VEC3"},{"bufferView":55,"componentType":5126,"count":8751,"type":"VEC3"},{"bufferView":56,"componentType":5126,"count":8751,"type":"VEC2"},{"bufferView":57,"componentType":5123,"count":14430,"type":"SCALAR"}],"bufferViews":[{"buffer":0,"byteLength":480,"byteOffset":0,"target":34962},{"buffer":0,"byteLength":480,"byteOffset":480,"target":34962},{"buffer":0,"byteLength":320,"byteOffset":960,"target":34962},{"buffer":0,"byteLength":168,"byteOffset":1280,"target":34963},{"buffer":0,"byteLength":8112,"byteOffset":1448,"target":34962},{"buffer":0,"byteLength":8112,"byteOffset":9560,"target":34962},{"buffer":0,"byteLength":5408,"byteOffset":17672,"target":34962},{"buffer":0,"byteLength":2052,"byteOffset":23080,"target":34963},{"buffer":0,"byteLength":36636,"byteOffset":25132,"target":34962},{"buffer":0,"byteLength":36636,"byteOffset":61768,"target":34962},{"buffer":0,"byteLength":24424,"byteOffset":98404,"target":34962},{"buffer":0,"byteLength":9414,"byteOffset":122828,"target":34963},{"buffer":0,"byteLength":1260,"byteOffset":132244,"target":34962},{"buffer":0,"byteLength":1260,"byteOffset":133504,"target":34962},{"buffer":0,"byteLength":840,"byteOffset":134764,"target":34962},{"buffer":0,"byteLength":360,"byteOffset":135604,"target":34963},{"buffer":0,"byteLength":2904,"byteOffset":135964,"target":34962},{"buffer":0,"byteLength":2904,"byteOffset":138868,"target":34962},{"buffer":0,"byteLength":1936,"byteOffset":141772,"target":34962},{"buffer":0,"byteLength":864,"byteOffset":143708,"target":34963},{"buffer":0,"byteLength":36636,"byteOffset":144572,"target":34962},{"buffer":0,"byteLength":36636,"byteOffset":181208,"target":34962},{"buffer":0,"byteLength":24424,"byteOffset":217844,"target":34962},{"buffer":0,"byteLength":9414,"byteOffset":242268,"target":34963},{"buffer":0,"byteLength":1260,"byteOffset":251684,"target":34962},{"buffer":0,"byteLength":1260,"byteOffset":252944,"target":34962},{"buffer":0,"byteLength":840,"byteOffset":254204,"target":34962},{"buffer":0,"byteLength":2904,"byteOffset":255044,"target":34962},{"buffer":0,"byteLength":2904,"byteOffset":257948,"target":34962},{"buffer":0,"byteLength":1936,"byteOffset":260852,"target":34962},{"buffer":0,"byteLength":864,"byteOffset":262788,"target":34963},{"buffer":0,"byteLength":36636,"byteOffset":263652,"target":34962},{"buffer":0,"byteLength":36636,"byteOffset":300288,"target":34962},{"buffer":0,"byteLength":24424,"byteOffset":336924,"target":34962},{"buffer":0,"byteLength":9414,"byteOffset":361348,"target":34963},{"buffer":0,"byteLength":1260,"byteOffset":370764,"target":34962},{"buffer":0,"byteLength":1260,"byteOffset":372024,"target":34962},{"buffer":0,"byteLength":840,"byteOffset":373284,"target":34962},{"buffer":0,"byteLength":360,"byteOffset":374124,"target":34963},{"buffer":0,"byteLength":3048,"byteOffset":374484,"target":34962},{"buffer":0,"byteLength":3048,"byteOffset":377532,"target":34962},{"buffer":0,"byteLength":2032,"byteOffset":380580,"target":34962},{"buffer":0,"byteLength":864,"byteOffset":382612,"target":34963},{"buffer":0,"byteLength":36636,"byteOffset":383476,"target":34962},{"buffer":0,"byteLength":36636,"byteOffset":420112,"target":34962},{"buffer":0,"byteLength":24424,"byteOffset":456748,"target":34962},{"buffer":0,"byteLength":9414,"byteOffset":481172,"target":34963},{"buffer":0,"byteLength":1260,"byteOffset":490588,"target":34962},{"buffer":0,"byteLength":1260,"byteOffset":491848,"target":34962},{"buffer":0,"byteLength":840,"byteOffset":493108,"target":34962},{"buffer":0,"byteLength":3048,"byteOffset":493948,"target":34962},{"buffer":0,"byteLength":3048,"byteOffset":496996,"target":34962},{"buffer":0,"byteLength":2032,"byteOffset":500044,"target":34962},{"buffer":0,"byteLength":864,"byteOffset":502076,"target":34963},{"buffer":0,"byteLength":105012,"byteOffset":502940,"target":34962},{"buffer":0,"byteLength":105012,"byteOffset":607952,"target":34962},{"buffer":0,"byteLength":70008,"byteOffset":712964,"target":34962},{"buffer":0,"byteLength":28860,"byteOffset":782972,"target":34963}],"samplers":[{"magFilter":9729,"minFilter":9987}],"buffers":[{"byteLength":811832,"uri":"worlds_SM_Veh_Buggy_01.bin"}]}