{
	"asset":{
		"generator":"Khronos glTF Blender I/O v4.4.55",
		"version":"2.0"
	},
	"extensionsUsed":[
		"EXT_texture_webp"
	],
	"extensionsRequired":[
		"EXT_texture_webp"
	],
	"scene":0,
	"scenes":[
		{
			"name":"Scene",
			"nodes":[
				12
			]
		}
	],
	"nodes":[
		{
			"mesh":0,
			"name":"SM_Veh_HoverTank_02_Base_lf_Pad_01"
		},
		{
			"mesh":1,
			"name":"SM_Veh_HoverTank_02_Base_lf_Pad_02"
		},
		{
			"children":[
				0,
				1
			],
			"mesh":2,
			"name":"SM_Veh_HoverTank_02_Base_lf"
		},
		{
			"mesh":3,
			"name":"SM_Veh_HoverTank_02_Base_lr_Pad_01"
		},
		{
			"mesh":4,
			"name":"SM_Veh_HoverTank_02_Base_lr_Pad_02"
		},
		{
			"children":[
				3,
				4
			],
			"mesh":5,
			"name":"SM_Veh_HoverTank_02_Base_lr"
		},
		{
			"mesh":6,
			"name":"SM_Veh_HoverTank_02_Base_rf_Pad_01"
		},
		{
			"mesh":7,
			"name":"SM_Veh_HoverTank_02_Base_rf_Pad_02"
		},
		{
			"children":[
				6,
				7
			],
			"mesh":8,
			"name":"SM_Veh_HoverTank_02_Base_rf"
		},
		{
			"mesh":9,
			"name":"SM_Veh_HoverTank_02_Base_rr_Pad_01"
		},
		{
			"mesh":10,
			"name":"SM_Veh_HoverTank_02_Base_rr_Pad_02"
		},
		{
			"children":[
				9,
				10
			],
			"mesh":11,
			"name":"SM_Veh_HoverTank_02_Base_rr"
		},
		{
			"children":[
				2,
				5,
				8,
				11
			],
			"mesh":12,
			"name":"SM_Veh_HoverTank_02_Base",
			"rotation":[
				0.7071068286895752,
				0,
				0,
				0.7071068286895752
			],
			"scale":[
				0.009999999776482582,
				0.009999999776482582,
				0.009999999776482582
			]
		}
	],
	"materials":[
		{
			"doubleSided":true,
			"name":"Base_Lambert1",
			"pbrMetallicRoughness":{
				"baseColorTexture":{
					"index":0
				},
				"metallicFactor":0,
				"roughnessFactor":0.5527864098548889
			}
		}
	],
	"meshes":[
		{
			"name":"Mesh.008",
			"primitives":[
				{
					"attributes":{
						"POSITION":0,
						"NORMAL":1,
						"TEXCOORD_0":2
					},
					"indices":3,
					"material":0
				}
			]
		},
		{
			"name":"Mesh.009",
			"primitives":[
				{
					"attributes":{
						"POSITION":4,
						"NORMAL":5,
						"TEXCOORD_0":6
					},
					"indices":7,
					"material":0
				}
			]
		},
		{
			"name":"Mesh.007",
			"primitives":[
				{
					"attributes":{
						"POSITION":8,
						"NORMAL":9,
						"TEXCOORD_0":10
					},
					"indices":11,
					"material":0
				}
			]
		},
		{
			"name":"Mesh.005",
			"primitives":[
				{
					"attributes":{
						"POSITION":12,
						"NORMAL":13,
						"TEXCOORD_0":14
					},
					"indices":15,
					"material":0
				}
			]
		},
		{
			"name":"Mesh.006",
			"primitives":[
				{
					"attributes":{
						"POSITION":16,
						"NORMAL":17,
						"TEXCOORD_0":18
					},
					"indices":7,
					"material":0
				}
			]
		},
		{
			"name":"Mesh.004",
			"primitives":[
				{
					"attributes":{
						"POSITION":19,
						"NORMAL":20,
						"TEXCOORD_0":21
					},
					"indices":22,
					"material":0
				}
			]
		},
		{
			"name":"Mesh.011",
			"primitives":[
				{
					"attributes":{
						"POSITION":23,
						"NORMAL":24,
						"TEXCOORD_0":25
					},
					"indices":26,
					"material":0
				}
			]
		},
		{
			"name":"Mesh.012",
			"primitives":[
				{
					"attributes":{
						"POSITION":27,
						"NORMAL":28,
						"TEXCOORD_0":29
					},
					"indices":30,
					"material":0
				}
			]
		},
		{
			"name":"Mesh.010",
			"primitives":[
				{
					"attributes":{
						"POSITION":31,
						"NORMAL":32,
						"TEXCOORD_0":33
					},
					"indices":34,
					"material":0
				}
			]
		},
		{
			"name":"Mesh.002",
			"primitives":[
				{
					"attributes":{
						"POSITION":35,
						"NORMAL":36,
						"TEXCOORD_0":37
					},
					"indices":38,
					"material":0
				}
			]
		},
		{
			"name":"Mesh.003",
			"primitives":[
				{
					"attributes":{
						"POSITION":39,
						"NORMAL":40,
						"TEXCOORD_0":41
					},
					"indices":42,
					"material":0
				}
			]
		},
		{
			"name":"Mesh.001",
			"primitives":[
				{
					"attributes":{
						"POSITION":43,
						"NORMAL":44,
						"TEXCOORD_0":45
					},
					"indices":46,
					"material":0
				}
			]
		},
		{
			"name":"Mesh",
			"primitives":[
				{
					"attributes":{
						"POSITION":47,
						"NORMAL":48,
						"TEXCOORD_0":49
					},
					"indices":50,
					"material":0
				}
			]
		}
	],
	"textures":[
		{
			"extensions":{
				"EXT_texture_webp":{
					"source":0
				}
			},
			"sampler":0
		}
	],
	"images":[
		{
			"mimeType":"image/webp",
			"name":"PolygonScifiWorlds_Texture_01_A",
			"uri":"PolygonScifiWorlds_Texture_01_A.webp"
		}
	],
	"accessors":[
		{
			"bufferView":0,
			"componentType":5126,
			"count":601,
			"max":[
				321.1630859375,
				312.71630859375,
				0.51251220703125
			],
			"min":[
				216.357421875,
				207.826171875,
				-131.08843994140625
			],
			"type":"VEC3"
		},
		{
			"bufferView":1,
			"componentType":5126,
			"count":601,
			"type":"VEC3"
		},
		{
			"bufferView":2,
			"componentType":5126,
			"count":601,
			"type":"VEC2"
		},
		{
			"bufferView":3,
			"componentType":5123,
			"count":972,
			"type":"SCALAR"
		},
		{
			"bufferView":4,
			"componentType":5126,
			"count":602,
			"max":[
				321.1630859375,
				189.1513671875,
				0.51251220703125
			],
			"min":[
				216.357421875,
				84.26123046875,
				-131.08843994140625
			],
			"type":"VEC3"
		},
		{
			"bufferView":5,
			"componentType":5126,
			"count":602,
			"type":"VEC3"
		},
		{
			"bufferView":6,
			"componentType":5126,
			"count":602,
			"type":"VEC2"
		},
		{
			"bufferView":7,
			"componentType":5123,
			"count":972,
			"type":"SCALAR"
		},
		{
			"bufferView":8,
			"componentType":5126,
			"count":808,
			"max":[
				380.744140625,
				334.1484375,
				-11.830230712890625
			],
			"min":[
				139.7958984375,
				70.56298828125,
				-188.4046173095703
			],
			"type":"VEC3"
		},
		{
			"bufferView":9,
			"componentType":5126,
			"count":808,
			"type":"VEC3"
		},
		{
			"bufferView":10,
			"componentType":5126,
			"count":808,
			"type":"VEC2"
		},
		{
			"bufferView":11,
			"componentType":5123,
			"count":1434,
			"type":"SCALAR"
		},
		{
			"bufferView":12,
			"componentType":5126,
			"count":602,
			"max":[
				334.15234375,
				-112.70751953125,
				0.51251220703125
			],
			"min":[
				229.3447265625,
				-217.59716796875,
				-131.08843994140625
			],
			"type":"VEC3"
		},
		{
			"bufferView":13,
			"componentType":5126,
			"count":602,
			"type":"VEC3"
		},
		{
			"bufferView":14,
			"componentType":5126,
			"count":602,
			"type":"VEC2"
		},
		{
			"bufferView":15,
			"componentType":5123,
			"count":972,
			"type":"SCALAR"
		},
		{
			"bufferView":16,
			"componentType":5126,
			"count":602,
			"max":[
				334.15234375,
				-236.27197265625,
				0.51251220703125
			],
			"min":[
				229.3447265625,
				-341.16259765625,
				-131.08843994140625
			],
			"type":"VEC3"
		},
		{
			"bufferView":17,
			"componentType":5126,
			"count":602,
			"type":"VEC3"
		},
		{
			"bufferView":18,
			"componentType":5126,
			"count":602,
			"type":"VEC2"
		},
		{
			"bufferView":19,
			"componentType":5126,
			"count":808,
			"max":[
				393.734375,
				-91.27490234375,
				-11.830230712890625
			],
			"min":[
				152.7841796875,
				-354.8603515625,
				-188.4046173095703
			],
			"type":"VEC3"
		},
		{
			"bufferView":20,
			"componentType":5126,
			"count":808,
			"type":"VEC3"
		},
		{
			"bufferView":21,
			"componentType":5126,
			"count":808,
			"type":"VEC2"
		},
		{
			"bufferView":22,
			"componentType":5123,
			"count":1434,
			"type":"SCALAR"
		},
		{
			"bufferView":23,
			"componentType":5126,
			"count":602,
			"max":[
				-216.35546875,
				312.71630859375,
				0.51251220703125
			],
			"min":[
				-321.1630859375,
				207.826171875,
				-131.08843994140625
			],
			"type":"VEC3"
		},
		{
			"bufferView":24,
			"componentType":5126,
			"count":602,
			"type":"VEC3"
		},
		{
			"bufferView":25,
			"componentType":5126,
			"count":602,
			"type":"VEC2"
		},
		{
			"bufferView":26,
			"componentType":5123,
			"count":972,
			"type":"SCALAR"
		},
		{
			"bufferView":27,
			"componentType":5126,
			"count":602,
			"max":[
				-216.35546875,
				189.1513671875,
				0.51251220703125
			],
			"min":[
				-321.1630859375,
				84.26123046875,
				-131.08843994140625
			],
			"type":"VEC3"
		},
		{
			"bufferView":28,
			"componentType":5126,
			"count":602,
			"type":"VEC3"
		},
		{
			"bufferView":29,
			"componentType":5126,
			"count":602,
			"type":"VEC2"
		},
		{
			"bufferView":30,
			"componentType":5123,
			"count":972,
			"type":"SCALAR"
		},
		{
			"bufferView":31,
			"componentType":5126,
			"count":809,
			"max":[
				-139.7958984375,
				334.1484375,
				-11.830230712890625
			],
			"min":[
				-380.744140625,
				70.56298828125,
				-188.4046173095703
			],
			"type":"VEC3"
		},
		{
			"bufferView":32,
			"componentType":5126,
			"count":809,
			"type":"VEC3"
		},
		{
			"bufferView":33,
			"componentType":5126,
			"count":809,
			"type":"VEC2"
		},
		{
			"bufferView":34,
			"componentType":5123,
			"count":1434,
			"type":"SCALAR"
		},
		{
			"bufferView":35,
			"componentType":5126,
			"count":602,
			"max":[
				-229.34375,
				-112.70751953125,
				0.51251220703125
			],
			"min":[
				-334.150390625,
				-217.59716796875,
				-131.08843994140625
			],
			"type":"VEC3"
		},
		{
			"bufferView":36,
			"componentType":5126,
			"count":602,
			"type":"VEC3"
		},
		{
			"bufferView":37,
			"componentType":5126,
			"count":602,
			"type":"VEC2"
		},
		{
			"bufferView":38,
			"componentType":5123,
			"count":972,
			"type":"SCALAR"
		},
		{
			"bufferView":39,
			"componentType":5126,
			"count":602,
			"max":[
				-229.34375,
				-236.27197265625,
				0.51251220703125
			],
			"min":[
				-334.150390625,
				-341.16259765625,
				-131.08843994140625
			],
			"type":"VEC3"
		},
		{
			"bufferView":40,
			"componentType":5126,
			"count":602,
			"type":"VEC3"
		},
		{
			"bufferView":41,
			"componentType":5126,
			"count":602,
			"type":"VEC2"
		},
		{
			"bufferView":42,
			"componentType":5123,
			"count":972,
			"type":"SCALAR"
		},
		{
			"bufferView":43,
			"componentType":5126,
			"count":808,
			"max":[
				-152.7841796875,
				-91.27490234375,
				-11.830230712890625
			],
			"min":[
				-393.732421875,
				-354.8603515625,
				-188.4046173095703
			],
			"type":"VEC3"
		},
		{
			"bufferView":44,
			"componentType":5126,
			"count":808,
			"type":"VEC3"
		},
		{
			"bufferView":45,
			"componentType":5126,
			"count":808,
			"type":"VEC2"
		},
		{
			"bufferView":46,
			"componentType":5123,
			"count":1434,
			"type":"SCALAR"
		},
		{
			"bufferView":47,
			"componentType":5126,
			"count":3966,
			"max":[
				180.5166015625,
				371.3369140625,
				-21.337852478027344
			],
			"min":[
				-180.5166015625,
				-371.3369140625,
				-225.94223022460938
			],
			"type":"VEC3"
		},
		{
			"bufferView":48,
			"componentType":5126,
			"count":3966,
			"type":"VEC3"
		},
		{
			"bufferView":49,
			"componentType":5126,
			"count":3966,
			"type":"VEC2"
		},
		{
			"bufferView":50,
			"componentType":5123,
			"count":7056,
			"type":"SCALAR"
		}
	],
	"bufferViews":[
		{
			"buffer":0,
			"byteLength":7212,
			"byteOffset":0,
			"target":34962
		},
		{
			"buffer":0,
			"byteLength":7212,
			"byteOffset":7212,
			"target":34962
		},
		{
			"buffer":0,
			"byteLength":4808,
			"byteOffset":14424,
			"target":34962
		},
		{
			"buffer":0,
			"byteLength":1944,
			"byteOffset":19232,
			"target":34963
		},
		{
			"buffer":0,
			"byteLength":7224,
			"byteOffset":21176,
			"target":34962
		},
		{
			"buffer":0,
			"byteLength":7224,
			"byteOffset":28400,
			"target":34962
		},
		{
			"buffer":0,
			"byteLength":4816,
			"byteOffset":35624,
			"target":34962
		},
		{
			"buffer":0,
			"byteLength":1944,
			"byteOffset":40440,
			"target":34963
		},
		{
			"buffer":0,
			"byteLength":9696,
			"byteOffset":42384,
			"target":34962
		},
		{
			"buffer":0,
			"byteLength":9696,
			"byteOffset":52080,
			"target":34962
		},
		{
			"buffer":0,
			"byteLength":6464,
			"byteOffset":61776,
			"target":34962
		},
		{
			"buffer":0,
			"byteLength":2868,
			"byteOffset":68240,
			"target":34963
		},
		{
			"buffer":0,
			"byteLength":7224,
			"byteOffset":71108,
			"target":34962
		},
		{
			"buffer":0,
			"byteLength":7224,
			"byteOffset":78332,
			"target":34962
		},
		{
			"buffer":0,
			"byteLength":4816,
			"byteOffset":85556,
			"target":34962
		},
		{
			"buffer":0,
			"byteLength":1944,
			"byteOffset":90372,
			"target":34963
		},
		{
			"buffer":0,
			"byteLength":7224,
			"byteOffset":92316,
			"target":34962
		},
		{
			"buffer":0,
			"byteLength":7224,
			"byteOffset":99540,
			"target":34962
		},
		{
			"buffer":0,
			"byteLength":4816,
			"byteOffset":106764,
			"target":34962
		},
		{
			"buffer":0,
			"byteLength":9696,
			"byteOffset":111580,
			"target":34962
		},
		{
			"buffer":0,
			"byteLength":9696,
			"byteOffset":121276,
			"target":34962
		},
		{
			"buffer":0,
			"byteLength":6464,
			"byteOffset":130972,
			"target":34962
		},
		{
			"buffer":0,
			"byteLength":2868,
			"byteOffset":137436,
			"target":34963
		},
		{
			"buffer":0,
			"byteLength":7224,
			"byteOffset":140304,
			"target":34962
		},
		{
			"buffer":0,
			"byteLength":7224,
			"byteOffset":147528,
			"target":34962
		},
		{
			"buffer":0,
			"byteLength":4816,
			"byteOffset":154752,
			"target":34962
		},
		{
			"buffer":0,
			"byteLength":1944,
			"byteOffset":159568,
			"target":34963
		},
		{
			"buffer":0,
			"byteLength":7224,
			"byteOffset":161512,
			"target":34962
		},
		{
			"buffer":0,
			"byteLength":7224,
			"byteOffset":168736,
			"target":34962
		},
		{
			"buffer":0,
			"byteLength":4816,
			"byteOffset":175960,
			"target":34962
		},
		{
			"buffer":0,
			"byteLength":1944,
			"byteOffset":180776,
			"target":34963
		},
		{
			"buffer":0,
			"byteLength":9708,
			"byteOffset":182720,
			"target":34962
		},
		{
			"buffer":0,
			"byteLength":9708,
			"byteOffset":192428,
			"target":34962
		},
		{
			"buffer":0,
			"byteLength":6472,
			"byteOffset":202136,
			"target":34962
		},
		{
			"buffer":0,
			"byteLength":2868,
			"byteOffset":208608,
			"target":34963
		},
		{
			"buffer":0,
			"byteLength":7224,
			"byteOffset":211476,
			"target":34962
		},
		{
			"buffer":0,
			"byteLength":7224,
			"byteOffset":218700,
			"target":34962
		},
		{
			"buffer":0,
			"byteLength":4816,
			"byteOffset":225924,
			"target":34962
		},
		{
			"buffer":0,
			"byteLength":1944,
			"byteOffset":230740,
			"target":34963
		},
		{
			"buffer":0,
			"byteLength":7224,
			"byteOffset":232684,
			"target":34962
		},
		{
			"buffer":0,
			"byteLength":7224,
			"byteOffset":239908,
			"target":34962
		},
		{
			"buffer":0,
			"byteLength":4816,
			"byteOffset":247132,
			"target":34962
		},
		{
			"buffer":0,
			"byteLength":1944,
			"byteOffset":251948,
			"target":34963
		},
		{
			"buffer":0,
			"byteLength":9696,
			"byteOffset":253892,
			"target":34962
		},
		{
			"buffer":0,
			"byteLength":9696,
			"byteOffset":263588,
			"target":34962
		},
		{
			"buffer":0,
			"byteLength":6464,
			"byteOffset":273284,
			"target":34962
		},
		{
			"buffer":0,
			"byteLength":2868,
			"byteOffset":279748,
			"target":34963
		},
		{
			"buffer":0,
			"byteLength":47592,
			"byteOffset":282616,
			"target":34962
		},
		{
			"buffer":0,
			"byteLength":47592,
			"byteOffset":330208,
			"target":34962
		},
		{
			"buffer":0,
			"byteLength":31728,
			"byteOffset":377800,
			"target":34962
		},
		{
			"buffer":0,
			"byteLength":14112,
			"byteOffset":409528,
			"target":34963
		}
	],
	"samplers":[
		{
			"magFilter":9729,
			"minFilter":9987
		}
	],
	"buffers":[
		{
			"byteLength":423640,
			"uri":"worlds_SM_Veh_HoverTank_02_Base.bin"
		}
	]
}
