{"asset":{"generator":"Khronos glTF Blender I/O v4.4.55","version":"2.0"},"extensionsUsed":["EXT_texture_webp"],"extensionsRequired":["EXT_texture_webp"],"scene":0,"scenes":[{"name":"Scene","nodes":[0]}],"nodes":[{"mesh":0,"name":"SM_Chr_Attach_Hat_01","rotation":[0.7071068286895752,0,0,0.7071068286895752],"scale":[0.009999999776482582,0.009999999776482582,0.009999999776482582]}],"materials":[{"doubleSided":true,"name":"SciFi_Planets_SHD","pbrMetallicRoughness":{"baseColorTexture":{"index":1},"metallicFactor":0,"roughnessFactor":0.5527864098548889}}],"meshes":[{"name":"Mesh","primitives":[{"attributes":{"POSITION":0,"NORMAL":1,"TEXCOORD_0":2},"indices":3,"material":0}]}],"textures":[{"extensions":{},"sampler":0},{"extensions":{"EXT_texture_webp":{"source":0}},"sampler":0}],"images":[{"mimeType":"image/webp","name":"PolygonScifiWorlds_Texture_01_A","uri":"PolygonScifiWorlds_Texture_01_A.webp"}],"accessors":[{"bufferView":0,"componentType":5126,"count":272,"max":[19.082332611083984,23.99936294555664,-4.166290283203125],"min":[-24.261363983154297,-23.549421310424805,-31.730606079101562],"type":"VEC3"},{"bufferView":1,"componentType":5126,"count":272,"type":"VEC3"},{"bufferView":2,"componentType":5126,"count":272,"type":"VEC2"},{"bufferView":3,"componentType":5123,"count":390,"type":"SCALAR"}],"bufferViews":[{"buffer":0,"byteLength":3264,"byteOffset":0,"target":34962},{"buffer":0,"byteLength":3264,"byteOffset":3264,"target":34962},{"buffer":0,"byteLength":2176,"byteOffset":6528,"target":34962},{"buffer":0,"byteLength":780,"byteOffset":8704,"target":34963}],"samplers":[{"magFilter":9729,"minFilter":9987}],"buffers":[{"byteLength":9484,"uri":"worlds_SM_Chr_Attach_Hat_01.bin"}]}