{"asset":{"generator":"Khronos glTF Blender I/O v4.4.55","version":"2.0"},"extensionsUsed":["EXT_texture_webp"],"extensionsRequired":["EXT_texture_webp"],"scene":0,"scenes":[{"name":"Scene","nodes":[2]}],"nodes":[{"mesh":0,"name":"SM_Bld_Pod_Hab_Small_01_Glass_01"},{"mesh":1,"name":"SM_Bld_Pod_Hab_Small_01_Glass_02"},{"children":[0,1],"mesh":2,"name":"SM_Bld_Pod_Hab_Small_01","rotation":[0.7071068286895752,0,0,0.7071068286895752],"scale":[0.009999999776482582,0.009999999776482582,0.009999999776482582]}],"materials":[{"alphaMode":"MASK","doubleSided":true,"name":"Glass_MAT","pbrMetallicRoughness":{"baseColorFactor":[1,1,1,0.15662652254104614],"baseColorTexture":{"index":0},"metallicFactor":0,"roughnessFactor":0.5527864098548889},"alphaCutoff":0.5},{"doubleSided":true,"name":"POD_SHD:SciFi_Planets_POD_SHD","pbrMetallicRoughness":{"baseColorTexture":{"index":2},"metallicFactor":0,"roughnessFactor":0.5527864098548889}}],"meshes":[{"name":"Mesh.001","primitives":[{"attributes":{"POSITION":0,"NORMAL":1,"TEXCOORD_0":2},"indices":3,"material":0}]},{"name":"Mesh.002","primitives":[{"attributes":{"POSITION":4,"NORMAL":5,"TEXCOORD_0":6},"indices":7,"material":0}]},{"name":"Mesh","primitives":[{"attributes":{"POSITION":8,"NORMAL":9,"TEXCOORD_0":10},"indices":11,"material":1}]}],"textures":[{"extensions":{"EXT_texture_webp":{"source":0}},"sampler":0},{"extensions":{},"sampler":0},{"extensions":{"EXT_texture_webp":{"source":0}},"sampler":0}],"images":[{"mimeType":"image/webp","name":"PolygonScifiWorlds_Texture_01_A","uri":"PolygonScifiWorlds_Texture_01_A.webp"}],"accessors":[{"bufferView":0,"componentType":5126,"count":8,"max":[-634.148681640625,308.5546875,-236.0694122314453],"min":[-634.148681640625,-308.5546875,-302.1529846191406],"type":"VEC3"},{"bufferView":1,"componentType":5126,"count":8,"type":"VEC3"},{"bufferView":2,"componentType":5126,"count":8,"type":"VEC2"},{"bufferView":3,"componentType":5123,"count":12,"type":"SCALAR"},{"bufferView":4,"componentType":5126,"count":8,"max":[634.148681640625,308.5546875,-236.0694122314453],"min":[634.148681640625,-308.5546875,-302.1529846191406],"type":"VEC3"},{"bufferView":5,"componentType":5126,"count":8,"type":"VEC3"},{"bufferView":6,"componentType":5126,"count":8,"type":"VEC2"},{"bufferView":7,"componentType":5123,"count":12,"type":"SCALAR"},{"bufferView":8,"componentType":5126,"count":13140,"max":[688.7113037109375,500.0000305175781,130],"min":[-688.7113037109375,-500.0001220703125,-592.3621215820312],"type":"VEC3"},{"bufferView":9,"componentType":5126,"count":13140,"type":"VEC3"},{"bufferView":10,"componentType":5126,"count":13140,"type":"VEC2"},{"bufferView":11,"componentType":5123,"count":22647,"type":"SCALAR"}],"bufferViews":[{"buffer":0,"byteLength":96,"byteOffset":0,"target":34962},{"buffer":0,"byteLength":96,"byteOffset":96,"target":34962},{"buffer":0,"byteLength":64,"byteOffset":192,"target":34962},{"buffer":0,"byteLength":24,"byteOffset":256,"target":34963},{"buffer":0,"byteLength":96,"byteOffset":280,"target":34962},{"buffer":0,"byteLength":96,"byteOffset":376,"target":34962},{"buffer":0,"byteLength":64,"byteOffset":472,"target":34962},{"buffer":0,"byteLength":24,"byteOffset":536,"target":34963},{"buffer":0,"byteLength":157680,"byteOffset":560,"target":34962},{"buffer":0,"byteLength":157680,"byteOffset":158240,"target":34962},{"buffer":0,"byteLength":105120,"byteOffset":315920,"target":34962},{"buffer":0,"byteLength":45294,"byteOffset":421040,"target":34963}],"samplers":[{"magFilter":9729,"minFilter":9987}],"buffers":[{"byteLength":466336,"uri":"worlds_SM_Bld_Pod_Hab_Small_01.bin"}]}