{"asset":{"generator":"Khronos glTF Blender I/O v4.4.55","version":"2.0"},"extensionsUsed":["EXT_texture_webp"],"extensionsRequired":["EXT_texture_webp"],"scene":0,"scenes":[{"name":"Scene","nodes":[7]}],"nodes":[{"mesh":0,"name":"SM_Prop_Satellite_08_CrateDish_01"},{"children":[0],"mesh":1,"name":"SM_Prop_Satellite_08_CrateArm_03"},{"children":[1],"mesh":2,"name":"SM_Prop_Satellite_08_CrateArm_02"},{"children":[2],"mesh":3,"name":"SM_Prop_Satellite_08_CrateArm_01"},{"children":[3],"mesh":4,"name":"SM_Prop_Satellite_08_CrateSwivel_01"},{"mesh":5,"name":"SM_Prop_Satellite_08_Lid_01"},{"mesh":6,"name":"SM_Prop_Satellite_08_Lid_02"},{"children":[4,5,6],"mesh":7,"name":"SM_Prop_Satellite_08","rotation":[0.7071068286895752,0,0,0.7071068286895752],"scale":[0.009999999776482582,0.009999999776482582,0.009999999776482582]}],"materials":[{"doubleSided":true,"name":"SciFiCrate_MAT","pbrMetallicRoughness":{"baseColorTexture":{"index":1},"metallicFactor":0,"roughnessFactor":0.5527864098548889}}],"meshes":[{"name":"Mesh.005","primitives":[{"attributes":{"POSITION":0,"NORMAL":1,"TEXCOORD_0":2},"indices":3,"material":0}]},{"name":"Mesh.004","primitives":[{"attributes":{"POSITION":4,"NORMAL":5,"TEXCOORD_0":6},"indices":7,"material":0}]},{"name":"Mesh.003","primitives":[{"attributes":{"POSITION":8,"NORMAL":9,"TEXCOORD_0":10},"indices":11,"material":0}]},{"name":"Mesh.002","primitives":[{"attributes":{"POSITION":12,"NORMAL":13,"TEXCOORD_0":14},"indices":15,"material":0}]},{"name":"Mesh.001","primitives":[{"attributes":{"POSITION":16,"NORMAL":17,"TEXCOORD_0":18},"indices":19,"material":0}]},{"name":"Mesh.006","primitives":[{"attributes":{"POSITION":20,"NORMAL":21,"TEXCOORD_0":22},"indices":23,"material":0}]},{"name":"Mesh.007","primitives":[{"attributes":{"POSITION":24,"NORMAL":25,"TEXCOORD_0":26},"indices":27,"material":0}]},{"name":"Mesh","primitives":[{"attributes":{"POSITION":28,"NORMAL":29,"TEXCOORD_0":30},"indices":31,"material":0}]}],"textures":[{"extensions":{},"sampler":0},{"extensions":{"EXT_texture_webp":{"source":0}},"sampler":0}],"images":[{"mimeType":"image/webp","name":"PolygonScifiWorlds_Texture_01_A","uri":"PolygonScifiWorlds_Texture_01_A.webp"}],"accessors":[{"bufferView":0,"componentType":5126,"count":638,"max":[105.1708984375,44.380828857421875,-35.38267517089844],"min":[-95.62255859375,-44.928466796875,-97.22801208496094],"type":"VEC3"},{"bufferView":1,"componentType":5126,"count":638,"type":"VEC3"},{"bufferView":2,"componentType":5126,"count":638,"type":"VEC2"},{"bufferView":3,"componentType":5123,"count":1152,"type":"SCALAR"},{"bufferView":4,"componentType":5126,"count":121,"max":[93.93017578125,16.330078125,-44.06748962402344],"min":[31.21923828125,-16.330078125,-64.73329162597656],"type":"VEC3"},{"bufferView":5,"componentType":5126,"count":121,"type":"VEC3"},{"bufferView":6,"componentType":5126,"count":121,"type":"VEC2"},{"bufferView":7,"componentType":5123,"count":228,"type":"SCALAR"},{"bufferView":8,"componentType":5126,"count":414,"max":[98.3984375,27.344482421875,-33.83594512939453],"min":[-86.0986328125,-27.3828125,-63.97517395019531],"type":"VEC3"},{"bufferView":9,"componentType":5126,"count":414,"type":"VEC3"},{"bufferView":10,"componentType":5126,"count":414,"type":"VEC2"},{"bufferView":11,"componentType":5123,"count":792,"type":"SCALAR"},{"bufferView":12,"componentType":5126,"count":186,"max":[7.625,17.539794921875,-34.04278564453125],"min":[-84.7705078125,-17.539794921875,-56.579246520996094],"type":"VEC3"},{"bufferView":13,"componentType":5126,"count":186,"type":"VEC3"},{"bufferView":14,"componentType":5126,"count":186,"type":"VEC2"},{"bufferView":15,"componentType":5123,"count":336,"type":"SCALAR"},{"bufferView":16,"componentType":5126,"count":152,"max":[26.1611328125,26.161376953125,-10.595470428466797],"min":[-26.1611328125,-26.161376953125,-62.87751770019531],"type":"VEC3"},{"bufferView":17,"componentType":5126,"count":152,"type":"VEC3"},{"bufferView":18,"componentType":5126,"count":152,"type":"VEC2"},{"bufferView":19,"componentType":5123,"count":306,"type":"SCALAR"},{"bufferView":20,"componentType":5126,"count":510,"max":[122.68701171875,56.656707763671875,-64.65333557128906],"min":[0,-57.047119140625,-125.2515640258789],"type":"VEC3"},{"bufferView":21,"componentType":5126,"count":510,"type":"VEC3"},{"bufferView":22,"componentType":5126,"count":510,"type":"VEC2"},{"bufferView":23,"componentType":5123,"count":1008,"type":"SCALAR"},{"bufferView":24,"componentType":5126,"count":510,"max":[0,56.656707763671875,-64.65332794189453],"min":[-122.68701171875,-57.047119140625,-125.2515640258789],"type":"VEC3"},{"bufferView":25,"componentType":5126,"count":510,"type":"VEC3"},{"bufferView":26,"componentType":5126,"count":510,"type":"VEC2"},{"bufferView":27,"componentType":5123,"count":1008,"type":"SCALAR"},{"bufferView":28,"componentType":5126,"count":1058,"max":[121.6923828125,57.909637451171875,-0.040740966796875],"min":[-121.6923828125,-58.681396484375,-83.65294647216797],"type":"VEC3"},{"bufferView":29,"componentType":5126,"count":1058,"type":"VEC3"},{"bufferView":30,"componentType":5126,"count":1058,"type":"VEC2"},{"bufferView":31,"componentType":5123,"count":2040,"type":"SCALAR"}],"bufferViews":[{"buffer":0,"byteLength":7656,"byteOffset":0,"target":34962},{"buffer":0,"byteLength":7656,"byteOffset":7656,"target":34962},{"buffer":0,"byteLength":5104,"byteOffset":15312,"target":34962},{"buffer":0,"byteLength":2304,"byteOffset":20416,"target":34963},{"buffer":0,"byteLength":1452,"byteOffset":22720,"target":34962},{"buffer":0,"byteLength":1452,"byteOffset":24172,"target":34962},{"buffer":0,"byteLength":968,"byteOffset":25624,"target":34962},{"buffer":0,"byteLength":456,"byteOffset":26592,"target":34963},{"buffer":0,"byteLength":4968,"byteOffset":27048,"target":34962},{"buffer":0,"byteLength":4968,"byteOffset":32016,"target":34962},{"buffer":0,"byteLength":3312,"byteOffset":36984,"target":34962},{"buffer":0,"byteLength":1584,"byteOffset":40296,"target":34963},{"buffer":0,"byteLength":2232,"byteOffset":41880,"target":34962},{"buffer":0,"byteLength":2232,"byteOffset":44112,"target":34962},{"buffer":0,"byteLength":1488,"byteOffset":46344,"target":34962},{"buffer":0,"byteLength":672,"byteOffset":47832,"target":34963},{"buffer":0,"byteLength":1824,"byteOffset":48504,"target":34962},{"buffer":0,"byteLength":1824,"byteOffset":50328,"target":34962},{"buffer":0,"byteLength":1216,"byteOffset":52152,"target":34962},{"buffer":0,"byteLength":612,"byteOffset":53368,"target":34963},{"buffer":0,"byteLength":6120,"byteOffset":53980,"target":34962},{"buffer":0,"byteLength":6120,"byteOffset":60100,"target":34962},{"buffer":0,"byteLength":4080,"byteOffset":66220,"target":34962},{"buffer":0,"byteLength":2016,"byteOffset":70300,"target":34963},{"buffer":0,"byteLength":6120,"byteOffset":72316,"target":34962},{"buffer":0,"byteLength":6120,"byteOffset":78436,"target":34962},{"buffer":0,"byteLength":4080,"byteOffset":84556,"target":34962},{"buffer":0,"byteLength":2016,"byteOffset":88636,"target":34963},{"buffer":0,"byteLength":12696,"byteOffset":90652,"target":34962},{"buffer":0,"byteLength":12696,"byteOffset":103348,"target":34962},{"buffer":0,"byteLength":8464,"byteOffset":116044,"target":34962},{"buffer":0,"byteLength":4080,"byteOffset":124508,"target":34963}],"samplers":[{"magFilter":9729,"minFilter":9987}],"buffers":[{"byteLength":128588,"uri":"worlds_SM_Prop_Satellite_08.bin"}]}