{"asset":{"generator":"Khronos glTF Blender I/O v4.4.55","version":"2.0"},"extensionsUsed":["EXT_texture_webp"],"extensionsRequired":["EXT_texture_webp"],"scene":0,"scenes":[{"name":"Scene","nodes":[3]}],"nodes":[{"mesh":0,"name":"SM_Bld_Pod_Hab_Small_03_Glass_01","rotation":[1,0,0,7.549790126404332e-08],"scale":[-1,-1,-1]},{"mesh":1,"name":"SM_Bld_Pod_Hab_Small_03_Glass_02"},{"mesh":2,"name":"SM_Bld_Pod_Hab_Small_03_Glass_03"},{"children":[0,1,2],"mesh":3,"name":"SM_Bld_Pod_Hab_Small_03","rotation":[0.7071068286895752,0,0,0.7071068286895752],"scale":[0.009999999776482582,0.009999999776482582,0.009999999776482582]}],"materials":[{"alphaMode":"MASK","doubleSided":true,"name":"Glass_MAT","pbrMetallicRoughness":{"baseColorFactor":[1,1,1,0.15662652254104614],"baseColorTexture":{"index":0},"metallicFactor":0,"roughnessFactor":0.5527864098548889},"alphaCutoff":0.5},{"doubleSided":true,"name":"SciFiCrate_MAT","pbrMetallicRoughness":{"baseColorTexture":{"index":2},"metallicFactor":0,"roughnessFactor":0.5527864098548889}}],"meshes":[{"name":"Mesh.001","primitives":[{"attributes":{"POSITION":0,"NORMAL":1,"TEXCOORD_0":2},"indices":3,"material":0}]},{"name":"Mesh.002","primitives":[{"attributes":{"POSITION":4,"NORMAL":5,"TEXCOORD_0":6},"indices":3,"material":0}]},{"name":"Mesh.003","primitives":[{"attributes":{"POSITION":7,"NORMAL":8,"TEXCOORD_0":9},"indices":10,"material":0}]},{"name":"Mesh","primitives":[{"attributes":{"POSITION":11,"NORMAL":12,"TEXCOORD_0":13},"indices":14,"material":1}]}],"textures":[{"extensions":{"EXT_texture_webp":{"source":0}},"sampler":0},{"extensions":{},"sampler":0},{"extensions":{"EXT_texture_webp":{"source":0}},"sampler":0}],"images":[{"mimeType":"image/webp","name":"PolygonScifiWorlds_Texture_01_A","uri":"PolygonScifiWorlds_Texture_01_A.webp"}],"accessors":[{"bufferView":0,"componentType":5126,"count":16,"max":[466.2433166503906,202.7130126953125,-66.09239959716797],"min":[447.6687316894531,-202.797119140625,-358.93243408203125],"type":"VEC3"},{"bufferView":1,"componentType":5126,"count":16,"type":"VEC3"},{"bufferView":2,"componentType":5126,"count":16,"type":"VEC2"},{"bufferView":3,"componentType":5123,"count":36,"type":"SCALAR"},{"bufferView":4,"componentType":5126,"count":16,"max":[466.2433166503906,202.7130126953125,-66.09239959716797],"min":[447.6687316894531,-202.797119140625,-358.93243408203125],"type":"VEC3"},{"bufferView":5,"componentType":5126,"count":16,"type":"VEC3"},{"bufferView":6,"componentType":5126,"count":16,"type":"VEC2"},{"bufferView":7,"componentType":5126,"count":16,"max":[209.04913330078125,-322.308837890625,-82.9739761352539],"min":[-209.04922485351562,-388.8241271972656,-259.6058349609375],"type":"VEC3"},{"bufferView":8,"componentType":5126,"count":16,"type":"VEC3"},{"bufferView":9,"componentType":5126,"count":16,"type":"VEC2"},{"bufferView":10,"componentType":5123,"count":36,"type":"SCALAR"},{"bufferView":11,"componentType":5126,"count":6204,"max":[488.5400695800781,471.8634033203125,130],"min":[-488.5400695800781,-399.05462646484375,-694.3348388671875],"type":"VEC3"},{"bufferView":12,"componentType":5126,"count":6204,"type":"VEC3"},{"bufferView":13,"componentType":5126,"count":6204,"type":"VEC2"},{"bufferView":14,"componentType":5123,"count":10848,"type":"SCALAR"}],"bufferViews":[{"buffer":0,"byteLength":192,"byteOffset":0,"target":34962},{"buffer":0,"byteLength":192,"byteOffset":192,"target":34962},{"buffer":0,"byteLength":128,"byteOffset":384,"target":34962},{"buffer":0,"byteLength":72,"byteOffset":512,"target":34963},{"buffer":0,"byteLength":192,"byteOffset":584,"target":34962},{"buffer":0,"byteLength":192,"byteOffset":776,"target":34962},{"buffer":0,"byteLength":128,"byteOffset":968,"target":34962},{"buffer":0,"byteLength":192,"byteOffset":1096,"target":34962},{"buffer":0,"byteLength":192,"byteOffset":1288,"target":34962},{"buffer":0,"byteLength":128,"byteOffset":1480,"target":34962},{"buffer":0,"byteLength":72,"byteOffset":1608,"target":34963},{"buffer":0,"byteLength":74448,"byteOffset":1680,"target":34962},{"buffer":0,"byteLength":74448,"byteOffset":76128,"target":34962},{"buffer":0,"byteLength":49632,"byteOffset":150576,"target":34962},{"buffer":0,"byteLength":21696,"byteOffset":200208,"target":34963}],"samplers":[{"magFilter":9729,"minFilter":9987}],"buffers":[{"byteLength":221904,"uri":"worlds_SM_Bld_Pod_Hab_Small_03.bin"}]}