{"asset":{"generator":"Khronos glTF Blender I/O v4.4.55","version":"2.0"},"extensionsUsed":["EXT_texture_webp"],"extensionsRequired":["EXT_texture_webp"],"scene":0,"scenes":[{"name":"Scene","nodes":[2]}],"nodes":[{"mesh":0,"name":"SM_Bld_Scav_Wreckage_01_Scaffolding_01"},{"mesh":1,"name":"SM_Bld_Scav_Wreckage_01_Supports_01"},{"children":[0,1],"mesh":2,"name":"SM_Bld_Scav_Wreckage_01","rotation":[0.7071068286895752,0,0,0.7071068286895752],"scale":[0.009999999776482582,0.009999999776482582,0.009999999776482582]}],"materials":[{"doubleSided":true,"name":"SciFi_Planets_SHD","pbrMetallicRoughness":{"baseColorTexture":{"index":1},"metallicFactor":0,"roughnessFactor":0.5527864098548889}}],"meshes":[{"name":"Mesh.001","primitives":[{"attributes":{"POSITION":0,"NORMAL":1,"TEXCOORD_0":2,"TEXCOORD_1":3},"indices":4,"material":0}]},{"name":"Mesh.002","primitives":[{"attributes":{"POSITION":5,"NORMAL":6,"TEXCOORD_0":7},"indices":8,"material":0}]},{"name":"Mesh","primitives":[{"attributes":{"POSITION":9,"NORMAL":10,"TEXCOORD_0":11,"TEXCOORD_1":12,"TEXCOORD_2":13,"TEXCOORD_3":14},"indices":15,"material":0}]}],"textures":[{"extensions":{},"sampler":0},{"extensions":{"EXT_texture_webp":{"source":0}},"sampler":0}],"images":[{"mimeType":"image/webp","name":"PolygonScifiWorlds_Texture_01_A","uri":"PolygonScifiWorlds_Texture_01_A.webp"}],"accessors":[{"bufferView":0,"componentType":5126,"count":6808,"max":[5058.16357421875,-9488.390625,4.78369140625],"min":[-1338.5086669921875,-14049.060546875,-9180.09375],"type":"VEC3"},{"bufferView":1,"componentType":5126,"count":6808,"type":"VEC3"},{"bufferView":2,"componentType":5126,"count":6808,"type":"VEC2"},{"bufferView":3,"componentType":5126,"count":6808,"type":"VEC2"},{"bufferView":4,"componentType":5123,"count":10494,"type":"SCALAR"},{"bufferView":5,"componentType":5126,"count":7257,"max":[5686.52685546875,1390.41552734375,450.5662536621094],"min":[-5759.80517578125,-7303.31298828125,-2329.85302734375],"type":"VEC3"},{"bufferView":6,"componentType":5126,"count":7257,"type":"VEC3"},{"bufferView":7,"componentType":5126,"count":7257,"type":"VEC2"},{"bufferView":8,"componentType":5123,"count":12156,"type":"SCALAR"},{"bufferView":9,"componentType":5126,"count":28619,"max":[4080.375732421875,16173.640625,1294.5595703125],"min":[-4292.0205078125,-14334.7197265625,-9964.3427734375],"type":"VEC3"},{"bufferView":10,"componentType":5126,"count":28619,"type":"VEC3"},{"bufferView":11,"componentType":5126,"count":28619,"type":"VEC2"},{"bufferView":12,"componentType":5126,"count":28619,"type":"VEC2"},{"bufferView":13,"componentType":5126,"count":28619,"type":"VEC2"},{"bufferView":14,"componentType":5126,"count":28619,"type":"VEC2"},{"bufferView":15,"componentType":5123,"count":45210,"type":"SCALAR"}],"bufferViews":[{"buffer":0,"byteLength":81696,"byteOffset":0,"target":34962},{"buffer":0,"byteLength":81696,"byteOffset":81696,"target":34962},{"buffer":0,"byteLength":54464,"byteOffset":163392,"target":34962},{"buffer":0,"byteLength":54464,"byteOffset":217856,"target":34962},{"buffer":0,"byteLength":20988,"byteOffset":272320,"target":34963},{"buffer":0,"byteLength":87084,"byteOffset":293308,"target":34962},{"buffer":0,"byteLength":87084,"byteOffset":380392,"target":34962},{"buffer":0,"byteLength":58056,"byteOffset":467476,"target":34962},{"buffer":0,"byteLength":24312,"byteOffset":525532,"target":34963},{"buffer":0,"byteLength":343428,"byteOffset":549844,"target":34962},{"buffer":0,"byteLength":343428,"byteOffset":893272,"target":34962},{"buffer":0,"byteLength":228952,"byteOffset":1236700,"target":34962},{"buffer":0,"byteLength":228952,"byteOffset":1465652,"target":34962},{"buffer":0,"byteLength":228952,"byteOffset":1694604,"target":34962},{"buffer":0,"byteLength":228952,"byteOffset":1923556,"target":34962},{"buffer":0,"byteLength":90420,"byteOffset":2152508,"target":34963}],"samplers":[{"magFilter":9729,"minFilter":9987}],"buffers":[{"byteLength":2242928,"uri":"worlds_SM_Bld_Scav_Wreckage_01.bin"}]}