{"asset":{"generator":"Khronos glTF Blender I/O v4.4.55","version":"2.0"},"extensionsUsed":["EXT_texture_webp"],"extensionsRequired":["EXT_texture_webp"],"scene":0,"scenes":[{"name":"Scene","nodes":[2]}],"nodes":[{"mesh":0,"name":"SM_Bld_Door_Single_05_Door_01_Glass"},{"children":[0],"mesh":1,"name":"SM_Bld_Door_Single_05_Door_01"},{"children":[1],"mesh":2,"name":"SM_Bld_Door_Single_05","rotation":[0.7071068286895752,0,0,0.7071068286895752],"scale":[0.009999999776482582,0.009999999776482582,0.009999999776482582]}],"materials":[{"alphaMode":"MASK","doubleSided":true,"name":"Glass_MAT2","pbrMetallicRoughness":{"baseColorFactor":[1,1,1,0.15662652254104614],"baseColorTexture":{"index":0},"metallicFactor":0,"roughnessFactor":0.5527864098548889},"alphaCutoff":0.5},{"doubleSided":true,"name":"SciFi_Planets_SHD3","pbrMetallicRoughness":{"baseColorTexture":{"index":2},"metallicFactor":0,"roughnessFactor":0.5527864098548889}}],"meshes":[{"name":"Mesh.002","primitives":[{"attributes":{"POSITION":0,"NORMAL":1,"TEXCOORD_0":2},"indices":3,"material":0}]},{"name":"Mesh.001","primitives":[{"attributes":{"POSITION":4,"NORMAL":5,"TEXCOORD_0":6},"indices":7,"material":1}]},{"name":"Mesh","primitives":[{"attributes":{"POSITION":8,"NORMAL":9,"TEXCOORD_0":10},"indices":11,"material":1}]}],"textures":[{"extensions":{"EXT_texture_webp":{"source":0}},"sampler":0},{"extensions":{},"sampler":0},{"extensions":{"EXT_texture_webp":{"source":0}},"sampler":0}],"images":[{"mimeType":"image/webp","name":"PolygonScifiWorlds_Texture_01_A","uri":"PolygonScifiWorlds_Texture_01_A.webp"}],"accessors":[{"bufferView":0,"componentType":5126,"count":8,"max":[-9.805956840515137,2.2271804809570312,-37.09101867675781],"min":[-46.05961608886719,-2.2271804809570312,-217.54832458496094],"type":"VEC3"},{"bufferView":1,"componentType":5126,"count":8,"type":"VEC3"},{"bufferView":2,"componentType":5126,"count":8,"type":"VEC2"},{"bufferView":3,"componentType":5123,"count":12,"type":"SCALAR"},{"bufferView":4,"componentType":5126,"count":1180,"max":[84.16387939453125,8.339927673339844,0],"min":[-84.16387939453125,-8.339927673339844,-254.5237579345703],"type":"VEC3"},{"bufferView":5,"componentType":5126,"count":1180,"type":"VEC3"},{"bufferView":6,"componentType":5126,"count":1180,"type":"VEC2"},{"bufferView":7,"componentType":5123,"count":2328,"type":"SCALAR"},{"bufferView":8,"componentType":5126,"count":1224,"max":[105.94850158691406,32.44929885864258,30],"min":[-105.90100860595703,-32.49000930786133,-271.1451416015625],"type":"VEC3"},{"bufferView":9,"componentType":5126,"count":1224,"type":"VEC3"},{"bufferView":10,"componentType":5126,"count":1224,"type":"VEC2"},{"bufferView":11,"componentType":5123,"count":2358,"type":"SCALAR"}],"bufferViews":[{"buffer":0,"byteLength":96,"byteOffset":0,"target":34962},{"buffer":0,"byteLength":96,"byteOffset":96,"target":34962},{"buffer":0,"byteLength":64,"byteOffset":192,"target":34962},{"buffer":0,"byteLength":24,"byteOffset":256,"target":34963},{"buffer":0,"byteLength":14160,"byteOffset":280,"target":34962},{"buffer":0,"byteLength":14160,"byteOffset":14440,"target":34962},{"buffer":0,"byteLength":9440,"byteOffset":28600,"target":34962},{"buffer":0,"byteLength":4656,"byteOffset":38040,"target":34963},{"buffer":0,"byteLength":14688,"byteOffset":42696,"target":34962},{"buffer":0,"byteLength":14688,"byteOffset":57384,"target":34962},{"buffer":0,"byteLength":9792,"byteOffset":72072,"target":34962},{"buffer":0,"byteLength":4716,"byteOffset":81864,"target":34963}],"samplers":[{"magFilter":9729,"minFilter":9987}],"buffers":[{"byteLength":86580,"uri":"worlds_SM_Bld_Door_Single_05.bin"}]}