{
	"asset":{
		"generator":"Khronos glTF Blender I/O v4.4.55",
		"version":"2.0"
	},
	"extensionsUsed":[
		"EXT_texture_webp"
	],
	"extensionsRequired":[
		"EXT_texture_webp"
	],
	"scene":0,
	"scenes":[
		{
			"name":"Scene",
			"nodes":[
				0
			]
		}
	],
	"nodes":[
		{
			"mesh":0,
			"name":"SM_Env_Detail_Spikey_Group_02",
			"rotation":[
				0.7071068286895752,
				0,
				0,
				0.7071068286895752
			],
			"scale":[
				0.009999999776482582,
				0.009999999776482582,
				0.009999999776482582
			]
		}
	],
	"materials":[
		{
			"doubleSided":true,
			"name":"ScifiMat",
			"pbrMetallicRoughness":{
				"baseColorTexture":{
					"index":0
				},
				"metallicFactor":0,
				"roughnessFactor":0.5527864098548889
			}
		}
	],
	"meshes":[
		{
			"name":"Mesh",
			"primitives":[
				{
					"attributes":{
						"POSITION":0,
						"NORMAL":1,
						"TEXCOORD_0":2,
						"TEXCOORD_1":3
					},
					"indices":4,
					"material":0
				}
			]
		}
	],
	"textures":[
		{
			"extensions":{
				"EXT_texture_webp":{
					"source":0
				}
			},
			"sampler":0
		}
	],
	"images":[
		{
			"mimeType":"image/webp",
			"name":"PolygonScifiWorlds_Texture_01_A",
			"uri":"PolygonScifiWorlds_Texture_01_A.webp"
		}
	],
	"accessors":[
		{
			"bufferView":0,
			"componentType":5126,
			"count":1008,
			"max":[
				251.4517822265625,
				381.358642578125,
				31.73326873779297
			],
			"min":[
				-448.531494140625,
				-409.22137451171875,
				-832.0888671875
			],
			"type":"VEC3"
		},
		{
			"bufferView":1,
			"componentType":5126,
			"count":1008,
			"type":"VEC3"
		},
		{
			"bufferView":2,
			"componentType":5126,
			"count":1008,
			"type":"VEC2"
		},
		{
			"bufferView":3,
			"componentType":5126,
			"count":1008,
			"type":"VEC2"
		},
		{
			"bufferView":4,
			"componentType":5123,
			"count":1026,
			"type":"SCALAR"
		}
	],
	"bufferViews":[
		{
			"buffer":0,
			"byteLength":12096,
			"byteOffset":0,
			"target":34962
		},
		{
			"buffer":0,
			"byteLength":12096,
			"byteOffset":12096,
			"target":34962
		},
		{
			"buffer":0,
			"byteLength":8064,
			"byteOffset":24192,
			"target":34962
		},
		{
			"buffer":0,
			"byteLength":8064,
			"byteOffset":32256,
			"target":34962
		},
		{
			"buffer":0,
			"byteLength":2052,
			"byteOffset":40320,
			"target":34963
		}
	],
	"samplers":[
		{
			"magFilter":9729,
			"minFilter":9987
		}
	],
	"buffers":[
		{
			"byteLength":42372,
			"uri":"worlds_SM_Env_Detail_Spikey_Group_02.bin"
		}
	]
}
