{"asset":{"generator":"Khronos glTF Blender I/O v4.4.55","version":"2.0"},"extensionsUsed":["EXT_texture_webp"],"extensionsRequired":["EXT_texture_webp"],"scene":0,"scenes":[{"name":"Scene","nodes":[2]}],"nodes":[{"mesh":0,"name":"SM_Wep_Shotgun_02_Forestock_01"},{"mesh":1,"name":"SM_Wep_Shotgun_02_Trigger_01"},{"children":[0,1],"mesh":2,"name":"SM_Wep_Shotgun_02","rotation":[0.7071068286895752,0,0,0.7071068286895752],"scale":[0.009999999776482582,0.009999999776482582,0.009999999776482582]}],"materials":[{"doubleSided":true,"name":"Clip1:SM_Prop_Crate_03SG1","pbrMetallicRoughness":{"baseColorTexture":{"index":1},"metallicFactor":0,"roughnessFactor":0.5527864098548889}}],"meshes":[{"name":"Mesh.002","primitives":[{"attributes":{"POSITION":0,"NORMAL":1,"TEXCOORD_0":2},"indices":3,"material":0}]},{"name":"Mesh.001","primitives":[{"attributes":{"POSITION":4,"NORMAL":5,"TEXCOORD_0":6},"indices":7,"material":0}]},{"name":"Mesh","primitives":[{"attributes":{"POSITION":8,"NORMAL":9,"TEXCOORD_0":10,"COLOR_0":11,"COLOR_1":12,"COLOR_2":13},"indices":14,"material":0}]}],"textures":[{"extensions":{},"sampler":0},{"extensions":{"EXT_texture_webp":{"source":0}},"sampler":0}],"images":[{"mimeType":"image/webp","name":"PolygonScifiWorlds_Texture_01_A","uri":"PolygonScifiWorlds_Texture_01_A.webp"}],"accessors":[{"bufferView":0,"componentType":5126,"count":532,"max":[4.201053619384766,53.938873291015625,1.9024536609649658],"min":[-4.201053619384766,29.14434051513672,-5.447760581970215],"type":"VEC3"},{"bufferView":1,"componentType":5126,"count":532,"type":"VEC3"},{"bufferView":2,"componentType":5126,"count":532,"type":"VEC2"},{"bufferView":3,"componentType":5123,"count":828,"type":"SCALAR"},{"bufferView":4,"componentType":5126,"count":68,"max":[0.4227818548679352,7.571634769439697,-1.7574716806411743],"min":[-0.4227818548679352,4.04696798324585,-5.248764991760254],"type":"VEC3"},{"bufferView":5,"componentType":5126,"count":68,"type":"VEC3"},{"bufferView":6,"componentType":5126,"count":68,"type":"VEC2"},{"bufferView":7,"componentType":5123,"count":108,"type":"SCALAR"},{"bufferView":8,"componentType":5126,"count":2552,"max":[4.481637477874756,75.38439178466797,9.872769355773926],"min":[-4.481637477874756,-28.774944305419922,-23.260160446166992],"type":"VEC3"},{"bufferView":9,"componentType":5126,"count":2552,"type":"VEC3"},{"bufferView":10,"componentType":5126,"count":2552,"type":"VEC2"},{"bufferView":11,"componentType":5121,"count":2552,"normalized":true,"type":"VEC4"},{"bufferView":12,"componentType":5123,"count":2552,"normalized":true,"type":"VEC4"},{"bufferView":13,"componentType":5123,"count":2552,"normalized":true,"type":"VEC4"},{"bufferView":14,"componentType":5123,"count":4668,"type":"SCALAR"}],"bufferViews":[{"buffer":0,"byteLength":6384,"byteOffset":0,"target":34962},{"buffer":0,"byteLength":6384,"byteOffset":6384,"target":34962},{"buffer":0,"byteLength":4256,"byteOffset":12768,"target":34962},{"buffer":0,"byteLength":1656,"byteOffset":17024,"target":34963},{"buffer":0,"byteLength":816,"byteOffset":18680,"target":34962},{"buffer":0,"byteLength":816,"byteOffset":19496,"target":34962},{"buffer":0,"byteLength":544,"byteOffset":20312,"target":34962},{"buffer":0,"byteLength":216,"byteOffset":20856,"target":34963},{"buffer":0,"byteLength":30624,"byteOffset":21072,"target":34962},{"buffer":0,"byteLength":30624,"byteOffset":51696,"target":34962},{"buffer":0,"byteLength":20416,"byteOffset":82320,"target":34962},{"buffer":0,"byteLength":10208,"byteOffset":102736,"target":34962},{"buffer":0,"byteLength":20416,"byteOffset":112944,"target":34962},{"buffer":0,"byteLength":20416,"byteOffset":133360,"target":34962},{"buffer":0,"byteLength":9336,"byteOffset":153776,"target":34963}],"samplers":[{"magFilter":9729,"minFilter":9987}],"buffers":[{"byteLength":163112,"uri":"worlds_SM_Wep_Shotgun_02.bin"}]}