{
	"asset":{
		"generator":"Khronos glTF Blender I/O v4.4.55",
		"version":"2.0"
	},
	"extensionsUsed":[
		"EXT_texture_webp"
	],
	"extensionsRequired":[
		"EXT_texture_webp"
	],
	"scene":0,
	"scenes":[
		{
			"name":"Scene",
			"nodes":[
				0
			]
		}
	],
	"nodes":[
		{
			"mesh":0,
			"name":"SM_Env_Cliff_Rough_02",
			"rotation":[
				0.7071068286895752,
				0,
				0,
				0.7071068286895752
			],
			"scale":[
				0.009999999776482582,
				0.009999999776482582,
				0.009999999776482582
			]
		}
	],
	"materials":[
		{
			"doubleSided":true,
			"name":"ScifiMat",
			"pbrMetallicRoughness":{
				"baseColorTexture":{
					"index":0
				},
				"metallicFactor":0,
				"roughnessFactor":0.5527864098548889
			}
		}
	],
	"meshes":[
		{
			"name":"Mesh",
			"primitives":[
				{
					"attributes":{
						"POSITION":0,
						"NORMAL":1,
						"TEXCOORD_0":2
					},
					"indices":3,
					"material":0
				}
			]
		}
	],
	"textures":[
		{
			"extensions":{
				"EXT_texture_webp":{
					"source":0
				}
			},
			"sampler":0
		}
	],
	"images":[
		{
			"mimeType":"image/webp",
			"name":"PolygonScifiWorlds_Texture_01_A",
			"uri":"PolygonScifiWorlds_Texture_01_A.webp"
		}
	],
	"accessors":[
		{
			"bufferView":0,
			"componentType":5126,
			"count":4842,
			"max":[
				2181.364990234375,
				1145.189453125,
				1500.340576171875
			],
			"min":[
				-2162.563720703125,
				-1305.23046875,
				-1489.6429443359375
			],
			"type":"VEC3"
		},
		{
			"bufferView":1,
			"componentType":5126,
			"count":4842,
			"type":"VEC3"
		},
		{
			"bufferView":2,
			"componentType":5126,
			"count":4842,
			"type":"VEC2"
		},
		{
			"bufferView":3,
			"componentType":5123,
			"count":5022,
			"type":"SCALAR"
		}
	],
	"bufferViews":[
		{
			"buffer":0,
			"byteLength":58104,
			"byteOffset":0,
			"target":34962
		},
		{
			"buffer":0,
			"byteLength":58104,
			"byteOffset":58104,
			"target":34962
		},
		{
			"buffer":0,
			"byteLength":38736,
			"byteOffset":116208,
			"target":34962
		},
		{
			"buffer":0,
			"byteLength":10044,
			"byteOffset":154944,
			"target":34963
		}
	],
	"samplers":[
		{
			"magFilter":9729,
			"minFilter":9987
		}
	],
	"buffers":[
		{
			"byteLength":164988,
			"uri":"worlds_SM_Env_Cliff_Rough_02.bin"
		}
	]
}
