{
	"asset":{
		"generator":"Khronos glTF Blender I/O v4.4.55",
		"version":"2.0"
	},
	"extensionsUsed":[
		"EXT_texture_webp"
	],
	"extensionsRequired":[
		"EXT_texture_webp"
	],
	"scene":0,
	"scenes":[
		{
			"name":"Scene",
			"nodes":[
				0
			]
		}
	],
	"nodes":[
		{
			"mesh":0,
			"name":"SM_Env_Plant_Kelp_02",
			"rotation":[
				0.7071068286895752,
				0,
				0,
				0.7071068286895752
			],
			"scale":[
				0.009999999776482582,
				0.009999999776482582,
				0.009999999776482582
			]
		}
	],
	"materials":[
		{
			"doubleSided":true,
			"name":"Base_Lambert2",
			"pbrMetallicRoughness":{
				"baseColorTexture":{
					"index":0
				},
				"metallicFactor":0,
				"roughnessFactor":0.5527864098548889
			}
		}
	],
	"meshes":[
		{
			"name":"Mesh",
			"primitives":[
				{
					"attributes":{
						"POSITION":0,
						"NORMAL":1,
						"TEXCOORD_0":2,
						"COLOR_0":3,
						"COLOR_1":4
					},
					"indices":5,
					"material":0
				}
			]
		}
	],
	"textures":[
		{
			"extensions":{
				"EXT_texture_webp":{
					"source":0
				}
			},
			"sampler":0
		}
	],
	"images":[
		{
			"mimeType":"image/webp",
			"name":"PolygonScifiWorlds_Texture_01_A",
			"uri":"PolygonScifiWorlds_Texture_01_A.webp"
		}
	],
	"accessors":[
		{
			"bufferView":0,
			"componentType":5126,
			"count":1000,
			"max":[
				137.20111083984375,
				58.58661651611328,
				39.18849563598633
			],
			"min":[
				-118.56996154785156,
				-77.49430847167969,
				-273.1232604980469
			],
			"type":"VEC3"
		},
		{
			"bufferView":1,
			"componentType":5126,
			"count":1000,
			"type":"VEC3"
		},
		{
			"bufferView":2,
			"componentType":5126,
			"count":1000,
			"type":"VEC2"
		},
		{
			"bufferView":3,
			"componentType":5121,
			"count":1000,
			"normalized":true,
			"type":"VEC4"
		},
		{
			"bufferView":4,
			"componentType":5123,
			"count":1000,
			"normalized":true,
			"type":"VEC4"
		},
		{
			"bufferView":5,
			"componentType":5123,
			"count":1608,
			"type":"SCALAR"
		}
	],
	"bufferViews":[
		{
			"buffer":0,
			"byteLength":12000,
			"byteOffset":0,
			"target":34962
		},
		{
			"buffer":0,
			"byteLength":12000,
			"byteOffset":12000,
			"target":34962
		},
		{
			"buffer":0,
			"byteLength":8000,
			"byteOffset":24000,
			"target":34962
		},
		{
			"buffer":0,
			"byteLength":4000,
			"byteOffset":32000,
			"target":34962
		},
		{
			"buffer":0,
			"byteLength":8000,
			"byteOffset":36000,
			"target":34962
		},
		{
			"buffer":0,
			"byteLength":3216,
			"byteOffset":44000,
			"target":34963
		}
	],
	"samplers":[
		{
			"magFilter":9729,
			"minFilter":9987
		}
	],
	"buffers":[
		{
			"byteLength":47216,
			"uri":"worlds_SM_Env_Plant_Kelp_02.bin"
		}
	]
}
