{"asset":{"generator":"Khronos glTF Blender I/O v4.4.55","version":"2.0"},"extensionsUsed":["EXT_texture_webp"],"extensionsRequired":["EXT_texture_webp"],"scene":0,"scenes":[{"name":"Scene","nodes":[0]}],"nodes":[{"mesh":0,"name":"SM_Bld_Corp_Wall_01_Half_01","rotation":[0.70710688829422,0,0,0.7071066498756409],"scale":[0.009999999776482582,0.009999999776482582,0.009999999776482582]}],"materials":[{"doubleSided":true,"name":"SciFi_Planets_SHD.003","pbrMetallicRoughness":{"baseColorTexture":{"index":1},"metallicFactor":0,"roughnessFactor":0.5527864098548889}}],"meshes":[{"name":"Mesh.003","primitives":[{"attributes":{"POSITION":0,"NORMAL":1,"TEXCOORD_0":2},"indices":3,"material":0}]}],"textures":[{"extensions":{},"sampler":0},{"extensions":{"EXT_texture_webp":{"source":0}},"sampler":0}],"images":[{"mimeType":"image/webp","name":"PolygonScifiWorlds_Texture_01_A","uri":"PolygonScifiWorlds_Texture_01_A.webp"}],"accessors":[{"bufferView":0,"componentType":5126,"count":2664,"max":[1000,442.6907653808594,1.075968066288624e-05],"min":[-3.0517578125e-05,-11.2608642578125,-889.884765625],"type":"VEC3"},{"bufferView":1,"componentType":5126,"count":2664,"type":"VEC3"},{"bufferView":2,"componentType":5126,"count":2664,"type":"VEC2"},{"bufferView":3,"componentType":5123,"count":4848,"type":"SCALAR"}],"bufferViews":[{"buffer":0,"byteLength":31968,"byteOffset":0,"target":34962},{"buffer":0,"byteLength":31968,"byteOffset":31968,"target":34962},{"buffer":0,"byteLength":21312,"byteOffset":63936,"target":34962},{"buffer":0,"byteLength":9696,"byteOffset":85248,"target":34963}],"samplers":[{"magFilter":9729,"minFilter":9987}],"buffers":[{"byteLength":94944,"uri":"worlds_SM_Bld_Corp_Wall_01_Half_01.bin"}]}