{"asset":{"generator":"Khronos glTF Blender I/O v4.4.55","version":"2.0"},"extensionsUsed":["EXT_texture_webp"],"extensionsRequired":["EXT_texture_webp"],"scene":0,"scenes":[{"name":"Scene","nodes":[0]}],"nodes":[{"mesh":0,"name":"SM_Prop_Vendor_Knife_01","rotation":[0.7071068286895752,0,0,0.7071068286895752],"scale":[0.009999999776482582,0.009999999776482582,0.009999999776482582]}],"materials":[{"doubleSided":true,"name":"SciFi_Planets_SHD","pbrMetallicRoughness":{"baseColorTexture":{"index":1},"metallicFactor":0,"roughnessFactor":0.5527864098548889}}],"meshes":[{"name":"Mesh","primitives":[{"attributes":{"POSITION":0,"NORMAL":1,"TEXCOORD_0":2},"indices":3,"material":0}]}],"textures":[{"extensions":{},"sampler":0},{"extensions":{"EXT_texture_webp":{"source":0}},"sampler":0}],"images":[{"mimeType":"image/webp","name":"PolygonScifiWorlds_Texture_01_A","uri":"PolygonScifiWorlds_Texture_01_A.webp"}],"accessors":[{"bufferView":0,"componentType":5126,"count":100,"max":[2.198760986328125,37.82542419433594,1.3694963455200195],"min":[-2.500394344329834,-15.075745582580566,-1.3694963455200195],"type":"VEC3"},{"bufferView":1,"componentType":5126,"count":100,"type":"VEC3"},{"bufferView":2,"componentType":5126,"count":100,"type":"VEC2"},{"bufferView":3,"componentType":5123,"count":150,"type":"SCALAR"}],"bufferViews":[{"buffer":0,"byteLength":1200,"byteOffset":0,"target":34962},{"buffer":0,"byteLength":1200,"byteOffset":1200,"target":34962},{"buffer":0,"byteLength":800,"byteOffset":2400,"target":34962},{"buffer":0,"byteLength":300,"byteOffset":3200,"target":34963}],"samplers":[{"magFilter":9729,"minFilter":9987}],"buffers":[{"byteLength":3500,"uri":"worlds_SM_Prop_Vendor_Knife_01.bin"}]}