{
	"asset":{
		"generator":"Khronos glTF Blender I/O v4.4.55",
		"version":"2.0"
	},
	"extensionsUsed":[
		"EXT_texture_webp"
	],
	"extensionsRequired":[
		"EXT_texture_webp"
	],
	"scene":0,
	"scenes":[
		{
			"name":"Scene",
			"nodes":[
				0
			]
		}
	],
	"nodes":[
		{
			"mesh":0,
			"name":"SM_Env_Cracked_Edge_02",
			"rotation":[
				0.7071068286895752,
				0,
				0,
				0.7071068286895752
			],
			"scale":[
				0.009999999776482582,
				0.009999999776482582,
				0.009999999776482582
			]
		}
	],
	"materials":[
		{
			"doubleSided":true,
			"name":"ScifiMat",
			"pbrMetallicRoughness":{
				"baseColorTexture":{
					"index":0
				},
				"metallicFactor":0,
				"roughnessFactor":0.5527864098548889
			}
		}
	],
	"meshes":[
		{
			"name":"Mesh",
			"primitives":[
				{
					"attributes":{
						"POSITION":0,
						"NORMAL":1,
						"TEXCOORD_0":2
					},
					"indices":3,
					"material":0
				}
			]
		}
	],
	"textures":[
		{
			"extensions":{
				"EXT_texture_webp":{
					"source":0
				}
			},
			"sampler":0
		}
	],
	"images":[
		{
			"mimeType":"image/webp",
			"name":"PolygonScifiWorlds_Texture_01_A",
			"uri":"PolygonScifiWorlds_Texture_01_A.webp"
		}
	],
	"accessors":[
		{
			"bufferView":0,
			"componentType":5126,
			"count":905,
			"max":[
				243.988037109375,
				2423.685791015625,
				264.7341613769531
			],
			"min":[
				-2854.48388671875,
				-987.5143432617188,
				-108.84198760986328
			],
			"type":"VEC3"
		},
		{
			"bufferView":1,
			"componentType":5126,
			"count":905,
			"type":"VEC3"
		},
		{
			"bufferView":2,
			"componentType":5126,
			"count":905,
			"type":"VEC2"
		},
		{
			"bufferView":3,
			"componentType":5123,
			"count":1311,
			"type":"SCALAR"
		}
	],
	"bufferViews":[
		{
			"buffer":0,
			"byteLength":10860,
			"byteOffset":0,
			"target":34962
		},
		{
			"buffer":0,
			"byteLength":10860,
			"byteOffset":10860,
			"target":34962
		},
		{
			"buffer":0,
			"byteLength":7240,
			"byteOffset":21720,
			"target":34962
		},
		{
			"buffer":0,
			"byteLength":2622,
			"byteOffset":28960,
			"target":34963
		}
	],
	"samplers":[
		{
			"magFilter":9729,
			"minFilter":9987
		}
	],
	"buffers":[
		{
			"byteLength":31584,
			"uri":"worlds_SM_Env_Cracked_Edge_02.bin"
		}
	]
}
