{
	"asset":{
		"generator":"Khronos glTF Blender I/O v4.4.55",
		"version":"2.0"
	},
	"extensionsUsed":[
		"EXT_texture_webp"
	],
	"extensionsRequired":[
		"EXT_texture_webp"
	],
	"scene":0,
	"scenes":[
		{
			"name":"Scene",
			"nodes":[
				0
			]
		}
	],
	"nodes":[
		{
			"mesh":0,
			"name":"SM_Env_Plant_Flower_Large_01",
			"rotation":[
				0.7071068286895752,
				0,
				0,
				0.7071068286895752
			],
			"scale":[
				0.009999999776482582,
				0.009999999776482582,
				0.009999999776482582
			]
		}
	],
	"materials":[
		{
			"doubleSided":true,
			"name":"Base_Lambert4",
			"pbrMetallicRoughness":{
				"baseColorTexture":{
					"index":0
				},
				"metallicFactor":0,
				"roughnessFactor":0.5527864098548889
			}
		}
	],
	"meshes":[
		{
			"name":"Mesh",
			"primitives":[
				{
					"attributes":{
						"POSITION":0,
						"NORMAL":1,
						"TEXCOORD_0":2
					},
					"indices":3,
					"material":0
				}
			]
		}
	],
	"textures":[
		{
			"extensions":{
				"EXT_texture_webp":{
					"source":0
				}
			},
			"sampler":0
		}
	],
	"images":[
		{
			"mimeType":"image/webp",
			"name":"PolygonScifiWorlds_Texture_01_A",
			"uri":"PolygonScifiWorlds_Texture_01_A.webp"
		}
	],
	"accessors":[
		{
			"bufferView":0,
			"componentType":5126,
			"count":2465,
			"max":[
				603.91357421875,
				563.9462890625,
				67.49893188476562
			],
			"min":[
				-603.91357421875,
				-563.9462890625,
				-686.72216796875
			],
			"type":"VEC3"
		},
		{
			"bufferView":1,
			"componentType":5126,
			"count":2465,
			"type":"VEC3"
		},
		{
			"bufferView":2,
			"componentType":5126,
			"count":2465,
			"type":"VEC2"
		},
		{
			"bufferView":3,
			"componentType":5123,
			"count":3762,
			"type":"SCALAR"
		}
	],
	"bufferViews":[
		{
			"buffer":0,
			"byteLength":29580,
			"byteOffset":0,
			"target":34962
		},
		{
			"buffer":0,
			"byteLength":29580,
			"byteOffset":29580,
			"target":34962
		},
		{
			"buffer":0,
			"byteLength":19720,
			"byteOffset":59160,
			"target":34962
		},
		{
			"buffer":0,
			"byteLength":7524,
			"byteOffset":78880,
			"target":34963
		}
	],
	"samplers":[
		{
			"magFilter":9729,
			"minFilter":9987
		}
	],
	"buffers":[
		{
			"byteLength":86404,
			"uri":"worlds_SM_Env_Plant_Flower_Large_01.bin"
		}
	]
}
