{"asset":{"generator":"Khronos glTF Blender I/O v4.4.55","version":"2.0"},"extensionsUsed":["EXT_texture_webp"],"extensionsRequired":["EXT_texture_webp"],"scene":0,"scenes":[{"name":"Scene","nodes":[0]}],"nodes":[{"mesh":0,"name":"SM_Bld_Vendor_03","rotation":[0.7071068286895752,0,0,0.7071068286895752],"scale":[0.009999999776482582,0.009999999776482582,0.009999999776482582],"translation":[0.014441379345953465,0,0.004435488022863865]}],"materials":[{"doubleSided":true,"name":"SciFi_Planets_SHD","pbrMetallicRoughness":{"baseColorTexture":{"index":1},"metallicFactor":0,"roughnessFactor":0.5527864098548889}}],"meshes":[{"name":"Mesh","primitives":[{"attributes":{"POSITION":0,"NORMAL":1,"TEXCOORD_0":2},"indices":3,"material":0}]}],"textures":[{"extensions":{},"sampler":0},{"extensions":{"EXT_texture_webp":{"source":0}},"sampler":0}],"images":[{"mimeType":"image/webp","name":"PolygonScifiWorlds_Texture_01_A","uri":"PolygonScifiWorlds_Texture_01_A.webp"}],"accessors":[{"bufferView":0,"componentType":5126,"count":10084,"max":[196.08447265625,122.93165588378906,3.6100950637774076e-06],"min":[-196.08447265625,-125.47343444824219,-459.87518310546875],"type":"VEC3"},{"bufferView":1,"componentType":5126,"count":10084,"type":"VEC3"},{"bufferView":2,"componentType":5126,"count":10084,"type":"VEC2"},{"bufferView":3,"componentType":5123,"count":16845,"type":"SCALAR"}],"bufferViews":[{"buffer":0,"byteLength":121008,"byteOffset":0,"target":34962},{"buffer":0,"byteLength":121008,"byteOffset":121008,"target":34962},{"buffer":0,"byteLength":80672,"byteOffset":242016,"target":34962},{"buffer":0,"byteLength":33690,"byteOffset":322688,"target":34963}],"samplers":[{"magFilter":9729,"minFilter":9987}],"buffers":[{"byteLength":356380,"uri":"worlds_SM_Bld_Vendor_03.bin"}]}