{"asset":{"generator":"Khronos glTF Blender I/O v4.4.55","version":"2.0"},"extensionsUsed":["EXT_texture_webp"],"extensionsRequired":["EXT_texture_webp"],"scene":0,"scenes":[{"name":"Scene","nodes":[1]}],"nodes":[{"mesh":0,"name":"SM_Prop_Monitor_09_Glass_01"},{"children":[0],"mesh":1,"name":"SM_Prop_Monitor_09","rotation":[0.7071068286895752,0,0,0.7071068286895752],"scale":[0.009999999776482582,0.009999999776482582,0.009999999776482582]}],"materials":[{"alphaMode":"MASK","doubleSided":true,"name":"screensForCam:Glass_MAT","pbrMetallicRoughness":{"baseColorFactor":[1,1,1,0.15662652254104614],"baseColorTexture":{"index":0},"metallicFactor":0,"roughnessFactor":0.5527864098548889},"alphaCutoff":0.5},{"doubleSided":true,"name":"screensForCam:SciFi_Planets_SHD","pbrMetallicRoughness":{"baseColorTexture":{"index":2},"metallicFactor":0,"roughnessFactor":0.5527864098548889}}],"meshes":[{"name":"Mesh.001","primitives":[{"attributes":{"POSITION":0,"NORMAL":1,"TEXCOORD_0":2},"indices":3,"material":0}]},{"name":"Mesh","primitives":[{"attributes":{"POSITION":4,"NORMAL":5,"TEXCOORD_0":6},"indices":7,"material":1}]}],"textures":[{"extensions":{"EXT_texture_webp":{"source":0}},"sampler":0},{"extensions":{},"sampler":0},{"extensions":{"EXT_texture_webp":{"source":0}},"sampler":0}],"images":[{"mimeType":"image/webp","name":"PolygonScifiWorlds_Texture_01_A","uri":"PolygonScifiWorlds_Texture_01_A.webp"}],"accessors":[{"bufferView":0,"componentType":5126,"count":16,"max":[0.2781257629394531,81.909423828125,19.605636596679688],"min":[-0.2781257629394531,14.993182182312012,-19.605636596679688],"type":"VEC3"},{"bufferView":1,"componentType":5126,"count":16,"type":"VEC3"},{"bufferView":2,"componentType":5126,"count":16,"type":"VEC2"},{"bufferView":3,"componentType":5123,"count":24,"type":"SCALAR"},{"bufferView":4,"componentType":5126,"count":1192,"max":[5,86.1452865600586,23.805578231811523],"min":[-5,0,-23.805578231811523],"type":"VEC3"},{"bufferView":5,"componentType":5126,"count":1192,"type":"VEC3"},{"bufferView":6,"componentType":5126,"count":1192,"type":"VEC2"},{"bufferView":7,"componentType":5123,"count":1950,"type":"SCALAR"}],"bufferViews":[{"buffer":0,"byteLength":192,"byteOffset":0,"target":34962},{"buffer":0,"byteLength":192,"byteOffset":192,"target":34962},{"buffer":0,"byteLength":128,"byteOffset":384,"target":34962},{"buffer":0,"byteLength":48,"byteOffset":512,"target":34963},{"buffer":0,"byteLength":14304,"byteOffset":560,"target":34962},{"buffer":0,"byteLength":14304,"byteOffset":14864,"target":34962},{"buffer":0,"byteLength":9536,"byteOffset":29168,"target":34962},{"buffer":0,"byteLength":3900,"byteOffset":38704,"target":34963}],"samplers":[{"magFilter":9729,"minFilter":9987}],"buffers":[{"byteLength":42604,"uri":"worlds_SM_Prop_Monitor_09.bin"}]}