{
	"asset":{
		"generator":"Khronos glTF Blender I/O v4.4.55",
		"version":"2.0"
	},
	"extensionsUsed":[
		"EXT_texture_webp"
	],
	"extensionsRequired":[
		"EXT_texture_webp"
	],
	"scene":0,
	"scenes":[
		{
			"name":"Scene",
			"nodes":[
				0
			]
		}
	],
	"nodes":[
		{
			"mesh":0,
			"name":"SM_Prop_Skeleton_Spine_05",
			"rotation":[
				0.7071068286895752,
				0,
				0,
				0.7071068286895752
			],
			"scale":[
				0.009999999776482582,
				0.009999999776482582,
				0.009999999776482582
			],
			"translation":[
				0,
				-48.81341552734375,
				-9.875149726867676
			]
		}
	],
	"materials":[
		{
			"doubleSided":true,
			"name":"lambert2",
			"pbrMetallicRoughness":{
				"baseColorTexture":{
					"index":0
				},
				"metallicFactor":0,
				"roughnessFactor":0.5527864098548889
			}
		}
	],
	"meshes":[
		{
			"name":"Mesh",
			"primitives":[
				{
					"attributes":{
						"POSITION":0,
						"NORMAL":1,
						"TEXCOORD_0":2
					},
					"indices":3,
					"material":0
				}
			]
		}
	],
	"textures":[
		{
			"extensions":{
				"EXT_texture_webp":{
					"source":0
				}
			},
			"sampler":0
		}
	],
	"images":[
		{
			"mimeType":"image/webp",
			"name":"PolygonScifiWorlds_Texture_01_A",
			"uri":"PolygonScifiWorlds_Texture_01_A.webp"
		}
	],
	"accessors":[
		{
			"bufferView":0,
			"componentType":5126,
			"count":664,
			"max":[
				1072.6663818359375,
				918.7685546875,
				-4296.2490234375
			],
			"min":[
				-1080.3792724609375,
				-816.220703125,
				-6336.0400390625
			],
			"type":"VEC3"
		},
		{
			"bufferView":1,
			"componentType":5126,
			"count":664,
			"type":"VEC3"
		},
		{
			"bufferView":2,
			"componentType":5126,
			"count":664,
			"type":"VEC2"
		},
		{
			"bufferView":3,
			"componentType":5123,
			"count":672,
			"type":"SCALAR"
		}
	],
	"bufferViews":[
		{
			"buffer":0,
			"byteLength":7968,
			"byteOffset":0,
			"target":34962
		},
		{
			"buffer":0,
			"byteLength":7968,
			"byteOffset":7968,
			"target":34962
		},
		{
			"buffer":0,
			"byteLength":5312,
			"byteOffset":15936,
			"target":34962
		},
		{
			"buffer":0,
			"byteLength":1344,
			"byteOffset":21248,
			"target":34963
		}
	],
	"samplers":[
		{
			"magFilter":9729,
			"minFilter":9987
		}
	],
	"buffers":[
		{
			"byteLength":22592,
			"uri":"worlds_SM_Prop_Skeleton_Spine_05.bin"
		}
	]
}
