{"asset":{"generator":"Khronos glTF Blender I/O v4.4.55","version":"2.0"},"extensionsUsed":["EXT_texture_webp"],"extensionsRequired":["EXT_texture_webp"],"scene":0,"scenes":[{"name":"Scene","nodes":[5]}],"nodes":[{"mesh":0,"name":"SM_Prop_Satellite_02_Arm_01"},{"mesh":1,"name":"SM_Prop_Satellite_02_Arm_02"},{"mesh":2,"name":"SM_Prop_Satellite_02_Arm_03"},{"mesh":3,"name":"SM_Prop_Satellite_02_Arm_04"},{"children":[0,1,2,3],"mesh":4,"name":"SM_Prop_Satellite_02_Sensor_01"},{"children":[4],"mesh":5,"name":"SM_Prop_Satellite_02","rotation":[0.7071068286895752,0,0,0.7071068286895752],"scale":[0.009999999776482582,0.009999999776482582,0.009999999776482582]}],"materials":[{"doubleSided":true,"name":"SciFi_Planets_SHD","pbrMetallicRoughness":{"baseColorTexture":{"index":1},"metallicFactor":0,"roughnessFactor":0.5527864098548889}}],"meshes":[{"name":"Mesh.002","primitives":[{"attributes":{"POSITION":0,"NORMAL":1,"TEXCOORD_0":2},"indices":3,"material":0}]},{"name":"Mesh.003","primitives":[{"attributes":{"POSITION":4,"NORMAL":5,"TEXCOORD_0":6},"indices":7,"material":0}]},{"name":"Mesh.004","primitives":[{"attributes":{"POSITION":8,"NORMAL":9,"TEXCOORD_0":10},"indices":11,"material":0}]},{"name":"Mesh.005","primitives":[{"attributes":{"POSITION":12,"NORMAL":13,"TEXCOORD_0":14},"indices":15,"material":0}]},{"name":"Mesh.001","primitives":[{"attributes":{"POSITION":16,"NORMAL":17,"TEXCOORD_0":18},"indices":19,"material":0}]},{"name":"Mesh","primitives":[{"attributes":{"POSITION":20,"NORMAL":21,"TEXCOORD_0":22},"indices":23,"material":0}]}],"textures":[{"extensions":{},"sampler":0},{"extensions":{"EXT_texture_webp":{"source":0}},"sampler":0}],"images":[{"mimeType":"image/webp","name":"PolygonScifiWorlds_Texture_01_A","uri":"PolygonScifiWorlds_Texture_01_A.webp"}],"accessors":[{"bufferView":0,"componentType":5126,"count":673,"max":[131.33380126953125,107.2646484375,-199.9951171875],"min":[52.44403076171875,-107.2646484375,-605.080078125],"type":"VEC3"},{"bufferView":1,"componentType":5126,"count":673,"type":"VEC3"},{"bufferView":2,"componentType":5126,"count":673,"type":"VEC2"},{"bufferView":3,"componentType":5123,"count":1134,"type":"SCALAR"},{"bufferView":4,"componentType":5126,"count":651,"max":[107.71583557128906,-52.224365234375,-199.99462890625],"min":[-107.71583557128906,-130.783935546875,-605.078369140625],"type":"VEC3"},{"bufferView":5,"componentType":5126,"count":651,"type":"VEC3"},{"bufferView":6,"componentType":5126,"count":651,"type":"VEC2"},{"bufferView":7,"componentType":5123,"count":1134,"type":"SCALAR"},{"bufferView":8,"componentType":5126,"count":668,"max":[-52.44390869140625,107.2646484375,-199.994140625],"min":[-131.33392333984375,-107.2646484375,-605.078125],"type":"VEC3"},{"bufferView":9,"componentType":5126,"count":668,"type":"VEC3"},{"bufferView":10,"componentType":5126,"count":668,"type":"VEC2"},{"bufferView":11,"componentType":5123,"count":1134,"type":"SCALAR"},{"bufferView":12,"componentType":5126,"count":653,"max":[107.71582794189453,130.783935546875,-199.99462890625],"min":[-107.71582794189453,52.224365234375,-605.0783081054688],"type":"VEC3"},{"bufferView":13,"componentType":5126,"count":653,"type":"VEC3"},{"bufferView":14,"componentType":5126,"count":653,"type":"VEC2"},{"bufferView":15,"componentType":5123,"count":1134,"type":"SCALAR"},{"bufferView":16,"componentType":5126,"count":1605,"max":[120.63162231445312,120.12646484375,-146.3381805419922],"min":[-120.6302719116211,-120.12646484375,-391.8460998535156],"type":"VEC3"},{"bufferView":17,"componentType":5126,"count":1605,"type":"VEC3"},{"bufferView":18,"componentType":5126,"count":1605,"type":"VEC2"},{"bufferView":19,"componentType":5123,"count":2826,"type":"SCALAR"},{"bufferView":20,"componentType":5126,"count":1584,"max":[125.38468933105469,124.859619140625,0.0979614183306694],"min":[-125.38481140136719,-124.859619140625,-149.087890625],"type":"VEC3"},{"bufferView":21,"componentType":5126,"count":1584,"type":"VEC3"},{"bufferView":22,"componentType":5126,"count":1584,"type":"VEC2"},{"bufferView":23,"componentType":5123,"count":2592,"type":"SCALAR"}],"bufferViews":[{"buffer":0,"byteLength":8076,"byteOffset":0,"target":34962},{"buffer":0,"byteLength":8076,"byteOffset":8076,"target":34962},{"buffer":0,"byteLength":5384,"byteOffset":16152,"target":34962},{"buffer":0,"byteLength":2268,"byteOffset":21536,"target":34963},{"buffer":0,"byteLength":7812,"byteOffset":23804,"target":34962},{"buffer":0,"byteLength":7812,"byteOffset":31616,"target":34962},{"buffer":0,"byteLength":5208,"byteOffset":39428,"target":34962},{"buffer":0,"byteLength":2268,"byteOffset":44636,"target":34963},{"buffer":0,"byteLength":8016,"byteOffset":46904,"target":34962},{"buffer":0,"byteLength":8016,"byteOffset":54920,"target":34962},{"buffer":0,"byteLength":5344,"byteOffset":62936,"target":34962},{"buffer":0,"byteLength":2268,"byteOffset":68280,"target":34963},{"buffer":0,"byteLength":7836,"byteOffset":70548,"target":34962},{"buffer":0,"byteLength":7836,"byteOffset":78384,"target":34962},{"buffer":0,"byteLength":5224,"byteOffset":86220,"target":34962},{"buffer":0,"byteLength":2268,"byteOffset":91444,"target":34963},{"buffer":0,"byteLength":19260,"byteOffset":93712,"target":34962},{"buffer":0,"byteLength":19260,"byteOffset":112972,"target":34962},{"buffer":0,"byteLength":12840,"byteOffset":132232,"target":34962},{"buffer":0,"byteLength":5652,"byteOffset":145072,"target":34963},{"buffer":0,"byteLength":19008,"byteOffset":150724,"target":34962},{"buffer":0,"byteLength":19008,"byteOffset":169732,"target":34962},{"buffer":0,"byteLength":12672,"byteOffset":188740,"target":34962},{"buffer":0,"byteLength":5184,"byteOffset":201412,"target":34963}],"samplers":[{"magFilter":9729,"minFilter":9987}],"buffers":[{"byteLength":206596,"uri":"worlds_SM_Prop_Satellite_02.bin"}]}