{"asset":{"generator":"Khronos glTF Blender I/O v4.4.55","version":"2.0"},"extensionsUsed":["EXT_texture_webp"],"extensionsRequired":["EXT_texture_webp"],"scene":0,"scenes":[{"name":"Scene","nodes":[4]}],"nodes":[{"mesh":0,"name":"SM_Prop_SolarPanel_01_Panel_01"},{"mesh":1,"name":"SM_Prop_SolarPanel_01_Panel_02","rotation":[0,0,0.8660253882408142,0.4999999701976776],"translation":[-1.0360239684814587e-05,6.7742489591182675e-06,0]},{"mesh":2,"name":"SM_Prop_SolarPanel_01_Panel_03","rotation":[0,0,-0.8660253882408142,0.4999999701976776],"translation":[-2.7308433345751837e-06,-1.440364485461032e-05,0]},{"children":[0,1,2],"mesh":3,"name":"SM_Prop_SolarPanel_01_Swivel_01"},{"children":[3],"mesh":4,"name":"SM_Prop_SolarPanel_01","rotation":[0.7071068286895752,0,0,0.7071068286895752],"scale":[0.009999999776482582,0.009999999776482582,0.009999999776482582]}],"materials":[{"doubleSided":true,"name":"SciFi_Planets_SHD","pbrMetallicRoughness":{"baseColorTexture":{"index":1},"metallicFactor":0,"roughnessFactor":0.5527864098548889}}],"meshes":[{"name":"Mesh.002","primitives":[{"attributes":{"POSITION":0,"NORMAL":1,"TEXCOORD_0":2},"indices":3,"material":0}]},{"name":"Mesh.003","primitives":[{"attributes":{"POSITION":4,"NORMAL":5,"TEXCOORD_0":6},"indices":7,"material":0}]},{"name":"Mesh.004","primitives":[{"attributes":{"POSITION":8,"NORMAL":9,"TEXCOORD_0":10},"indices":11,"material":0}]},{"name":"Mesh.001","primitives":[{"attributes":{"POSITION":12,"NORMAL":13,"TEXCOORD_0":14},"indices":15,"material":0}]},{"name":"Mesh","primitives":[{"attributes":{"POSITION":16,"NORMAL":17,"TEXCOORD_0":18},"indices":19,"material":0}]}],"textures":[{"extensions":{},"sampler":0},{"extensions":{"EXT_texture_webp":{"source":0}},"sampler":0}],"images":[{"mimeType":"image/webp","name":"PolygonScifiWorlds_Texture_01_A","uri":"PolygonScifiWorlds_Texture_01_A.webp"}],"accessors":[{"bufferView":0,"componentType":5126,"count":2288,"max":[232.705078125,-118.0859375,-241.41282653808594],"min":[-232.705078125,-529.6107177734375,-281.4346923828125],"type":"VEC3"},{"bufferView":1,"componentType":5126,"count":2288,"type":"VEC3"},{"bufferView":2,"componentType":5126,"count":2288,"type":"VEC2"},{"bufferView":3,"componentType":5123,"count":3756,"type":"SCALAR"},{"bufferView":4,"componentType":5126,"count":2306,"max":[232.7052459716797,-118.08544158935547,-241.41282653808594],"min":[-232.70399475097656,-529.61083984375,-281.4346923828125],"type":"VEC3"},{"bufferView":5,"componentType":5126,"count":2306,"type":"VEC3"},{"bufferView":6,"componentType":5126,"count":2306,"type":"VEC2"},{"bufferView":7,"componentType":5123,"count":3756,"type":"SCALAR"},{"bufferView":8,"componentType":5126,"count":2290,"max":[232.70533752441406,-118.08606719970703,-241.41282653808594],"min":[-232.70506286621094,-529.6106567382812,-281.4346923828125],"type":"VEC3"},{"bufferView":9,"componentType":5126,"count":2290,"type":"VEC3"},{"bufferView":10,"componentType":5126,"count":2290,"type":"VEC2"},{"bufferView":11,"componentType":5123,"count":3756,"type":"SCALAR"},{"bufferView":12,"componentType":5126,"count":1676,"max":[133.00341796875,97.01123046875,-149.62518310546875],"min":[-133.00341796875,-138.47607421875,-292.134033203125],"type":"VEC3"},{"bufferView":13,"componentType":5126,"count":1676,"type":"VEC3"},{"bufferView":14,"componentType":5126,"count":1676,"type":"VEC2"},{"bufferView":15,"componentType":5123,"count":2874,"type":"SCALAR"},{"bufferView":16,"componentType":5126,"count":2951,"max":[236.12158203125,265.150146484375,1.0994814610078459e-14],"min":[-236.12158203125,-143.82421875,-178.8232421875],"type":"VEC3"},{"bufferView":17,"componentType":5126,"count":2951,"type":"VEC3"},{"bufferView":18,"componentType":5126,"count":2951,"type":"VEC2"},{"bufferView":19,"componentType":5123,"count":4854,"type":"SCALAR"}],"bufferViews":[{"buffer":0,"byteLength":27456,"byteOffset":0,"target":34962},{"buffer":0,"byteLength":27456,"byteOffset":27456,"target":34962},{"buffer":0,"byteLength":18304,"byteOffset":54912,"target":34962},{"buffer":0,"byteLength":7512,"byteOffset":73216,"target":34963},{"buffer":0,"byteLength":27672,"byteOffset":80728,"target":34962},{"buffer":0,"byteLength":27672,"byteOffset":108400,"target":34962},{"buffer":0,"byteLength":18448,"byteOffset":136072,"target":34962},{"buffer":0,"byteLength":7512,"byteOffset":154520,"target":34963},{"buffer":0,"byteLength":27480,"byteOffset":162032,"target":34962},{"buffer":0,"byteLength":27480,"byteOffset":189512,"target":34962},{"buffer":0,"byteLength":18320,"byteOffset":216992,"target":34962},{"buffer":0,"byteLength":7512,"byteOffset":235312,"target":34963},{"buffer":0,"byteLength":20112,"byteOffset":242824,"target":34962},{"buffer":0,"byteLength":20112,"byteOffset":262936,"target":34962},{"buffer":0,"byteLength":13408,"byteOffset":283048,"target":34962},{"buffer":0,"byteLength":5748,"byteOffset":296456,"target":34963},{"buffer":0,"byteLength":35412,"byteOffset":302204,"target":34962},{"buffer":0,"byteLength":35412,"byteOffset":337616,"target":34962},{"buffer":0,"byteLength":23608,"byteOffset":373028,"target":34962},{"buffer":0,"byteLength":9708,"byteOffset":396636,"target":34963}],"samplers":[{"magFilter":9729,"minFilter":9987}],"buffers":[{"byteLength":406344,"uri":"worlds_SM_Prop_SolarPanel_01.bin"}]}