{
	"asset":{
		"generator":"Khronos glTF Blender I/O v4.4.55",
		"version":"2.0"
	},
	"extensionsUsed":[
		"EXT_texture_webp"
	],
	"extensionsRequired":[
		"EXT_texture_webp"
	],
	"scene":0,
	"scenes":[
		{
			"name":"Scene",
			"nodes":[
				0
			]
		}
	],
	"nodes":[
		{
			"mesh":0,
			"name":"SM_Chr_Attach_Head_Mask_02",
			"rotation":[
				0.7071068286895752,
				0,
				0,
				0.7071068286895752
			],
			"scale":[
				0.009999999776482582,
				0.009999999776482582,
				0.009999999776482582
			]
		}
	],
	"materials":[
		{
			"doubleSided":true,
			"name":"Scifi",
			"pbrMetallicRoughness":{
				"baseColorTexture":{
					"index":0
				},
				"metallicFactor":0,
				"roughnessFactor":0.5527864098548889
			}
		}
	],
	"meshes":[
		{
			"name":"Mesh",
			"primitives":[
				{
					"attributes":{
						"POSITION":0,
						"NORMAL":1,
						"TEXCOORD_0":2,
						"COLOR_0":3,
						"COLOR_1":4
					},
					"indices":5,
					"material":0
				}
			]
		}
	],
	"textures":[
		{
			"extensions":{
				"EXT_texture_webp":{
					"source":0
				}
			},
			"sampler":0
		}
	],
	"images":[
		{
			"mimeType":"image/webp",
			"name":"PolygonScifiWorlds_Texture_01_A",
			"uri":"PolygonScifiWorlds_Texture_01_A.webp"
		}
	],
	"accessors":[
		{
			"bufferView":0,
			"componentType":5126,
			"count":278,
			"max":[
				14.240778923034668,
				15.11218547821045,
				9.184906005859375
			],
			"min":[
				-14.240778923034668,
				-12.761030197143555,
				-22.746444702148438
			],
			"type":"VEC3"
		},
		{
			"bufferView":1,
			"componentType":5126,
			"count":278,
			"type":"VEC3"
		},
		{
			"bufferView":2,
			"componentType":5126,
			"count":278,
			"type":"VEC2"
		},
		{
			"bufferView":3,
			"componentType":5121,
			"count":278,
			"normalized":true,
			"type":"VEC4"
		},
		{
			"bufferView":4,
			"componentType":5123,
			"count":278,
			"normalized":true,
			"type":"VEC4"
		},
		{
			"bufferView":5,
			"componentType":5123,
			"count":366,
			"type":"SCALAR"
		}
	],
	"bufferViews":[
		{
			"buffer":0,
			"byteLength":3336,
			"byteOffset":0,
			"target":34962
		},
		{
			"buffer":0,
			"byteLength":3336,
			"byteOffset":3336,
			"target":34962
		},
		{
			"buffer":0,
			"byteLength":2224,
			"byteOffset":6672,
			"target":34962
		},
		{
			"buffer":0,
			"byteLength":1112,
			"byteOffset":8896,
			"target":34962
		},
		{
			"buffer":0,
			"byteLength":2224,
			"byteOffset":10008,
			"target":34962
		},
		{
			"buffer":0,
			"byteLength":732,
			"byteOffset":12232,
			"target":34963
		}
	],
	"samplers":[
		{
			"magFilter":9729,
			"minFilter":9987
		}
	],
	"buffers":[
		{
			"byteLength":12964,
			"uri":"worlds_SM_Chr_Attach_Head_Mask_02.bin"
		}
	]
}
