{
	"asset":{
		"generator":"Khronos glTF Blender I/O v4.4.55",
		"version":"2.0"
	},
	"extensionsUsed":[
		"EXT_texture_webp"
	],
	"extensionsRequired":[
		"EXT_texture_webp"
	],
	"scene":0,
	"scenes":[
		{
			"name":"Scene",
			"nodes":[
				0
			]
		}
	],
	"nodes":[
		{
			"mesh":0,
			"name":"SM_Env_Artifact_AlienRuin_02",
			"rotation":[
				0.7071068286895752,
				0,
				0,
				0.7071068286895752
			],
			"scale":[
				0.009999999776482582,
				0.009999999776482582,
				0.009999999776482582
			]
		}
	],
	"materials":[
		{
			"doubleSided":true,
			"name":"lambert6",
			"pbrMetallicRoughness":{
				"baseColorTexture":{
					"index":0
				},
				"metallicFactor":0,
				"roughnessFactor":0.5527864098548889
			}
		}
	],
	"meshes":[
		{
			"name":"Mesh",
			"primitives":[
				{
					"attributes":{
						"POSITION":0,
						"NORMAL":1,
						"TEXCOORD_0":2
					},
					"indices":3,
					"material":0
				}
			]
		}
	],
	"textures":[
		{
			"extensions":{
				"EXT_texture_webp":{
					"source":0
				}
			},
			"sampler":0
		}
	],
	"images":[
		{
			"mimeType":"image/webp",
			"name":"PolygonScifiWorlds_Texture_01_A",
			"uri":"PolygonScifiWorlds_Texture_01_A.webp"
		}
	],
	"accessors":[
		{
			"bufferView":0,
			"componentType":5126,
			"count":2083,
			"max":[
				836.015869140625,
				334.0821838378906,
				2.5391578674316406e-05
			],
			"min":[
				-836.015869140625,
				-334.0821838378906,
				-2432.345947265625
			],
			"type":"VEC3"
		},
		{
			"bufferView":1,
			"componentType":5126,
			"count":2083,
			"type":"VEC3"
		},
		{
			"bufferView":2,
			"componentType":5126,
			"count":2083,
			"type":"VEC2"
		},
		{
			"bufferView":3,
			"componentType":5123,
			"count":3330,
			"type":"SCALAR"
		}
	],
	"bufferViews":[
		{
			"buffer":0,
			"byteLength":24996,
			"byteOffset":0,
			"target":34962
		},
		{
			"buffer":0,
			"byteLength":24996,
			"byteOffset":24996,
			"target":34962
		},
		{
			"buffer":0,
			"byteLength":16664,
			"byteOffset":49992,
			"target":34962
		},
		{
			"buffer":0,
			"byteLength":6660,
			"byteOffset":66656,
			"target":34963
		}
	],
	"samplers":[
		{
			"magFilter":9729,
			"minFilter":9987
		}
	],
	"buffers":[
		{
			"byteLength":73316,
			"uri":"worlds_SM_Env_Artifact_AlienRuin_02.bin"
		}
	]
}
