{"asset":{"generator":"Khronos glTF Blender I/O v4.4.55","version":"2.0"},"extensionsUsed":["EXT_texture_webp"],"extensionsRequired":["EXT_texture_webp"],"scene":0,"scenes":[{"name":"Scene","nodes":[1]}],"nodes":[{"mesh":0,"name":"SM_Prop_Crate_Lid_01"},{"children":[0],"mesh":1,"name":"SM_Prop_Crate_03","rotation":[0.7071068286895752,0,0,0.7071068286895752],"scale":[0.009999999776482582,0.009999999776482582,0.009999999776482582]}],"materials":[{"doubleSided":true,"name":"SciFiCrate_MAT","pbrMetallicRoughness":{"baseColorTexture":{"index":1},"metallicFactor":0,"roughnessFactor":0.5527864098548889}}],"meshes":[{"name":"Mesh.001","primitives":[{"attributes":{"POSITION":0,"NORMAL":1,"TEXCOORD_0":2},"indices":3,"material":0}]},{"name":"Mesh","primitives":[{"attributes":{"POSITION":4,"NORMAL":5,"TEXCOORD_0":6},"indices":7,"material":0}]}],"textures":[{"extensions":{},"sampler":0},{"extensions":{"EXT_texture_webp":{"source":0}},"sampler":0}],"images":[{"mimeType":"image/webp","name":"PolygonScifiWorlds_Texture_01_A","uri":"PolygonScifiWorlds_Texture_01_A.webp"}],"accessors":[{"bufferView":0,"componentType":5126,"count":160,"max":[41.31005859375,39.2470703125,-97.84506225585938],"min":[-40.02978515625,-42.092529296875,-104.87911987304688],"type":"VEC3"},{"bufferView":1,"componentType":5126,"count":160,"type":"VEC3"},{"bufferView":2,"componentType":5126,"count":160,"type":"VEC2"},{"bufferView":3,"componentType":5123,"count":324,"type":"SCALAR"},{"bufferView":4,"componentType":5126,"count":816,"max":[51.93994140625,49.876953125,-0.34636974334716797],"min":[-50.65966796875,-52.722412109375,-102.94564056396484],"type":"VEC3"},{"bufferView":5,"componentType":5126,"count":816,"type":"VEC3"},{"bufferView":6,"componentType":5126,"count":816,"type":"VEC2"},{"bufferView":7,"componentType":5123,"count":1668,"type":"SCALAR"}],"bufferViews":[{"buffer":0,"byteLength":1920,"byteOffset":0,"target":34962},{"buffer":0,"byteLength":1920,"byteOffset":1920,"target":34962},{"buffer":0,"byteLength":1280,"byteOffset":3840,"target":34962},{"buffer":0,"byteLength":648,"byteOffset":5120,"target":34963},{"buffer":0,"byteLength":9792,"byteOffset":5768,"target":34962},{"buffer":0,"byteLength":9792,"byteOffset":15560,"target":34962},{"buffer":0,"byteLength":6528,"byteOffset":25352,"target":34962},{"buffer":0,"byteLength":3336,"byteOffset":31880,"target":34963}],"samplers":[{"magFilter":9729,"minFilter":9987}],"buffers":[{"byteLength":35216,"uri":"worlds_SM_Prop_Crate_03.bin"}]}