{"asset":{"generator":"Khronos glTF Blender I/O v4.4.55","version":"2.0"},"extensionsUsed":["EXT_texture_webp"],"extensionsRequired":["EXT_texture_webp"],"scene":0,"scenes":[{"name":"Scene","nodes":[1]}],"nodes":[{"mesh":0,"name":"SM_Bld_Window_11_Glass"},{"children":[0],"mesh":1,"name":"SM_Bld_Window_11","rotation":[0.7071068286895752,0,0,0.7071068286895752],"scale":[0.009999999776482582,0.009999999776482582,0.009999999776482582]}],"materials":[{"alphaMode":"MASK","doubleSided":true,"name":"Glass_MAT","pbrMetallicRoughness":{"baseColorFactor":[1,1,1,0.15662652254104614],"baseColorTexture":{"index":0},"metallicFactor":0,"roughnessFactor":0.5527864098548889},"alphaCutoff":0.5},{"doubleSided":true,"name":"SciFi_Planets_SHD","pbrMetallicRoughness":{"baseColorTexture":{"index":2},"metallicFactor":0,"roughnessFactor":0.5527864098548889}}],"meshes":[{"name":"Mesh.001","primitives":[{"attributes":{"POSITION":0,"NORMAL":1,"TEXCOORD_0":2},"indices":3,"material":0}]},{"name":"Mesh","primitives":[{"attributes":{"POSITION":4,"NORMAL":5,"TEXCOORD_0":6},"indices":7,"material":1}]}],"textures":[{"extensions":{"EXT_texture_webp":{"source":0}},"sampler":0},{"extensions":{},"sampler":0},{"extensions":{"EXT_texture_webp":{"source":0}},"sampler":0}],"images":[{"mimeType":"image/webp","name":"PolygonScifiWorlds_Texture_01_A","uri":"PolygonScifiWorlds_Texture_01_A.webp"}],"accessors":[{"bufferView":0,"componentType":5126,"count":26,"max":[45.33251953125,45.33238220214844,0.2407517433166504],"min":[-45.332275390625,-45.33241271972656,-0.2407517433166504],"type":"VEC3"},{"bufferView":1,"componentType":5126,"count":26,"type":"VEC3"},{"bufferView":2,"componentType":5126,"count":26,"type":"VEC2"},{"bufferView":3,"componentType":5123,"count":72,"type":"SCALAR"},{"bufferView":4,"componentType":5126,"count":1872,"max":[48.88947296142578,48.14680099487305,9.194173812866211],"min":[-48.88959503173828,-48.14680099487305,-9.194173812866211],"type":"VEC3"},{"bufferView":5,"componentType":5126,"count":1872,"type":"VEC3"},{"bufferView":6,"componentType":5126,"count":1872,"type":"VEC2"},{"bufferView":7,"componentType":5123,"count":3132,"type":"SCALAR"}],"bufferViews":[{"buffer":0,"byteLength":312,"byteOffset":0,"target":34962},{"buffer":0,"byteLength":312,"byteOffset":312,"target":34962},{"buffer":0,"byteLength":208,"byteOffset":624,"target":34962},{"buffer":0,"byteLength":144,"byteOffset":832,"target":34963},{"buffer":0,"byteLength":22464,"byteOffset":976,"target":34962},{"buffer":0,"byteLength":22464,"byteOffset":23440,"target":34962},{"buffer":0,"byteLength":14976,"byteOffset":45904,"target":34962},{"buffer":0,"byteLength":6264,"byteOffset":60880,"target":34963}],"samplers":[{"magFilter":9729,"minFilter":9987}],"buffers":[{"byteLength":67144,"uri":"worlds_SM_Bld_Window_11.bin"}]}