{"asset":{"generator":"Khronos glTF Blender I/O v4.4.55","version":"2.0"},"extensionsUsed":["EXT_texture_webp"],"extensionsRequired":["EXT_texture_webp"],"scene":0,"scenes":[{"name":"Scene","nodes":[0]}],"nodes":[{"mesh":0,"name":"SM_Bld_Light_05","rotation":[0.7071068286895752,0,0,0.7071068286895752],"scale":[0.009999999776482582,0.009999999776482582,0.009999999776482582]}],"materials":[{"doubleSided":true,"name":"SciFiCrate_MAT","pbrMetallicRoughness":{"baseColorTexture":{"index":1},"metallicFactor":0,"roughnessFactor":0.5527864098548889}}],"meshes":[{"name":"Mesh","primitives":[{"attributes":{"POSITION":0,"NORMAL":1,"TEXCOORD_0":2},"indices":3,"material":0}]}],"textures":[{"extensions":{},"sampler":0},{"extensions":{"EXT_texture_webp":{"source":0}},"sampler":0}],"images":[{"mimeType":"image/webp","name":"PolygonScifiWorlds_Texture_01_A","uri":"PolygonScifiWorlds_Texture_01_A.webp"}],"accessors":[{"bufferView":0,"componentType":5126,"count":424,"max":[69.78913879394531,70.45588684082031,90.8470687866211],"min":[0,-9.5367431640625e-07,-3.814697265625e-06],"type":"VEC3"},{"bufferView":1,"componentType":5126,"count":424,"type":"VEC3"},{"bufferView":2,"componentType":5126,"count":424,"type":"VEC2"},{"bufferView":3,"componentType":5123,"count":684,"type":"SCALAR"}],"bufferViews":[{"buffer":0,"byteLength":5088,"byteOffset":0,"target":34962},{"buffer":0,"byteLength":5088,"byteOffset":5088,"target":34962},{"buffer":0,"byteLength":3392,"byteOffset":10176,"target":34962},{"buffer":0,"byteLength":1368,"byteOffset":13568,"target":34963}],"samplers":[{"magFilter":9729,"minFilter":9987}],"buffers":[{"byteLength":14936,"uri":"worlds_SM_Bld_Light_05.bin"}]}