{"asset":{"generator":"Khronos glTF Blender I/O v4.4.55","version":"2.0"},"extensionsUsed":["EXT_texture_webp"],"extensionsRequired":["EXT_texture_webp"],"scene":0,"scenes":[{"name":"Scene","nodes":[3]}],"nodes":[{"mesh":0,"name":"SM_Prop_Satellite_06_Dish_01"},{"mesh":1,"name":"SM_Prop_Satellite_06_Dish_02"},{"mesh":2,"name":"SM_Prop_Satellite_06_Dish_03"},{"children":[0,1,2],"mesh":3,"name":"SM_Prop_Satellite_06","rotation":[0.7071068286895752,0,0,0.7071068286895752],"scale":[0.009999999776482582,0.009999999776482582,0.009999999776482582]}],"materials":[{"doubleSided":true,"name":"SciFiCrate_MAT","pbrMetallicRoughness":{"baseColorTexture":{"index":1},"metallicFactor":0,"roughnessFactor":0.5527864098548889}}],"meshes":[{"name":"Mesh.001","primitives":[{"attributes":{"POSITION":0,"NORMAL":1,"TEXCOORD_0":2},"indices":3,"material":0}]},{"name":"Mesh.002","primitives":[{"attributes":{"POSITION":4,"NORMAL":5,"TEXCOORD_0":6},"indices":7,"material":0}]},{"name":"Mesh.003","primitives":[{"attributes":{"POSITION":8,"NORMAL":9,"TEXCOORD_0":10},"indices":11,"material":0}]},{"name":"Mesh","primitives":[{"attributes":{"POSITION":12,"NORMAL":13,"TEXCOORD_0":14},"indices":15,"material":0}]}],"textures":[{"extensions":{},"sampler":0},{"extensions":{"EXT_texture_webp":{"source":0}},"sampler":0}],"images":[{"mimeType":"image/webp","name":"PolygonScifiWorlds_Texture_01_A","uri":"PolygonScifiWorlds_Texture_01_A.webp"}],"accessors":[{"bufferView":0,"componentType":5126,"count":1128,"max":[37.79296875,13.928955078125,-344.8337097167969],"min":[-79.8583984375,-110.3271484375,-414.5978088378906],"type":"VEC3"},{"bufferView":1,"componentType":5126,"count":1128,"type":"VEC3"},{"bufferView":2,"componentType":5126,"count":1128,"type":"VEC2"},{"bufferView":3,"componentType":5123,"count":1986,"type":"SCALAR"},{"bufferView":4,"componentType":5126,"count":1128,"max":[114.587890625,50.784423828125,-248.67796325683594],"min":[-13.6015625,-72.119140625,-318.4420166015625],"type":"VEC3"},{"bufferView":5,"componentType":5126,"count":1128,"type":"VEC3"},{"bufferView":6,"componentType":5126,"count":1128,"type":"VEC2"},{"bufferView":7,"componentType":5123,"count":1986,"type":"SCALAR"},{"bufferView":8,"componentType":5126,"count":1128,"max":[62.3359375,115.600830078125,-152.522216796875],"min":[-62.3359375,-12.888671875,-222.28627014160156],"type":"VEC3"},{"bufferView":9,"componentType":5126,"count":1128,"type":"VEC3"},{"bufferView":10,"componentType":5126,"count":1128,"type":"VEC2"},{"bufferView":11,"componentType":5123,"count":1986,"type":"SCALAR"},{"bufferView":12,"componentType":5126,"count":1685,"max":[110.2421875,122.907958984375,0],"min":[-110.2421875,-68.037109375,-433.3132629394531],"type":"VEC3"},{"bufferView":13,"componentType":5126,"count":1685,"type":"VEC3"},{"bufferView":14,"componentType":5126,"count":1685,"type":"VEC2"},{"bufferView":15,"componentType":5123,"count":3090,"type":"SCALAR"}],"bufferViews":[{"buffer":0,"byteLength":13536,"byteOffset":0,"target":34962},{"buffer":0,"byteLength":13536,"byteOffset":13536,"target":34962},{"buffer":0,"byteLength":9024,"byteOffset":27072,"target":34962},{"buffer":0,"byteLength":3972,"byteOffset":36096,"target":34963},{"buffer":0,"byteLength":13536,"byteOffset":40068,"target":34962},{"buffer":0,"byteLength":13536,"byteOffset":53604,"target":34962},{"buffer":0,"byteLength":9024,"byteOffset":67140,"target":34962},{"buffer":0,"byteLength":3972,"byteOffset":76164,"target":34963},{"buffer":0,"byteLength":13536,"byteOffset":80136,"target":34962},{"buffer":0,"byteLength":13536,"byteOffset":93672,"target":34962},{"buffer":0,"byteLength":9024,"byteOffset":107208,"target":34962},{"buffer":0,"byteLength":3972,"byteOffset":116232,"target":34963},{"buffer":0,"byteLength":20220,"byteOffset":120204,"target":34962},{"buffer":0,"byteLength":20220,"byteOffset":140424,"target":34962},{"buffer":0,"byteLength":13480,"byteOffset":160644,"target":34962},{"buffer":0,"byteLength":6180,"byteOffset":174124,"target":34963}],"samplers":[{"magFilter":9729,"minFilter":9987}],"buffers":[{"byteLength":180304,"uri":"worlds_SM_Prop_Satellite_06.bin"}]}