{"asset":{"generator":"Khronos glTF Blender I/O v4.4.55","version":"2.0"},"extensionsUsed":["EXT_texture_webp"],"extensionsRequired":["EXT_texture_webp"],"scene":0,"scenes":[{"name":"Scene","nodes":[1]}],"nodes":[{"mesh":0,"name":"SM_Bld_Pod_Corridor_Square_02_Glass_01"},{"children":[0],"mesh":1,"name":"SM_Bld_Pod_Corridor_Square_02","rotation":[0.7071068286895752,0,0,0.7071068286895752],"scale":[0.009999999776482582,0.009999999776482582,0.009999999776482582]}],"materials":[{"alphaMode":"MASK","doubleSided":true,"name":"Glass_MAT","pbrMetallicRoughness":{"baseColorFactor":[1,1,1,0.15662652254104614],"baseColorTexture":{"index":0},"metallicFactor":0,"roughnessFactor":0.5527864098548889},"alphaCutoff":0.5},{"doubleSided":true,"name":"SciFi_Planets_POD_SHD","pbrMetallicRoughness":{"baseColorTexture":{"index":2},"metallicFactor":0,"roughnessFactor":0.5527864098548889}}],"meshes":[{"name":"Mesh.001","primitives":[{"attributes":{"POSITION":0,"NORMAL":1,"TEXCOORD_0":2},"indices":3,"material":0}]},{"name":"Mesh","primitives":[{"attributes":{"POSITION":4,"NORMAL":5,"TEXCOORD_0":6},"indices":7,"material":1}]}],"textures":[{"extensions":{"EXT_texture_webp":{"source":0}},"sampler":0},{"extensions":{},"sampler":0},{"extensions":{"EXT_texture_webp":{"source":0}},"sampler":0}],"images":[{"mimeType":"image/webp","name":"PolygonScifiWorlds_Texture_01_A","uri":"PolygonScifiWorlds_Texture_01_A.webp"}],"accessors":[{"bufferView":0,"componentType":5126,"count":32,"max":[241.51670837402344,-153.42852783203125,-150.46897888183594],"min":[-241.51670837402344,-846.9529418945312,-219.53099060058594],"type":"VEC3"},{"bufferView":1,"componentType":5126,"count":32,"type":"VEC3"},{"bufferView":2,"componentType":5126,"count":32,"type":"VEC2"},{"bufferView":3,"componentType":5123,"count":48,"type":"SCALAR"},{"bufferView":4,"componentType":5126,"count":2685,"max":[256.8434143066406,9.000000350284799e-15,35.88531494140625],"min":[-256.8434143066406,-1000,-481.45556640625],"type":"VEC3"},{"bufferView":5,"componentType":5126,"count":2685,"type":"VEC3"},{"bufferView":6,"componentType":5126,"count":2685,"type":"VEC2"},{"bufferView":7,"componentType":5123,"count":4872,"type":"SCALAR"}],"bufferViews":[{"buffer":0,"byteLength":384,"byteOffset":0,"target":34962},{"buffer":0,"byteLength":384,"byteOffset":384,"target":34962},{"buffer":0,"byteLength":256,"byteOffset":768,"target":34962},{"buffer":0,"byteLength":96,"byteOffset":1024,"target":34963},{"buffer":0,"byteLength":32220,"byteOffset":1120,"target":34962},{"buffer":0,"byteLength":32220,"byteOffset":33340,"target":34962},{"buffer":0,"byteLength":21480,"byteOffset":65560,"target":34962},{"buffer":0,"byteLength":9744,"byteOffset":87040,"target":34963}],"samplers":[{"magFilter":9729,"minFilter":9987}],"buffers":[{"byteLength":96784,"uri":"worlds_SM_Bld_Pod_Corridor_Square_02.bin"}]}