{"asset":{"generator":"Khronos glTF Blender I/O v4.4.55","version":"2.0"},"extensionsUsed":["EXT_texture_webp"],"extensionsRequired":["EXT_texture_webp"],"scene":0,"scenes":[{"name":"Scene","nodes":[11]}],"nodes":[{"mesh":0,"name":"SM_Prop_Drill_03_Leg_01_Foot_01.002"},{"children":[0],"mesh":1,"name":"SM_Prop_Drill_03_Leg_01"},{"mesh":2,"name":"SM_Prop_Drill_03_Leg_01_Foot_01"},{"children":[2],"mesh":3,"name":"SM_Prop_Drill_03_Leg_03","rotation":[0,0,-0.8660253882408142,0.4999999701976776],"translation":[0,-1.9073484509135596e-05,0]},{"mesh":4,"name":"SM_Prop_Drill_03_Leg_01_Foot_01.001"},{"children":[4],"mesh":5,"name":"SM_Prop_Drill_03_Leg_04","rotation":[0,0,0.8660253882408142,0.4999999701976776],"translation":[-7.62939453125e-06,-3.814697265625e-06,0]},{"mesh":6,"name":"SM_Prop_Drill_03_Drill_Head_01","rotation":[-1,0,0,7.549789415861596e-08],"scale":[0.07855625450611115,0.07855625450611115,0.07855625450611115],"translation":[-39.27812957763672,0,2.8341660499572754]},{"children":[6],"mesh":7,"name":"SM_Prop_Drill_03_Extension_03","scale":[0.7754061818122864,0.7754061818122864,1],"translation":[0,0,0.5027356147766113]},{"children":[7],"mesh":8,"name":"SM_Prop_Drill_03_Extension_02","scale":[14.243945121765137,14.243945121765137,11.044843673706055],"translation":[0,0,-23.110485076904297]},{"children":[8],"mesh":9,"name":"SM_Prop_Drill_03_Extension_01","translation":[0,0,-54.966880798339844]},{"children":[9],"mesh":10,"name":"SM_Prop_Drill_03_Motor_01"},{"children":[1,3,5,10],"mesh":11,"name":"SM_Prop_Drill_03","rotation":[0.7071068286895752,0,0,0.7071068286895752],"scale":[0.009999999776482582,0.009999999776482582,0.009999999776482582]}],"materials":[{"doubleSided":true,"name":"SciFiPlanets_Scav_MAT","pbrMetallicRoughness":{"baseColorTexture":{"index":1},"metallicFactor":0,"roughnessFactor":0.5527864098548889}}],"meshes":[{"name":"Mesh.011","primitives":[{"attributes":{"POSITION":0,"NORMAL":1,"TEXCOORD_0":2},"indices":3,"material":0}]},{"name":"Mesh.010","primitives":[{"attributes":{"POSITION":4,"NORMAL":5,"TEXCOORD_0":6},"indices":7,"material":0}]},{"name":"Mesh.007","primitives":[{"attributes":{"POSITION":8,"NORMAL":9,"TEXCOORD_0":10},"indices":3,"material":0}]},{"name":"Mesh.006","primitives":[{"attributes":{"POSITION":11,"NORMAL":12,"TEXCOORD_0":13},"indices":7,"material":0}]},{"name":"Mesh.009","primitives":[{"attributes":{"POSITION":14,"NORMAL":15,"TEXCOORD_0":16},"indices":3,"material":0}]},{"name":"Mesh.008","primitives":[{"attributes":{"POSITION":17,"NORMAL":18,"TEXCOORD_0":19},"indices":7,"material":0}]},{"name":"Mesh.005","primitives":[{"attributes":{"POSITION":20,"NORMAL":21,"TEXCOORD_0":22},"indices":23,"material":0}]},{"name":"Mesh.004","primitives":[{"attributes":{"POSITION":24,"NORMAL":25,"TEXCOORD_0":26},"indices":27,"material":0}]},{"name":"Mesh.003","primitives":[{"attributes":{"POSITION":28,"NORMAL":29,"TEXCOORD_0":30},"indices":31,"material":0}]},{"name":"Mesh.002","primitives":[{"attributes":{"POSITION":32,"NORMAL":33,"TEXCOORD_0":34},"indices":35,"material":0}]},{"name":"Mesh.001","primitives":[{"attributes":{"POSITION":36,"NORMAL":37,"TEXCOORD_0":38},"indices":39,"material":0}]},{"name":"Mesh","primitives":[{"attributes":{"POSITION":40,"NORMAL":41,"TEXCOORD_0":42},"indices":43,"material":0}]}],"textures":[{"extensions":{},"sampler":0},{"extensions":{"EXT_texture_webp":{"source":0}},"sampler":0}],"images":[{"mimeType":"image/webp","name":"PolygonScifiWorlds_Texture_01_A","uri":"PolygonScifiWorlds_Texture_01_A.webp"}],"accessors":[{"bufferView":0,"componentType":5126,"count":150,"max":[35.62861251831055,-158.6249542236328,0],"min":[-35.80418395996094,-205.10162353515625,-33.46746826171875],"type":"VEC3"},{"bufferView":1,"componentType":5126,"count":150,"type":"VEC3"},{"bufferView":2,"componentType":5126,"count":150,"type":"VEC2"},{"bufferView":3,"componentType":5123,"count":228,"type":"SCALAR"},{"bufferView":4,"componentType":5126,"count":294,"max":[48.43611526489258,-93.25743865966797,-10.835838317871094],"min":[-48.43611526489258,-173.7180938720703,-87.6969223022461],"type":"VEC3"},{"bufferView":5,"componentType":5126,"count":294,"type":"VEC3"},{"bufferView":6,"componentType":5126,"count":294,"type":"VEC2"},{"bufferView":7,"componentType":5123,"count":504,"type":"SCALAR"},{"bufferView":8,"componentType":5126,"count":150,"max":[35.62861251831055,-158.6249542236328,0],"min":[-35.80418395996094,-205.10162353515625,-33.46746826171875],"type":"VEC3"},{"bufferView":9,"componentType":5126,"count":150,"type":"VEC3"},{"bufferView":10,"componentType":5126,"count":150,"type":"VEC2"},{"bufferView":11,"componentType":5126,"count":294,"max":[48.43611526489258,-93.25743865966797,-10.835838317871094],"min":[-48.43611526489258,-173.7180938720703,-87.6969223022461],"type":"VEC3"},{"bufferView":12,"componentType":5126,"count":294,"type":"VEC3"},{"bufferView":13,"componentType":5126,"count":294,"type":"VEC2"},{"bufferView":14,"componentType":5126,"count":150,"max":[35.62861251831055,-158.6249542236328,0],"min":[-35.80418395996094,-205.10162353515625,-33.46746826171875],"type":"VEC3"},{"bufferView":15,"componentType":5126,"count":150,"type":"VEC3"},{"bufferView":16,"componentType":5126,"count":150,"type":"VEC2"},{"bufferView":17,"componentType":5126,"count":294,"max":[48.43611526489258,-93.25743865966797,-10.835838317871094],"min":[-48.43611526489258,-173.7180938720703,-87.6969223022461],"type":"VEC3"},{"bufferView":18,"componentType":5126,"count":294,"type":"VEC3"},{"bufferView":19,"componentType":5126,"count":294,"type":"VEC2"},{"bufferView":20,"componentType":5126,"count":266,"max":[535.9765625,35.976619720458984,18.137290954589844],"min":[464.0234069824219,-35.97661209106445,-40.300838470458984],"type":"VEC3"},{"bufferView":21,"componentType":5126,"count":266,"type":"VEC3"},{"bufferView":22,"componentType":5126,"count":266,"type":"VEC2"},{"bufferView":23,"componentType":5123,"count":408,"type":"SCALAR"},{"bufferView":24,"componentType":5126,"count":178,"max":[1.135151743888855,1.1351509094238281,1.4093682765960693],"min":[-1.1351515054702759,-1.1351509094238281,-27.346965789794922],"type":"VEC3"},{"bufferView":25,"componentType":5126,"count":178,"type":"VEC3"},{"bufferView":26,"componentType":5126,"count":178,"type":"VEC2"},{"bufferView":27,"componentType":5123,"count":336,"type":"SCALAR"},{"bufferView":28,"componentType":5126,"count":73,"max":[1.135151743888855,1.1351509094238281,0.16519927978515625],"min":[-1.1351516246795654,-1.1351509094238281,-27.346965789794922],"type":"VEC3"},{"bufferView":29,"componentType":5126,"count":73,"type":"VEC3"},{"bufferView":30,"componentType":5126,"count":73,"type":"VEC2"},{"bufferView":31,"componentType":5123,"count":120,"type":"SCALAR"},{"bufferView":32,"componentType":5126,"count":350,"max":[38.70985794067383,38.70985794067383,-22.62318229675293],"min":[-38.70985794067383,-38.70985794067383,-128.12411499023438],"type":"VEC3"},{"bufferView":33,"componentType":5126,"count":350,"type":"VEC3"},{"bufferView":34,"componentType":5126,"count":350,"type":"VEC2"},{"bufferView":35,"componentType":5123,"count":648,"type":"SCALAR"},{"bufferView":36,"componentType":5126,"count":1567,"max":[60.73964309692383,61.64810562133789,-127.27445983886719],"min":[-60.73964309692383,-61.64810562133789,-384.77655029296875],"type":"VEC3"},{"bufferView":37,"componentType":5126,"count":1567,"type":"VEC3"},{"bufferView":38,"componentType":5126,"count":1567,"type":"VEC2"},{"bufferView":39,"componentType":5123,"count":2472,"type":"SCALAR"},{"bufferView":40,"componentType":5126,"count":1466,"max":[116.5380859375,107.76049041748047,-67.1163558959961],"min":[-116.53807830810547,-115.57833099365234,-238.87896728515625],"type":"VEC3"},{"bufferView":41,"componentType":5126,"count":1466,"type":"VEC3"},{"bufferView":42,"componentType":5126,"count":1466,"type":"VEC2"},{"bufferView":43,"componentType":5123,"count":2358,"type":"SCALAR"}],"bufferViews":[{"buffer":0,"byteLength":1800,"byteOffset":0,"target":34962},{"buffer":0,"byteLength":1800,"byteOffset":1800,"target":34962},{"buffer":0,"byteLength":1200,"byteOffset":3600,"target":34962},{"buffer":0,"byteLength":456,"byteOffset":4800,"target":34963},{"buffer":0,"byteLength":3528,"byteOffset":5256,"target":34962},{"buffer":0,"byteLength":3528,"byteOffset":8784,"target":34962},{"buffer":0,"byteLength":2352,"byteOffset":12312,"target":34962},{"buffer":0,"byteLength":1008,"byteOffset":14664,"target":34963},{"buffer":0,"byteLength":1800,"byteOffset":15672,"target":34962},{"buffer":0,"byteLength":1800,"byteOffset":17472,"target":34962},{"buffer":0,"byteLength":1200,"byteOffset":19272,"target":34962},{"buffer":0,"byteLength":3528,"byteOffset":20472,"target":34962},{"buffer":0,"byteLength":3528,"byteOffset":24000,"target":34962},{"buffer":0,"byteLength":2352,"byteOffset":27528,"target":34962},{"buffer":0,"byteLength":1800,"byteOffset":29880,"target":34962},{"buffer":0,"byteLength":1800,"byteOffset":31680,"target":34962},{"buffer":0,"byteLength":1200,"byteOffset":33480,"target":34962},{"buffer":0,"byteLength":3528,"byteOffset":34680,"target":34962},{"buffer":0,"byteLength":3528,"byteOffset":38208,"target":34962},{"buffer":0,"byteLength":2352,"byteOffset":41736,"target":34962},{"buffer":0,"byteLength":3192,"byteOffset":44088,"target":34962},{"buffer":0,"byteLength":3192,"byteOffset":47280,"target":34962},{"buffer":0,"byteLength":2128,"byteOffset":50472,"target":34962},{"buffer":0,"byteLength":816,"byteOffset":52600,"target":34963},{"buffer":0,"byteLength":2136,"byteOffset":53416,"target":34962},{"buffer":0,"byteLength":2136,"byteOffset":55552,"target":34962},{"buffer":0,"byteLength":1424,"byteOffset":57688,"target":34962},{"buffer":0,"byteLength":672,"byteOffset":59112,"target":34963},{"buffer":0,"byteLength":876,"byteOffset":59784,"target":34962},{"buffer":0,"byteLength":876,"byteOffset":60660,"target":34962},{"buffer":0,"byteLength":584,"byteOffset":61536,"target":34962},{"buffer":0,"byteLength":240,"byteOffset":62120,"target":34963},{"buffer":0,"byteLength":4200,"byteOffset":62360,"target":34962},{"buffer":0,"byteLength":4200,"byteOffset":66560,"target":34962},{"buffer":0,"byteLength":2800,"byteOffset":70760,"target":34962},{"buffer":0,"byteLength":1296,"byteOffset":73560,"target":34963},{"buffer":0,"byteLength":18804,"byteOffset":74856,"target":34962},{"buffer":0,"byteLength":18804,"byteOffset":93660,"target":34962},{"buffer":0,"byteLength":12536,"byteOffset":112464,"target":34962},{"buffer":0,"byteLength":4944,"byteOffset":125000,"target":34963},{"buffer":0,"byteLength":17592,"byteOffset":129944,"target":34962},{"buffer":0,"byteLength":17592,"byteOffset":147536,"target":34962},{"buffer":0,"byteLength":11728,"byteOffset":165128,"target":34962},{"buffer":0,"byteLength":4716,"byteOffset":176856,"target":34963}],"samplers":[{"magFilter":9729,"minFilter":9987}],"buffers":[{"byteLength":181572,"uri":"worlds_SM_Prop_Drill_03.bin"}]}