{"asset":{"generator":"Khronos glTF Blender I/O v4.4.55","version":"2.0"},"extensionsUsed":["EXT_texture_webp"],"extensionsRequired":["EXT_texture_webp"],"scene":0,"scenes":[{"name":"Scene","nodes":[4]}],"nodes":[{"mesh":0,"name":"SM_Prop_Vending_Machine_03_Drum_01","translation":[0,7.970676422119141,0]},{"mesh":1,"name":"SM_Prop_Vending_Machine_03_Glass_01"},{"mesh":2,"name":"SM_Prop_Vending_Machine_03_Sign_01"},{"mesh":3,"name":"SM_Prop_Vending_Machine_03_Stick_01"},{"children":[0,1,2,3],"mesh":4,"name":"SM_Prop_Vending_Machine_03","rotation":[0.7071068286895752,0,0,0.7071068286895752],"scale":[0.009999999776482582,0.009999999776482582,0.009999999776482582]}],"materials":[{"doubleSided":true,"name":"Base_Lambert1","pbrMetallicRoughness":{"baseColorTexture":{"index":0},"metallicFactor":0,"roughnessFactor":0.5527864098548889}},{"alphaMode":"MASK","doubleSided":true,"name":"Glass_MAT","pbrMetallicRoughness":{"baseColorFactor":[1,1,1,0.15662652254104614],"baseColorTexture":{"index":1},"metallicFactor":0,"roughnessFactor":0.5527864098548889},"alphaCutoff":0.5}],"meshes":[{"name":"Mesh.004","primitives":[{"attributes":{"POSITION":0,"NORMAL":1,"TEXCOORD_0":2},"indices":3,"material":0}]},{"name":"Mesh.002","primitives":[{"attributes":{"POSITION":4,"NORMAL":5,"TEXCOORD_0":6},"indices":7,"material":1}]},{"name":"Mesh.001","primitives":[{"attributes":{"POSITION":8,"NORMAL":9,"TEXCOORD_0":10},"indices":11,"material":0}]},{"name":"Mesh.003","primitives":[{"attributes":{"POSITION":12,"NORMAL":13,"TEXCOORD_0":14},"indices":15,"material":0}]},{"name":"Mesh","primitives":[{"attributes":{"POSITION":16,"NORMAL":17,"TEXCOORD_0":18},"indices":19,"material":0}]}],"textures":[{"extensions":{"EXT_texture_webp":{"source":0}},"sampler":0},{"extensions":{"EXT_texture_webp":{"source":0}},"sampler":0}],"images":[{"mimeType":"image/webp","name":"PolygonScifiWorlds_Texture_01_A","uri":"PolygonScifiWorlds_Texture_01_A.webp"}],"accessors":[{"bufferView":0,"componentType":5126,"count":280,"max":[58.26688003540039,47.79366683959961,-56.23973083496094],"min":[-58.266883850097656,-63.03653335571289,-199.6691436767578],"type":"VEC3"},{"bufferView":1,"componentType":5126,"count":280,"type":"VEC3"},{"bufferView":2,"componentType":5126,"count":280,"type":"VEC2"},{"bufferView":3,"componentType":5123,"count":420,"type":"SCALAR"},{"bufferView":4,"componentType":5126,"count":40,"max":[65.9753189086914,63.09551239013672,-66.1623306274414],"min":[-65.97532653808594,-62.39702606201172,-192.8839111328125],"type":"VEC3"},{"bufferView":5,"componentType":5126,"count":40,"type":"VEC3"},{"bufferView":6,"componentType":5126,"count":40,"type":"VEC2"},{"bufferView":7,"componentType":5123,"count":60,"type":"SCALAR"},{"bufferView":8,"componentType":5126,"count":498,"max":[102.78929138183594,2.4095234870910645,-349.21197509765625],"min":[-102.30817413330078,-1.7110190391540527,-497.4590759277344],"type":"VEC3"},{"bufferView":9,"componentType":5126,"count":498,"type":"VEC3"},{"bufferView":10,"componentType":5126,"count":498,"type":"VEC2"},{"bufferView":11,"componentType":5123,"count":1278,"type":"SCALAR"},{"bufferView":12,"componentType":5126,"count":168,"max":[26.113054275512695,127.47920227050781,-90.06146240234375],"min":[18.384021759033203,117.65206909179688,-124.53109741210938],"type":"VEC3"},{"bufferView":13,"componentType":5126,"count":168,"type":"VEC3"},{"bufferView":14,"componentType":5126,"count":168,"type":"VEC2"},{"bufferView":15,"componentType":5123,"count":288,"type":"SCALAR"},{"bufferView":16,"componentType":5126,"count":2567,"max":[84.99049377441406,130.67088317871094,1.5531511306762695],"min":[-84.99049377441406,-80.48151397705078,-359.82000732421875],"type":"VEC3"},{"bufferView":17,"componentType":5126,"count":2567,"type":"VEC3"},{"bufferView":18,"componentType":5126,"count":2567,"type":"VEC2"},{"bufferView":19,"componentType":5123,"count":4185,"type":"SCALAR"}],"bufferViews":[{"buffer":0,"byteLength":3360,"byteOffset":0,"target":34962},{"buffer":0,"byteLength":3360,"byteOffset":3360,"target":34962},{"buffer":0,"byteLength":2240,"byteOffset":6720,"target":34962},{"buffer":0,"byteLength":840,"byteOffset":8960,"target":34963},{"buffer":0,"byteLength":480,"byteOffset":9800,"target":34962},{"buffer":0,"byteLength":480,"byteOffset":10280,"target":34962},{"buffer":0,"byteLength":320,"byteOffset":10760,"target":34962},{"buffer":0,"byteLength":120,"byteOffset":11080,"target":34963},{"buffer":0,"byteLength":5976,"byteOffset":11200,"target":34962},{"buffer":0,"byteLength":5976,"byteOffset":17176,"target":34962},{"buffer":0,"byteLength":3984,"byteOffset":23152,"target":34962},{"buffer":0,"byteLength":2556,"byteOffset":27136,"target":34963},{"buffer":0,"byteLength":2016,"byteOffset":29692,"target":34962},{"buffer":0,"byteLength":2016,"byteOffset":31708,"target":34962},{"buffer":0,"byteLength":1344,"byteOffset":33724,"target":34962},{"buffer":0,"byteLength":576,"byteOffset":35068,"target":34963},{"buffer":0,"byteLength":30804,"byteOffset":35644,"target":34962},{"buffer":0,"byteLength":30804,"byteOffset":66448,"target":34962},{"buffer":0,"byteLength":20536,"byteOffset":97252,"target":34962},{"buffer":0,"byteLength":8370,"byteOffset":117788,"target":34963}],"samplers":[{"magFilter":9729,"minFilter":9987}],"buffers":[{"byteLength":126160,"uri":"worlds_SM_Prop_Vending_Machine_03.bin"}]}