{"asset":{"generator":"Khronos glTF Blender I/O v4.4.55","version":"2.0"},"extensionsUsed":["EXT_texture_webp"],"extensionsRequired":["EXT_texture_webp"],"scene":0,"scenes":[{"name":"Scene","nodes":[2]}],"nodes":[{"mesh":0,"name":"SM_Wep_Assault_03_Mag_01"},{"mesh":1,"name":"SM_Wep_Assault_03_Trigger_01"},{"children":[0,1],"mesh":2,"name":"SM_Wep_Assault_03","rotation":[0.7071068286895752,0,0,0.7071068286895752],"scale":[0.009999999776482582,0.009999999776482582,0.009999999776482582]}],"materials":[{"doubleSided":true,"name":"Clip1:SM_Prop_Crate_03SG1","pbrMetallicRoughness":{"baseColorTexture":{"index":1},"metallicFactor":0,"roughnessFactor":0.5527864098548889}}],"meshes":[{"name":"Mesh.002","primitives":[{"attributes":{"POSITION":0,"NORMAL":1,"TEXCOORD_0":2},"indices":3,"material":0}]},{"name":"Mesh.001","primitives":[{"attributes":{"POSITION":4,"NORMAL":5,"TEXCOORD_0":6},"indices":7,"material":0}]},{"name":"Mesh","primitives":[{"attributes":{"POSITION":8,"NORMAL":9,"TEXCOORD_0":10},"indices":11,"material":0}]}],"textures":[{"extensions":{},"sampler":0},{"extensions":{"EXT_texture_webp":{"source":0}},"sampler":0}],"images":[{"mimeType":"image/webp","name":"PolygonScifiWorlds_Texture_01_A","uri":"PolygonScifiWorlds_Texture_01_A.webp"}],"accessors":[{"bufferView":0,"componentType":5126,"count":336,"max":[1.5310381650924683,25.1603946685791,20.933151245117188],"min":[-1.5310441255569458,7.801844120025635,-2.7644662857055664],"type":"VEC3"},{"bufferView":1,"componentType":5126,"count":336,"type":"VEC3"},{"bufferView":2,"componentType":5126,"count":336,"type":"VEC2"},{"bufferView":3,"componentType":5123,"count":576,"type":"SCALAR"},{"bufferView":4,"componentType":5126,"count":40,"max":[0.435707151889801,10.966570854187012,-0.5172543525695801],"min":[-0.435707151889801,5.64246940612793,-5.005487442016602],"type":"VEC3"},{"bufferView":5,"componentType":5126,"count":40,"type":"VEC3"},{"bufferView":6,"componentType":5126,"count":40,"type":"VEC2"},{"bufferView":7,"componentType":5123,"count":72,"type":"SCALAR"},{"bufferView":8,"componentType":5126,"count":1674,"max":[5.267861843109131,72.99744415283203,18.01952362060547],"min":[-5.267861843109131,-24.096773147583008,-24.030136108398438],"type":"VEC3"},{"bufferView":9,"componentType":5126,"count":1674,"type":"VEC3"},{"bufferView":10,"componentType":5126,"count":1674,"type":"VEC2"},{"bufferView":11,"componentType":5123,"count":3162,"type":"SCALAR"}],"bufferViews":[{"buffer":0,"byteLength":4032,"byteOffset":0,"target":34962},{"buffer":0,"byteLength":4032,"byteOffset":4032,"target":34962},{"buffer":0,"byteLength":2688,"byteOffset":8064,"target":34962},{"buffer":0,"byteLength":1152,"byteOffset":10752,"target":34963},{"buffer":0,"byteLength":480,"byteOffset":11904,"target":34962},{"buffer":0,"byteLength":480,"byteOffset":12384,"target":34962},{"buffer":0,"byteLength":320,"byteOffset":12864,"target":34962},{"buffer":0,"byteLength":144,"byteOffset":13184,"target":34963},{"buffer":0,"byteLength":20088,"byteOffset":13328,"target":34962},{"buffer":0,"byteLength":20088,"byteOffset":33416,"target":34962},{"buffer":0,"byteLength":13392,"byteOffset":53504,"target":34962},{"buffer":0,"byteLength":6324,"byteOffset":66896,"target":34963}],"samplers":[{"magFilter":9729,"minFilter":9987}],"buffers":[{"byteLength":73220,"uri":"worlds_SM_Wep_Assault_03.bin"}]}