{"asset":{"generator":"Khronos glTF Blender I/O v4.4.55","version":"2.0"},"extensionsUsed":["EXT_texture_webp"],"extensionsRequired":["EXT_texture_webp"],"scene":0,"scenes":[{"name":"Scene","nodes":[2]}],"nodes":[{"mesh":0,"name":"SM_Wep_Pistol_05_Scope_01"},{"mesh":1,"name":"SM_Wep_Pistol_05_Trigger_01"},{"children":[0,1],"mesh":2,"name":"SM_Wep_Pistol_05","rotation":[0.7071068286895752,0,0,0.7071068286895752],"scale":[0.009999999776482582,0.009999999776482582,0.009999999776482582]}],"materials":[{"doubleSided":true,"name":"Clip1:SM_Prop_Crate_03SG1","pbrMetallicRoughness":{"baseColorTexture":{"index":1},"metallicFactor":0,"roughnessFactor":0.5527864098548889}}],"meshes":[{"name":"Mesh.002","primitives":[{"attributes":{"POSITION":0,"NORMAL":1,"TEXCOORD_0":2},"indices":3,"material":0}]},{"name":"Mesh.001","primitives":[{"attributes":{"POSITION":4,"NORMAL":5,"TEXCOORD_0":6},"indices":7,"material":0}]},{"name":"Mesh","primitives":[{"attributes":{"POSITION":8,"NORMAL":9,"TEXCOORD_0":10},"indices":11,"material":0}]}],"textures":[{"extensions":{},"sampler":0},{"extensions":{"EXT_texture_webp":{"source":0}},"sampler":0}],"images":[{"mimeType":"image/webp","name":"PolygonScifiWorlds_Texture_01_A","uri":"PolygonScifiWorlds_Texture_01_A.webp"}],"accessors":[{"bufferView":0,"componentType":5126,"count":432,"max":[1.6214962005615234,5.412917137145996,-10.076669692993164],"min":[-1.6214962005615234,-7.313098907470703,-14.315199851989746],"type":"VEC3"},{"bufferView":1,"componentType":5126,"count":432,"type":"VEC3"},{"bufferView":2,"componentType":5126,"count":432,"type":"VEC2"},{"bufferView":3,"componentType":5123,"count":684,"type":"SCALAR"},{"bufferView":4,"componentType":5126,"count":98,"max":[0.5112846493721008,2.2655739784240723,2.9085593223571777],"min":[-0.5112846493721008,-3.3041813373565674,-1.8342195749282837],"type":"VEC3"},{"bufferView":5,"componentType":5126,"count":98,"type":"VEC3"},{"bufferView":6,"componentType":5126,"count":98,"type":"VEC2"},{"bufferView":7,"componentType":5123,"count":180,"type":"SCALAR"},{"bufferView":8,"componentType":5126,"count":1826,"max":[3.7523860931396484,37.49425506591797,11.994811058044434],"min":[-3.7523841857910156,-14.46511173248291,-11.0415620803833],"type":"VEC3"},{"bufferView":9,"componentType":5126,"count":1826,"type":"VEC3"},{"bufferView":10,"componentType":5126,"count":1826,"type":"VEC2"},{"bufferView":11,"componentType":5123,"count":2952,"type":"SCALAR"}],"bufferViews":[{"buffer":0,"byteLength":5184,"byteOffset":0,"target":34962},{"buffer":0,"byteLength":5184,"byteOffset":5184,"target":34962},{"buffer":0,"byteLength":3456,"byteOffset":10368,"target":34962},{"buffer":0,"byteLength":1368,"byteOffset":13824,"target":34963},{"buffer":0,"byteLength":1176,"byteOffset":15192,"target":34962},{"buffer":0,"byteLength":1176,"byteOffset":16368,"target":34962},{"buffer":0,"byteLength":784,"byteOffset":17544,"target":34962},{"buffer":0,"byteLength":360,"byteOffset":18328,"target":34963},{"buffer":0,"byteLength":21912,"byteOffset":18688,"target":34962},{"buffer":0,"byteLength":21912,"byteOffset":40600,"target":34962},{"buffer":0,"byteLength":14608,"byteOffset":62512,"target":34962},{"buffer":0,"byteLength":5904,"byteOffset":77120,"target":34963}],"samplers":[{"magFilter":9729,"minFilter":9987}],"buffers":[{"byteLength":83024,"uri":"worlds_SM_Wep_Pistol_05.bin"}]}