{"asset":{"generator":"Khronos glTF Blender I/O v4.4.55","version":"2.0"},"extensionsUsed":["EXT_texture_webp"],"extensionsRequired":["EXT_texture_webp"],"scene":0,"scenes":[{"name":"Scene","nodes":[7]}],"nodes":[{"mesh":0,"name":"SM_Prop_Drill_04_Leg_01_Foot_01"},{"children":[0],"mesh":1,"name":"SM_Prop_Drill_04_Leg_01"},{"mesh":2,"name":"SM_Prop_Drill_04_Leg_02_Foot_01"},{"children":[2],"mesh":3,"name":"SM_Prop_Drill_04_Leg_02"},{"mesh":4,"name":"SM_Prop_Drill_04_Drill_Head_01"},{"children":[4],"mesh":5,"name":"SM_Prop_Drill_04_Extension_01"},{"children":[5],"mesh":6,"name":"SM_Prop_Drill_04_Motor_01"},{"children":[1,3,6],"mesh":7,"name":"SM_Prop_Drill_04","rotation":[0.7071068286895752,0,0,0.7071068286895752],"scale":[0.009999999776482582,0.009999999776482582,0.009999999776482582]}],"materials":[{"doubleSided":true,"name":"SciFiPlanets_Scav_MAT","pbrMetallicRoughness":{"baseColorTexture":{"index":1},"metallicFactor":0,"roughnessFactor":0.5527864098548889}}],"meshes":[{"name":"Mesh.002","primitives":[{"attributes":{"POSITION":0,"NORMAL":1,"TEXCOORD_0":2},"indices":3,"material":0}]},{"name":"Mesh.001","primitives":[{"attributes":{"POSITION":4,"NORMAL":5,"TEXCOORD_0":6},"indices":7,"material":0}]},{"name":"Mesh.004","primitives":[{"attributes":{"POSITION":8,"NORMAL":9,"TEXCOORD_0":10},"indices":11,"material":0}]},{"name":"Mesh.003","primitives":[{"attributes":{"POSITION":12,"NORMAL":13,"TEXCOORD_0":14},"indices":15,"material":0}]},{"name":"Mesh.007","primitives":[{"attributes":{"POSITION":16,"NORMAL":17,"TEXCOORD_0":18},"indices":19,"material":0}]},{"name":"Mesh.006","primitives":[{"attributes":{"POSITION":20,"NORMAL":21,"TEXCOORD_0":22},"indices":23,"material":0}]},{"name":"Mesh.005","primitives":[{"attributes":{"POSITION":24,"NORMAL":25,"TEXCOORD_0":26},"indices":27,"material":0}]},{"name":"Mesh","primitives":[{"attributes":{"POSITION":28,"NORMAL":29,"TEXCOORD_0":30},"indices":31,"material":0}]}],"textures":[{"extensions":{},"sampler":0},{"extensions":{"EXT_texture_webp":{"source":0}},"sampler":0}],"images":[{"mimeType":"image/webp","name":"PolygonScifiWorlds_Texture_01_A","uri":"PolygonScifiWorlds_Texture_01_A.webp"}],"accessors":[{"bufferView":0,"componentType":5126,"count":510,"max":[-311.5877685546875,99.59485626220703,-1.3775343894958496],"min":[-725.0269775390625,-99.59485626220703,-181.50714111328125],"type":"VEC3"},{"bufferView":1,"componentType":5126,"count":510,"type":"VEC3"},{"bufferView":2,"componentType":5126,"count":510,"type":"VEC2"},{"bufferView":3,"componentType":5123,"count":918,"type":"SCALAR"},{"bufferView":4,"componentType":5126,"count":1296,"max":[-270.6371765136719,44.942955017089844,-121.30545043945312],"min":[-641.385009765625,-44.942955017089844,-840.606689453125],"type":"VEC3"},{"bufferView":5,"componentType":5126,"count":1296,"type":"VEC3"},{"bufferView":6,"componentType":5126,"count":1296,"type":"VEC2"},{"bufferView":7,"componentType":5123,"count":2280,"type":"SCALAR"},{"bufferView":8,"componentType":5126,"count":510,"max":[725.0269775390625,99.59485626220703,-1.3775343894958496],"min":[311.5877685546875,-99.59485626220703,-181.50714111328125],"type":"VEC3"},{"bufferView":9,"componentType":5126,"count":510,"type":"VEC3"},{"bufferView":10,"componentType":5126,"count":510,"type":"VEC2"},{"bufferView":11,"componentType":5123,"count":918,"type":"SCALAR"},{"bufferView":12,"componentType":5126,"count":1296,"max":[641.385009765625,44.942955017089844,-121.30545043945312],"min":[270.6371765136719,-44.942955017089844,-840.606689453125],"type":"VEC3"},{"bufferView":13,"componentType":5126,"count":1296,"type":"VEC3"},{"bufferView":14,"componentType":5126,"count":1296,"type":"VEC2"},{"bufferView":15,"componentType":5123,"count":2280,"type":"SCALAR"},{"bufferView":16,"componentType":5126,"count":587,"max":[78.21949005126953,78.22042846679688,-4.592348098754883],"min":[-78.21949005126953,-78.21853637695312,-97.34028625488281],"type":"VEC3"},{"bufferView":17,"componentType":5126,"count":587,"type":"VEC3"},{"bufferView":18,"componentType":5126,"count":587,"type":"VEC2"},{"bufferView":19,"componentType":5123,"count":858,"type":"SCALAR"},{"bufferView":20,"componentType":5126,"count":581,"max":[76.34100341796875,76.33726501464844,-95.73112487792969],"min":[-76.34100341796875,-76.34278869628906,-821.1226196289062],"type":"VEC3"},{"bufferView":21,"componentType":5126,"count":581,"type":"VEC3"},{"bufferView":22,"componentType":5126,"count":581,"type":"VEC2"},{"bufferView":23,"componentType":5123,"count":888,"type":"SCALAR"},{"bufferView":24,"componentType":5126,"count":984,"max":[92.09236145019531,92.09249877929688,-245.03317260742188],"min":[-92.09236145019531,-92.09249877929688,-895.0244140625],"type":"VEC3"},{"bufferView":25,"componentType":5126,"count":984,"type":"VEC3"},{"bufferView":26,"componentType":5126,"count":984,"type":"VEC2"},{"bufferView":27,"componentType":5123,"count":1512,"type":"SCALAR"},{"bufferView":28,"componentType":5126,"count":3520,"max":[410.2063903808594,140.82366943359375,-268.9283142089844],"min":[-410.2063903808594,-140.82366943359375,-1048.865966796875],"type":"VEC3"},{"bufferView":29,"componentType":5126,"count":3520,"type":"VEC3"},{"bufferView":30,"componentType":5126,"count":3520,"type":"VEC2"},{"bufferView":31,"componentType":5123,"count":6036,"type":"SCALAR"}],"bufferViews":[{"buffer":0,"byteLength":6120,"byteOffset":0,"target":34962},{"buffer":0,"byteLength":6120,"byteOffset":6120,"target":34962},{"buffer":0,"byteLength":4080,"byteOffset":12240,"target":34962},{"buffer":0,"byteLength":1836,"byteOffset":16320,"target":34963},{"buffer":0,"byteLength":15552,"byteOffset":18156,"target":34962},{"buffer":0,"byteLength":15552,"byteOffset":33708,"target":34962},{"buffer":0,"byteLength":10368,"byteOffset":49260,"target":34962},{"buffer":0,"byteLength":4560,"byteOffset":59628,"target":34963},{"buffer":0,"byteLength":6120,"byteOffset":64188,"target":34962},{"buffer":0,"byteLength":6120,"byteOffset":70308,"target":34962},{"buffer":0,"byteLength":4080,"byteOffset":76428,"target":34962},{"buffer":0,"byteLength":1836,"byteOffset":80508,"target":34963},{"buffer":0,"byteLength":15552,"byteOffset":82344,"target":34962},{"buffer":0,"byteLength":15552,"byteOffset":97896,"target":34962},{"buffer":0,"byteLength":10368,"byteOffset":113448,"target":34962},{"buffer":0,"byteLength":4560,"byteOffset":123816,"target":34963},{"buffer":0,"byteLength":7044,"byteOffset":128376,"target":34962},{"buffer":0,"byteLength":7044,"byteOffset":135420,"target":34962},{"buffer":0,"byteLength":4696,"byteOffset":142464,"target":34962},{"buffer":0,"byteLength":1716,"byteOffset":147160,"target":34963},{"buffer":0,"byteLength":6972,"byteOffset":148876,"target":34962},{"buffer":0,"byteLength":6972,"byteOffset":155848,"target":34962},{"buffer":0,"byteLength":4648,"byteOffset":162820,"target":34962},{"buffer":0,"byteLength":1776,"byteOffset":167468,"target":34963},{"buffer":0,"byteLength":11808,"byteOffset":169244,"target":34962},{"buffer":0,"byteLength":11808,"byteOffset":181052,"target":34962},{"buffer":0,"byteLength":7872,"byteOffset":192860,"target":34962},{"buffer":0,"byteLength":3024,"byteOffset":200732,"target":34963},{"buffer":0,"byteLength":42240,"byteOffset":203756,"target":34962},{"buffer":0,"byteLength":42240,"byteOffset":245996,"target":34962},{"buffer":0,"byteLength":28160,"byteOffset":288236,"target":34962},{"buffer":0,"byteLength":12072,"byteOffset":316396,"target":34963}],"samplers":[{"magFilter":9729,"minFilter":9987}],"buffers":[{"byteLength":328468,"uri":"worlds_SM_Prop_Drill_04.bin"}]}