{"asset":{"generator":"Khronos glTF Blender I/O v4.4.55","version":"2.0"},"extensionsUsed":["EXT_texture_webp"],"extensionsRequired":["EXT_texture_webp"],"scene":0,"scenes":[{"name":"Scene","nodes":[0]}],"nodes":[{"mesh":0,"name":"SM_Prop_Scav_Scrap_19","rotation":[0.7071068286895752,0,0,0.7071068286895752],"scale":[0.009999999776482582,0.009999999776482582,0.009999999776482582]}],"materials":[{"doubleSided":true,"name":"SciFi_Planets_SHD","pbrMetallicRoughness":{"baseColorTexture":{"index":1},"metallicFactor":0,"roughnessFactor":0.5527864098548889}}],"meshes":[{"name":"Mesh","primitives":[{"attributes":{"POSITION":0,"NORMAL":1,"TEXCOORD_0":2},"indices":3,"material":0}]}],"textures":[{"extensions":{},"sampler":0},{"extensions":{"EXT_texture_webp":{"source":0}},"sampler":0}],"images":[{"mimeType":"image/webp","name":"PolygonScifiWorlds_Texture_01_A","uri":"PolygonScifiWorlds_Texture_01_A.webp"}],"accessors":[{"bufferView":0,"componentType":5126,"count":608,"max":[174.267333984375,47.0400390625,118.852294921875],"min":[-174.2672119140625,-50.6904296875,-118.85232543945312],"type":"VEC3"},{"bufferView":1,"componentType":5126,"count":608,"type":"VEC3"},{"bufferView":2,"componentType":5126,"count":608,"type":"VEC2"},{"bufferView":3,"componentType":5123,"count":918,"type":"SCALAR"}],"bufferViews":[{"buffer":0,"byteLength":7296,"byteOffset":0,"target":34962},{"buffer":0,"byteLength":7296,"byteOffset":7296,"target":34962},{"buffer":0,"byteLength":4864,"byteOffset":14592,"target":34962},{"buffer":0,"byteLength":1836,"byteOffset":19456,"target":34963}],"samplers":[{"magFilter":9729,"minFilter":9987}],"buffers":[{"byteLength":21292,"uri":"worlds_SM_Prop_Scav_Scrap_19.bin"}]}