{"asset":{"generator":"Khronos glTF Blender I/O v4.4.55","version":"2.0"},"extensionsUsed":["EXT_texture_webp"],"extensionsRequired":["EXT_texture_webp"],"scene":0,"scenes":[{"name":"Scene","nodes":[2]}],"nodes":[{"mesh":0,"name":"SM_Prop_Vendor_Product_14_Glass_01"},{"mesh":1,"name":"SM_Prop_Vendor_Product_14_Plant_01"},{"children":[0,1],"mesh":2,"name":"SM_Prop_Vendor_Product_14","rotation":[0.7071068286895752,0,0,0.7071068286895752],"scale":[0.009999999776482582,0.009999999776482582,0.009999999776482582]}],"materials":[{"alphaMode":"MASK","doubleSided":true,"name":"Glass_MAT","pbrMetallicRoughness":{"baseColorFactor":[1,1,1,0.15662652254104614],"baseColorTexture":{"index":0},"metallicFactor":0,"roughnessFactor":0.5527864098548889},"alphaCutoff":0.5},{"doubleSided":true,"name":"ScifiMat","pbrMetallicRoughness":{"baseColorTexture":{"index":1},"metallicFactor":0,"roughnessFactor":0.5527864098548889}},{"doubleSided":true,"name":"SciFi_Planets_SHD","pbrMetallicRoughness":{"baseColorTexture":{"index":3},"metallicFactor":0,"roughnessFactor":0.5527864098548889}}],"meshes":[{"name":"Mesh.001","primitives":[{"attributes":{"POSITION":0,"NORMAL":1,"TEXCOORD_0":2},"indices":3,"material":0}]},{"name":"Mesh.002","primitives":[{"attributes":{"POSITION":4,"NORMAL":5,"TEXCOORD_0":6,"COLOR_0":7,"COLOR_1":8},"indices":9,"material":1}]},{"name":"Mesh","primitives":[{"attributes":{"POSITION":10,"NORMAL":11,"TEXCOORD_0":12},"indices":13,"material":2}]}],"textures":[{"extensions":{"EXT_texture_webp":{"source":0}},"sampler":0},{"extensions":{"EXT_texture_webp":{"source":0}},"sampler":0},{"extensions":{},"sampler":0},{"extensions":{"EXT_texture_webp":{"source":0}},"sampler":0}],"images":[{"mimeType":"image/webp","name":"PolygonScifiWorlds_Texture_01_A","uri":"PolygonScifiWorlds_Texture_01_A.webp"}],"accessors":[{"bufferView":0,"componentType":5126,"count":32,"max":[10.794092178344727,10.794149398803711,-16.441604614257812],"min":[-10.794089317321777,-10.794074058532715,-42.39518737792969],"type":"VEC3"},{"bufferView":1,"componentType":5126,"count":32,"type":"VEC3"},{"bufferView":2,"componentType":5126,"count":32,"type":"VEC2"},{"bufferView":3,"componentType":5123,"count":48,"type":"SCALAR"},{"bufferView":4,"componentType":5126,"count":769,"max":[7.087741851806641,6.164539337158203,-14.798685073852539],"min":[-7.384071350097656,-8.281089782714844,-37.294586181640625],"type":"VEC3"},{"bufferView":5,"componentType":5126,"count":769,"type":"VEC3"},{"bufferView":6,"componentType":5126,"count":769,"type":"VEC2"},{"bufferView":7,"componentType":5121,"count":769,"normalized":true,"type":"VEC4"},{"bufferView":8,"componentType":5123,"count":769,"normalized":true,"type":"VEC4"},{"bufferView":9,"componentType":5123,"count":1005,"type":"SCALAR"},{"bufferView":10,"componentType":5126,"count":880,"max":[14.887330055236816,14.887399673461914,0],"min":[-14.88731575012207,-14.887327194213867,-57.65306854248047],"type":"VEC3"},{"bufferView":11,"componentType":5126,"count":880,"type":"VEC3"},{"bufferView":12,"componentType":5126,"count":880,"type":"VEC2"},{"bufferView":13,"componentType":5123,"count":1584,"type":"SCALAR"}],"bufferViews":[{"buffer":0,"byteLength":384,"byteOffset":0,"target":34962},{"buffer":0,"byteLength":384,"byteOffset":384,"target":34962},{"buffer":0,"byteLength":256,"byteOffset":768,"target":34962},{"buffer":0,"byteLength":96,"byteOffset":1024,"target":34963},{"buffer":0,"byteLength":9228,"byteOffset":1120,"target":34962},{"buffer":0,"byteLength":9228,"byteOffset":10348,"target":34962},{"buffer":0,"byteLength":6152,"byteOffset":19576,"target":34962},{"buffer":0,"byteLength":3076,"byteOffset":25728,"target":34962},{"buffer":0,"byteLength":6152,"byteOffset":28804,"target":34962},{"buffer":0,"byteLength":2010,"byteOffset":34956,"target":34963},{"buffer":0,"byteLength":10560,"byteOffset":36968,"target":34962},{"buffer":0,"byteLength":10560,"byteOffset":47528,"target":34962},{"buffer":0,"byteLength":7040,"byteOffset":58088,"target":34962},{"buffer":0,"byteLength":3168,"byteOffset":65128,"target":34963}],"samplers":[{"magFilter":9729,"minFilter":9987}],"buffers":[{"byteLength":68296,"uri":"worlds_SM_Prop_Vendor_Product_14.bin"}]}