{
	"asset":{
		"generator":"Khronos glTF Blender I/O v4.4.55",
		"version":"2.0"
	},
	"extensionsUsed":[
		"EXT_texture_webp"
	],
	"extensionsRequired":[
		"EXT_texture_webp"
	],
	"scene":0,
	"scenes":[
		{
			"name":"Scene",
			"nodes":[
				0
			]
		}
	],
	"nodes":[
		{
			"mesh":0,
			"name":"SM_Chr_Attach_Pouch_07",
			"rotation":[
				0.7071068286895752,
				0,
				0,
				0.7071068286895752
			],
			"scale":[
				0.009999999776482582,
				0.009999999776482582,
				0.009999999776482582
			]
		}
	],
	"materials":[
		{
			"doubleSided":true,
			"name":"Scifi",
			"pbrMetallicRoughness":{
				"baseColorTexture":{
					"index":0
				},
				"metallicFactor":0,
				"roughnessFactor":0.5527864098548889
			}
		}
	],
	"meshes":[
		{
			"name":"Mesh",
			"primitives":[
				{
					"attributes":{
						"POSITION":0,
						"NORMAL":1,
						"TEXCOORD_0":2
					},
					"indices":3,
					"material":0
				}
			]
		}
	],
	"textures":[
		{
			"extensions":{
				"EXT_texture_webp":{
					"source":0
				}
			},
			"sampler":0
		}
	],
	"images":[
		{
			"mimeType":"image/webp",
			"name":"PolygonScifiWorlds_Texture_01_A",
			"uri":"PolygonScifiWorlds_Texture_01_A.webp"
		}
	],
	"accessors":[
		{
			"bufferView":0,
			"componentType":5126,
			"count":1043,
			"max":[
				16.028594970703125,
				15.215116500854492,
				15.165359497070312
			],
			"min":[
				-16.028594970703125,
				-0.2591581344604492,
				-6.220481872558594
			],
			"type":"VEC3"
		},
		{
			"bufferView":1,
			"componentType":5126,
			"count":1043,
			"type":"VEC3"
		},
		{
			"bufferView":2,
			"componentType":5126,
			"count":1043,
			"type":"VEC2"
		},
		{
			"bufferView":3,
			"componentType":5123,
			"count":2010,
			"type":"SCALAR"
		}
	],
	"bufferViews":[
		{
			"buffer":0,
			"byteLength":12516,
			"byteOffset":0,
			"target":34962
		},
		{
			"buffer":0,
			"byteLength":12516,
			"byteOffset":12516,
			"target":34962
		},
		{
			"buffer":0,
			"byteLength":8344,
			"byteOffset":25032,
			"target":34962
		},
		{
			"buffer":0,
			"byteLength":4020,
			"byteOffset":33376,
			"target":34963
		}
	],
	"samplers":[
		{
			"magFilter":9729,
			"minFilter":9987
		}
	],
	"buffers":[
		{
			"byteLength":37396,
			"uri":"worlds_SM_Chr_Attach_Pouch_07.bin"
		}
	]
}
