{
	"asset":{
		"generator":"Khronos glTF Blender I/O v4.4.55",
		"version":"2.0"
	},
	"extensionsUsed":[
		"EXT_texture_webp"
	],
	"extensionsRequired":[
		"EXT_texture_webp"
	],
	"scene":0,
	"scenes":[
		{
			"name":"Scene",
			"nodes":[
				0
			]
		}
	],
	"nodes":[
		{
			"mesh":0,
			"name":"SM_Env_Floating_Rocks_Spiral_02",
			"rotation":[
				0.7071068286895752,
				0,
				0,
				0.7071068286895752
			],
			"scale":[
				0.009999999776482582,
				0.009999999776482582,
				0.009999999776482582
			]
		}
	],
	"materials":[
		{
			"doubleSided":true,
			"name":"ScifiMat",
			"pbrMetallicRoughness":{
				"baseColorTexture":{
					"index":0
				},
				"metallicFactor":0,
				"roughnessFactor":0.5527864098548889
			}
		}
	],
	"meshes":[
		{
			"name":"Mesh",
			"primitives":[
				{
					"attributes":{
						"POSITION":0,
						"NORMAL":1,
						"TEXCOORD_0":2,
						"TEXCOORD_1":3
					},
					"indices":4,
					"material":0
				}
			]
		}
	],
	"textures":[
		{
			"extensions":{
				"EXT_texture_webp":{
					"source":0
				}
			},
			"sampler":0
		}
	],
	"images":[
		{
			"mimeType":"image/webp",
			"name":"PolygonScifiWorlds_Texture_01_A",
			"uri":"PolygonScifiWorlds_Texture_01_A.webp"
		}
	],
	"accessors":[
		{
			"bufferView":0,
			"componentType":5126,
			"count":408,
			"max":[
				1134.4189453125,
				563.3255615234375,
				-38.32701110839844
			],
			"min":[
				-822.135498046875,
				-1083.369384765625,
				-1664.049560546875
			],
			"type":"VEC3"
		},
		{
			"bufferView":1,
			"componentType":5126,
			"count":408,
			"type":"VEC3"
		},
		{
			"bufferView":2,
			"componentType":5126,
			"count":408,
			"type":"VEC2"
		},
		{
			"bufferView":3,
			"componentType":5126,
			"count":408,
			"type":"VEC2"
		},
		{
			"bufferView":4,
			"componentType":5123,
			"count":666,
			"type":"SCALAR"
		}
	],
	"bufferViews":[
		{
			"buffer":0,
			"byteLength":4896,
			"byteOffset":0,
			"target":34962
		},
		{
			"buffer":0,
			"byteLength":4896,
			"byteOffset":4896,
			"target":34962
		},
		{
			"buffer":0,
			"byteLength":3264,
			"byteOffset":9792,
			"target":34962
		},
		{
			"buffer":0,
			"byteLength":3264,
			"byteOffset":13056,
			"target":34962
		},
		{
			"buffer":0,
			"byteLength":1332,
			"byteOffset":16320,
			"target":34963
		}
	],
	"samplers":[
		{
			"magFilter":9729,
			"minFilter":9987
		}
	],
	"buffers":[
		{
			"byteLength":17652,
			"uri":"worlds_SM_Env_Floating_Rocks_Spiral_02.bin"
		}
	]
}
