{"asset":{"generator":"Khronos glTF Blender I/O v4.4.55","version":"2.0"},"extensionsUsed":["EXT_texture_webp"],"extensionsRequired":["EXT_texture_webp"],"scene":0,"scenes":[{"name":"Scene","nodes":[1]}],"nodes":[{"mesh":0,"name":"SM_Bld_Scav_Refinery_Control_01_Glass_01"},{"children":[0],"mesh":1,"name":"SM_Bld_Scav_Refinery_Control_01","rotation":[0.7071068286895752,0,0,0.7071068286895752],"scale":[0.009999999776482582,0.009999999776482582,0.009999999776482582]}],"materials":[{"alphaMode":"MASK","doubleSided":true,"name":"Glass_MAT","pbrMetallicRoughness":{"baseColorFactor":[1,1,1,0.15662652254104614],"baseColorTexture":{"index":0},"metallicFactor":0,"roughnessFactor":0.5527864098548889},"alphaCutoff":0.5},{"doubleSided":true,"name":"SciFi_Planets_SHD","pbrMetallicRoughness":{"baseColorTexture":{"index":2},"metallicFactor":0,"roughnessFactor":0.5527864098548889}}],"meshes":[{"name":"Mesh.001","primitives":[{"attributes":{"POSITION":0,"NORMAL":1,"TEXCOORD_0":2},"indices":3,"material":0}]},{"name":"Mesh","primitives":[{"attributes":{"POSITION":4,"NORMAL":5,"TEXCOORD_0":6},"indices":7,"material":1}]}],"textures":[{"extensions":{"EXT_texture_webp":{"source":0}},"sampler":0},{"extensions":{},"sampler":0},{"extensions":{"EXT_texture_webp":{"source":0}},"sampler":0}],"images":[{"mimeType":"image/webp","name":"PolygonScifiWorlds_Texture_01_A","uri":"PolygonScifiWorlds_Texture_01_A.webp"}],"accessors":[{"bufferView":0,"componentType":5126,"count":337,"max":[450.2618713378906,2352.43310546875,-86.96514892578125],"min":[-611.974365234375,-1515.5255126953125,-1660.816650390625],"type":"VEC3"},{"bufferView":1,"componentType":5126,"count":337,"type":"VEC3"},{"bufferView":2,"componentType":5126,"count":337,"type":"VEC2"},{"bufferView":3,"componentType":5123,"count":600,"type":"SCALAR"},{"bufferView":4,"componentType":5126,"count":19485,"max":[835.2656860351562,2414.4072265625,30],"min":[-634.9701538085938,-1661.060791015625,-2218.551025390625],"type":"VEC3"},{"bufferView":5,"componentType":5126,"count":19485,"type":"VEC3"},{"bufferView":6,"componentType":5126,"count":19485,"type":"VEC2"},{"bufferView":7,"componentType":5123,"count":33897,"type":"SCALAR"}],"bufferViews":[{"buffer":0,"byteLength":4044,"byteOffset":0,"target":34962},{"buffer":0,"byteLength":4044,"byteOffset":4044,"target":34962},{"buffer":0,"byteLength":2696,"byteOffset":8088,"target":34962},{"buffer":0,"byteLength":1200,"byteOffset":10784,"target":34963},{"buffer":0,"byteLength":233820,"byteOffset":11984,"target":34962},{"buffer":0,"byteLength":233820,"byteOffset":245804,"target":34962},{"buffer":0,"byteLength":155880,"byteOffset":479624,"target":34962},{"buffer":0,"byteLength":67794,"byteOffset":635504,"target":34963}],"samplers":[{"magFilter":9729,"minFilter":9987}],"buffers":[{"byteLength":703300,"uri":"worlds_SM_Bld_Scav_Refinery_Control_01.bin"}]}