{"asset":{"generator":"Khronos glTF Blender I/O v4.4.55","version":"2.0"},"extensionsUsed":["EXT_texture_webp"],"extensionsRequired":["EXT_texture_webp"],"scene":0,"scenes":[{"name":"Scene","nodes":[1]}],"nodes":[{"mesh":0,"name":"SM_Bld_Crate_Building_01_Shutter_01"},{"children":[0],"mesh":1,"name":"SM_Bld_Crate_Building_01","rotation":[0.7071068286895752,0,0,0.7071068286895752],"scale":[0.009999999776482582,0.009999999776482582,0.009999999776482582]}],"materials":[{"doubleSided":true,"name":"SciFi_Planets_SHD","pbrMetallicRoughness":{"baseColorTexture":{"index":1},"metallicFactor":0,"roughnessFactor":0.5527864098548889}}],"meshes":[{"name":"Mesh.001","primitives":[{"attributes":{"POSITION":0,"NORMAL":1,"TEXCOORD_0":2},"indices":3,"material":0}]},{"name":"Mesh","primitives":[{"attributes":{"POSITION":4,"NORMAL":5,"TEXCOORD_0":6},"indices":7,"material":0}]}],"textures":[{"extensions":{},"sampler":0},{"extensions":{"EXT_texture_webp":{"source":0}},"sampler":0}],"images":[{"mimeType":"image/webp","name":"PolygonScifiWorlds_Texture_01_A","uri":"PolygonScifiWorlds_Texture_01_A.webp"}],"accessors":[{"bufferView":0,"componentType":5126,"count":528,"max":[140,482.2305908203125,-141.30361938476562],"min":[-140,473.54718017578125,-299.0400390625],"type":"VEC3"},{"bufferView":1,"componentType":5126,"count":528,"type":"VEC3"},{"bufferView":2,"componentType":5126,"count":528,"type":"VEC2"},{"bufferView":3,"componentType":5123,"count":912,"type":"SCALAR"},{"bufferView":4,"componentType":5126,"count":2836,"max":[216.3255615234375,555.150634765625,3.8928135007491e-15],"min":[-216.3255615234375,-487.47039794921875,-383.0801086425781],"type":"VEC3"},{"bufferView":5,"componentType":5126,"count":2836,"type":"VEC3"},{"bufferView":6,"componentType":5126,"count":2836,"type":"VEC2"},{"bufferView":7,"componentType":5123,"count":4809,"type":"SCALAR"}],"bufferViews":[{"buffer":0,"byteLength":6336,"byteOffset":0,"target":34962},{"buffer":0,"byteLength":6336,"byteOffset":6336,"target":34962},{"buffer":0,"byteLength":4224,"byteOffset":12672,"target":34962},{"buffer":0,"byteLength":1824,"byteOffset":16896,"target":34963},{"buffer":0,"byteLength":34032,"byteOffset":18720,"target":34962},{"buffer":0,"byteLength":34032,"byteOffset":52752,"target":34962},{"buffer":0,"byteLength":22688,"byteOffset":86784,"target":34962},{"buffer":0,"byteLength":9618,"byteOffset":109472,"target":34963}],"samplers":[{"magFilter":9729,"minFilter":9987}],"buffers":[{"byteLength":119092,"uri":"worlds_SM_Bld_Crate_Building_01.bin"}]}