{"asset":{"generator":"Khronos glTF Blender I/O v4.4.55","version":"2.0"},"extensionsUsed":["EXT_texture_webp"],"extensionsRequired":["EXT_texture_webp"],"scene":0,"scenes":[{"name":"Scene","nodes":[1]}],"nodes":[{"mesh":0,"name":"SM_Bld_Scav_Refinery_04_Glass_01"},{"children":[0],"mesh":1,"name":"SM_Bld_Scav_Refinery_04","rotation":[0.7071068286895752,0,0,0.7071068286895752],"scale":[0.009999999776482582,0.009999999776482582,0.009999999776482582]}],"materials":[{"alphaMode":"MASK","doubleSided":true,"name":"Glass_MAT","pbrMetallicRoughness":{"baseColorFactor":[1,1,1,0.15662652254104614],"baseColorTexture":{"index":0},"metallicFactor":0,"roughnessFactor":0.5527864098548889},"alphaCutoff":0.5},{"doubleSided":true,"name":"SciFi_Planets_SHD","pbrMetallicRoughness":{"baseColorTexture":{"index":2},"metallicFactor":0,"roughnessFactor":0.5527864098548889}}],"meshes":[{"name":"Mesh.001","primitives":[{"attributes":{"POSITION":0,"NORMAL":1,"TEXCOORD_0":2},"indices":3,"material":0}]},{"name":"Mesh","primitives":[{"attributes":{"POSITION":4,"NORMAL":5,"TEXCOORD_0":6,"TEXCOORD_1":7},"indices":8,"material":1}]}],"textures":[{"extensions":{"EXT_texture_webp":{"source":0}},"sampler":0},{"extensions":{},"sampler":0},{"extensions":{"EXT_texture_webp":{"source":0}},"sampler":0}],"images":[{"mimeType":"image/webp","name":"PolygonScifiWorlds_Texture_01_A","uri":"PolygonScifiWorlds_Texture_01_A.webp"}],"accessors":[{"bufferView":0,"componentType":5126,"count":168,"max":[1262.88916015625,865.4452514648438,-127.35052490234375],"min":[-1121.9927978515625,-911.6607666015625,-1773.905029296875],"type":"VEC3"},{"bufferView":1,"componentType":5126,"count":168,"type":"VEC3"},{"bufferView":2,"componentType":5126,"count":168,"type":"VEC2"},{"bufferView":3,"componentType":5123,"count":252,"type":"SCALAR"},{"bufferView":4,"componentType":5126,"count":25771,"max":[1345.024169921875,930.6412963867188,51.368289947509766],"min":[-1474.915283203125,-1274.371337890625,-2231.678466796875],"type":"VEC3"},{"bufferView":5,"componentType":5126,"count":25771,"type":"VEC3"},{"bufferView":6,"componentType":5126,"count":25771,"type":"VEC2"},{"bufferView":7,"componentType":5126,"count":25771,"type":"VEC2"},{"bufferView":8,"componentType":5123,"count":43188,"type":"SCALAR"}],"bufferViews":[{"buffer":0,"byteLength":2016,"byteOffset":0,"target":34962},{"buffer":0,"byteLength":2016,"byteOffset":2016,"target":34962},{"buffer":0,"byteLength":1344,"byteOffset":4032,"target":34962},{"buffer":0,"byteLength":504,"byteOffset":5376,"target":34963},{"buffer":0,"byteLength":309252,"byteOffset":5880,"target":34962},{"buffer":0,"byteLength":309252,"byteOffset":315132,"target":34962},{"buffer":0,"byteLength":206168,"byteOffset":624384,"target":34962},{"buffer":0,"byteLength":206168,"byteOffset":830552,"target":34962},{"buffer":0,"byteLength":86376,"byteOffset":1036720,"target":34963}],"samplers":[{"magFilter":9729,"minFilter":9987}],"buffers":[{"byteLength":1123096,"uri":"worlds_SM_Bld_Scav_Refinery_04.bin"}]}