{
	"asset":{
		"generator":"Khronos glTF Blender I/O v4.4.55",
		"version":"2.0"
	},
	"extensionsUsed":[
		"EXT_texture_webp"
	],
	"extensionsRequired":[
		"EXT_texture_webp"
	],
	"scene":0,
	"scenes":[
		{
			"name":"Scene",
			"nodes":[
				2
			]
		}
	],
	"nodes":[
		{
			"mesh":0,
			"name":"SM_Env_Artifact_AlienRuin_22_Door_l_01"
		},
		{
			"mesh":1,
			"name":"SM_Env_Artifact_AlienRuin_22_Door_r_01"
		},
		{
			"children":[
				0,
				1
			],
			"mesh":2,
			"name":"SM_Env_Artifact_AlienRuin_22",
			"rotation":[
				0.7071068286895752,
				0,
				0,
				0.7071068286895752
			],
			"scale":[
				0.009999999776482582,
				0.009999999776482582,
				0.009999999776482582
			]
		}
	],
	"materials":[
		{
			"doubleSided":true,
			"name":"SciFiCrate_MAT",
			"normalTexture":{
				"index":0
			},
			"pbrMetallicRoughness":{
				"baseColorTexture":{
					"index":1
				},
				"metallicFactor":0,
				"roughnessFactor":0.5527864098548889
			}
		}
	],
	"meshes":[
		{
			"name":"Mesh.002",
			"primitives":[
				{
					"attributes":{
						"POSITION":0,
						"NORMAL":1,
						"TEXCOORD_0":2
					},
					"indices":3,
					"material":0
				}
			]
		},
		{
			"name":"Mesh.001",
			"primitives":[
				{
					"attributes":{
						"POSITION":4,
						"NORMAL":5,
						"TEXCOORD_0":6
					},
					"indices":7,
					"material":0
				}
			]
		},
		{
			"name":"Mesh",
			"primitives":[
				{
					"attributes":{
						"POSITION":8,
						"NORMAL":9,
						"TEXCOORD_0":10
					},
					"indices":11,
					"material":0
				}
			]
		}
	],
	"textures":[
		{
			"extensions":{},
			"sampler":0
		},
		{
			"extensions":{
				"EXT_texture_webp":{
					"source":0
				}
			},
			"sampler":0
		}
	],
	"images":[
		{
			"mimeType":"image/webp",
			"name":"PolygonScifiWorlds_Texture_01_A",
			"uri":"PolygonScifiWorlds_Texture_01_A.webp"
		}
	],
	"accessors":[
		{
			"bufferView":0,
			"componentType":5126,
			"count":504,
			"max":[
				0.00247955322265625,
				106.78644561767578,
				0.0001200763726956211
			],
			"min":[
				-396.3035583496094,
				-86.7867431640625,
				-1475.7685546875
			],
			"type":"VEC3"
		},
		{
			"bufferView":1,
			"componentType":5126,
			"count":504,
			"type":"VEC3"
		},
		{
			"bufferView":2,
			"componentType":5126,
			"count":504,
			"type":"VEC2"
		},
		{
			"bufferView":3,
			"componentType":5123,
			"count":615,
			"type":"SCALAR"
		},
		{
			"bufferView":4,
			"componentType":5126,
			"count":858,
			"max":[
				404.3995056152344,
				106.7970962524414,
				0.00010769636719487607
			],
			"min":[
				-5.490584850311279,
				-86.78662872314453,
				-1475.7674560546875
			],
			"type":"VEC3"
		},
		{
			"bufferView":5,
			"componentType":5126,
			"count":858,
			"type":"VEC3"
		},
		{
			"bufferView":6,
			"componentType":5126,
			"count":858,
			"type":"VEC2"
		},
		{
			"bufferView":7,
			"componentType":5123,
			"count":996,
			"type":"SCALAR"
		},
		{
			"bufferView":8,
			"componentType":5126,
			"count":9178,
			"max":[
				715.6318359375,
				223.0904083251953,
				4.0384063720703125
			],
			"min":[
				-715.35205078125,
				-223.12391662597656,
				-1727.4927978515625
			],
			"type":"VEC3"
		},
		{
			"bufferView":9,
			"componentType":5126,
			"count":9178,
			"type":"VEC3"
		},
		{
			"bufferView":10,
			"componentType":5126,
			"count":9178,
			"type":"VEC2"
		},
		{
			"bufferView":11,
			"componentType":5123,
			"count":10116,
			"type":"SCALAR"
		}
	],
	"bufferViews":[
		{
			"buffer":0,
			"byteLength":6048,
			"byteOffset":0,
			"target":34962
		},
		{
			"buffer":0,
			"byteLength":6048,
			"byteOffset":6048,
			"target":34962
		},
		{
			"buffer":0,
			"byteLength":4032,
			"byteOffset":12096,
			"target":34962
		},
		{
			"buffer":0,
			"byteLength":1230,
			"byteOffset":16128,
			"target":34963
		},
		{
			"buffer":0,
			"byteLength":10296,
			"byteOffset":17360,
			"target":34962
		},
		{
			"buffer":0,
			"byteLength":10296,
			"byteOffset":27656,
			"target":34962
		},
		{
			"buffer":0,
			"byteLength":6864,
			"byteOffset":37952,
			"target":34962
		},
		{
			"buffer":0,
			"byteLength":1992,
			"byteOffset":44816,
			"target":34963
		},
		{
			"buffer":0,
			"byteLength":110136,
			"byteOffset":46808,
			"target":34962
		},
		{
			"buffer":0,
			"byteLength":110136,
			"byteOffset":156944,
			"target":34962
		},
		{
			"buffer":0,
			"byteLength":73424,
			"byteOffset":267080,
			"target":34962
		},
		{
			"buffer":0,
			"byteLength":20232,
			"byteOffset":340504,
			"target":34963
		}
	],
	"samplers":[
		{
			"magFilter":9729,
			"minFilter":9987
		}
	],
	"buffers":[
		{
			"byteLength":360736,
			"uri":"worlds_SM_Env_Artifact_AlienRuin_22.bin"
		}
	]
}
