{"asset":{"generator":"Khronos glTF Blender I/O v4.4.55","version":"2.0"},"extensionsUsed":["EXT_texture_webp"],"extensionsRequired":["EXT_texture_webp"],"scene":0,"scenes":[{"name":"Scene","nodes":[15]}],"nodes":[{"mesh":0,"name":"SM_Bld_Pod_Research_05_Dome_01_Glass_01"},{"mesh":1,"name":"SM_Bld_Pod_Research_05_Dome_01_Glass_02"},{"children":[0,1],"mesh":2,"name":"SM_Bld_Pod_Research_05_Dome_01"},{"mesh":3,"name":"SM_Bld_Pod_Research_05_Leg_01"},{"mesh":4,"name":"SM_Bld_Pod_Research_05_Leg_02"},{"mesh":5,"name":"SM_Bld_Pod_Research_05_Leg_03"},{"mesh":6,"name":"SM_Bld_Pod_Research_05_Leg_04"},{"mesh":7,"name":"SM_Bld_Pod_Research_05_Leg_05"},{"mesh":8,"name":"SM_Bld_Pod_Research_05_Leg_06"},{"mesh":9,"name":"SM_Bld_Pod_Research_05_Leg_07"},{"mesh":10,"name":"SM_Bld_Pod_Research_05_Leg_08"},{"mesh":11,"name":"SM_Bld_Pod_Research_05_Light_01"},{"mesh":12,"name":"SM_Bld_Pod_Research_05_Light_02"},{"mesh":13,"name":"SM_Bld_Pod_Research_05_Light_03"},{"mesh":14,"name":"SM_Bld_Pod_Research_05_Light_04"},{"children":[2,3,4,5,6,7,8,9,10,11,12,13,14],"mesh":15,"name":"SM_Bld_Pod_Research_05","rotation":[0.7071068286895752,0,0,0.7071068286895752],"scale":[0.009999999776482582,0.009999999776482582,0.009999999776482582]}],"materials":[{"alphaMode":"MASK","doubleSided":true,"name":"Glass_MAT2","pbrMetallicRoughness":{"baseColorFactor":[1,1,1,0.15662652254104614],"baseColorTexture":{"index":0},"metallicFactor":0,"roughnessFactor":0.5527864098548889},"alphaCutoff":0.5},{"doubleSided":true,"name":"POD_SHD:SciFi_Planets_POD_SHD","pbrMetallicRoughness":{"baseColorTexture":{"index":2},"metallicFactor":0,"roughnessFactor":0.5527864098548889}},{"doubleSided":true,"name":"Base_Lambert1","pbrMetallicRoughness":{"baseColorTexture":{"index":3},"metallicFactor":0,"roughnessFactor":0.5527864098548889}}],"meshes":[{"name":"Mesh.014","primitives":[{"attributes":{"POSITION":0,"NORMAL":1,"TEXCOORD_0":2},"indices":3,"material":0}]},{"name":"Mesh.015","primitives":[{"attributes":{"POSITION":4,"NORMAL":5,"TEXCOORD_0":6},"indices":7,"material":0}]},{"name":"Mesh.013","primitives":[{"attributes":{"POSITION":8,"NORMAL":9,"TEXCOORD_0":10},"indices":11,"material":1}]},{"name":"Mesh.001","primitives":[{"attributes":{"POSITION":12,"NORMAL":13,"TEXCOORD_0":14},"indices":15,"material":1}]},{"name":"Mesh.002","primitives":[{"attributes":{"POSITION":16,"NORMAL":17,"TEXCOORD_0":18},"indices":19,"material":1}]},{"name":"Mesh.003","primitives":[{"attributes":{"POSITION":20,"NORMAL":21,"TEXCOORD_0":22},"indices":23,"material":1}]},{"name":"Mesh.004","primitives":[{"attributes":{"POSITION":24,"NORMAL":25,"TEXCOORD_0":26},"indices":27,"material":1}]},{"name":"Mesh.005","primitives":[{"attributes":{"POSITION":28,"NORMAL":29,"TEXCOORD_0":30},"indices":31,"material":1}]},{"name":"Mesh.006","primitives":[{"attributes":{"POSITION":32,"NORMAL":33,"TEXCOORD_0":34},"indices":35,"material":1}]},{"name":"Mesh.007","primitives":[{"attributes":{"POSITION":36,"NORMAL":37,"TEXCOORD_0":38},"indices":39,"material":1}]},{"name":"Mesh.008","primitives":[{"attributes":{"POSITION":40,"NORMAL":41,"TEXCOORD_0":42},"indices":43,"material":1}]},{"name":"Mesh.009","primitives":[{"attributes":{"POSITION":44,"NORMAL":45,"TEXCOORD_0":46},"indices":47,"material":1}]},{"name":"Mesh.010","primitives":[{"attributes":{"POSITION":48,"NORMAL":49,"TEXCOORD_0":50},"indices":51,"material":1}]},{"name":"Mesh.011","primitives":[{"attributes":{"POSITION":52,"NORMAL":53,"TEXCOORD_0":54},"indices":55,"material":1}]},{"name":"Mesh.012","primitives":[{"attributes":{"POSITION":56,"NORMAL":57,"TEXCOORD_0":58},"indices":59,"material":1}]},{"name":"Mesh","primitives":[{"attributes":{"POSITION":60,"NORMAL":61,"TEXCOORD_0":62},"indices":63,"material":2}]}],"textures":[{"extensions":{"EXT_texture_webp":{"source":0}},"sampler":0},{"extensions":{},"sampler":0},{"extensions":{"EXT_texture_webp":{"source":0}},"sampler":0},{"extensions":{"EXT_texture_webp":{"source":0}},"sampler":0}],"images":[{"mimeType":"image/webp","name":"PolygonScifiWorlds_Texture_01_A","uri":"PolygonScifiWorlds_Texture_01_A.webp"}],"accessors":[{"bufferView":0,"componentType":5126,"count":240,"max":[1458.7216796875,1458.58544921875,-787.5172119140625],"min":[-1458.44970703125,-1458.5860595703125,-1967.5374755859375],"type":"VEC3"},{"bufferView":1,"componentType":5126,"count":240,"type":"VEC3"},{"bufferView":2,"componentType":5126,"count":240,"type":"VEC2"},{"bufferView":3,"componentType":5123,"count":960,"type":"SCALAR"},{"bufferView":4,"componentType":5126,"count":736,"max":[836.817626953125,836.817626953125,-1962.1158447265625],"min":[-836.817626953125,-836.817626953125,-2235.28564453125],"type":"VEC3"},{"bufferView":5,"componentType":5126,"count":736,"type":"VEC3"},{"bufferView":6,"componentType":5126,"count":736,"type":"VEC2"},{"bufferView":7,"componentType":5123,"count":744,"type":"SCALAR"},{"bufferView":8,"componentType":5126,"count":19148,"max":[1507.71728515625,1459.582763671875,-750.11376953125],"min":[-1507.71728515625,-1459.582763671875,-2004.74072265625],"type":"VEC3"},{"bufferView":9,"componentType":5126,"count":19148,"type":"VEC3"},{"bufferView":10,"componentType":5126,"count":19148,"type":"VEC2"},{"bufferView":11,"componentType":5123,"count":30900,"type":"SCALAR"},{"bufferView":12,"componentType":5126,"count":3268,"max":[-1476.087646484375,-794.364501953125,60.00004959106445],"min":[-1932.52001953125,-1152.8355712890625,-462.6563720703125],"type":"VEC3"},{"bufferView":13,"componentType":5126,"count":3268,"type":"VEC3"},{"bufferView":14,"componentType":5126,"count":3268,"type":"VEC2"},{"bufferView":15,"componentType":5123,"count":5310,"type":"SCALAR"},{"bufferView":16,"componentType":5126,"count":3268,"max":[-794.1595458984375,-1476.2056884765625,60.00004959106445],"min":[-1152.5264892578125,-1932.365234375,-462.6563720703125],"type":"VEC3"},{"bufferView":17,"componentType":5126,"count":3268,"type":"VEC3"},{"bufferView":18,"componentType":5126,"count":3268,"type":"VEC2"},{"bufferView":19,"componentType":5123,"count":5310,"type":"SCALAR"},{"bufferView":20,"componentType":5126,"count":3268,"max":[1152.835693359375,-1476.0875244140625,60.00004959106445],"min":[794.364501953125,-1932.52001953125,-462.6563720703125],"type":"VEC3"},{"bufferView":21,"componentType":5126,"count":3268,"type":"VEC3"},{"bufferView":22,"componentType":5126,"count":3268,"type":"VEC2"},{"bufferView":23,"componentType":5123,"count":5310,"type":"SCALAR"},{"bufferView":24,"componentType":5126,"count":3268,"max":[1932.365234375,-794.1595458984375,60.00004959106445],"min":[1476.205810546875,-1152.5264892578125,-462.6563720703125],"type":"VEC3"},{"bufferView":25,"componentType":5126,"count":3268,"type":"VEC3"},{"bufferView":26,"componentType":5126,"count":3268,"type":"VEC2"},{"bufferView":27,"componentType":5123,"count":5310,"type":"SCALAR"},{"bufferView":28,"componentType":5126,"count":3268,"max":[1932.52001953125,1152.8355712890625,60.00004959106445],"min":[1476.087646484375,794.364501953125,-462.6563720703125],"type":"VEC3"},{"bufferView":29,"componentType":5126,"count":3268,"type":"VEC3"},{"bufferView":30,"componentType":5126,"count":3268,"type":"VEC2"},{"bufferView":31,"componentType":5123,"count":5310,"type":"SCALAR"},{"bufferView":32,"componentType":5126,"count":3268,"max":[1152.5263671875,1932.365234375,60.00004959106445],"min":[794.159423828125,1476.205810546875,-462.6563720703125],"type":"VEC3"},{"bufferView":33,"componentType":5126,"count":3268,"type":"VEC3"},{"bufferView":34,"componentType":5126,"count":3268,"type":"VEC2"},{"bufferView":35,"componentType":5123,"count":5310,"type":"SCALAR"},{"bufferView":36,"componentType":5126,"count":3268,"max":[-1476.205810546875,1152.5264892578125,60.00004959106445],"min":[-1932.365234375,794.1595458984375,-462.6563720703125],"type":"VEC3"},{"bufferView":37,"componentType":5126,"count":3268,"type":"VEC3"},{"bufferView":38,"componentType":5126,"count":3268,"type":"VEC2"},{"bufferView":39,"componentType":5123,"count":5310,"type":"SCALAR"},{"bufferView":40,"componentType":5126,"count":3269,"max":[-794.364501953125,1932.52001953125,60.00004959106445],"min":[-1152.835693359375,1476.087646484375,-462.6563720703125],"type":"VEC3"},{"bufferView":41,"componentType":5126,"count":3269,"type":"VEC3"},{"bufferView":42,"componentType":5126,"count":3269,"type":"VEC2"},{"bufferView":43,"componentType":5123,"count":5310,"type":"SCALAR"},{"bufferView":44,"componentType":5126,"count":540,"max":[1171.78271484375,76.74053955078125,-541.1226806640625],"min":[1077.9825439453125,-77.0135498046875,-748.5291748046875],"type":"VEC3"},{"bufferView":45,"componentType":5126,"count":540,"type":"VEC3"},{"bufferView":46,"componentType":5126,"count":540,"type":"VEC2"},{"bufferView":47,"componentType":5123,"count":876,"type":"SCALAR"},{"bufferView":48,"componentType":5126,"count":540,"max":[76.74053955078125,-1077.9825439453125,-541.1226806640625],"min":[-77.01361083984375,-1171.78271484375,-748.5291748046875],"type":"VEC3"},{"bufferView":49,"componentType":5126,"count":540,"type":"VEC3"},{"bufferView":50,"componentType":5126,"count":540,"type":"VEC2"},{"bufferView":51,"componentType":5123,"count":876,"type":"SCALAR"},{"bufferView":52,"componentType":5126,"count":540,"max":[-1077.9825439453125,77.01361083984375,-541.1226806640625],"min":[-1171.78271484375,-76.7406005859375,-748.5291748046875],"type":"VEC3"},{"bufferView":53,"componentType":5126,"count":540,"type":"VEC3"},{"bufferView":54,"componentType":5126,"count":540,"type":"VEC2"},{"bufferView":55,"componentType":5123,"count":876,"type":"SCALAR"},{"bufferView":56,"componentType":5126,"count":540,"max":[77.01361083984375,1171.78271484375,-541.1226806640625],"min":[-76.74053955078125,1077.9825439453125,-748.5291748046875],"type":"VEC3"},{"bufferView":57,"componentType":5126,"count":540,"type":"VEC3"},{"bufferView":58,"componentType":5126,"count":540,"type":"VEC2"},{"bufferView":59,"componentType":5123,"count":876,"type":"SCALAR"},{"bufferView":60,"componentType":5126,"count":37412,"max":[1750.262939453125,1750.262939453125,60.000030517578125],"min":[-1750.262939453125,-1750.262939453125,-877.72412109375],"type":"VEC3"},{"bufferView":61,"componentType":5126,"count":37412,"type":"VEC3"},{"bufferView":62,"componentType":5126,"count":37412,"type":"VEC2"},{"bufferView":63,"componentType":5123,"count":63564,"type":"SCALAR"}],"bufferViews":[{"buffer":0,"byteLength":2880,"byteOffset":0,"target":34962},{"buffer":0,"byteLength":2880,"byteOffset":2880,"target":34962},{"buffer":0,"byteLength":1920,"byteOffset":5760,"target":34962},{"buffer":0,"byteLength":1920,"byteOffset":7680,"target":34963},{"buffer":0,"byteLength":8832,"byteOffset":9600,"target":34962},{"buffer":0,"byteLength":8832,"byteOffset":18432,"target":34962},{"buffer":0,"byteLength":5888,"byteOffset":27264,"target":34962},{"buffer":0,"byteLength":1488,"byteOffset":33152,"target":34963},{"buffer":0,"byteLength":229776,"byteOffset":34640,"target":34962},{"buffer":0,"byteLength":229776,"byteOffset":264416,"target":34962},{"buffer":0,"byteLength":153184,"byteOffset":494192,"target":34962},{"buffer":0,"byteLength":61800,"byteOffset":647376,"target":34963},{"buffer":0,"byteLength":39216,"byteOffset":709176,"target":34962},{"buffer":0,"byteLength":39216,"byteOffset":748392,"target":34962},{"buffer":0,"byteLength":26144,"byteOffset":787608,"target":34962},{"buffer":0,"byteLength":10620,"byteOffset":813752,"target":34963},{"buffer":0,"byteLength":39216,"byteOffset":824372,"target":34962},{"buffer":0,"byteLength":39216,"byteOffset":863588,"target":34962},{"buffer":0,"byteLength":26144,"byteOffset":902804,"target":34962},{"buffer":0,"byteLength":10620,"byteOffset":928948,"target":34963},{"buffer":0,"byteLength":39216,"byteOffset":939568,"target":34962},{"buffer":0,"byteLength":39216,"byteOffset":978784,"target":34962},{"buffer":0,"byteLength":26144,"byteOffset":1018000,"target":34962},{"buffer":0,"byteLength":10620,"byteOffset":1044144,"target":34963},{"buffer":0,"byteLength":39216,"byteOffset":1054764,"target":34962},{"buffer":0,"byteLength":39216,"byteOffset":1093980,"target":34962},{"buffer":0,"byteLength":26144,"byteOffset":1133196,"target":34962},{"buffer":0,"byteLength":10620,"byteOffset":1159340,"target":34963},{"buffer":0,"byteLength":39216,"byteOffset":1169960,"target":34962},{"buffer":0,"byteLength":39216,"byteOffset":1209176,"target":34962},{"buffer":0,"byteLength":26144,"byteOffset":1248392,"target":34962},{"buffer":0,"byteLength":10620,"byteOffset":1274536,"target":34963},{"buffer":0,"byteLength":39216,"byteOffset":1285156,"target":34962},{"buffer":0,"byteLength":39216,"byteOffset":1324372,"target":34962},{"buffer":0,"byteLength":26144,"byteOffset":1363588,"target":34962},{"buffer":0,"byteLength":10620,"byteOffset":1389732,"target":34963},{"buffer":0,"byteLength":39216,"byteOffset":1400352,"target":34962},{"buffer":0,"byteLength":39216,"byteOffset":1439568,"target":34962},{"buffer":0,"byteLength":26144,"byteOffset":1478784,"target":34962},{"buffer":0,"byteLength":10620,"byteOffset":1504928,"target":34963},{"buffer":0,"byteLength":39228,"byteOffset":1515548,"target":34962},{"buffer":0,"byteLength":39228,"byteOffset":1554776,"target":34962},{"buffer":0,"byteLength":26152,"byteOffset":1594004,"target":34962},{"buffer":0,"byteLength":10620,"byteOffset":1620156,"target":34963},{"buffer":0,"byteLength":6480,"byteOffset":1630776,"target":34962},{"buffer":0,"byteLength":6480,"byteOffset":1637256,"target":34962},{"buffer":0,"byteLength":4320,"byteOffset":1643736,"target":34962},{"buffer":0,"byteLength":1752,"byteOffset":1648056,"target":34963},{"buffer":0,"byteLength":6480,"byteOffset":1649808,"target":34962},{"buffer":0,"byteLength":6480,"byteOffset":1656288,"target":34962},{"buffer":0,"byteLength":4320,"byteOffset":1662768,"target":34962},{"buffer":0,"byteLength":1752,"byteOffset":1667088,"target":34963},{"buffer":0,"byteLength":6480,"byteOffset":1668840,"target":34962},{"buffer":0,"byteLength":6480,"byteOffset":1675320,"target":34962},{"buffer":0,"byteLength":4320,"byteOffset":1681800,"target":34962},{"buffer":0,"byteLength":1752,"byteOffset":1686120,"target":34963},{"buffer":0,"byteLength":6480,"byteOffset":1687872,"target":34962},{"buffer":0,"byteLength":6480,"byteOffset":1694352,"target":34962},{"buffer":0,"byteLength":4320,"byteOffset":1700832,"target":34962},{"buffer":0,"byteLength":1752,"byteOffset":1705152,"target":34963},{"buffer":0,"byteLength":448944,"byteOffset":1706904,"target":34962},{"buffer":0,"byteLength":448944,"byteOffset":2155848,"target":34962},{"buffer":0,"byteLength":299296,"byteOffset":2604792,"target":34962},{"buffer":0,"byteLength":127128,"byteOffset":2904088,"target":34963}],"samplers":[{"magFilter":9729,"minFilter":9987}],"buffers":[{"byteLength":3031216,"uri":"worlds_SM_Bld_Pod_Research_05.bin"}]}