{"asset":{"generator":"Khronos glTF Blender I/O v4.4.55","version":"2.0"},"extensionsUsed":["EXT_texture_webp"],"extensionsRequired":["EXT_texture_webp"],"scene":0,"scenes":[{"name":"Scene","nodes":[2]}],"nodes":[{"mesh":0,"name":"SM_Bld_Pod_Corridor_Square_04_Base_01"},{"mesh":1,"name":"SM_Bld_Pod_Corridor_Square_04_Glass_01"},{"children":[0,1],"mesh":2,"name":"SM_Bld_Pod_Corridor_Square_04","rotation":[0.7071068286895752,0,0,0.7071068286895752],"scale":[0.009999999776482582,0.009999999776482582,0.009999999776482582]}],"materials":[{"doubleSided":true,"name":"SciFi_Planets_POD_SHD","pbrMetallicRoughness":{"baseColorTexture":{"index":1},"metallicFactor":0,"roughnessFactor":0.5527864098548889}},{"alphaMode":"MASK","doubleSided":true,"name":"Glass_MAT","pbrMetallicRoughness":{"baseColorFactor":[1,1,1,0.15662652254104614],"baseColorTexture":{"index":2},"metallicFactor":0,"roughnessFactor":0.5527864098548889},"alphaCutoff":0.5}],"meshes":[{"name":"Mesh.002","primitives":[{"attributes":{"POSITION":0,"NORMAL":1,"TEXCOORD_0":2},"indices":3,"material":0}]},{"name":"Mesh.001","primitives":[{"attributes":{"POSITION":4,"NORMAL":5,"TEXCOORD_0":6},"indices":7,"material":1}]},{"name":"Mesh","primitives":[{"attributes":{"POSITION":8,"NORMAL":9,"TEXCOORD_0":10},"indices":11,"material":0}]}],"textures":[{"extensions":{},"sampler":0},{"extensions":{"EXT_texture_webp":{"source":0}},"sampler":0},{"extensions":{"EXT_texture_webp":{"source":0}},"sampler":0}],"images":[{"mimeType":"image/webp","name":"PolygonScifiWorlds_Texture_01_A","uri":"PolygonScifiWorlds_Texture_01_A.webp"}],"accessors":[{"bufferView":0,"componentType":5126,"count":640,"max":[136.75146484375,-62.47802734375,218.6964569091797],"min":[-138.49755859375,-937.52197265625,32.084014892578125],"type":"VEC3"},{"bufferView":1,"componentType":5126,"count":640,"type":"VEC3"},{"bufferView":2,"componentType":5126,"count":640,"type":"VEC2"},{"bufferView":3,"componentType":5123,"count":1164,"type":"SCALAR"},{"bufferView":4,"componentType":5126,"count":16,"max":[226.1744384765625,-117.7174072265625,-81.29119873046875],"min":[-226.1744384765625,-867.68408203125,-286.6075439453125],"type":"VEC3"},{"bufferView":5,"componentType":5126,"count":16,"type":"VEC3"},{"bufferView":6,"componentType":5126,"count":16,"type":"VEC2"},{"bufferView":7,"componentType":5123,"count":24,"type":"SCALAR"},{"bufferView":8,"componentType":5126,"count":7217,"max":[258.739990234375,0,82.88864135742188],"min":[-258.739990234375,-1000,-408.1980285644531],"type":"VEC3"},{"bufferView":9,"componentType":5126,"count":7217,"type":"VEC3"},{"bufferView":10,"componentType":5126,"count":7217,"type":"VEC2"},{"bufferView":11,"componentType":5123,"count":11562,"type":"SCALAR"}],"bufferViews":[{"buffer":0,"byteLength":7680,"byteOffset":0,"target":34962},{"buffer":0,"byteLength":7680,"byteOffset":7680,"target":34962},{"buffer":0,"byteLength":5120,"byteOffset":15360,"target":34962},{"buffer":0,"byteLength":2328,"byteOffset":20480,"target":34963},{"buffer":0,"byteLength":192,"byteOffset":22808,"target":34962},{"buffer":0,"byteLength":192,"byteOffset":23000,"target":34962},{"buffer":0,"byteLength":128,"byteOffset":23192,"target":34962},{"buffer":0,"byteLength":48,"byteOffset":23320,"target":34963},{"buffer":0,"byteLength":86604,"byteOffset":23368,"target":34962},{"buffer":0,"byteLength":86604,"byteOffset":109972,"target":34962},{"buffer":0,"byteLength":57736,"byteOffset":196576,"target":34962},{"buffer":0,"byteLength":23124,"byteOffset":254312,"target":34963}],"samplers":[{"magFilter":9729,"minFilter":9987}],"buffers":[{"byteLength":277436,"uri":"worlds_SM_Bld_Pod_Corridor_Square_04.bin"}]}