{"asset":{"generator":"Khronos glTF Blender I/O v4.4.55","version":"2.0"},"extensionsUsed":["EXT_texture_webp"],"extensionsRequired":["EXT_texture_webp"],"scene":0,"scenes":[{"name":"Scene","nodes":[5]}],"nodes":[{"mesh":0,"name":"SM_Bld_Corp_Loading_Bay_01_Arm_01_Lifter_01"},{"children":[0],"mesh":1,"name":"SM_Bld_Corp_Loading_Bay_01_Arm_01"},{"mesh":2,"name":"SM_Bld_Corp_Loading_Bay_01_Cargo_Door_01"},{"mesh":3,"name":"SM_Bld_Corp_Loading_Bay_01_Glass_01"},{"mesh":4,"name":"SM_Bld_Corp_Loading_Bay_01_Lift_01"},{"children":[1,2,3,4],"mesh":5,"name":"SM_Bld_Corp_Loading_Bay_01","rotation":[0.7071068286895752,0,0,0.7071068286895752],"scale":[0.009999999776482582,0.009999999776482582,0.009999999776482582]}],"materials":[{"doubleSided":true,"name":"SciFi_Planets_SHD","pbrMetallicRoughness":{"baseColorTexture":{"index":1},"metallicFactor":0,"roughnessFactor":0.5527864098548889}},{"alphaMode":"MASK","doubleSided":true,"name":"Glass_MAT","pbrMetallicRoughness":{"baseColorFactor":[1,1,1,0.15662652254104614],"baseColorTexture":{"index":2},"metallicFactor":0,"roughnessFactor":0.5527864098548889},"alphaCutoff":0.5}],"meshes":[{"name":"Mesh.005","primitives":[{"attributes":{"POSITION":0,"NORMAL":1,"TEXCOORD_0":2},"indices":3,"material":0}]},{"name":"Mesh.004","primitives":[{"attributes":{"POSITION":4,"NORMAL":5,"TEXCOORD_0":6},"indices":7,"material":0}]},{"name":"Mesh.003","primitives":[{"attributes":{"POSITION":8,"NORMAL":9,"TEXCOORD_0":10},"indices":11,"material":0}]},{"name":"Mesh.002","primitives":[{"attributes":{"POSITION":12,"NORMAL":13,"TEXCOORD_0":14},"indices":15,"material":1}]},{"name":"Mesh.001","primitives":[{"attributes":{"POSITION":16,"NORMAL":17,"TEXCOORD_0":18},"indices":19,"material":0}]},{"name":"Mesh","primitives":[{"attributes":{"POSITION":20,"NORMAL":21,"TEXCOORD_0":22},"indices":23,"material":0}]}],"textures":[{"extensions":{},"sampler":0},{"extensions":{"EXT_texture_webp":{"source":0}},"sampler":0},{"extensions":{"EXT_texture_webp":{"source":0}},"sampler":0}],"images":[{"mimeType":"image/webp","name":"PolygonScifiWorlds_Texture_01_A","uri":"PolygonScifiWorlds_Texture_01_A.webp"}],"accessors":[{"bufferView":0,"componentType":5126,"count":502,"max":[97.3261947631836,1137.9146728515625,-460.2923583984375],"min":[-97.32601165771484,943.2625732421875,-579.505126953125],"type":"VEC3"},{"bufferView":1,"componentType":5126,"count":502,"type":"VEC3"},{"bufferView":2,"componentType":5126,"count":502,"type":"VEC2"},{"bufferView":3,"componentType":5123,"count":840,"type":"SCALAR"},{"bufferView":4,"componentType":5126,"count":1997,"max":[266.78515625,1365.8489990234375,-488.4884338378906],"min":[-266.78515625,-883.77783203125,-776.1416015625],"type":"VEC3"},{"bufferView":5,"componentType":5126,"count":1997,"type":"VEC3"},{"bufferView":6,"componentType":5126,"count":1997,"type":"VEC2"},{"bufferView":7,"componentType":5123,"count":3252,"type":"SCALAR"},{"bufferView":8,"componentType":5126,"count":124,"max":[217.99078369140625,114.7998046875,-188.62220764160156],"min":[66.69384002685547,81.99710083007812,-370.4520568847656],"type":"VEC3"},{"bufferView":9,"componentType":5126,"count":124,"type":"VEC3"},{"bufferView":10,"componentType":5126,"count":124,"type":"VEC2"},{"bufferView":11,"componentType":5123,"count":204,"type":"SCALAR"},{"bufferView":12,"componentType":5126,"count":24,"max":[-16.03924560546875,97.9364013671875,-304.111083984375],"min":[-242.90472412109375,92.9195556640625,-382.76824951171875],"type":"VEC3"},{"bufferView":13,"componentType":5126,"count":24,"type":"VEC3"},{"bufferView":14,"componentType":5126,"count":24,"type":"VEC2"},{"bufferView":15,"componentType":5123,"count":36,"type":"SCALAR"},{"bufferView":16,"componentType":5126,"count":230,"max":[342.068359375,68.62893676757812,168.5947723388672],"min":[-4.76837158203125e-07,-132.73219299316406,-19.219573974609375],"type":"VEC3"},{"bufferView":17,"componentType":5126,"count":230,"type":"VEC3"},{"bufferView":18,"componentType":5126,"count":230,"type":"VEC2"},{"bufferView":19,"componentType":5123,"count":444,"type":"SCALAR"},{"bufferView":20,"componentType":5126,"count":4569,"max":[429.8564453125,1178.5941162109375,31.412410736083984],"min":[-429.8564453125,-1148.43408203125,-704.5879516601562],"type":"VEC3"},{"bufferView":21,"componentType":5126,"count":4569,"type":"VEC3"},{"bufferView":22,"componentType":5126,"count":4569,"type":"VEC2"},{"bufferView":23,"componentType":5123,"count":7344,"type":"SCALAR"}],"bufferViews":[{"buffer":0,"byteLength":6024,"byteOffset":0,"target":34962},{"buffer":0,"byteLength":6024,"byteOffset":6024,"target":34962},{"buffer":0,"byteLength":4016,"byteOffset":12048,"target":34962},{"buffer":0,"byteLength":1680,"byteOffset":16064,"target":34963},{"buffer":0,"byteLength":23964,"byteOffset":17744,"target":34962},{"buffer":0,"byteLength":23964,"byteOffset":41708,"target":34962},{"buffer":0,"byteLength":15976,"byteOffset":65672,"target":34962},{"buffer":0,"byteLength":6504,"byteOffset":81648,"target":34963},{"buffer":0,"byteLength":1488,"byteOffset":88152,"target":34962},{"buffer":0,"byteLength":1488,"byteOffset":89640,"target":34962},{"buffer":0,"byteLength":992,"byteOffset":91128,"target":34962},{"buffer":0,"byteLength":408,"byteOffset":92120,"target":34963},{"buffer":0,"byteLength":288,"byteOffset":92528,"target":34962},{"buffer":0,"byteLength":288,"byteOffset":92816,"target":34962},{"buffer":0,"byteLength":192,"byteOffset":93104,"target":34962},{"buffer":0,"byteLength":72,"byteOffset":93296,"target":34963},{"buffer":0,"byteLength":2760,"byteOffset":93368,"target":34962},{"buffer":0,"byteLength":2760,"byteOffset":96128,"target":34962},{"buffer":0,"byteLength":1840,"byteOffset":98888,"target":34962},{"buffer":0,"byteLength":888,"byteOffset":100728,"target":34963},{"buffer":0,"byteLength":54828,"byteOffset":101616,"target":34962},{"buffer":0,"byteLength":54828,"byteOffset":156444,"target":34962},{"buffer":0,"byteLength":36552,"byteOffset":211272,"target":34962},{"buffer":0,"byteLength":14688,"byteOffset":247824,"target":34963}],"samplers":[{"magFilter":9729,"minFilter":9987}],"buffers":[{"byteLength":262512,"uri":"worlds_SM_Bld_Corp_Loading_Bay_01.bin"}]}