{"asset":{"generator":"Khronos glTF Blender I/O v4.4.55","version":"2.0"},"extensionsUsed":["EXT_texture_webp"],"extensionsRequired":["EXT_texture_webp"],"scene":0,"scenes":[{"name":"Scene","nodes":[0]}],"nodes":[{"mesh":0,"name":"SM_Bld_Greeble_06","rotation":[0.7071068286895752,0,0,0.7071068286895752],"scale":[0.009999999776482582,0.009999999776482582,0.009999999776482582]}],"materials":[{"doubleSided":true,"name":"SciFiCrate_MAT","pbrMetallicRoughness":{"baseColorTexture":{"index":1},"metallicFactor":0,"roughnessFactor":0.5527864098548889}}],"meshes":[{"name":"Mesh","primitives":[{"attributes":{"POSITION":0,"NORMAL":1,"TEXCOORD_0":2},"indices":3,"material":0}]}],"textures":[{"extensions":{},"sampler":0},{"extensions":{"EXT_texture_webp":{"source":0}},"sampler":0}],"images":[{"mimeType":"image/webp","name":"PolygonScifiWorlds_Texture_01_A","uri":"PolygonScifiWorlds_Texture_01_A.webp"}],"accessors":[{"bufferView":0,"componentType":5126,"count":900,"max":[24.19921875,35.10545349121094,72.012451171875],"min":[-24.19921875,0,-72.012451171875],"type":"VEC3"},{"bufferView":1,"componentType":5126,"count":900,"type":"VEC3"},{"bufferView":2,"componentType":5126,"count":900,"type":"VEC2"},{"bufferView":3,"componentType":5123,"count":1548,"type":"SCALAR"}],"bufferViews":[{"buffer":0,"byteLength":10800,"byteOffset":0,"target":34962},{"buffer":0,"byteLength":10800,"byteOffset":10800,"target":34962},{"buffer":0,"byteLength":7200,"byteOffset":21600,"target":34962},{"buffer":0,"byteLength":3096,"byteOffset":28800,"target":34963}],"samplers":[{"magFilter":9729,"minFilter":9987}],"buffers":[{"byteLength":31896,"uri":"worlds_SM_Bld_Greeble_06.bin"}]}