{
	"asset":{
		"generator":"Khronos glTF Blender I/O v4.4.55",
		"version":"2.0"
	},
	"extensionsUsed":[
		"EXT_texture_webp"
	],
	"extensionsRequired":[
		"EXT_texture_webp"
	],
	"scene":0,
	"scenes":[
		{
			"name":"Scene",
			"nodes":[
				0
			]
		}
	],
	"nodes":[
		{
			"mesh":0,
			"name":"SM_Prop_Billboard_04",
			"rotation":[
				0.7071068286895752,
				0,
				0,
				0.7071068286895752
			],
			"scale":[
				0.009999999776482582,
				0.009999999776482582,
				0.009999999776482582
			]
		}
	],
	"materials":[
		{
			"doubleSided":true,
			"name":"ScifiMat1",
			"pbrMetallicRoughness":{
				"baseColorTexture":{
					"index":0
				},
				"metallicFactor":0,
				"roughnessFactor":0.5527864098548889
			}
		},
		{
			"doubleSided":true,
			"name":"lambert9",
			"pbrMetallicRoughness":{
				"baseColorTexture":{
					"index":1
				},
				"metallicFactor":0,
				"roughnessFactor":0.5527864098548889
			}
		}
	],
	"meshes":[
		{
			"name":"Mesh",
			"primitives":[
				{
					"attributes":{
						"POSITION":0,
						"NORMAL":1,
						"TEXCOORD_0":2
					},
					"indices":3,
					"material":0
				},
				{
					"attributes":{
						"POSITION":4,
						"NORMAL":5,
						"TEXCOORD_0":6
					},
					"indices":7,
					"material":1
				}
			]
		}
	],
	"textures":[
		{
			"extensions":{
				"EXT_texture_webp":{
					"source":0
				}
			},
			"sampler":0
		},
		{
			"extensions":{
				"EXT_texture_webp":{
					"source":0
				}
			},
			"sampler":0
		}
	],
	"images":[
		{
			"mimeType":"image/webp",
			"name":"PolygonScifiWorlds_Texture_01_A",
			"uri":"PolygonScifiWorlds_Texture_01_A.webp"
		}
	],
	"accessors":[
		{
			"bufferView":0,
			"componentType":5126,
			"count":854,
			"max":[
				310.391845703125,
				16.8245849609375,
				198.22967529296875
			],
			"min":[
				-310.391845703125,
				-16.8245849609375,
				-242.9859619140625
			],
			"type":"VEC3"
		},
		{
			"bufferView":1,
			"componentType":5126,
			"count":854,
			"type":"VEC3"
		},
		{
			"bufferView":2,
			"componentType":5126,
			"count":854,
			"type":"VEC2"
		},
		{
			"bufferView":3,
			"componentType":5123,
			"count":1518,
			"type":"SCALAR"
		},
		{
			"bufferView":4,
			"componentType":5126,
			"count":8,
			"max":[
				298.862060546875,
				8.419921875,
				180.04248046875
			],
			"min":[
				-298.862060546875,
				-8.4197998046875,
				-173.1050262451172
			],
			"type":"VEC3"
		},
		{
			"bufferView":5,
			"componentType":5126,
			"count":8,
			"type":"VEC3"
		},
		{
			"bufferView":6,
			"componentType":5126,
			"count":8,
			"type":"VEC2"
		},
		{
			"bufferView":7,
			"componentType":5123,
			"count":12,
			"type":"SCALAR"
		}
	],
	"bufferViews":[
		{
			"buffer":0,
			"byteLength":10248,
			"byteOffset":0,
			"target":34962
		},
		{
			"buffer":0,
			"byteLength":10248,
			"byteOffset":10248,
			"target":34962
		},
		{
			"buffer":0,
			"byteLength":6832,
			"byteOffset":20496,
			"target":34962
		},
		{
			"buffer":0,
			"byteLength":3036,
			"byteOffset":27328,
			"target":34963
		},
		{
			"buffer":0,
			"byteLength":96,
			"byteOffset":30364,
			"target":34962
		},
		{
			"buffer":0,
			"byteLength":96,
			"byteOffset":30460,
			"target":34962
		},
		{
			"buffer":0,
			"byteLength":64,
			"byteOffset":30556,
			"target":34962
		},
		{
			"buffer":0,
			"byteLength":24,
			"byteOffset":30620,
			"target":34963
		}
	],
	"samplers":[
		{
			"magFilter":9729,
			"minFilter":9987
		}
	],
	"buffers":[
		{
			"byteLength":30644,
			"uri":"worlds_SM_Prop_Billboard_04.bin"
		}
	]
}
