{"asset":{"generator":"Khronos glTF Blender I/O v4.4.55","version":"2.0"},"extensionsUsed":["EXT_texture_webp"],"extensionsRequired":["EXT_texture_webp"],"scene":0,"scenes":[{"name":"Scene","nodes":[10]}],"nodes":[{"mesh":0,"name":"SM_Veh_HoverTank_01_HoverPad_fl"},{"mesh":1,"name":"SM_Veh_HoverTank_01_HoverPad_fr"},{"mesh":2,"name":"SM_Veh_HoverTank_01_HoverPad_ml"},{"mesh":3,"name":"SM_Veh_HoverTank_01_HoverPad_mr"},{"mesh":4,"name":"SM_Veh_HoverTank_01_HoverPad_rl"},{"mesh":5,"name":"SM_Veh_HoverTank_01_HoverPad_rr"},{"mesh":6,"name":"SM_Veh_HoverTank_01_Barrell_01.001"},{"children":[6],"mesh":7,"name":"SM_Veh_HoverTank_01_Barrell_01"},{"mesh":8,"name":"SM_Veh_HoverTank_01_Hatch_01"},{"children":[7,8],"mesh":9,"name":"SM_Veh_HoverTank_01_Turret_01"},{"children":[0,1,2,3,4,5,9],"mesh":10,"name":"SM_Veh_HoverTank_01","rotation":[0.7071068286895752,0,0,0.7071068286895752],"scale":[0.009999999776482582,0.009999999776482582,0.009999999776482582]}],"materials":[{"doubleSided":true,"name":"SciFi_Planets_SHD","pbrMetallicRoughness":{"baseColorTexture":{"index":1},"metallicFactor":0,"roughnessFactor":0.5527864098548889}}],"meshes":[{"name":"Mesh.010","primitives":[{"attributes":{"POSITION":0,"NORMAL":1,"TEXCOORD_0":2},"indices":3,"material":0}]},{"name":"Mesh.005","primitives":[{"attributes":{"POSITION":4,"NORMAL":5,"TEXCOORD_0":6},"indices":7,"material":0}]},{"name":"Mesh.009","primitives":[{"attributes":{"POSITION":8,"NORMAL":9,"TEXCOORD_0":10},"indices":11,"material":0}]},{"name":"Mesh.006","primitives":[{"attributes":{"POSITION":12,"NORMAL":13,"TEXCOORD_0":14},"indices":15,"material":0}]},{"name":"Mesh.008","primitives":[{"attributes":{"POSITION":16,"NORMAL":17,"TEXCOORD_0":18},"indices":11,"material":0}]},{"name":"Mesh.007","primitives":[{"attributes":{"POSITION":19,"NORMAL":20,"TEXCOORD_0":21},"indices":15,"material":0}]},{"name":"Mesh.004","primitives":[{"attributes":{"POSITION":22,"NORMAL":23,"TEXCOORD_0":24},"indices":25,"material":0}]},{"name":"Mesh.003","primitives":[{"attributes":{"POSITION":26,"NORMAL":27,"TEXCOORD_0":28},"indices":29,"material":0}]},{"name":"Mesh.002","primitives":[{"attributes":{"POSITION":30,"NORMAL":31,"TEXCOORD_0":32},"indices":33,"material":0}]},{"name":"Mesh.001","primitives":[{"attributes":{"POSITION":34,"NORMAL":35,"TEXCOORD_0":36},"indices":37,"material":0}]},{"name":"Mesh","primitives":[{"attributes":{"POSITION":38,"NORMAL":39,"TEXCOORD_0":40},"indices":41,"material":0}]}],"textures":[{"extensions":{},"sampler":0},{"extensions":{"EXT_texture_webp":{"source":0}},"sampler":0}],"images":[{"mimeType":"image/webp","name":"PolygonScifiWorlds_Texture_01_A","uri":"PolygonScifiWorlds_Texture_01_A.webp"}],"accessors":[{"bufferView":0,"componentType":5126,"count":529,"max":[207.21875,244.4266357421875,126.2404556274414],"min":[112.7890625,157.8863525390625,26.91722869873047],"type":"VEC3"},{"bufferView":1,"componentType":5126,"count":529,"type":"VEC3"},{"bufferView":2,"componentType":5126,"count":529,"type":"VEC2"},{"bufferView":3,"componentType":5123,"count":792,"type":"SCALAR"},{"bufferView":4,"componentType":5126,"count":529,"max":[-112.7890625,244.4266357421875,126.2404556274414],"min":[-207.21875,157.8863525390625,26.91722869873047],"type":"VEC3"},{"bufferView":5,"componentType":5126,"count":529,"type":"VEC3"},{"bufferView":6,"componentType":5126,"count":529,"type":"VEC2"},{"bufferView":7,"componentType":5123,"count":792,"type":"SCALAR"},{"bufferView":8,"componentType":5126,"count":529,"max":[237.8896484375,-43.6705322265625,126.2404556274414],"min":[143.50390625,-130.210693359375,26.91722869873047],"type":"VEC3"},{"bufferView":9,"componentType":5126,"count":529,"type":"VEC3"},{"bufferView":10,"componentType":5126,"count":529,"type":"VEC2"},{"bufferView":11,"componentType":5123,"count":792,"type":"SCALAR"},{"bufferView":12,"componentType":5126,"count":529,"max":[-143.5712890625,-43.6705322265625,126.2404556274414],"min":[-238.00048828125,-130.210693359375,26.91722869873047],"type":"VEC3"},{"bufferView":13,"componentType":5126,"count":529,"type":"VEC3"},{"bufferView":14,"componentType":5126,"count":529,"type":"VEC2"},{"bufferView":15,"componentType":5123,"count":792,"type":"SCALAR"},{"bufferView":16,"componentType":5126,"count":529,"max":[237.8896484375,-190.4283447265625,126.2404556274414],"min":[143.50390625,-276.9686279296875,26.91722869873047],"type":"VEC3"},{"bufferView":17,"componentType":5126,"count":529,"type":"VEC3"},{"bufferView":18,"componentType":5126,"count":529,"type":"VEC2"},{"bufferView":19,"componentType":5126,"count":529,"max":[-143.5712890625,-190.4283447265625,126.2404556274414],"min":[-238.00048828125,-276.9686279296875,26.91722869873047],"type":"VEC3"},{"bufferView":20,"componentType":5126,"count":529,"type":"VEC3"},{"bufferView":21,"componentType":5126,"count":529,"type":"VEC2"},{"bufferView":22,"componentType":5126,"count":344,"max":[25.43359375,417.30078125,-109.06160736083984],"min":[-25.43359375,204.0146484375,-159.92892456054688],"type":"VEC3"},{"bufferView":23,"componentType":5126,"count":344,"type":"VEC3"},{"bufferView":24,"componentType":5126,"count":344,"type":"VEC2"},{"bufferView":25,"componentType":5123,"count":630,"type":"SCALAR"},{"bufferView":26,"componentType":5126,"count":732,"max":[32.4189453125,365.71923828125,-102.61782836914062],"min":[-32.4189453125,-62.79541015625,-187.596435546875],"type":"VEC3"},{"bufferView":27,"componentType":5126,"count":732,"type":"VEC3"},{"bufferView":28,"componentType":5126,"count":732,"type":"VEC2"},{"bufferView":29,"componentType":5123,"count":1230,"type":"SCALAR"},{"bufferView":30,"componentType":5126,"count":384,"max":[-4.3466796875,-171.6474609375,-188.08303833007812],"min":[-103.603515625,-270.904296875,-203.21896362304688],"type":"VEC3"},{"bufferView":31,"componentType":5126,"count":384,"type":"VEC3"},{"bufferView":32,"componentType":5126,"count":384,"type":"VEC2"},{"bufferView":33,"componentType":5123,"count":684,"type":"SCALAR"},{"bufferView":34,"componentType":5126,"count":3669,"max":[172.3173828125,92.40283203125,-93.59994506835938],"min":[-172.3173828125,-351.60498046875,-276.9442138671875],"type":"VEC3"},{"bufferView":35,"componentType":5126,"count":3669,"type":"VEC3"},{"bufferView":36,"componentType":5126,"count":3669,"type":"VEC2"},{"bufferView":37,"componentType":5123,"count":6084,"type":"SCALAR"},{"bufferView":38,"componentType":5126,"count":10887,"max":[294.74658203125,443.838623046875,118.11808013916016],"min":[-294.74658203125,-443.8388671875,-118.11807250976562],"type":"VEC3"},{"bufferView":39,"componentType":5126,"count":10887,"type":"VEC3"},{"bufferView":40,"componentType":5126,"count":10887,"type":"VEC2"},{"bufferView":41,"componentType":5123,"count":17922,"type":"SCALAR"}],"bufferViews":[{"buffer":0,"byteLength":6348,"byteOffset":0,"target":34962},{"buffer":0,"byteLength":6348,"byteOffset":6348,"target":34962},{"buffer":0,"byteLength":4232,"byteOffset":12696,"target":34962},{"buffer":0,"byteLength":1584,"byteOffset":16928,"target":34963},{"buffer":0,"byteLength":6348,"byteOffset":18512,"target":34962},{"buffer":0,"byteLength":6348,"byteOffset":24860,"target":34962},{"buffer":0,"byteLength":4232,"byteOffset":31208,"target":34962},{"buffer":0,"byteLength":1584,"byteOffset":35440,"target":34963},{"buffer":0,"byteLength":6348,"byteOffset":37024,"target":34962},{"buffer":0,"byteLength":6348,"byteOffset":43372,"target":34962},{"buffer":0,"byteLength":4232,"byteOffset":49720,"target":34962},{"buffer":0,"byteLength":1584,"byteOffset":53952,"target":34963},{"buffer":0,"byteLength":6348,"byteOffset":55536,"target":34962},{"buffer":0,"byteLength":6348,"byteOffset":61884,"target":34962},{"buffer":0,"byteLength":4232,"byteOffset":68232,"target":34962},{"buffer":0,"byteLength":1584,"byteOffset":72464,"target":34963},{"buffer":0,"byteLength":6348,"byteOffset":74048,"target":34962},{"buffer":0,"byteLength":6348,"byteOffset":80396,"target":34962},{"buffer":0,"byteLength":4232,"byteOffset":86744,"target":34962},{"buffer":0,"byteLength":6348,"byteOffset":90976,"target":34962},{"buffer":0,"byteLength":6348,"byteOffset":97324,"target":34962},{"buffer":0,"byteLength":4232,"byteOffset":103672,"target":34962},{"buffer":0,"byteLength":4128,"byteOffset":107904,"target":34962},{"buffer":0,"byteLength":4128,"byteOffset":112032,"target":34962},{"buffer":0,"byteLength":2752,"byteOffset":116160,"target":34962},{"buffer":0,"byteLength":1260,"byteOffset":118912,"target":34963},{"buffer":0,"byteLength":8784,"byteOffset":120172,"target":34962},{"buffer":0,"byteLength":8784,"byteOffset":128956,"target":34962},{"buffer":0,"byteLength":5856,"byteOffset":137740,"target":34962},{"buffer":0,"byteLength":2460,"byteOffset":143596,"target":34963},{"buffer":0,"byteLength":4608,"byteOffset":146056,"target":34962},{"buffer":0,"byteLength":4608,"byteOffset":150664,"target":34962},{"buffer":0,"byteLength":3072,"byteOffset":155272,"target":34962},{"buffer":0,"byteLength":1368,"byteOffset":158344,"target":34963},{"buffer":0,"byteLength":44028,"byteOffset":159712,"target":34962},{"buffer":0,"byteLength":44028,"byteOffset":203740,"target":34962},{"buffer":0,"byteLength":29352,"byteOffset":247768,"target":34962},{"buffer":0,"byteLength":12168,"byteOffset":277120,"target":34963},{"buffer":0,"byteLength":130644,"byteOffset":289288,"target":34962},{"buffer":0,"byteLength":130644,"byteOffset":419932,"target":34962},{"buffer":0,"byteLength":87096,"byteOffset":550576,"target":34962},{"buffer":0,"byteLength":35844,"byteOffset":637672,"target":34963}],"samplers":[{"magFilter":9729,"minFilter":9987}],"buffers":[{"byteLength":673516,"uri":"worlds_SM_Veh_HoverTank_01.bin"}]}