{"asset":{"generator":"Khronos glTF Blender I/O v4.4.55","version":"2.0"},"extensionsUsed":["EXT_texture_webp"],"extensionsRequired":["EXT_texture_webp"],"scene":0,"scenes":[{"name":"Scene","nodes":[1]}],"nodes":[{"mesh":0,"name":"SM_Bld_Pod_Corridor_Round_End_01_Glass_01"},{"children":[0],"mesh":1,"name":"SM_Bld_Pod_Corridor_Round_End_01","rotation":[0.7071068286895752,0,0,0.7071068286895752],"scale":[0.009999999776482582,0.009999999776482582,0.009999999776482582]}],"materials":[{"alphaMode":"MASK","doubleSided":true,"name":"Glass_MAT","pbrMetallicRoughness":{"baseColorFactor":[1,1,1,0.15662652254104614],"baseColorTexture":{"index":0},"metallicFactor":0,"roughnessFactor":0.5527864098548889},"alphaCutoff":0.5},{"doubleSided":true,"name":"SciFi_Planets_POD_SHD","pbrMetallicRoughness":{"baseColorTexture":{"index":2},"metallicFactor":0,"roughnessFactor":0.5527864098548889}}],"meshes":[{"name":"Mesh.001","primitives":[{"attributes":{"POSITION":0,"NORMAL":1,"TEXCOORD_0":2},"indices":3,"material":0}]},{"name":"Mesh","primitives":[{"attributes":{"POSITION":4,"NORMAL":5,"TEXCOORD_0":6},"indices":7,"material":1}]}],"textures":[{"extensions":{"EXT_texture_webp":{"source":0}},"sampler":0},{"extensions":{},"sampler":0},{"extensions":{"EXT_texture_webp":{"source":0}},"sampler":0}],"images":[{"mimeType":"image/webp","name":"PolygonScifiWorlds_Texture_01_A","uri":"PolygonScifiWorlds_Texture_01_A.webp"}],"accessors":[{"bufferView":0,"componentType":5126,"count":36,"max":[127.71810913085938,6.7004852294921875,-36.73390197753906],"min":[-127.71820068359375,-6.7004852294921875,-284.71661376953125],"type":"VEC3"},{"bufferView":1,"componentType":5126,"count":36,"type":"VEC3"},{"bufferView":2,"componentType":5126,"count":36,"type":"VEC2"},{"bufferView":3,"componentType":5123,"count":96,"type":"SCALAR"},{"bufferView":4,"componentType":5126,"count":1440,"max":[282.25299072265625,32.99756622314453,107.71337890625],"min":[-282.2530517578125,-60.9354248046875,-429.163818359375],"type":"VEC3"},{"bufferView":5,"componentType":5126,"count":1440,"type":"VEC3"},{"bufferView":6,"componentType":5126,"count":1440,"type":"VEC2"},{"bufferView":7,"componentType":5123,"count":2616,"type":"SCALAR"}],"bufferViews":[{"buffer":0,"byteLength":432,"byteOffset":0,"target":34962},{"buffer":0,"byteLength":432,"byteOffset":432,"target":34962},{"buffer":0,"byteLength":288,"byteOffset":864,"target":34962},{"buffer":0,"byteLength":192,"byteOffset":1152,"target":34963},{"buffer":0,"byteLength":17280,"byteOffset":1344,"target":34962},{"buffer":0,"byteLength":17280,"byteOffset":18624,"target":34962},{"buffer":0,"byteLength":11520,"byteOffset":35904,"target":34962},{"buffer":0,"byteLength":5232,"byteOffset":47424,"target":34963}],"samplers":[{"magFilter":9729,"minFilter":9987}],"buffers":[{"byteLength":52656,"uri":"worlds_SM_Bld_Pod_Corridor_Round_End_01.bin"}]}