{
	"asset":{
		"generator":"Khronos glTF Blender I/O v4.4.55",
		"version":"2.0"
	},
	"extensionsUsed":[
		"EXT_texture_webp"
	],
	"extensionsRequired":[
		"EXT_texture_webp"
	],
	"scene":0,
	"scenes":[
		{
			"name":"Scene",
			"nodes":[
				3
			]
		}
	],
	"nodes":[
		{
			"mesh":0,
			"name":"SM_Veh_Vendor_Tug_01_Door_01"
		},
		{
			"mesh":1,
			"name":"SM_Veh_Vendor_Tug_01_Glass_01"
		},
		{
			"mesh":2,
			"name":"SM_Veh_Vendor_Tug_01_Wheel_01"
		},
		{
			"children":[
				0,
				1,
				2
			],
			"mesh":3,
			"name":"SM_Veh_Vendor_Tug_01",
			"rotation":[
				0.7071068286895752,
				0,
				0,
				0.7071068286895752
			],
			"scale":[
				0.009999999776482582,
				0.009999999776482582,
				0.009999999776482582
			]
		}
	],
	"materials":[
		{
			"doubleSided":true,
			"name":"lambert10",
			"pbrMetallicRoughness":{
				"baseColorTexture":{
					"index":0
				},
				"metallicFactor":0,
				"roughnessFactor":0.5527864098548889
			}
		}
	],
	"meshes":[
		{
			"name":"Mesh.001",
			"primitives":[
				{
					"attributes":{
						"POSITION":0,
						"NORMAL":1,
						"TEXCOORD_0":2
					},
					"indices":3,
					"material":0
				}
			]
		},
		{
			"name":"Mesh.002",
			"primitives":[
				{
					"attributes":{
						"POSITION":4,
						"NORMAL":5,
						"TEXCOORD_0":6
					},
					"indices":7,
					"material":0
				}
			]
		},
		{
			"name":"Mesh.003",
			"primitives":[
				{
					"attributes":{
						"POSITION":8,
						"NORMAL":9,
						"TEXCOORD_0":10
					},
					"indices":11,
					"material":0
				}
			]
		},
		{
			"name":"Mesh",
			"primitives":[
				{
					"attributes":{
						"POSITION":12,
						"NORMAL":13,
						"TEXCOORD_0":14
					},
					"indices":15,
					"material":0
				}
			]
		}
	],
	"textures":[
		{
			"extensions":{
				"EXT_texture_webp":{
					"source":0
				}
			},
			"sampler":0
		}
	],
	"images":[
		{
			"mimeType":"image/webp",
			"name":"PolygonScifiWorlds_Texture_01_A",
			"uri":"PolygonScifiWorlds_Texture_01_A.webp"
		}
	],
	"accessors":[
		{
			"bufferView":0,
			"componentType":5126,
			"count":588,
			"max":[
				50.92059326171875,
				95.8391342163086,
				-56.71958923339844
			],
			"min":[
				-57.089195251464844,
				76.99190521240234,
				-269.14715576171875
			],
			"type":"VEC3"
		},
		{
			"bufferView":1,
			"componentType":5126,
			"count":588,
			"type":"VEC3"
		},
		{
			"bufferView":2,
			"componentType":5126,
			"count":588,
			"type":"VEC2"
		},
		{
			"bufferView":3,
			"componentType":5123,
			"count":1056,
			"type":"SCALAR"
		},
		{
			"bufferView":4,
			"componentType":5126,
			"count":48,
			"max":[
				64.12154388427734,
				267.4173278808594,
				-193.80555725097656
			],
			"min":[
				-64.12154388427734,
				114.18801879882812,
				-274.7493896484375
			],
			"type":"VEC3"
		},
		{
			"bufferView":5,
			"componentType":5126,
			"count":48,
			"type":"VEC3"
		},
		{
			"bufferView":6,
			"componentType":5126,
			"count":48,
			"type":"VEC2"
		},
		{
			"bufferView":7,
			"componentType":5123,
			"count":72,
			"type":"SCALAR"
		},
		{
			"bufferView":8,
			"componentType":5126,
			"count":970,
			"max":[
				52.74138641357422,
				265.2295837402344,
				-144.2640380859375
			],
			"min":[
				-52.74138641357422,
				249.67349243164062,
				-249.74681091308594
			],
			"type":"VEC3"
		},
		{
			"bufferView":9,
			"componentType":5126,
			"count":970,
			"type":"VEC3"
		},
		{
			"bufferView":10,
			"componentType":5126,
			"count":970,
			"type":"VEC2"
		},
		{
			"bufferView":11,
			"componentType":5123,
			"count":1632,
			"type":"SCALAR"
		},
		{
			"bufferView":12,
			"componentType":5126,
			"count":8822,
			"max":[
				190.86105346679688,
				421.353515625,
				310.8545837402344
			],
			"min":[
				-190.86105346679688,
				-483.6585998535156,
				-292.0766296386719
			],
			"type":"VEC3"
		},
		{
			"bufferView":13,
			"componentType":5126,
			"count":8822,
			"type":"VEC3"
		},
		{
			"bufferView":14,
			"componentType":5126,
			"count":8822,
			"type":"VEC2"
		},
		{
			"bufferView":15,
			"componentType":5123,
			"count":15762,
			"type":"SCALAR"
		}
	],
	"bufferViews":[
		{
			"buffer":0,
			"byteLength":7056,
			"byteOffset":0,
			"target":34962
		},
		{
			"buffer":0,
			"byteLength":7056,
			"byteOffset":7056,
			"target":34962
		},
		{
			"buffer":0,
			"byteLength":4704,
			"byteOffset":14112,
			"target":34962
		},
		{
			"buffer":0,
			"byteLength":2112,
			"byteOffset":18816,
			"target":34963
		},
		{
			"buffer":0,
			"byteLength":576,
			"byteOffset":20928,
			"target":34962
		},
		{
			"buffer":0,
			"byteLength":576,
			"byteOffset":21504,
			"target":34962
		},
		{
			"buffer":0,
			"byteLength":384,
			"byteOffset":22080,
			"target":34962
		},
		{
			"buffer":0,
			"byteLength":144,
			"byteOffset":22464,
			"target":34963
		},
		{
			"buffer":0,
			"byteLength":11640,
			"byteOffset":22608,
			"target":34962
		},
		{
			"buffer":0,
			"byteLength":11640,
			"byteOffset":34248,
			"target":34962
		},
		{
			"buffer":0,
			"byteLength":7760,
			"byteOffset":45888,
			"target":34962
		},
		{
			"buffer":0,
			"byteLength":3264,
			"byteOffset":53648,
			"target":34963
		},
		{
			"buffer":0,
			"byteLength":105864,
			"byteOffset":56912,
			"target":34962
		},
		{
			"buffer":0,
			"byteLength":105864,
			"byteOffset":162776,
			"target":34962
		},
		{
			"buffer":0,
			"byteLength":70576,
			"byteOffset":268640,
			"target":34962
		},
		{
			"buffer":0,
			"byteLength":31524,
			"byteOffset":339216,
			"target":34963
		}
	],
	"samplers":[
		{
			"magFilter":9729,
			"minFilter":9987
		}
	],
	"buffers":[
		{
			"byteLength":370740,
			"uri":"worlds_SM_Veh_Vendor_Tug_01.bin"
		}
	]
}
