{"asset":{"generator":"Khronos glTF Blender I/O v4.4.55","version":"2.0"},"extensionsUsed":["EXT_texture_webp"],"extensionsRequired":["EXT_texture_webp"],"scene":0,"scenes":[{"name":"Scene","nodes":[3]}],"nodes":[{"mesh":0,"name":"SM_Wep_Sniper_02_Mag_01"},{"mesh":1,"name":"SM_Wep_Sniper_02_Scope_01"},{"mesh":2,"name":"SM_Wep_Sniper_02_Trigger_01"},{"children":[0,1,2],"mesh":3,"name":"SM_Wep_Sniper_02","rotation":[0.7071068286895752,0,0,0.7071068286895752],"scale":[0.009999999776482582,0.009999999776482582,0.009999999776482582]}],"materials":[{"doubleSided":true,"name":"Clip1:SM_Prop_Crate_03SG1","pbrMetallicRoughness":{"baseColorTexture":{"index":1},"metallicFactor":0,"roughnessFactor":0.5527864098548889}}],"meshes":[{"name":"Mesh.001","primitives":[{"attributes":{"POSITION":0,"NORMAL":1,"TEXCOORD_0":2},"indices":3,"material":0}]},{"name":"Mesh.003","primitives":[{"attributes":{"POSITION":4,"NORMAL":5,"TEXCOORD_0":6},"indices":7,"material":0}]},{"name":"Mesh.002","primitives":[{"attributes":{"POSITION":8,"NORMAL":9,"TEXCOORD_0":10},"indices":11,"material":0}]},{"name":"Mesh","primitives":[{"attributes":{"POSITION":12,"NORMAL":13,"TEXCOORD_0":14},"indices":15,"material":0}]}],"textures":[{"extensions":{},"sampler":0},{"extensions":{"EXT_texture_webp":{"source":0}},"sampler":0}],"images":[{"mimeType":"image/webp","name":"PolygonScifiWorlds_Texture_01_A","uri":"PolygonScifiWorlds_Texture_01_A.webp"}],"accessors":[{"bufferView":0,"componentType":5126,"count":314,"max":[3.1857643127441406,50.84965515136719,16.705326080322266],"min":[-3.1857643127441406,27.470409393310547,-0.4457101821899414],"type":"VEC3"},{"bufferView":1,"componentType":5126,"count":314,"type":"VEC3"},{"bufferView":2,"componentType":5126,"count":314,"type":"VEC2"},{"bufferView":3,"componentType":5123,"count":516,"type":"SCALAR"},{"bufferView":4,"componentType":5126,"count":588,"max":[6.505952835083008,45.65040588378906,-19.079021453857422],"min":[-6.505952835083008,-0.4112873077392578,-30.557369232177734],"type":"VEC3"},{"bufferView":5,"componentType":5126,"count":588,"type":"VEC3"},{"bufferView":6,"componentType":5126,"count":588,"type":"VEC2"},{"bufferView":7,"componentType":5123,"count":984,"type":"SCALAR"},{"bufferView":8,"componentType":5126,"count":42,"max":[0.4303463399410248,9.696569442749023,3.77474308013916],"min":[-0.43034568428993225,3.029203414916992,-2.2587594985961914],"type":"VEC3"},{"bufferView":9,"componentType":5126,"count":42,"type":"VEC3"},{"bufferView":10,"componentType":5126,"count":42,"type":"VEC2"},{"bufferView":11,"componentType":5123,"count":78,"type":"SCALAR"},{"bufferView":12,"componentType":5126,"count":1517,"max":[6.136213302612305,133.73196411132812,18.461585998535156],"min":[-6.136209487915039,-29.036527633666992,-20.38138198852539],"type":"VEC3"},{"bufferView":13,"componentType":5126,"count":1517,"type":"VEC3"},{"bufferView":14,"componentType":5126,"count":1517,"type":"VEC2"},{"bufferView":15,"componentType":5123,"count":2778,"type":"SCALAR"}],"bufferViews":[{"buffer":0,"byteLength":3768,"byteOffset":0,"target":34962},{"buffer":0,"byteLength":3768,"byteOffset":3768,"target":34962},{"buffer":0,"byteLength":2512,"byteOffset":7536,"target":34962},{"buffer":0,"byteLength":1032,"byteOffset":10048,"target":34963},{"buffer":0,"byteLength":7056,"byteOffset":11080,"target":34962},{"buffer":0,"byteLength":7056,"byteOffset":18136,"target":34962},{"buffer":0,"byteLength":4704,"byteOffset":25192,"target":34962},{"buffer":0,"byteLength":1968,"byteOffset":29896,"target":34963},{"buffer":0,"byteLength":504,"byteOffset":31864,"target":34962},{"buffer":0,"byteLength":504,"byteOffset":32368,"target":34962},{"buffer":0,"byteLength":336,"byteOffset":32872,"target":34962},{"buffer":0,"byteLength":156,"byteOffset":33208,"target":34963},{"buffer":0,"byteLength":18204,"byteOffset":33364,"target":34962},{"buffer":0,"byteLength":18204,"byteOffset":51568,"target":34962},{"buffer":0,"byteLength":12136,"byteOffset":69772,"target":34962},{"buffer":0,"byteLength":5556,"byteOffset":81908,"target":34963}],"samplers":[{"magFilter":9729,"minFilter":9987}],"buffers":[{"byteLength":87464,"uri":"worlds_SM_Wep_Sniper_02.bin"}]}