{"asset":{"generator":"Khronos glTF Blender I/O v4.4.55","version":"2.0"},"extensionsUsed":["EXT_texture_webp"],"extensionsRequired":["EXT_texture_webp"],"scene":0,"scenes":[{"name":"Scene","nodes":[0]}],"nodes":[{"mesh":0,"name":"SM_Env_Plant_Large_Spiral_Preset_04","rotation":[0.7071068286895752,0,0,0.7071068286895752],"scale":[0.009999999776482582,0.009999999776482582,0.009999999776482582]}],"materials":[{"doubleSided":true,"name":"lambert1978","pbrMetallicRoughness":{"baseColorTexture":{"index":1},"metallicFactor":0,"roughnessFactor":0.5527864098548889}}],"meshes":[{"name":"Mesh","primitives":[{"attributes":{"POSITION":0,"NORMAL":1,"TEXCOORD_0":2,"COLOR_0":3,"COLOR_1":4},"indices":5,"material":0}]}],"textures":[{"extensions":{},"sampler":0},{"extensions":{"EXT_texture_webp":{"source":0}},"sampler":0}],"images":[{"mimeType":"image/webp","name":"PolygonScifiWorlds_Texture_01_A","uri":"PolygonScifiWorlds_Texture_01_A.webp"}],"accessors":[{"bufferView":0,"componentType":5126,"count":764,"max":[440.8461608886719,309.2362060546875,64.5650405883789],"min":[-473.8125915527344,-429.2673645019531,-1331.69873046875],"type":"VEC3"},{"bufferView":1,"componentType":5126,"count":764,"type":"VEC3"},{"bufferView":2,"componentType":5126,"count":764,"type":"VEC2"},{"bufferView":3,"componentType":5121,"count":764,"normalized":true,"type":"VEC4"},{"bufferView":4,"componentType":5123,"count":764,"normalized":true,"type":"VEC4"},{"bufferView":5,"componentType":5123,"count":1230,"type":"SCALAR"}],"bufferViews":[{"buffer":0,"byteLength":9168,"byteOffset":0,"target":34962},{"buffer":0,"byteLength":9168,"byteOffset":9168,"target":34962},{"buffer":0,"byteLength":6112,"byteOffset":18336,"target":34962},{"buffer":0,"byteLength":3056,"byteOffset":24448,"target":34962},{"buffer":0,"byteLength":6112,"byteOffset":27504,"target":34962},{"buffer":0,"byteLength":2460,"byteOffset":33616,"target":34963}],"samplers":[{"magFilter":9729,"minFilter":9987}],"buffers":[{"byteLength":36076,"uri":"worlds_SM_Env_Plant_Large_Spiral_Preset_04.bin"}]}