{"asset":{"generator":"Khronos glTF Blender I/O v4.4.55","version":"2.0"},"extensionsUsed":["EXT_texture_webp"],"extensionsRequired":["EXT_texture_webp"],"scene":0,"scenes":[{"name":"Scene","nodes":[0]}],"nodes":[{"mesh":0,"name":"SM_Prop_Scav_Scrap_54","rotation":[0.7071068286895752,0,0,0.7071068286895752],"scale":[0.009999999776482582,0.009999999776482582,0.009999999776482582]}],"materials":[{"doubleSided":true,"name":"SciFi_Planets_SHD","pbrMetallicRoughness":{"baseColorTexture":{"index":1},"metallicFactor":0,"roughnessFactor":0.5527864098548889}}],"meshes":[{"name":"Mesh","primitives":[{"attributes":{"POSITION":0,"NORMAL":1,"TEXCOORD_0":2,"TEXCOORD_1":3,"TEXCOORD_2":4,"TEXCOORD_3":5},"indices":6,"material":0}]}],"textures":[{"extensions":{},"sampler":0},{"extensions":{"EXT_texture_webp":{"source":0}},"sampler":0}],"images":[{"mimeType":"image/webp","name":"PolygonScifiWorlds_Texture_01_A","uri":"PolygonScifiWorlds_Texture_01_A.webp"}],"accessors":[{"bufferView":0,"componentType":5126,"count":1409,"max":[2660.156005859375,2723.416748046875,935.915771484375],"min":[-2884.4755859375,-2723.416748046875,-762.559326171875],"type":"VEC3"},{"bufferView":1,"componentType":5126,"count":1409,"type":"VEC3"},{"bufferView":2,"componentType":5126,"count":1409,"type":"VEC2"},{"bufferView":3,"componentType":5126,"count":1409,"type":"VEC2"},{"bufferView":4,"componentType":5126,"count":1409,"type":"VEC2"},{"bufferView":5,"componentType":5126,"count":1409,"type":"VEC2"},{"bufferView":6,"componentType":5123,"count":2244,"type":"SCALAR"}],"bufferViews":[{"buffer":0,"byteLength":16908,"byteOffset":0,"target":34962},{"buffer":0,"byteLength":16908,"byteOffset":16908,"target":34962},{"buffer":0,"byteLength":11272,"byteOffset":33816,"target":34962},{"buffer":0,"byteLength":11272,"byteOffset":45088,"target":34962},{"buffer":0,"byteLength":11272,"byteOffset":56360,"target":34962},{"buffer":0,"byteLength":11272,"byteOffset":67632,"target":34962},{"buffer":0,"byteLength":4488,"byteOffset":78904,"target":34963}],"samplers":[{"magFilter":9729,"minFilter":9987}],"buffers":[{"byteLength":83392,"uri":"worlds_SM_Prop_Scav_Scrap_54.bin"}]}