{"asset":{"generator":"Khronos glTF Blender I/O v4.4.55","version":"2.0"},"extensionsUsed":["EXT_texture_webp"],"extensionsRequired":["EXT_texture_webp"],"scene":0,"scenes":[{"name":"Scene","nodes":[2]}],"nodes":[{"mesh":0,"name":"SM_Wep_Heavy_01_Scope_01"},{"mesh":1,"name":"SM_Wep_Heavy_01_Trigger_01"},{"children":[0,1],"mesh":2,"name":"SM_Wep_Heavy_01","rotation":[0.7071068286895752,0,0,0.7071068286895752],"scale":[0.009999999776482582,0.009999999776482582,0.009999999776482582]}],"materials":[{"doubleSided":true,"name":"Clip1:SM_Prop_Crate_03SG1","pbrMetallicRoughness":{"baseColorTexture":{"index":1},"metallicFactor":0,"roughnessFactor":0.5527864098548889}}],"meshes":[{"name":"Mesh.002","primitives":[{"attributes":{"POSITION":0,"NORMAL":1,"TEXCOORD_0":2},"indices":3,"material":0}]},{"name":"Mesh.001","primitives":[{"attributes":{"POSITION":4,"NORMAL":5,"TEXCOORD_0":6},"indices":7,"material":0}]},{"name":"Mesh","primitives":[{"attributes":{"POSITION":8,"NORMAL":9,"TEXCOORD_0":10},"indices":11,"material":0}]}],"textures":[{"extensions":{},"sampler":0},{"extensions":{"EXT_texture_webp":{"source":0}},"sampler":0}],"images":[{"mimeType":"image/webp","name":"PolygonScifiWorlds_Texture_01_A","uri":"PolygonScifiWorlds_Texture_01_A.webp"}],"accessors":[{"bufferView":0,"componentType":5126,"count":454,"max":[7.429020881652832,35.8993034362793,-25.524736404418945],"min":[-7.429019927978516,15.877362251281738,-44.041133880615234],"type":"VEC3"},{"bufferView":1,"componentType":5126,"count":454,"type":"VEC3"},{"bufferView":2,"componentType":5126,"count":454,"type":"VEC2"},{"bufferView":3,"componentType":5123,"count":798,"type":"SCALAR"},{"bufferView":4,"componentType":5126,"count":64,"max":[0.45729342103004456,6.345797538757324,2.3115692138671875],"min":[-0.45729342103004456,2.5334112644195557,-1.4647154808044434],"type":"VEC3"},{"bufferView":5,"componentType":5126,"count":64,"type":"VEC3"},{"bufferView":6,"componentType":5126,"count":64,"type":"VEC2"},{"bufferView":7,"componentType":5123,"count":102,"type":"SCALAR"},{"bufferView":8,"componentType":5126,"count":3001,"max":[9.963857650756836,83.29582214355469,17.26410484313965],"min":[-9.963857650756836,-44.00050735473633,-27.828330993652344],"type":"VEC3"},{"bufferView":9,"componentType":5126,"count":3001,"type":"VEC3"},{"bufferView":10,"componentType":5126,"count":3001,"type":"VEC2"},{"bufferView":11,"componentType":5123,"count":5064,"type":"SCALAR"}],"bufferViews":[{"buffer":0,"byteLength":5448,"byteOffset":0,"target":34962},{"buffer":0,"byteLength":5448,"byteOffset":5448,"target":34962},{"buffer":0,"byteLength":3632,"byteOffset":10896,"target":34962},{"buffer":0,"byteLength":1596,"byteOffset":14528,"target":34963},{"buffer":0,"byteLength":768,"byteOffset":16124,"target":34962},{"buffer":0,"byteLength":768,"byteOffset":16892,"target":34962},{"buffer":0,"byteLength":512,"byteOffset":17660,"target":34962},{"buffer":0,"byteLength":204,"byteOffset":18172,"target":34963},{"buffer":0,"byteLength":36012,"byteOffset":18376,"target":34962},{"buffer":0,"byteLength":36012,"byteOffset":54388,"target":34962},{"buffer":0,"byteLength":24008,"byteOffset":90400,"target":34962},{"buffer":0,"byteLength":10128,"byteOffset":114408,"target":34963}],"samplers":[{"magFilter":9729,"minFilter":9987}],"buffers":[{"byteLength":124536,"uri":"worlds_SM_Wep_Heavy_01.bin"}]}