{"asset":{"generator":"Khronos glTF Blender I/O v4.4.55","version":"2.0"},"extensionsUsed":["EXT_texture_webp"],"extensionsRequired":["EXT_texture_webp"],"scene":0,"scenes":[{"name":"Scene","nodes":[0]}],"nodes":[{"mesh":0,"name":"SM_Bld_Bridge_Platform_01","rotation":[0.7071068286895752,0,0,0.7071068286895752],"scale":[0.009999999776482582,0.009999999776482582,0.009999999776482582]}],"materials":[{"doubleSided":true,"name":"SciFi_Planets_SHD","pbrMetallicRoughness":{"baseColorTexture":{"index":1},"metallicFactor":0,"roughnessFactor":0.5527864098548889}}],"meshes":[{"name":"Mesh","primitives":[{"attributes":{"POSITION":0,"NORMAL":1,"TEXCOORD_0":2,"TEXCOORD_1":3},"indices":4,"material":0}]}],"textures":[{"extensions":{},"sampler":0},{"extensions":{"EXT_texture_webp":{"source":0}},"sampler":0}],"images":[{"mimeType":"image/webp","name":"PolygonScifiWorlds_Texture_01_A","uri":"PolygonScifiWorlds_Texture_01_A.webp"}],"accessors":[{"bufferView":0,"componentType":5126,"count":5623,"max":[2124.994384765625,625,1139.3790283203125],"min":[424.994384765625,-625,-131.8101806640625],"type":"VEC3"},{"bufferView":1,"componentType":5126,"count":5623,"type":"VEC3"},{"bufferView":2,"componentType":5126,"count":5623,"type":"VEC2"},{"bufferView":3,"componentType":5126,"count":5623,"type":"VEC2"},{"bufferView":4,"componentType":5123,"count":9054,"type":"SCALAR"}],"bufferViews":[{"buffer":0,"byteLength":67476,"byteOffset":0,"target":34962},{"buffer":0,"byteLength":67476,"byteOffset":67476,"target":34962},{"buffer":0,"byteLength":44984,"byteOffset":134952,"target":34962},{"buffer":0,"byteLength":44984,"byteOffset":179936,"target":34962},{"buffer":0,"byteLength":18108,"byteOffset":224920,"target":34963}],"samplers":[{"magFilter":9729,"minFilter":9987}],"buffers":[{"byteLength":243028,"uri":"worlds_SM_Bld_Bridge_Platform_01.bin"}]}