{
	"asset":{
		"generator":"Khronos glTF Blender I/O v4.4.55",
		"version":"2.0"
	},
	"extensionsUsed":[
		"EXT_texture_webp"
	],
	"extensionsRequired":[
		"EXT_texture_webp"
	],
	"scene":0,
	"scenes":[
		{
			"name":"Scene",
			"nodes":[
				3
			]
		}
	],
	"nodes":[
		{
			"mesh":0,
			"name":"SM_Bld_Corp_LandingPad_03_Glass_01"
		},
		{
			"mesh":1,
			"name":"SM_Bld_Corp_LandingPad_03_Ramp_01",
			"rotation":[
				0.19996413588523865,
				-0.0828278660774231,
				-0.37361228466033936,
				0.901979923248291
			],
			"translation":[
				-3.0517578125e-05,
				3.0517576306010596e-05,
				-6.103515261202119e-05
			]
		},
		{
			"mesh":2,
			"name":"SM_Bld_Corp_LandingPad_03_Ramp_02",
			"rotation":[
				-0.08282792568206787,
				0.19996419548988342,
				-0.901979923248291,
				0.37361228466033936
			],
			"translation":[
				6.103515625e-05,
				-0.00015258787607308477,
				-0.00021654745796695352
			]
		},
		{
			"children":[
				0,
				1,
				2
			],
			"mesh":3,
			"name":"SM_Bld_Corp_LandingPad_03",
			"rotation":[
				0.7071068286895752,
				0,
				0,
				0.7071068286895752
			],
			"scale":[
				0.009999999776482582,
				0.009999999776482582,
				0.009999999776482582
			]
		}
	],
	"materials":[
		{
			"doubleSided":true,
			"name":"lambert10",
			"pbrMetallicRoughness":{
				"baseColorTexture":{
					"index":0
				},
				"metallicFactor":0,
				"roughnessFactor":0.5527864098548889
			}
		}
	],
	"meshes":[
		{
			"name":"Mesh.003",
			"primitives":[
				{
					"attributes":{
						"POSITION":0,
						"NORMAL":1,
						"TEXCOORD_0":2
					},
					"indices":3,
					"material":0
				}
			]
		},
		{
			"name":"Mesh.002",
			"primitives":[
				{
					"attributes":{
						"POSITION":4,
						"NORMAL":5,
						"TEXCOORD_0":6
					},
					"indices":7,
					"material":0
				}
			]
		},
		{
			"name":"Mesh.001",
			"primitives":[
				{
					"attributes":{
						"POSITION":8,
						"NORMAL":9,
						"TEXCOORD_0":10
					},
					"indices":11,
					"material":0
				}
			]
		},
		{
			"name":"Mesh",
			"primitives":[
				{
					"attributes":{
						"POSITION":12,
						"NORMAL":13,
						"TEXCOORD_0":14
					},
					"indices":15,
					"material":0
				}
			]
		}
	],
	"textures":[
		{
			"extensions":{
				"EXT_texture_webp":{
					"source":0
				}
			},
			"sampler":0
		}
	],
	"images":[
		{
			"mimeType":"image/webp",
			"name":"PolygonScifiWorlds_Texture_01_A",
			"uri":"PolygonScifiWorlds_Texture_01_A.webp"
		}
	],
	"accessors":[
		{
			"bufferView":0,
			"componentType":5126,
			"count":112,
			"max":[
				565.013671875,
				-1661.013671875,
				-892.7681884765625
			],
			"min":[
				-560.0791015625,
				-2786.10546875,
				-2182.540771484375
			],
			"type":"VEC3"
		},
		{
			"bufferView":1,
			"componentType":5126,
			"count":112,
			"type":"VEC3"
		},
		{
			"bufferView":2,
			"componentType":5126,
			"count":112,
			"type":"VEC2"
		},
		{
			"bufferView":3,
			"componentType":5123,
			"count":228,
			"type":"SCALAR"
		},
		{
			"bufferView":4,
			"componentType":5126,
			"count":2028,
			"max":[
				-51.880859375,
				3390.16845703125,
				-1394.45654296875
			],
			"min":[
				-840.855712890625,
				1401.52734375,
				-1555.0849609375
			],
			"type":"VEC3"
		},
		{
			"bufferView":5,
			"componentType":5126,
			"count":2028,
			"type":"VEC3"
		},
		{
			"bufferView":6,
			"componentType":5126,
			"count":2028,
			"type":"VEC2"
		},
		{
			"bufferView":7,
			"componentType":5123,
			"count":3672,
			"type":"SCALAR"
		},
		{
			"bufferView":8,
			"componentType":5126,
			"count":2029,
			"max":[
				-51.880859375,
				-1401.529541015625,
				-1394.4580078125
			],
			"min":[
				-840.8544921875,
				-3390.17236328125,
				-1555.0849609375
			],
			"type":"VEC3"
		},
		{
			"bufferView":9,
			"componentType":5126,
			"count":2029,
			"type":"VEC3"
		},
		{
			"bufferView":10,
			"componentType":5126,
			"count":2029,
			"type":"VEC2"
		},
		{
			"bufferView":11,
			"componentType":5123,
			"count":3672,
			"type":"SCALAR"
		},
		{
			"bufferView":12,
			"componentType":5126,
			"count":37174,
			"max":[
				2422.71044921875,
				2160.9189453125,
				34.677555084228516
			],
			"min":[
				-2422.71044921875,
				-3013.53125,
				-4573.24169921875
			],
			"type":"VEC3"
		},
		{
			"bufferView":13,
			"componentType":5126,
			"count":37174,
			"type":"VEC3"
		},
		{
			"bufferView":14,
			"componentType":5126,
			"count":37174,
			"type":"VEC2"
		},
		{
			"bufferView":15,
			"componentType":5123,
			"count":67416,
			"type":"SCALAR"
		}
	],
	"bufferViews":[
		{
			"buffer":0,
			"byteLength":1344,
			"byteOffset":0,
			"target":34962
		},
		{
			"buffer":0,
			"byteLength":1344,
			"byteOffset":1344,
			"target":34962
		},
		{
			"buffer":0,
			"byteLength":896,
			"byteOffset":2688,
			"target":34962
		},
		{
			"buffer":0,
			"byteLength":456,
			"byteOffset":3584,
			"target":34963
		},
		{
			"buffer":0,
			"byteLength":24336,
			"byteOffset":4040,
			"target":34962
		},
		{
			"buffer":0,
			"byteLength":24336,
			"byteOffset":28376,
			"target":34962
		},
		{
			"buffer":0,
			"byteLength":16224,
			"byteOffset":52712,
			"target":34962
		},
		{
			"buffer":0,
			"byteLength":7344,
			"byteOffset":68936,
			"target":34963
		},
		{
			"buffer":0,
			"byteLength":24348,
			"byteOffset":76280,
			"target":34962
		},
		{
			"buffer":0,
			"byteLength":24348,
			"byteOffset":100628,
			"target":34962
		},
		{
			"buffer":0,
			"byteLength":16232,
			"byteOffset":124976,
			"target":34962
		},
		{
			"buffer":0,
			"byteLength":7344,
			"byteOffset":141208,
			"target":34963
		},
		{
			"buffer":0,
			"byteLength":446088,
			"byteOffset":148552,
			"target":34962
		},
		{
			"buffer":0,
			"byteLength":446088,
			"byteOffset":594640,
			"target":34962
		},
		{
			"buffer":0,
			"byteLength":297392,
			"byteOffset":1040728,
			"target":34962
		},
		{
			"buffer":0,
			"byteLength":134832,
			"byteOffset":1338120,
			"target":34963
		}
	],
	"samplers":[
		{
			"magFilter":9729,
			"minFilter":9987
		}
	],
	"buffers":[
		{
			"byteLength":1472952,
			"uri":"worlds_SM_Bld_Corp_LandingPad_03.bin"
		}
	]
}
