{"asset":{"generator":"Khronos glTF Blender I/O v4.4.55","version":"2.0"},"extensionsUsed":["EXT_texture_webp"],"extensionsRequired":["EXT_texture_webp"],"scene":0,"scenes":[{"name":"Scene","nodes":[7]}],"nodes":[{"mesh":0,"name":"SM_Veh_HoverCraft_01_Booster_l"},{"mesh":1,"name":"SM_Veh_HoverCraft_01_Booster_r"},{"mesh":2,"name":"SM_Veh_HoverCraft_01_Glass_01"},{"children":[2],"mesh":3,"name":"SM_Veh_HoverCraft_01_Door_01"},{"mesh":4,"name":"SM_Veh_HoverCraft_01_Gun_l"},{"mesh":5,"name":"SM_Veh_HoverCraft_01_Gun_r"},{"mesh":6,"name":"SM_Veh_HoverCraft_01_SteeringWheel_01","rotation":[0.1323288232088089,0,0,0.9912059903144836],"translation":[0,7.629394076502649e-06,-1.5258788153005298e-05]},{"children":[0,1,3,4,5,6],"mesh":7,"name":"SM_Veh_HoverCraft_01","rotation":[0.7071068286895752,0,0,0.7071068286895752],"scale":[0.009999999776482582,0.009999999776482582,0.009999999776482582]}],"materials":[{"doubleSided":true,"name":"SciFi_Planets_SHD","pbrMetallicRoughness":{"baseColorTexture":{"index":1},"metallicFactor":0,"roughnessFactor":0.5527864098548889}},{"alphaMode":"MASK","doubleSided":true,"name":"Glass_MAT","pbrMetallicRoughness":{"baseColorFactor":[1,1,1,0.15662652254104614],"baseColorTexture":{"index":2},"metallicFactor":0,"roughnessFactor":0.5527864098548889},"alphaCutoff":0.5}],"meshes":[{"name":"Mesh.005","primitives":[{"attributes":{"POSITION":0,"NORMAL":1,"TEXCOORD_0":2},"indices":3,"material":0}]},{"name":"Mesh.004","primitives":[{"attributes":{"POSITION":4,"NORMAL":5,"TEXCOORD_0":6},"indices":7,"material":0}]},{"name":"Mesh.003","primitives":[{"attributes":{"POSITION":8,"NORMAL":9,"TEXCOORD_0":10},"indices":11,"material":1}]},{"name":"Mesh.002","primitives":[{"attributes":{"POSITION":12,"NORMAL":13,"TEXCOORD_0":14},"indices":15,"material":0}]},{"name":"Mesh.007","primitives":[{"attributes":{"POSITION":16,"NORMAL":17,"TEXCOORD_0":18},"indices":19,"material":0}]},{"name":"Mesh.006","primitives":[{"attributes":{"POSITION":20,"NORMAL":21,"TEXCOORD_0":22},"indices":23,"material":0}]},{"name":"Mesh.001","primitives":[{"attributes":{"POSITION":24,"NORMAL":25,"TEXCOORD_0":26},"indices":27,"material":0}]},{"name":"Mesh","primitives":[{"attributes":{"POSITION":28,"NORMAL":29,"TEXCOORD_0":30},"indices":31,"material":0}]}],"textures":[{"extensions":{},"sampler":0},{"extensions":{"EXT_texture_webp":{"source":0}},"sampler":0},{"extensions":{"EXT_texture_webp":{"source":0}},"sampler":0}],"images":[{"mimeType":"image/webp","name":"PolygonScifiWorlds_Texture_01_A","uri":"PolygonScifiWorlds_Texture_01_A.webp"}],"accessors":[{"bufferView":0,"componentType":5126,"count":554,"max":[171.62353515625,-248.0516357421875,-101.55694580078125],"min":[54.92236328125,-398.5621337890625,-228.60238647460938],"type":"VEC3"},{"bufferView":1,"componentType":5126,"count":554,"type":"VEC3"},{"bufferView":2,"componentType":5126,"count":554,"type":"VEC2"},{"bufferView":3,"componentType":5123,"count":936,"type":"SCALAR"},{"bufferView":4,"componentType":5126,"count":554,"max":[-54.92236328125,-248.0516357421875,-101.55694580078125],"min":[-171.62353515625,-398.5621337890625,-228.60238647460938],"type":"VEC3"},{"bufferView":5,"componentType":5126,"count":554,"type":"VEC3"},{"bufferView":6,"componentType":5126,"count":554,"type":"VEC2"},{"bufferView":7,"componentType":5123,"count":936,"type":"SCALAR"},{"bufferView":8,"componentType":5126,"count":76,"max":[112.92500305175781,331.7156677246094,-150.4696807861328],"min":[-112.92500305175781,35.525856018066406,-251.7767791748047],"type":"VEC3"},{"bufferView":9,"componentType":5126,"count":76,"type":"VEC3"},{"bufferView":10,"componentType":5126,"count":76,"type":"VEC2"},{"bufferView":11,"componentType":5123,"count":108,"type":"SCALAR"},{"bufferView":12,"componentType":5126,"count":822,"max":[116.52490234375,355.6579895019531,-132.10214233398438],"min":[-116.52490234375,-14.893657684326172,-269.04107666015625],"type":"VEC3"},{"bufferView":13,"componentType":5126,"count":822,"type":"VEC3"},{"bufferView":14,"componentType":5126,"count":822,"type":"VEC2"},{"bufferView":15,"componentType":5123,"count":1464,"type":"SCALAR"},{"bufferView":16,"componentType":5126,"count":2090,"max":[333.1494140625,361.298828125,-28.561601638793945],"min":[228.771484375,36.6064453125,-116.96389770507812],"type":"VEC3"},{"bufferView":17,"componentType":5126,"count":2090,"type":"VEC3"},{"bufferView":18,"componentType":5126,"count":2090,"type":"VEC2"},{"bufferView":19,"componentType":5123,"count":3486,"type":"SCALAR"},{"bufferView":20,"componentType":5126,"count":2097,"max":[-228.771484375,361.298828125,-28.561599731445312],"min":[-333.1494140625,36.6064453125,-116.96389770507812],"type":"VEC3"},{"bufferView":21,"componentType":5126,"count":2097,"type":"VEC3"},{"bufferView":22,"componentType":5126,"count":2097,"type":"VEC2"},{"bufferView":23,"componentType":5123,"count":3486,"type":"SCALAR"},{"bufferView":24,"componentType":5126,"count":420,"max":[55.100830078125,161.3848876953125,-215.18589782714844],"min":[5.526611328125,153.3468017578125,-255.06448364257812],"type":"VEC3"},{"bufferView":25,"componentType":5126,"count":420,"type":"VEC3"},{"bufferView":26,"componentType":5126,"count":420,"type":"VEC2"},{"bufferView":27,"componentType":5123,"count":642,"type":"SCALAR"},{"bufferView":28,"componentType":5126,"count":14742,"max":[393.0478515625,418.1025390625,-0.6328659057617188],"min":[-393.0478515625,-372.91552734375,-293.12335205078125],"type":"VEC3"},{"bufferView":29,"componentType":5126,"count":14742,"type":"VEC3"},{"bufferView":30,"componentType":5126,"count":14742,"type":"VEC2"},{"bufferView":31,"componentType":5123,"count":24492,"type":"SCALAR"}],"bufferViews":[{"buffer":0,"byteLength":6648,"byteOffset":0,"target":34962},{"buffer":0,"byteLength":6648,"byteOffset":6648,"target":34962},{"buffer":0,"byteLength":4432,"byteOffset":13296,"target":34962},{"buffer":0,"byteLength":1872,"byteOffset":17728,"target":34963},{"buffer":0,"byteLength":6648,"byteOffset":19600,"target":34962},{"buffer":0,"byteLength":6648,"byteOffset":26248,"target":34962},{"buffer":0,"byteLength":4432,"byteOffset":32896,"target":34962},{"buffer":0,"byteLength":1872,"byteOffset":37328,"target":34963},{"buffer":0,"byteLength":912,"byteOffset":39200,"target":34962},{"buffer":0,"byteLength":912,"byteOffset":40112,"target":34962},{"buffer":0,"byteLength":608,"byteOffset":41024,"target":34962},{"buffer":0,"byteLength":216,"byteOffset":41632,"target":34963},{"buffer":0,"byteLength":9864,"byteOffset":41848,"target":34962},{"buffer":0,"byteLength":9864,"byteOffset":51712,"target":34962},{"buffer":0,"byteLength":6576,"byteOffset":61576,"target":34962},{"buffer":0,"byteLength":2928,"byteOffset":68152,"target":34963},{"buffer":0,"byteLength":25080,"byteOffset":71080,"target":34962},{"buffer":0,"byteLength":25080,"byteOffset":96160,"target":34962},{"buffer":0,"byteLength":16720,"byteOffset":121240,"target":34962},{"buffer":0,"byteLength":6972,"byteOffset":137960,"target":34963},{"buffer":0,"byteLength":25164,"byteOffset":144932,"target":34962},{"buffer":0,"byteLength":25164,"byteOffset":170096,"target":34962},{"buffer":0,"byteLength":16776,"byteOffset":195260,"target":34962},{"buffer":0,"byteLength":6972,"byteOffset":212036,"target":34963},{"buffer":0,"byteLength":5040,"byteOffset":219008,"target":34962},{"buffer":0,"byteLength":5040,"byteOffset":224048,"target":34962},{"buffer":0,"byteLength":3360,"byteOffset":229088,"target":34962},{"buffer":0,"byteLength":1284,"byteOffset":232448,"target":34963},{"buffer":0,"byteLength":176904,"byteOffset":233732,"target":34962},{"buffer":0,"byteLength":176904,"byteOffset":410636,"target":34962},{"buffer":0,"byteLength":117936,"byteOffset":587540,"target":34962},{"buffer":0,"byteLength":48984,"byteOffset":705476,"target":34963}],"samplers":[{"magFilter":9729,"minFilter":9987}],"buffers":[{"byteLength":754460,"uri":"worlds_SM_Veh_HoverCraft_01.bin"}]}