{"asset":{"generator":"Khronos glTF Blender I/O v4.4.55","version":"2.0"},"extensionsUsed":["EXT_texture_webp"],"extensionsRequired":["EXT_texture_webp"],"scene":0,"scenes":[{"name":"Scene","nodes":[4]}],"nodes":[{"mesh":0,"name":"SM_Bld_Corp_Wall_Tower_Corner_01_Top_Glass_01"},{"children":[0],"mesh":1,"name":"SM_Bld_Corp_Wall_Tower_Corner_01_Top_01"},{"mesh":2,"name":"SM_Bld_Corp_Wall_Tower_Corner_01_Turret_01"},{"mesh":3,"name":"SM_Bld_Corp_Wall_Tower_Corner_01_Turret_02"},{"children":[1,2,3],"mesh":4,"name":"SM_Bld_Corp_Wall_Tower_Corner_01","rotation":[0.7071068286895752,0,0,0.7071068286895752],"scale":[0.009999999776482582,0.009999999776482582,0.009999999776482582]}],"materials":[{"alphaMode":"MASK","doubleSided":true,"name":"Glass_MAT","pbrMetallicRoughness":{"baseColorFactor":[1,1,1,0.15662652254104614],"baseColorTexture":{"index":0},"metallicFactor":0,"roughnessFactor":0.5527864098548889},"alphaCutoff":0.5},{"doubleSided":true,"name":"SciFi_Planets_SHD","pbrMetallicRoughness":{"baseColorTexture":{"index":2},"metallicFactor":0,"roughnessFactor":0.5527864098548889}}],"meshes":[{"name":"Mesh.002","primitives":[{"attributes":{"POSITION":0,"NORMAL":1,"TEXCOORD_0":2},"indices":3,"material":0}]},{"name":"Mesh.001","primitives":[{"attributes":{"POSITION":4,"NORMAL":5,"TEXCOORD_0":6,"TEXCOORD_1":7},"indices":8,"material":1}]},{"name":"Mesh.004","primitives":[{"attributes":{"POSITION":9,"NORMAL":10,"TEXCOORD_0":11},"indices":12,"material":1}]},{"name":"Mesh.003","primitives":[{"attributes":{"POSITION":13,"NORMAL":14,"TEXCOORD_0":15},"indices":16,"material":1}]},{"name":"Mesh","primitives":[{"attributes":{"POSITION":17,"NORMAL":18,"TEXCOORD_0":19},"indices":20,"material":1}]}],"textures":[{"extensions":{"EXT_texture_webp":{"source":0}},"sampler":0},{"extensions":{},"sampler":0},{"extensions":{"EXT_texture_webp":{"source":0}},"sampler":0}],"images":[{"mimeType":"image/webp","name":"PolygonScifiWorlds_Texture_01_A","uri":"PolygonScifiWorlds_Texture_01_A.webp"}],"accessors":[{"bufferView":0,"componentType":5126,"count":80,"max":[401.8114013671875,409.6773986816406,-1308.6182861328125],"min":[-76.2308349609375,-81.57335662841797,-1391.0738525390625],"type":"VEC3"},{"bufferView":1,"componentType":5126,"count":80,"type":"VEC3"},{"bufferView":2,"componentType":5126,"count":80,"type":"VEC2"},{"bufferView":3,"componentType":5123,"count":120,"type":"SCALAR"},{"bufferView":4,"componentType":5126,"count":1709,"max":[428.07373046875,429.04071044921875,-786.0869140625],"min":[-105.60234832763672,-104.7066879272461,-1482.0924072265625],"type":"VEC3"},{"bufferView":5,"componentType":5126,"count":1709,"type":"VEC3"},{"bufferView":6,"componentType":5126,"count":1709,"type":"VEC2"},{"bufferView":7,"componentType":5126,"count":1709,"type":"VEC2"},{"bufferView":8,"componentType":5123,"count":3012,"type":"SCALAR"},{"bufferView":9,"componentType":5126,"count":2509,"max":[199.37879943847656,613.2221069335938,-874.688232421875],"min":[58.21319580078125,272.03936767578125,-1006.6882934570312],"type":"VEC3"},{"bufferView":10,"componentType":5126,"count":2509,"type":"VEC3"},{"bufferView":11,"componentType":5126,"count":2509,"type":"VEC2"},{"bufferView":12,"componentType":5123,"count":4164,"type":"SCALAR"},{"bufferView":13,"componentType":5126,"count":2529,"max":[612.7354736328125,202.09910583496094,-874.688232421875],"min":[271.552734375,60.933502197265625,-1006.6882934570312],"type":"VEC3"},{"bufferView":14,"componentType":5126,"count":2529,"type":"VEC3"},{"bufferView":15,"componentType":5126,"count":2529,"type":"VEC2"},{"bufferView":16,"componentType":5123,"count":4164,"type":"SCALAR"},{"bufferView":17,"componentType":5126,"count":659,"max":[528.7947998046875,529.76171875,0],"min":[-41.5474853515625,-40.65179443359375,-1063.21923828125],"type":"VEC3"},{"bufferView":18,"componentType":5126,"count":659,"type":"VEC3"},{"bufferView":19,"componentType":5126,"count":659,"type":"VEC2"},{"bufferView":20,"componentType":5123,"count":1104,"type":"SCALAR"}],"bufferViews":[{"buffer":0,"byteLength":960,"byteOffset":0,"target":34962},{"buffer":0,"byteLength":960,"byteOffset":960,"target":34962},{"buffer":0,"byteLength":640,"byteOffset":1920,"target":34962},{"buffer":0,"byteLength":240,"byteOffset":2560,"target":34963},{"buffer":0,"byteLength":20508,"byteOffset":2800,"target":34962},{"buffer":0,"byteLength":20508,"byteOffset":23308,"target":34962},{"buffer":0,"byteLength":13672,"byteOffset":43816,"target":34962},{"buffer":0,"byteLength":13672,"byteOffset":57488,"target":34962},{"buffer":0,"byteLength":6024,"byteOffset":71160,"target":34963},{"buffer":0,"byteLength":30108,"byteOffset":77184,"target":34962},{"buffer":0,"byteLength":30108,"byteOffset":107292,"target":34962},{"buffer":0,"byteLength":20072,"byteOffset":137400,"target":34962},{"buffer":0,"byteLength":8328,"byteOffset":157472,"target":34963},{"buffer":0,"byteLength":30348,"byteOffset":165800,"target":34962},{"buffer":0,"byteLength":30348,"byteOffset":196148,"target":34962},{"buffer":0,"byteLength":20232,"byteOffset":226496,"target":34962},{"buffer":0,"byteLength":8328,"byteOffset":246728,"target":34963},{"buffer":0,"byteLength":7908,"byteOffset":255056,"target":34962},{"buffer":0,"byteLength":7908,"byteOffset":262964,"target":34962},{"buffer":0,"byteLength":5272,"byteOffset":270872,"target":34962},{"buffer":0,"byteLength":2208,"byteOffset":276144,"target":34963}],"samplers":[{"magFilter":9729,"minFilter":9987}],"buffers":[{"byteLength":278352,"uri":"worlds_SM_Bld_Corp_Wall_Tower_Corner_01.bin"}]}