{"asset":{"generator":"Khronos glTF Blender I/O v4.4.55","version":"2.0"},"extensionsUsed":["EXT_texture_webp"],"extensionsRequired":["EXT_texture_webp"],"scene":0,"scenes":[{"name":"Scene","nodes":[0]}],"nodes":[{"mesh":0,"name":"SM_Bld_Greeble_17","rotation":[0.7071068286895752,0,0,0.7071068286895752],"scale":[0.009999999776482582,0.009999999776482582,0.009999999776482582]}],"materials":[{"doubleSided":true,"name":"SciFiCrate_MAT","pbrMetallicRoughness":{"baseColorTexture":{"index":1},"metallicFactor":0,"roughnessFactor":0.5527864098548889}}],"meshes":[{"name":"Mesh","primitives":[{"attributes":{"POSITION":0,"NORMAL":1,"TEXCOORD_0":2},"indices":3,"material":0}]}],"textures":[{"extensions":{},"sampler":0},{"extensions":{"EXT_texture_webp":{"source":0}},"sampler":0}],"images":[{"mimeType":"image/webp","name":"PolygonScifiWorlds_Texture_01_A","uri":"PolygonScifiWorlds_Texture_01_A.webp"}],"accessors":[{"bufferView":0,"componentType":5126,"count":3162,"max":[85.55224609375,62.75927734375,0],"min":[-85.55224609375,-62.75927734375,-152.75131225585938],"type":"VEC3"},{"bufferView":1,"componentType":5126,"count":3162,"type":"VEC3"},{"bufferView":2,"componentType":5126,"count":3162,"type":"VEC2"},{"bufferView":3,"componentType":5123,"count":5268,"type":"SCALAR"}],"bufferViews":[{"buffer":0,"byteLength":37944,"byteOffset":0,"target":34962},{"buffer":0,"byteLength":37944,"byteOffset":37944,"target":34962},{"buffer":0,"byteLength":25296,"byteOffset":75888,"target":34962},{"buffer":0,"byteLength":10536,"byteOffset":101184,"target":34963}],"samplers":[{"magFilter":9729,"minFilter":9987}],"buffers":[{"byteLength":111720,"uri":"worlds_SM_Bld_Greeble_17.bin"}]}