{"asset":{"generator":"Khronos glTF Blender I/O v4.4.55","version":"2.0"},"extensionsUsed":["EXT_texture_webp"],"extensionsRequired":["EXT_texture_webp"],"scene":0,"scenes":[{"name":"Scene","nodes":[5]}],"nodes":[{"mesh":0,"name":"SM_Prop_Turret_Large_01_Barrel_l_01"},{"children":[0],"mesh":1,"name":"SM_Prop_Turret_Large_01_TurrerArm_l_01"},{"mesh":2,"name":"SM_Prop_Turret_Large_01_Barrel_r_01"},{"children":[2],"mesh":3,"name":"SM_Prop_Turret_Large_01_TurrerArm_r_01"},{"children":[1,3],"mesh":4,"name":"SM_Prop_Turret_Large_01_Top_01"},{"children":[4],"mesh":5,"name":"SM_Prop_Turret_Large_01","rotation":[0.7071068286895752,0,0,0.7071068286895752],"scale":[0.009999999776482582,0.009999999776482582,0.009999999776482582]}],"materials":[{"doubleSided":true,"name":"SciFiCrate_MAT","pbrMetallicRoughness":{"baseColorTexture":{"index":1},"metallicFactor":0,"roughnessFactor":0.5527864098548889}},{"doubleSided":true,"name":"SciFi_Planets_SHD","pbrMetallicRoughness":{"baseColorTexture":{"index":3},"metallicFactor":0,"roughnessFactor":0.5527864098548889}}],"meshes":[{"name":"Mesh.003","primitives":[{"attributes":{"POSITION":0,"NORMAL":1,"TEXCOORD_0":2},"indices":3,"material":0}]},{"name":"Mesh.002","primitives":[{"attributes":{"POSITION":4,"NORMAL":5,"TEXCOORD_0":6},"indices":7,"material":1},{"attributes":{"POSITION":8,"NORMAL":9,"TEXCOORD_0":10},"indices":11,"material":0}]},{"name":"Mesh.005","primitives":[{"attributes":{"POSITION":12,"NORMAL":13,"TEXCOORD_0":14},"indices":15,"material":0}]},{"name":"Mesh.004","primitives":[{"attributes":{"POSITION":16,"NORMAL":17,"TEXCOORD_0":18},"indices":19,"material":1},{"attributes":{"POSITION":20,"NORMAL":21,"TEXCOORD_0":22},"indices":23,"material":0}]},{"name":"Mesh.001","primitives":[{"attributes":{"POSITION":24,"NORMAL":25,"TEXCOORD_0":26},"indices":27,"material":0}]},{"name":"Mesh","primitives":[{"attributes":{"POSITION":28,"NORMAL":29,"TEXCOORD_0":30},"indices":31,"material":0}]}],"textures":[{"extensions":{},"sampler":0},{"extensions":{"EXT_texture_webp":{"source":0}},"sampler":0},{"extensions":{},"sampler":0},{"extensions":{"EXT_texture_webp":{"source":0}},"sampler":0}],"images":[{"mimeType":"image/webp","name":"PolygonScifiWorlds_Texture_01_A","uri":"PolygonScifiWorlds_Texture_01_A.webp"}],"accessors":[{"bufferView":0,"componentType":5126,"count":1245,"max":[118.23666381835938,349.63153076171875,-253.1903839111328],"min":[78.50814819335938,-77.43970489501953,-301.28521728515625],"type":"VEC3"},{"bufferView":1,"componentType":5126,"count":1245,"type":"VEC3"},{"bufferView":2,"componentType":5126,"count":1245,"type":"VEC2"},{"bufferView":3,"componentType":5123,"count":2178,"type":"SCALAR"},{"bufferView":4,"componentType":5126,"count":80,"max":[59.77836608886719,11.164831161499023,-245.5274658203125],"min":[36.48125457763672,-51.16484069824219,-307.85711669921875],"type":"VEC3"},{"bufferView":5,"componentType":5126,"count":80,"type":"VEC3"},{"bufferView":6,"componentType":5126,"count":80,"type":"VEC2"},{"bufferView":7,"componentType":5123,"count":144,"type":"SCALAR"},{"bufferView":8,"componentType":5126,"count":314,"max":[115.08920288085938,77.07976531982422,-223.12498474121094],"min":[51.640960693359375,-82.21314239501953,-331.3817443847656],"type":"VEC3"},{"bufferView":9,"componentType":5126,"count":314,"type":"VEC3"},{"bufferView":10,"componentType":5126,"count":314,"type":"VEC2"},{"bufferView":11,"componentType":5123,"count":564,"type":"SCALAR"},{"bufferView":12,"componentType":5126,"count":1245,"max":[-78.50814819335938,349.63153076171875,-253.1903839111328],"min":[-118.23666381835938,-77.43970489501953,-301.28521728515625],"type":"VEC3"},{"bufferView":13,"componentType":5126,"count":1245,"type":"VEC3"},{"bufferView":14,"componentType":5126,"count":1245,"type":"VEC2"},{"bufferView":15,"componentType":5123,"count":2178,"type":"SCALAR"},{"bufferView":16,"componentType":5126,"count":80,"max":[-36.48125457763672,11.164831161499023,-245.5274658203125],"min":[-59.77836608886719,-51.16484069824219,-307.85711669921875],"type":"VEC3"},{"bufferView":17,"componentType":5126,"count":80,"type":"VEC3"},{"bufferView":18,"componentType":5126,"count":80,"type":"VEC2"},{"bufferView":19,"componentType":5123,"count":144,"type":"SCALAR"},{"bufferView":20,"componentType":5126,"count":314,"max":[-51.640960693359375,77.07976531982422,-223.12498474121094],"min":[-115.08920288085938,-82.21314239501953,-331.3817443847656],"type":"VEC3"},{"bufferView":21,"componentType":5126,"count":314,"type":"VEC3"},{"bufferView":22,"componentType":5126,"count":314,"type":"VEC2"},{"bufferView":23,"componentType":5123,"count":564,"type":"SCALAR"},{"bufferView":24,"componentType":5126,"count":717,"max":[96.287109375,105.2919921875,-152.4678955078125],"min":[-96.287109375,-96.28656005859375,-323.0836486816406],"type":"VEC3"},{"bufferView":25,"componentType":5126,"count":717,"type":"VEC3"},{"bufferView":26,"componentType":5126,"count":717,"type":"VEC2"},{"bufferView":27,"componentType":5123,"count":1338,"type":"SCALAR"},{"bufferView":28,"componentType":5126,"count":1947,"max":[184.22265625,184.22314453125,-2.98027771350462e-08],"min":[-184.22314453125,-184.22308349609375,-169.94284057617188],"type":"VEC3"},{"bufferView":29,"componentType":5126,"count":1947,"type":"VEC3"},{"bufferView":30,"componentType":5126,"count":1947,"type":"VEC2"},{"bufferView":31,"componentType":5123,"count":3186,"type":"SCALAR"}],"bufferViews":[{"buffer":0,"byteLength":14940,"byteOffset":0,"target":34962},{"buffer":0,"byteLength":14940,"byteOffset":14940,"target":34962},{"buffer":0,"byteLength":9960,"byteOffset":29880,"target":34962},{"buffer":0,"byteLength":4356,"byteOffset":39840,"target":34963},{"buffer":0,"byteLength":960,"byteOffset":44196,"target":34962},{"buffer":0,"byteLength":960,"byteOffset":45156,"target":34962},{"buffer":0,"byteLength":640,"byteOffset":46116,"target":34962},{"buffer":0,"byteLength":288,"byteOffset":46756,"target":34963},{"buffer":0,"byteLength":3768,"byteOffset":47044,"target":34962},{"buffer":0,"byteLength":3768,"byteOffset":50812,"target":34962},{"buffer":0,"byteLength":2512,"byteOffset":54580,"target":34962},{"buffer":0,"byteLength":1128,"byteOffset":57092,"target":34963},{"buffer":0,"byteLength":14940,"byteOffset":58220,"target":34962},{"buffer":0,"byteLength":14940,"byteOffset":73160,"target":34962},{"buffer":0,"byteLength":9960,"byteOffset":88100,"target":34962},{"buffer":0,"byteLength":4356,"byteOffset":98060,"target":34963},{"buffer":0,"byteLength":960,"byteOffset":102416,"target":34962},{"buffer":0,"byteLength":960,"byteOffset":103376,"target":34962},{"buffer":0,"byteLength":640,"byteOffset":104336,"target":34962},{"buffer":0,"byteLength":288,"byteOffset":104976,"target":34963},{"buffer":0,"byteLength":3768,"byteOffset":105264,"target":34962},{"buffer":0,"byteLength":3768,"byteOffset":109032,"target":34962},{"buffer":0,"byteLength":2512,"byteOffset":112800,"target":34962},{"buffer":0,"byteLength":1128,"byteOffset":115312,"target":34963},{"buffer":0,"byteLength":8604,"byteOffset":116440,"target":34962},{"buffer":0,"byteLength":8604,"byteOffset":125044,"target":34962},{"buffer":0,"byteLength":5736,"byteOffset":133648,"target":34962},{"buffer":0,"byteLength":2676,"byteOffset":139384,"target":34963},{"buffer":0,"byteLength":23364,"byteOffset":142060,"target":34962},{"buffer":0,"byteLength":23364,"byteOffset":165424,"target":34962},{"buffer":0,"byteLength":15576,"byteOffset":188788,"target":34962},{"buffer":0,"byteLength":6372,"byteOffset":204364,"target":34963}],"samplers":[{"magFilter":9729,"minFilter":9987}],"buffers":[{"byteLength":210736,"uri":"worlds_SM_Prop_Turret_Large_01.bin"}]}