{"asset":{"generator":"Khronos glTF Blender I/O v4.4.55","version":"2.0"},"extensionsUsed":["EXT_texture_webp"],"extensionsRequired":["EXT_texture_webp"],"scene":0,"scenes":[{"name":"Scene","nodes":[0]}],"nodes":[{"mesh":0,"name":"SM_Prop_Scav_Scrap_45","rotation":[0.7071068286895752,0,0,0.7071068286895752],"scale":[0.009999999776482582,0.009999999776482582,0.009999999776482582]}],"materials":[{"doubleSided":true,"name":"SciFi_Planets_SHD","pbrMetallicRoughness":{"baseColorTexture":{"index":1},"metallicFactor":0,"roughnessFactor":0.5527864098548889}}],"meshes":[{"name":"Mesh","primitives":[{"attributes":{"POSITION":0,"NORMAL":1,"TEXCOORD_0":2},"indices":3,"material":0}]}],"textures":[{"extensions":{},"sampler":0},{"extensions":{"EXT_texture_webp":{"source":0}},"sampler":0}],"images":[{"mimeType":"image/webp","name":"PolygonScifiWorlds_Texture_01_A","uri":"PolygonScifiWorlds_Texture_01_A.webp"}],"accessors":[{"bufferView":0,"componentType":5126,"count":1632,"max":[47.74488830566406,136.04058837890625,44.53557586669922],"min":[-47.43632507324219,-136.04058837890625,-48.807613372802734],"type":"VEC3"},{"bufferView":1,"componentType":5126,"count":1632,"type":"VEC3"},{"bufferView":2,"componentType":5126,"count":1632,"type":"VEC2"},{"bufferView":3,"componentType":5123,"count":2424,"type":"SCALAR"}],"bufferViews":[{"buffer":0,"byteLength":19584,"byteOffset":0,"target":34962},{"buffer":0,"byteLength":19584,"byteOffset":19584,"target":34962},{"buffer":0,"byteLength":13056,"byteOffset":39168,"target":34962},{"buffer":0,"byteLength":4848,"byteOffset":52224,"target":34963}],"samplers":[{"magFilter":9729,"minFilter":9987}],"buffers":[{"byteLength":57072,"uri":"worlds_SM_Prop_Scav_Scrap_45.bin"}]}