{"asset":{"generator":"Khronos glTF Blender I/O v4.4.55","version":"2.0"},"extensionsUsed":["EXT_texture_webp"],"extensionsRequired":["EXT_texture_webp"],"scene":0,"scenes":[{"name":"Scene","nodes":[4]}],"nodes":[{"mesh":0,"name":"SM_Veh_Hover_Bike_02_FootRests_01"},{"mesh":1,"name":"SM_Veh_Hover_Bike_02_Handle_Bars_01"},{"mesh":2,"name":"SM_Veh_Hover_Bike_02_Seat_01"},{"mesh":3,"name":"SM_Veh_Hover_Bike_02_Steering_01","rotation":[-0.46783730387687683,0,0,0.8838146328926086],"translation":[0,44.919960021972656,166.52561950683594]},{"children":[0,1,2,3],"mesh":4,"name":"SM_Veh_Hover_Bike_02","rotation":[0.7071068286895752,0,0,0.7071068286895752],"scale":[0.009999999776482582,0.009999999776482582,0.009999999776482582]}],"materials":[{"doubleSided":true,"name":"SciFi_Planets_SHD","pbrMetallicRoughness":{"baseColorTexture":{"index":1},"metallicFactor":0,"roughnessFactor":0.5527864098548889}}],"meshes":[{"name":"Mesh.003","primitives":[{"attributes":{"POSITION":0,"NORMAL":1,"TEXCOORD_0":2},"indices":3,"material":0}]},{"name":"Mesh.002","primitives":[{"attributes":{"POSITION":4,"NORMAL":5,"TEXCOORD_0":6},"indices":7,"material":0}]},{"name":"Mesh.004","primitives":[{"attributes":{"POSITION":8,"NORMAL":9,"TEXCOORD_0":10},"indices":11,"material":0}]},{"name":"Mesh.001","primitives":[{"attributes":{"POSITION":12,"NORMAL":13,"TEXCOORD_0":14},"indices":15,"material":0}]},{"name":"Mesh","primitives":[{"attributes":{"POSITION":16,"NORMAL":17,"TEXCOORD_0":18},"indices":19,"material":0}]}],"textures":[{"extensions":{},"sampler":0},{"extensions":{"EXT_texture_webp":{"source":0}},"sampler":0}],"images":[{"mimeType":"image/webp","name":"PolygonScifiWorlds_Texture_01_A","uri":"PolygonScifiWorlds_Texture_01_A.webp"}],"accessors":[{"bufferView":0,"componentType":5126,"count":264,"max":[38.090309143066406,13.452093124389648,38.104148864746094],"min":[-38.090309143066406,-17.00257110595703,24.740636825561523],"type":"VEC3"},{"bufferView":1,"componentType":5126,"count":264,"type":"VEC3"},{"bufferView":2,"componentType":5126,"count":264,"type":"VEC2"},{"bufferView":3,"componentType":5123,"count":432,"type":"SCALAR"},{"bufferView":4,"componentType":5126,"count":724,"max":[51.79249572753906,43.11741638183594,-39.71940231323242],"min":[-51.79249572753906,13.017280578613281,-63.106842041015625],"type":"VEC3"},{"bufferView":5,"componentType":5126,"count":724,"type":"VEC3"},{"bufferView":6,"componentType":5126,"count":724,"type":"VEC2"},{"bufferView":7,"componentType":5123,"count":1080,"type":"SCALAR"},{"bufferView":8,"componentType":5126,"count":424,"max":[14.371749877929688,0.7103605270385742,-14.90091609954834],"min":[-14.371749877929688,-96.85063171386719,-48.11399841308594],"type":"VEC3"},{"bufferView":9,"componentType":5126,"count":424,"type":"VEC3"},{"bufferView":10,"componentType":5126,"count":424,"type":"VEC2"},{"bufferView":11,"componentType":5123,"count":690,"type":"SCALAR"},{"bufferView":12,"componentType":5126,"count":712,"max":[26.508651733398438,221.64332580566406,110.14915466308594],"min":[-26.508651733398438,147.22799682617188,-34.381927490234375],"type":"VEC3"},{"bufferView":13,"componentType":5126,"count":712,"type":"VEC3"},{"bufferView":14,"componentType":5126,"count":712,"type":"VEC2"},{"bufferView":15,"componentType":5123,"count":1068,"type":"SCALAR"},{"bufferView":16,"componentType":5126,"count":7776,"max":[33.30730438232422,174.83535766601562,51.68639373779297],"min":[-33.30730438232422,-180.5782928466797,-74.81834411621094],"type":"VEC3"},{"bufferView":17,"componentType":5126,"count":7776,"type":"VEC3"},{"bufferView":18,"componentType":5126,"count":7776,"type":"VEC2"},{"bufferView":19,"componentType":5123,"count":12126,"type":"SCALAR"}],"bufferViews":[{"buffer":0,"byteLength":3168,"byteOffset":0,"target":34962},{"buffer":0,"byteLength":3168,"byteOffset":3168,"target":34962},{"buffer":0,"byteLength":2112,"byteOffset":6336,"target":34962},{"buffer":0,"byteLength":864,"byteOffset":8448,"target":34963},{"buffer":0,"byteLength":8688,"byteOffset":9312,"target":34962},{"buffer":0,"byteLength":8688,"byteOffset":18000,"target":34962},{"buffer":0,"byteLength":5792,"byteOffset":26688,"target":34962},{"buffer":0,"byteLength":2160,"byteOffset":32480,"target":34963},{"buffer":0,"byteLength":5088,"byteOffset":34640,"target":34962},{"buffer":0,"byteLength":5088,"byteOffset":39728,"target":34962},{"buffer":0,"byteLength":3392,"byteOffset":44816,"target":34962},{"buffer":0,"byteLength":1380,"byteOffset":48208,"target":34963},{"buffer":0,"byteLength":8544,"byteOffset":49588,"target":34962},{"buffer":0,"byteLength":8544,"byteOffset":58132,"target":34962},{"buffer":0,"byteLength":5696,"byteOffset":66676,"target":34962},{"buffer":0,"byteLength":2136,"byteOffset":72372,"target":34963},{"buffer":0,"byteLength":93312,"byteOffset":74508,"target":34962},{"buffer":0,"byteLength":93312,"byteOffset":167820,"target":34962},{"buffer":0,"byteLength":62208,"byteOffset":261132,"target":34962},{"buffer":0,"byteLength":24252,"byteOffset":323340,"target":34963}],"samplers":[{"magFilter":9729,"minFilter":9987}],"buffers":[{"byteLength":347592,"uri":"worlds_SM_Veh_Hover_Bike_02.bin"}]}