{
	"asset":{
		"generator":"Khronos glTF Blender I/O v4.4.55",
		"version":"2.0"
	},
	"extensionsUsed":[
		"EXT_texture_webp"
	],
	"extensionsRequired":[
		"EXT_texture_webp"
	],
	"scene":0,
	"scenes":[
		{
			"name":"Scene",
			"nodes":[
				0
			]
		}
	],
	"nodes":[
		{
			"mesh":0,
			"name":"SM_Prop_Hydroponic_Plant_02",
			"rotation":[
				0.7071068286895752,
				0,
				0,
				0.7071068286895752
			],
			"scale":[
				0.009999999776482582,
				0.009999999776482582,
				0.009999999776482582
			]
		}
	],
	"materials":[
		{
			"doubleSided":true,
			"name":"Base_Lambert1",
			"pbrMetallicRoughness":{
				"baseColorTexture":{
					"index":0
				},
				"metallicFactor":0,
				"roughnessFactor":0.5527864098548889
			}
		}
	],
	"meshes":[
		{
			"name":"Mesh",
			"primitives":[
				{
					"attributes":{
						"POSITION":0,
						"NORMAL":1,
						"TEXCOORD_0":2
					},
					"indices":3,
					"material":0
				}
			]
		}
	],
	"textures":[
		{
			"extensions":{
				"EXT_texture_webp":{
					"source":0
				}
			},
			"sampler":0
		}
	],
	"images":[
		{
			"mimeType":"image/webp",
			"name":"PolygonScifiWorlds_Texture_01_A",
			"uri":"PolygonScifiWorlds_Texture_01_A.webp"
		}
	],
	"accessors":[
		{
			"bufferView":0,
			"componentType":5126,
			"count":2224,
			"max":[
				78.9636459350586,
				64.95846557617188,
				7.947150230407715
			],
			"min":[
				-78.96366119384766,
				-64.95849609375,
				-188.73226928710938
			],
			"type":"VEC3"
		},
		{
			"bufferView":1,
			"componentType":5126,
			"count":2224,
			"type":"VEC3"
		},
		{
			"bufferView":2,
			"componentType":5126,
			"count":2224,
			"type":"VEC2"
		},
		{
			"bufferView":3,
			"componentType":5123,
			"count":3078,
			"type":"SCALAR"
		}
	],
	"bufferViews":[
		{
			"buffer":0,
			"byteLength":26688,
			"byteOffset":0,
			"target":34962
		},
		{
			"buffer":0,
			"byteLength":26688,
			"byteOffset":26688,
			"target":34962
		},
		{
			"buffer":0,
			"byteLength":17792,
			"byteOffset":53376,
			"target":34962
		},
		{
			"buffer":0,
			"byteLength":6156,
			"byteOffset":71168,
			"target":34963
		}
	],
	"samplers":[
		{
			"magFilter":9729,
			"minFilter":9987
		}
	],
	"buffers":[
		{
			"byteLength":77324,
			"uri":"worlds_SM_Prop_Hydroponic_Plant_02.bin"
		}
	]
}
