{"asset":{"generator":"Khronos glTF Blender I/O v4.4.55","version":"2.0"},"extensionsUsed":["EXT_texture_webp"],"extensionsRequired":["EXT_texture_webp"],"scene":0,"scenes":[{"name":"Scene","nodes":[1]}],"nodes":[{"mesh":0,"name":"SM_Env_Artifact_AlienRuin_05_Cables_01"},{"children":[0],"mesh":1,"name":"SM_Env_Artifact_AlienRuin_05","rotation":[0.7071068286895752,0,0,0.7071068286895752],"scale":[0.009999999776482582,0.009999999776482582,0.009999999776482582]}],"materials":[{"doubleSided":true,"name":"SciFiCrate_MAT","pbrMetallicRoughness":{"baseColorTexture":{"index":1},"metallicFactor":0,"roughnessFactor":0.5527864098548889}}],"meshes":[{"name":"Mesh.001","primitives":[{"attributes":{"POSITION":0,"NORMAL":1,"TEXCOORD_0":2},"indices":3,"material":0}]},{"name":"Mesh","primitives":[{"attributes":{"POSITION":4,"NORMAL":5,"TEXCOORD_0":6},"indices":7,"material":0}]}],"textures":[{"extensions":{},"sampler":0},{"extensions":{"EXT_texture_webp":{"source":0}},"sampler":0}],"images":[{"mimeType":"image/webp","name":"PolygonScifiWorlds_Texture_01_A","uri":"PolygonScifiWorlds_Texture_01_A.webp"}],"accessors":[{"bufferView":0,"componentType":5126,"count":1432,"max":[584.7716064453125,93.39198303222656,0.1741180419921875],"min":[-584.4317626953125,-88.62580108642578,-3652.282958984375],"type":"VEC3"},{"bufferView":1,"componentType":5126,"count":1432,"type":"VEC3"},{"bufferView":2,"componentType":5126,"count":1432,"type":"VEC2"},{"bufferView":3,"componentType":5123,"count":2286,"type":"SCALAR"},{"bufferView":4,"componentType":5126,"count":2431,"max":[1250.0587158203125,516.4407348632812,33.88291931152344],"min":[-1250.0587158203125,-516.4407348632812,-3670.493408203125],"type":"VEC3"},{"bufferView":5,"componentType":5126,"count":2431,"type":"VEC3"},{"bufferView":6,"componentType":5126,"count":2431,"type":"VEC2"},{"bufferView":7,"componentType":5123,"count":4860,"type":"SCALAR"}],"bufferViews":[{"buffer":0,"byteLength":17184,"byteOffset":0,"target":34962},{"buffer":0,"byteLength":17184,"byteOffset":17184,"target":34962},{"buffer":0,"byteLength":11456,"byteOffset":34368,"target":34962},{"buffer":0,"byteLength":4572,"byteOffset":45824,"target":34963},{"buffer":0,"byteLength":29172,"byteOffset":50396,"target":34962},{"buffer":0,"byteLength":29172,"byteOffset":79568,"target":34962},{"buffer":0,"byteLength":19448,"byteOffset":108740,"target":34962},{"buffer":0,"byteLength":9720,"byteOffset":128188,"target":34963}],"samplers":[{"magFilter":9729,"minFilter":9987}],"buffers":[{"byteLength":137908,"uri":"worlds_SM_Env_Artifact_AlienRuin_05.bin"}]}