{"asset":{"generator":"Khronos glTF Blender I/O v4.4.55","version":"2.0"},"extensionsUsed":["EXT_texture_webp"],"extensionsRequired":["EXT_texture_webp"],"scene":0,"scenes":[{"name":"Scene","nodes":[1]}],"nodes":[{"mesh":0,"name":"SM_Wep_Launcher_01_Trigger_01"},{"children":[0],"mesh":1,"name":"SM_Wep_Launcher_01","rotation":[0.7071068286895752,0,0,0.7071068286895752],"scale":[0.009999999776482582,0.009999999776482582,0.009999999776482582]}],"materials":[{"doubleSided":true,"name":"Clip1:SM_Prop_Crate_03SG1","pbrMetallicRoughness":{"baseColorTexture":{"index":1},"metallicFactor":0,"roughnessFactor":0.5527864098548889}}],"meshes":[{"name":"Mesh.001","primitives":[{"attributes":{"POSITION":0,"NORMAL":1,"TEXCOORD_0":2},"indices":3,"material":0}]},{"name":"Mesh","primitives":[{"attributes":{"POSITION":4,"NORMAL":5,"TEXCOORD_0":6},"indices":7,"material":0}]}],"textures":[{"extensions":{},"sampler":0},{"extensions":{"EXT_texture_webp":{"source":0}},"sampler":0}],"images":[{"mimeType":"image/webp","name":"PolygonScifiWorlds_Texture_01_A","uri":"PolygonScifiWorlds_Texture_01_A.webp"}],"accessors":[{"bufferView":0,"componentType":5126,"count":80,"max":[0.3641471862792969,8.738506317138672,3.600094795227051],"min":[-0.3641471862792969,2.1149840354919434,-2.4882984161376953],"type":"VEC3"},{"bufferView":1,"componentType":5126,"count":80,"type":"VEC3"},{"bufferView":2,"componentType":5126,"count":80,"type":"VEC2"},{"bufferView":3,"componentType":5123,"count":132,"type":"SCALAR"},{"bufferView":4,"componentType":5126,"count":6082,"max":[15.28787899017334,68.67543029785156,14.955170631408691],"min":[-15.28787899017334,-80.07935333251953,-53.369911193847656],"type":"VEC3"},{"bufferView":5,"componentType":5126,"count":6082,"type":"VEC3"},{"bufferView":6,"componentType":5126,"count":6082,"type":"VEC2"},{"bufferView":7,"componentType":5123,"count":10062,"type":"SCALAR"}],"bufferViews":[{"buffer":0,"byteLength":960,"byteOffset":0,"target":34962},{"buffer":0,"byteLength":960,"byteOffset":960,"target":34962},{"buffer":0,"byteLength":640,"byteOffset":1920,"target":34962},{"buffer":0,"byteLength":264,"byteOffset":2560,"target":34963},{"buffer":0,"byteLength":72984,"byteOffset":2824,"target":34962},{"buffer":0,"byteLength":72984,"byteOffset":75808,"target":34962},{"buffer":0,"byteLength":48656,"byteOffset":148792,"target":34962},{"buffer":0,"byteLength":20124,"byteOffset":197448,"target":34963}],"samplers":[{"magFilter":9729,"minFilter":9987}],"buffers":[{"byteLength":217572,"uri":"worlds_SM_Wep_Launcher_01.bin"}]}