{"asset":{"generator":"Khronos glTF Blender I/O v4.4.55","version":"2.0"},"extensionsUsed":["EXT_texture_webp"],"extensionsRequired":["EXT_texture_webp"],"scene":0,"scenes":[{"name":"Scene","nodes":[0]}],"nodes":[{"mesh":0,"name":"SM_Wep_Scope_Small_02","rotation":[0.7071068286895752,0,0,0.7071068286895752],"scale":[0.009999999776482582,0.009999999776482582,0.009999999776482582]}],"materials":[{"doubleSided":true,"name":"Clip1:SM_Prop_Crate_03SG5","pbrMetallicRoughness":{"baseColorTexture":{"index":1},"metallicFactor":0,"roughnessFactor":0.5527864098548889}}],"meshes":[{"name":"Mesh","primitives":[{"attributes":{"POSITION":0,"NORMAL":1,"TEXCOORD_0":2},"indices":3,"material":0}]}],"textures":[{"extensions":{},"sampler":0},{"extensions":{"EXT_texture_webp":{"source":0}},"sampler":0}],"images":[{"mimeType":"image/webp","name":"PolygonScifiWorlds_Texture_01_A","uri":"PolygonScifiWorlds_Texture_01_A.webp"}],"accessors":[{"bufferView":0,"componentType":5126,"count":721,"max":[3.7637481689453125,8.313346862792969,4.571775436401367],"min":[-3.76373291015625,-8.313331604003906,-4.571775436401367],"type":"VEC3"},{"bufferView":1,"componentType":5126,"count":721,"type":"VEC3"},{"bufferView":2,"componentType":5126,"count":721,"type":"VEC2"},{"bufferView":3,"componentType":5123,"count":1116,"type":"SCALAR"}],"bufferViews":[{"buffer":0,"byteLength":8652,"byteOffset":0,"target":34962},{"buffer":0,"byteLength":8652,"byteOffset":8652,"target":34962},{"buffer":0,"byteLength":5768,"byteOffset":17304,"target":34962},{"buffer":0,"byteLength":2232,"byteOffset":23072,"target":34963}],"samplers":[{"magFilter":9729,"minFilter":9987}],"buffers":[{"byteLength":25304,"uri":"worlds_SM_Wep_Scope_Small_02.bin"}]}