{"asset":{"generator":"Khronos glTF Blender I/O v4.4.55","version":"2.0"},"extensionsUsed":["EXT_texture_webp"],"extensionsRequired":["EXT_texture_webp"],"scene":0,"scenes":[{"name":"Scene","nodes":[2]}],"nodes":[{"mesh":0,"name":"SM_Prop_Chair_02_Backrest_01"},{"children":[0],"mesh":1,"name":"SM_Prop_Chair_02_Pivot_01"},{"children":[1],"mesh":2,"name":"SM_Prop_Chair_02","rotation":[0.7071068286895752,0,0,0.7071068286895752],"scale":[0.009999999776482582,0.009999999776482582,0.009999999776482582]}],"materials":[{"doubleSided":true,"name":"SciFi_Planets_SHD","pbrMetallicRoughness":{"baseColorTexture":{"index":1},"metallicFactor":0,"roughnessFactor":0.5527864098548889}}],"meshes":[{"name":"Mesh.002","primitives":[{"attributes":{"POSITION":0,"NORMAL":1,"TEXCOORD_0":2},"indices":3,"material":0}]},{"name":"Mesh.001","primitives":[{"attributes":{"POSITION":4,"NORMAL":5,"TEXCOORD_0":6},"indices":7,"material":0}]},{"name":"Mesh","primitives":[{"attributes":{"POSITION":8,"NORMAL":9,"TEXCOORD_0":10},"indices":11,"material":0}]}],"textures":[{"extensions":{},"sampler":0},{"extensions":{"EXT_texture_webp":{"source":0}},"sampler":0}],"images":[{"mimeType":"image/webp","name":"PolygonScifiWorlds_Texture_01_A","uri":"PolygonScifiWorlds_Texture_01_A.webp"}],"accessors":[{"bufferView":0,"componentType":5126,"count":442,"max":[24.6214599609375,-18.922922134399414,-51.3008918762207],"min":[-24.6214599609375,-41.22595977783203,-102.5825424194336],"type":"VEC3"},{"bufferView":1,"componentType":5126,"count":442,"type":"VEC3"},{"bufferView":2,"componentType":5126,"count":442,"type":"VEC2"},{"bufferView":3,"componentType":5123,"count":708,"type":"SCALAR"},{"bufferView":4,"componentType":5126,"count":581,"max":[26.583332061767578,25.513656616210938,-27.643447875976562],"min":[-26.583332061767578,-36.45219039916992,-69.89686584472656],"type":"VEC3"},{"bufferView":5,"componentType":5126,"count":581,"type":"VEC3"},{"bufferView":6,"componentType":5126,"count":581,"type":"VEC2"},{"bufferView":7,"componentType":5123,"count":876,"type":"SCALAR"},{"bufferView":8,"componentType":5126,"count":430,"max":[29.69287109375,17.662673950195312,0],"min":[-29.69287109375,-33.76689147949219,-42.08592224121094],"type":"VEC3"},{"bufferView":9,"componentType":5126,"count":430,"type":"VEC3"},{"bufferView":10,"componentType":5126,"count":430,"type":"VEC2"},{"bufferView":11,"componentType":5123,"count":732,"type":"SCALAR"}],"bufferViews":[{"buffer":0,"byteLength":5304,"byteOffset":0,"target":34962},{"buffer":0,"byteLength":5304,"byteOffset":5304,"target":34962},{"buffer":0,"byteLength":3536,"byteOffset":10608,"target":34962},{"buffer":0,"byteLength":1416,"byteOffset":14144,"target":34963},{"buffer":0,"byteLength":6972,"byteOffset":15560,"target":34962},{"buffer":0,"byteLength":6972,"byteOffset":22532,"target":34962},{"buffer":0,"byteLength":4648,"byteOffset":29504,"target":34962},{"buffer":0,"byteLength":1752,"byteOffset":34152,"target":34963},{"buffer":0,"byteLength":5160,"byteOffset":35904,"target":34962},{"buffer":0,"byteLength":5160,"byteOffset":41064,"target":34962},{"buffer":0,"byteLength":3440,"byteOffset":46224,"target":34962},{"buffer":0,"byteLength":1464,"byteOffset":49664,"target":34963}],"samplers":[{"magFilter":9729,"minFilter":9987}],"buffers":[{"byteLength":51128,"uri":"worlds_SM_Prop_Chair_02.bin"}]}