{"asset":{"generator":"Khronos glTF Blender I/O v4.4.55","version":"2.0"},"extensionsUsed":["EXT_texture_webp"],"extensionsRequired":["EXT_texture_webp"],"scene":0,"scenes":[{"name":"Scene","nodes":[15]}],"nodes":[{"mesh":0,"name":"SM_Veh_HoverTank_HoverPad_1.003"},{"mesh":1,"name":"SM_Veh_HoverTank_HoverPad_2.003"},{"children":[0,1],"mesh":2,"name":"SM_Veh_HoverTank_02_lf"},{"mesh":3,"name":"SM_Veh_HoverTank_HoverPad_1.002"},{"mesh":4,"name":"SM_Veh_HoverTank_HoverPad_2.002"},{"children":[3,4],"mesh":5,"name":"SM_Veh_HoverTank_02_lr"},{"mesh":6,"name":"SM_Veh_HoverTank_HoverPad_1.001"},{"mesh":7,"name":"SM_Veh_HoverTank_HoverPad_2.001"},{"children":[6,7],"mesh":8,"name":"SM_Veh_HoverTank_02_rf"},{"mesh":9,"name":"SM_Veh_HoverTank_HoverPad_1"},{"mesh":10,"name":"SM_Veh_HoverTank_HoverPad_2"},{"children":[9,10],"mesh":11,"name":"SM_Veh_HoverTank_02_rr"},{"mesh":12,"name":"SM_Veh_HoverTank_02_Barrel_01"},{"mesh":13,"name":"SM_Veh_HoverTank_02_Hatch_01"},{"children":[12,13],"mesh":14,"name":"SM_Veh_HoverTank_02_Turret_01"},{"children":[2,5,8,11,14],"mesh":15,"name":"SM_Veh_HoverTank_02","rotation":[0.7071068286895752,0,0,0.7071068286895752],"scale":[0.009999999776482582,0.009999999776482582,0.009999999776482582]}],"materials":[{"doubleSided":true,"name":"SciFi_Planets_SHD","pbrMetallicRoughness":{"baseColorTexture":{"index":1},"metallicFactor":0,"roughnessFactor":0.5527864098548889}}],"meshes":[{"name":"Mesh.014","primitives":[{"attributes":{"POSITION":0,"NORMAL":1,"TEXCOORD_0":2},"indices":3,"material":0}]},{"name":"Mesh.015","primitives":[{"attributes":{"POSITION":4,"NORMAL":5,"TEXCOORD_0":6},"indices":7,"material":0}]},{"name":"Mesh.013","primitives":[{"attributes":{"POSITION":8,"NORMAL":9,"TEXCOORD_0":10},"indices":11,"material":0}]},{"name":"Mesh.011","primitives":[{"attributes":{"POSITION":12,"NORMAL":13,"TEXCOORD_0":14},"indices":15,"material":0}]},{"name":"Mesh.012","primitives":[{"attributes":{"POSITION":16,"NORMAL":17,"TEXCOORD_0":18},"indices":19,"material":0}]},{"name":"Mesh.010","primitives":[{"attributes":{"POSITION":20,"NORMAL":21,"TEXCOORD_0":22},"indices":23,"material":0}]},{"name":"Mesh.008","primitives":[{"attributes":{"POSITION":24,"NORMAL":25,"TEXCOORD_0":26},"indices":27,"material":0}]},{"name":"Mesh.009","primitives":[{"attributes":{"POSITION":28,"NORMAL":29,"TEXCOORD_0":30},"indices":31,"material":0}]},{"name":"Mesh.007","primitives":[{"attributes":{"POSITION":32,"NORMAL":33,"TEXCOORD_0":34},"indices":35,"material":0}]},{"name":"Mesh.005","primitives":[{"attributes":{"POSITION":36,"NORMAL":37,"TEXCOORD_0":38},"indices":39,"material":0}]},{"name":"Mesh.006","primitives":[{"attributes":{"POSITION":40,"NORMAL":41,"TEXCOORD_0":42},"indices":43,"material":0}]},{"name":"Mesh.004","primitives":[{"attributes":{"POSITION":44,"NORMAL":45,"TEXCOORD_0":46},"indices":47,"material":0}]},{"name":"Mesh.002","primitives":[{"attributes":{"POSITION":48,"NORMAL":49,"TEXCOORD_0":50},"indices":51,"material":0}]},{"name":"Mesh.003","primitives":[{"attributes":{"POSITION":52,"NORMAL":53,"TEXCOORD_0":54},"indices":55,"material":0}]},{"name":"Mesh.001","primitives":[{"attributes":{"POSITION":56,"NORMAL":57,"TEXCOORD_0":58},"indices":59,"material":0}]},{"name":"Mesh","primitives":[{"attributes":{"POSITION":60,"NORMAL":61,"TEXCOORD_0":62},"indices":63,"material":0}]}],"textures":[{"extensions":{},"sampler":0},{"extensions":{"EXT_texture_webp":{"source":0}},"sampler":0}],"images":[{"mimeType":"image/webp","name":"PolygonScifiWorlds_Texture_01_A","uri":"PolygonScifiWorlds_Texture_01_A.webp"}],"accessors":[{"bufferView":0,"componentType":5126,"count":624,"max":[321.1630859375,312.71630859375,0.51251220703125],"min":[216.357421875,207.826171875,-131.08843994140625],"type":"VEC3"},{"bufferView":1,"componentType":5126,"count":624,"type":"VEC3"},{"bufferView":2,"componentType":5126,"count":624,"type":"VEC2"},{"bufferView":3,"componentType":5123,"count":972,"type":"SCALAR"},{"bufferView":4,"componentType":5126,"count":621,"max":[321.1630859375,189.1513671875,0.51251220703125],"min":[216.357421875,84.26123046875,-131.08843994140625],"type":"VEC3"},{"bufferView":5,"componentType":5126,"count":621,"type":"VEC3"},{"bufferView":6,"componentType":5126,"count":621,"type":"VEC2"},{"bufferView":7,"componentType":5123,"count":972,"type":"SCALAR"},{"bufferView":8,"componentType":5126,"count":824,"max":[380.744140625,334.1484375,-11.830230712890625],"min":[139.7958984375,70.56298828125,-188.4046173095703],"type":"VEC3"},{"bufferView":9,"componentType":5126,"count":824,"type":"VEC3"},{"bufferView":10,"componentType":5126,"count":824,"type":"VEC2"},{"bufferView":11,"componentType":5123,"count":1434,"type":"SCALAR"},{"bufferView":12,"componentType":5126,"count":616,"max":[334.15234375,-112.70751953125,0.51251220703125],"min":[229.3447265625,-217.59716796875,-131.08843994140625],"type":"VEC3"},{"bufferView":13,"componentType":5126,"count":616,"type":"VEC3"},{"bufferView":14,"componentType":5126,"count":616,"type":"VEC2"},{"bufferView":15,"componentType":5123,"count":972,"type":"SCALAR"},{"bufferView":16,"componentType":5126,"count":618,"max":[334.15234375,-236.27197265625,0.51251220703125],"min":[229.3447265625,-341.16259765625,-131.08843994140625],"type":"VEC3"},{"bufferView":17,"componentType":5126,"count":618,"type":"VEC3"},{"bufferView":18,"componentType":5126,"count":618,"type":"VEC2"},{"bufferView":19,"componentType":5123,"count":972,"type":"SCALAR"},{"bufferView":20,"componentType":5126,"count":818,"max":[393.734375,-91.27490234375,-11.830230712890625],"min":[152.7841796875,-354.8603515625,-188.4046173095703],"type":"VEC3"},{"bufferView":21,"componentType":5126,"count":818,"type":"VEC3"},{"bufferView":22,"componentType":5126,"count":818,"type":"VEC2"},{"bufferView":23,"componentType":5123,"count":1434,"type":"SCALAR"},{"bufferView":24,"componentType":5126,"count":619,"max":[-216.35546875,312.71630859375,0.51251220703125],"min":[-321.1630859375,207.826171875,-131.08843994140625],"type":"VEC3"},{"bufferView":25,"componentType":5126,"count":619,"type":"VEC3"},{"bufferView":26,"componentType":5126,"count":619,"type":"VEC2"},{"bufferView":27,"componentType":5123,"count":972,"type":"SCALAR"},{"bufferView":28,"componentType":5126,"count":616,"max":[-216.35546875,189.1513671875,0.51251220703125],"min":[-321.1630859375,84.26123046875,-131.08843994140625],"type":"VEC3"},{"bufferView":29,"componentType":5126,"count":616,"type":"VEC3"},{"bufferView":30,"componentType":5126,"count":616,"type":"VEC2"},{"bufferView":31,"componentType":5123,"count":972,"type":"SCALAR"},{"bufferView":32,"componentType":5126,"count":831,"max":[-139.7958984375,334.1484375,-11.830230712890625],"min":[-380.744140625,70.56298828125,-188.4046173095703],"type":"VEC3"},{"bufferView":33,"componentType":5126,"count":831,"type":"VEC3"},{"bufferView":34,"componentType":5126,"count":831,"type":"VEC2"},{"bufferView":35,"componentType":5123,"count":1434,"type":"SCALAR"},{"bufferView":36,"componentType":5126,"count":614,"max":[-229.34375,-112.70751953125,0.51251220703125],"min":[-334.150390625,-217.59716796875,-131.08843994140625],"type":"VEC3"},{"bufferView":37,"componentType":5126,"count":614,"type":"VEC3"},{"bufferView":38,"componentType":5126,"count":614,"type":"VEC2"},{"bufferView":39,"componentType":5123,"count":972,"type":"SCALAR"},{"bufferView":40,"componentType":5126,"count":617,"max":[-229.34375,-236.27197265625,0.51251220703125],"min":[-334.150390625,-341.16259765625,-131.08843994140625],"type":"VEC3"},{"bufferView":41,"componentType":5126,"count":617,"type":"VEC3"},{"bufferView":42,"componentType":5126,"count":617,"type":"VEC2"},{"bufferView":43,"componentType":5123,"count":972,"type":"SCALAR"},{"bufferView":44,"componentType":5126,"count":831,"max":[-152.7841796875,-91.27490234375,-11.830230712890625],"min":[-393.732421875,-354.8603515625,-188.4046173095703],"type":"VEC3"},{"bufferView":45,"componentType":5126,"count":831,"type":"VEC3"},{"bufferView":46,"componentType":5126,"count":831,"type":"VEC2"},{"bufferView":47,"componentType":5123,"count":1434,"type":"SCALAR"},{"bufferView":48,"componentType":5126,"count":2458,"max":[125.5908203125,458.1005859375,-247.17250061035156],"min":[-125.58984375,-51.451171875,-305.6436767578125],"type":"VEC3"},{"bufferView":49,"componentType":5126,"count":2458,"type":"VEC3"},{"bufferView":50,"componentType":5126,"count":2458,"type":"VEC2"},{"bufferView":51,"componentType":5123,"count":4002,"type":"SCALAR"},{"bufferView":52,"componentType":5126,"count":368,"max":[60.0537109375,-100.9658203125,-337.16943359375],"min":[-60.0537109375,-221.07373046875,-353.6197814941406],"type":"VEC3"},{"bufferView":53,"componentType":5126,"count":368,"type":"VEC3"},{"bufferView":54,"componentType":5126,"count":368,"type":"VEC2"},{"bufferView":55,"componentType":5123,"count":684,"type":"SCALAR"},{"bufferView":56,"componentType":5126,"count":2443,"max":[174.951171875,2.6630859375,-236.49844360351562],"min":[-176.3271484375,-393.23779296875,-352.76995849609375],"type":"VEC3"},{"bufferView":57,"componentType":5126,"count":2443,"type":"VEC3"},{"bufferView":58,"componentType":5126,"count":2443,"type":"VEC2"},{"bufferView":59,"componentType":5123,"count":4128,"type":"SCALAR"},{"bufferView":60,"componentType":5126,"count":4196,"max":[180.5166015625,371.3369140625,-21.337852478027344],"min":[-180.5166015625,-371.3369140625,-243.21847534179688],"type":"VEC3"},{"bufferView":61,"componentType":5126,"count":4196,"type":"VEC3"},{"bufferView":62,"componentType":5126,"count":4196,"type":"VEC2"},{"bufferView":63,"componentType":5123,"count":7008,"type":"SCALAR"}],"bufferViews":[{"buffer":0,"byteLength":7488,"byteOffset":0,"target":34962},{"buffer":0,"byteLength":7488,"byteOffset":7488,"target":34962},{"buffer":0,"byteLength":4992,"byteOffset":14976,"target":34962},{"buffer":0,"byteLength":1944,"byteOffset":19968,"target":34963},{"buffer":0,"byteLength":7452,"byteOffset":21912,"target":34962},{"buffer":0,"byteLength":7452,"byteOffset":29364,"target":34962},{"buffer":0,"byteLength":4968,"byteOffset":36816,"target":34962},{"buffer":0,"byteLength":1944,"byteOffset":41784,"target":34963},{"buffer":0,"byteLength":9888,"byteOffset":43728,"target":34962},{"buffer":0,"byteLength":9888,"byteOffset":53616,"target":34962},{"buffer":0,"byteLength":6592,"byteOffset":63504,"target":34962},{"buffer":0,"byteLength":2868,"byteOffset":70096,"target":34963},{"buffer":0,"byteLength":7392,"byteOffset":72964,"target":34962},{"buffer":0,"byteLength":7392,"byteOffset":80356,"target":34962},{"buffer":0,"byteLength":4928,"byteOffset":87748,"target":34962},{"buffer":0,"byteLength":1944,"byteOffset":92676,"target":34963},{"buffer":0,"byteLength":7416,"byteOffset":94620,"target":34962},{"buffer":0,"byteLength":7416,"byteOffset":102036,"target":34962},{"buffer":0,"byteLength":4944,"byteOffset":109452,"target":34962},{"buffer":0,"byteLength":1944,"byteOffset":114396,"target":34963},{"buffer":0,"byteLength":9816,"byteOffset":116340,"target":34962},{"buffer":0,"byteLength":9816,"byteOffset":126156,"target":34962},{"buffer":0,"byteLength":6544,"byteOffset":135972,"target":34962},{"buffer":0,"byteLength":2868,"byteOffset":142516,"target":34963},{"buffer":0,"byteLength":7428,"byteOffset":145384,"target":34962},{"buffer":0,"byteLength":7428,"byteOffset":152812,"target":34962},{"buffer":0,"byteLength":4952,"byteOffset":160240,"target":34962},{"buffer":0,"byteLength":1944,"byteOffset":165192,"target":34963},{"buffer":0,"byteLength":7392,"byteOffset":167136,"target":34962},{"buffer":0,"byteLength":7392,"byteOffset":174528,"target":34962},{"buffer":0,"byteLength":4928,"byteOffset":181920,"target":34962},{"buffer":0,"byteLength":1944,"byteOffset":186848,"target":34963},{"buffer":0,"byteLength":9972,"byteOffset":188792,"target":34962},{"buffer":0,"byteLength":9972,"byteOffset":198764,"target":34962},{"buffer":0,"byteLength":6648,"byteOffset":208736,"target":34962},{"buffer":0,"byteLength":2868,"byteOffset":215384,"target":34963},{"buffer":0,"byteLength":7368,"byteOffset":218252,"target":34962},{"buffer":0,"byteLength":7368,"byteOffset":225620,"target":34962},{"buffer":0,"byteLength":4912,"byteOffset":232988,"target":34962},{"buffer":0,"byteLength":1944,"byteOffset":237900,"target":34963},{"buffer":0,"byteLength":7404,"byteOffset":239844,"target":34962},{"buffer":0,"byteLength":7404,"byteOffset":247248,"target":34962},{"buffer":0,"byteLength":4936,"byteOffset":254652,"target":34962},{"buffer":0,"byteLength":1944,"byteOffset":259588,"target":34963},{"buffer":0,"byteLength":9972,"byteOffset":261532,"target":34962},{"buffer":0,"byteLength":9972,"byteOffset":271504,"target":34962},{"buffer":0,"byteLength":6648,"byteOffset":281476,"target":34962},{"buffer":0,"byteLength":2868,"byteOffset":288124,"target":34963},{"buffer":0,"byteLength":29496,"byteOffset":290992,"target":34962},{"buffer":0,"byteLength":29496,"byteOffset":320488,"target":34962},{"buffer":0,"byteLength":19664,"byteOffset":349984,"target":34962},{"buffer":0,"byteLength":8004,"byteOffset":369648,"target":34963},{"buffer":0,"byteLength":4416,"byteOffset":377652,"target":34962},{"buffer":0,"byteLength":4416,"byteOffset":382068,"target":34962},{"buffer":0,"byteLength":2944,"byteOffset":386484,"target":34962},{"buffer":0,"byteLength":1368,"byteOffset":389428,"target":34963},{"buffer":0,"byteLength":29316,"byteOffset":390796,"target":34962},{"buffer":0,"byteLength":29316,"byteOffset":420112,"target":34962},{"buffer":0,"byteLength":19544,"byteOffset":449428,"target":34962},{"buffer":0,"byteLength":8256,"byteOffset":468972,"target":34963},{"buffer":0,"byteLength":50352,"byteOffset":477228,"target":34962},{"buffer":0,"byteLength":50352,"byteOffset":527580,"target":34962},{"buffer":0,"byteLength":33568,"byteOffset":577932,"target":34962},{"buffer":0,"byteLength":14016,"byteOffset":611500,"target":34963}],"samplers":[{"magFilter":9729,"minFilter":9987}],"buffers":[{"byteLength":625516,"uri":"worlds_SM_Veh_HoverTank_02.bin"}]}