{"asset":{"generator":"Khronos glTF Blender I/O v4.4.55","version":"2.0"},"extensionsUsed":["EXT_texture_webp"],"extensionsRequired":["EXT_texture_webp"],"scene":0,"scenes":[{"name":"Scene","nodes":[0]}],"nodes":[{"mesh":0,"name":"SM_Prop_HoverPad_01","rotation":[0.7071068286895752,0,0,0.7071068286895752],"scale":[0.009999999776482582,0.009999999776482582,0.009999999776482582]}],"materials":[{"doubleSided":true,"name":"SciFiCrate_MAT","pbrMetallicRoughness":{"baseColorTexture":{"index":1},"metallicFactor":0,"roughnessFactor":0.5527864098548889}}],"meshes":[{"name":"Mesh","primitives":[{"attributes":{"POSITION":0,"NORMAL":1,"TEXCOORD_0":2},"indices":3,"material":0}]}],"textures":[{"extensions":{},"sampler":0},{"extensions":{"EXT_texture_webp":{"source":0}},"sampler":0}],"images":[{"mimeType":"image/webp","name":"PolygonScifiWorlds_Texture_01_A","uri":"PolygonScifiWorlds_Texture_01_A.webp"}],"accessors":[{"bufferView":0,"componentType":5126,"count":784,"max":[75.62133026123047,75.62133026123047,19.55752182006836],"min":[-75.62133026123047,-75.62133026123047,-182.51416015625],"type":"VEC3"},{"bufferView":1,"componentType":5126,"count":784,"type":"VEC3"},{"bufferView":2,"componentType":5126,"count":784,"type":"VEC2"},{"bufferView":3,"componentType":5123,"count":1278,"type":"SCALAR"}],"bufferViews":[{"buffer":0,"byteLength":9408,"byteOffset":0,"target":34962},{"buffer":0,"byteLength":9408,"byteOffset":9408,"target":34962},{"buffer":0,"byteLength":6272,"byteOffset":18816,"target":34962},{"buffer":0,"byteLength":2556,"byteOffset":25088,"target":34963}],"samplers":[{"magFilter":9729,"minFilter":9987}],"buffers":[{"byteLength":27644,"uri":"worlds_SM_Prop_HoverPad_01.bin"}]}