{"asset":{"generator":"Khronos glTF Blender I/O v4.4.55","version":"2.0"},"extensionsUsed":["EXT_texture_webp"],"extensionsRequired":["EXT_texture_webp"],"scene":0,"scenes":[{"name":"Scene","nodes":[2]}],"nodes":[{"mesh":0,"name":"SM_Bld_Corp_Containment_02_Glass_01"},{"children":[0],"mesh":1,"name":"SM_Bld_Corp_Containment_02_Capsule_01"},{"children":[1],"mesh":2,"name":"SM_Bld_Corp_Containment_02","rotation":[0.70710688829422,0,0,0.7071066498756409],"scale":[0.009999999776482582,0.009999999776482582,0.009999999776482582]}],"materials":[{"alphaMode":"MASK","doubleSided":true,"name":"Glass_MAT","pbrMetallicRoughness":{"baseColorFactor":[1,1,1,0.15662652254104614],"baseColorTexture":{"index":0},"metallicFactor":0,"roughnessFactor":0.5527864098548889},"alphaCutoff":0.5},{"doubleSided":true,"name":"SciFi_Planets_SHD.004","pbrMetallicRoughness":{"baseColorTexture":{"index":2},"metallicFactor":0,"roughnessFactor":0.5527864098548889}}],"meshes":[{"name":"Mesh.006","primitives":[{"attributes":{"POSITION":0,"NORMAL":1,"TEXCOORD_0":2},"indices":3,"material":0}]},{"name":"Mesh.005","primitives":[{"attributes":{"POSITION":4,"NORMAL":5,"TEXCOORD_0":6},"indices":7,"material":1}]},{"name":"Mesh.004","primitives":[{"attributes":{"POSITION":8,"NORMAL":9,"TEXCOORD_0":10},"indices":11,"material":1}]}],"textures":[{"extensions":{"EXT_texture_webp":{"source":0}},"sampler":0},{"extensions":{},"sampler":0},{"extensions":{"EXT_texture_webp":{"source":0}},"sampler":0}],"images":[{"mimeType":"image/webp","name":"PolygonScifiWorlds_Texture_01_A","uri":"PolygonScifiWorlds_Texture_01_A.webp"}],"accessors":[{"bufferView":0,"componentType":5126,"count":64,"max":[105.798828125,105.79833984375,-230.95420837402344],"min":[-105.798828125,-105.79833984375,-610.5968627929688],"type":"VEC3"},{"bufferView":1,"componentType":5126,"count":64,"type":"VEC3"},{"bufferView":2,"componentType":5126,"count":64,"type":"VEC2"},{"bufferView":3,"componentType":5123,"count":96,"type":"SCALAR"},{"bufferView":4,"componentType":5126,"count":1908,"max":[126.72021484375,126.70166015625,-184.29025268554688],"min":[-126.72021484375,-126.70166015625,-657.00537109375],"type":"VEC3"},{"bufferView":5,"componentType":5126,"count":1908,"type":"VEC3"},{"bufferView":6,"componentType":5126,"count":1908,"type":"VEC2"},{"bufferView":7,"componentType":5123,"count":3366,"type":"SCALAR"},{"bufferView":8,"componentType":5126,"count":3959,"max":[224.931640625,269.0514221191406,0.24870653450489044],"min":[-224.931640625,-224.931640625,-620.768798828125],"type":"VEC3"},{"bufferView":9,"componentType":5126,"count":3959,"type":"VEC3"},{"bufferView":10,"componentType":5126,"count":3959,"type":"VEC2"},{"bufferView":11,"componentType":5123,"count":7260,"type":"SCALAR"}],"bufferViews":[{"buffer":0,"byteLength":768,"byteOffset":0,"target":34962},{"buffer":0,"byteLength":768,"byteOffset":768,"target":34962},{"buffer":0,"byteLength":512,"byteOffset":1536,"target":34962},{"buffer":0,"byteLength":192,"byteOffset":2048,"target":34963},{"buffer":0,"byteLength":22896,"byteOffset":2240,"target":34962},{"buffer":0,"byteLength":22896,"byteOffset":25136,"target":34962},{"buffer":0,"byteLength":15264,"byteOffset":48032,"target":34962},{"buffer":0,"byteLength":6732,"byteOffset":63296,"target":34963},{"buffer":0,"byteLength":47508,"byteOffset":70028,"target":34962},{"buffer":0,"byteLength":47508,"byteOffset":117536,"target":34962},{"buffer":0,"byteLength":31672,"byteOffset":165044,"target":34962},{"buffer":0,"byteLength":14520,"byteOffset":196716,"target":34963}],"samplers":[{"magFilter":9729,"minFilter":9987}],"buffers":[{"byteLength":211236,"uri":"worlds_SM_Bld_Corp_Containment_02.bin"}]}