{"asset":{"generator":"Khronos glTF Blender I/O v4.4.55","version":"2.0"},"extensionsUsed":["EXT_texture_webp"],"extensionsRequired":["EXT_texture_webp"],"scene":0,"scenes":[{"name":"Scene","nodes":[1]}],"nodes":[{"mesh":0,"name":"SM_Prop_Wall_Unit_01_Door_01"},{"children":[0],"mesh":1,"name":"SM_Prop_Wall_Unit_01","rotation":[0.7071068286895752,0,0,0.7071068286895752],"scale":[0.009999999776482582,0.009999999776482582,0.009999999776482582]}],"materials":[{"doubleSided":true,"name":"SciFi_Planets_SHD","pbrMetallicRoughness":{"baseColorTexture":{"index":1},"metallicFactor":0,"roughnessFactor":0.5527864098548889}}],"meshes":[{"name":"Mesh.001","primitives":[{"attributes":{"POSITION":0,"NORMAL":1,"TEXCOORD_0":2},"indices":3,"material":0}]},{"name":"Mesh","primitives":[{"attributes":{"POSITION":4,"NORMAL":5,"TEXCOORD_0":6},"indices":7,"material":0}]}],"textures":[{"extensions":{},"sampler":0},{"extensions":{"EXT_texture_webp":{"source":0}},"sampler":0}],"images":[{"mimeType":"image/webp","name":"PolygonScifiWorlds_Texture_01_A","uri":"PolygonScifiWorlds_Texture_01_A.webp"}],"accessors":[{"bufferView":0,"componentType":5126,"count":358,"max":[45.94249725341797,40.594970703125,-171.96725463867188],"min":[-45.94248580932617,-22.93017578125,-230.21600341796875],"type":"VEC3"},{"bufferView":1,"componentType":5126,"count":358,"type":"VEC3"},{"bufferView":2,"componentType":5126,"count":358,"type":"VEC2"},{"bufferView":3,"componentType":5123,"count":576,"type":"SCALAR"},{"bufferView":4,"componentType":5126,"count":1394,"max":[72.45431518554688,39.2113037109375,0],"min":[-72.45431518554688,-40.594970703125,-232.8396453857422],"type":"VEC3"},{"bufferView":5,"componentType":5126,"count":1394,"type":"VEC3"},{"bufferView":6,"componentType":5126,"count":1394,"type":"VEC2"},{"bufferView":7,"componentType":5123,"count":2238,"type":"SCALAR"}],"bufferViews":[{"buffer":0,"byteLength":4296,"byteOffset":0,"target":34962},{"buffer":0,"byteLength":4296,"byteOffset":4296,"target":34962},{"buffer":0,"byteLength":2864,"byteOffset":8592,"target":34962},{"buffer":0,"byteLength":1152,"byteOffset":11456,"target":34963},{"buffer":0,"byteLength":16728,"byteOffset":12608,"target":34962},{"buffer":0,"byteLength":16728,"byteOffset":29336,"target":34962},{"buffer":0,"byteLength":11152,"byteOffset":46064,"target":34962},{"buffer":0,"byteLength":4476,"byteOffset":57216,"target":34963}],"samplers":[{"magFilter":9729,"minFilter":9987}],"buffers":[{"byteLength":61692,"uri":"worlds_SM_Prop_Wall_Unit_01.bin"}]}