{"asset":{"generator":"Khronos glTF Blender I/O v4.4.55","version":"2.0"},"extensionsUsed":["EXT_texture_webp"],"extensionsRequired":["EXT_texture_webp"],"scene":0,"scenes":[{"name":"Scene","nodes":[2]}],"nodes":[{"mesh":0,"name":"SM_Bld_Elevator_Hover_Double_02_Gate_01"},{"mesh":1,"name":"SM_Bld_Elevator_Hover_Double_02_Gate_02"},{"children":[0,1],"mesh":2,"name":"SM_Bld_Elevator_Hover_Double_02","rotation":[0.7071068286895752,0,0,0.7071068286895752],"scale":[0.009999999776482582,0.009999999776482582,0.009999999776482582]}],"materials":[{"doubleSided":true,"name":"SciFi_Planets_SHD","pbrMetallicRoughness":{"baseColorTexture":{"index":1},"metallicFactor":0,"roughnessFactor":0.5527864098548889}}],"meshes":[{"name":"Mesh.001","primitives":[{"attributes":{"POSITION":0,"NORMAL":1,"TEXCOORD_0":2},"indices":3,"material":0}]},{"name":"Mesh.002","primitives":[{"attributes":{"POSITION":4,"NORMAL":5,"TEXCOORD_0":6},"indices":7,"material":0}]},{"name":"Mesh","primitives":[{"attributes":{"POSITION":8,"NORMAL":9,"TEXCOORD_0":10},"indices":11,"material":0}]}],"textures":[{"extensions":{},"sampler":0},{"extensions":{"EXT_texture_webp":{"source":0}},"sampler":0}],"images":[{"mimeType":"image/webp","name":"PolygonScifiWorlds_Texture_01_A","uri":"PolygonScifiWorlds_Texture_01_A.webp"}],"accessors":[{"bufferView":0,"componentType":5126,"count":384,"max":[-0.4230842590332031,121.3047103881836,-10.18121337890625],"min":[-149.95123291015625,113.45887756347656,-112.01484680175781],"type":"VEC3"},{"bufferView":1,"componentType":5126,"count":384,"type":"VEC3"},{"bufferView":2,"componentType":5126,"count":384,"type":"VEC2"},{"bufferView":3,"componentType":5123,"count":720,"type":"SCALAR"},{"bufferView":4,"componentType":5126,"count":384,"max":[149.95123291015625,121.3047103881836,-10.18121337890625],"min":[0.4230842590332031,113.45887756347656,-112.01484680175781],"type":"VEC3"},{"bufferView":5,"componentType":5126,"count":384,"type":"VEC3"},{"bufferView":6,"componentType":5126,"count":384,"type":"VEC2"},{"bufferView":7,"componentType":5123,"count":720,"type":"SCALAR"},{"bufferView":8,"componentType":5126,"count":2948,"max":[232.79327392578125,132.79327392578125,16.10321044921875],"min":[-232.79327392578125,-132.79327392578125,-310.07861328125],"type":"VEC3"},{"bufferView":9,"componentType":5126,"count":2948,"type":"VEC3"},{"bufferView":10,"componentType":5126,"count":2948,"type":"VEC2"},{"bufferView":11,"componentType":5123,"count":4878,"type":"SCALAR"}],"bufferViews":[{"buffer":0,"byteLength":4608,"byteOffset":0,"target":34962},{"buffer":0,"byteLength":4608,"byteOffset":4608,"target":34962},{"buffer":0,"byteLength":3072,"byteOffset":9216,"target":34962},{"buffer":0,"byteLength":1440,"byteOffset":12288,"target":34963},{"buffer":0,"byteLength":4608,"byteOffset":13728,"target":34962},{"buffer":0,"byteLength":4608,"byteOffset":18336,"target":34962},{"buffer":0,"byteLength":3072,"byteOffset":22944,"target":34962},{"buffer":0,"byteLength":1440,"byteOffset":26016,"target":34963},{"buffer":0,"byteLength":35376,"byteOffset":27456,"target":34962},{"buffer":0,"byteLength":35376,"byteOffset":62832,"target":34962},{"buffer":0,"byteLength":23584,"byteOffset":98208,"target":34962},{"buffer":0,"byteLength":9756,"byteOffset":121792,"target":34963}],"samplers":[{"magFilter":9729,"minFilter":9987}],"buffers":[{"byteLength":131548,"uri":"worlds_SM_Bld_Elevator_Hover_Double_02.bin"}]}