{"asset":{"generator":"Khronos glTF Blender I/O v4.4.55","version":"2.0"},"extensionsUsed":["EXT_texture_webp"],"extensionsRequired":["EXT_texture_webp"],"scene":0,"scenes":[{"name":"Scene","nodes":[1]}],"nodes":[{"mesh":0,"name":"SM_Bld_Pod_Corridor_Round_05_Glass_01"},{"children":[0],"mesh":1,"name":"SM_Bld_Pod_Corridor_Round_05","rotation":[0.7071068286895752,0,0,0.7071068286895752],"scale":[0.009999999776482582,0.009999999776482582,0.009999999776482582]}],"materials":[{"alphaMode":"MASK","doubleSided":true,"name":"Glass_MAT","pbrMetallicRoughness":{"baseColorFactor":[1,1,1,0.15662652254104614],"baseColorTexture":{"index":0},"metallicFactor":0,"roughnessFactor":0.5527864098548889},"alphaCutoff":0.5},{"doubleSided":true,"name":"SciFi_Planets_POD_SHD","pbrMetallicRoughness":{"baseColorTexture":{"index":2},"metallicFactor":0,"roughnessFactor":0.5527864098548889}}],"meshes":[{"name":"Mesh.001","primitives":[{"attributes":{"POSITION":0,"NORMAL":1,"TEXCOORD_0":2},"indices":3,"material":0}]},{"name":"Mesh","primitives":[{"attributes":{"POSITION":4,"NORMAL":5,"TEXCOORD_0":6},"indices":7,"material":1}]}],"textures":[{"extensions":{"EXT_texture_webp":{"source":0}},"sampler":0},{"extensions":{},"sampler":0},{"extensions":{"EXT_texture_webp":{"source":0}},"sampler":0}],"images":[{"mimeType":"image/webp","name":"PolygonScifiWorlds_Texture_01_A","uri":"PolygonScifiWorlds_Texture_01_A.webp"}],"accessors":[{"bufferView":0,"componentType":5126,"count":16,"max":[209.2485809326172,-199.576416015625,-124.19194793701172],"min":[-209.2485809326172,-794.971923828125,-204.64413452148438],"type":"VEC3"},{"bufferView":1,"componentType":5126,"count":16,"type":"VEC3"},{"bufferView":2,"componentType":5126,"count":16,"type":"VEC2"},{"bufferView":3,"componentType":5123,"count":24,"type":"SCALAR"},{"bufferView":4,"componentType":5126,"count":5943,"max":[297.1943359375,0,147.35714721679688],"min":[-297.1943359375,-1000,-533.4519653320312],"type":"VEC3"},{"bufferView":5,"componentType":5126,"count":5943,"type":"VEC3"},{"bufferView":6,"componentType":5126,"count":5943,"type":"VEC2"},{"bufferView":7,"componentType":5123,"count":9678,"type":"SCALAR"}],"bufferViews":[{"buffer":0,"byteLength":192,"byteOffset":0,"target":34962},{"buffer":0,"byteLength":192,"byteOffset":192,"target":34962},{"buffer":0,"byteLength":128,"byteOffset":384,"target":34962},{"buffer":0,"byteLength":48,"byteOffset":512,"target":34963},{"buffer":0,"byteLength":71316,"byteOffset":560,"target":34962},{"buffer":0,"byteLength":71316,"byteOffset":71876,"target":34962},{"buffer":0,"byteLength":47544,"byteOffset":143192,"target":34962},{"buffer":0,"byteLength":19356,"byteOffset":190736,"target":34963}],"samplers":[{"magFilter":9729,"minFilter":9987}],"buffers":[{"byteLength":210092,"uri":"worlds_SM_Bld_Pod_Corridor_Round_05.bin"}]}