{"asset":{"generator":"Khronos glTF Blender I/O v4.4.55","version":"2.0"},"extensionsUsed":["EXT_texture_webp"],"extensionsRequired":["EXT_texture_webp"],"scene":0,"scenes":[{"name":"Scene","nodes":[2]}],"nodes":[{"mesh":0,"name":"SM_Bld_Vendor_04_Glass_01"},{"mesh":1,"name":"SM_Bld_Vendor_04_Sign_01"},{"children":[0,1],"mesh":2,"name":"SM_Bld_Vendor_04","rotation":[0.7071068286895752,0,0,0.7071068286895752],"scale":[0.009999999776482582,0.009999999776482582,0.009999999776482582]}],"materials":[{"alphaMode":"BLEND","doubleSided":true,"name":"Glass_MAT","pbrMetallicRoughness":{"baseColorFactor":[1,1,1,0.15662652254104614],"baseColorTexture":{"index":0},"metallicFactor":0,"roughnessFactor":0.5527864098548889}},{"doubleSided":true,"name":"SciFi_Planets_SHD","pbrMetallicRoughness":{"baseColorTexture":{"index":2},"metallicFactor":0,"roughnessFactor":0.5527864098548889}}],"meshes":[{"name":"Mesh.002","primitives":[{"attributes":{"POSITION":0,"NORMAL":1,"TEXCOORD_0":2},"indices":3,"material":0}]},{"name":"Mesh.001","primitives":[{"attributes":{"POSITION":4,"NORMAL":5,"TEXCOORD_0":6},"indices":7,"material":1}]},{"name":"Mesh","primitives":[{"attributes":{"POSITION":8,"NORMAL":9,"TEXCOORD_0":10},"indices":11,"material":1}]}],"textures":[{"extensions":{"EXT_texture_webp":{"source":0}},"sampler":0},{"extensions":{},"sampler":0},{"extensions":{"EXT_texture_webp":{"source":0}},"sampler":0}],"images":[{"mimeType":"image/webp","name":"PolygonScifiWorlds_Texture_01_A","uri":"PolygonScifiWorlds_Texture_01_A.webp"}],"accessors":[{"bufferView":0,"componentType":5126,"count":157,"max":[39.19890213012695,73.19866943359375,-103.2978515625],"min":[-39.19890213012695,71.15410614013672,-186.51300048828125],"type":"VEC3"},{"bufferView":1,"componentType":5126,"count":157,"type":"VEC3"},{"bufferView":2,"componentType":5126,"count":157,"type":"VEC2"},{"bufferView":3,"componentType":5123,"count":342,"type":"SCALAR"},{"bufferView":4,"componentType":5126,"count":2311,"max":[-50.12814712524414,158.5859375,-139.1386260986328],"min":[-140.1680145263672,81.19000244140625,-382.57855224609375],"type":"VEC3"},{"bufferView":5,"componentType":5126,"count":2311,"type":"VEC3"},{"bufferView":6,"componentType":5126,"count":2311,"type":"VEC2"},{"bufferView":7,"componentType":5123,"count":4296,"type":"SCALAR"},{"bufferView":8,"componentType":5126,"count":1857,"max":[95.06238555908203,119.0236587524414,0],"min":[-95.06238555908203,0,-293.5132751464844],"type":"VEC3"},{"bufferView":9,"componentType":5126,"count":1857,"type":"VEC3"},{"bufferView":10,"componentType":5126,"count":1857,"type":"VEC2"},{"bufferView":11,"componentType":5123,"count":3453,"type":"SCALAR"}],"bufferViews":[{"buffer":0,"byteLength":1884,"byteOffset":0,"target":34962},{"buffer":0,"byteLength":1884,"byteOffset":1884,"target":34962},{"buffer":0,"byteLength":1256,"byteOffset":3768,"target":34962},{"buffer":0,"byteLength":684,"byteOffset":5024,"target":34963},{"buffer":0,"byteLength":27732,"byteOffset":5708,"target":34962},{"buffer":0,"byteLength":27732,"byteOffset":33440,"target":34962},{"buffer":0,"byteLength":18488,"byteOffset":61172,"target":34962},{"buffer":0,"byteLength":8592,"byteOffset":79660,"target":34963},{"buffer":0,"byteLength":22284,"byteOffset":88252,"target":34962},{"buffer":0,"byteLength":22284,"byteOffset":110536,"target":34962},{"buffer":0,"byteLength":14856,"byteOffset":132820,"target":34962},{"buffer":0,"byteLength":6906,"byteOffset":147676,"target":34963}],"samplers":[{"magFilter":9729,"minFilter":9987}],"buffers":[{"byteLength":154584,"uri":"worlds_SM_Bld_Vendor_04.bin"}]}