{
	"asset":{
		"generator":"Khronos glTF Blender I/O v4.4.55",
		"version":"2.0"
	},
	"extensionsUsed":[
		"EXT_texture_webp"
	],
	"extensionsRequired":[
		"EXT_texture_webp"
	],
	"scene":0,
	"scenes":[
		{
			"name":"Scene",
			"nodes":[
				0
			]
		}
	],
	"nodes":[
		{
			"mesh":0,
			"name":"SM_Env_Plant_Bulb_02",
			"rotation":[
				0.7071068286895752,
				0,
				0,
				0.7071068286895752
			],
			"scale":[
				0.009999999776482582,
				0.009999999776482582,
				0.009999999776482582
			]
		}
	],
	"materials":[
		{
			"doubleSided":true,
			"name":"Base_Lambert1",
			"pbrMetallicRoughness":{
				"baseColorTexture":{
					"index":0
				},
				"metallicFactor":0,
				"roughnessFactor":0.5527864098548889
			}
		}
	],
	"meshes":[
		{
			"name":"Mesh",
			"primitives":[
				{
					"attributes":{
						"POSITION":0,
						"NORMAL":1,
						"TEXCOORD_0":2,
						"COLOR_0":3,
						"COLOR_1":4
					},
					"indices":5,
					"material":0
				}
			]
		}
	],
	"textures":[
		{
			"extensions":{
				"EXT_texture_webp":{
					"source":0
				}
			},
			"sampler":0
		}
	],
	"images":[
		{
			"mimeType":"image/webp",
			"name":"PolygonScifiWorlds_Texture_01_A",
			"uri":"PolygonScifiWorlds_Texture_01_A.webp"
		}
	],
	"accessors":[
		{
			"bufferView":0,
			"componentType":5126,
			"count":1198,
			"max":[
				135.28639221191406,
				143.46461486816406,
				41.47991943359375
			],
			"min":[
				-135.28639221191406,
				-143.46461486816406,
				-339.1960754394531
			],
			"type":"VEC3"
		},
		{
			"bufferView":1,
			"componentType":5126,
			"count":1198,
			"type":"VEC3"
		},
		{
			"bufferView":2,
			"componentType":5126,
			"count":1198,
			"type":"VEC2"
		},
		{
			"bufferView":3,
			"componentType":5121,
			"count":1198,
			"normalized":true,
			"type":"VEC4"
		},
		{
			"bufferView":4,
			"componentType":5123,
			"count":1198,
			"normalized":true,
			"type":"VEC4"
		},
		{
			"bufferView":5,
			"componentType":5123,
			"count":1767,
			"type":"SCALAR"
		}
	],
	"bufferViews":[
		{
			"buffer":0,
			"byteLength":14376,
			"byteOffset":0,
			"target":34962
		},
		{
			"buffer":0,
			"byteLength":14376,
			"byteOffset":14376,
			"target":34962
		},
		{
			"buffer":0,
			"byteLength":9584,
			"byteOffset":28752,
			"target":34962
		},
		{
			"buffer":0,
			"byteLength":4792,
			"byteOffset":38336,
			"target":34962
		},
		{
			"buffer":0,
			"byteLength":9584,
			"byteOffset":43128,
			"target":34962
		},
		{
			"buffer":0,
			"byteLength":3534,
			"byteOffset":52712,
			"target":34963
		}
	],
	"samplers":[
		{
			"magFilter":9729,
			"minFilter":9987
		}
	],
	"buffers":[
		{
			"byteLength":56248,
			"uri":"worlds_SM_Env_Plant_Bulb_02.bin"
		}
	]
}
