{"asset":{"generator":"Khronos glTF Blender I/O v4.4.55","version":"2.0"},"extensionsUsed":["EXT_texture_webp"],"extensionsRequired":["EXT_texture_webp"],"scene":0,"scenes":[{"name":"Scene","nodes":[1]}],"nodes":[{"mesh":0,"name":"SM_Bld_Window_08_Glass"},{"children":[0],"mesh":1,"name":"SM_Bld_Window_08","rotation":[0.7071068286895752,0,0,0.7071068286895752],"scale":[0.009999999776482582,0.009999999776482582,0.009999999776482582]}],"materials":[{"alphaMode":"MASK","doubleSided":true,"name":"Glass_MAT","pbrMetallicRoughness":{"baseColorFactor":[1,1,1,0.15662652254104614],"baseColorTexture":{"index":0},"metallicFactor":0,"roughnessFactor":0.5527864098548889},"alphaCutoff":0.5},{"doubleSided":true,"name":"SciFi_Planets_SHD","pbrMetallicRoughness":{"baseColorTexture":{"index":2},"metallicFactor":0,"roughnessFactor":0.5527864098548889}}],"meshes":[{"name":"Mesh.001","primitives":[{"attributes":{"POSITION":0,"NORMAL":1,"TEXCOORD_0":2},"indices":3,"material":0}]},{"name":"Mesh","primitives":[{"attributes":{"POSITION":4,"NORMAL":5,"TEXCOORD_0":6},"indices":7,"material":1}]}],"textures":[{"extensions":{"EXT_texture_webp":{"source":0}},"sampler":0},{"extensions":{},"sampler":0},{"extensions":{"EXT_texture_webp":{"source":0}},"sampler":0}],"images":[{"mimeType":"image/webp","name":"PolygonScifiWorlds_Texture_01_A","uri":"PolygonScifiWorlds_Texture_01_A.webp"}],"accessors":[{"bufferView":0,"componentType":5126,"count":26,"max":[98.11676025390625,38.68145751953125,0.696638822555542],"min":[-98.1168212890625,-38.68145751953125,-0.696638822555542],"type":"VEC3"},{"bufferView":1,"componentType":5126,"count":26,"type":"VEC3"},{"bufferView":2,"componentType":5126,"count":26,"type":"VEC2"},{"bufferView":3,"componentType":5123,"count":66,"type":"SCALAR"},{"bufferView":4,"componentType":5126,"count":440,"max":[100.88259887695312,41.51686477661133,3.9666826725006104],"min":[-100.88259887695312,-41.51686477661133,-3.9666826725006104],"type":"VEC3"},{"bufferView":5,"componentType":5126,"count":440,"type":"VEC3"},{"bufferView":6,"componentType":5126,"count":440,"type":"VEC2"},{"bufferView":7,"componentType":5123,"count":864,"type":"SCALAR"}],"bufferViews":[{"buffer":0,"byteLength":312,"byteOffset":0,"target":34962},{"buffer":0,"byteLength":312,"byteOffset":312,"target":34962},{"buffer":0,"byteLength":208,"byteOffset":624,"target":34962},{"buffer":0,"byteLength":132,"byteOffset":832,"target":34963},{"buffer":0,"byteLength":5280,"byteOffset":964,"target":34962},{"buffer":0,"byteLength":5280,"byteOffset":6244,"target":34962},{"buffer":0,"byteLength":3520,"byteOffset":11524,"target":34962},{"buffer":0,"byteLength":1728,"byteOffset":15044,"target":34963}],"samplers":[{"magFilter":9729,"minFilter":9987}],"buffers":[{"byteLength":16772,"uri":"worlds_SM_Bld_Window_08.bin"}]}