{"asset":{"generator":"Khronos glTF Blender I/O v4.4.55","version":"2.0"},"extensionsUsed":["EXT_texture_webp"],"extensionsRequired":["EXT_texture_webp"],"scene":0,"scenes":[{"name":"Scene","nodes":[3]}],"nodes":[{"mesh":0,"name":"SM_Prop_Turret_Medium_01_Barrell_01"},{"children":[0],"mesh":1,"name":"SM_Prop_Turret_Medium_01_Gun_01"},{"children":[1],"mesh":2,"name":"SM_Prop_Turret_Medium_01_Pivot_01"},{"children":[2],"mesh":3,"name":"SM_Prop_Turret_Medium_01","rotation":[0.7071068286895752,0,0,0.7071068286895752],"scale":[0.009999999776482582,0.009999999776482582,0.009999999776482582]}],"materials":[{"doubleSided":true,"name":"SciFiCrate_MAT","pbrMetallicRoughness":{"baseColorTexture":{"index":1},"metallicFactor":0,"roughnessFactor":0.5527864098548889}}],"meshes":[{"name":"Mesh.003","primitives":[{"attributes":{"POSITION":0,"NORMAL":1,"TEXCOORD_0":2},"indices":3,"material":0}]},{"name":"Mesh.002","primitives":[{"attributes":{"POSITION":4,"NORMAL":5,"TEXCOORD_0":6},"indices":7,"material":0}]},{"name":"Mesh.001","primitives":[{"attributes":{"POSITION":8,"NORMAL":9,"TEXCOORD_0":10},"indices":11,"material":0}]},{"name":"Mesh","primitives":[{"attributes":{"POSITION":12,"NORMAL":13,"TEXCOORD_0":14},"indices":15,"material":0}]}],"textures":[{"extensions":{},"sampler":0},{"extensions":{"EXT_texture_webp":{"source":0}},"sampler":0}],"images":[{"mimeType":"image/webp","name":"PolygonScifiWorlds_Texture_01_A","uri":"PolygonScifiWorlds_Texture_01_A.webp"}],"accessors":[{"bufferView":0,"componentType":5126,"count":1966,"max":[77.3515625,417.515625,-234.69358825683594],"min":[-77.3515625,2.830078125,-372.66973876953125],"type":"VEC3"},{"bufferView":1,"componentType":5126,"count":1966,"type":"VEC3"},{"bufferView":2,"componentType":5126,"count":1966,"type":"VEC2"},{"bufferView":3,"componentType":5123,"count":3438,"type":"SCALAR"},{"bufferView":4,"componentType":5126,"count":756,"max":[76.70263671875,2.7998046875,-190.86402893066406],"min":[-76.70263671875,-244.22509765625,-397.3685607910156],"type":"VEC3"},{"bufferView":5,"componentType":5126,"count":756,"type":"VEC3"},{"bufferView":6,"componentType":5126,"count":756,"type":"VEC2"},{"bufferView":7,"componentType":5123,"count":1332,"type":"SCALAR"},{"bufferView":8,"componentType":5126,"count":2105,"max":[154.87255859375,154.87255859375,-48.062835693359375],"min":[-154.87255859375,-154.87255859375,-256.82061767578125],"type":"VEC3"},{"bufferView":9,"componentType":5126,"count":2105,"type":"VEC3"},{"bufferView":10,"componentType":5126,"count":2105,"type":"VEC2"},{"bufferView":11,"componentType":5123,"count":3414,"type":"SCALAR"},{"bufferView":12,"componentType":5126,"count":395,"max":[162.347412109375,162.34716796875,0.8539218902587891],"min":[-162.347412109375,-162.34716796875,-54.68644714355469],"type":"VEC3"},{"bufferView":13,"componentType":5126,"count":395,"type":"VEC3"},{"bufferView":14,"componentType":5126,"count":395,"type":"VEC2"},{"bufferView":15,"componentType":5123,"count":696,"type":"SCALAR"}],"bufferViews":[{"buffer":0,"byteLength":23592,"byteOffset":0,"target":34962},{"buffer":0,"byteLength":23592,"byteOffset":23592,"target":34962},{"buffer":0,"byteLength":15728,"byteOffset":47184,"target":34962},{"buffer":0,"byteLength":6876,"byteOffset":62912,"target":34963},{"buffer":0,"byteLength":9072,"byteOffset":69788,"target":34962},{"buffer":0,"byteLength":9072,"byteOffset":78860,"target":34962},{"buffer":0,"byteLength":6048,"byteOffset":87932,"target":34962},{"buffer":0,"byteLength":2664,"byteOffset":93980,"target":34963},{"buffer":0,"byteLength":25260,"byteOffset":96644,"target":34962},{"buffer":0,"byteLength":25260,"byteOffset":121904,"target":34962},{"buffer":0,"byteLength":16840,"byteOffset":147164,"target":34962},{"buffer":0,"byteLength":6828,"byteOffset":164004,"target":34963},{"buffer":0,"byteLength":4740,"byteOffset":170832,"target":34962},{"buffer":0,"byteLength":4740,"byteOffset":175572,"target":34962},{"buffer":0,"byteLength":3160,"byteOffset":180312,"target":34962},{"buffer":0,"byteLength":1392,"byteOffset":183472,"target":34963}],"samplers":[{"magFilter":9729,"minFilter":9987}],"buffers":[{"byteLength":184864,"uri":"worlds_SM_Prop_Turret_Medium_01.bin"}]}