{"asset":{"generator":"Khronos glTF Blender I/O v4.4.55","version":"2.0"},"extensionsUsed":["EXT_texture_webp"],"extensionsRequired":["EXT_texture_webp"],"scene":0,"scenes":[{"name":"Scene","nodes":[1]}],"nodes":[{"mesh":0,"name":"SM_Bld_Pod_Support_02_Leg_01"},{"children":[0],"mesh":1,"name":"SM_Bld_Pod_Support_02","rotation":[0.7071068286895752,0,0,0.7071068286895752],"scale":[0.009999999776482582,0.009999999776482582,0.009999999776482582]}],"materials":[{"doubleSided":true,"name":"SciFi_Planets_POD_SHD","pbrMetallicRoughness":{"baseColorTexture":{"index":1},"metallicFactor":0,"roughnessFactor":0.5527864098548889}}],"meshes":[{"name":"Mesh.001","primitives":[{"attributes":{"POSITION":0,"NORMAL":1,"TEXCOORD_0":2},"indices":3,"material":0}]},{"name":"Mesh","primitives":[{"attributes":{"POSITION":4,"NORMAL":5,"TEXCOORD_0":6},"indices":7,"material":0}]}],"textures":[{"extensions":{},"sampler":0},{"extensions":{"EXT_texture_webp":{"source":0}},"sampler":0}],"images":[{"mimeType":"image/webp","name":"PolygonScifiWorlds_Texture_01_A","uri":"PolygonScifiWorlds_Texture_01_A.webp"}],"accessors":[{"bufferView":0,"componentType":5126,"count":236,"max":[85.47541809082031,233.29150390625,3.0517578125e-05],"min":[-83.96849060058594,63.84759521484375,-378.31903076171875],"type":"VEC3"},{"bufferView":1,"componentType":5126,"count":236,"type":"VEC3"},{"bufferView":2,"componentType":5126,"count":236,"type":"VEC2"},{"bufferView":3,"componentType":5123,"count":366,"type":"SCALAR"},{"bufferView":4,"componentType":5126,"count":388,"max":[63.8443603515625,210.1842041015625,-83.17942810058594],"min":[-63.8443603515625,0,-469.78125],"type":"VEC3"},{"bufferView":5,"componentType":5126,"count":388,"type":"VEC3"},{"bufferView":6,"componentType":5126,"count":388,"type":"VEC2"},{"bufferView":7,"componentType":5123,"count":678,"type":"SCALAR"}],"bufferViews":[{"buffer":0,"byteLength":2832,"byteOffset":0,"target":34962},{"buffer":0,"byteLength":2832,"byteOffset":2832,"target":34962},{"buffer":0,"byteLength":1888,"byteOffset":5664,"target":34962},{"buffer":0,"byteLength":732,"byteOffset":7552,"target":34963},{"buffer":0,"byteLength":4656,"byteOffset":8284,"target":34962},{"buffer":0,"byteLength":4656,"byteOffset":12940,"target":34962},{"buffer":0,"byteLength":3104,"byteOffset":17596,"target":34962},{"buffer":0,"byteLength":1356,"byteOffset":20700,"target":34963}],"samplers":[{"magFilter":9729,"minFilter":9987}],"buffers":[{"byteLength":22056,"uri":"worlds_SM_Bld_Pod_Support_02.bin"}]}