{"asset":{"generator":"Khronos glTF Blender I/O v4.4.55","version":"2.0"},"extensionsUsed":["EXT_texture_webp"],"extensionsRequired":["EXT_texture_webp"],"scene":0,"scenes":[{"name":"Scene","nodes":[2]}],"nodes":[{"mesh":0,"name":"SM_Wep_Alien_04_Scope_01"},{"mesh":1,"name":"SM_Wep_Alien_04_Trigger_01"},{"children":[0,1],"mesh":2,"name":"SM_Wep_Alien_04","rotation":[0.7071068286895752,0,0,0.7071068286895752],"scale":[0.009999999776482582,0.009999999776482582,0.009999999776482582]}],"materials":[{"doubleSided":true,"name":"Clip1:SM_Prop_Crate_03SG1","pbrMetallicRoughness":{"baseColorTexture":{"index":1},"metallicFactor":0,"roughnessFactor":0.5527864098548889}}],"meshes":[{"name":"Mesh.002","primitives":[{"attributes":{"POSITION":0,"NORMAL":1,"TEXCOORD_0":2},"indices":3,"material":0}]},{"name":"Mesh.001","primitives":[{"attributes":{"POSITION":4,"NORMAL":5,"TEXCOORD_0":6},"indices":7,"material":0}]},{"name":"Mesh","primitives":[{"attributes":{"POSITION":8,"NORMAL":9,"TEXCOORD_0":10},"indices":11,"material":0}]}],"textures":[{"extensions":{},"sampler":0},{"extensions":{"EXT_texture_webp":{"source":0}},"sampler":0}],"images":[{"mimeType":"image/webp","name":"PolygonScifiWorlds_Texture_01_A","uri":"PolygonScifiWorlds_Texture_01_A.webp"}],"accessors":[{"bufferView":0,"componentType":5126,"count":486,"max":[6.2908172607421875,39.06462097167969,-10.44451904296875],"min":[-6.2908172607421875,-14.64777946472168,-26.5159912109375],"type":"VEC3"},{"bufferView":1,"componentType":5126,"count":486,"type":"VEC3"},{"bufferView":2,"componentType":5126,"count":486,"type":"VEC2"},{"bufferView":3,"componentType":5123,"count":780,"type":"SCALAR"},{"bufferView":4,"componentType":5126,"count":28,"max":[0.3185230493545532,6.135985374450684,3.434110403060913],"min":[-0.3185230493545532,1.559220314025879,-2.5010569095611572],"type":"VEC3"},{"bufferView":5,"componentType":5126,"count":28,"type":"VEC3"},{"bufferView":6,"componentType":5126,"count":28,"type":"VEC2"},{"bufferView":7,"componentType":5123,"count":48,"type":"SCALAR"},{"bufferView":8,"componentType":5126,"count":1582,"max":[5.327239990234375,95.34922790527344,15.561294555664062],"min":[-5.327239990234375,-29.008188247680664,-18.648193359375],"type":"VEC3"},{"bufferView":9,"componentType":5126,"count":1582,"type":"VEC3"},{"bufferView":10,"componentType":5126,"count":1582,"type":"VEC2"},{"bufferView":11,"componentType":5123,"count":2772,"type":"SCALAR"}],"bufferViews":[{"buffer":0,"byteLength":5832,"byteOffset":0,"target":34962},{"buffer":0,"byteLength":5832,"byteOffset":5832,"target":34962},{"buffer":0,"byteLength":3888,"byteOffset":11664,"target":34962},{"buffer":0,"byteLength":1560,"byteOffset":15552,"target":34963},{"buffer":0,"byteLength":336,"byteOffset":17112,"target":34962},{"buffer":0,"byteLength":336,"byteOffset":17448,"target":34962},{"buffer":0,"byteLength":224,"byteOffset":17784,"target":34962},{"buffer":0,"byteLength":96,"byteOffset":18008,"target":34963},{"buffer":0,"byteLength":18984,"byteOffset":18104,"target":34962},{"buffer":0,"byteLength":18984,"byteOffset":37088,"target":34962},{"buffer":0,"byteLength":12656,"byteOffset":56072,"target":34962},{"buffer":0,"byteLength":5544,"byteOffset":68728,"target":34963}],"samplers":[{"magFilter":9729,"minFilter":9987}],"buffers":[{"byteLength":74272,"uri":"worlds_SM_Wep_Alien_04.bin"}]}