{"asset":{"generator":"Khronos glTF Blender I/O v4.4.55","version":"2.0"},"extensionsUsed":["EXT_texture_webp"],"extensionsRequired":["EXT_texture_webp"],"scene":0,"scenes":[{"name":"Scene","nodes":[1]}],"nodes":[{"mesh":0,"name":"SM_Bld_Door_Garage_02_Door_01"},{"children":[0],"mesh":1,"name":"SM_Bld_Door_Garage_02","rotation":[0.7071068286895752,0,0,0.7071068286895752],"scale":[0.009999999776482582,0.009999999776482582,0.009999999776482582]}],"materials":[{"doubleSided":true,"name":"SciFi_Planets_SHD","pbrMetallicRoughness":{"baseColorTexture":{"index":1},"metallicFactor":0,"roughnessFactor":0.5527864098548889}}],"meshes":[{"name":"Mesh.001","primitives":[{"attributes":{"POSITION":0,"NORMAL":1,"TEXCOORD_0":2},"indices":3,"material":0}]},{"name":"Mesh","primitives":[{"attributes":{"POSITION":4,"NORMAL":5,"TEXCOORD_0":6},"indices":7,"material":0}]}],"textures":[{"extensions":{},"sampler":0},{"extensions":{"EXT_texture_webp":{"source":0}},"sampler":0}],"images":[{"mimeType":"image/webp","name":"PolygonScifiWorlds_Texture_01_A","uri":"PolygonScifiWorlds_Texture_01_A.webp"}],"accessors":[{"bufferView":0,"componentType":5126,"count":1332,"max":[385.655517578125,19.796905517578125,-4.999998641708929e-15],"min":[-385.655517578125,-19.796920776367188,-445.9905090332031],"type":"VEC3"},{"bufferView":1,"componentType":5126,"count":1332,"type":"VEC3"},{"bufferView":2,"componentType":5126,"count":1332,"type":"VEC2"},{"bufferView":3,"componentType":5123,"count":2412,"type":"SCALAR"},{"bufferView":4,"componentType":5126,"count":1307,"max":[440.3019104003906,41.790679931640625,30],"min":[-440.3019104003906,-41.790679931640625,-502.9247131347656],"type":"VEC3"},{"bufferView":5,"componentType":5126,"count":1307,"type":"VEC3"},{"bufferView":6,"componentType":5126,"count":1307,"type":"VEC2"},{"bufferView":7,"componentType":5123,"count":2394,"type":"SCALAR"}],"bufferViews":[{"buffer":0,"byteLength":15984,"byteOffset":0,"target":34962},{"buffer":0,"byteLength":15984,"byteOffset":15984,"target":34962},{"buffer":0,"byteLength":10656,"byteOffset":31968,"target":34962},{"buffer":0,"byteLength":4824,"byteOffset":42624,"target":34963},{"buffer":0,"byteLength":15684,"byteOffset":47448,"target":34962},{"buffer":0,"byteLength":15684,"byteOffset":63132,"target":34962},{"buffer":0,"byteLength":10456,"byteOffset":78816,"target":34962},{"buffer":0,"byteLength":4788,"byteOffset":89272,"target":34963}],"samplers":[{"magFilter":9729,"minFilter":9987}],"buffers":[{"byteLength":94060,"uri":"worlds_SM_Bld_Door_Garage_02.bin"}]}