{
	"asset":{
		"generator":"Khronos glTF Blender I/O v4.4.55",
		"version":"2.0"
	},
	"extensionsUsed":[
		"EXT_texture_webp"
	],
	"extensionsRequired":[
		"EXT_texture_webp"
	],
	"scene":0,
	"scenes":[
		{
			"name":"Scene",
			"nodes":[
				0
			]
		}
	],
	"nodes":[
		{
			"mesh":0,
			"name":"SM_Env_Plant_Bulb_01",
			"rotation":[
				0.7071068286895752,
				0,
				0,
				0.7071068286895752
			],
			"scale":[
				0.009999999776482582,
				0.009999999776482582,
				0.009999999776482582
			]
		}
	],
	"materials":[
		{
			"doubleSided":true,
			"name":"Base_Lambert1",
			"pbrMetallicRoughness":{
				"baseColorTexture":{
					"index":0
				},
				"metallicFactor":0,
				"roughnessFactor":0.5527864098548889
			}
		}
	],
	"meshes":[
		{
			"name":"Mesh",
			"primitives":[
				{
					"attributes":{
						"POSITION":0,
						"NORMAL":1,
						"TEXCOORD_0":2,
						"COLOR_0":3,
						"COLOR_1":4
					},
					"indices":5,
					"material":0
				}
			]
		}
	],
	"textures":[
		{
			"extensions":{
				"EXT_texture_webp":{
					"source":0
				}
			},
			"sampler":0
		}
	],
	"images":[
		{
			"mimeType":"image/webp",
			"name":"PolygonScifiWorlds_Texture_01_A",
			"uri":"PolygonScifiWorlds_Texture_01_A.webp"
		}
	],
	"accessors":[
		{
			"bufferView":0,
			"componentType":5126,
			"count":1321,
			"max":[
				153.36819458007812,
				162.47401428222656,
				40.77986145019531
			],
			"min":[
				-153.36819458007812,
				-162.47402954101562,
				-476.8955383300781
			],
			"type":"VEC3"
		},
		{
			"bufferView":1,
			"componentType":5126,
			"count":1321,
			"type":"VEC3"
		},
		{
			"bufferView":2,
			"componentType":5126,
			"count":1321,
			"type":"VEC2"
		},
		{
			"bufferView":3,
			"componentType":5121,
			"count":1321,
			"normalized":true,
			"type":"VEC4"
		},
		{
			"bufferView":4,
			"componentType":5123,
			"count":1321,
			"normalized":true,
			"type":"VEC4"
		},
		{
			"bufferView":5,
			"componentType":5123,
			"count":1944,
			"type":"SCALAR"
		}
	],
	"bufferViews":[
		{
			"buffer":0,
			"byteLength":15852,
			"byteOffset":0,
			"target":34962
		},
		{
			"buffer":0,
			"byteLength":15852,
			"byteOffset":15852,
			"target":34962
		},
		{
			"buffer":0,
			"byteLength":10568,
			"byteOffset":31704,
			"target":34962
		},
		{
			"buffer":0,
			"byteLength":5284,
			"byteOffset":42272,
			"target":34962
		},
		{
			"buffer":0,
			"byteLength":10568,
			"byteOffset":47556,
			"target":34962
		},
		{
			"buffer":0,
			"byteLength":3888,
			"byteOffset":58124,
			"target":34963
		}
	],
	"samplers":[
		{
			"magFilter":9729,
			"minFilter":9987
		}
	],
	"buffers":[
		{
			"byteLength":62012,
			"uri":"worlds_SM_Env_Plant_Bulb_01.bin"
		}
	]
}
