{"asset":{"generator":"Khronos glTF Blender I/O v4.4.55","version":"2.0"},"extensionsUsed":["EXT_texture_webp"],"extensionsRequired":["EXT_texture_webp"],"scene":0,"scenes":[{"name":"Scene","nodes":[0]}],"nodes":[{"mesh":0,"name":"SM_Chr_Attach_Hat_04","rotation":[0.7071068286895752,0,0,0.7071068286895752],"scale":[0.009999999776482582,0.009999999776482582,0.009999999776482582]}],"materials":[{"doubleSided":true,"name":"SciFi_Planets_SHD","pbrMetallicRoughness":{"baseColorTexture":{"index":1},"metallicFactor":0,"roughnessFactor":0.5527864098548889}}],"meshes":[{"name":"Mesh","primitives":[{"attributes":{"POSITION":0,"NORMAL":1,"TEXCOORD_0":2,"TEXCOORD_1":3},"indices":4,"material":0}]}],"textures":[{"extensions":{},"sampler":0},{"extensions":{"EXT_texture_webp":{"source":0}},"sampler":0}],"images":[{"mimeType":"image/webp","name":"PolygonScifiWorlds_Texture_01_A","uri":"PolygonScifiWorlds_Texture_01_A.webp"}],"accessors":[{"bufferView":0,"componentType":5126,"count":936,"max":[14.443177223205566,13.047131538391113,12.606277465820312],"min":[-14.218873023986816,-12.990535736083984,-24.57598876953125],"type":"VEC3"},{"bufferView":1,"componentType":5126,"count":936,"type":"VEC3"},{"bufferView":2,"componentType":5126,"count":936,"type":"VEC2"},{"bufferView":3,"componentType":5126,"count":936,"type":"VEC2"},{"bufferView":4,"componentType":5123,"count":1368,"type":"SCALAR"}],"bufferViews":[{"buffer":0,"byteLength":11232,"byteOffset":0,"target":34962},{"buffer":0,"byteLength":11232,"byteOffset":11232,"target":34962},{"buffer":0,"byteLength":7488,"byteOffset":22464,"target":34962},{"buffer":0,"byteLength":7488,"byteOffset":29952,"target":34962},{"buffer":0,"byteLength":2736,"byteOffset":37440,"target":34963}],"samplers":[{"magFilter":9729,"minFilter":9987}],"buffers":[{"byteLength":40176,"uri":"worlds_SM_Chr_Attach_Hat_04.bin"}]}