{"asset":{"generator":"Khronos glTF Blender I/O v4.4.55","version":"2.0"},"extensionsUsed":["EXT_texture_webp"],"extensionsRequired":["EXT_texture_webp"],"scene":0,"scenes":[{"name":"Scene","nodes":[2]}],"nodes":[{"mesh":0,"name":"Rocket_Trig"},{"mesh":1,"name":"SM_Wep_Launcher_02_Trigger_01"},{"children":[0,1],"mesh":2,"name":"SM_Wep_Launcher_02","rotation":[0.7071068286895752,0,0,0.7071068286895752],"scale":[0.009999999776482582,0.009999999776482582,0.009999999776482582]}],"materials":[{"doubleSided":true,"name":"Clip1:SM_Prop_Crate_03SG1","pbrMetallicRoughness":{"baseColorTexture":{"index":1},"metallicFactor":0,"roughnessFactor":0.5527864098548889}}],"meshes":[{"name":"Mesh.001","primitives":[{"attributes":{"POSITION":0,"NORMAL":1,"TEXCOORD_0":2},"indices":3,"material":0}]},{"name":"Mesh.002","primitives":[{"attributes":{"POSITION":4,"NORMAL":5,"TEXCOORD_0":6},"indices":7,"material":0}]},{"name":"Mesh","primitives":[{"attributes":{"POSITION":8,"NORMAL":9,"TEXCOORD_0":10},"indices":11,"material":0}]}],"textures":[{"extensions":{},"sampler":0},{"extensions":{"EXT_texture_webp":{"source":0}},"sampler":0}],"images":[{"mimeType":"image/webp","name":"PolygonScifiWorlds_Texture_01_A","uri":"PolygonScifiWorlds_Texture_01_A.webp"}],"accessors":[{"bufferView":0,"componentType":5126,"count":54,"max":[-1.605062484741211,0.6147913932800293,3.4955825805664062],"min":[-8.746349334716797,-0.6147923469543457,-2.5655670166015625],"type":"VEC3"},{"bufferView":1,"componentType":5126,"count":54,"type":"VEC3"},{"bufferView":2,"componentType":5126,"count":54,"type":"VEC2"},{"bufferView":3,"componentType":5123,"count":90,"type":"SCALAR"},{"bufferView":4,"componentType":5126,"count":80,"max":[0.2695159912109375,8.0400390625,1.1220569610595703],"min":[-0.2695159912109375,3.137725830078125,-3.3841943740844727],"type":"VEC3"},{"bufferView":5,"componentType":5126,"count":80,"type":"VEC3"},{"bufferView":6,"componentType":5126,"count":80,"type":"VEC2"},{"bufferView":7,"componentType":5123,"count":132,"type":"SCALAR"},{"bufferView":8,"componentType":5126,"count":4156,"max":[15.294967651367188,86.76516723632812,16.928176879882812],"min":[-15.294967651367188,-68.39682006835938,-47.55509948730469],"type":"VEC3"},{"bufferView":9,"componentType":5126,"count":4156,"type":"VEC3"},{"bufferView":10,"componentType":5126,"count":4156,"type":"VEC2"},{"bufferView":11,"componentType":5123,"count":6834,"type":"SCALAR"}],"bufferViews":[{"buffer":0,"byteLength":648,"byteOffset":0,"target":34962},{"buffer":0,"byteLength":648,"byteOffset":648,"target":34962},{"buffer":0,"byteLength":432,"byteOffset":1296,"target":34962},{"buffer":0,"byteLength":180,"byteOffset":1728,"target":34963},{"buffer":0,"byteLength":960,"byteOffset":1908,"target":34962},{"buffer":0,"byteLength":960,"byteOffset":2868,"target":34962},{"buffer":0,"byteLength":640,"byteOffset":3828,"target":34962},{"buffer":0,"byteLength":264,"byteOffset":4468,"target":34963},{"buffer":0,"byteLength":49872,"byteOffset":4732,"target":34962},{"buffer":0,"byteLength":49872,"byteOffset":54604,"target":34962},{"buffer":0,"byteLength":33248,"byteOffset":104476,"target":34962},{"buffer":0,"byteLength":13668,"byteOffset":137724,"target":34963}],"samplers":[{"magFilter":9729,"minFilter":9987}],"buffers":[{"byteLength":151392,"uri":"worlds_SM_Wep_Launcher_02.bin"}]}