{"asset":{"generator":"Khronos glTF Blender I/O v4.4.55","version":"2.0"},"extensionsUsed":["EXT_texture_webp"],"extensionsRequired":["EXT_texture_webp"],"scene":0,"scenes":[{"name":"Scene","nodes":[1]}],"nodes":[{"mesh":0,"name":"SM_Bld_Billboard_11_Glass_01"},{"children":[0],"mesh":1,"name":"SM_Bld_Billboard_11","rotation":[0.7071068286895752,0,0,0.7071068286895752],"scale":[0.009999999776482582,0.009999999776482582,0.009999999776482582]}],"materials":[{"doubleSided":true,"name":"BillBoard_2_MAT","pbrMetallicRoughness":{"baseColorTexture":{"index":0},"metallicFactor":0,"roughnessFactor":0.5527864098548889}},{"doubleSided":true,"name":"SciFiCrate_MAT","pbrMetallicRoughness":{"baseColorTexture":{"index":2},"metallicFactor":0,"roughnessFactor":0.5527864098548889}}],"meshes":[{"name":"Mesh.001","primitives":[{"attributes":{"POSITION":0,"NORMAL":1,"TEXCOORD_0":2},"indices":3,"material":0}]},{"name":"Mesh","primitives":[{"attributes":{"POSITION":4,"NORMAL":5,"TEXCOORD_0":6},"indices":7,"material":1}]}],"textures":[{"extensions":{"EXT_texture_webp":{"source":0}},"sampler":0},{"extensions":{},"sampler":0},{"extensions":{"EXT_texture_webp":{"source":0}},"sampler":0}],"images":[{"mimeType":"image/webp","name":"PolygonScifiWorlds_Texture_01_A","uri":"PolygonScifiWorlds_Texture_01_A.webp"}],"accessors":[{"bufferView":0,"componentType":5126,"count":4,"max":[55.453155517578125,0,94.01327514648438],"min":[-55.453155517578125,0,-94.01327514648438],"type":"VEC3"},{"bufferView":1,"componentType":5126,"count":4,"type":"VEC3"},{"bufferView":2,"componentType":5126,"count":4,"type":"VEC2"},{"bufferView":3,"componentType":5123,"count":6,"type":"SCALAR"},{"bufferView":4,"componentType":5126,"count":248,"max":[70.24462890625,3.9228744506835938,108.64190673828125],"min":[-70.24462890625,-10,-108.64190673828125],"type":"VEC3"},{"bufferView":5,"componentType":5126,"count":248,"type":"VEC3"},{"bufferView":6,"componentType":5126,"count":248,"type":"VEC2"},{"bufferView":7,"componentType":5123,"count":444,"type":"SCALAR"}],"bufferViews":[{"buffer":0,"byteLength":48,"byteOffset":0,"target":34962},{"buffer":0,"byteLength":48,"byteOffset":48,"target":34962},{"buffer":0,"byteLength":32,"byteOffset":96,"target":34962},{"buffer":0,"byteLength":12,"byteOffset":128,"target":34963},{"buffer":0,"byteLength":2976,"byteOffset":140,"target":34962},{"buffer":0,"byteLength":2976,"byteOffset":3116,"target":34962},{"buffer":0,"byteLength":1984,"byteOffset":6092,"target":34962},{"buffer":0,"byteLength":888,"byteOffset":8076,"target":34963}],"samplers":[{"magFilter":9729,"minFilter":9987}],"buffers":[{"byteLength":8964,"uri":"worlds_SM_Bld_Billboard_11.bin"}]}