{"asset":{"generator":"Khronos glTF Blender I/O v4.4.55","version":"2.0"},"extensionsUsed":["EXT_texture_webp"],"extensionsRequired":["EXT_texture_webp"],"scene":0,"scenes":[{"name":"Scene","nodes":[2]}],"nodes":[{"mesh":0,"name":"SM_Veh_Hover_Bike_02_Attach_Cargo_01_Lid_01"},{"mesh":1,"name":"SM_Veh_Hover_Bike_02_Attach_Cargo_01_Lid_02"},{"children":[0,1],"mesh":2,"name":"SM_Veh_Hover_Bike_02_Attach_Cargo_01","rotation":[0.7071068286895752,0,0,0.7071068286895752],"scale":[0.009999999776482582,0.009999999776482582,0.009999999776482582]}],"materials":[{"doubleSided":true,"name":"SciFi_Planets_SHD","pbrMetallicRoughness":{"baseColorTexture":{"index":1},"metallicFactor":0,"roughnessFactor":0.5527864098548889}}],"meshes":[{"name":"Mesh.001","primitives":[{"attributes":{"POSITION":0,"NORMAL":1,"TEXCOORD_0":2},"indices":3,"material":0}]},{"name":"Mesh.002","primitives":[{"attributes":{"POSITION":4,"NORMAL":5,"TEXCOORD_0":6},"indices":7,"material":0}]},{"name":"Mesh","primitives":[{"attributes":{"POSITION":8,"NORMAL":9,"TEXCOORD_0":10},"indices":11,"material":0}]}],"textures":[{"extensions":{},"sampler":0},{"extensions":{"EXT_texture_webp":{"source":0}},"sampler":0}],"images":[{"mimeType":"image/webp","name":"PolygonScifiWorlds_Texture_01_A","uri":"PolygonScifiWorlds_Texture_01_A.webp"}],"accessors":[{"bufferView":0,"componentType":5126,"count":207,"max":[33.95794677734375,-163.75051879882812,-56.230445861816406],"min":[4.24517822265625,-186.25747680664062,-82.1391372680664],"type":"VEC3"},{"bufferView":1,"componentType":5126,"count":207,"type":"VEC3"},{"bufferView":2,"componentType":5126,"count":207,"type":"VEC2"},{"bufferView":3,"componentType":5123,"count":330,"type":"SCALAR"},{"bufferView":4,"componentType":5126,"count":207,"max":[-4.24517822265625,-163.75051879882812,-56.230445861816406],"min":[-33.95793151855469,-186.25747680664062,-82.1391372680664],"type":"VEC3"},{"bufferView":5,"componentType":5126,"count":207,"type":"VEC3"},{"bufferView":6,"componentType":5126,"count":207,"type":"VEC2"},{"bufferView":7,"componentType":5123,"count":330,"type":"SCALAR"},{"bufferView":8,"componentType":5126,"count":1686,"max":[41.92711639404297,-132.4293670654297,-35.79302215576172],"min":[-39.31231689453125,-186.44056701660156,-130.33456420898438],"type":"VEC3"},{"bufferView":9,"componentType":5126,"count":1686,"type":"VEC3"},{"bufferView":10,"componentType":5126,"count":1686,"type":"VEC2"},{"bufferView":11,"componentType":5123,"count":2622,"type":"SCALAR"}],"bufferViews":[{"buffer":0,"byteLength":2484,"byteOffset":0,"target":34962},{"buffer":0,"byteLength":2484,"byteOffset":2484,"target":34962},{"buffer":0,"byteLength":1656,"byteOffset":4968,"target":34962},{"buffer":0,"byteLength":660,"byteOffset":6624,"target":34963},{"buffer":0,"byteLength":2484,"byteOffset":7284,"target":34962},{"buffer":0,"byteLength":2484,"byteOffset":9768,"target":34962},{"buffer":0,"byteLength":1656,"byteOffset":12252,"target":34962},{"buffer":0,"byteLength":660,"byteOffset":13908,"target":34963},{"buffer":0,"byteLength":20232,"byteOffset":14568,"target":34962},{"buffer":0,"byteLength":20232,"byteOffset":34800,"target":34962},{"buffer":0,"byteLength":13488,"byteOffset":55032,"target":34962},{"buffer":0,"byteLength":5244,"byteOffset":68520,"target":34963}],"samplers":[{"magFilter":9729,"minFilter":9987}],"buffers":[{"byteLength":73764,"uri":"worlds_SM_Veh_Hover_Bike_02_Attach_Cargo_01.bin"}]}