{"asset":{"generator":"Khronos glTF Blender I/O v4.4.55","version":"2.0"},"extensionsUsed":["EXT_texture_webp"],"extensionsRequired":["EXT_texture_webp"],"scene":0,"scenes":[{"name":"Scene","nodes":[1]}],"nodes":[{"mesh":0,"name":"SM_Bld_Window_04_Glass"},{"children":[0],"mesh":1,"name":"SM_Bld_Window_04","rotation":[0.7071068286895752,0,0,0.7071068286895752],"scale":[0.009999999776482582,0.009999999776482582,0.009999999776482582]}],"materials":[{"alphaMode":"MASK","doubleSided":true,"name":"Glass_MAT","pbrMetallicRoughness":{"baseColorFactor":[1,1,1,0.15662652254104614],"baseColorTexture":{"index":0},"metallicFactor":0,"roughnessFactor":0.5527864098548889},"alphaCutoff":0.5},{"doubleSided":true,"name":"SciFi_Planets_SHD","pbrMetallicRoughness":{"baseColorTexture":{"index":2},"metallicFactor":0,"roughnessFactor":0.5527864098548889}}],"meshes":[{"name":"Mesh.001","primitives":[{"attributes":{"POSITION":0,"NORMAL":1,"TEXCOORD_0":2},"indices":3,"material":0}]},{"name":"Mesh","primitives":[{"attributes":{"POSITION":4,"NORMAL":5,"TEXCOORD_0":6},"indices":7,"material":1}]}],"textures":[{"extensions":{"EXT_texture_webp":{"source":0}},"sampler":0},{"extensions":{},"sampler":0},{"extensions":{"EXT_texture_webp":{"source":0}},"sampler":0}],"images":[{"mimeType":"image/webp","name":"PolygonScifiWorlds_Texture_01_A","uri":"PolygonScifiWorlds_Texture_01_A.webp"}],"accessors":[{"bufferView":0,"componentType":5126,"count":20,"max":[108.06787109375,15.239768981933594,3.944409132003784],"min":[-108.06787109375,-15.239845275878906,-3.944409132003784],"type":"VEC3"},{"bufferView":1,"componentType":5126,"count":20,"type":"VEC3"},{"bufferView":2,"componentType":5126,"count":20,"type":"VEC2"},{"bufferView":3,"componentType":5123,"count":48,"type":"SCALAR"},{"bufferView":4,"componentType":5126,"count":474,"max":[112.27363586425781,19.239791870117188,10.987532615661621],"min":[-112.27363586425781,-19.239791870117188,-10.987532615661621],"type":"VEC3"},{"bufferView":5,"componentType":5126,"count":474,"type":"VEC3"},{"bufferView":6,"componentType":5126,"count":474,"type":"VEC2"},{"bufferView":7,"componentType":5123,"count":852,"type":"SCALAR"}],"bufferViews":[{"buffer":0,"byteLength":240,"byteOffset":0,"target":34962},{"buffer":0,"byteLength":240,"byteOffset":240,"target":34962},{"buffer":0,"byteLength":160,"byteOffset":480,"target":34962},{"buffer":0,"byteLength":96,"byteOffset":640,"target":34963},{"buffer":0,"byteLength":5688,"byteOffset":736,"target":34962},{"buffer":0,"byteLength":5688,"byteOffset":6424,"target":34962},{"buffer":0,"byteLength":3792,"byteOffset":12112,"target":34962},{"buffer":0,"byteLength":1704,"byteOffset":15904,"target":34963}],"samplers":[{"magFilter":9729,"minFilter":9987}],"buffers":[{"byteLength":17608,"uri":"worlds_SM_Bld_Window_04.bin"}]}