{
	"asset":{
		"generator":"Khronos glTF Blender I/O v4.4.55",
		"version":"2.0"
	},
	"extensionsUsed":[
		"EXT_texture_webp"
	],
	"extensionsRequired":[
		"EXT_texture_webp"
	],
	"scene":0,
	"scenes":[
		{
			"name":"Scene",
			"nodes":[
				3
			]
		}
	],
	"nodes":[
		{
			"mesh":0,
			"name":"SM_Bld_Vendor_01_Door_01"
		},
		{
			"mesh":1,
			"name":"SM_Bld_Vendor_01_Shutter_01"
		},
		{
			"mesh":2,
			"name":"SM_Bld_Vendor_01_Shutter_02"
		},
		{
			"children":[
				0,
				1,
				2
			],
			"mesh":3,
			"name":"SM_Bld_Vendor_01",
			"rotation":[
				0.7071068286895752,
				0,
				0,
				0.7071068286895752
			],
			"scale":[
				0.009999999776482582,
				0.009999999776482582,
				0.009999999776482582
			]
		}
	],
	"materials":[
		{
			"doubleSided":true,
			"name":"lambert7",
			"pbrMetallicRoughness":{
				"baseColorTexture":{
					"index":0
				},
				"metallicFactor":0,
				"roughnessFactor":0.5527864098548889
			}
		}
	],
	"meshes":[
		{
			"name":"Mesh.003",
			"primitives":[
				{
					"attributes":{
						"POSITION":0,
						"NORMAL":1,
						"TEXCOORD_0":2
					},
					"indices":3,
					"material":0
				}
			]
		},
		{
			"name":"Mesh.001",
			"primitives":[
				{
					"attributes":{
						"POSITION":4,
						"NORMAL":5,
						"TEXCOORD_0":6
					},
					"indices":7,
					"material":0
				}
			]
		},
		{
			"name":"Mesh.002",
			"primitives":[
				{
					"attributes":{
						"POSITION":8,
						"NORMAL":9,
						"TEXCOORD_0":10
					},
					"indices":11,
					"material":0
				}
			]
		},
		{
			"name":"Mesh",
			"primitives":[
				{
					"attributes":{
						"POSITION":12,
						"NORMAL":13,
						"TEXCOORD_0":14
					},
					"indices":15,
					"material":0
				}
			]
		}
	],
	"textures":[
		{
			"extensions":{
				"EXT_texture_webp":{
					"source":0
				}
			},
			"sampler":0
		}
	],
	"images":[
		{
			"mimeType":"image/webp",
			"name":"PolygonScifiWorlds_Texture_01_A",
			"uri":"PolygonScifiWorlds_Texture_01_A.webp"
		}
	],
	"accessors":[
		{
			"bufferView":0,
			"componentType":5126,
			"count":24,
			"max":[
				56.4764289855957,
				-126.15897369384766,
				1.3099784155201633e-06
			],
			"min":[
				-56.47651290893555,
				-129.94297790527344,
				-220.56105041503906
			],
			"type":"VEC3"
		},
		{
			"bufferView":1,
			"componentType":5126,
			"count":24,
			"type":"VEC3"
		},
		{
			"bufferView":2,
			"componentType":5126,
			"count":24,
			"type":"VEC2"
		},
		{
			"bufferView":3,
			"componentType":5123,
			"count":36,
			"type":"SCALAR"
		},
		{
			"bufferView":4,
			"componentType":5126,
			"count":335,
			"max":[
				159.32485961914062,
				3.228691339492798,
				-194.833740234375
			],
			"min":[
				-159.32485961914062,
				-53.37111282348633,
				-240.76148986816406
			],
			"type":"VEC3"
		},
		{
			"bufferView":5,
			"componentType":5126,
			"count":335,
			"type":"VEC3"
		},
		{
			"bufferView":6,
			"componentType":5126,
			"count":335,
			"type":"VEC2"
		},
		{
			"bufferView":7,
			"componentType":5123,
			"count":666,
			"type":"SCALAR"
		},
		{
			"bufferView":8,
			"componentType":5126,
			"count":302,
			"max":[
				159.32485961914062,
				31.265871047973633,
				-98.8663101196289
			],
			"min":[
				-159.32485961914062,
				-26.93975257873535,
				-237.93731689453125
			],
			"type":"VEC3"
		},
		{
			"bufferView":9,
			"componentType":5126,
			"count":302,
			"type":"VEC3"
		},
		{
			"bufferView":10,
			"componentType":5126,
			"count":302,
			"type":"VEC2"
		},
		{
			"bufferView":11,
			"componentType":5123,
			"count":636,
			"type":"SCALAR"
		},
		{
			"bufferView":12,
			"componentType":5126,
			"count":5468,
			"max":[
				192.39112854003906,
				147.16552734375,
				36.184410095214844
			],
			"min":[
				-217.23414611816406,
				-147.16549682617188,
				-475.1186218261719
			],
			"type":"VEC3"
		},
		{
			"bufferView":13,
			"componentType":5126,
			"count":5468,
			"type":"VEC3"
		},
		{
			"bufferView":14,
			"componentType":5126,
			"count":5468,
			"type":"VEC2"
		},
		{
			"bufferView":15,
			"componentType":5123,
			"count":10128,
			"type":"SCALAR"
		}
	],
	"bufferViews":[
		{
			"buffer":0,
			"byteLength":288,
			"byteOffset":0,
			"target":34962
		},
		{
			"buffer":0,
			"byteLength":288,
			"byteOffset":288,
			"target":34962
		},
		{
			"buffer":0,
			"byteLength":192,
			"byteOffset":576,
			"target":34962
		},
		{
			"buffer":0,
			"byteLength":72,
			"byteOffset":768,
			"target":34963
		},
		{
			"buffer":0,
			"byteLength":4020,
			"byteOffset":840,
			"target":34962
		},
		{
			"buffer":0,
			"byteLength":4020,
			"byteOffset":4860,
			"target":34962
		},
		{
			"buffer":0,
			"byteLength":2680,
			"byteOffset":8880,
			"target":34962
		},
		{
			"buffer":0,
			"byteLength":1332,
			"byteOffset":11560,
			"target":34963
		},
		{
			"buffer":0,
			"byteLength":3624,
			"byteOffset":12892,
			"target":34962
		},
		{
			"buffer":0,
			"byteLength":3624,
			"byteOffset":16516,
			"target":34962
		},
		{
			"buffer":0,
			"byteLength":2416,
			"byteOffset":20140,
			"target":34962
		},
		{
			"buffer":0,
			"byteLength":1272,
			"byteOffset":22556,
			"target":34963
		},
		{
			"buffer":0,
			"byteLength":65616,
			"byteOffset":23828,
			"target":34962
		},
		{
			"buffer":0,
			"byteLength":65616,
			"byteOffset":89444,
			"target":34962
		},
		{
			"buffer":0,
			"byteLength":43744,
			"byteOffset":155060,
			"target":34962
		},
		{
			"buffer":0,
			"byteLength":20256,
			"byteOffset":198804,
			"target":34963
		}
	],
	"samplers":[
		{
			"magFilter":9729,
			"minFilter":9987
		}
	],
	"buffers":[
		{
			"byteLength":219060,
			"uri":"worlds_SM_Bld_Vendor_01.bin"
		}
	]
}
