{
	"asset":{
		"generator":"Khronos glTF Blender I/O v4.4.55",
		"version":"2.0"
	},
	"extensionsUsed":[
		"EXT_texture_webp"
	],
	"extensionsRequired":[
		"EXT_texture_webp"
	],
	"scene":0,
	"scenes":[
		{
			"name":"Scene",
			"nodes":[
				3
			]
		}
	],
	"nodes":[
		{
			"mesh":0,
			"name":"SM_Bld_Corp_Radar_01_Top_01"
		},
		{
			"children":[
				0
			],
			"mesh":1,
			"name":"SM_Bld_Corp_Radar_01_Arm_01"
		},
		{
			"mesh":2,
			"name":"SM_Bld_Corp_Radar_01_Glass_01"
		},
		{
			"children":[
				1,
				2
			],
			"mesh":3,
			"name":"SM_Bld_Corp_Radar_01",
			"rotation":[
				0.7071068286895752,
				0,
				0,
				0.7071068286895752
			],
			"scale":[
				0.009999999776482582,
				0.009999999776482582,
				0.009999999776482582
			]
		}
	],
	"materials":[
		{
			"doubleSided":true,
			"name":"Base_Lambert1",
			"pbrMetallicRoughness":{
				"baseColorTexture":{
					"index":0
				},
				"metallicFactor":0,
				"roughnessFactor":0.5527864098548889
			}
		}
	],
	"meshes":[
		{
			"name":"Mesh.002",
			"primitives":[
				{
					"attributes":{
						"POSITION":0,
						"NORMAL":1,
						"TEXCOORD_0":2
					},
					"indices":3,
					"material":0
				}
			]
		},
		{
			"name":"Mesh.001",
			"primitives":[
				{
					"attributes":{
						"POSITION":4,
						"NORMAL":5,
						"TEXCOORD_0":6
					},
					"indices":7,
					"material":0
				}
			]
		},
		{
			"name":"Mesh.003",
			"primitives":[
				{
					"attributes":{
						"POSITION":8,
						"NORMAL":9,
						"TEXCOORD_0":10
					},
					"indices":11,
					"material":0
				}
			]
		},
		{
			"name":"Mesh",
			"primitives":[
				{
					"attributes":{
						"POSITION":12,
						"NORMAL":13,
						"TEXCOORD_0":14
					},
					"indices":15,
					"material":0
				}
			]
		}
	],
	"textures":[
		{
			"extensions":{
				"EXT_texture_webp":{
					"source":0
				}
			},
			"sampler":0
		}
	],
	"images":[
		{
			"mimeType":"image/webp",
			"name":"PolygonScifiWorlds_Texture_01_A",
			"uri":"PolygonScifiWorlds_Texture_01_A.webp"
		}
	],
	"accessors":[
		{
			"bufferView":0,
			"componentType":5126,
			"count":1903,
			"max":[
				853.6167602539062,
				399.7449035644531,
				-1099.218017578125
			],
			"min":[
				-853.6167602539062,
				-20.540199279785156,
				-1603.97021484375
			],
			"type":"VEC3"
		},
		{
			"bufferView":1,
			"componentType":5126,
			"count":1903,
			"type":"VEC3"
		},
		{
			"bufferView":2,
			"componentType":5126,
			"count":1903,
			"type":"VEC2"
		},
		{
			"bufferView":3,
			"componentType":5123,
			"count":3678,
			"type":"SCALAR"
		},
		{
			"bufferView":4,
			"componentType":5126,
			"count":1023,
			"max":[
				144.67007446289062,
				144.67005920410156,
				-438.3097839355469
			],
			"min":[
				-144.67005920410156,
				-144.67005920410156,
				-1393.6181640625
			],
			"type":"VEC3"
		},
		{
			"bufferView":5,
			"componentType":5126,
			"count":1023,
			"type":"VEC3"
		},
		{
			"bufferView":6,
			"componentType":5126,
			"count":1023,
			"type":"VEC2"
		},
		{
			"bufferView":7,
			"componentType":5123,
			"count":1770,
			"type":"SCALAR"
		},
		{
			"bufferView":8,
			"componentType":5126,
			"count":232,
			"max":[
				832.6619873046875,
				771.2265625,
				-80.48160552978516
			],
			"min":[
				-832.6619873046875,
				-792.19873046875,
				-287.7982482910156
			],
			"type":"VEC3"
		},
		{
			"bufferView":9,
			"componentType":5126,
			"count":232,
			"type":"VEC3"
		},
		{
			"bufferView":10,
			"componentType":5126,
			"count":232,
			"type":"VEC2"
		},
		{
			"bufferView":11,
			"componentType":5123,
			"count":384,
			"type":"SCALAR"
		},
		{
			"bufferView":12,
			"componentType":5126,
			"count":8476,
			"max":[
				1333.3516845703125,
				824.322021484375,
				32.73545455932617
			],
			"min":[
				-1333.351806640625,
				-1503.75537109375,
				-1036.4547119140625
			],
			"type":"VEC3"
		},
		{
			"bufferView":13,
			"componentType":5126,
			"count":8476,
			"type":"VEC3"
		},
		{
			"bufferView":14,
			"componentType":5126,
			"count":8476,
			"type":"VEC2"
		},
		{
			"bufferView":15,
			"componentType":5123,
			"count":15552,
			"type":"SCALAR"
		}
	],
	"bufferViews":[
		{
			"buffer":0,
			"byteLength":22836,
			"byteOffset":0,
			"target":34962
		},
		{
			"buffer":0,
			"byteLength":22836,
			"byteOffset":22836,
			"target":34962
		},
		{
			"buffer":0,
			"byteLength":15224,
			"byteOffset":45672,
			"target":34962
		},
		{
			"buffer":0,
			"byteLength":7356,
			"byteOffset":60896,
			"target":34963
		},
		{
			"buffer":0,
			"byteLength":12276,
			"byteOffset":68252,
			"target":34962
		},
		{
			"buffer":0,
			"byteLength":12276,
			"byteOffset":80528,
			"target":34962
		},
		{
			"buffer":0,
			"byteLength":8184,
			"byteOffset":92804,
			"target":34962
		},
		{
			"buffer":0,
			"byteLength":3540,
			"byteOffset":100988,
			"target":34963
		},
		{
			"buffer":0,
			"byteLength":2784,
			"byteOffset":104528,
			"target":34962
		},
		{
			"buffer":0,
			"byteLength":2784,
			"byteOffset":107312,
			"target":34962
		},
		{
			"buffer":0,
			"byteLength":1856,
			"byteOffset":110096,
			"target":34962
		},
		{
			"buffer":0,
			"byteLength":768,
			"byteOffset":111952,
			"target":34963
		},
		{
			"buffer":0,
			"byteLength":101712,
			"byteOffset":112720,
			"target":34962
		},
		{
			"buffer":0,
			"byteLength":101712,
			"byteOffset":214432,
			"target":34962
		},
		{
			"buffer":0,
			"byteLength":67808,
			"byteOffset":316144,
			"target":34962
		},
		{
			"buffer":0,
			"byteLength":31104,
			"byteOffset":383952,
			"target":34963
		}
	],
	"samplers":[
		{
			"magFilter":9729,
			"minFilter":9987
		}
	],
	"buffers":[
		{
			"byteLength":415056,
			"uri":"worlds_SM_Bld_Corp_Radar_01.bin"
		}
	]
}
