{"asset":{"generator":"Khronos glTF Blender I/O v4.4.55","version":"2.0"},"extensionsUsed":["EXT_texture_webp"],"extensionsRequired":["EXT_texture_webp"],"scene":0,"scenes":[{"name":"Scene","nodes":[3]}],"nodes":[{"mesh":0,"name":"SM_Bld_Door_Single_03_Door_01"},{"mesh":1,"name":"SM_Bld_Door_Single_03_Door_02_Glass","scale":[1,0.4631910026073456,1]},{"children":[1],"mesh":2,"name":"SM_Bld_Door_Single_03_Door_02"},{"children":[0,2],"mesh":3,"name":"SM_Bld_Door_Single_03","rotation":[0.7071068286895752,0,0,0.7071068286895752],"scale":[0.009999999776482582,0.009999999776482582,0.009999999776482582]}],"materials":[{"doubleSided":true,"name":"SciFi_Planets_SHD1","pbrMetallicRoughness":{"baseColorTexture":{"index":1},"metallicFactor":0,"roughnessFactor":0.5527864098548889}},{"alphaMode":"MASK","doubleSided":true,"name":"Glass_MAT","pbrMetallicRoughness":{"baseColorFactor":[1,1,1,0.15662652254104614],"baseColorTexture":{"index":2},"metallicFactor":0,"roughnessFactor":0.5527864098548889},"alphaCutoff":0.5}],"meshes":[{"name":"Mesh.003","primitives":[{"attributes":{"POSITION":0,"NORMAL":1,"TEXCOORD_0":2},"indices":3,"material":0}]},{"name":"Mesh.002","primitives":[{"attributes":{"POSITION":4,"NORMAL":5,"TEXCOORD_0":6},"indices":7,"material":1}]},{"name":"Mesh.001","primitives":[{"attributes":{"POSITION":8,"NORMAL":9,"TEXCOORD_0":10},"indices":11,"material":0}]},{"name":"Mesh","primitives":[{"attributes":{"POSITION":12,"NORMAL":13,"TEXCOORD_0":14},"indices":15,"material":0}]}],"textures":[{"extensions":{},"sampler":0},{"extensions":{"EXT_texture_webp":{"source":0}},"sampler":0},{"extensions":{"EXT_texture_webp":{"source":0}},"sampler":0}],"images":[{"mimeType":"image/webp","name":"PolygonScifiWorlds_Texture_01_A","uri":"PolygonScifiWorlds_Texture_01_A.webp"}],"accessors":[{"bufferView":0,"componentType":5126,"count":364,"max":[84.16387939453125,7.5,1.6626050791443262e-15],"min":[-84.16395568847656,-7.5,-127.26187896728516],"type":"VEC3"},{"bufferView":1,"componentType":5126,"count":364,"type":"VEC3"},{"bufferView":2,"componentType":5126,"count":364,"type":"VEC2"},{"bufferView":3,"componentType":5123,"count":708,"type":"SCALAR"},{"bufferView":4,"componentType":5126,"count":16,"max":[33.68024444580078,5.471950531005859,-192.35293579101562],"min":[-33.680320739746094,-5.471950531005859,-212.62002563476562],"type":"VEC3"},{"bufferView":5,"componentType":5126,"count":16,"type":"VEC3"},{"bufferView":6,"componentType":5126,"count":16,"type":"VEC2"},{"bufferView":7,"componentType":5123,"count":36,"type":"SCALAR"},{"bufferView":8,"componentType":5126,"count":616,"max":[84.16387939453125,7.5,-106.16260528564453],"min":[-84.16395568847656,-7.5,-254.5237579345703],"type":"VEC3"},{"bufferView":9,"componentType":5126,"count":616,"type":"VEC3"},{"bufferView":10,"componentType":5126,"count":616,"type":"VEC2"},{"bufferView":11,"componentType":5123,"count":1176,"type":"SCALAR"},{"bufferView":12,"componentType":5126,"count":622,"max":[105.94850158691406,32.44929885864258,30],"min":[-105.90100860595703,-32.49000930786133,-271.1451416015625],"type":"VEC3"},{"bufferView":13,"componentType":5126,"count":622,"type":"VEC3"},{"bufferView":14,"componentType":5126,"count":622,"type":"VEC2"},{"bufferView":15,"componentType":5123,"count":1110,"type":"SCALAR"}],"bufferViews":[{"buffer":0,"byteLength":4368,"byteOffset":0,"target":34962},{"buffer":0,"byteLength":4368,"byteOffset":4368,"target":34962},{"buffer":0,"byteLength":2912,"byteOffset":8736,"target":34962},{"buffer":0,"byteLength":1416,"byteOffset":11648,"target":34963},{"buffer":0,"byteLength":192,"byteOffset":13064,"target":34962},{"buffer":0,"byteLength":192,"byteOffset":13256,"target":34962},{"buffer":0,"byteLength":128,"byteOffset":13448,"target":34962},{"buffer":0,"byteLength":72,"byteOffset":13576,"target":34963},{"buffer":0,"byteLength":7392,"byteOffset":13648,"target":34962},{"buffer":0,"byteLength":7392,"byteOffset":21040,"target":34962},{"buffer":0,"byteLength":4928,"byteOffset":28432,"target":34962},{"buffer":0,"byteLength":2352,"byteOffset":33360,"target":34963},{"buffer":0,"byteLength":7464,"byteOffset":35712,"target":34962},{"buffer":0,"byteLength":7464,"byteOffset":43176,"target":34962},{"buffer":0,"byteLength":4976,"byteOffset":50640,"target":34962},{"buffer":0,"byteLength":2220,"byteOffset":55616,"target":34963}],"samplers":[{"magFilter":9729,"minFilter":9987}],"buffers":[{"byteLength":57836,"uri":"worlds_SM_Bld_Door_Single_03.bin"}]}