{"asset":{"generator":"Khronos glTF Blender I/O v4.4.55","version":"2.0"},"extensionsUsed":["EXT_texture_webp"],"extensionsRequired":["EXT_texture_webp"],"scene":0,"scenes":[{"name":"Scene","nodes":[0]}],"nodes":[{"mesh":0,"name":"SM_Chr_Attach_Backpack_Large_01","rotation":[0.7071068286895752,0,0,0.7071068286895752],"scale":[0.009999999776482582,0.009999999776482582,0.009999999776482582]}],"materials":[{"doubleSided":true,"name":"SciFiCrate_MAT","pbrMetallicRoughness":{"baseColorTexture":{"index":1},"metallicFactor":0,"roughnessFactor":0.5527864098548889}},{"doubleSided":true,"name":"lambert13","pbrMetallicRoughness":{"baseColorTexture":{"index":2},"metallicFactor":0,"roughnessFactor":0.5527864098548889}},{"alphaMode":"MASK","doubleSided":true,"name":"lambert4","pbrMetallicRoughness":{"baseColorTexture":{"index":3},"metallicFactor":0,"roughnessFactor":0.5527864098548889},"alphaCutoff":0.5},{"alphaMode":"MASK","doubleSided":true,"name":"screensForCam:Glass_MAT","pbrMetallicRoughness":{"baseColorFactor":[1,1,1,0.15662652254104614],"baseColorTexture":{"index":4},"metallicFactor":0,"roughnessFactor":0.5527864098548889},"alphaCutoff":0.5}],"meshes":[{"name":"Mesh","primitives":[{"attributes":{"POSITION":0,"NORMAL":1,"TEXCOORD_0":2},"indices":3,"material":0},{"attributes":{"POSITION":4,"NORMAL":5,"TEXCOORD_0":6},"indices":7,"material":1},{"attributes":{"POSITION":8,"NORMAL":9,"TEXCOORD_0":10},"indices":11,"material":2},{"attributes":{"POSITION":12,"NORMAL":13,"TEXCOORD_0":14},"indices":15,"material":3}]}],"textures":[{"extensions":{},"sampler":0},{"extensions":{"EXT_texture_webp":{"source":0}},"sampler":0},{"extensions":{"EXT_texture_webp":{"source":0}},"sampler":0},{"extensions":{"EXT_texture_webp":{"source":0}},"sampler":0},{"extensions":{"EXT_texture_webp":{"source":0}},"sampler":0}],"images":[{"mimeType":"image/webp","name":"PolygonScifiWorlds_Texture_01_A","uri":"PolygonScifiWorlds_Texture_01_A.webp"}],"accessors":[{"bufferView":0,"componentType":5126,"count":6048,"max":[32.5998420715332,-9.987335205078125,52.318572998046875],"min":[-36.6915397644043,-86.7877426147461,-80.35482788085938],"type":"VEC3"},{"bufferView":1,"componentType":5126,"count":6048,"type":"VEC3"},{"bufferView":2,"componentType":5126,"count":6048,"type":"VEC2"},{"bufferView":3,"componentType":5123,"count":10800,"type":"SCALAR"},{"bufferView":4,"componentType":5126,"count":490,"max":[31.58203125,-50.538978576660156,-16.483367919921875],"min":[-4.068822860717773,-84.12162780761719,-80.35482788085938],"type":"VEC3"},{"bufferView":5,"componentType":5126,"count":490,"type":"VEC3"},{"bufferView":6,"componentType":5126,"count":490,"type":"VEC2"},{"bufferView":7,"componentType":5123,"count":810,"type":"SCALAR"},{"bufferView":8,"componentType":5126,"count":980,"max":[30.65056800842285,-19.103042602539062,46.64654541015625],"min":[-33.641578674316406,-85.24141693115234,-80.35482788085938],"type":"VEC3"},{"bufferView":9,"componentType":5126,"count":980,"type":"VEC3"},{"bufferView":10,"componentType":5126,"count":980,"type":"VEC2"},{"bufferView":11,"componentType":5123,"count":1620,"type":"SCALAR"},{"bufferView":12,"componentType":5126,"count":490,"max":[1.4257621765136719,-48.11369323730469,46.64654541015625],"min":[-34.141746520996094,-81.59687042236328,-17.22491455078125],"type":"VEC3"},{"bufferView":13,"componentType":5126,"count":490,"type":"VEC3"},{"bufferView":14,"componentType":5126,"count":490,"type":"VEC2"},{"bufferView":15,"componentType":5123,"count":810,"type":"SCALAR"}],"bufferViews":[{"buffer":0,"byteLength":72576,"byteOffset":0,"target":34962},{"buffer":0,"byteLength":72576,"byteOffset":72576,"target":34962},{"buffer":0,"byteLength":48384,"byteOffset":145152,"target":34962},{"buffer":0,"byteLength":21600,"byteOffset":193536,"target":34963},{"buffer":0,"byteLength":5880,"byteOffset":215136,"target":34962},{"buffer":0,"byteLength":5880,"byteOffset":221016,"target":34962},{"buffer":0,"byteLength":3920,"byteOffset":226896,"target":34962},{"buffer":0,"byteLength":1620,"byteOffset":230816,"target":34963},{"buffer":0,"byteLength":11760,"byteOffset":232436,"target":34962},{"buffer":0,"byteLength":11760,"byteOffset":244196,"target":34962},{"buffer":0,"byteLength":7840,"byteOffset":255956,"target":34962},{"buffer":0,"byteLength":3240,"byteOffset":263796,"target":34963},{"buffer":0,"byteLength":5880,"byteOffset":267036,"target":34962},{"buffer":0,"byteLength":5880,"byteOffset":272916,"target":34962},{"buffer":0,"byteLength":3920,"byteOffset":278796,"target":34962},{"buffer":0,"byteLength":1620,"byteOffset":282716,"target":34963}],"samplers":[{"magFilter":9729,"minFilter":9987}],"buffers":[{"byteLength":284336,"uri":"worlds_SM_Chr_Attach_Backpack_Large_01.bin"}]}