{"asset":{"generator":"Khronos glTF Blender I/O v4.4.55","version":"2.0"},"extensionsUsed":["EXT_texture_webp"],"extensionsRequired":["EXT_texture_webp"],"scene":0,"scenes":[{"name":"Scene","nodes":[0]}],"nodes":[{"mesh":0,"name":"SM_Prop_Vendor_TV_01","rotation":[0.7071068286895752,0,0,0.7071068286895752],"scale":[0.009999999776482582,0.009999999776482582,0.009999999776482582]}],"materials":[{"doubleSided":true,"name":"SciFi_Planets_SHD","pbrMetallicRoughness":{"baseColorTexture":{"index":1},"metallicFactor":0,"roughnessFactor":0.5527864098548889}},{"doubleSided":true,"name":"ScreenSHD","pbrMetallicRoughness":{"baseColorTexture":{"index":2},"metallicFactor":0,"roughnessFactor":0.5527864098548889}}],"meshes":[{"name":"Mesh","primitives":[{"attributes":{"POSITION":0,"NORMAL":1,"TEXCOORD_0":2},"indices":3,"material":0},{"attributes":{"POSITION":4,"NORMAL":5,"TEXCOORD_0":6},"indices":7,"material":1}]}],"textures":[{"extensions":{},"sampler":0},{"extensions":{"EXT_texture_webp":{"source":0}},"sampler":0},{"extensions":{"EXT_texture_webp":{"source":1}},"sampler":0}],"images":[{"mimeType":"image/webp","name":"PolygonScifiWorlds_Texture_01_A","uri":"PolygonScifiWorlds_Texture_01_A.webp"},{"mimeType":"image/webp","name":"CatScreen_01","uri":"CatScreen_01.webp"}],"accessors":[{"bufferView":0,"componentType":5126,"count":1107,"max":[42.34175491333008,25.521366119384766,4.263256414560601e-14],"min":[-36.58844757080078,-25.52135467529297,-124.76190948486328],"type":"VEC3"},{"bufferView":1,"componentType":5126,"count":1107,"type":"VEC3"},{"bufferView":2,"componentType":5126,"count":1107,"type":"VEC2"},{"bufferView":3,"componentType":5123,"count":1782,"type":"SCALAR"},{"bufferView":4,"componentType":5126,"count":24,"max":[27.060680389404297,23.483840942382812,-12.088632583618164],"min":[-27.060775756835938,20.09788703918457,-52.551231384277344],"type":"VEC3"},{"bufferView":5,"componentType":5126,"count":24,"type":"VEC3"},{"bufferView":6,"componentType":5126,"count":24,"type":"VEC2"},{"bufferView":7,"componentType":5123,"count":36,"type":"SCALAR"}],"bufferViews":[{"buffer":0,"byteLength":13284,"byteOffset":0,"target":34962},{"buffer":0,"byteLength":13284,"byteOffset":13284,"target":34962},{"buffer":0,"byteLength":8856,"byteOffset":26568,"target":34962},{"buffer":0,"byteLength":3564,"byteOffset":35424,"target":34963},{"buffer":0,"byteLength":288,"byteOffset":38988,"target":34962},{"buffer":0,"byteLength":288,"byteOffset":39276,"target":34962},{"buffer":0,"byteLength":192,"byteOffset":39564,"target":34962},{"buffer":0,"byteLength":72,"byteOffset":39756,"target":34963}],"samplers":[{"magFilter":9729,"minFilter":9987}],"buffers":[{"byteLength":39828,"uri":"worlds_SM_Prop_Vendor_TV_01.bin"}]}