{
	"asset":{
		"generator":"Khronos glTF Blender I/O v4.4.55",
		"version":"2.0"
	},
	"extensionsUsed":[
		"EXT_texture_webp"
	],
	"extensionsRequired":[
		"EXT_texture_webp"
	],
	"scene":0,
	"scenes":[
		{
			"name":"Scene",
			"nodes":[
				0
			]
		}
	],
	"nodes":[
		{
			"mesh":0,
			"name":"SM_Prop_Poster_02",
			"rotation":[
				0.7071068286895752,
				0,
				0,
				0.7071068286895752
			],
			"scale":[
				0.009999999776482582,
				0.009999999776482582,
				0.009999999776482582
			]
		}
	],
	"materials":[
		{
			"doubleSided":true,
			"name":"Base_Lambert1",
			"pbrMetallicRoughness":{
				"baseColorTexture":{
					"index":0
				},
				"metallicFactor":0,
				"roughnessFactor":0.5527864098548889
			}
		},
		{
			"doubleSided":true,
			"name":"lambert9",
			"pbrMetallicRoughness":{
				"baseColorTexture":{
					"index":1
				},
				"metallicFactor":0,
				"roughnessFactor":0.5527864098548889
			}
		}
	],
	"meshes":[
		{
			"name":"Mesh",
			"primitives":[
				{
					"attributes":{
						"POSITION":0,
						"NORMAL":1,
						"TEXCOORD_0":2
					},
					"indices":3,
					"material":0
				},
				{
					"attributes":{
						"POSITION":4,
						"NORMAL":5,
						"TEXCOORD_0":6
					},
					"indices":7,
					"material":1
				}
			]
		}
	],
	"textures":[
		{
			"extensions":{
				"EXT_texture_webp":{
					"source":0
				}
			},
			"sampler":0
		},
		{
			"extensions":{
				"EXT_texture_webp":{
					"source":0
				}
			},
			"sampler":0
		}
	],
	"images":[
		{
			"mimeType":"image/webp",
			"name":"PolygonScifiWorlds_Texture_01_A",
			"uri":"PolygonScifiWorlds_Texture_01_A.webp"
		}
	],
	"accessors":[
		{
			"bufferView":0,
			"componentType":5126,
			"count":79,
			"max":[
				45.673309326171875,
				27.102317810058594,
				76.82785034179688
			],
			"min":[
				-45.56287384033203,
				-0.15847623348236084,
				-76.764892578125
			],
			"type":"VEC3"
		},
		{
			"bufferView":1,
			"componentType":5126,
			"count":79,
			"type":"VEC3"
		},
		{
			"bufferView":2,
			"componentType":5126,
			"count":79,
			"type":"VEC2"
		},
		{
			"bufferView":3,
			"componentType":5123,
			"count":129,
			"type":"SCALAR"
		},
		{
			"bufferView":4,
			"componentType":5126,
			"count":25,
			"max":[
				45.188541412353516,
				26.222463607788086,
				76.48440551757812
			],
			"min":[
				-45.188541412353516,
				1.2760220766067505,
				-76.48440551757812
			],
			"type":"VEC3"
		},
		{
			"bufferView":5,
			"componentType":5126,
			"count":25,
			"type":"VEC3"
		},
		{
			"bufferView":6,
			"componentType":5126,
			"count":25,
			"type":"VEC2"
		},
		{
			"bufferView":7,
			"componentType":5123,
			"count":39,
			"type":"SCALAR"
		}
	],
	"bufferViews":[
		{
			"buffer":0,
			"byteLength":948,
			"byteOffset":0,
			"target":34962
		},
		{
			"buffer":0,
			"byteLength":948,
			"byteOffset":948,
			"target":34962
		},
		{
			"buffer":0,
			"byteLength":632,
			"byteOffset":1896,
			"target":34962
		},
		{
			"buffer":0,
			"byteLength":258,
			"byteOffset":2528,
			"target":34963
		},
		{
			"buffer":0,
			"byteLength":300,
			"byteOffset":2788,
			"target":34962
		},
		{
			"buffer":0,
			"byteLength":300,
			"byteOffset":3088,
			"target":34962
		},
		{
			"buffer":0,
			"byteLength":200,
			"byteOffset":3388,
			"target":34962
		},
		{
			"buffer":0,
			"byteLength":78,
			"byteOffset":3588,
			"target":34963
		}
	],
	"samplers":[
		{
			"magFilter":9729,
			"minFilter":9987
		}
	],
	"buffers":[
		{
			"byteLength":3668,
			"uri":"worlds_SM_Prop_Poster_02.bin"
		}
	]
}
