{"asset":{"generator":"Khronos glTF Blender I/O v4.4.55","version":"2.0"},"extensionsUsed":["EXT_texture_webp"],"extensionsRequired":["EXT_texture_webp"],"scene":0,"scenes":[{"name":"Scene","nodes":[0]}],"nodes":[{"mesh":0,"name":"SM_Bld_Scav_Refinery_Pipe_01_Window_01","rotation":[0.7071068286895752,0,0,0.7071068286895752],"scale":[0.009999999776482582,0.009999999776482582,0.009999999776482582]}],"materials":[{"doubleSided":true,"name":"SciFi_Planets_SHD","pbrMetallicRoughness":{"baseColorTexture":{"index":1},"metallicFactor":0,"roughnessFactor":0.5527864098548889}}],"meshes":[{"name":"Mesh","primitives":[{"attributes":{"POSITION":0,"NORMAL":1,"TEXCOORD_0":2},"indices":3,"material":0}]}],"textures":[{"extensions":{},"sampler":0},{"extensions":{"EXT_texture_webp":{"source":0}},"sampler":0}],"images":[{"mimeType":"image/webp","name":"PolygonScifiWorlds_Texture_01_A","uri":"PolygonScifiWorlds_Texture_01_A.webp"}],"accessors":[{"bufferView":0,"componentType":5126,"count":418,"max":[8.183731079101562,57.585243225097656,34.81280517578125],"min":[-12.439544677734375,-57.585289001464844,-34.812744140625],"type":"VEC3"},{"bufferView":1,"componentType":5126,"count":418,"type":"VEC3"},{"bufferView":2,"componentType":5126,"count":418,"type":"VEC2"},{"bufferView":3,"componentType":5123,"count":660,"type":"SCALAR"}],"bufferViews":[{"buffer":0,"byteLength":5016,"byteOffset":0,"target":34962},{"buffer":0,"byteLength":5016,"byteOffset":5016,"target":34962},{"buffer":0,"byteLength":3344,"byteOffset":10032,"target":34962},{"buffer":0,"byteLength":1320,"byteOffset":13376,"target":34963}],"samplers":[{"magFilter":9729,"minFilter":9987}],"buffers":[{"byteLength":14696,"uri":"worlds_SM_Bld_Scav_Refinery_Pipe_01_Window_01.bin"}]}