{
	"asset":{
		"generator":"Khronos glTF Blender I/O v4.4.55",
		"version":"2.0"
	},
	"extensionsUsed":[
		"EXT_texture_webp"
	],
	"extensionsRequired":[
		"EXT_texture_webp"
	],
	"scene":0,
	"scenes":[
		{
			"name":"Scene",
			"nodes":[
				0
			]
		}
	],
	"nodes":[
		{
			"mesh":0,
			"name":"SM_Prop_Holosign_SynKyng_01_Bottles_01",
			"rotation":[
				0.7071068286895752,
				0,
				0,
				0.7071068286895752
			],
			"scale":[
				0.009999999776482582,
				0.009999999776482582,
				0.009999999776482582
			]
		}
	],
	"materials":[
		{
			"doubleSided":true,
			"name":"Base_Lambert1",
			"pbrMetallicRoughness":{
				"baseColorTexture":{
					"index":0
				},
				"metallicFactor":0,
				"roughnessFactor":0.5527864098548889
			}
		}
	],
	"meshes":[
		{
			"name":"Mesh",
			"primitives":[
				{
					"attributes":{
						"POSITION":0,
						"NORMAL":1,
						"TEXCOORD_0":2
					},
					"indices":3,
					"material":0
				}
			]
		}
	],
	"textures":[
		{
			"extensions":{
				"EXT_texture_webp":{
					"source":0
				}
			},
			"sampler":0
		}
	],
	"images":[
		{
			"mimeType":"image/webp",
			"name":"PolygonScifiWorlds_Texture_01_A",
			"uri":"PolygonScifiWorlds_Texture_01_A.webp"
		}
	],
	"accessors":[
		{
			"bufferView":0,
			"componentType":5126,
			"count":7344,
			"max":[
				2071.346923828125,
				2015.04833984375,
				-1016.1005859375
			],
			"min":[
				-2063.113525390625,
				-2065.06689453125,
				-2926.9482421875
			],
			"type":"VEC3"
		},
		{
			"bufferView":1,
			"componentType":5126,
			"count":7344,
			"type":"VEC3"
		},
		{
			"bufferView":2,
			"componentType":5126,
			"count":7344,
			"type":"VEC2"
		},
		{
			"bufferView":3,
			"componentType":5123,
			"count":11136,
			"type":"SCALAR"
		}
	],
	"bufferViews":[
		{
			"buffer":0,
			"byteLength":88128,
			"byteOffset":0,
			"target":34962
		},
		{
			"buffer":0,
			"byteLength":88128,
			"byteOffset":88128,
			"target":34962
		},
		{
			"buffer":0,
			"byteLength":58752,
			"byteOffset":176256,
			"target":34962
		},
		{
			"buffer":0,
			"byteLength":22272,
			"byteOffset":235008,
			"target":34963
		}
	],
	"samplers":[
		{
			"magFilter":9729,
			"minFilter":9987
		}
	],
	"buffers":[
		{
			"byteLength":257280,
			"uri":"worlds_SM_Prop_Holosign_SynKyng_01_Bottles_01.bin"
		}
	]
}
