{
	"asset":{
		"generator":"Khronos glTF Blender I/O v4.4.55",
		"version":"2.0"
	},
	"extensionsUsed":[
		"EXT_texture_webp"
	],
	"extensionsRequired":[
		"EXT_texture_webp"
	],
	"scene":0,
	"scenes":[
		{
			"name":"Scene",
			"nodes":[
				0
			]
		}
	],
	"nodes":[
		{
			"mesh":0,
			"name":"SM_Prop_Skeleton_Spine_01",
			"rotation":[
				0.7071068286895752,
				0,
				0,
				0.7071068286895752
			],
			"scale":[
				0.009999999776482582,
				0.009999999776482582,
				0.009999999776482582
			],
			"translation":[
				0,
				-48.81341552734375,
				-9.875149726867676
			]
		}
	],
	"materials":[
		{
			"doubleSided":true,
			"name":"lambert2",
			"pbrMetallicRoughness":{
				"baseColorTexture":{
					"index":0
				},
				"metallicFactor":0,
				"roughnessFactor":0.5527864098548889
			}
		}
	],
	"meshes":[
		{
			"name":"Mesh",
			"primitives":[
				{
					"attributes":{
						"POSITION":0,
						"NORMAL":1,
						"TEXCOORD_0":2
					},
					"indices":3,
					"material":0
				}
			]
		}
	],
	"textures":[
		{
			"extensions":{
				"EXT_texture_webp":{
					"source":0
				}
			},
			"sampler":0
		}
	],
	"images":[
		{
			"mimeType":"image/webp",
			"name":"PolygonScifiWorlds_Texture_01_A",
			"uri":"PolygonScifiWorlds_Texture_01_A.webp"
		}
	],
	"accessors":[
		{
			"bufferView":0,
			"componentType":5126,
			"count":1894,
			"max":[
				5534.1953125,
				1178.0859375,
				794.3594360351562
			],
			"min":[
				-5594.69677734375,
				-3777.08154296875,
				-11142.8759765625
			],
			"type":"VEC3"
		},
		{
			"bufferView":1,
			"componentType":5126,
			"count":1894,
			"type":"VEC3"
		},
		{
			"bufferView":2,
			"componentType":5126,
			"count":1894,
			"type":"VEC2"
		},
		{
			"bufferView":3,
			"componentType":5123,
			"count":1926,
			"type":"SCALAR"
		}
	],
	"bufferViews":[
		{
			"buffer":0,
			"byteLength":22728,
			"byteOffset":0,
			"target":34962
		},
		{
			"buffer":0,
			"byteLength":22728,
			"byteOffset":22728,
			"target":34962
		},
		{
			"buffer":0,
			"byteLength":15152,
			"byteOffset":45456,
			"target":34962
		},
		{
			"buffer":0,
			"byteLength":3852,
			"byteOffset":60608,
			"target":34963
		}
	],
	"samplers":[
		{
			"magFilter":9729,
			"minFilter":9987
		}
	],
	"buffers":[
		{
			"byteLength":64460,
			"uri":"worlds_SM_Prop_Skeleton_Spine_01.bin"
		}
	]
}
