{"asset":{"generator":"Khronos glTF Blender I/O v4.4.55","version":"2.0"},"extensionsUsed":["EXT_texture_webp"],"extensionsRequired":["EXT_texture_webp"],"scene":0,"scenes":[{"name":"Scene","nodes":[0]}],"nodes":[{"mesh":0,"name":"SM_Wep_Scope_Sniper_01","rotation":[0.7071068286895752,0,0,0.7071068286895752],"scale":[0.009999999776482582,0.009999999776482582,0.009999999776482582]}],"materials":[{"doubleSided":true,"name":"Clip1:SM_Prop_Crate_03SG6","pbrMetallicRoughness":{"baseColorTexture":{"index":1},"metallicFactor":0,"roughnessFactor":0.5527864098548889}}],"meshes":[{"name":"Mesh","primitives":[{"attributes":{"POSITION":0,"NORMAL":1,"TEXCOORD_0":2,"COLOR_0":3,"COLOR_1":4,"COLOR_2":5},"indices":6,"material":0}]}],"textures":[{"extensions":{},"sampler":0},{"extensions":{"EXT_texture_webp":{"source":0}},"sampler":0}],"images":[{"mimeType":"image/webp","name":"PolygonScifiWorlds_Texture_01_A","uri":"PolygonScifiWorlds_Texture_01_A.webp"}],"accessors":[{"bufferView":0,"componentType":5126,"count":506,"max":[5.107992172241211,23.907901763916016,1.4436473846435547],"min":[-5.107992172241211,-23.90789794921875,-15.75996208190918],"type":"VEC3"},{"bufferView":1,"componentType":5126,"count":506,"type":"VEC3"},{"bufferView":2,"componentType":5126,"count":506,"type":"VEC2"},{"bufferView":3,"componentType":5121,"count":506,"normalized":true,"type":"VEC4"},{"bufferView":4,"componentType":5123,"count":506,"normalized":true,"type":"VEC4"},{"bufferView":5,"componentType":5123,"count":506,"normalized":true,"type":"VEC4"},{"bufferView":6,"componentType":5123,"count":906,"type":"SCALAR"}],"bufferViews":[{"buffer":0,"byteLength":6072,"byteOffset":0,"target":34962},{"buffer":0,"byteLength":6072,"byteOffset":6072,"target":34962},{"buffer":0,"byteLength":4048,"byteOffset":12144,"target":34962},{"buffer":0,"byteLength":2024,"byteOffset":16192,"target":34962},{"buffer":0,"byteLength":4048,"byteOffset":18216,"target":34962},{"buffer":0,"byteLength":4048,"byteOffset":22264,"target":34962},{"buffer":0,"byteLength":1812,"byteOffset":26312,"target":34963}],"samplers":[{"magFilter":9729,"minFilter":9987}],"buffers":[{"byteLength":28124,"uri":"worlds_SM_Wep_Scope_Sniper_01.bin"}]}