{"asset":{"generator":"Khronos glTF Blender I/O v4.4.55","version":"2.0"},"extensionsUsed":["EXT_texture_webp"],"extensionsRequired":["EXT_texture_webp"],"scene":0,"scenes":[{"name":"Scene","nodes":[2]}],"nodes":[{"mesh":0,"name":"SM_Wep_Heavy_03_Mag_01"},{"mesh":1,"name":"SM_Wep_Heavy_03_Trigger_01"},{"children":[0,1],"mesh":2,"name":"SM_Wep_Heavy_03","rotation":[0.7071068286895752,0,0,0.7071068286895752],"scale":[0.009999999776482582,0.009999999776482582,0.009999999776482582]}],"materials":[{"doubleSided":true,"name":"Clip1:SM_Prop_Crate_03SG1","pbrMetallicRoughness":{"baseColorTexture":{"index":1},"metallicFactor":0,"roughnessFactor":0.5527864098548889}}],"meshes":[{"name":"Mesh.002","primitives":[{"attributes":{"POSITION":0,"NORMAL":1,"TEXCOORD_0":2},"indices":3,"material":0}]},{"name":"Mesh.001","primitives":[{"attributes":{"POSITION":4,"NORMAL":5,"TEXCOORD_0":6},"indices":7,"material":0}]},{"name":"Mesh","primitives":[{"attributes":{"POSITION":8,"NORMAL":9,"TEXCOORD_0":10},"indices":11,"material":0}]}],"textures":[{"extensions":{},"sampler":0},{"extensions":{"EXT_texture_webp":{"source":0}},"sampler":0}],"images":[{"mimeType":"image/webp","name":"PolygonScifiWorlds_Texture_01_A","uri":"PolygonScifiWorlds_Texture_01_A.webp"}],"accessors":[{"bufferView":0,"componentType":5126,"count":414,"max":[6.81617546081543,35.44898223876953,32.83375549316406],"min":[-6.816173553466797,10.663415908813477,5.479206562042236],"type":"VEC3"},{"bufferView":1,"componentType":5126,"count":414,"type":"VEC3"},{"bufferView":2,"componentType":5126,"count":414,"type":"VEC2"},{"bufferView":3,"componentType":5123,"count":708,"type":"SCALAR"},{"bufferView":4,"componentType":5126,"count":42,"max":[0.5107669234275818,2.838449478149414,5.526244640350342],"min":[-0.5107651948928833,-3.272367477416992,-1.7634296417236328],"type":"VEC3"},{"bufferView":5,"componentType":5126,"count":42,"type":"VEC3"},{"bufferView":6,"componentType":5126,"count":42,"type":"VEC2"},{"bufferView":7,"componentType":5123,"count":84,"type":"SCALAR"},{"bufferView":8,"componentType":5126,"count":2166,"max":[15.447265625,70.25413513183594,29.40866470336914],"min":[-15.447265625,-34.59740447998047,-18.077077865600586],"type":"VEC3"},{"bufferView":9,"componentType":5126,"count":2166,"type":"VEC3"},{"bufferView":10,"componentType":5126,"count":2166,"type":"VEC2"},{"bufferView":11,"componentType":5123,"count":3996,"type":"SCALAR"}],"bufferViews":[{"buffer":0,"byteLength":4968,"byteOffset":0,"target":34962},{"buffer":0,"byteLength":4968,"byteOffset":4968,"target":34962},{"buffer":0,"byteLength":3312,"byteOffset":9936,"target":34962},{"buffer":0,"byteLength":1416,"byteOffset":13248,"target":34963},{"buffer":0,"byteLength":504,"byteOffset":14664,"target":34962},{"buffer":0,"byteLength":504,"byteOffset":15168,"target":34962},{"buffer":0,"byteLength":336,"byteOffset":15672,"target":34962},{"buffer":0,"byteLength":168,"byteOffset":16008,"target":34963},{"buffer":0,"byteLength":25992,"byteOffset":16176,"target":34962},{"buffer":0,"byteLength":25992,"byteOffset":42168,"target":34962},{"buffer":0,"byteLength":17328,"byteOffset":68160,"target":34962},{"buffer":0,"byteLength":7992,"byteOffset":85488,"target":34963}],"samplers":[{"magFilter":9729,"minFilter":9987}],"buffers":[{"byteLength":93480,"uri":"worlds_SM_Wep_Heavy_03.bin"}]}