{
	"asset":{
		"generator":"Khronos glTF Blender I/O v4.4.55",
		"version":"2.0"
	},
	"extensionsUsed":[
		"EXT_texture_webp"
	],
	"extensionsRequired":[
		"EXT_texture_webp"
	],
	"scene":0,
	"scenes":[
		{
			"name":"Scene",
			"nodes":[
				0
			]
		}
	],
	"nodes":[
		{
			"mesh":0,
			"name":"SM_Env_Floating_Rocks_Spiral_01",
			"rotation":[
				0.7071068286895752,
				0,
				0,
				0.7071068286895752
			],
			"scale":[
				0.009999999776482582,
				0.009999999776482582,
				0.009999999776482582
			]
		}
	],
	"materials":[
		{
			"doubleSided":true,
			"name":"ScifiMat",
			"pbrMetallicRoughness":{
				"baseColorTexture":{
					"index":0
				},
				"metallicFactor":0,
				"roughnessFactor":0.5527864098548889
			}
		}
	],
	"meshes":[
		{
			"name":"Mesh",
			"primitives":[
				{
					"attributes":{
						"POSITION":0,
						"NORMAL":1,
						"TEXCOORD_0":2,
						"TEXCOORD_1":3
					},
					"indices":4,
					"material":0
				}
			]
		}
	],
	"textures":[
		{
			"extensions":{
				"EXT_texture_webp":{
					"source":0
				}
			},
			"sampler":0
		}
	],
	"images":[
		{
			"mimeType":"image/webp",
			"name":"PolygonScifiWorlds_Texture_01_A",
			"uri":"PolygonScifiWorlds_Texture_01_A.webp"
		}
	],
	"accessors":[
		{
			"bufferView":0,
			"componentType":5126,
			"count":944,
			"max":[
				1253.6588134765625,
				563.3255615234375,
				189.48123168945312
			],
			"min":[
				-1097.9732666015625,
				-1409.2314453125,
				-1664.049560546875
			],
			"type":"VEC3"
		},
		{
			"bufferView":1,
			"componentType":5126,
			"count":944,
			"type":"VEC3"
		},
		{
			"bufferView":2,
			"componentType":5126,
			"count":944,
			"type":"VEC2"
		},
		{
			"bufferView":3,
			"componentType":5126,
			"count":944,
			"type":"VEC2"
		},
		{
			"bufferView":4,
			"componentType":5123,
			"count":1422,
			"type":"SCALAR"
		}
	],
	"bufferViews":[
		{
			"buffer":0,
			"byteLength":11328,
			"byteOffset":0,
			"target":34962
		},
		{
			"buffer":0,
			"byteLength":11328,
			"byteOffset":11328,
			"target":34962
		},
		{
			"buffer":0,
			"byteLength":7552,
			"byteOffset":22656,
			"target":34962
		},
		{
			"buffer":0,
			"byteLength":7552,
			"byteOffset":30208,
			"target":34962
		},
		{
			"buffer":0,
			"byteLength":2844,
			"byteOffset":37760,
			"target":34963
		}
	],
	"samplers":[
		{
			"magFilter":9729,
			"minFilter":9987
		}
	],
	"buffers":[
		{
			"byteLength":40604,
			"uri":"worlds_SM_Env_Floating_Rocks_Spiral_01.bin"
		}
	]
}
