{"asset":{"generator":"Khronos glTF Blender I/O v4.4.55","version":"2.0"},"extensionsUsed":["EXT_texture_webp"],"extensionsRequired":["EXT_texture_webp"],"scene":0,"scenes":[{"name":"Scene","nodes":[1]}],"nodes":[{"mesh":0,"name":"SM_Prop_Vendor_Tool_02_Trigger"},{"children":[0],"mesh":1,"name":"SM_Prop_Vendor_Tool_02","rotation":[0.7071068286895752,0,0,0.7071068286895752],"scale":[0.009999999776482582,0.009999999776482582,0.009999999776482582]}],"materials":[{"doubleSided":true,"name":"SciFi_Planets_SHD","pbrMetallicRoughness":{"baseColorTexture":{"index":1},"metallicFactor":0,"roughnessFactor":0.5527864098548889}}],"meshes":[{"name":"Mesh.001","primitives":[{"attributes":{"POSITION":0,"NORMAL":1,"TEXCOORD_0":2},"indices":3,"material":0}]},{"name":"Mesh","primitives":[{"attributes":{"POSITION":4,"NORMAL":5,"TEXCOORD_0":6},"indices":7,"material":0}]}],"textures":[{"extensions":{},"sampler":0},{"extensions":{"EXT_texture_webp":{"source":0}},"sampler":0}],"images":[{"mimeType":"image/webp","name":"PolygonScifiWorlds_Texture_01_A","uri":"PolygonScifiWorlds_Texture_01_A.webp"}],"accessors":[{"bufferView":0,"componentType":5126,"count":68,"max":[0.48857006430625916,5.132153034210205,1.7565996646881104],"min":[-0.48857006430625916,2.124180793762207,-1.8341453075408936],"type":"VEC3"},{"bufferView":1,"componentType":5126,"count":68,"type":"VEC3"},{"bufferView":2,"componentType":5126,"count":68,"type":"VEC2"},{"bufferView":3,"componentType":5123,"count":108,"type":"SCALAR"},{"bufferView":4,"componentType":5126,"count":1048,"max":[4.495594501495361,26.931001663208008,12.409303665161133],"min":[-4.495593547821045,-14.319513320922852,-10.46295166015625],"type":"VEC3"},{"bufferView":5,"componentType":5126,"count":1048,"type":"VEC3"},{"bufferView":6,"componentType":5126,"count":1048,"type":"VEC2"},{"bufferView":7,"componentType":5123,"count":1662,"type":"SCALAR"}],"bufferViews":[{"buffer":0,"byteLength":816,"byteOffset":0,"target":34962},{"buffer":0,"byteLength":816,"byteOffset":816,"target":34962},{"buffer":0,"byteLength":544,"byteOffset":1632,"target":34962},{"buffer":0,"byteLength":216,"byteOffset":2176,"target":34963},{"buffer":0,"byteLength":12576,"byteOffset":2392,"target":34962},{"buffer":0,"byteLength":12576,"byteOffset":14968,"target":34962},{"buffer":0,"byteLength":8384,"byteOffset":27544,"target":34962},{"buffer":0,"byteLength":3324,"byteOffset":35928,"target":34963}],"samplers":[{"magFilter":9729,"minFilter":9987}],"buffers":[{"byteLength":39252,"uri":"worlds_SM_Prop_Vendor_Tool_02.bin"}]}