{
	"asset":{
		"generator":"Khronos glTF Blender I/O v4.4.55",
		"version":"2.0"
	},
	"extensionsUsed":[
		"EXT_texture_webp"
	],
	"extensionsRequired":[
		"EXT_texture_webp"
	],
	"scene":0,
	"scenes":[
		{
			"name":"Scene",
			"nodes":[
				4
			]
		}
	],
	"nodes":[
		{
			"mesh":0,
			"name":"SM_Prop_Turret_Large_03_Missiles_01"
		},
		{
			"mesh":1,
			"name":"SM_Prop_Turret_Large_03_Missiles_02"
		},
		{
			"children":[
				0,
				1
			],
			"mesh":2,
			"name":"SM_Prop_Turret_Large_03_Launcher_01"
		},
		{
			"children":[
				2
			],
			"mesh":3,
			"name":"SM_Prop_Turret_Large_03_Top_01"
		},
		{
			"children":[
				3
			],
			"mesh":4,
			"name":"SM_Prop_Turret_Large_03",
			"rotation":[
				0.7071068286895752,
				0,
				0,
				0.7071068286895752
			],
			"scale":[
				0.009999999776482582,
				0.009999999776482582,
				0.009999999776482582
			]
		}
	],
	"materials":[
		{
			"doubleSided":true,
			"name":"Base_Lambert3",
			"pbrMetallicRoughness":{
				"baseColorTexture":{
					"index":0
				},
				"metallicFactor":0,
				"roughnessFactor":0.5527864098548889
			}
		}
	],
	"meshes":[
		{
			"name":"Mesh.004",
			"primitives":[
				{
					"attributes":{
						"POSITION":0,
						"NORMAL":1,
						"TEXCOORD_0":2
					},
					"indices":3,
					"material":0
				}
			]
		},
		{
			"name":"Mesh.003",
			"primitives":[
				{
					"attributes":{
						"POSITION":4,
						"NORMAL":5,
						"TEXCOORD_0":6
					},
					"indices":7,
					"material":0
				}
			]
		},
		{
			"name":"Mesh.002",
			"primitives":[
				{
					"attributes":{
						"POSITION":8,
						"NORMAL":9,
						"TEXCOORD_0":10
					},
					"indices":11,
					"material":0
				}
			]
		},
		{
			"name":"Mesh.001",
			"primitives":[
				{
					"attributes":{
						"POSITION":12,
						"NORMAL":13,
						"TEXCOORD_0":14
					},
					"indices":15,
					"material":0
				}
			]
		},
		{
			"name":"Mesh",
			"primitives":[
				{
					"attributes":{
						"POSITION":16,
						"NORMAL":17,
						"TEXCOORD_0":18
					},
					"indices":19,
					"material":0
				}
			]
		}
	],
	"textures":[
		{
			"extensions":{
				"EXT_texture_webp":{
					"source":0
				}
			},
			"sampler":0
		}
	],
	"images":[
		{
			"mimeType":"image/webp",
			"name":"PolygonScifiWorlds_Texture_01_A",
			"uri":"PolygonScifiWorlds_Texture_01_A.webp"
		}
	],
	"accessors":[
		{
			"bufferView":0,
			"componentType":5126,
			"count":780,
			"max":[
				174.68312072753906,
				120.43412017822266,
				-259.1225280761719
			],
			"min":[
				92.15838623046875,
				92.50687408447266,
				-406.22113037109375
			],
			"type":"VEC3"
		},
		{
			"bufferView":1,
			"componentType":5126,
			"count":780,
			"type":"VEC3"
		},
		{
			"bufferView":2,
			"componentType":5126,
			"count":780,
			"type":"VEC2"
		},
		{
			"bufferView":3,
			"componentType":5123,
			"count":1200,
			"type":"SCALAR"
		},
		{
			"bufferView":4,
			"componentType":5126,
			"count":780,
			"max":[
				-92.15838623046875,
				120.43412017822266,
				-259.1225280761719
			],
			"min":[
				-174.68312072753906,
				92.50687408447266,
				-406.22113037109375
			],
			"type":"VEC3"
		},
		{
			"bufferView":5,
			"componentType":5126,
			"count":780,
			"type":"VEC3"
		},
		{
			"bufferView":6,
			"componentType":5126,
			"count":780,
			"type":"VEC2"
		},
		{
			"bufferView":7,
			"componentType":5123,
			"count":1200,
			"type":"SCALAR"
		},
		{
			"bufferView":8,
			"componentType":5126,
			"count":6380,
			"max":[
				210.58102416992188,
				123.56253814697266,
				-230.38633728027344
			],
			"min":[
				-210.58102416992188,
				-133.93588256835938,
				-461.2834167480469
			],
			"type":"VEC3"
		},
		{
			"bufferView":9,
			"componentType":5126,
			"count":6380,
			"type":"VEC3"
		},
		{
			"bufferView":10,
			"componentType":5126,
			"count":6380,
			"type":"VEC2"
		},
		{
			"bufferView":11,
			"componentType":5123,
			"count":11220,
			"type":"SCALAR"
		},
		{
			"bufferView":12,
			"componentType":5126,
			"count":894,
			"max":[
				88.906494140625,
				83.630859375,
				-148.97299194335938
			],
			"min":[
				-88.906494140625,
				-100.0478515625,
				-388.51873779296875
			],
			"type":"VEC3"
		},
		{
			"bufferView":13,
			"componentType":5126,
			"count":894,
			"type":"VEC3"
		},
		{
			"bufferView":14,
			"componentType":5126,
			"count":894,
			"type":"VEC2"
		},
		{
			"bufferView":15,
			"componentType":5123,
			"count":1572,
			"type":"SCALAR"
		},
		{
			"bufferView":16,
			"componentType":5126,
			"count":1947,
			"max":[
				184.22265625,
				184.22314453125,
				-2.9802322387695312e-08
			],
			"min":[
				-184.22314453125,
				-184.22308349609375,
				-169.94284057617188
			],
			"type":"VEC3"
		},
		{
			"bufferView":17,
			"componentType":5126,
			"count":1947,
			"type":"VEC3"
		},
		{
			"bufferView":18,
			"componentType":5126,
			"count":1947,
			"type":"VEC2"
		},
		{
			"bufferView":19,
			"componentType":5123,
			"count":3186,
			"type":"SCALAR"
		}
	],
	"bufferViews":[
		{
			"buffer":0,
			"byteLength":9360,
			"byteOffset":0,
			"target":34962
		},
		{
			"buffer":0,
			"byteLength":9360,
			"byteOffset":9360,
			"target":34962
		},
		{
			"buffer":0,
			"byteLength":6240,
			"byteOffset":18720,
			"target":34962
		},
		{
			"buffer":0,
			"byteLength":2400,
			"byteOffset":24960,
			"target":34963
		},
		{
			"buffer":0,
			"byteLength":9360,
			"byteOffset":27360,
			"target":34962
		},
		{
			"buffer":0,
			"byteLength":9360,
			"byteOffset":36720,
			"target":34962
		},
		{
			"buffer":0,
			"byteLength":6240,
			"byteOffset":46080,
			"target":34962
		},
		{
			"buffer":0,
			"byteLength":2400,
			"byteOffset":52320,
			"target":34963
		},
		{
			"buffer":0,
			"byteLength":76560,
			"byteOffset":54720,
			"target":34962
		},
		{
			"buffer":0,
			"byteLength":76560,
			"byteOffset":131280,
			"target":34962
		},
		{
			"buffer":0,
			"byteLength":51040,
			"byteOffset":207840,
			"target":34962
		},
		{
			"buffer":0,
			"byteLength":22440,
			"byteOffset":258880,
			"target":34963
		},
		{
			"buffer":0,
			"byteLength":10728,
			"byteOffset":281320,
			"target":34962
		},
		{
			"buffer":0,
			"byteLength":10728,
			"byteOffset":292048,
			"target":34962
		},
		{
			"buffer":0,
			"byteLength":7152,
			"byteOffset":302776,
			"target":34962
		},
		{
			"buffer":0,
			"byteLength":3144,
			"byteOffset":309928,
			"target":34963
		},
		{
			"buffer":0,
			"byteLength":23364,
			"byteOffset":313072,
			"target":34962
		},
		{
			"buffer":0,
			"byteLength":23364,
			"byteOffset":336436,
			"target":34962
		},
		{
			"buffer":0,
			"byteLength":15576,
			"byteOffset":359800,
			"target":34962
		},
		{
			"buffer":0,
			"byteLength":6372,
			"byteOffset":375376,
			"target":34963
		}
	],
	"samplers":[
		{
			"magFilter":9729,
			"minFilter":9987
		}
	],
	"buffers":[
		{
			"byteLength":381748,
			"uri":"worlds_SM_Prop_Turret_Large_03.bin"
		}
	]
}
