{
	"asset":{
		"generator":"Khronos glTF Blender I/O v4.4.55",
		"version":"2.0"
	},
	"extensionsUsed":[
		"EXT_texture_webp"
	],
	"extensionsRequired":[
		"EXT_texture_webp"
	],
	"scene":0,
	"scenes":[
		{
			"name":"Scene",
			"nodes":[
				0
			]
		}
	],
	"nodes":[
		{
			"mesh":0,
			"name":"SM_Chr_Attach_Pouch_02",
			"rotation":[
				0.7071068286895752,
				0,
				0,
				0.7071068286895752
			],
			"scale":[
				0.009999999776482582,
				0.009999999776482582,
				0.009999999776482582
			]
		}
	],
	"materials":[
		{
			"doubleSided":true,
			"name":"Scifi",
			"pbrMetallicRoughness":{
				"baseColorTexture":{
					"index":0
				},
				"metallicFactor":0,
				"roughnessFactor":0.5527864098548889
			}
		}
	],
	"meshes":[
		{
			"name":"Mesh",
			"primitives":[
				{
					"attributes":{
						"POSITION":0,
						"NORMAL":1,
						"TEXCOORD_0":2,
						"TEXCOORD_1":3
					},
					"indices":4,
					"material":0
				}
			]
		}
	],
	"textures":[
		{
			"extensions":{
				"EXT_texture_webp":{
					"source":0
				}
			},
			"sampler":0
		}
	],
	"images":[
		{
			"mimeType":"image/webp",
			"name":"PolygonScifiWorlds_Texture_01_A",
			"uri":"PolygonScifiWorlds_Texture_01_A.webp"
		}
	],
	"accessors":[
		{
			"bufferView":0,
			"componentType":5126,
			"count":1412,
			"max":[
				12.35748291015625,
				4.799881935119629,
				10.068649291992188
			],
			"min":[
				-12.35748291015625,
				-4.799881935119629,
				-10.068641662597656
			],
			"type":"VEC3"
		},
		{
			"bufferView":1,
			"componentType":5126,
			"count":1412,
			"type":"VEC3"
		},
		{
			"bufferView":2,
			"componentType":5126,
			"count":1412,
			"type":"VEC2"
		},
		{
			"bufferView":3,
			"componentType":5126,
			"count":1412,
			"type":"VEC2"
		},
		{
			"bufferView":4,
			"componentType":5123,
			"count":2466,
			"type":"SCALAR"
		}
	],
	"bufferViews":[
		{
			"buffer":0,
			"byteLength":16944,
			"byteOffset":0,
			"target":34962
		},
		{
			"buffer":0,
			"byteLength":16944,
			"byteOffset":16944,
			"target":34962
		},
		{
			"buffer":0,
			"byteLength":11296,
			"byteOffset":33888,
			"target":34962
		},
		{
			"buffer":0,
			"byteLength":11296,
			"byteOffset":45184,
			"target":34962
		},
		{
			"buffer":0,
			"byteLength":4932,
			"byteOffset":56480,
			"target":34963
		}
	],
	"samplers":[
		{
			"magFilter":9729,
			"minFilter":9987
		}
	],
	"buffers":[
		{
			"byteLength":61412,
			"uri":"worlds_SM_Chr_Attach_Pouch_02.bin"
		}
	]
}
