{
	"asset":{
		"generator":"Khronos glTF Blender I/O v4.4.55",
		"version":"2.0"
	},
	"extensionsUsed":[
		"EXT_texture_webp"
	],
	"extensionsRequired":[
		"EXT_texture_webp"
	],
	"scene":0,
	"scenes":[
		{
			"name":"Scene",
			"nodes":[
				0
			]
		}
	],
	"nodes":[
		{
			"mesh":0,
			"name":"SM_Env_Detail_Crater_Spiral_01",
			"rotation":[
				0.7071068286895752,
				0,
				0,
				0.7071068286895752
			],
			"scale":[
				0.009999999776482582,
				0.009999999776482582,
				0.009999999776482582
			]
		}
	],
	"materials":[
		{
			"doubleSided":true,
			"name":"ScifiMat",
			"pbrMetallicRoughness":{
				"baseColorTexture":{
					"index":0
				},
				"metallicFactor":0,
				"roughnessFactor":0.5527864098548889
			}
		}
	],
	"meshes":[
		{
			"name":"Mesh",
			"primitives":[
				{
					"attributes":{
						"POSITION":0,
						"NORMAL":1,
						"TEXCOORD_0":2
					},
					"indices":3,
					"material":0
				}
			]
		}
	],
	"textures":[
		{
			"extensions":{
				"EXT_texture_webp":{
					"source":0
				}
			},
			"sampler":0
		}
	],
	"images":[
		{
			"mimeType":"image/webp",
			"name":"PolygonScifiWorlds_Texture_01_A",
			"uri":"PolygonScifiWorlds_Texture_01_A.webp"
		}
	],
	"accessors":[
		{
			"bufferView":0,
			"componentType":5126,
			"count":700,
			"max":[
				3199.05224609375,
				3204.3564453125,
				102.44942474365234
			],
			"min":[
				-3199.05224609375,
				-3199.052490234375,
				-248.2516632080078
			],
			"type":"VEC3"
		},
		{
			"bufferView":1,
			"componentType":5126,
			"count":700,
			"type":"VEC3"
		},
		{
			"bufferView":2,
			"componentType":5126,
			"count":700,
			"type":"VEC2"
		},
		{
			"bufferView":3,
			"componentType":5123,
			"count":858,
			"type":"SCALAR"
		}
	],
	"bufferViews":[
		{
			"buffer":0,
			"byteLength":8400,
			"byteOffset":0,
			"target":34962
		},
		{
			"buffer":0,
			"byteLength":8400,
			"byteOffset":8400,
			"target":34962
		},
		{
			"buffer":0,
			"byteLength":5600,
			"byteOffset":16800,
			"target":34962
		},
		{
			"buffer":0,
			"byteLength":1716,
			"byteOffset":22400,
			"target":34963
		}
	],
	"samplers":[
		{
			"magFilter":9729,
			"minFilter":9987
		}
	],
	"buffers":[
		{
			"byteLength":24116,
			"uri":"worlds_SM_Env_Detail_Crater_Spiral_01.bin"
		}
	]
}
