{
	"asset":{
		"generator":"Khronos glTF Blender I/O v4.4.55",
		"version":"2.0"
	},
	"extensionsUsed":[
		"EXT_texture_webp"
	],
	"extensionsRequired":[
		"EXT_texture_webp"
	],
	"scene":0,
	"scenes":[
		{
			"name":"Scene",
			"nodes":[
				0
			]
		}
	],
	"nodes":[
		{
			"mesh":0,
			"name":"SM_Env_Plant_Hallowed_01",
			"rotation":[
				0.7071068286895752,
				0,
				0,
				0.7071068286895752
			],
			"scale":[
				0.009999999776482582,
				0.009999999776482582,
				0.009999999776482582
			]
		}
	],
	"materials":[
		{
			"doubleSided":true,
			"name":"Base_Lambert3",
			"pbrMetallicRoughness":{
				"baseColorTexture":{
					"index":0
				},
				"metallicFactor":0,
				"roughnessFactor":0.5527864098548889
			}
		}
	],
	"meshes":[
		{
			"name":"Mesh",
			"primitives":[
				{
					"attributes":{
						"POSITION":0,
						"NORMAL":1,
						"TEXCOORD_0":2,
						"COLOR_0":3,
						"COLOR_1":4
					},
					"indices":5,
					"material":0
				}
			]
		}
	],
	"textures":[
		{
			"extensions":{
				"EXT_texture_webp":{
					"source":0
				}
			},
			"sampler":0
		}
	],
	"images":[
		{
			"mimeType":"image/webp",
			"name":"PolygonScifiWorlds_Texture_01_A",
			"uri":"PolygonScifiWorlds_Texture_01_A.webp"
		}
	],
	"accessors":[
		{
			"bufferView":0,
			"componentType":5126,
			"count":4640,
			"max":[
				452.276123046875,
				393.4306335449219,
				127.40287017822266
			],
			"min":[
				-459.02532958984375,
				-427.3882141113281,
				-1495.9112548828125
			],
			"type":"VEC3"
		},
		{
			"bufferView":1,
			"componentType":5126,
			"count":4640,
			"type":"VEC3"
		},
		{
			"bufferView":2,
			"componentType":5126,
			"count":4640,
			"type":"VEC2"
		},
		{
			"bufferView":3,
			"componentType":5121,
			"count":4640,
			"normalized":true,
			"type":"VEC4"
		},
		{
			"bufferView":4,
			"componentType":5123,
			"count":4640,
			"normalized":true,
			"type":"VEC4"
		},
		{
			"bufferView":5,
			"componentType":5123,
			"count":6366,
			"type":"SCALAR"
		}
	],
	"bufferViews":[
		{
			"buffer":0,
			"byteLength":55680,
			"byteOffset":0,
			"target":34962
		},
		{
			"buffer":0,
			"byteLength":55680,
			"byteOffset":55680,
			"target":34962
		},
		{
			"buffer":0,
			"byteLength":37120,
			"byteOffset":111360,
			"target":34962
		},
		{
			"buffer":0,
			"byteLength":18560,
			"byteOffset":148480,
			"target":34962
		},
		{
			"buffer":0,
			"byteLength":37120,
			"byteOffset":167040,
			"target":34962
		},
		{
			"buffer":0,
			"byteLength":12732,
			"byteOffset":204160,
			"target":34963
		}
	],
	"samplers":[
		{
			"magFilter":9729,
			"minFilter":9987
		}
	],
	"buffers":[
		{
			"byteLength":216892,
			"uri":"worlds_SM_Env_Plant_Hallowed_01.bin"
		}
	]
}
