{"asset":{"generator":"Khronos glTF Blender I/O v4.4.55","version":"2.0"},"extensionsUsed":["EXT_texture_webp"],"extensionsRequired":["EXT_texture_webp"],"scene":0,"scenes":[{"name":"Scene","nodes":[0]}],"nodes":[{"mesh":0,"name":"SM_Prop_Alien_Letter_09","rotation":[0.7071068286895752,0,0,0.7071068286895752],"scale":[0.009999999776482582,0.009999999776482582,0.009999999776482582]}],"materials":[{"doubleSided":true,"name":"SciFi_Planets_SHD","pbrMetallicRoughness":{"baseColorTexture":{"index":1},"metallicFactor":0,"roughnessFactor":0.5527864098548889}}],"meshes":[{"name":"Mesh","primitives":[{"attributes":{"POSITION":0,"NORMAL":1,"TEXCOORD_0":2},"indices":3,"material":0}]}],"textures":[{"extensions":{},"sampler":0},{"extensions":{"EXT_texture_webp":{"source":0}},"sampler":0}],"images":[{"mimeType":"image/webp","name":"PolygonScifiWorlds_Texture_01_A","uri":"PolygonScifiWorlds_Texture_01_A.webp"}],"accessors":[{"bufferView":0,"componentType":5126,"count":132,"max":[13.19110107421875,17.643253326416016,1.75],"min":[-13.191070556640625,-17.64325714111328,-1.75],"type":"VEC3"},{"bufferView":1,"componentType":5126,"count":132,"type":"VEC3"},{"bufferView":2,"componentType":5126,"count":132,"type":"VEC2"},{"bufferView":3,"componentType":5123,"count":216,"type":"SCALAR"}],"bufferViews":[{"buffer":0,"byteLength":1584,"byteOffset":0,"target":34962},{"buffer":0,"byteLength":1584,"byteOffset":1584,"target":34962},{"buffer":0,"byteLength":1056,"byteOffset":3168,"target":34962},{"buffer":0,"byteLength":432,"byteOffset":4224,"target":34963}],"samplers":[{"magFilter":9729,"minFilter":9987}],"buffers":[{"byteLength":4656,"uri":"worlds_SM_Prop_Alien_Letter_09.bin"}]}