{"asset":{"generator":"Khronos glTF Blender I/O v4.4.55","version":"2.0"},"extensionsUsed":["EXT_texture_webp"],"extensionsRequired":["EXT_texture_webp"],"scene":0,"scenes":[{"name":"Scene","nodes":[0]}],"nodes":[{"mesh":0,"name":"SM_Wep_BigAxe_03","rotation":[0.7071068286895752,0,0,0.7071068286895752],"scale":[0.009999999776482582,0.009999999776482582,0.009999999776482582]}],"materials":[{"doubleSided":true,"name":"SciFiCrate_MAT","pbrMetallicRoughness":{"baseColorTexture":{"index":1},"metallicFactor":0,"roughnessFactor":0.5527864098548889}}],"meshes":[{"name":"Mesh","primitives":[{"attributes":{"POSITION":0,"NORMAL":1,"TEXCOORD_0":2},"indices":3,"material":0}]}],"textures":[{"extensions":{},"sampler":0},{"extensions":{"EXT_texture_webp":{"source":0}},"sampler":0}],"images":[{"mimeType":"image/webp","name":"PolygonScifiWorlds_Texture_01_A","uri":"PolygonScifiWorlds_Texture_01_A.webp"}],"accessors":[{"bufferView":0,"componentType":5126,"count":1693,"max":[4.052341938018799,17.1739501953125,42.764984130859375],"min":[-4.052341461181641,-23.569091796875,-69.25091552734375],"type":"VEC3"},{"bufferView":1,"componentType":5126,"count":1693,"type":"VEC3"},{"bufferView":2,"componentType":5126,"count":1693,"type":"VEC2"},{"bufferView":3,"componentType":5123,"count":3030,"type":"SCALAR"}],"bufferViews":[{"buffer":0,"byteLength":20316,"byteOffset":0,"target":34962},{"buffer":0,"byteLength":20316,"byteOffset":20316,"target":34962},{"buffer":0,"byteLength":13544,"byteOffset":40632,"target":34962},{"buffer":0,"byteLength":6060,"byteOffset":54176,"target":34963}],"samplers":[{"magFilter":9729,"minFilter":9987}],"buffers":[{"byteLength":60236,"uri":"worlds_SM_Wep_BigAxe_03.bin"}]}