{"asset":{"generator":"Khronos glTF Blender I/O v4.4.55","version":"2.0"},"extensionsUsed":["EXT_texture_webp"],"extensionsRequired":["EXT_texture_webp"],"scene":0,"scenes":[{"name":"Scene","nodes":[4]}],"nodes":[{"mesh":0,"name":"polySurface1141"},{"mesh":1,"name":"polySurface1142"},{"mesh":2,"name":"polySurface1143"},{"children":[0,1,2],"mesh":3,"name":"polySurface1137"},{"children":[3],"mesh":4,"name":"SM_Bld_Light_13","rotation":[0.7071068286895752,0,0,0.7071068286895752],"scale":[0.009999999776482582,0.009999999776482582,0.009999999776482582]}],"materials":[{"doubleSided":true,"name":"SciFiCrate_MAT","pbrMetallicRoughness":{"baseColorTexture":{"index":1},"metallicFactor":0,"roughnessFactor":0.5527864098548889}}],"meshes":[{"name":"Mesh.004","primitives":[{"attributes":{"POSITION":0,"NORMAL":1,"TEXCOORD_0":2},"indices":3,"material":0}]},{"name":"Mesh.002","primitives":[{"attributes":{"POSITION":4,"NORMAL":5,"TEXCOORD_0":6},"indices":7,"material":0}]},{"name":"Mesh.003","primitives":[{"attributes":{"POSITION":8,"NORMAL":9,"TEXCOORD_0":10},"indices":11,"material":0}]},{"name":"Mesh.001","primitives":[{"attributes":{"POSITION":12,"NORMAL":13,"TEXCOORD_0":14},"indices":15,"material":0}]},{"name":"Mesh","primitives":[{"attributes":{"POSITION":16,"NORMAL":17,"TEXCOORD_0":18},"indices":19,"material":0}]}],"textures":[{"extensions":{},"sampler":0},{"extensions":{"EXT_texture_webp":{"source":0}},"sampler":0}],"images":[{"mimeType":"image/webp","name":"PolygonScifiWorlds_Texture_01_A","uri":"PolygonScifiWorlds_Texture_01_A.webp"}],"accessors":[{"bufferView":0,"componentType":5126,"count":459,"max":[36.55854797363281,-6.139867782592773,191.78805541992188],"min":[-36.55854797363281,-75.22088623046875,54.125823974609375],"type":"VEC3"},{"bufferView":1,"componentType":5126,"count":459,"type":"VEC3"},{"bufferView":2,"componentType":5126,"count":459,"type":"VEC2"},{"bufferView":3,"componentType":5123,"count":762,"type":"SCALAR"},{"bufferView":4,"componentType":5126,"count":459,"max":[80.35132598876953,69.10424041748047,191.78805541992188],"min":[4.6555633544921875,1.9237918853759766,54.125823974609375],"type":"VEC3"},{"bufferView":5,"componentType":5126,"count":459,"type":"VEC3"},{"bufferView":6,"componentType":5126,"count":459,"type":"VEC2"},{"bufferView":7,"componentType":5123,"count":762,"type":"SCALAR"},{"bufferView":8,"componentType":5126,"count":459,"max":[-4.6555633544921875,69.10424041748047,191.78805541992188],"min":[-80.35132598876953,1.9237918853759766,54.125823974609375],"type":"VEC3"},{"bufferView":9,"componentType":5126,"count":459,"type":"VEC3"},{"bufferView":10,"componentType":5126,"count":459,"type":"VEC2"},{"bufferView":11,"componentType":5123,"count":762,"type":"SCALAR"},{"bufferView":12,"componentType":5126,"count":132,"max":[26.95063018798828,22.947296142578125,161.86203002929688],"min":[-26.95063018798828,-23.732940673828125,94.81021118164062],"type":"VEC3"},{"bufferView":13,"componentType":5126,"count":132,"type":"VEC3"},{"bufferView":14,"componentType":5126,"count":132,"type":"VEC2"},{"bufferView":15,"componentType":5123,"count":312,"type":"SCALAR"},{"bufferView":16,"componentType":5126,"count":126,"max":[17.546348571777344,15.195556640625,95.49948120117188],"min":[-17.546348571777344,-15.195556640625,-3.0517578125e-05],"type":"VEC3"},{"bufferView":17,"componentType":5126,"count":126,"type":"VEC3"},{"bufferView":18,"componentType":5126,"count":126,"type":"VEC2"},{"bufferView":19,"componentType":5123,"count":192,"type":"SCALAR"}],"bufferViews":[{"buffer":0,"byteLength":5508,"byteOffset":0,"target":34962},{"buffer":0,"byteLength":5508,"byteOffset":5508,"target":34962},{"buffer":0,"byteLength":3672,"byteOffset":11016,"target":34962},{"buffer":0,"byteLength":1524,"byteOffset":14688,"target":34963},{"buffer":0,"byteLength":5508,"byteOffset":16212,"target":34962},{"buffer":0,"byteLength":5508,"byteOffset":21720,"target":34962},{"buffer":0,"byteLength":3672,"byteOffset":27228,"target":34962},{"buffer":0,"byteLength":1524,"byteOffset":30900,"target":34963},{"buffer":0,"byteLength":5508,"byteOffset":32424,"target":34962},{"buffer":0,"byteLength":5508,"byteOffset":37932,"target":34962},{"buffer":0,"byteLength":3672,"byteOffset":43440,"target":34962},{"buffer":0,"byteLength":1524,"byteOffset":47112,"target":34963},{"buffer":0,"byteLength":1584,"byteOffset":48636,"target":34962},{"buffer":0,"byteLength":1584,"byteOffset":50220,"target":34962},{"buffer":0,"byteLength":1056,"byteOffset":51804,"target":34962},{"buffer":0,"byteLength":624,"byteOffset":52860,"target":34963},{"buffer":0,"byteLength":1512,"byteOffset":53484,"target":34962},{"buffer":0,"byteLength":1512,"byteOffset":54996,"target":34962},{"buffer":0,"byteLength":1008,"byteOffset":56508,"target":34962},{"buffer":0,"byteLength":384,"byteOffset":57516,"target":34963}],"samplers":[{"magFilter":9729,"minFilter":9987}],"buffers":[{"byteLength":57900,"uri":"worlds_SM_Bld_Light_13.bin"}]}