{
	"asset":{
		"generator":"Khronos glTF Blender I/O v4.4.55",
		"version":"2.0"
	},
	"extensionsUsed":[
		"EXT_texture_webp"
	],
	"extensionsRequired":[
		"EXT_texture_webp"
	],
	"scene":0,
	"scenes":[
		{
			"name":"Scene",
			"nodes":[
				0
			]
		}
	],
	"nodes":[
		{
			"mesh":0,
			"name":"SM_Bld_Watertank_01",
			"rotation":[
				0.7071068286895752,
				0,
				0,
				0.7071068286895752
			],
			"scale":[
				0.009999999776482582,
				0.009999999776482582,
				0.009999999776482582
			]
		}
	],
	"materials":[
		{
			"doubleSided":true,
			"name":"ScifiMat1",
			"pbrMetallicRoughness":{
				"baseColorTexture":{
					"index":0
				},
				"metallicFactor":0,
				"roughnessFactor":0.5527864098548889
			}
		}
	],
	"meshes":[
		{
			"name":"Mesh",
			"primitives":[
				{
					"attributes":{
						"POSITION":0,
						"NORMAL":1,
						"TEXCOORD_0":2
					},
					"indices":3,
					"material":0
				}
			]
		}
	],
	"textures":[
		{
			"extensions":{
				"EXT_texture_webp":{
					"source":0
				}
			},
			"sampler":0
		}
	],
	"images":[
		{
			"mimeType":"image/webp",
			"name":"PolygonScifiWorlds_Texture_01_A",
			"uri":"PolygonScifiWorlds_Texture_01_A.webp"
		}
	],
	"accessors":[
		{
			"bufferView":0,
			"componentType":5126,
			"count":1248,
			"max":[
				147.36459350585938,
				140.15213012695312,
				13.25465202331543
			],
			"min":[
				-147.36459350585938,
				-140.15206909179688,
				-544.327880859375
			],
			"type":"VEC3"
		},
		{
			"bufferView":1,
			"componentType":5126,
			"count":1248,
			"type":"VEC3"
		},
		{
			"bufferView":2,
			"componentType":5126,
			"count":1248,
			"type":"VEC2"
		},
		{
			"bufferView":3,
			"componentType":5123,
			"count":1980,
			"type":"SCALAR"
		}
	],
	"bufferViews":[
		{
			"buffer":0,
			"byteLength":14976,
			"byteOffset":0,
			"target":34962
		},
		{
			"buffer":0,
			"byteLength":14976,
			"byteOffset":14976,
			"target":34962
		},
		{
			"buffer":0,
			"byteLength":9984,
			"byteOffset":29952,
			"target":34962
		},
		{
			"buffer":0,
			"byteLength":3960,
			"byteOffset":39936,
			"target":34963
		}
	],
	"samplers":[
		{
			"magFilter":9729,
			"minFilter":9987
		}
	],
	"buffers":[
		{
			"byteLength":43896,
			"uri":"worlds_SM_Bld_Watertank_01.bin"
		}
	]
}
