{"asset":{"generator":"Khronos glTF Blender I/O v4.4.55","version":"2.0"},"extensionsUsed":["EXT_texture_webp"],"extensionsRequired":["EXT_texture_webp"],"scene":0,"scenes":[{"name":"Scene","nodes":[0]}],"nodes":[{"mesh":0,"name":"SM_Bld_Core_Observation_Greeble_01","rotation":[0.7071068286895752,0,0,0.7071068286895752],"scale":[0.009999999776482582,0.009999999776482582,0.009999999776482582]}],"materials":[{"doubleSided":true,"name":"SciFi_Planets_SHD","pbrMetallicRoughness":{"baseColorTexture":{"index":1},"metallicFactor":0,"roughnessFactor":0.5527864098548889}}],"meshes":[{"name":"Mesh","primitives":[{"attributes":{"POSITION":0,"NORMAL":1,"TEXCOORD_0":2},"indices":3,"material":0}]}],"textures":[{"extensions":{},"sampler":0},{"extensions":{"EXT_texture_webp":{"source":0}},"sampler":0}],"images":[{"mimeType":"image/webp","name":"PolygonScifiWorlds_Texture_01_A","uri":"PolygonScifiWorlds_Texture_01_A.webp"}],"accessors":[{"bufferView":0,"componentType":5126,"count":1142,"max":[1713.8712158203125,703.1834716796875,923.7765502929688],"min":[-1701.1937255859375,-758.910888671875,-898.9771118164062],"type":"VEC3"},{"bufferView":1,"componentType":5126,"count":1142,"type":"VEC3"},{"bufferView":2,"componentType":5126,"count":1142,"type":"VEC2"},{"bufferView":3,"componentType":5123,"count":1920,"type":"SCALAR"}],"bufferViews":[{"buffer":0,"byteLength":13704,"byteOffset":0,"target":34962},{"buffer":0,"byteLength":13704,"byteOffset":13704,"target":34962},{"buffer":0,"byteLength":9136,"byteOffset":27408,"target":34962},{"buffer":0,"byteLength":3840,"byteOffset":36544,"target":34963}],"samplers":[{"magFilter":9729,"minFilter":9987}],"buffers":[{"byteLength":40384,"uri":"worlds_SM_Bld_Core_Observation_Greeble_01.bin"}]}