{
	"asset":{
		"generator":"Khronos glTF Blender I/O v4.4.55",
		"version":"2.0"
	},
	"extensionsUsed":[
		"EXT_texture_webp"
	],
	"extensionsRequired":[
		"EXT_texture_webp"
	],
	"scene":0,
	"scenes":[
		{
			"name":"Scene",
			"nodes":[
				0
			]
		}
	],
	"nodes":[
		{
			"mesh":0,
			"name":"SM_Prop_Junk_Cardboard_08",
			"rotation":[
				0.7071068286895752,
				0,
				0,
				0.7071068286895752
			],
			"scale":[
				0.009999999776482582,
				0.009999999776482582,
				0.009999999776482582
			]
		}
	],
	"materials":[
		{
			"doubleSided":true,
			"name":"SciFi_Planets_SHD4",
			"pbrMetallicRoughness":{
				"baseColorTexture":{
					"index":0
				},
				"metallicFactor":0,
				"roughnessFactor":0.5527864098548889
			}
		}
	],
	"meshes":[
		{
			"name":"Mesh",
			"primitives":[
				{
					"attributes":{
						"POSITION":0,
						"NORMAL":1,
						"TEXCOORD_0":2
					},
					"indices":3,
					"material":0
				}
			]
		}
	],
	"textures":[
		{
			"extensions":{
				"EXT_texture_webp":{
					"source":0
				}
			},
			"sampler":0
		}
	],
	"images":[
		{
			"mimeType":"image/webp",
			"name":"PolygonScifiWorlds_Texture_01_A",
			"uri":"PolygonScifiWorlds_Texture_01_A.webp"
		}
	],
	"accessors":[
		{
			"bufferView":0,
			"componentType":5126,
			"count":1846,
			"max":[
				183.3548583984375,
				167.00933837890625,
				2.7439041137695312
			],
			"min":[
				-226.65606689453125,
				-162.24346923828125,
				-11.192789077758789
			],
			"type":"VEC3"
		},
		{
			"bufferView":1,
			"componentType":5126,
			"count":1846,
			"type":"VEC3"
		},
		{
			"bufferView":2,
			"componentType":5126,
			"count":1846,
			"type":"VEC2"
		},
		{
			"bufferView":3,
			"componentType":5123,
			"count":3246,
			"type":"SCALAR"
		}
	],
	"bufferViews":[
		{
			"buffer":0,
			"byteLength":22152,
			"byteOffset":0,
			"target":34962
		},
		{
			"buffer":0,
			"byteLength":22152,
			"byteOffset":22152,
			"target":34962
		},
		{
			"buffer":0,
			"byteLength":14768,
			"byteOffset":44304,
			"target":34962
		},
		{
			"buffer":0,
			"byteLength":6492,
			"byteOffset":59072,
			"target":34963
		}
	],
	"samplers":[
		{
			"magFilter":9729,
			"minFilter":9987
		}
	],
	"buffers":[
		{
			"byteLength":65564,
			"uri":"worlds_SM_Prop_Junk_Cardboard_08.bin"
		}
	]
}
