{"asset":{"generator":"Khronos glTF Blender I/O v4.4.55","version":"2.0"},"extensionsUsed":["EXT_texture_webp"],"extensionsRequired":["EXT_texture_webp"],"scene":0,"scenes":[{"name":"Scene","nodes":[3]}],"nodes":[{"mesh":0,"name":"SM_Prop_SolarPanel_04_Panel_01"},{"children":[0],"mesh":1,"name":"SM_Prop_SolarPanel_04_Swivel_02"},{"children":[1],"mesh":2,"name":"SM_Prop_SolarPanel_04_Swivel_01"},{"children":[2],"mesh":3,"name":"SM_Prop_SolarPanel_04","rotation":[0.7071068286895752,0,0,0.7071068286895752],"scale":[0.009999999776482582,0.009999999776482582,0.009999999776482582]}],"materials":[{"doubleSided":true,"name":"SciFi_Planets_SHD","pbrMetallicRoughness":{"baseColorTexture":{"index":1},"metallicFactor":0,"roughnessFactor":0.5527864098548889}}],"meshes":[{"name":"Mesh.003","primitives":[{"attributes":{"POSITION":0,"NORMAL":1,"TEXCOORD_0":2},"indices":3,"material":0}]},{"name":"Mesh.002","primitives":[{"attributes":{"POSITION":4,"NORMAL":5,"TEXCOORD_0":6},"indices":7,"material":0}]},{"name":"Mesh.001","primitives":[{"attributes":{"POSITION":8,"NORMAL":9,"TEXCOORD_0":10},"indices":11,"material":0}]},{"name":"Mesh","primitives":[{"attributes":{"POSITION":12,"NORMAL":13,"TEXCOORD_0":14},"indices":15,"material":0}]}],"textures":[{"extensions":{},"sampler":0},{"extensions":{"EXT_texture_webp":{"source":0}},"sampler":0}],"images":[{"mimeType":"image/webp","name":"PolygonScifiWorlds_Texture_01_A","uri":"PolygonScifiWorlds_Texture_01_A.webp"}],"accessors":[{"bufferView":0,"componentType":5126,"count":8438,"max":[85.77490234375,96.901123046875,-216.95945739746094],"min":[-87.52978515625,-272.725830078125,-620.5294799804688],"type":"VEC3"},{"bufferView":1,"componentType":5126,"count":8438,"type":"VEC3"},{"bufferView":2,"componentType":5126,"count":8438,"type":"VEC2"},{"bufferView":3,"componentType":5123,"count":14610,"type":"SCALAR"},{"bufferView":4,"componentType":5126,"count":1172,"max":[65.11236572265625,31.385009765625,-121.18545532226562],"min":[-66.630615234375,-31.385009765625,-223.79348754882812],"type":"VEC3"},{"bufferView":5,"componentType":5126,"count":1172,"type":"VEC3"},{"bufferView":6,"componentType":5126,"count":1172,"type":"VEC2"},{"bufferView":7,"componentType":5123,"count":2100,"type":"SCALAR"},{"bufferView":8,"componentType":5126,"count":517,"max":[57.17333984375,57.17333984375,-52.71533203125],"min":[-57.17333984375,-57.17333984375,-170.0213165283203],"type":"VEC3"},{"bufferView":9,"componentType":5126,"count":517,"type":"VEC3"},{"bufferView":10,"componentType":5126,"count":517,"type":"VEC2"},{"bufferView":11,"componentType":5123,"count":930,"type":"SCALAR"},{"bufferView":12,"componentType":5126,"count":921,"max":[95.5401611328125,95.5401611328125,0.030364990234375],"min":[-95.5401611328125,-95.540283203125,-55.40313720703125],"type":"VEC3"},{"bufferView":13,"componentType":5126,"count":921,"type":"VEC3"},{"bufferView":14,"componentType":5126,"count":921,"type":"VEC2"},{"bufferView":15,"componentType":5123,"count":1602,"type":"SCALAR"}],"bufferViews":[{"buffer":0,"byteLength":101256,"byteOffset":0,"target":34962},{"buffer":0,"byteLength":101256,"byteOffset":101256,"target":34962},{"buffer":0,"byteLength":67504,"byteOffset":202512,"target":34962},{"buffer":0,"byteLength":29220,"byteOffset":270016,"target":34963},{"buffer":0,"byteLength":14064,"byteOffset":299236,"target":34962},{"buffer":0,"byteLength":14064,"byteOffset":313300,"target":34962},{"buffer":0,"byteLength":9376,"byteOffset":327364,"target":34962},{"buffer":0,"byteLength":4200,"byteOffset":336740,"target":34963},{"buffer":0,"byteLength":6204,"byteOffset":340940,"target":34962},{"buffer":0,"byteLength":6204,"byteOffset":347144,"target":34962},{"buffer":0,"byteLength":4136,"byteOffset":353348,"target":34962},{"buffer":0,"byteLength":1860,"byteOffset":357484,"target":34963},{"buffer":0,"byteLength":11052,"byteOffset":359344,"target":34962},{"buffer":0,"byteLength":11052,"byteOffset":370396,"target":34962},{"buffer":0,"byteLength":7368,"byteOffset":381448,"target":34962},{"buffer":0,"byteLength":3204,"byteOffset":388816,"target":34963}],"samplers":[{"magFilter":9729,"minFilter":9987}],"buffers":[{"byteLength":392020,"uri":"worlds_SM_Prop_SolarPanel_04.bin"}]}