{"asset":{"generator":"Khronos glTF Blender I/O v4.4.55","version":"2.0"},"extensionsUsed":["EXT_texture_webp"],"extensionsRequired":["EXT_texture_webp"],"scene":0,"scenes":[{"name":"Scene","nodes":[1]}],"nodes":[{"mesh":0,"name":"SM_Prop_Crate_08_Lid_01"},{"children":[0],"mesh":1,"name":"SM_Prop_Crate_08","rotation":[0.7071068286895752,0,0,0.7071068286895752],"scale":[0.009999999776482582,0.009999999776482582,0.009999999776482582]}],"materials":[{"doubleSided":true,"name":"SciFiCrate_MAT","pbrMetallicRoughness":{"baseColorTexture":{"index":1},"metallicFactor":0,"roughnessFactor":0.5527864098548889}}],"meshes":[{"name":"Mesh.001","primitives":[{"attributes":{"POSITION":0,"NORMAL":1,"TEXCOORD_0":2},"indices":3,"material":0}]},{"name":"Mesh","primitives":[{"attributes":{"POSITION":4,"NORMAL":5,"TEXCOORD_0":6},"indices":7,"material":0}]}],"textures":[{"extensions":{},"sampler":0},{"extensions":{"EXT_texture_webp":{"source":0}},"sampler":0}],"images":[{"mimeType":"image/webp","name":"PolygonScifiWorlds_Texture_01_A","uri":"PolygonScifiWorlds_Texture_01_A.webp"}],"accessors":[{"bufferView":0,"componentType":5126,"count":444,"max":[56,56,-169.46734619140625],"min":[-56,-56,-199.61572265625],"type":"VEC3"},{"bufferView":1,"componentType":5126,"count":444,"type":"VEC3"},{"bufferView":2,"componentType":5126,"count":444,"type":"VEC2"},{"bufferView":3,"componentType":5123,"count":816,"type":"SCALAR"},{"bufferView":4,"componentType":5126,"count":748,"max":[57.36962890625,57.369873046875,0],"min":[-57.36962890625,-57.369903564453125,-170.61849975585938],"type":"VEC3"},{"bufferView":5,"componentType":5126,"count":748,"type":"VEC3"},{"bufferView":6,"componentType":5126,"count":748,"type":"VEC2"},{"bufferView":7,"componentType":5123,"count":1284,"type":"SCALAR"}],"bufferViews":[{"buffer":0,"byteLength":5328,"byteOffset":0,"target":34962},{"buffer":0,"byteLength":5328,"byteOffset":5328,"target":34962},{"buffer":0,"byteLength":3552,"byteOffset":10656,"target":34962},{"buffer":0,"byteLength":1632,"byteOffset":14208,"target":34963},{"buffer":0,"byteLength":8976,"byteOffset":15840,"target":34962},{"buffer":0,"byteLength":8976,"byteOffset":24816,"target":34962},{"buffer":0,"byteLength":5984,"byteOffset":33792,"target":34962},{"buffer":0,"byteLength":2568,"byteOffset":39776,"target":34963}],"samplers":[{"magFilter":9729,"minFilter":9987}],"buffers":[{"byteLength":42344,"uri":"worlds_SM_Prop_Crate_08.bin"}]}