{"asset":{"generator":"Khronos glTF Blender I/O v4.4.55","version":"2.0"},"extensionsUsed":["EXT_texture_webp"],"extensionsRequired":["EXT_texture_webp"],"scene":0,"scenes":[{"name":"Scene","nodes":[3]}],"nodes":[{"mesh":0,"name":"SM_Wep_Sniper_03_Mag_01"},{"mesh":1,"name":"SM_Wep_Sniper_03_Scope_01"},{"mesh":2,"name":"SM_Wep_Sniper_03_Trigger_01"},{"children":[0,1,2],"mesh":3,"name":"SM_Wep_Sniper_03","rotation":[0.7071068286895752,0,0,0.7071068286895752],"scale":[0.009999999776482582,0.009999999776482582,0.009999999776482582]}],"materials":[{"doubleSided":true,"name":"SciFi_Planets_SHD","pbrMetallicRoughness":{"baseColorTexture":{"index":1},"metallicFactor":0,"roughnessFactor":0.5527864098548889}}],"meshes":[{"name":"Mesh.002","primitives":[{"attributes":{"POSITION":0,"NORMAL":1,"TEXCOORD_0":2},"indices":3,"material":0}]},{"name":"Mesh.001","primitives":[{"attributes":{"POSITION":4,"NORMAL":5,"TEXCOORD_0":6},"indices":7,"material":0}]},{"name":"Mesh.003","primitives":[{"attributes":{"POSITION":8,"NORMAL":9,"TEXCOORD_0":10},"indices":11,"material":0}]},{"name":"Mesh","primitives":[{"attributes":{"POSITION":12,"NORMAL":13,"TEXCOORD_0":14},"indices":15,"material":0}]}],"textures":[{"extensions":{},"sampler":0},{"extensions":{"EXT_texture_webp":{"source":0}},"sampler":0}],"images":[{"mimeType":"image/webp","name":"PolygonScifiWorlds_Texture_01_A","uri":"PolygonScifiWorlds_Texture_01_A.webp"}],"accessors":[{"bufferView":0,"componentType":5126,"count":92,"max":[1.8435794115066528,36.22940444946289,10.206947326660156],"min":[-1.8435792922973633,9.864089012145996,0.6750855445861816],"type":"VEC3"},{"bufferView":1,"componentType":5126,"count":92,"type":"VEC3"},{"bufferView":2,"componentType":5126,"count":92,"type":"VEC2"},{"bufferView":3,"componentType":5123,"count":180,"type":"SCALAR"},{"bufferView":4,"componentType":5126,"count":722,"max":[8.033330917358398,56.15687561035156,-14.456033706665039],"min":[-8.033330917358398,1.2965179681777954,-28.198711395263672],"type":"VEC3"},{"bufferView":5,"componentType":5126,"count":722,"type":"VEC3"},{"bufferView":6,"componentType":5126,"count":722,"type":"VEC2"},{"bufferView":7,"componentType":5123,"count":1224,"type":"SCALAR"},{"bufferView":8,"componentType":5126,"count":34,"max":[0.5869169235229492,10.051717758178711,-1.3305280208587646],"min":[-0.5869174003601074,2.232572078704834,-6.347872734069824],"type":"VEC3"},{"bufferView":9,"componentType":5126,"count":34,"type":"VEC3"},{"bufferView":10,"componentType":5126,"count":34,"type":"VEC2"},{"bufferView":11,"componentType":5123,"count":60,"type":"SCALAR"},{"bufferView":12,"componentType":5126,"count":2132,"max":[4.428712368011475,138.86788940429688,9.03217601776123],"min":[-4.428712368011475,-27.17118263244629,-16.68169593811035],"type":"VEC3"},{"bufferView":13,"componentType":5126,"count":2132,"type":"VEC3"},{"bufferView":14,"componentType":5126,"count":2132,"type":"VEC2"},{"bufferView":15,"componentType":5123,"count":3762,"type":"SCALAR"}],"bufferViews":[{"buffer":0,"byteLength":1104,"byteOffset":0,"target":34962},{"buffer":0,"byteLength":1104,"byteOffset":1104,"target":34962},{"buffer":0,"byteLength":736,"byteOffset":2208,"target":34962},{"buffer":0,"byteLength":360,"byteOffset":2944,"target":34963},{"buffer":0,"byteLength":8664,"byteOffset":3304,"target":34962},{"buffer":0,"byteLength":8664,"byteOffset":11968,"target":34962},{"buffer":0,"byteLength":5776,"byteOffset":20632,"target":34962},{"buffer":0,"byteLength":2448,"byteOffset":26408,"target":34963},{"buffer":0,"byteLength":408,"byteOffset":28856,"target":34962},{"buffer":0,"byteLength":408,"byteOffset":29264,"target":34962},{"buffer":0,"byteLength":272,"byteOffset":29672,"target":34962},{"buffer":0,"byteLength":120,"byteOffset":29944,"target":34963},{"buffer":0,"byteLength":25584,"byteOffset":30064,"target":34962},{"buffer":0,"byteLength":25584,"byteOffset":55648,"target":34962},{"buffer":0,"byteLength":17056,"byteOffset":81232,"target":34962},{"buffer":0,"byteLength":7524,"byteOffset":98288,"target":34963}],"samplers":[{"magFilter":9729,"minFilter":9987}],"buffers":[{"byteLength":105812,"uri":"worlds_SM_Wep_Sniper_03.bin"}]}