{"asset":{"generator":"Khronos glTF Blender I/O v4.4.55","version":"2.0"},"extensionsUsed":["EXT_texture_webp"],"extensionsRequired":["EXT_texture_webp"],"scene":0,"scenes":[{"name":"Scene","nodes":[0]}],"nodes":[{"mesh":0,"name":"SM_Bld_Scav_Attachment_01","rotation":[0.7071068286895752,0,0,0.7071068286895752],"scale":[0.009999999776482582,0.009999999776482582,0.009999999776482582]}],"materials":[{"doubleSided":true,"name":"SciFiCrate_MAT","pbrMetallicRoughness":{"baseColorTexture":{"index":1},"metallicFactor":0,"roughnessFactor":0.5527864098548889}}],"meshes":[{"name":"Mesh","primitives":[{"attributes":{"POSITION":0,"NORMAL":1,"TEXCOORD_0":2},"indices":3,"material":0}]}],"textures":[{"extensions":{},"sampler":0},{"extensions":{"EXT_texture_webp":{"source":0}},"sampler":0}],"images":[{"mimeType":"image/webp","name":"PolygonScifiWorlds_Texture_01_A","uri":"PolygonScifiWorlds_Texture_01_A.webp"}],"accessors":[{"bufferView":0,"componentType":5126,"count":1737,"max":[230.246826171875,218.9779052734375,7.62939453125e-06],"min":[-230.24688720703125,-357.4441223144531,-1208.719970703125],"type":"VEC3"},{"bufferView":1,"componentType":5126,"count":1737,"type":"VEC3"},{"bufferView":2,"componentType":5126,"count":1737,"type":"VEC2"},{"bufferView":3,"componentType":5123,"count":3090,"type":"SCALAR"}],"bufferViews":[{"buffer":0,"byteLength":20844,"byteOffset":0,"target":34962},{"buffer":0,"byteLength":20844,"byteOffset":20844,"target":34962},{"buffer":0,"byteLength":13896,"byteOffset":41688,"target":34962},{"buffer":0,"byteLength":6180,"byteOffset":55584,"target":34963}],"samplers":[{"magFilter":9729,"minFilter":9987}],"buffers":[{"byteLength":61764,"uri":"worlds_SM_Bld_Scav_Attachment_01.bin"}]}