{
	"asset":{
		"generator":"Khronos glTF Blender I/O v4.4.55",
		"version":"2.0"
	},
	"extensionsUsed":[
		"EXT_texture_webp"
	],
	"extensionsRequired":[
		"EXT_texture_webp"
	],
	"scene":0,
	"scenes":[
		{
			"name":"Scene",
			"nodes":[
				0
			]
		}
	],
	"nodes":[
		{
			"mesh":0,
			"name":"SM_Chr_Attach_VR_03_Hair_02",
			"rotation":[
				0.7071068286895752,
				0,
				0,
				0.7071068286895752
			],
			"scale":[
				0.009999999776482582,
				0.009999999776482582,
				0.009999999776482582
			]
		}
	],
	"materials":[
		{
			"doubleSided":true,
			"name":"Scifi",
			"pbrMetallicRoughness":{
				"baseColorTexture":{
					"index":0
				},
				"metallicFactor":0,
				"roughnessFactor":0.5527864098548889
			}
		}
	],
	"meshes":[
		{
			"name":"Mesh",
			"primitives":[
				{
					"attributes":{
						"POSITION":0,
						"NORMAL":1,
						"TEXCOORD_0":2
					},
					"indices":3,
					"material":0
				}
			]
		}
	],
	"textures":[
		{
			"extensions":{
				"EXT_texture_webp":{
					"source":0
				}
			},
			"sampler":0
		}
	],
	"images":[
		{
			"mimeType":"image/webp",
			"name":"PolygonScifiWorlds_Texture_01_A",
			"uri":"PolygonScifiWorlds_Texture_01_A.webp"
		}
	],
	"accessors":[
		{
			"bufferView":0,
			"componentType":5126,
			"count":2072,
			"max":[
				15.400955200195312,
				18.401865005493164,
				3.5679779052734375
			],
			"min":[
				-14.1986083984375,
				-13.64692497253418,
				-23.214935302734375
			],
			"type":"VEC3"
		},
		{
			"bufferView":1,
			"componentType":5126,
			"count":2072,
			"type":"VEC3"
		},
		{
			"bufferView":2,
			"componentType":5126,
			"count":2072,
			"type":"VEC2"
		},
		{
			"bufferView":3,
			"componentType":5123,
			"count":3306,
			"type":"SCALAR"
		}
	],
	"bufferViews":[
		{
			"buffer":0,
			"byteLength":24864,
			"byteOffset":0,
			"target":34962
		},
		{
			"buffer":0,
			"byteLength":24864,
			"byteOffset":24864,
			"target":34962
		},
		{
			"buffer":0,
			"byteLength":16576,
			"byteOffset":49728,
			"target":34962
		},
		{
			"buffer":0,
			"byteLength":6612,
			"byteOffset":66304,
			"target":34963
		}
	],
	"samplers":[
		{
			"magFilter":9729,
			"minFilter":9987
		}
	],
	"buffers":[
		{
			"byteLength":72916,
			"uri":"worlds_SM_Chr_Attach_VR_03_Hair_02.bin"
		}
	]
}
