{
	"asset":{
		"generator":"Khronos glTF Blender I/O v4.4.55",
		"version":"2.0"
	},
	"extensionsUsed":[
		"EXT_texture_webp"
	],
	"extensionsRequired":[
		"EXT_texture_webp"
	],
	"scene":0,
	"scenes":[
		{
			"name":"Scene",
			"nodes":[
				0
			]
		}
	],
	"nodes":[
		{
			"mesh":0,
			"name":"SM_Prop_Billboard_Large_02",
			"rotation":[
				0.7071068286895752,
				0,
				0,
				0.7071068286895752
			],
			"scale":[
				0.009999999776482582,
				0.009999999776482582,
				0.009999999776482582
			]
		}
	],
	"materials":[
		{
			"doubleSided":true,
			"name":"lambert10",
			"pbrMetallicRoughness":{
				"baseColorTexture":{
					"index":0
				},
				"metallicFactor":0,
				"roughnessFactor":0.5527864098548889
			}
		},
		{
			"doubleSided":true,
			"name":"lambert12",
			"pbrMetallicRoughness":{
				"baseColorTexture":{
					"index":1
				},
				"metallicFactor":0,
				"roughnessFactor":0.5527864098548889
			}
		}
	],
	"meshes":[
		{
			"name":"Mesh",
			"primitives":[
				{
					"attributes":{
						"POSITION":0,
						"NORMAL":1,
						"TEXCOORD_0":2
					},
					"indices":3,
					"material":0
				},
				{
					"attributes":{
						"POSITION":4,
						"NORMAL":5,
						"TEXCOORD_0":6
					},
					"indices":7,
					"material":1
				}
			]
		}
	],
	"textures":[
		{
			"extensions":{
				"EXT_texture_webp":{
					"source":0
				}
			},
			"sampler":0
		},
		{
			"extensions":{
				"EXT_texture_webp":{
					"source":0
				}
			},
			"sampler":0
		}
	],
	"images":[
		{
			"mimeType":"image/webp",
			"name":"PolygonScifiWorlds_Texture_01_A",
			"uri":"PolygonScifiWorlds_Texture_01_A.webp"
		}
	],
	"accessors":[
		{
			"bufferView":0,
			"componentType":5126,
			"count":1820,
			"max":[
				546.1083984375,
				126.53668212890625,
				0
			],
			"min":[
				-546.108642578125,
				-126.53668212890625,
				-1960.330810546875
			],
			"type":"VEC3"
		},
		{
			"bufferView":1,
			"componentType":5126,
			"count":1820,
			"type":"VEC3"
		},
		{
			"bufferView":2,
			"componentType":5126,
			"count":1820,
			"type":"VEC2"
		},
		{
			"bufferView":3,
			"componentType":5123,
			"count":2826,
			"type":"SCALAR"
		},
		{
			"bufferView":4,
			"componentType":5126,
			"count":4,
			"max":[
				451.5517578125,
				32.84918212890625,
				-152.7550048828125
			],
			"min":[
				-445.391845703125,
				32.84918212890625,
				-1946.64208984375
			],
			"type":"VEC3"
		},
		{
			"bufferView":5,
			"componentType":5126,
			"count":4,
			"type":"VEC3"
		},
		{
			"bufferView":6,
			"componentType":5126,
			"count":4,
			"type":"VEC2"
		},
		{
			"bufferView":7,
			"componentType":5123,
			"count":6,
			"type":"SCALAR"
		}
	],
	"bufferViews":[
		{
			"buffer":0,
			"byteLength":21840,
			"byteOffset":0,
			"target":34962
		},
		{
			"buffer":0,
			"byteLength":21840,
			"byteOffset":21840,
			"target":34962
		},
		{
			"buffer":0,
			"byteLength":14560,
			"byteOffset":43680,
			"target":34962
		},
		{
			"buffer":0,
			"byteLength":5652,
			"byteOffset":58240,
			"target":34963
		},
		{
			"buffer":0,
			"byteLength":48,
			"byteOffset":63892,
			"target":34962
		},
		{
			"buffer":0,
			"byteLength":48,
			"byteOffset":63940,
			"target":34962
		},
		{
			"buffer":0,
			"byteLength":32,
			"byteOffset":63988,
			"target":34962
		},
		{
			"buffer":0,
			"byteLength":12,
			"byteOffset":64020,
			"target":34963
		}
	],
	"samplers":[
		{
			"magFilter":9729,
			"minFilter":9987
		}
	],
	"buffers":[
		{
			"byteLength":64032,
			"uri":"worlds_SM_Prop_Billboard_Large_02.bin"
		}
	]
}
