{"asset":{"generator":"Khronos glTF Blender I/O v4.4.55","version":"2.0"},"extensionsUsed":["EXT_texture_webp"],"extensionsRequired":["EXT_texture_webp"],"scene":0,"scenes":[{"name":"Scene","nodes":[2]}],"nodes":[{"mesh":0,"name":"SM_Bld_Door_Double_05_Door_01","rotation":[0,0.3826833963394165,0,0.9238795638084412]},{"mesh":1,"name":"SM_Bld_Door_Double_05_Door_02","rotation":[0,0.3826833963394165,0,0.9238795638084412]},{"children":[0,1],"mesh":2,"name":"SM_Bld_Door_Double_05","rotation":[0.7071068286895752,0,0,0.7071068286895752],"scale":[0.009999999776482582,0.009999999776482582,0.009999999776482582]}],"materials":[{"doubleSided":true,"name":"SciFi_Planets_SHD","pbrMetallicRoughness":{"baseColorTexture":{"index":1},"metallicFactor":0,"roughnessFactor":0.5527864098548889}}],"meshes":[{"name":"Mesh.001","primitives":[{"attributes":{"POSITION":0,"NORMAL":1,"TEXCOORD_0":2},"indices":3,"material":0}]},{"name":"Mesh.002","primitives":[{"attributes":{"POSITION":4,"NORMAL":5,"TEXCOORD_0":6},"indices":7,"material":0}]},{"name":"Mesh","primitives":[{"attributes":{"POSITION":8,"NORMAL":9,"TEXCOORD_0":10},"indices":11,"material":0}]}],"textures":[{"extensions":{},"sampler":0},{"extensions":{"EXT_texture_webp":{"source":0}},"sampler":0}],"images":[{"mimeType":"image/webp","name":"PolygonScifiWorlds_Texture_01_A","uri":"PolygonScifiWorlds_Texture_01_A.webp"}],"accessors":[{"bufferView":0,"componentType":5126,"count":645,"max":[323.39739990234375,10,113.9144287109375],"min":[95.5684814453125,-10,-323.3974304199219],"type":"VEC3"},{"bufferView":1,"componentType":5126,"count":645,"type":"VEC3"},{"bufferView":2,"componentType":5126,"count":645,"type":"VEC2"},{"bufferView":3,"componentType":5123,"count":1200,"type":"SCALAR"},{"bufferView":4,"componentType":5126,"count":932,"max":[113.91446685791016,10,113.91444396972656],"min":[-113.91446685791016,-10,-323.39739990234375],"type":"VEC3"},{"bufferView":5,"componentType":5126,"count":932,"type":"VEC3"},{"bufferView":6,"componentType":5126,"count":932,"type":"VEC2"},{"bufferView":7,"componentType":5123,"count":1812,"type":"SCALAR"},{"bufferView":8,"componentType":5126,"count":957,"max":[193.4471435546875,44.24924850463867,30],"min":[-192.92523193359375,-44.24924850463867,-317.6598205566406],"type":"VEC3"},{"bufferView":9,"componentType":5126,"count":957,"type":"VEC3"},{"bufferView":10,"componentType":5126,"count":957,"type":"VEC2"},{"bufferView":11,"componentType":5123,"count":1704,"type":"SCALAR"}],"bufferViews":[{"buffer":0,"byteLength":7740,"byteOffset":0,"target":34962},{"buffer":0,"byteLength":7740,"byteOffset":7740,"target":34962},{"buffer":0,"byteLength":5160,"byteOffset":15480,"target":34962},{"buffer":0,"byteLength":2400,"byteOffset":20640,"target":34963},{"buffer":0,"byteLength":11184,"byteOffset":23040,"target":34962},{"buffer":0,"byteLength":11184,"byteOffset":34224,"target":34962},{"buffer":0,"byteLength":7456,"byteOffset":45408,"target":34962},{"buffer":0,"byteLength":3624,"byteOffset":52864,"target":34963},{"buffer":0,"byteLength":11484,"byteOffset":56488,"target":34962},{"buffer":0,"byteLength":11484,"byteOffset":67972,"target":34962},{"buffer":0,"byteLength":7656,"byteOffset":79456,"target":34962},{"buffer":0,"byteLength":3408,"byteOffset":87112,"target":34963}],"samplers":[{"magFilter":9729,"minFilter":9987}],"buffers":[{"byteLength":90520,"uri":"worlds_SM_Bld_Door_Double_05.bin"}]}