{"asset":{"generator":"Khronos glTF Blender I/O v4.4.55","version":"2.0"},"extensionsUsed":["EXT_texture_webp"],"extensionsRequired":["EXT_texture_webp"],"scene":0,"scenes":[{"name":"Scene","nodes":[3]}],"nodes":[{"mesh":0,"name":"SM_Bld_Door_Double_01_Door_01"},{"mesh":1,"name":"SM_Bld_Door_Double_01_Door_02"},{"mesh":2,"name":"SM_Bld_Door_Double_01_Door_03"},{"children":[0,1,2],"mesh":3,"name":"SM_Bld_Door_Double_01","rotation":[0.7071068286895752,0,0,0.7071068286895752],"scale":[0.009999999776482582,0.009999999776482582,0.009999999776482582]}],"materials":[{"doubleSided":true,"name":"SciFi_Planets_SHD4","pbrMetallicRoughness":{"baseColorTexture":{"index":1},"metallicFactor":0,"roughnessFactor":0.5527864098548889}}],"meshes":[{"name":"Mesh.001","primitives":[{"attributes":{"POSITION":0,"NORMAL":1,"TEXCOORD_0":2},"indices":3,"material":0}]},{"name":"Mesh.002","primitives":[{"attributes":{"POSITION":4,"NORMAL":5,"TEXCOORD_0":6},"indices":7,"material":0}]},{"name":"Mesh.003","primitives":[{"attributes":{"POSITION":8,"NORMAL":9,"TEXCOORD_0":10},"indices":11,"material":0}]},{"name":"Mesh","primitives":[{"attributes":{"POSITION":12,"NORMAL":13,"TEXCOORD_0":14},"indices":15,"material":0}]}],"textures":[{"extensions":{},"sampler":0},{"extensions":{"EXT_texture_webp":{"source":0}},"sampler":0}],"images":[{"mimeType":"image/webp","name":"PolygonScifiWorlds_Texture_01_A","uri":"PolygonScifiWorlds_Texture_01_A.webp"}],"accessors":[{"bufferView":0,"componentType":5126,"count":512,"max":[2.220446049250313e-16,10,8.525486140485835e-16],"min":[-165.72958374023438,-10,-301.3257751464844],"type":"VEC3"},{"bufferView":1,"componentType":5126,"count":512,"type":"VEC3"},{"bufferView":2,"componentType":5126,"count":512,"type":"VEC2"},{"bufferView":3,"componentType":5123,"count":948,"type":"SCALAR"},{"bufferView":4,"componentType":5126,"count":532,"max":[165.72958374023438,10,2.775585354831473e-16],"min":[-2.7755575615628914e-16,-10,-301.3257751464844],"type":"VEC3"},{"bufferView":5,"componentType":5126,"count":532,"type":"VEC3"},{"bufferView":6,"componentType":5126,"count":532,"type":"VEC2"},{"bufferView":7,"componentType":5123,"count":996,"type":"SCALAR"},{"bufferView":8,"componentType":5126,"count":176,"max":[137.068359375,10,-202.0376434326172],"min":[-137.068359375,-10,-301.3257751464844],"type":"VEC3"},{"bufferView":9,"componentType":5126,"count":176,"type":"VEC3"},{"bufferView":10,"componentType":5126,"count":176,"type":"VEC2"},{"bufferView":11,"componentType":5123,"count":324,"type":"SCALAR"},{"bufferView":12,"componentType":5126,"count":1545,"max":[207.6870574951172,47.434383392333984,30],"min":[-208.2489471435547,-47.434383392333984,-357.3409118652344],"type":"VEC3"},{"bufferView":13,"componentType":5126,"count":1545,"type":"VEC3"},{"bufferView":14,"componentType":5126,"count":1545,"type":"VEC2"},{"bufferView":15,"componentType":5123,"count":2694,"type":"SCALAR"}],"bufferViews":[{"buffer":0,"byteLength":6144,"byteOffset":0,"target":34962},{"buffer":0,"byteLength":6144,"byteOffset":6144,"target":34962},{"buffer":0,"byteLength":4096,"byteOffset":12288,"target":34962},{"buffer":0,"byteLength":1896,"byteOffset":16384,"target":34963},{"buffer":0,"byteLength":6384,"byteOffset":18280,"target":34962},{"buffer":0,"byteLength":6384,"byteOffset":24664,"target":34962},{"buffer":0,"byteLength":4256,"byteOffset":31048,"target":34962},{"buffer":0,"byteLength":1992,"byteOffset":35304,"target":34963},{"buffer":0,"byteLength":2112,"byteOffset":37296,"target":34962},{"buffer":0,"byteLength":2112,"byteOffset":39408,"target":34962},{"buffer":0,"byteLength":1408,"byteOffset":41520,"target":34962},{"buffer":0,"byteLength":648,"byteOffset":42928,"target":34963},{"buffer":0,"byteLength":18540,"byteOffset":43576,"target":34962},{"buffer":0,"byteLength":18540,"byteOffset":62116,"target":34962},{"buffer":0,"byteLength":12360,"byteOffset":80656,"target":34962},{"buffer":0,"byteLength":5388,"byteOffset":93016,"target":34963}],"samplers":[{"magFilter":9729,"minFilter":9987}],"buffers":[{"byteLength":98404,"uri":"worlds_SM_Bld_Door_Double_01.bin"}]}