{
	"asset":{
		"generator":"Khronos glTF Blender I/O v4.4.55",
		"version":"2.0"
	},
	"extensionsUsed":[
		"EXT_texture_webp"
	],
	"extensionsRequired":[
		"EXT_texture_webp"
	],
	"scene":0,
	"scenes":[
		{
			"name":"Scene",
			"nodes":[
				2
			]
		}
	],
	"nodes":[
		{
			"mesh":0,
			"name":"SM_Bld_WindMill_Blade_01",
			"scale":[
				1,
				1.0030752420425415,
				1.0030752420425415
			],
			"translation":[
				0,
				0,
				-0.0001220703125
			]
		},
		{
			"children":[
				0
			],
			"mesh":1,
			"name":"SM_Bld_WindMill_Top_01"
		},
		{
			"children":[
				1
			],
			"mesh":2,
			"name":"SM_Bld_WindMill_01",
			"rotation":[
				0.7071068286895752,
				0,
				0,
				0.7071068286895752
			],
			"scale":[
				0.009999999776482582,
				0.009999999776482582,
				0.009999999776482582
			]
		}
	],
	"materials":[
		{
			"doubleSided":true,
			"name":"ScifiMat1",
			"pbrMetallicRoughness":{
				"baseColorTexture":{
					"index":0
				},
				"metallicFactor":0,
				"roughnessFactor":0.5527864098548889
			}
		}
	],
	"meshes":[
		{
			"name":"Mesh.002",
			"primitives":[
				{
					"attributes":{
						"POSITION":0,
						"NORMAL":1,
						"TEXCOORD_0":2
					},
					"indices":3,
					"material":0
				}
			]
		},
		{
			"name":"Mesh.001",
			"primitives":[
				{
					"attributes":{
						"POSITION":4,
						"NORMAL":5,
						"TEXCOORD_0":6
					},
					"indices":7,
					"material":0
				}
			]
		},
		{
			"name":"Mesh",
			"primitives":[
				{
					"attributes":{
						"POSITION":8,
						"NORMAL":9,
						"TEXCOORD_0":10
					},
					"indices":11,
					"material":0
				}
			]
		}
	],
	"textures":[
		{
			"extensions":{
				"EXT_texture_webp":{
					"source":0
				}
			},
			"sampler":0
		}
	],
	"images":[
		{
			"mimeType":"image/webp",
			"name":"PolygonScifiWorlds_Texture_01_A",
			"uri":"PolygonScifiWorlds_Texture_01_A.webp"
		}
	],
	"accessors":[
		{
			"bufferView":0,
			"componentType":5126,
			"count":937,
			"max":[
				279.3046875,
				383.0340270996094,
				-945.2704467773438
			],
			"min":[
				-279.3045654296875,
				-337.7301330566406,
				-1503.8785400390625
			],
			"type":"VEC3"
		},
		{
			"bufferView":1,
			"componentType":5126,
			"count":937,
			"type":"VEC3"
		},
		{
			"bufferView":2,
			"componentType":5126,
			"count":937,
			"type":"VEC2"
		},
		{
			"bufferView":3,
			"componentType":5123,
			"count":1488,
			"type":"SCALAR"
		},
		{
			"bufferView":4,
			"componentType":5126,
			"count":614,
			"max":[
				346.367919921875,
				415.4685363769531,
				-880.9093017578125
			],
			"min":[
				-346.367919921875,
				304.34521484375,
				-1688.143310546875
			],
			"type":"VEC3"
		},
		{
			"bufferView":5,
			"componentType":5126,
			"count":614,
			"type":"VEC3"
		},
		{
			"bufferView":6,
			"componentType":5126,
			"count":614,
			"type":"VEC2"
		},
		{
			"bufferView":7,
			"componentType":5123,
			"count":996,
			"type":"SCALAR"
		},
		{
			"bufferView":8,
			"componentType":5126,
			"count":2365,
			"max":[
				317.03564453125,
				318.0105285644531,
				0.00010713982919696718
			],
			"min":[
				-317.03564453125,
				-318.0105285644531,
				-1385.285400390625
			],
			"type":"VEC3"
		},
		{
			"bufferView":9,
			"componentType":5126,
			"count":2365,
			"type":"VEC3"
		},
		{
			"bufferView":10,
			"componentType":5126,
			"count":2365,
			"type":"VEC2"
		},
		{
			"bufferView":11,
			"componentType":5123,
			"count":3606,
			"type":"SCALAR"
		}
	],
	"bufferViews":[
		{
			"buffer":0,
			"byteLength":11244,
			"byteOffset":0,
			"target":34962
		},
		{
			"buffer":0,
			"byteLength":11244,
			"byteOffset":11244,
			"target":34962
		},
		{
			"buffer":0,
			"byteLength":7496,
			"byteOffset":22488,
			"target":34962
		},
		{
			"buffer":0,
			"byteLength":2976,
			"byteOffset":29984,
			"target":34963
		},
		{
			"buffer":0,
			"byteLength":7368,
			"byteOffset":32960,
			"target":34962
		},
		{
			"buffer":0,
			"byteLength":7368,
			"byteOffset":40328,
			"target":34962
		},
		{
			"buffer":0,
			"byteLength":4912,
			"byteOffset":47696,
			"target":34962
		},
		{
			"buffer":0,
			"byteLength":1992,
			"byteOffset":52608,
			"target":34963
		},
		{
			"buffer":0,
			"byteLength":28380,
			"byteOffset":54600,
			"target":34962
		},
		{
			"buffer":0,
			"byteLength":28380,
			"byteOffset":82980,
			"target":34962
		},
		{
			"buffer":0,
			"byteLength":18920,
			"byteOffset":111360,
			"target":34962
		},
		{
			"buffer":0,
			"byteLength":7212,
			"byteOffset":130280,
			"target":34963
		}
	],
	"samplers":[
		{
			"magFilter":9729,
			"minFilter":9987
		}
	],
	"buffers":[
		{
			"byteLength":137492,
			"uri":"worlds_SM_Bld_WindMill_01.bin"
		}
	]
}
