{
	"asset":{
		"generator":"Khronos glTF Blender I/O v4.4.55",
		"version":"2.0"
	},
	"extensionsUsed":[
		"EXT_texture_webp"
	],
	"extensionsRequired":[
		"EXT_texture_webp"
	],
	"scene":0,
	"scenes":[
		{
			"name":"Scene",
			"nodes":[
				0
			]
		}
	],
	"nodes":[
		{
			"mesh":0,
			"name":"SM_Bld_Overhang_01",
			"rotation":[
				0.7071068286895752,
				0,
				0,
				0.7071068286895752
			],
			"scale":[
				0.009999999776482582,
				0.009999999776482582,
				0.009999999776482582
			]
		}
	],
	"materials":[
		{
			"doubleSided":true,
			"name":"ScifiMat",
			"pbrMetallicRoughness":{
				"baseColorTexture":{
					"index":0
				},
				"metallicFactor":0,
				"roughnessFactor":0.5527864098548889
			}
		}
	],
	"meshes":[
		{
			"name":"Mesh",
			"primitives":[
				{
					"attributes":{
						"POSITION":0,
						"NORMAL":1,
						"TEXCOORD_0":2,
						"TEXCOORD_1":3
					},
					"indices":4,
					"material":0
				}
			]
		}
	],
	"textures":[
		{
			"extensions":{
				"EXT_texture_webp":{
					"source":0
				}
			},
			"sampler":0
		}
	],
	"images":[
		{
			"mimeType":"image/webp",
			"name":"PolygonScifiWorlds_Texture_01_A",
			"uri":"PolygonScifiWorlds_Texture_01_A.webp"
		}
	],
	"accessors":[
		{
			"bufferView":0,
			"componentType":5126,
			"count":5611,
			"max":[
				525.3723754882812,
				525.370849609375,
				590.7052001953125
			],
			"min":[
				-526.2731323242188,
				-2538.975341796875,
				-1396.9678955078125
			],
			"type":"VEC3"
		},
		{
			"bufferView":1,
			"componentType":5126,
			"count":5611,
			"type":"VEC3"
		},
		{
			"bufferView":2,
			"componentType":5126,
			"count":5611,
			"type":"VEC2"
		},
		{
			"bufferView":3,
			"componentType":5126,
			"count":5611,
			"type":"VEC2"
		},
		{
			"bufferView":4,
			"componentType":5123,
			"count":8964,
			"type":"SCALAR"
		}
	],
	"bufferViews":[
		{
			"buffer":0,
			"byteLength":67332,
			"byteOffset":0,
			"target":34962
		},
		{
			"buffer":0,
			"byteLength":67332,
			"byteOffset":67332,
			"target":34962
		},
		{
			"buffer":0,
			"byteLength":44888,
			"byteOffset":134664,
			"target":34962
		},
		{
			"buffer":0,
			"byteLength":44888,
			"byteOffset":179552,
			"target":34962
		},
		{
			"buffer":0,
			"byteLength":17928,
			"byteOffset":224440,
			"target":34963
		}
	],
	"samplers":[
		{
			"magFilter":9729,
			"minFilter":9987
		}
	],
	"buffers":[
		{
			"byteLength":242368,
			"uri":"worlds_SM_Bld_Overhang_01.bin"
		}
	]
}
