{
	"asset":{
		"generator":"Khronos glTF Blender I/O v4.4.55",
		"version":"2.0"
	},
	"extensionsUsed":[
		"EXT_texture_webp"
	],
	"extensionsRequired":[
		"EXT_texture_webp"
	],
	"scene":0,
	"scenes":[
		{
			"name":"Scene",
			"nodes":[
				0
			]
		}
	],
	"nodes":[
		{
			"mesh":0,
			"name":"SM_Prop_Junky_Male_02",
			"rotation":[
				0.7071068286895752,
				0,
				0,
				0.7071068286895752
			],
			"scale":[
				0.009999999776482582,
				0.009999999776482582,
				0.009999999776482582
			]
		}
	],
	"materials":[
		{
			"doubleSided":true,
			"name":"_SciFi_Planets_SHD_Jason",
			"pbrMetallicRoughness":{
				"baseColorTexture":{
					"index":0
				},
				"metallicFactor":0,
				"roughnessFactor":0.5527864098548889
			}
		}
	],
	"meshes":[
		{
			"name":"Mesh",
			"primitives":[
				{
					"attributes":{
						"POSITION":0,
						"NORMAL":1,
						"TEXCOORD_0":2,
						"TEXCOORD_1":3,
						"COLOR_0":4,
						"COLOR_1":5
					},
					"indices":6,
					"material":0
				}
			]
		}
	],
	"textures":[
		{
			"extensions":{
				"EXT_texture_webp":{
					"source":0
				}
			},
			"sampler":0
		}
	],
	"images":[
		{
			"mimeType":"image/webp",
			"name":"PolygonScifiWorlds_Texture_01_A",
			"uri":"PolygonScifiWorlds_Texture_01_A.webp"
		}
	],
	"accessors":[
		{
			"bufferView":0,
			"componentType":5126,
			"count":6080,
			"max":[
				42.81046676635742,
				54.895301818847656,
				6.693351745605469
			],
			"min":[
				-50.280792236328125,
				-34.61738586425781,
				-99.29859924316406
			],
			"type":"VEC3"
		},
		{
			"bufferView":1,
			"componentType":5126,
			"count":6080,
			"type":"VEC3"
		},
		{
			"bufferView":2,
			"componentType":5126,
			"count":6080,
			"type":"VEC2"
		},
		{
			"bufferView":3,
			"componentType":5126,
			"count":6080,
			"type":"VEC2"
		},
		{
			"bufferView":4,
			"componentType":5121,
			"count":6080,
			"normalized":true,
			"type":"VEC4"
		},
		{
			"bufferView":5,
			"componentType":5123,
			"count":6080,
			"normalized":true,
			"type":"VEC4"
		},
		{
			"bufferView":6,
			"componentType":5123,
			"count":8670,
			"type":"SCALAR"
		}
	],
	"bufferViews":[
		{
			"buffer":0,
			"byteLength":72960,
			"byteOffset":0,
			"target":34962
		},
		{
			"buffer":0,
			"byteLength":72960,
			"byteOffset":72960,
			"target":34962
		},
		{
			"buffer":0,
			"byteLength":48640,
			"byteOffset":145920,
			"target":34962
		},
		{
			"buffer":0,
			"byteLength":48640,
			"byteOffset":194560,
			"target":34962
		},
		{
			"buffer":0,
			"byteLength":24320,
			"byteOffset":243200,
			"target":34962
		},
		{
			"buffer":0,
			"byteLength":48640,
			"byteOffset":267520,
			"target":34962
		},
		{
			"buffer":0,
			"byteLength":17340,
			"byteOffset":316160,
			"target":34963
		}
	],
	"samplers":[
		{
			"magFilter":9729,
			"minFilter":9987
		}
	],
	"buffers":[
		{
			"byteLength":333500,
			"uri":"worlds_SM_Prop_Junky_Male_02.bin"
		}
	]
}
