{
	"asset":{
		"generator":"Khronos glTF Blender I/O v4.4.55",
		"version":"2.0"
	},
	"extensionsUsed":[
		"EXT_texture_webp"
	],
	"extensionsRequired":[
		"EXT_texture_webp"
	],
	"scene":0,
	"scenes":[
		{
			"name":"Scene",
			"nodes":[
				2
			]
		}
	],
	"nodes":[
		{
			"mesh":0,
			"name":"SM_Wep_Pistol_04_Mag_01"
		},
		{
			"mesh":1,
			"name":"SM_Wep_Pistol_04_Trigger_01"
		},
		{
			"children":[
				0,
				1
			],
			"mesh":2,
			"name":"SM_Wep_Pistol_04",
			"rotation":[
				0.7071068286895752,
				0,
				0,
				0.7071068286895752
			],
			"scale":[
				0.009999999776482582,
				0.009999999776482582,
				0.009999999776482582
			]
		}
	],
	"materials":[
		{
			"doubleSided":true,
			"name":"Clip1:SM_Prop_Crate_03SG1",
			"normalTexture":{
				"index":0
			},
			"pbrMetallicRoughness":{
				"baseColorTexture":{
					"index":1
				},
				"metallicFactor":0,
				"roughnessFactor":0.5527864098548889
			}
		}
	],
	"meshes":[
		{
			"name":"Mesh.002",
			"primitives":[
				{
					"attributes":{
						"POSITION":0,
						"NORMAL":1,
						"TEXCOORD_0":2
					},
					"indices":3,
					"material":0
				}
			]
		},
		{
			"name":"Mesh.001",
			"primitives":[
				{
					"attributes":{
						"POSITION":4,
						"NORMAL":5,
						"TEXCOORD_0":6
					},
					"indices":7,
					"material":0
				}
			]
		},
		{
			"name":"Mesh",
			"primitives":[
				{
					"attributes":{
						"POSITION":8,
						"NORMAL":9,
						"TEXCOORD_0":10
					},
					"indices":11,
					"material":0
				}
			]
		}
	],
	"textures":[
		{
			"extensions":{},
			"sampler":0
		},
		{
			"extensions":{
				"EXT_texture_webp":{
					"source":0
				}
			},
			"sampler":0
		}
	],
	"images":[
		{
			"mimeType":"image/webp",
			"name":"PolygonScifiWorlds_Texture_01_A",
			"uri":"PolygonScifiWorlds_Texture_01_A.webp"
		}
	],
	"accessors":[
		{
			"bufferView":0,
			"componentType":5126,
			"count":356,
			"max":[
				1.8254741430282593,
				27.63701629638672,
				10.388284683227539
			],
			"min":[
				-1.8254741430282593,
				14.884078025817871,
				-1.654118537902832
			],
			"type":"VEC3"
		},
		{
			"bufferView":1,
			"componentType":5126,
			"count":356,
			"type":"VEC3"
		},
		{
			"bufferView":2,
			"componentType":5126,
			"count":356,
			"type":"VEC2"
		},
		{
			"bufferView":3,
			"componentType":5123,
			"count":600,
			"type":"SCALAR"
		},
		{
			"bufferView":4,
			"componentType":5126,
			"count":66,
			"max":[
				0.619774580001831,
				10.358085632324219,
				-2.2910289764404297
			],
			"min":[
				-0.619774580001831,
				4.620419979095459,
				-6.740731239318848
			],
			"type":"VEC3"
		},
		{
			"bufferView":5,
			"componentType":5126,
			"count":66,
			"type":"VEC3"
		},
		{
			"bufferView":6,
			"componentType":5126,
			"count":66,
			"type":"VEC2"
		},
		{
			"bufferView":7,
			"componentType":5123,
			"count":120,
			"type":"SCALAR"
		},
		{
			"bufferView":8,
			"componentType":5126,
			"count":1604,
			"max":[
				4.362186431884766,
				30.078105926513672,
				10.912757873535156
			],
			"min":[
				-4.362190246582031,
				-7.515928268432617,
				-20.112041473388672
			],
			"type":"VEC3"
		},
		{
			"bufferView":9,
			"componentType":5126,
			"count":1604,
			"type":"VEC3"
		},
		{
			"bufferView":10,
			"componentType":5126,
			"count":1604,
			"type":"VEC2"
		},
		{
			"bufferView":11,
			"componentType":5123,
			"count":2886,
			"type":"SCALAR"
		}
	],
	"bufferViews":[
		{
			"buffer":0,
			"byteLength":4272,
			"byteOffset":0,
			"target":34962
		},
		{
			"buffer":0,
			"byteLength":4272,
			"byteOffset":4272,
			"target":34962
		},
		{
			"buffer":0,
			"byteLength":2848,
			"byteOffset":8544,
			"target":34962
		},
		{
			"buffer":0,
			"byteLength":1200,
			"byteOffset":11392,
			"target":34963
		},
		{
			"buffer":0,
			"byteLength":792,
			"byteOffset":12592,
			"target":34962
		},
		{
			"buffer":0,
			"byteLength":792,
			"byteOffset":13384,
			"target":34962
		},
		{
			"buffer":0,
			"byteLength":528,
			"byteOffset":14176,
			"target":34962
		},
		{
			"buffer":0,
			"byteLength":240,
			"byteOffset":14704,
			"target":34963
		},
		{
			"buffer":0,
			"byteLength":19248,
			"byteOffset":14944,
			"target":34962
		},
		{
			"buffer":0,
			"byteLength":19248,
			"byteOffset":34192,
			"target":34962
		},
		{
			"buffer":0,
			"byteLength":12832,
			"byteOffset":53440,
			"target":34962
		},
		{
			"buffer":0,
			"byteLength":5772,
			"byteOffset":66272,
			"target":34963
		}
	],
	"samplers":[
		{
			"magFilter":9729,
			"minFilter":9987
		}
	],
	"buffers":[
		{
			"byteLength":72044,
			"uri":"worlds_SM_Wep_Pistol_04.bin"
		}
	]
}
