{"asset":{"generator":"Khronos glTF Blender I/O v4.4.55","version":"2.0"},"extensionsUsed":["EXT_texture_webp"],"extensionsRequired":["EXT_texture_webp"],"scene":0,"scenes":[{"name":"Scene","nodes":[2]}],"nodes":[{"mesh":0,"name":"SM_Wep_Pistol_01_Scope_01"},{"mesh":1,"name":"SM_Wep_Pistol_01_Trigger_01"},{"children":[0,1],"mesh":2,"name":"SM_Wep_Pistol_01","rotation":[0.7071068286895752,0,0,0.7071068286895752],"scale":[0.009999999776482582,0.009999999776482582,0.009999999776482582]}],"materials":[{"doubleSided":true,"name":"Clip1:SM_Prop_Crate_03SG1","pbrMetallicRoughness":{"baseColorTexture":{"index":1},"metallicFactor":0,"roughnessFactor":0.5527864098548889}}],"meshes":[{"name":"Mesh.002","primitives":[{"attributes":{"POSITION":0,"NORMAL":1,"TEXCOORD_0":2},"indices":3,"material":0}]},{"name":"Mesh.001","primitives":[{"attributes":{"POSITION":4,"NORMAL":5,"TEXCOORD_0":6},"indices":7,"material":0}]},{"name":"Mesh","primitives":[{"attributes":{"POSITION":8,"NORMAL":9,"TEXCOORD_0":10},"indices":11,"material":0}]}],"textures":[{"extensions":{},"sampler":0},{"extensions":{"EXT_texture_webp":{"source":0}},"sampler":0}],"images":[{"mimeType":"image/webp","name":"PolygonScifiWorlds_Texture_01_A","uri":"PolygonScifiWorlds_Texture_01_A.webp"}],"accessors":[{"bufferView":0,"componentType":5126,"count":302,"max":[2.0084142684936523,5.613798141479492,-11.344916343688965],"min":[-2.0084140300750732,-9.00930404663086,-15.36174488067627],"type":"VEC3"},{"bufferView":1,"componentType":5126,"count":302,"type":"VEC3"},{"bufferView":2,"componentType":5126,"count":302,"type":"VEC2"},{"bufferView":3,"componentType":5123,"count":516,"type":"SCALAR"},{"bufferView":4,"componentType":5126,"count":66,"max":[0.5145969986915588,3.5421009063720703,4.137335300445557],"min":[-0.5145969986915588,-2.0209732055664062,-1.3108620643615723],"type":"VEC3"},{"bufferView":5,"componentType":5126,"count":66,"type":"VEC3"},{"bufferView":6,"componentType":5126,"count":66,"type":"VEC2"},{"bufferView":7,"componentType":5123,"count":126,"type":"SCALAR"},{"bufferView":8,"componentType":5126,"count":1837,"max":[5.3285417556762695,23.942188262939453,15.875277519226074],"min":[-5.3285417556762695,-12.160699844360352,-16.55756187438965],"type":"VEC3"},{"bufferView":9,"componentType":5126,"count":1837,"type":"VEC3"},{"bufferView":10,"componentType":5126,"count":1837,"type":"VEC2"},{"bufferView":11,"componentType":5123,"count":3108,"type":"SCALAR"}],"bufferViews":[{"buffer":0,"byteLength":3624,"byteOffset":0,"target":34962},{"buffer":0,"byteLength":3624,"byteOffset":3624,"target":34962},{"buffer":0,"byteLength":2416,"byteOffset":7248,"target":34962},{"buffer":0,"byteLength":1032,"byteOffset":9664,"target":34963},{"buffer":0,"byteLength":792,"byteOffset":10696,"target":34962},{"buffer":0,"byteLength":792,"byteOffset":11488,"target":34962},{"buffer":0,"byteLength":528,"byteOffset":12280,"target":34962},{"buffer":0,"byteLength":252,"byteOffset":12808,"target":34963},{"buffer":0,"byteLength":22044,"byteOffset":13060,"target":34962},{"buffer":0,"byteLength":22044,"byteOffset":35104,"target":34962},{"buffer":0,"byteLength":14696,"byteOffset":57148,"target":34962},{"buffer":0,"byteLength":6216,"byteOffset":71844,"target":34963}],"samplers":[{"magFilter":9729,"minFilter":9987}],"buffers":[{"byteLength":78060,"uri":"worlds_SM_Wep_Pistol_01.bin"}]}