{"asset":{"generator":"Khronos glTF Blender I/O v4.4.55","version":"2.0"},"extensionsUsed":["EXT_texture_webp"],"extensionsRequired":["EXT_texture_webp"],"scene":0,"scenes":[{"name":"Scene","nodes":[2]}],"nodes":[{"mesh":0,"name":"SM_Prop_Drone_01_Wing_l","rotation":[0.3889641761779785,-0.26709485054016113,0.11891830712556839,0.8736279010772705]},{"mesh":1,"name":"SM_Prop_Drone_01_Wing_r","rotation":[0.3889641761779785,0.26709485054016113,-0.11891830712556839,0.8736279010772705]},{"children":[0,1],"mesh":2,"name":"SM_Prop_Drone_01","rotation":[0.7071068286895752,0,0,0.7071068286895752],"scale":[0.009999999776482582,0.009999999776482582,0.009999999776482582]}],"materials":[{"doubleSided":true,"name":"SciFiCrate_MAT","pbrMetallicRoughness":{"baseColorTexture":{"index":1},"metallicFactor":0,"roughnessFactor":0.5527864098548889}}],"meshes":[{"name":"Mesh.001","primitives":[{"attributes":{"POSITION":0,"NORMAL":1,"TEXCOORD_0":2},"indices":3,"material":0}]},{"name":"Mesh.002","primitives":[{"attributes":{"POSITION":4,"NORMAL":5,"TEXCOORD_0":6},"indices":7,"material":0}]},{"name":"Mesh","primitives":[{"attributes":{"POSITION":8,"NORMAL":9,"TEXCOORD_0":10},"indices":11,"material":0}]}],"textures":[{"extensions":{},"sampler":0},{"extensions":{"EXT_texture_webp":{"source":0}},"sampler":0}],"images":[{"mimeType":"image/webp","name":"PolygonScifiWorlds_Texture_01_A","uri":"PolygonScifiWorlds_Texture_01_A.webp"}],"accessors":[{"bufferView":0,"componentType":5126,"count":202,"max":[-4.56396484375,-32.311767578125,-9.55908203125],"min":[-19.404296875,-122.42724609375,-17.510498046875],"type":"VEC3"},{"bufferView":1,"componentType":5126,"count":202,"type":"VEC3"},{"bufferView":2,"componentType":5126,"count":202,"type":"VEC2"},{"bufferView":3,"componentType":5123,"count":384,"type":"SCALAR"},{"bufferView":4,"componentType":5126,"count":202,"max":[19.4052734375,-32.311279296875,-9.558837890625],"min":[4.5654296875,-122.427001953125,-17.510498046875],"type":"VEC3"},{"bufferView":5,"componentType":5126,"count":202,"type":"VEC3"},{"bufferView":6,"componentType":5126,"count":202,"type":"VEC2"},{"bufferView":7,"componentType":5123,"count":384,"type":"SCALAR"},{"bufferView":8,"componentType":5126,"count":2526,"max":[59.3369140625,49.53466796875,26.002138137817383],"min":[-59.3369140625,-49.53466796875,-60.52915954589844],"type":"VEC3"},{"bufferView":9,"componentType":5126,"count":2526,"type":"VEC3"},{"bufferView":10,"componentType":5126,"count":2526,"type":"VEC2"},{"bufferView":11,"componentType":5123,"count":4434,"type":"SCALAR"}],"bufferViews":[{"buffer":0,"byteLength":2424,"byteOffset":0,"target":34962},{"buffer":0,"byteLength":2424,"byteOffset":2424,"target":34962},{"buffer":0,"byteLength":1616,"byteOffset":4848,"target":34962},{"buffer":0,"byteLength":768,"byteOffset":6464,"target":34963},{"buffer":0,"byteLength":2424,"byteOffset":7232,"target":34962},{"buffer":0,"byteLength":2424,"byteOffset":9656,"target":34962},{"buffer":0,"byteLength":1616,"byteOffset":12080,"target":34962},{"buffer":0,"byteLength":768,"byteOffset":13696,"target":34963},{"buffer":0,"byteLength":30312,"byteOffset":14464,"target":34962},{"buffer":0,"byteLength":30312,"byteOffset":44776,"target":34962},{"buffer":0,"byteLength":20208,"byteOffset":75088,"target":34962},{"buffer":0,"byteLength":8868,"byteOffset":95296,"target":34963}],"samplers":[{"magFilter":9729,"minFilter":9987}],"buffers":[{"byteLength":104164,"uri":"worlds_SM_Prop_Drone_01.bin"}]}