{"asset":{"generator":"Khronos glTF Blender I/O v4.4.55","version":"2.0"},"extensionsUsed":["EXT_texture_webp"],"extensionsRequired":["EXT_texture_webp"],"scene":0,"scenes":[{"name":"Scene","nodes":[2]}],"nodes":[{"mesh":0,"name":"SM_Wep_Sniper_01_Scope_01"},{"mesh":1,"name":"SM_Wep_Sniper_01_Trigger_01"},{"children":[0,1],"mesh":2,"name":"SM_Wep_Sniper_01","rotation":[0.7071068286895752,0,0,0.7071068286895752],"scale":[0.009999999776482582,0.009999999776482582,0.009999999776482582]}],"materials":[{"doubleSided":true,"name":"Clip1:SM_Prop_Crate_03SG1","pbrMetallicRoughness":{"baseColorTexture":{"index":1},"metallicFactor":0,"roughnessFactor":0.5527864098548889}}],"meshes":[{"name":"Mesh.001","primitives":[{"attributes":{"POSITION":0,"NORMAL":1,"TEXCOORD_0":2,"COLOR_0":3,"COLOR_1":4,"COLOR_2":5},"indices":6,"material":0}]},{"name":"Mesh.002","primitives":[{"attributes":{"POSITION":7,"NORMAL":8,"TEXCOORD_0":9},"indices":10,"material":0}]},{"name":"Mesh","primitives":[{"attributes":{"POSITION":11,"NORMAL":12,"TEXCOORD_0":13},"indices":14,"material":0}]}],"textures":[{"extensions":{},"sampler":0},{"extensions":{"EXT_texture_webp":{"source":0}},"sampler":0}],"images":[{"mimeType":"image/webp","name":"PolygonScifiWorlds_Texture_01_A","uri":"PolygonScifiWorlds_Texture_01_A.webp"}],"accessors":[{"bufferView":0,"componentType":5126,"count":506,"max":[5.107994079589844,56.06172180175781,-11.150457382202148],"min":[-5.107990264892578,8.24592113494873,-28.354066848754883],"type":"VEC3"},{"bufferView":1,"componentType":5126,"count":506,"type":"VEC3"},{"bufferView":2,"componentType":5126,"count":506,"type":"VEC2"},{"bufferView":3,"componentType":5121,"count":506,"normalized":true,"type":"VEC4"},{"bufferView":4,"componentType":5123,"count":506,"normalized":true,"type":"VEC4"},{"bufferView":5,"componentType":5123,"count":506,"normalized":true,"type":"VEC4"},{"bufferView":6,"componentType":5123,"count":906,"type":"SCALAR"},{"bufferView":7,"componentType":5126,"count":100,"max":[0.7436646223068237,5.288775444030762,2.994260787963867],"min":[-0.7436646223068237,-0.6712260246276855,-1.5134148597717285],"type":"VEC3"},{"bufferView":8,"componentType":5126,"count":100,"type":"VEC3"},{"bufferView":9,"componentType":5126,"count":100,"type":"VEC2"},{"bufferView":10,"componentType":5123,"count":162,"type":"SCALAR"},{"bufferView":11,"componentType":5126,"count":1605,"max":[7.009097099304199,139.48643493652344,22.30280113220215],"min":[-7.009097099304199,-26.997262954711914,-12.135856628417969],"type":"VEC3"},{"bufferView":12,"componentType":5126,"count":1605,"type":"VEC3"},{"bufferView":13,"componentType":5126,"count":1605,"type":"VEC2"},{"bufferView":14,"componentType":5123,"count":2808,"type":"SCALAR"}],"bufferViews":[{"buffer":0,"byteLength":6072,"byteOffset":0,"target":34962},{"buffer":0,"byteLength":6072,"byteOffset":6072,"target":34962},{"buffer":0,"byteLength":4048,"byteOffset":12144,"target":34962},{"buffer":0,"byteLength":2024,"byteOffset":16192,"target":34962},{"buffer":0,"byteLength":4048,"byteOffset":18216,"target":34962},{"buffer":0,"byteLength":4048,"byteOffset":22264,"target":34962},{"buffer":0,"byteLength":1812,"byteOffset":26312,"target":34963},{"buffer":0,"byteLength":1200,"byteOffset":28124,"target":34962},{"buffer":0,"byteLength":1200,"byteOffset":29324,"target":34962},{"buffer":0,"byteLength":800,"byteOffset":30524,"target":34962},{"buffer":0,"byteLength":324,"byteOffset":31324,"target":34963},{"buffer":0,"byteLength":19260,"byteOffset":31648,"target":34962},{"buffer":0,"byteLength":19260,"byteOffset":50908,"target":34962},{"buffer":0,"byteLength":12840,"byteOffset":70168,"target":34962},{"buffer":0,"byteLength":5616,"byteOffset":83008,"target":34963}],"samplers":[{"magFilter":9729,"minFilter":9987}],"buffers":[{"byteLength":88624,"uri":"worlds_SM_Wep_Sniper_01.bin"}]}