{"asset":{"generator":"Khronos glTF Blender I/O v4.4.55","version":"2.0"},"extensionsUsed":["EXT_texture_webp"],"extensionsRequired":["EXT_texture_webp"],"scene":0,"scenes":[{"name":"Scene","nodes":[8]}],"nodes":[{"mesh":0,"name":"SM_Bld_Pod_Hab_Small_05_Glass_01"},{"mesh":1,"name":"SM_Bld_Pod_Hab_Small_05_Glass_02"},{"mesh":2,"name":"SM_Bld_Pod_Hab_Small_05_Glass_03"},{"mesh":3,"name":"SM_Bld_Pod_Hab_Small_05_Glass_04"},{"mesh":4,"name":"SM_Bld_Pod_Hab_Small_05_Glass_05"},{"mesh":5,"name":"SM_Bld_Pod_Hab_Small_05_Glass_06"},{"mesh":6,"name":"SM_Bld_Pod_Hab_Small_05_Glass_07"},{"mesh":7,"name":"SM_Bld_Pod_Hab_Small_05_Glass_08"},{"children":[0,1,2,3,4,5,6,7],"mesh":8,"name":"SM_Bld_Pod_Hab_Small_05","rotation":[0.7071068286895752,0,0,0.7071068286895752],"scale":[0.009999999776482582,0.009999999776482582,0.009999999776482582]}],"materials":[{"alphaMode":"BLEND","doubleSided":true,"name":"Glass_MAT","pbrMetallicRoughness":{"baseColorFactor":[1,1,1,0.15662652254104614],"baseColorTexture":{"index":0},"metallicFactor":0,"roughnessFactor":0.5527864098548889}},{"doubleSided":true,"name":"POD_SHD:SciFi_Planets_POD_SHD","pbrMetallicRoughness":{"baseColorTexture":{"index":2},"metallicFactor":0,"roughnessFactor":0.5527864098548889}}],"meshes":[{"name":"Mesh.001","primitives":[{"attributes":{"POSITION":0,"NORMAL":1,"TEXCOORD_0":2},"indices":3,"material":0}]},{"name":"Mesh.002","primitives":[{"attributes":{"POSITION":4,"NORMAL":5,"TEXCOORD_0":6},"indices":3,"material":0}]},{"name":"Mesh.003","primitives":[{"attributes":{"POSITION":7,"NORMAL":8,"TEXCOORD_0":9},"indices":10,"material":0}]},{"name":"Mesh.004","primitives":[{"attributes":{"POSITION":11,"NORMAL":12,"TEXCOORD_0":13},"indices":3,"material":0}]},{"name":"Mesh.008","primitives":[{"attributes":{"POSITION":14,"NORMAL":15,"TEXCOORD_0":16},"indices":10,"material":0}]},{"name":"Mesh.007","primitives":[{"attributes":{"POSITION":17,"NORMAL":18,"TEXCOORD_0":19},"indices":10,"material":0}]},{"name":"Mesh.006","primitives":[{"attributes":{"POSITION":20,"NORMAL":21,"TEXCOORD_0":22},"indices":3,"material":0}]},{"name":"Mesh.005","primitives":[{"attributes":{"POSITION":23,"NORMAL":24,"TEXCOORD_0":25},"indices":10,"material":0}]},{"name":"Mesh","primitives":[{"attributes":{"POSITION":26,"NORMAL":27,"TEXCOORD_0":28},"indices":29,"material":1}]}],"textures":[{"extensions":{"EXT_texture_webp":{"source":0}},"sampler":0},{"extensions":{},"sampler":0},{"extensions":{"EXT_texture_webp":{"source":0}},"sampler":0}],"images":[{"mimeType":"image/webp","name":"PolygonScifiWorlds_Texture_01_A","uri":"PolygonScifiWorlds_Texture_01_A.webp"}],"accessors":[{"bufferView":0,"componentType":5126,"count":8,"max":[-30.23700714111328,340.20794677734375,-182.45849609375],"min":[-611.3270874023438,279.90679931640625,-237.5415496826172],"type":"VEC3"},{"bufferView":1,"componentType":5126,"count":8,"type":"VEC3"},{"bufferView":2,"componentType":5126,"count":8,"type":"VEC2"},{"bufferView":3,"componentType":5123,"count":12,"type":"SCALAR"},{"bufferView":4,"componentType":5126,"count":8,"max":[-200.7562255859375,246.78131103515625,-403.72283935546875],"min":[-547.105712890625,143.392333984375,-465.0964050292969],"type":"VEC3"},{"bufferView":5,"componentType":5126,"count":8,"type":"VEC3"},{"bufferView":6,"componentType":5126,"count":8,"type":"VEC2"},{"bufferView":7,"componentType":5126,"count":8,"max":[-200.7562255859375,-143.392333984375,-403.72283935546875],"min":[-547.105712890625,-246.78131103515625,-465.0964050292969],"type":"VEC3"},{"bufferView":8,"componentType":5126,"count":8,"type":"VEC3"},{"bufferView":9,"componentType":5126,"count":8,"type":"VEC2"},{"bufferView":10,"componentType":5123,"count":12,"type":"SCALAR"},{"bufferView":11,"componentType":5126,"count":8,"max":[-30.23700714111328,-279.90679931640625,-182.45849609375],"min":[-611.3270874023438,-340.20794677734375,-237.5415496826172],"type":"VEC3"},{"bufferView":12,"componentType":5126,"count":8,"type":"VEC3"},{"bufferView":13,"componentType":5126,"count":8,"type":"VEC2"},{"bufferView":14,"componentType":5126,"count":8,"max":[611.3270874023438,340.20794677734375,-182.45849609375],"min":[30.23700714111328,279.90679931640625,-237.5415496826172],"type":"VEC3"},{"bufferView":15,"componentType":5126,"count":8,"type":"VEC3"},{"bufferView":16,"componentType":5126,"count":8,"type":"VEC2"},{"bufferView":17,"componentType":5126,"count":8,"max":[547.105712890625,246.78131103515625,-403.72283935546875],"min":[200.7562255859375,143.392333984375,-465.0964050292969],"type":"VEC3"},{"bufferView":18,"componentType":5126,"count":8,"type":"VEC3"},{"bufferView":19,"componentType":5126,"count":8,"type":"VEC2"},{"bufferView":20,"componentType":5126,"count":8,"max":[547.105712890625,-143.392333984375,-403.72283935546875],"min":[200.7562255859375,-246.78131103515625,-465.0964050292969],"type":"VEC3"},{"bufferView":21,"componentType":5126,"count":8,"type":"VEC3"},{"bufferView":22,"componentType":5126,"count":8,"type":"VEC2"},{"bufferView":23,"componentType":5126,"count":8,"max":[611.3270874023438,-279.90679931640625,-182.45849609375],"min":[30.23700714111328,-340.20794677734375,-237.5415496826172],"type":"VEC3"},{"bufferView":24,"componentType":5126,"count":8,"type":"VEC3"},{"bufferView":25,"componentType":5126,"count":8,"type":"VEC2"},{"bufferView":26,"componentType":5126,"count":12790,"max":[775,384.00006103515625,130],"min":[-775,-384.00006103515625,-484],"type":"VEC3"},{"bufferView":27,"componentType":5126,"count":12790,"type":"VEC3"},{"bufferView":28,"componentType":5126,"count":12790,"type":"VEC2"},{"bufferView":29,"componentType":5123,"count":23112,"type":"SCALAR"}],"bufferViews":[{"buffer":0,"byteLength":96,"byteOffset":0,"target":34962},{"buffer":0,"byteLength":96,"byteOffset":96,"target":34962},{"buffer":0,"byteLength":64,"byteOffset":192,"target":34962},{"buffer":0,"byteLength":24,"byteOffset":256,"target":34963},{"buffer":0,"byteLength":96,"byteOffset":280,"target":34962},{"buffer":0,"byteLength":96,"byteOffset":376,"target":34962},{"buffer":0,"byteLength":64,"byteOffset":472,"target":34962},{"buffer":0,"byteLength":96,"byteOffset":536,"target":34962},{"buffer":0,"byteLength":96,"byteOffset":632,"target":34962},{"buffer":0,"byteLength":64,"byteOffset":728,"target":34962},{"buffer":0,"byteLength":24,"byteOffset":792,"target":34963},{"buffer":0,"byteLength":96,"byteOffset":816,"target":34962},{"buffer":0,"byteLength":96,"byteOffset":912,"target":34962},{"buffer":0,"byteLength":64,"byteOffset":1008,"target":34962},{"buffer":0,"byteLength":96,"byteOffset":1072,"target":34962},{"buffer":0,"byteLength":96,"byteOffset":1168,"target":34962},{"buffer":0,"byteLength":64,"byteOffset":1264,"target":34962},{"buffer":0,"byteLength":96,"byteOffset":1328,"target":34962},{"buffer":0,"byteLength":96,"byteOffset":1424,"target":34962},{"buffer":0,"byteLength":64,"byteOffset":1520,"target":34962},{"buffer":0,"byteLength":96,"byteOffset":1584,"target":34962},{"buffer":0,"byteLength":96,"byteOffset":1680,"target":34962},{"buffer":0,"byteLength":64,"byteOffset":1776,"target":34962},{"buffer":0,"byteLength":96,"byteOffset":1840,"target":34962},{"buffer":0,"byteLength":96,"byteOffset":1936,"target":34962},{"buffer":0,"byteLength":64,"byteOffset":2032,"target":34962},{"buffer":0,"byteLength":153480,"byteOffset":2096,"target":34962},{"buffer":0,"byteLength":153480,"byteOffset":155576,"target":34962},{"buffer":0,"byteLength":102320,"byteOffset":309056,"target":34962},{"buffer":0,"byteLength":46224,"byteOffset":411376,"target":34963}],"samplers":[{"magFilter":9729,"minFilter":9987}],"buffers":[{"byteLength":457600,"uri":"worlds_SM_Bld_Pod_Hab_Small_05.bin"}]}