{"asset":{"generator":"Khronos glTF Blender I/O v4.4.55","version":"2.0"},"extensionsUsed":["EXT_texture_webp"],"extensionsRequired":["EXT_texture_webp"],"scene":0,"scenes":[{"name":"Scene","nodes":[0]}],"nodes":[{"mesh":0,"name":"SM_Env_CloudRing_02","rotation":[0.7071068286895752,0,0,0.7071068286895752],"scale":[0.009999999776482582,0.009999999776482582,0.009999999776482582]}],"materials":[{"doubleSided":true,"name":"SciFi_Planets_SHD","pbrMetallicRoughness":{"baseColorTexture":{"index":1},"metallicFactor":0,"roughnessFactor":0.5527864098548889}}],"meshes":[{"name":"Mesh","primitives":[{"attributes":{"POSITION":0,"NORMAL":1,"TEXCOORD_0":2,"TEXCOORD_1":3},"indices":4,"material":0}]}],"textures":[{"extensions":{},"sampler":0},{"extensions":{"EXT_texture_webp":{"source":0}},"sampler":0}],"images":[{"mimeType":"image/webp","name":"PolygonScifiWorlds_Texture_01_A","uri":"PolygonScifiWorlds_Texture_01_A.webp"}],"accessors":[{"bufferView":0,"componentType":5126,"count":25702,"max":[155839.4375,155745.65625,-76192.7734375],"min":[-149753.859375,-146009.515625,-135389.8125],"type":"VEC3"},{"bufferView":1,"componentType":5126,"count":25702,"type":"VEC3"},{"bufferView":2,"componentType":5126,"count":25702,"type":"VEC2"},{"bufferView":3,"componentType":5126,"count":25702,"type":"VEC2"},{"bufferView":4,"componentType":5123,"count":25734,"type":"SCALAR"}],"bufferViews":[{"buffer":0,"byteLength":308424,"byteOffset":0,"target":34962},{"buffer":0,"byteLength":308424,"byteOffset":308424,"target":34962},{"buffer":0,"byteLength":205616,"byteOffset":616848,"target":34962},{"buffer":0,"byteLength":205616,"byteOffset":822464,"target":34962},{"buffer":0,"byteLength":51468,"byteOffset":1028080,"target":34963}],"samplers":[{"magFilter":9729,"minFilter":9987}],"buffers":[{"byteLength":1079548,"uri":"worlds_SM_Env_CloudRing_02.bin"}]}