{"asset":{"generator":"Khronos glTF Blender I/O v4.4.55","version":"2.0"},"extensionsUsed":["EXT_texture_webp"],"extensionsRequired":["EXT_texture_webp"],"scene":0,"scenes":[{"name":"Scene","nodes":[0]}],"nodes":[{"mesh":0,"name":"SM_Bld_Pod_Base_04","rotation":[0.7071068286895752,0,0,0.7071068286895752],"scale":[0.009999999776482582,0.009999999776482582,0.009999999776482582]}],"materials":[{"doubleSided":true,"name":"SciFi_Planets_POD_SHD","pbrMetallicRoughness":{"baseColorTexture":{"index":1},"metallicFactor":0,"roughnessFactor":0.5527864098548889}}],"meshes":[{"name":"Mesh","primitives":[{"attributes":{"POSITION":0,"NORMAL":1,"TEXCOORD_0":2},"indices":3,"material":0}]}],"textures":[{"extensions":{},"sampler":0},{"extensions":{"EXT_texture_webp":{"source":0}},"sampler":0}],"images":[{"mimeType":"image/webp","name":"PolygonScifiWorlds_Texture_01_A","uri":"PolygonScifiWorlds_Texture_01_A.webp"}],"accessors":[{"bufferView":0,"componentType":5126,"count":2064,"max":[1511.14013671875,1508.6534423828125,100],"min":[-1511.14013671875,-1508.6534423828125,0],"type":"VEC3"},{"bufferView":1,"componentType":5126,"count":2064,"type":"VEC3"},{"bufferView":2,"componentType":5126,"count":2064,"type":"VEC2"},{"bufferView":3,"componentType":5123,"count":3168,"type":"SCALAR"}],"bufferViews":[{"buffer":0,"byteLength":24768,"byteOffset":0,"target":34962},{"buffer":0,"byteLength":24768,"byteOffset":24768,"target":34962},{"buffer":0,"byteLength":16512,"byteOffset":49536,"target":34962},{"buffer":0,"byteLength":6336,"byteOffset":66048,"target":34963}],"samplers":[{"magFilter":9729,"minFilter":9987}],"buffers":[{"byteLength":72384,"uri":"worlds_SM_Bld_Pod_Base_04.bin"}]}