{"asset":{"generator":"Khronos glTF Blender I/O v4.4.55","version":"2.0"},"extensionsUsed":["EXT_texture_webp"],"extensionsRequired":["EXT_texture_webp"],"scene":0,"scenes":[{"name":"Scene","nodes":[1]}],"nodes":[{"mesh":0,"name":"SM_Prop_Bed_Double_01_Blinds_01"},{"children":[0],"mesh":1,"name":"SM_Prop_Bed_Double_01","rotation":[0.7071068286895752,0,0,0.7071068286895752],"scale":[0.009999999776482582,0.009999999776482582,0.009999999776482582]}],"materials":[{"doubleSided":true,"name":"SciFi_Planets_SHD","pbrMetallicRoughness":{"baseColorTexture":{"index":1},"metallicFactor":0,"roughnessFactor":0.5527864098548889}}],"meshes":[{"name":"Mesh.001","primitives":[{"attributes":{"POSITION":0,"NORMAL":1,"TEXCOORD_0":2},"indices":3,"material":0}]},{"name":"Mesh","primitives":[{"attributes":{"POSITION":4,"NORMAL":5,"TEXCOORD_0":6},"indices":7,"material":0}]}],"textures":[{"extensions":{},"sampler":0},{"extensions":{"EXT_texture_webp":{"source":0}},"sampler":0}],"images":[{"mimeType":"image/webp","name":"PolygonScifiWorlds_Texture_01_A","uri":"PolygonScifiWorlds_Texture_01_A.webp"}],"accessors":[{"bufferView":0,"componentType":5126,"count":12,"max":[45.88861083984375,123.76519012451172,-64.88323211669922],"min":[-45.88861083984375,120.25603485107422,-96.5953598022461],"type":"VEC3"},{"bufferView":1,"componentType":5126,"count":12,"type":"VEC3"},{"bufferView":2,"componentType":5126,"count":12,"type":"VEC2"},{"bufferView":3,"componentType":5123,"count":18,"type":"SCALAR"},{"bufferView":4,"componentType":5126,"count":4484,"max":[70.83642578125,137.22943115234375,0],"min":[-70.83642578125,-137.2294921875,-171.9775390625],"type":"VEC3"},{"bufferView":5,"componentType":5126,"count":4484,"type":"VEC3"},{"bufferView":6,"componentType":5126,"count":4484,"type":"VEC2"},{"bufferView":7,"componentType":5123,"count":7716,"type":"SCALAR"}],"bufferViews":[{"buffer":0,"byteLength":144,"byteOffset":0,"target":34962},{"buffer":0,"byteLength":144,"byteOffset":144,"target":34962},{"buffer":0,"byteLength":96,"byteOffset":288,"target":34962},{"buffer":0,"byteLength":36,"byteOffset":384,"target":34963},{"buffer":0,"byteLength":53808,"byteOffset":420,"target":34962},{"buffer":0,"byteLength":53808,"byteOffset":54228,"target":34962},{"buffer":0,"byteLength":35872,"byteOffset":108036,"target":34962},{"buffer":0,"byteLength":15432,"byteOffset":143908,"target":34963}],"samplers":[{"magFilter":9729,"minFilter":9987}],"buffers":[{"byteLength":159340,"uri":"worlds_SM_Prop_Bed_Double_01.bin"}]}