{"asset":{"generator":"Khronos glTF Blender I/O v4.4.55","version":"2.0"},"extensionsUsed":["EXT_texture_webp"],"extensionsRequired":["EXT_texture_webp"],"scene":0,"scenes":[{"name":"Scene","nodes":[0]}],"nodes":[{"mesh":0,"name":"SM_Prop_Cardboard_Box_03","rotation":[0.7071068286895752,0,0,0.7071068286895752],"scale":[0.009999999776482582,0.009999999776482582,0.009999999776482582]}],"materials":[{"doubleSided":true,"name":"SciFi_Planets_SHD","pbrMetallicRoughness":{"baseColorTexture":{"index":1},"metallicFactor":0,"roughnessFactor":0.5527864098548889}}],"meshes":[{"name":"Mesh","primitives":[{"attributes":{"POSITION":0,"NORMAL":1,"TEXCOORD_0":2},"indices":3,"material":0}]}],"textures":[{"extensions":{},"sampler":0},{"extensions":{"EXT_texture_webp":{"source":0}},"sampler":0}],"images":[{"mimeType":"image/webp","name":"PolygonScifiWorlds_Texture_01_A","uri":"PolygonScifiWorlds_Texture_01_A.webp"}],"accessors":[{"bufferView":0,"componentType":5126,"count":242,"max":[42.326988220214844,55.234073638916016,0],"min":[-42.32693099975586,-55.234073638916016,-45.186279296875],"type":"VEC3"},{"bufferView":1,"componentType":5126,"count":242,"type":"VEC3"},{"bufferView":2,"componentType":5126,"count":242,"type":"VEC2"},{"bufferView":3,"componentType":5123,"count":348,"type":"SCALAR"}],"bufferViews":[{"buffer":0,"byteLength":2904,"byteOffset":0,"target":34962},{"buffer":0,"byteLength":2904,"byteOffset":2904,"target":34962},{"buffer":0,"byteLength":1936,"byteOffset":5808,"target":34962},{"buffer":0,"byteLength":696,"byteOffset":7744,"target":34963}],"samplers":[{"magFilter":9729,"minFilter":9987}],"buffers":[{"byteLength":8440,"uri":"worlds_SM_Prop_Cardboard_Box_03.bin"}]}