{"asset":{"generator":"Khronos glTF Blender I/O v4.4.55","version":"2.0"},"extensionsUsed":["EXT_texture_webp"],"extensionsRequired":["EXT_texture_webp"],"scene":0,"scenes":[{"name":"Scene","nodes":[1]}],"nodes":[{"mesh":0,"name":"SM_Wep_Alien_03_Trigger_01"},{"children":[0],"mesh":1,"name":"SM_Wep_Alien_03","rotation":[0.7071068286895752,0,0,0.7071068286895752],"scale":[0.009999999776482582,0.009999999776482582,0.009999999776482582]}],"materials":[{"doubleSided":true,"name":"Clip1:SM_Prop_Crate_03SG1","pbrMetallicRoughness":{"baseColorTexture":{"index":1},"metallicFactor":0,"roughnessFactor":0.5527864098548889}}],"meshes":[{"name":"Mesh.001","primitives":[{"attributes":{"POSITION":0,"NORMAL":1,"TEXCOORD_0":2},"indices":3,"material":0}]},{"name":"Mesh","primitives":[{"attributes":{"POSITION":4,"NORMAL":5,"TEXCOORD_0":6},"indices":7,"material":0}]}],"textures":[{"extensions":{},"sampler":0},{"extensions":{"EXT_texture_webp":{"source":0}},"sampler":0}],"images":[{"mimeType":"image/webp","name":"PolygonScifiWorlds_Texture_01_A","uri":"PolygonScifiWorlds_Texture_01_A.webp"}],"accessors":[{"bufferView":0,"componentType":5126,"count":64,"max":[0.821258544921875,10.645193099975586,3.0762786865234375],"min":[-0.8252716064453125,1.0484747886657715,-4.5526275634765625],"type":"VEC3"},{"bufferView":1,"componentType":5126,"count":64,"type":"VEC3"},{"bufferView":2,"componentType":5126,"count":64,"type":"VEC2"},{"bufferView":3,"componentType":5123,"count":120,"type":"SCALAR"},{"bufferView":4,"componentType":5126,"count":2669,"max":[7.2791900634765625,91.80162048339844,14.69012451171875],"min":[-7.2791900634765625,-27.531124114990234,-22.722869873046875],"type":"VEC3"},{"bufferView":5,"componentType":5126,"count":2669,"type":"VEC3"},{"bufferView":6,"componentType":5126,"count":2669,"type":"VEC2"},{"bufferView":7,"componentType":5123,"count":4188,"type":"SCALAR"}],"bufferViews":[{"buffer":0,"byteLength":768,"byteOffset":0,"target":34962},{"buffer":0,"byteLength":768,"byteOffset":768,"target":34962},{"buffer":0,"byteLength":512,"byteOffset":1536,"target":34962},{"buffer":0,"byteLength":240,"byteOffset":2048,"target":34963},{"buffer":0,"byteLength":32028,"byteOffset":2288,"target":34962},{"buffer":0,"byteLength":32028,"byteOffset":34316,"target":34962},{"buffer":0,"byteLength":21352,"byteOffset":66344,"target":34962},{"buffer":0,"byteLength":8376,"byteOffset":87696,"target":34963}],"samplers":[{"magFilter":9729,"minFilter":9987}],"buffers":[{"byteLength":96072,"uri":"worlds_SM_Wep_Alien_03.bin"}]}