{"asset":{"generator":"Khronos glTF Blender I/O v4.4.55","version":"2.0"},"extensionsUsed":["EXT_texture_webp"],"extensionsRequired":["EXT_texture_webp"],"scene":0,"scenes":[{"name":"Scene","nodes":[4]}],"nodes":[{"mesh":0,"name":"SM_Prop_Vending_Machine_04_Glass_01"},{"mesh":1,"name":"SM_Prop_Vending_Machine_04_Arm_01"},{"mesh":2,"name":"SM_Prop_Vending_Machine_04_Arm_02"},{"children":[1,2],"mesh":3,"name":"SM_Prop_Vending_Machine_04_Topper_01"},{"children":[0,3],"mesh":4,"name":"SM_Prop_Vending_Machine_04","rotation":[0.7071068286895752,0,0,0.7071068286895752],"scale":[0.009999999776482582,0.009999999776482582,0.009999999776482582]}],"materials":[{"alphaMode":"MASK","doubleSided":true,"name":"pasted__Glass_MAT","pbrMetallicRoughness":{"baseColorFactor":[1,1,1,0.15662652254104614],"baseColorTexture":{"index":0},"metallicFactor":0,"roughnessFactor":0.5527864098548889},"alphaCutoff":0.5},{"doubleSided":true,"name":"Base_Lambert1","pbrMetallicRoughness":{"baseColorTexture":{"index":1},"metallicFactor":0,"roughnessFactor":0.5527864098548889}}],"meshes":[{"name":"Mesh.001","primitives":[{"attributes":{"POSITION":0,"NORMAL":1,"TEXCOORD_0":2},"indices":3,"material":0}]},{"name":"Mesh.003","primitives":[{"attributes":{"POSITION":4,"NORMAL":5,"TEXCOORD_0":6},"indices":7,"material":1}]},{"name":"Mesh.004","primitives":[{"attributes":{"POSITION":8,"NORMAL":9,"TEXCOORD_0":10},"indices":11,"material":1}]},{"name":"Mesh.002","primitives":[{"attributes":{"POSITION":12,"NORMAL":13,"TEXCOORD_0":14},"indices":15,"material":1}]},{"name":"Mesh","primitives":[{"attributes":{"POSITION":16,"NORMAL":17,"TEXCOORD_0":18},"indices":19,"material":1}]}],"textures":[{"extensions":{"EXT_texture_webp":{"source":0}},"sampler":0},{"extensions":{"EXT_texture_webp":{"source":0}},"sampler":0}],"images":[{"mimeType":"image/webp","name":"PolygonScifiWorlds_Texture_01_A","uri":"PolygonScifiWorlds_Texture_01_A.webp"}],"accessors":[{"bufferView":0,"componentType":5126,"count":4,"max":[48.28694534301758,49.5926513671875,-83.61331176757812],"min":[-48.28694534301758,49.5926513671875,-186.23280334472656],"type":"VEC3"},{"bufferView":1,"componentType":5126,"count":4,"type":"VEC3"},{"bufferView":2,"componentType":5126,"count":4,"type":"VEC2"},{"bufferView":3,"componentType":5123,"count":6,"type":"SCALAR"},{"bufferView":4,"componentType":5126,"count":210,"max":[55.31170654296875,33.89931106567383,-244.7794647216797],"min":[24.291475296020508,14.218742370605469,-282.984130859375],"type":"VEC3"},{"bufferView":5,"componentType":5126,"count":210,"type":"VEC3"},{"bufferView":6,"componentType":5126,"count":210,"type":"VEC2"},{"bufferView":7,"componentType":5123,"count":336,"type":"SCALAR"},{"bufferView":8,"componentType":5126,"count":210,"max":[-23.942155838012695,22.001384735107422,-244.75210571289062],"min":[-54.96238708496094,2.880807876586914,-283.2159118652344],"type":"VEC3"},{"bufferView":9,"componentType":5126,"count":210,"type":"VEC3"},{"bufferView":10,"componentType":5126,"count":210,"type":"VEC2"},{"bufferView":11,"componentType":5123,"count":336,"type":"SCALAR"},{"bufferView":12,"componentType":5126,"count":409,"max":[29.048734664916992,47.93844223022461,-214.48239135742188],"min":[-29.048734664916992,-11.08877944946289,-314.8029479980469],"type":"VEC3"},{"bufferView":13,"componentType":5126,"count":409,"type":"VEC3"},{"bufferView":14,"componentType":5126,"count":409,"type":"VEC2"},{"bufferView":15,"componentType":5123,"count":678,"type":"SCALAR"},{"bufferView":16,"componentType":5126,"count":3805,"max":[59.68012619018555,83.31261444091797,-5.460112571716309],"min":[-72.078857421875,-60.89747619628906,-231.79766845703125],"type":"VEC3"},{"bufferView":17,"componentType":5126,"count":3805,"type":"VEC3"},{"bufferView":18,"componentType":5126,"count":3805,"type":"VEC2"},{"bufferView":19,"componentType":5123,"count":6444,"type":"SCALAR"}],"bufferViews":[{"buffer":0,"byteLength":48,"byteOffset":0,"target":34962},{"buffer":0,"byteLength":48,"byteOffset":48,"target":34962},{"buffer":0,"byteLength":32,"byteOffset":96,"target":34962},{"buffer":0,"byteLength":12,"byteOffset":128,"target":34963},{"buffer":0,"byteLength":2520,"byteOffset":140,"target":34962},{"buffer":0,"byteLength":2520,"byteOffset":2660,"target":34962},{"buffer":0,"byteLength":1680,"byteOffset":5180,"target":34962},{"buffer":0,"byteLength":672,"byteOffset":6860,"target":34963},{"buffer":0,"byteLength":2520,"byteOffset":7532,"target":34962},{"buffer":0,"byteLength":2520,"byteOffset":10052,"target":34962},{"buffer":0,"byteLength":1680,"byteOffset":12572,"target":34962},{"buffer":0,"byteLength":672,"byteOffset":14252,"target":34963},{"buffer":0,"byteLength":4908,"byteOffset":14924,"target":34962},{"buffer":0,"byteLength":4908,"byteOffset":19832,"target":34962},{"buffer":0,"byteLength":3272,"byteOffset":24740,"target":34962},{"buffer":0,"byteLength":1356,"byteOffset":28012,"target":34963},{"buffer":0,"byteLength":45660,"byteOffset":29368,"target":34962},{"buffer":0,"byteLength":45660,"byteOffset":75028,"target":34962},{"buffer":0,"byteLength":30440,"byteOffset":120688,"target":34962},{"buffer":0,"byteLength":12888,"byteOffset":151128,"target":34963}],"samplers":[{"magFilter":9729,"minFilter":9987}],"buffers":[{"byteLength":164016,"uri":"worlds_SM_Prop_Vending_Machine_04.bin"}]}